<svg width="601" height="84" viewBox="0 0 601 84" fill="none" xmlns="http://www.w3.org/2000/svg">
<g clip-path="url(#clip0_7970_9788)">
<mask id="mask0_7970_9788" style="mask-type:luminance" maskUnits="userSpaceOnUse" x="96" y="6" width="501" height="72">
<path d="M596.69 6.16797H96.3193V77.2487H596.69V6.16797Z" fill="white"/>
</mask>
<g mask="url(#mask0_7970_9788)">
<path d="M148.268 17.3931C148.186 17.9724 147.955 18.2246 147.396 18.2246H128.695V74.6144C128.695 75.2006 128.456 75.6097 127.748 75.6097H116.363C115.811 75.6097 115.573 75.2757 115.573 74.6144V18.2246H97.1027C96.626 18.2246 96.3193 17.8906 96.3193 17.3045V10.9927C96.3193 10.3247 96.4763 10.1543 97.1916 10.1543H148.275C148.588 10.1543 148.983 10.3247 148.983 10.7405C148.983 10.8223 148.983 10.9041 148.983 10.9041L148.268 17.3931Z" fill="white"/>
<path d="M166.998 76.5328C152.289 76.5328 143.596 68.374 143.596 52.3016C143.596 34.8181 152.847 27.3271 166.998 27.3271C181.149 27.3271 190.319 34.6545 190.319 52.3016C190.319 68.2922 181.707 76.5328 166.998 76.5328ZM166.998 34.8181C159.49 34.8181 156.799 39.4803 156.799 52.2198C156.799 64.2911 159.722 68.7898 166.998 68.7898C174.431 68.7898 177.115 64.1275 177.115 52.2198C177.115 39.3986 174.431 34.8181 166.998 34.8181Z" fill="white"/>
<path d="M243.573 74.2019C237.802 75.0335 229.572 76.3628 223.175 76.3628C208.861 76.3628 201.189 71.5367 201.189 56.6299V28.9087C201.189 28.3225 201.428 28.0771 201.987 28.0771H213.521C214.079 28.0771 214.311 28.4111 214.311 28.8269V57.2979C214.311 65.2934 217.391 67.9586 224.667 67.9586C226.724 67.9586 228.7 67.7878 230.594 67.4538C231.064 67.3724 231.303 67.0384 231.303 66.6226V28.8269C231.303 28.3225 231.541 28.0771 232.175 28.0771H243.641C244.111 28.0771 244.431 28.3293 244.431 28.9087V73.0363C244.445 73.7861 244.206 74.0383 243.573 74.2019Z" fill="white"/>
<path d="M293.417 75.7C289.54 75.9522 285.35 76.6134 280.928 76.6134C264.959 76.6134 255.625 69.8653 255.625 51.387C255.625 32.7379 265.667 27.2373 280.376 27.2373C284.566 27.2373 288.675 27.7417 292.074 28.0689C292.708 28.1507 292.94 28.3211 292.94 28.9823L292.149 34.6465C291.993 35.2327 291.836 35.478 291.202 35.478L283.449 35.3963C273.57 35.3963 269.06 39.1451 269.06 51.0463C269.06 62.3746 272.542 67.9499 282.502 67.9499H293.417C294.125 67.9499 294.282 68.1136 294.282 68.6997V74.7799C294.282 75.366 294.125 75.5364 293.417 75.7Z" fill="white"/>
<path d="M347.724 74.7874C347.724 75.3664 347.568 75.6186 347.016 75.6186H335.393C334.841 75.6186 334.603 75.3664 334.603 74.7874V46.3092C334.603 37.98 331.598 35.4035 323.852 35.4035H317.209C316.732 35.4035 316.494 35.7375 316.494 36.3237C316.494 36.3237 316.494 73.8739 316.494 74.7874C316.494 75.3664 316.262 75.6186 315.71 75.6186H304.087C303.529 75.6186 303.372 75.3664 303.372 74.7874C303.372 55.5588 303.372 9.44078 303.372 8.52743C303.372 7.94803 303.61 7.77764 304.087 7.69587L315.628 6.86426C316.181 6.86426 316.494 7.02785 316.494 7.69587V27.4967C316.494 27.9126 316.651 28.1647 317.209 28.1647C317.291 28.1647 317.366 28.1647 317.448 28.1647C317.448 28.1647 324.083 27.415 327.326 27.415C341.007 27.415 347.724 33.4132 347.724 47.4001V74.7874Z" fill="white"/>
<path d="M397.008 17.393C396.926 17.9724 396.695 18.2246 396.136 18.2246H377.435V74.6145C377.435 75.2006 377.196 75.6097 376.488 75.6097H365.103C364.551 75.6097 364.313 75.2757 364.313 74.6145V18.2246H345.843C345.366 18.2246 345.06 17.8906 345.06 17.3044V10.9927C345.06 10.3247 345.216 10.1543 345.931 10.1543H397.015C397.328 10.1543 397.724 10.3247 397.724 10.7405C397.724 10.8223 397.724 10.9041 397.724 10.9041L397.008 17.393Z" fill="white"/>
<path d="M436.842 74.2019C431.073 75.0335 422.849 76.3628 416.445 76.3628C402.138 76.3628 394.467 71.5367 394.467 56.6299V28.9087C394.467 28.3225 394.705 28.0771 395.257 28.0771H406.805C407.357 28.0771 407.595 28.4111 407.595 28.8269V57.2979C407.595 65.2934 410.675 67.9586 417.951 67.9586C420.008 67.9586 421.985 67.7878 423.886 67.4538C424.364 67.3724 424.599 67.0384 424.599 66.6226V28.8269C424.599 28.3225 424.838 28.0771 425.472 28.0771H436.93C437.4 28.0771 437.723 28.3293 437.723 28.9087V73.0363C437.715 73.7861 437.476 74.0383 436.842 74.2019Z" fill="white"/>
<path d="M495.122 75.618H483.504C482.954 75.618 482.715 75.3658 482.715 74.7864V46.2268C482.715 38.5653 479.942 35.4844 472.675 35.4844H465.395C464.921 35.4844 464.686 35.6548 464.686 36.3227V74.7864C464.686 75.3658 464.53 75.618 463.897 75.618H452.354C451.796 75.618 451.565 75.3658 451.565 74.7864V30.6517C451.565 29.9837 451.796 29.6497 452.275 29.6497C458.837 28.6546 467.61 27.4004 474.81 27.4004C489.676 27.4004 495.844 33.7326 495.844 47.7192V74.7792C495.835 75.3658 495.68 75.618 495.122 75.618Z" fill="white"/>
<path d="M550.501 55.8866H521.567C521.089 55.8866 520.858 55.9685 520.858 56.6364C520.858 65.4631 525.444 68.2101 534.696 68.2101C537.62 68.2101 541.665 67.8761 545.533 67.4603C545.617 67.4603 545.693 67.4603 545.773 67.4603C546.087 67.4603 546.326 67.5422 546.326 68.1283C546.326 68.1283 546.326 68.2101 546.326 68.2987L545.533 74.7061C545.378 75.374 545.139 75.3741 544.665 75.5377C540.704 76.2057 533.823 76.621 530.894 76.621C516.826 76.621 506.701 71.2093 506.701 51.8922C506.701 35.2404 515.319 27.2451 529.233 27.2451C546.469 27.2451 551.294 36.8218 551.294 54.9732C551.294 55.6345 550.98 55.8866 550.501 55.8866ZM529.149 35.1518C521.957 35.1518 520.455 40.8161 520.455 47.5571C520.455 48.3069 520.614 48.4773 521.173 48.4773H536.903C537.456 48.4773 537.775 48.3887 537.775 47.6457C537.775 40.7342 536.508 35.1518 529.149 35.1518Z" fill="white"/>
<path d="M574.762 76.7008C569.857 76.7008 564.961 76.1146 561.558 75.5352C560.924 75.3716 560.689 75.1194 560.689 74.6218V68.542C560.689 68.0444 560.92 67.7923 561.634 67.7923C563.694 67.9626 568.829 68.3784 572.945 68.3784C579.105 68.3784 582.982 67.131 582.982 62.7141C582.982 52.8036 560.765 55.5573 560.765 40.4799C560.765 30.6578 569.941 26.8271 580.607 26.8271C585.277 26.8271 590.333 27.5769 594.126 28.4085C594.604 28.4903 595.074 28.7425 595.074 29.2401L594.126 34.8225C594.046 35.2383 593.887 35.4837 593.492 35.4837C593.492 35.4837 593.413 35.4837 593.337 35.4837C590.643 35.3201 585.986 34.9043 583.217 34.9043C577.687 34.9043 574.041 35.6541 574.041 39.9005C574.041 48.6455 596.182 45.5578 596.182 61.1327C596.182 70.7843 589.07 76.7008 574.762 76.7008Z" fill="white"/>
</g>
<path d="M11.643 20.767C17.3823 20.767 22.0283 16.1209 22.0283 10.4045C22.0283 4.68801 17.3823 0.0419922 11.643 0.0419922C5.90385 0.0419922 1.25781 4.68801 1.25781 10.4045C1.25781 16.1209 5.90385 20.767 11.643 20.767Z" fill="white"/>
<path d="M38.8384 35.8666C44.5774 35.8666 49.2238 31.2205 49.2238 25.5041C49.2238 19.7876 44.5774 15.1416 38.8384 15.1416C33.0992 15.1416 28.4531 19.7876 28.4531 25.5041C28.4531 31.2433 33.0992 35.8666 38.8384 35.8666Z" fill="white"/>
<path d="M49.2238 57.091C49.2238 62.8078 44.5774 67.4538 38.8384 67.4538C33.0992 67.4538 28.4531 62.8078 28.4531 57.091C28.4531 51.3746 33.0992 46.7286 38.8384 46.7286C44.5774 46.7059 49.2238 51.352 49.2238 57.091Z" fill="white"/>
<path d="M65.8493 52.2882C71.5883 52.2882 76.2344 47.6422 76.2344 41.9259C76.2344 36.2095 71.5883 31.5635 65.8493 31.5635C60.1099 31.5635 55.4639 36.2095 55.4639 41.9259C55.4639 47.6653 60.1099 52.2882 65.8493 52.2882Z" fill="white"/>
<path d="M22.0283 41.9259C22.0283 47.6422 17.3823 52.2882 11.643 52.2882C5.90385 52.2882 1.25781 47.6422 1.25781 41.9259C1.25781 36.2095 5.90385 31.5635 11.643 31.5635C17.3823 31.5635 22.0283 36.2095 22.0283 41.9259Z" fill="white"/>
<path d="M11.643 83.8058C17.3823 83.8058 22.0283 79.1598 22.0283 73.4434C22.0283 67.7271 17.3823 63.0811 11.643 63.0811C5.90385 63.0811 1.25781 67.7271 1.25781 73.4434C1.25781 79.1598 5.90385 83.8058 11.643 83.8058Z" fill="white"/>
</g>
<defs>
<clipPath id="clip0_7970_9788">
<rect width="600" height="83.9161" fill="white" transform="translate(0.5 0.0419922)"/>
</clipPath>
</defs>
</svg>
