<svg width="906" height="130" viewBox="0 0 906 130" fill="none" xmlns="http://www.w3.org/2000/svg">
<path d="M60.792 8.64062C76.6102 8.64067 90.9905 14.685 101.825 24.5918L86.0615 51.3467C80.511 43.5514 71.1357 38.3829 60.792 38.3828C43.5902 38.3828 29.728 52.0848 29.7275 69.1279C29.7275 86.1714 43.5899 99.873 60.792 99.873C71.6193 99.873 81.1577 94.2307 86.7158 85.9541L102.033 113.462C91.1666 123.466 76.6312 129.616 60.792 129.616C27.2229 129.616 0 102.714 0 69.1279C0.000412136 35.5426 27.2231 8.64062 60.792 8.64062ZM141.921 54.0889H181.483V8.64062H212.381V129.616H181.483V81.2266H141.921V129.616H111.023V8.64062H141.921V54.0889ZM288.081 35.7783H250.48V54.5791H286.937V81.7168H250.48V102.479H288.081V129.616H220.891V8.64062H288.081V35.7783ZM336.254 8.64062C343.973 8.64062 350.748 10.374 356.892 13.5244C369.337 19.9827 375.324 29.2767 375.481 44.8711H346.021C344.761 36.5228 341.295 33.5294 335.467 33.5293C329.953 33.5293 325.227 37.4671 325.227 42.665C325.227 49.5959 331.528 52.7467 344.288 58.2598C369.967 69.2862 376.426 78.5799 376.426 93.8594C376.426 116.385 360.987 129.616 335.781 129.616C310.418 129.616 293.719 116.384 293.719 91.3389V88.8184H323.336C323.493 98.4271 328.22 104.729 335.624 104.729C341.768 104.728 346.81 99.8447 346.81 93.5439C346.809 84.2506 333.891 80.1553 323.336 75.9023C304.274 68.1839 295.609 58.1024 295.609 42.9805C295.609 23.133 314.829 8.64069 336.254 8.64062ZM425.137 8.64062C432.856 8.64062 439.63 10.374 445.774 13.5244C458.22 19.9827 464.207 29.2767 464.364 44.8711H434.904C433.644 36.5228 430.178 33.5294 424.35 33.5293C418.836 33.5293 414.11 37.4671 414.109 42.665C414.109 49.5959 420.411 52.7467 433.171 58.2598C458.85 69.2862 465.309 78.5799 465.309 93.8594C465.309 116.385 449.87 129.616 424.664 129.616C399.301 129.616 382.602 116.384 382.602 91.3389V88.8184H412.219C412.376 98.4271 417.103 104.729 424.507 104.729C430.651 104.728 435.692 99.8447 435.692 93.5439C435.692 84.2506 422.774 80.1553 412.219 75.9023C393.157 68.1839 384.492 58.1024 384.492 42.9805C384.492 23.133 403.712 8.64069 425.137 8.64062ZM505.983 68.8809L541.918 129.616H504.382L470.32 68.8809L488.486 38.2646H525.053L505.983 68.8809ZM578.913 129.616H548.016V8.6416H578.913V129.616ZM660.011 85.1494L658.703 8.6416H688.293V129.616H661.482L615.054 55.7236L615.871 129.616H586.281V8.6416H612.929L660.011 85.1494ZM757.211 8.6416C783.482 8.64164 808.81 26.4177 815.417 49.8574H782.066C776.56 40.2614 767.593 34.7559 756.424 34.7559C737.704 34.7561 724.646 49.8578 724.646 68.5781C724.646 87.9279 736.918 103.502 756.582 103.502C770.426 103.502 780.809 96.7371 784.427 84.7812H749.66V61.0273H818.878V67.6338C818.878 98.9394 795.91 129.616 756.739 129.616C722.287 129.616 694.914 102.715 694.914 68.5781C694.914 33.3396 723.388 8.6416 757.211 8.6416ZM865.832 8.6416C873.551 8.6416 880.326 10.374 886.47 13.5244C898.915 19.9827 904.902 29.2767 905.06 44.8711H875.6C874.339 36.5227 870.874 33.5294 865.045 33.5293C859.531 33.5293 854.805 37.4671 854.805 42.665C854.805 49.5958 861.106 52.7467 873.866 58.2598C899.545 69.2862 906.005 78.5799 906.005 93.8594C906.005 116.385 890.565 129.616 865.359 129.616C839.996 129.616 823.297 116.384 823.297 91.3389V88.8184H852.914C853.072 98.4271 857.798 104.729 865.202 104.729C871.346 104.728 876.388 99.8447 876.388 93.5439C876.387 84.2506 863.469 80.1553 852.914 75.9023C833.852 68.1839 825.188 58.1024 825.188 42.9805C825.188 23.133 844.407 8.64168 865.832 8.6416ZM524.851 30.0869H488.309L482.017 0L494.599 6.13281L506.58 0L518.561 6.13281L531.143 0L524.851 30.0869ZM495.051 13.2109L491.022 11.2441L493.355 23.9541H519.803L522.136 11.2441L518.109 13.2109L506.58 7.37109L495.051 13.2109Z" fill="white"/>
</svg>
