<svg width="20" height="19" viewBox="0 0 20 19" fill="none" xmlns="http://www.w3.org/2000/svg">
<path d="M1.52812 2.5803C1.21707 2.26926 1.09261 1.8189 1.20157 1.39891C1.31055 0.978871 1.63641 0.65301 2.05641 0.544069C2.47645 0.435085 2.92676 0.559572 3.2378 0.870616L18.4671 16.0999C18.7782 16.411 18.9027 16.8613 18.7937 17.2813C18.6847 17.7013 18.3589 18.0272 17.9388 18.1362C17.5188 18.2451 17.0685 18.1206 16.7575 17.8096L1.52812 2.5803Z" fill="white"/>
<path d="M18.4641 2.5803C18.7751 2.26926 18.8996 1.8189 18.7906 1.39891C18.6816 0.978871 18.3558 0.65301 17.9358 0.544069C17.5157 0.435085 17.0654 0.559572 16.7544 0.870616L1.52505 16.0999C1.21401 16.411 1.08949 16.8613 1.19851 17.2813C1.30745 17.7013 1.6333 18.0272 2.05335 18.1362C2.47335 18.2451 2.92364 18.1206 3.23468 17.8096L18.4641 2.5803Z" fill="white"/>
</svg>
