<svg width="80" height="80" viewBox="0 0 80 80" fill="none" xmlns="http://www.w3.org/2000/svg">
<path fill-rule="evenodd" clip-rule="evenodd" d="M80 40C80 62.0914 62.0914 80 40 80C17.9086 80 0 62.0914 0 40C0 17.9086 17.9086 0 40 0C62.0914 0 80 17.9086 80 40ZM36.271 72.007L42.7862 52.4556H20.4323L33.6839 8.39839C18.9132 11.3341 7.77958 24.3668 7.77958 40C7.77958 56.5336 20.2327 70.1586 36.271 72.007ZM40.1031 72.2203L62.6245 37.6193H44.7706C44.7706 37.6193 41.941 37.8942 36.6833 41.718L35.2494 39.8061C40.0291 36.9383 42.1732 33.8463 42.1732 33.8463L49.4449 9.18603C62.6312 13.2229 72.2204 25.4916 72.2204 40C72.2204 57.7605 57.8506 72.1646 40.1031 72.2203Z" fill="#9BFF92"/>
</svg>
