<svg width="24" height="20" viewBox="0 0 24 20" fill="none" xmlns="http://www.w3.org/2000/svg">
<path d="M1.23124 20C0.791354 20 0.384895 19.7696 0.164964 19.3955C-0.0549879 19.0215 -0.0549879 18.5607 0.164964 18.1866C0.384915 17.8126 0.791354 17.5822 1.23124 17.5822H22.7688C23.2086 17.5822 23.6151 17.8126 23.835 18.1866C24.055 18.5607 24.055 19.0215 23.835 19.3955C23.6151 19.7696 23.2086 20 22.7688 20H1.23124ZM1.23124 11.2089C0.791354 11.2089 0.384895 10.9785 0.164964 10.6045C-0.0549879 10.2304 -0.0549879 9.76955 0.164964 9.39553C0.384915 9.02152 0.791354 8.79107 1.23124 8.79107H22.7688C23.2086 8.79107 23.6151 9.02152 23.835 9.39553C24.055 9.76955 24.055 10.2304 23.835 10.6045C23.6151 10.9785 23.2086 11.2089 22.7688 11.2089H1.23124ZM1.23124 2.41786V2.41778C0.791354 2.41778 0.384895 2.18742 0.164964 1.8134C-0.0549879 1.43932 -0.0549879 0.978484 0.164964 0.604466C0.384915 0.230388 0.791354 0 1.23124 0H22.7688C23.2086 0 23.6151 0.230368 23.835 0.604466C24.055 0.978484 24.055 1.4393 23.835 1.8134C23.6151 2.18742 23.2086 2.41778 22.7688 2.41778L1.23124 2.41786Z" fill="white"/>
</svg>
