<svg width="30" height="29" viewBox="0 0 30 29" fill="none" xmlns="http://www.w3.org/2000/svg">
<path d="M29.6437 13.8147L18.2146 1.00421C17.6172 0.398334 16.7496 0.403486 16.1943 0.904151C15.639 1.40482 15.5913 2.36384 16.0938 2.91674L25.402 13.3474L1.42845 13.3474C0.639442 13.3474 -6.56345e-07 13.9846 -6.21984e-07 14.7707C-5.8762e-07 15.5568 0.63947 16.1939 1.42845 16.1939L25.402 16.1939L16.0938 26.6246C15.5913 27.1779 15.6556 28.1189 16.1943 28.6372C16.7551 29.1769 17.7117 29.0904 18.2146 28.5371L29.6437 15.7267C30.1484 15.0237 30.0882 14.4277 29.6437 13.8141L29.6437 13.8147Z" fill="#001B60"/>
</svg>
