<svg width="120" height="119" viewBox="0 0 120 119" fill="none" xmlns="http://www.w3.org/2000/svg">
<path fill-rule="evenodd" clip-rule="evenodd" d="M45.621 116.374C45.6063 116.077 45.6344 115.774 45.7094 115.472L56.2275 73.2015H27.8877C26.8619 73.2015 25.9021 72.6965 25.3221 71.8517C24.7421 71.0068 24.6168 69.9308 24.9868 68.9756L45.7289 0C19.4876 6.35922 0 30.004 0 58.2003C0 86.358 19.4342 109.977 45.621 116.374ZM51.5931 117.514C54.3026 117.889 57.0701 118.083 59.8828 118.083C92.9552 118.083 119.766 91.2727 119.766 58.2003C119.766 32.2823 103.3 10.21 80.2587 1.87337C80.2234 1.98799 80.1812 2.1012 80.1322 2.21241L67.8214 45.5844H92.1694C93.3069 45.5844 94.3537 46.2045 94.899 47.2011C95.4444 48.1978 95.4013 49.4122 94.7865 50.3678L51.5931 117.514Z" fill="url(#paint0_linear_6606_253)"/>
<defs>
<linearGradient id="paint0_linear_6606_253" x1="45.6979" y1="-1.64258" x2="110.365" y2="134.158" gradientUnits="userSpaceOnUse">
<stop offset="0.148924" stop-color="#3CED74"/>
<stop offset="1" stop-color="#00A033"/>
</linearGradient>
</defs>
</svg>
