<svg width="20" height="21" viewBox="0 0 20 21" fill="none" xmlns="http://www.w3.org/2000/svg">
<path d="M14.117 0.0007957C12.9546 0.0174888 11.4478 0.311264 9.76568 1.28212C6.2379 3.31826 1.36711 1.41423 1.36711 1.41423C1.2776 1.37811 1.17716 1.38041 1.08937 1.42063C1.00159 1.46086 0.934243 1.5354 0.903166 1.62685C0.872083 1.71822 0.879998 1.81838 0.92504 1.90379C0.92504 1.90379 2.39072 4.44611 5.85919 5.71377C3.55799 6.8494 0.499355 5.5998 0.499355 5.5998C0.407471 5.55706 0.301562 5.55605 0.208872 5.59714C0.116198 5.63822 0.0458266 5.7173 0.0157579 5.81414C-0.0142464 5.91092 -0.00100733 6.01597 0.0520948 6.10232C0.0520948 6.10232 0.860049 7.42977 2.15547 8.49913C2.80311 9.03387 3.57942 9.51222 4.45962 9.71657C5.33982 9.92092 6.32464 9.83616 7.30679 9.26932C9.05849 8.2583 10.5708 8.14951 11.6521 8.28197C12.7332 8.41444 13.3522 8.77973 13.3522 8.77973C13.4418 8.8324 13.5501 8.84262 13.648 8.80772C13.746 8.77283 13.8233 8.69634 13.8594 8.59884L16.7445 0.87112C16.7756 0.788733 16.7745 0.697713 16.7415 0.616041C16.7086 0.534446 16.6462 0.468178 16.5667 0.430331C16.5667 0.430331 15.8058 0.0715657 14.5937 0.00939836C14.4422 0.00162735 14.2831 -0.00157882 14.117 0.0007957ZM18.4022 0.0456943C18.2633 0.050587 18.129 0.0966365 18.0163 0.177944C17.9035 0.259251 17.8174 0.372219 17.7689 0.502448L10.4691 20.0515C10.4038 20.226 10.4104 20.4191 10.4874 20.5887C10.5645 20.7582 10.7057 20.8901 10.8801 20.9556C11.0547 21.0208 11.248 21.014 11.4176 20.9366C11.5872 20.8591 11.719 20.7175 11.7841 20.5428L19.0858 0.993741C19.151 0.819111 19.1442 0.625766 19.0668 0.456174C18.9894 0.286653 18.8477 0.154768 18.6731 0.0897088C18.5866 0.0575457 18.4945 0.0423124 18.4022 0.0456943Z" fill="#0EF169"/>
</svg>
