<svg width="180" height="59" viewBox="0 0 180 59" fill="none" xmlns="http://www.w3.org/2000/svg">
<g filter="url(#filter0_b_7128_547)">
<mask id="path-1-inside-1_7128_547" fill="white">
<path fill-rule="evenodd" clip-rule="evenodd" d="M82.4561 0.927734C83.2271 0.927734 83.9396 1.3391 84.3252 2.00687L88.5307 9.29104C89.3614 10.7299 91.4382 10.7299 92.2689 9.29104L96.4744 2.00687C96.86 1.3391 97.5725 0.927734 98.3436 0.927734H170.26C175.624 0.927734 179.972 5.27604 179.972 10.6399V48.9492C179.972 54.3131 175.624 58.6614 170.26 58.6614H10.5481C5.18424 58.6614 0.835938 54.3131 0.835938 48.9492V38.055C0.835938 37.2839 1.2473 36.5714 1.91507 36.1859L9.7388 31.6689C11.1776 30.8381 11.1776 28.7614 9.7388 27.9306L1.91507 23.4136C1.2473 23.0281 0.835938 22.3156 0.835938 21.5445V10.64C0.835938 5.27605 5.18424 0.927734 10.5481 0.927734H82.4561Z"/>
</mask>
<path fill-rule="evenodd" clip-rule="evenodd" d="M82.4561 0.927734C83.2271 0.927734 83.9396 1.3391 84.3252 2.00687L88.5307 9.29104C89.3614 10.7299 91.4382 10.7299 92.2689 9.29104L96.4744 2.00687C96.86 1.3391 97.5725 0.927734 98.3436 0.927734H170.26C175.624 0.927734 179.972 5.27604 179.972 10.6399V48.9492C179.972 54.3131 175.624 58.6614 170.26 58.6614H10.5481C5.18424 58.6614 0.835938 54.3131 0.835938 48.9492V38.055C0.835938 37.2839 1.2473 36.5714 1.91507 36.1859L9.7388 31.6689C11.1776 30.8381 11.1776 28.7614 9.7388 27.9306L1.91507 23.4136C1.2473 23.0281 0.835938 22.3156 0.835938 21.5445V10.64C0.835938 5.27605 5.18424 0.927734 10.5481 0.927734H82.4561Z" fill="#001341" fill-opacity="0.65"/>
<path d="M1.91507 36.1859L2.18485 36.6532L1.91507 36.1859ZM96.4744 2.00687L96.0072 1.73709L96.4744 2.00687ZM9.7388 31.6689L10.0086 32.1361L9.7388 31.6689ZM1.91507 23.4136L2.18486 22.9463L1.91507 23.4136ZM88.5307 9.29104L88.0634 9.56083L88.5307 9.29104ZM92.2689 9.29104L91.8016 9.02126L92.2689 9.29104ZM88.998 9.02126L84.7925 1.73708L83.8579 2.27665L88.0634 9.56083L88.998 9.02126ZM96.0072 1.73709L91.8016 9.02126L92.7362 9.56083L96.9417 2.27665L96.0072 1.73709ZM170.26 0.388167H98.3436V1.4673H170.26V0.388167ZM180.512 10.6399C180.512 4.97805 175.922 0.388167 170.26 0.388167V1.4673C175.326 1.4673 179.433 5.57403 179.433 10.6399H180.512ZM180.512 48.9492V10.6399H179.433V48.9492H180.512ZM170.26 59.201C175.922 59.201 180.512 54.6111 180.512 48.9492H179.433C179.433 54.0151 175.326 58.1219 170.26 58.1219V59.201ZM10.5481 59.201H170.26V58.1219H10.5481V59.201ZM0.29637 48.9492C0.29637 54.6111 4.88625 59.201 10.5481 59.201V58.1219C5.48224 58.1219 1.3755 54.0151 1.3755 48.9492H0.29637ZM0.29637 38.055V48.9492H1.3755V38.055H0.29637ZM9.46901 31.2016L1.64529 35.7186L2.18485 36.6532L10.0086 32.1361L9.46901 31.2016ZM1.64529 23.8809L9.46901 28.3979L10.0086 27.4634L2.18486 22.9463L1.64529 23.8809ZM0.29637 10.64V21.5445H1.3755V10.64H0.29637ZM10.5481 0.388167C4.88625 0.388167 0.29637 4.97805 0.29637 10.64H1.3755C1.3755 5.57404 5.48224 1.4673 10.5481 1.4673V0.388167ZM82.4561 0.388167H10.5481V1.4673H82.4561V0.388167ZM1.3755 38.055C1.3755 37.4767 1.68403 36.9423 2.18485 36.6532L1.64529 35.7186C0.810574 36.2005 0.29637 37.0912 0.29637 38.055H1.3755ZM96.9417 2.27665C97.2309 1.77582 97.7653 1.4673 98.3436 1.4673V0.388167C97.3797 0.388167 96.4891 0.902372 96.0072 1.73709L96.9417 2.27665ZM84.7925 1.73708C84.3105 0.902371 83.4199 0.388167 82.4561 0.388167V1.4673C83.0344 1.4673 83.5687 1.77582 83.8579 2.27665L84.7925 1.73708ZM10.0086 32.1361C11.8071 31.0977 11.8071 28.5018 10.0086 27.4634L9.46901 28.3979C10.5481 29.021 10.5481 30.5785 9.46901 31.2016L10.0086 32.1361ZM2.18486 22.9463C1.68403 22.6572 1.3755 22.1228 1.3755 21.5445H0.29637C0.29637 22.5083 0.810575 23.399 1.64529 23.8809L2.18486 22.9463ZM88.0634 9.56083C89.1018 11.3594 91.6978 11.3594 92.7362 9.56083L91.8016 9.02126C91.1786 10.1004 89.621 10.1004 88.998 9.02126L88.0634 9.56083Z" fill="#2D74FE" mask="url(#path-1-inside-1_7128_547)"/>
</g>
<g clip-path="url(#clip0_7128_547)">
<path d="M55.2159 23.0745H40.0959C39.3819 23.0745 38.8359 23.6205 38.8359 24.3345V33.5745C38.8359 34.2885 39.3819 34.8345 40.0959 34.8345H55.2159C55.9299 34.8345 56.4759 34.2885 56.4759 33.5745V24.3345C56.4759 23.6205 55.9299 23.0745 55.2159 23.0745Z" stroke="#2D74FE" stroke-width="0.84" stroke-miterlimit="10" stroke-linejoin="round"/>
<path d="M56.0581 36.5147H39.2581C38.3341 36.5147 37.5781 35.7587 37.5781 34.8347H57.7381C57.7381 35.7587 56.9821 36.5147 56.0581 36.5147Z" stroke="#2D74FE" stroke-width="0.84" stroke-miterlimit="10" stroke-linejoin="round"/>
<path d="M41.3594 31.8943L45.1394 28.1143L47.6594 30.6343L51.8594 26.4641L53.9594 28.5343" stroke="#2D74FE" stroke-width="0.84" stroke-miterlimit="10" stroke-linecap="round" stroke-linejoin="round"/>
<path d="M51.8634 27.2745C52.3274 27.2745 52.7034 26.8984 52.7034 26.4345C52.7034 25.9706 52.3274 25.5945 51.8634 25.5945C51.3995 25.5945 51.0234 25.9706 51.0234 26.4345C51.0234 26.8984 51.3995 27.2745 51.8634 27.2745Z" fill="#2D74FE"/>
<path d="M47.6603 31.4747C48.1242 31.4747 48.5003 31.0986 48.5003 30.6347C48.5003 30.1708 48.1242 29.7947 47.6603 29.7947C47.1964 29.7947 46.8203 30.1708 46.8203 30.6347C46.8203 31.0986 47.1964 31.4747 47.6603 31.4747Z" fill="#2D74FE"/>
<path d="M45.1369 28.9544C45.6008 28.9544 45.9769 28.5783 45.9769 28.1144C45.9769 27.6505 45.6008 27.2744 45.1369 27.2744C44.673 27.2744 44.2969 27.6505 44.2969 28.1144C44.2969 28.5783 44.673 28.9544 45.1369 28.9544Z" fill="#2D74FE"/>
</g>
<path d="M75.5943 34.2947H73.2413L72.7733 32.9427H69.0163L68.5483 34.2947H66.1823L69.5882 25.1947H72.1883L75.5943 34.2947ZM70.0563 29.9397L69.6923 30.9797H72.0973L71.7333 29.9397C71.4733 29.1727 71.3823 28.6917 71.2913 27.5347H70.4983C70.4073 28.6917 70.3163 29.1727 70.0563 29.9397ZM76.394 34.2947V25.1947H78.89L82.4 30.7847H82.426V25.1947H84.701V34.2947H82.205L78.695 28.8217H78.669V34.2947H76.394ZM94.9038 34.2947H92.5508L92.0828 32.9427H88.3258L87.8578 34.2947H85.4918L88.8978 25.1947H91.4978L94.9038 34.2947ZM89.3658 29.9397L89.0018 30.9797H91.4068L91.0428 29.9397C90.7828 29.1727 90.6918 28.6917 90.6008 27.5347H89.8078C89.7168 28.6917 89.6258 29.1727 89.3658 29.9397ZM95.7035 34.2947V25.1947H97.9785V32.2667H102.087V34.2947H95.7035ZM104.474 30.8757L101.029 25.1947H103.668L104.214 26.3257C104.539 27.0147 105.124 28.1197 105.202 29.1597H106.06C106.138 28.1197 106.58 27.2357 107.022 26.3127L107.555 25.1947H110.194L106.762 30.8757V34.2947H104.474V30.8757ZM110.568 25.1947H118.498V27.2097H115.664V34.2947H113.389V27.2097H110.568V25.1947ZM119.536 34.2947V25.1947H121.811V34.2947H119.536ZM123.169 29.7447C123.169 27.1707 124.963 24.9217 127.966 24.9477C130.098 24.9607 131.788 26.1957 132.191 28.1067L130.059 28.6917C129.76 27.5867 129.006 26.9757 127.927 26.9757C126.471 26.9757 125.47 28.0937 125.47 29.7447C125.47 31.3957 126.471 32.5137 127.927 32.5137C129.045 32.5137 129.838 31.8507 130.111 30.6157L132.269 31.1487C131.892 33.2677 130.163 34.5287 127.966 34.5417C124.963 34.5677 123.169 32.3187 123.169 29.7447ZM132.904 31.4997L134.932 31.1097C135.01 32.1107 135.803 32.6567 136.934 32.6567C137.766 32.6567 138.312 32.3187 138.312 31.6947C138.312 31.1227 137.909 30.8497 136.453 30.6287C134.035 30.2647 133.177 29.3547 133.177 27.8207C133.177 25.9877 134.62 24.9607 136.765 24.9607C138.936 24.9607 140.47 26.0397 140.613 27.6647L138.507 28.1457C138.338 27.2227 137.714 26.7937 136.739 26.7937C135.881 26.7937 135.452 27.1187 135.452 27.6257C135.452 28.3537 136.167 28.4837 137.909 28.7567C139.872 29.0817 140.6 30.0437 140.6 31.5387C140.6 33.4627 139.027 34.5417 136.804 34.5417C134.399 34.5417 133.021 33.3197 132.904 31.4997Z" fill="white"/>
<defs>
<filter id="filter0_b_7128_547" x="-7.25757" y="-7.16577" width="195.32" height="73.9207" filterUnits="userSpaceOnUse" color-interpolation-filters="sRGB">
<feFlood flood-opacity="0" result="BackgroundImageFix"/>
<feGaussianBlur in="BackgroundImageFix" stdDeviation="4.04675"/>
<feComposite in2="SourceAlpha" operator="in" result="effect1_backgroundBlur_7128_547"/>
<feBlend mode="normal" in="SourceGraphic" in2="effect1_backgroundBlur_7128_547" result="shape"/>
</filter>
<clipPath id="clip0_7128_547">
<rect width="21" height="21" fill="white" transform="translate(37.1562 19.2947)"/>
</clipPath>
</defs>
</svg>
