<svg width="372" height="50" viewBox="0 0 372 50" fill="none" xmlns="http://www.w3.org/2000/svg">
<mask id="path-1-inside-1_7144_408" fill="white">
<path fill-rule="evenodd" clip-rule="evenodd" d="M178.065 0C178.837 0 179.549 0.411363 179.935 1.07913L184.14 8.36331C184.971 9.80216 187.048 9.80216 187.878 8.36331L192.084 1.07913C192.469 0.411364 193.182 0 193.953 0H362.048C367.412 0 371.76 4.3483 371.76 9.71221V40.2878C371.76 45.6517 367.412 50 362.048 50H9.71224C4.34833 50 0 45.6517 0 40.2878V9.71221C0 4.34831 4.3483 0 9.71221 0H178.065Z"/>
</mask>
<path fill-rule="evenodd" clip-rule="evenodd" d="M178.065 0C178.837 0 179.549 0.411363 179.935 1.07913L184.14 8.36331C184.971 9.80216 187.048 9.80216 187.878 8.36331L192.084 1.07913C192.469 0.411364 193.182 0 193.953 0H362.048C367.412 0 371.76 4.3483 371.76 9.71221V40.2878C371.76 45.6517 367.412 50 362.048 50H9.71224C4.34833 50 0 45.6517 0 40.2878V9.71221C0 4.34831 4.3483 0 9.71221 0H178.065Z" fill="#001341" fill-opacity="0.65"/>
<path d="M192.084 1.07913L191.617 0.80935L192.084 1.07913ZM179.935 1.07913L179.467 1.34892L179.935 1.07913ZM184.14 8.36331L183.673 8.63309L184.14 8.36331ZM187.878 8.36331L188.346 8.63309L187.878 8.36331ZM184.607 8.09353L180.402 0.80935L179.467 1.34892L183.673 8.63309L184.607 8.09353ZM191.617 0.80935L187.411 8.09353L188.346 8.63309L192.551 1.34892L191.617 0.80935ZM193.953 0.539567H362.048V-0.539567H193.953V0.539567ZM362.048 0.539567C367.114 0.539567 371.22 4.6463 371.22 9.71221H372.3C372.3 4.05031 367.71 -0.539567 362.048 -0.539567V0.539567ZM371.22 9.71221V40.2878H372.3V9.71221H371.22ZM371.22 40.2878C371.22 45.3537 367.114 49.4604 362.048 49.4604V50.5396C367.71 50.5396 372.3 45.9497 372.3 40.2878H371.22ZM362.048 49.4604H9.71224V50.5396H362.048V49.4604ZM9.71224 49.4604C4.64632 49.4604 0.539567 45.3537 0.539567 40.2878H-0.539567C-0.539567 45.9497 4.05034 50.5396 9.71224 50.5396V49.4604ZM0.539567 40.2878V9.71221H-0.539567V40.2878H0.539567ZM0.539567 9.71221C0.539567 4.6463 4.6463 0.539567 9.71221 0.539567V-0.539567C4.05031 -0.539567 -0.539567 4.05031 -0.539567 9.71221H0.539567ZM9.71221 0.539567H178.065V-0.539567H9.71221V0.539567ZM192.551 1.34892C192.84 0.84809 193.375 0.539567 193.953 0.539567V-0.539567C192.989 -0.539567 192.098 -0.0253628 191.617 0.80935L192.551 1.34892ZM180.402 0.80935C179.92 -0.0253648 179.029 -0.539567 178.065 -0.539567V0.539567C178.644 0.539567 179.178 0.848092 179.467 1.34892L180.402 0.80935ZM183.673 8.63309C184.711 10.4317 187.307 10.4317 188.346 8.63309L187.411 8.09353C186.788 9.17266 185.23 9.17266 184.607 8.09353L183.673 8.63309Z" fill="#2D74FE" mask="url(#path-1-inside-1_7144_408)"/>
<path d="M144.06 18.2798H128.94C128.226 18.2798 127.68 18.8258 127.68 19.5398V28.7798C127.68 29.4938 128.226 30.0398 128.94 30.0398H144.06C144.774 30.0398 145.32 29.4938 145.32 28.7798V19.5398C145.32 18.8258 144.774 18.2798 144.06 18.2798Z" stroke="#2D74FE" stroke-width="0.84" stroke-miterlimit="10" stroke-linejoin="round"/>
<path d="M144.902 31.72H128.102C127.178 31.72 126.422 30.964 126.422 30.04H146.582C146.582 30.964 145.826 31.72 144.902 31.72Z" stroke="#2D74FE" stroke-width="0.84" stroke-miterlimit="10" stroke-linejoin="round"/>
<path d="M130.203 27.0996L133.983 23.3196L136.503 25.8396L140.703 21.6694L142.803 23.7396" stroke="#2D74FE" stroke-width="0.84" stroke-miterlimit="10" stroke-linecap="round" stroke-linejoin="round"/>
<path d="M140.707 22.4798C141.171 22.4798 141.547 22.1037 141.547 21.6398C141.547 21.1759 141.171 20.7998 140.707 20.7998C140.243 20.7998 139.867 21.1759 139.867 21.6398C139.867 22.1037 140.243 22.4798 140.707 22.4798Z" fill="#2D74FE"/>
<path d="M136.504 26.68C136.968 26.68 137.344 26.3039 137.344 25.84C137.344 25.3761 136.968 25 136.504 25C136.04 25 135.664 25.3761 135.664 25.84C135.664 26.3039 136.04 26.68 136.504 26.68Z" fill="#2D74FE"/>
<path d="M133.981 24.1597C134.445 24.1597 134.821 23.7837 134.821 23.3197C134.821 22.8558 134.445 22.4797 133.981 22.4797C133.517 22.4797 133.141 22.8558 133.141 23.3197C133.141 23.7837 133.517 24.1597 133.981 24.1597Z" fill="#2D74FE"/>
<path d="M169.89 30.5H167.175L166.635 28.94H162.3L161.76 30.5H159.03L162.96 20H165.96L169.89 30.5ZM163.5 25.475L163.08 26.675H165.855L165.435 25.475C165.135 24.59 165.03 24.035 164.925 22.7H164.01C163.905 24.035 163.8 24.59 163.5 25.475ZM170.813 30.5V20H173.693L177.743 26.45H177.773V20H180.398V30.5H177.518L173.468 24.185H173.438V30.5H170.813ZM192.17 30.5H189.455L188.915 28.94H184.58L184.04 30.5H181.31L185.24 20H188.24L192.17 30.5ZM185.78 25.475L185.36 26.675H188.135L187.715 25.475C187.415 24.59 187.31 24.035 187.205 22.7H186.29C186.185 24.035 186.08 24.59 185.78 25.475ZM193.093 30.5V20H195.718V28.16H200.458V30.5H193.093ZM203.213 26.555L199.238 20H202.283L202.913 21.305C203.288 22.1 203.963 23.375 204.053 24.575H205.043C205.133 23.375 205.643 22.355 206.153 21.29L206.768 20H209.813L205.853 26.555V30.5H203.213V26.555ZM210.244 20H219.394V22.325H216.124V30.5H213.499V22.325H210.244V20ZM220.592 30.5V20H223.217V30.5H220.592ZM224.783 25.25C224.783 22.28 226.853 19.685 230.318 19.715C232.778 19.73 234.728 21.155 235.193 23.36L232.733 24.035C232.388 22.76 231.518 22.055 230.273 22.055C228.593 22.055 227.438 23.345 227.438 25.25C227.438 27.155 228.593 28.445 230.273 28.445C231.563 28.445 232.478 27.68 232.793 26.255L235.283 26.87C234.848 29.315 232.853 30.77 230.318 30.785C226.853 30.815 224.783 28.22 224.783 25.25ZM236.017 27.275L238.357 26.825C238.447 27.98 239.362 28.61 240.667 28.61C241.627 28.61 242.257 28.22 242.257 27.5C242.257 26.84 241.792 26.525 240.112 26.27C237.322 25.85 236.332 24.8 236.332 23.03C236.332 20.915 237.997 19.73 240.472 19.73C242.977 19.73 244.747 20.975 244.912 22.85L242.482 23.405C242.287 22.34 241.567 21.845 240.442 21.845C239.452 21.845 238.957 22.22 238.957 22.805C238.957 23.645 239.782 23.795 241.792 24.11C244.057 24.485 244.897 25.595 244.897 27.32C244.897 29.54 243.082 30.785 240.517 30.785C237.742 30.785 236.152 29.375 236.017 27.275Z" fill="white"/>
</svg>
