<svg width="332" height="107" viewBox="0 0 332 107" fill="none" xmlns="http://www.w3.org/2000/svg">
<mask id="path-1-inside-1_7127_423" fill="white">
<path fill-rule="evenodd" clip-rule="evenodd" d="M151.268 0C152.697 0 154.018 0.762397 154.732 2L162.526 15.5C164.066 18.1667 167.915 18.1667 169.454 15.5L177.249 2C177.963 0.762396 179.284 0 180.713 0H314C323.941 0 332 8.05888 332 18V89C332 98.9411 323.941 107 314 107H18C8.05887 107 0 98.9411 0 89V68.8094C0 67.3803 0.762394 66.0598 2 65.3453L16.5 56.9737C19.1667 55.4341 19.1667 51.5851 16.5 50.0455L2 41.6739C0.762396 40.9594 0 39.6389 0 38.2098V18C0 8.05887 8.05888 0 18 0H151.268Z"/>
</mask>
<path fill-rule="evenodd" clip-rule="evenodd" d="M151.268 0C152.697 0 154.018 0.762397 154.732 2L162.526 15.5C164.066 18.1667 167.915 18.1667 169.454 15.5L177.249 2C177.963 0.762396 179.284 0 180.713 0H314C323.941 0 332 8.05888 332 18V89C332 98.9411 323.941 107 314 107H18C8.05887 107 0 98.9411 0 89V68.8094C0 67.3803 0.762394 66.0598 2 65.3453L16.5 56.9737C19.1667 55.4341 19.1667 51.5851 16.5 50.0455L2 41.6739C0.762396 40.9594 0 39.6389 0 38.2098V18C0 8.05887 8.05888 0 18 0H151.268Z" fill="#001341" fill-opacity="0.65"/>
<path d="M2 65.3453L2.5 66.2113L2 65.3453ZM177.249 2L176.383 1.5L177.249 2ZM154.732 2L155.598 1.5L154.732 2ZM16.5 50.0455L17 49.1795L16.5 50.0455ZM2 41.6739L2.5 40.8079L2 41.6739ZM162.526 15.5L163.392 15L162.526 15.5ZM169.454 15.5L168.588 15L169.454 15.5ZM163.392 15L155.598 1.5L153.866 2.5L161.66 16L163.392 15ZM176.383 1.5L168.588 15L170.321 16L178.115 2.5L176.383 1.5ZM314 -1H180.713V1H314V-1ZM333 18C333 7.50659 324.493 -1 314 -1V1C323.389 1 331 8.61116 331 18H333ZM333 89V18H331V89H333ZM314 108C324.493 108 333 99.4934 333 89H331C331 98.3888 323.389 106 314 106V108ZM18 108H314V106H18V108ZM-1 89C-1 99.4934 7.50659 108 18 108V106C8.61116 106 1 98.3888 1 89H-1ZM-1 68.8094V89H1V68.8094H-1ZM16 56.1077L1.5 64.4793L2.5 66.2113L17 57.8397L16 56.1077ZM1.5 42.54L16 50.9115L17 49.1795L2.5 40.8079L1.5 42.54ZM-1 18V38.2098H1V18H-1ZM18 -1C7.50659 -1 -1 7.50659 -1 18H1C1 8.61116 8.61116 1 18 1V-1ZM151.268 -1H18V1H151.268V-1ZM1 68.8094C1 67.7376 1.5718 66.7472 2.5 66.2113L1.5 64.4793C-0.0470074 65.3724 -1 67.0231 -1 68.8094H1ZM178.115 2.5C178.651 1.5718 179.641 1 180.713 1V-1C178.926 -1 177.276 -0.0470054 176.383 1.5L178.115 2.5ZM155.598 1.5C154.705 -0.0470032 153.054 -1 151.268 -1V1C152.34 1 153.33 1.5718 153.866 2.5L155.598 1.5ZM17 57.8397C20.3333 55.9152 20.3333 51.104 17 49.1795L16 50.9115C18 52.0662 18 54.953 16 56.1077L17 57.8397ZM2.5 40.8079C1.5718 40.272 1 39.2816 1 38.2098H-1C-1 39.9962 -0.0470055 41.6468 1.5 42.54L2.5 40.8079ZM161.66 16C163.585 19.3333 168.396 19.3333 170.321 16L168.588 15C167.434 17 164.547 17 163.392 15L161.66 16Z" fill="#2D74FE" mask="url(#path-1-inside-1_7127_423)"/>
<path d="M112.798 43.8999H91.1984C90.1784 43.8999 89.3984 44.6799 89.3984 45.6999V58.8999C89.3984 59.9199 90.1784 60.6999 91.1984 60.6999H112.798C113.818 60.6999 114.598 59.9199 114.598 58.8999V45.6999C114.598 44.6799 113.818 43.8999 112.798 43.8999Z" stroke="#2D74FE" stroke-width="1.2" stroke-miterlimit="10" stroke-linejoin="round"/>
<path d="M114.002 63.1H90.0016C88.6816 63.1 87.6016 62.02 87.6016 60.7H116.402C116.402 62.02 115.322 63.1 114.002 63.1Z" stroke="#2D74FE" stroke-width="1.2" stroke-miterlimit="10" stroke-linejoin="round"/>
<path d="M93 56.4998L98.4 51.0998L102 54.6998L108 48.7424L111 51.6998" stroke="#2D74FE" stroke-width="1.2" stroke-miterlimit="10" stroke-linecap="round" stroke-linejoin="round"/>
<path d="M108.005 49.9C108.667 49.9 109.205 49.3627 109.205 48.7C109.205 48.0373 108.667 47.5 108.005 47.5C107.342 47.5 106.805 48.0373 106.805 48.7C106.805 49.3627 107.342 49.9 108.005 49.9Z" fill="#2D74FE"/>
<path d="M102.005 55.9C102.667 55.9 103.205 55.3627 103.205 54.7C103.205 54.0373 102.667 53.5 102.005 53.5C101.342 53.5 100.805 54.0373 100.805 54.7C100.805 55.3627 101.342 55.9 102.005 55.9Z" fill="#2D74FE"/>
<path d="M98.4031 52.2999C99.0659 52.2999 99.6031 51.7626 99.6031 51.0999C99.6031 50.4372 99.0659 49.8999 98.4031 49.8999C97.7404 49.8999 97.2031 50.4372 97.2031 51.0999C97.2031 51.7626 97.7404 52.2999 98.4031 52.2999Z" fill="#2D74FE"/>
<path d="M143.952 61.5H140.332L139.612 59.42H133.832L133.112 61.5H129.472L134.712 47.5H138.712L143.952 61.5ZM135.432 54.8L134.872 56.4H138.572L138.012 54.8C137.612 53.62 137.472 52.88 137.332 51.1H136.112C135.972 52.88 135.832 53.62 135.432 54.8ZM145.182 61.5V47.5H149.022L154.422 56.1H154.462V47.5H157.962V61.5H154.122L148.722 53.08H148.682V61.5H145.182ZM173.659 61.5H170.039L169.319 59.42H163.539L162.819 61.5H159.179L164.419 47.5H168.419L173.659 61.5ZM165.139 54.8L164.579 56.4H168.279L167.719 54.8C167.319 53.62 167.179 52.88 167.039 51.1H165.819C165.679 52.88 165.539 53.62 165.139 54.8ZM174.889 61.5V47.5H178.389V58.38H184.709V61.5H174.889ZM188.382 56.24L183.082 47.5H187.142L187.982 49.24C188.482 50.3 189.382 52 189.502 53.6H190.822C190.942 52 191.622 50.64 192.302 49.22L193.122 47.5H197.182L191.902 56.24V61.5H188.382V56.24ZM197.757 47.5H209.957V50.6H205.597V61.5H202.097V50.6H197.757V47.5ZM211.554 61.5V47.5H215.054V61.5H211.554ZM217.143 54.5C217.143 50.54 219.903 47.08 224.523 47.12C227.803 47.14 230.403 49.04 231.023 51.98L227.743 52.88C227.283 51.18 226.123 50.24 224.463 50.24C222.223 50.24 220.683 51.96 220.683 54.5C220.683 57.04 222.223 58.76 224.463 58.76C226.183 58.76 227.403 57.74 227.823 55.84L231.143 56.66C230.563 59.92 227.903 61.86 224.523 61.88C219.903 61.92 217.143 58.46 217.143 54.5ZM232.121 57.2L235.241 56.6C235.361 58.14 236.581 58.98 238.321 58.98C239.601 58.98 240.441 58.46 240.441 57.5C240.441 56.62 239.821 56.2 237.581 55.86C233.861 55.3 232.541 53.9 232.541 51.54C232.541 48.72 234.761 47.14 238.061 47.14C241.401 47.14 243.761 48.8 243.981 51.3L240.741 52.04C240.481 50.62 239.521 49.96 238.021 49.96C236.701 49.96 236.041 50.46 236.041 51.24C236.041 52.36 237.141 52.56 239.821 52.98C242.841 53.48 243.961 54.96 243.961 57.26C243.961 60.22 241.541 61.88 238.121 61.88C234.421 61.88 232.301 60 232.121 57.2Z" fill="white"/>
</svg>
