<svg width="418" height="212" viewBox="0 0 418 212" fill="none" xmlns="http://www.w3.org/2000/svg">
<mask id="path-1-inside-1_7144_424" fill="white">
<path fill-rule="evenodd" clip-rule="evenodd" d="M11.8705 0C5.31459 0 0 5.3146 0 11.8705V187.13C0 193.685 5.3146 199 11.8705 199H199.856C200.68 199 201.433 199.47 201.795 200.21L206.939 210.729C207.729 212.342 210.028 212.342 210.817 210.729L215.962 200.21C216.324 199.47 217.076 199 217.901 199H406.13C412.685 199 418 193.685 418 187.13V11.8705C418 5.31459 412.685 0 406.13 0H11.8705Z"/>
</mask>
<path fill-rule="evenodd" clip-rule="evenodd" d="M11.8705 0C5.31459 0 0 5.3146 0 11.8705V187.13C0 193.685 5.3146 199 11.8705 199H199.856C200.68 199 201.433 199.47 201.795 200.21L206.939 210.729C207.729 212.342 210.028 212.342 210.817 210.729L215.962 200.21C216.324 199.47 217.076 199 217.901 199H406.13C412.685 199 418 193.685 418 187.13V11.8705C418 5.31459 412.685 0 406.13 0H11.8705Z" fill="#001341" fill-opacity="0.45"/>
<path d="M215.962 200.21L216.689 200.566L215.962 200.21ZM206.939 210.729L207.667 210.373L206.939 210.729ZM210.817 210.729L211.544 211.085L210.817 210.729ZM201.795 200.21L201.068 200.566L201.795 200.21ZM-0.809351 11.8705V12.4114H0.809351V11.8705H-0.809351ZM-0.809351 16.1979V17.2797H0.809351V16.1979H-0.809351ZM-0.809351 21.0662V22.148H0.809351V21.0662H-0.809351ZM-0.809351 25.9345V27.0163H0.809351V25.9345H-0.809351ZM-0.809351 30.8028V31.8846H0.809351V30.8028H-0.809351ZM-0.809351 35.6711V36.7529H0.809351V35.6711H-0.809351ZM-0.809351 40.5394V41.6212H0.809351V40.5394H-0.809351ZM-0.809351 45.4077V46.4896H0.809351V45.4077H-0.809351ZM-0.809351 50.276V51.3579H0.809351V50.276H-0.809351ZM-0.809351 55.1443V56.2262H0.809351V55.1443H-0.809351ZM-0.809351 60.0126V61.0945H0.809351V60.0126H-0.809351ZM-0.809351 64.8809V65.9628H0.809351V64.8809H-0.809351ZM-0.809351 69.7492V70.8311H0.809351V69.7492H-0.809351ZM-0.809351 74.6175V75.6994H0.809351V74.6175H-0.809351ZM-0.809351 79.4858V80.5677H0.809351V79.4858H-0.809351ZM-0.809351 84.3541V85.436H0.809351V84.3541H-0.809351ZM-0.809351 89.2225V90.3043H0.809351V89.2225H-0.809351ZM-0.809351 94.0908V95.1726H0.809351V94.0908H-0.809351ZM-0.809351 98.9591V100.041H0.809351V98.9591H-0.809351ZM-0.809351 103.827V104.909H0.809351V103.827H-0.809351ZM-0.809351 108.696V109.778H0.809351V108.696H-0.809351ZM-0.809351 113.564V114.646H0.809351V113.564H-0.809351ZM-0.809351 118.432V119.514H0.809351V118.432H-0.809351ZM-0.809351 123.301V124.382H0.809351V123.301H-0.809351ZM-0.809351 128.169V129.251H0.809351V128.169H-0.809351ZM-0.809351 133.037V134.119H0.809351V133.037H-0.809351ZM-0.809351 137.906V138.987H0.809351V137.906H-0.809351ZM-0.809351 142.774V143.856H0.809351V142.774H-0.809351ZM-0.809351 147.642V148.724H0.809351V147.642H-0.809351ZM-0.809351 152.51V153.592H0.809351V152.51H-0.809351ZM-0.809351 157.379V158.461H0.809351V157.379H-0.809351ZM-0.809351 162.247V163.329H0.809351V162.247H-0.809351ZM-0.809351 167.115V168.197H0.809351V167.115H-0.809351ZM-0.809351 171.984V173.066H0.809351V171.984H-0.809351ZM-0.809351 176.852V177.934H0.809351V176.852H-0.809351ZM-0.809351 181.72V182.802H0.809351V181.72H-0.809351ZM-0.809351 186.589V187.13H0.809351V186.589H-0.809351ZM-0.809351 187.13C-0.809351 187.315 -0.805373 187.499 -0.797493 187.683L0.819717 187.613C0.812831 187.453 0.809351 187.292 0.809351 187.13H-0.809351ZM-0.0476721 191.467C0.0791072 191.816 0.220697 192.157 0.376327 192.49L1.84292 191.805C1.70725 191.514 1.58384 191.217 1.47337 190.914L-0.0476721 191.467ZM2.52198 195.696C2.7712 195.968 3.03212 196.229 3.30395 196.478L4.39784 195.285C4.16052 195.067 3.93271 194.839 3.71512 194.602L2.52198 195.696ZM6.51003 198.624C6.84321 198.779 7.1843 198.921 7.53254 199.048L8.08629 197.527C7.78282 197.416 7.48554 197.293 7.19509 197.157L6.51003 198.624ZM11.3174 199.797C11.5009 199.805 11.6852 199.809 11.8705 199.809V198.191C11.7084 198.191 11.5472 198.187 11.3869 198.18L11.3174 199.797ZM11.8705 199.809H12.406V198.191H11.8705V199.809ZM16.155 199.809H17.2262V198.191H16.155V199.809ZM20.9752 199.809H22.0463V198.191H20.9752V199.809ZM25.7953 199.809H26.8665V198.191H25.7953V199.809ZM30.6155 199.809H31.6866V198.191H30.6155V199.809ZM35.4356 199.809H36.5068V198.191H35.4356V199.809ZM40.2557 199.809H41.3269V198.191H40.2557V199.809ZM45.0759 199.809H46.147V198.191H45.0759V199.809ZM49.896 199.809H50.9672V198.191H49.896V199.809ZM54.7162 199.809H55.7873V198.191H54.7162V199.809ZM59.5363 199.809H60.6075V198.191H59.5363V199.809ZM64.3565 199.809H65.4276V198.191H64.3565V199.809ZM69.1766 199.809H70.2478V198.191H69.1766V199.809ZM73.9968 199.809H75.0679V198.191H73.9968V199.809ZM78.8169 199.809H79.888V198.191H78.8169V199.809ZM83.6371 199.809H84.7082V198.191H83.6371V199.809ZM88.4572 199.809H89.5283V198.191H88.4572V199.809ZM93.2773 199.809H94.3485V198.191H93.2773V199.809ZM98.0975 199.809H99.1686V198.191H98.0975V199.809ZM102.918 199.809H103.989V198.191H102.918V199.809ZM107.738 199.809H108.809V198.191H107.738V199.809ZM112.558 199.809H113.629V198.191H112.558V199.809ZM117.378 199.809H118.449V198.191H117.378V199.809ZM122.198 199.809H123.269V198.191H122.198V199.809ZM127.018 199.809H128.089V198.191H127.018V199.809ZM131.838 199.809H132.91V198.191H131.838V199.809ZM136.659 199.809H137.73V198.191H136.659V199.809ZM141.479 199.809H142.55V198.191H141.479V199.809ZM146.299 199.809H147.37V198.191H146.299V199.809ZM151.119 199.809H152.19V198.191H151.119V199.809ZM155.939 199.809H157.01V198.191H155.939V199.809ZM160.759 199.809H161.83V198.191H160.759V199.809ZM165.579 199.809H166.651V198.191H165.579V199.809ZM170.4 199.809H171.471V198.191H170.4V199.809ZM175.22 199.809H176.291V198.191H175.22V199.809ZM180.04 199.809H181.111V198.191H180.04V199.809ZM184.86 199.809H185.931V198.191H184.86V199.809ZM189.68 199.809H190.751V198.191H189.68V199.809ZM194.5 199.809H195.571V198.191H194.5V199.809ZM199.32 199.809H199.856V198.191H199.32V199.809ZM199.856 199.809C199.912 199.809 199.968 199.813 200.023 199.82L200.223 198.213C200.102 198.198 199.98 198.191 199.856 198.191V199.809ZM200.985 200.42C201.015 200.466 201.043 200.515 201.068 200.566L202.522 199.854C202.468 199.743 202.407 199.637 202.34 199.535L200.985 200.42ZM201.068 200.566L201.354 201.15L202.808 200.439L202.522 199.854L201.068 200.566ZM203.354 205.241L203.926 206.409L205.38 205.698L204.808 204.53L203.354 205.241ZM205.927 210.5L206.212 211.085L207.667 210.373L207.381 209.789L205.927 210.5ZM206.212 211.085C206.323 211.31 206.456 211.514 206.609 211.697L207.851 210.659C207.782 210.577 207.72 210.482 207.667 210.373L206.212 211.085ZM211.148 211.697C211.301 211.514 211.434 211.31 211.544 211.085L210.09 210.373C210.037 210.482 209.974 210.577 209.906 210.659L211.148 211.697ZM211.544 211.085L211.83 210.5L210.376 209.789L210.09 210.373L211.544 211.085ZM213.831 206.409L214.402 205.241L212.948 204.53L212.377 205.698L213.831 206.409ZM216.403 201.15L216.689 200.566L215.235 199.854L214.949 200.439L216.403 201.15ZM216.689 200.566C216.714 200.515 216.741 200.466 216.772 200.42L215.416 199.535C215.35 199.637 215.289 199.743 215.235 199.854L216.689 200.566ZM217.734 199.82C217.788 199.813 217.844 199.809 217.901 199.809V198.191C217.777 198.191 217.655 198.198 217.534 198.213L217.734 199.82ZM217.901 199.809H218.437V198.191H217.901V199.809ZM222.191 199.809H223.263V198.191H222.191V199.809ZM227.017 199.809H228.09V198.191H227.017V199.809ZM231.844 199.809H232.916V198.191H231.844V199.809ZM236.67 199.809H237.742V198.191H236.67V199.809ZM241.496 199.809H242.569V198.191H241.496V199.809ZM246.323 199.809H247.395V198.191H246.323V199.809ZM251.149 199.809H252.222V198.191H251.149V199.809ZM255.975 199.809H257.048V198.191H255.975V199.809ZM260.802 199.809H261.874V198.191H260.802V199.809ZM265.628 199.809H266.701V198.191H265.628V199.809ZM270.455 199.809H271.527V198.191H270.455V199.809ZM275.281 199.809H276.353V198.191H275.281V199.809ZM280.107 199.809H281.18V198.191H280.107V199.809ZM284.934 199.809H286.006V198.191H284.934V199.809ZM289.76 199.809H290.833V198.191H289.76V199.809ZM294.586 199.809H295.659V198.191H294.586V199.809ZM299.413 199.809H300.485V198.191H299.413V199.809ZM304.239 199.809H305.312V198.191H304.239V199.809ZM309.066 199.809H310.138V198.191H309.066V199.809ZM313.892 199.809H314.965V198.191H313.892V199.809ZM318.718 199.809H319.791V198.191H318.718V199.809ZM323.545 199.809H324.617V198.191H323.545V199.809ZM328.371 199.809H329.444V198.191H328.371V199.809ZM333.198 199.809H334.27V198.191H333.198V199.809ZM338.024 199.809H339.096V198.191H338.024V199.809ZM342.85 199.809H343.923V198.191H342.85V199.809ZM347.677 199.809H348.749V198.191H347.677V199.809ZM352.503 199.809H353.576V198.191H352.503V199.809ZM357.329 199.809H358.402V198.191H357.329V199.809ZM362.156 199.809H363.228V198.191H362.156V199.809ZM366.982 199.809H368.055V198.191H366.982V199.809ZM371.809 199.809H372.881V198.191H371.809V199.809ZM376.635 199.809H377.707V198.191H376.635V199.809ZM381.461 199.809H382.534V198.191H381.461V199.809ZM386.288 199.809H387.36V198.191H386.288V199.809ZM391.114 199.809H392.187V198.191H391.114V199.809ZM395.94 199.809H397.013V198.191H395.94V199.809ZM400.767 199.809H401.839V198.191H400.767V199.809ZM405.593 199.809H406.13V198.191H405.593V199.809ZM406.13 199.809C406.315 199.809 406.499 199.805 406.683 199.797L406.613 198.18C406.453 198.187 406.292 198.191 406.13 198.191V199.809ZM410.467 199.048C410.816 198.921 411.157 198.779 411.49 198.624L410.805 197.157C410.514 197.293 410.217 197.416 409.914 197.527L410.467 199.048ZM414.696 196.478C414.968 196.229 415.229 195.968 415.478 195.696L414.285 194.602C414.067 194.839 413.839 195.067 413.602 195.285L414.696 196.478ZM417.624 192.49C417.779 192.157 417.921 191.816 418.048 191.467L416.527 190.914C416.416 191.217 416.293 191.514 416.157 191.805L417.624 192.49ZM418.797 187.683C418.805 187.499 418.809 187.315 418.809 187.13H417.191C417.191 187.292 417.187 187.453 417.18 187.613L418.797 187.683ZM418.809 187.13V186.589H417.191V187.13H418.809ZM418.809 182.802V181.72H417.191V182.802H418.809ZM418.809 177.934V176.852H417.191V177.934H418.809ZM418.809 173.066V171.984H417.191V173.066H418.809ZM418.809 168.197V167.115H417.191V168.197H418.809ZM418.809 163.329V162.247H417.191V163.329H418.809ZM418.809 158.461V157.379H417.191V158.461H418.809ZM418.809 153.592V152.51H417.191V153.592H418.809ZM418.809 148.724V147.642H417.191V148.724H418.809ZM418.809 143.856V142.774H417.191V143.856H418.809ZM418.809 138.987V137.906H417.191V138.987H418.809ZM418.809 134.119V133.037H417.191V134.119H418.809ZM418.809 129.251V128.169H417.191V129.251H418.809ZM418.809 124.382V123.301H417.191V124.382H418.809ZM418.809 119.514V118.432H417.191V119.514H418.809ZM418.809 114.646V113.564H417.191V114.646H418.809ZM418.809 109.778V108.696H417.191V109.778H418.809ZM418.809 104.909V103.827H417.191V104.909H418.809ZM418.809 100.041V98.9591H417.191V100.041H418.809ZM418.809 95.1726V94.0908H417.191V95.1726H418.809ZM418.809 90.3043V89.2225H417.191V90.3043H418.809ZM418.809 85.436V84.3541H417.191V85.436H418.809ZM418.809 80.5677V79.4858H417.191V80.5677H418.809ZM418.809 75.6994V74.6175H417.191V75.6994H418.809ZM418.809 70.8311V69.7492H417.191V70.8311H418.809ZM418.809 65.9628V64.8809H417.191V65.9628H418.809ZM418.809 61.0944V60.0126H417.191V61.0944H418.809ZM418.809 56.2261V55.1443H417.191V56.2261H418.809ZM418.809 51.3578V50.276H417.191V51.3578H418.809ZM418.809 46.4895V45.4077H417.191V46.4895H418.809ZM418.809 41.6212V40.5394H417.191V41.6212H418.809ZM418.809 36.7529V35.6711H417.191V36.7529H418.809ZM418.809 31.8846V30.8028H417.191V31.8846H418.809ZM418.809 27.0163V25.9345H417.191V27.0163H418.809ZM418.809 22.148V21.0662H417.191V22.148H418.809ZM418.809 17.2797V16.1979H417.191V17.2797H418.809ZM418.809 12.4114V11.8705H417.191V12.4114H418.809ZM418.809 11.8705C418.809 11.6852 418.805 11.5009 418.797 11.3174L417.18 11.3869C417.187 11.5472 417.191 11.7084 417.191 11.8705H418.809ZM418.048 7.53254C417.921 7.1843 417.779 6.84321 417.624 6.51003L416.157 7.19509C416.293 7.48554 416.416 7.78282 416.527 8.08629L418.048 7.53254ZM415.478 3.30395C415.229 3.03212 414.968 2.7712 414.696 2.52198L413.602 3.71512C413.839 3.93271 414.067 4.16052 414.285 4.39784L415.478 3.30395ZM411.49 0.376328C411.157 0.220698 410.816 0.0791084 410.467 -0.047671L409.914 1.47337C410.217 1.58385 410.514 1.70725 410.805 1.84292L411.49 0.376328ZM406.683 -0.797493C406.499 -0.805373 406.315 -0.809351 406.13 -0.809351V0.809351C406.292 0.809351 406.453 0.812831 406.613 0.819717L406.683 -0.797493ZM406.13 -0.809351H405.589V0.809351H406.13V-0.809351ZM401.803 -0.809351H400.721V0.809351H401.803V-0.809351ZM396.936 -0.809351H395.854V0.809351H396.936V-0.809351ZM392.068 -0.809351H390.987V0.809351H392.068V-0.809351ZM387.201 -0.809351H386.119V0.809351H387.201V-0.809351ZM382.333 -0.809351H381.252V0.809351H382.333V-0.809351ZM377.466 -0.809351H376.384V0.809351H377.466V-0.809351ZM372.599 -0.809351H371.517V0.809351H372.599V-0.809351ZM367.731 -0.809351H366.65V0.809351H367.731V-0.809351ZM362.864 -0.809351H361.782V0.809351H362.864V-0.809351ZM357.996 -0.809351H356.915V0.809351H357.996V-0.809351ZM353.129 -0.809351H352.047V0.809351H353.129V-0.809351ZM348.262 -0.809351H347.18V0.809351H348.262V-0.809351ZM343.394 -0.809351H342.313V0.809351H343.394V-0.809351ZM338.527 -0.809351H337.445V0.809351H338.527V-0.809351ZM333.659 -0.809351H332.578V0.809351H333.659V-0.809351ZM328.792 -0.809351H327.71V0.809351H328.792V-0.809351ZM323.925 -0.809351H322.843V0.809351H323.925V-0.809351ZM319.057 -0.809351H317.976V0.809351H319.057V-0.809351ZM314.19 -0.809351H313.108V0.809351H314.19V-0.809351ZM309.322 -0.809351H308.241V0.809351H309.322V-0.809351ZM304.455 -0.809351H303.373V0.809351H304.455V-0.809351ZM299.588 -0.809351H298.506V0.809351H299.588V-0.809351ZM294.72 -0.809351H293.639V0.809351H294.72V-0.809351ZM289.853 -0.809351H288.771V0.809351H289.853V-0.809351ZM284.985 -0.809351H283.904V0.809351H284.985V-0.809351ZM280.118 -0.809351H279.036V0.809351H280.118V-0.809351ZM275.251 -0.809351H274.169V0.809351H275.251V-0.809351ZM270.383 -0.809351H269.302V0.809351H270.383V-0.809351ZM265.516 -0.809351H264.434V0.809351H265.516V-0.809351ZM260.648 -0.809351H259.567V0.809351H260.648V-0.809351ZM255.781 -0.809351H254.699V0.809351H255.781V-0.809351ZM250.914 -0.809351H249.832V0.809351H250.914V-0.809351ZM246.046 -0.809351H244.965V0.809351H246.046V-0.809351ZM241.179 -0.809351H240.097V0.809351H241.179V-0.809351ZM236.311 -0.809351H235.23V0.809351H236.311V-0.809351ZM231.444 -0.809351H230.362V0.809351H231.444V-0.809351ZM226.577 -0.809351H225.495V0.809351H226.577V-0.809351ZM221.709 -0.809351H220.628V0.809351H221.709V-0.809351ZM216.842 -0.809351H215.76V0.809351H216.842V-0.809351ZM211.974 -0.809351H210.893V0.809351H211.974V-0.809351ZM207.107 -0.809351H206.025V0.809351H207.107V-0.809351ZM202.24 -0.809351H201.158V0.809351H202.24V-0.809351ZM197.372 -0.809351H196.291V0.809351H197.372V-0.809351ZM192.505 -0.809351H191.423V0.809351H192.505V-0.809351ZM187.637 -0.809351H186.556V0.809351H187.637V-0.809351ZM182.77 -0.809351H181.688V0.809351H182.77V-0.809351ZM177.903 -0.809351H176.821V0.809351H177.903V-0.809351ZM173.035 -0.809351H171.954V0.809351H173.035V-0.809351ZM168.168 -0.809351H167.086V0.809351H168.168V-0.809351ZM163.3 -0.809351H162.219V0.809351H163.3V-0.809351ZM158.433 -0.809351H157.351V0.809351H158.433V-0.809351ZM153.566 -0.809351H152.484V0.809351H153.566V-0.809351ZM148.698 -0.809351H147.617V0.809351H148.698V-0.809351ZM143.831 -0.809351H142.749V0.809351H143.831V-0.809351ZM138.963 -0.809351H137.882V0.809351H138.963V-0.809351ZM134.096 -0.809351H133.014V0.809351H134.096V-0.809351ZM129.229 -0.809351H128.147V0.809351H129.229V-0.809351ZM124.361 -0.809351H123.28V0.809351H124.361V-0.809351ZM119.494 -0.809351H118.412V0.809351H119.494V-0.809351ZM114.626 -0.809351H113.545V0.809351H114.626V-0.809351ZM109.759 -0.809351H108.677V0.809351H109.759V-0.809351ZM104.892 -0.809351H103.81V0.809351H104.892V-0.809351ZM100.024 -0.809351H98.9426V0.809351H100.024V-0.809351ZM95.1568 -0.809351H94.0752V0.809351H95.1568V-0.809351ZM90.2894 -0.809351H89.2078V0.809351H90.2894V-0.809351ZM85.422 -0.809351H84.3404V0.809351H85.422V-0.809351ZM80.5546 -0.809351H79.473V0.809351H80.5546V-0.809351ZM75.6872 -0.809351H74.6056V0.809351H75.6872V-0.809351ZM70.8198 -0.809351H69.7382V0.809351H70.8198V-0.809351ZM65.9524 -0.809351H64.8708V0.809351H65.9524V-0.809351ZM61.085 -0.809351H60.0034V0.809351H61.085V-0.809351ZM56.2176 -0.809351H55.136V0.809351H56.2176V-0.809351ZM51.3502 -0.809351H50.2686V0.809351H51.3502V-0.809351ZM46.4828 -0.809351H45.4012V0.809351H46.4828V-0.809351ZM41.6154 -0.809351H40.5338V0.809351H41.6154V-0.809351ZM36.748 -0.809351H35.6664V0.809351H36.748V-0.809351ZM31.8806 -0.809351H30.799V0.809351H31.8806V-0.809351ZM27.0132 -0.809351H25.9316V0.809351H27.0132V-0.809351ZM22.1458 -0.809351H21.0642V0.809351H22.1458V-0.809351ZM17.2784 -0.809351H16.1968V0.809351H17.2784V-0.809351ZM12.411 -0.809351H11.8705V0.809351H12.411V-0.809351ZM11.8705 -0.809351C11.6852 -0.809351 11.5009 -0.805373 11.3174 -0.797493L11.3869 0.819717C11.5472 0.812831 11.7084 0.809351 11.8705 0.809351V-0.809351ZM7.53254 -0.0476705C7.1843 0.0791089 6.84321 0.220699 6.51003 0.376329L7.19509 1.84292C7.48554 1.70725 7.78282 1.58385 8.08629 1.47337L7.53254 -0.0476705ZM3.30395 2.52198C3.03212 2.7712 2.7712 3.03212 2.52198 3.30395L3.71512 4.39785C3.93271 4.16052 4.16052 3.93271 4.39784 3.71512L3.30395 2.52198ZM0.376328 6.51004C0.220698 6.84321 0.079108 7.1843 -0.0476714 7.53254L1.47337 8.08629C1.58385 7.78283 1.70725 7.48554 1.84292 7.1951L0.376328 6.51004ZM-0.797493 11.3174C-0.805373 11.5009 -0.809351 11.6852 -0.809351 11.8705H0.809351C0.809351 11.7084 0.812831 11.5472 0.819717 11.3869L-0.797493 11.3174ZM215.962 200.21L217.416 200.921L215.962 200.21ZM206.939 210.729L208.394 210.018L206.939 210.729ZM210.817 210.729L212.271 211.44L210.817 210.729ZM201.795 200.21L200.341 200.921L201.795 200.21ZM-1.6187 11.8705V12.4114H1.6187V11.8705H-1.6187ZM-1.6187 16.1979V17.2797H1.6187V16.1979H-1.6187ZM-1.6187 21.0662V22.148H1.6187V21.0662H-1.6187ZM-1.6187 25.9345V27.0163H1.6187V25.9345H-1.6187ZM-1.6187 30.8028V31.8846H1.6187V30.8028H-1.6187ZM-1.6187 35.6711V36.7529H1.6187V35.6711H-1.6187ZM-1.6187 40.5394V41.6212H1.6187V40.5394H-1.6187ZM-1.6187 45.4077V46.4896H1.6187V45.4077H-1.6187ZM-1.6187 50.276V51.3579H1.6187V50.276H-1.6187ZM-1.6187 55.1443V56.2262H1.6187V55.1443H-1.6187ZM-1.6187 60.0126V61.0945H1.6187V60.0126H-1.6187ZM-1.6187 64.8809V65.9628H1.6187V64.8809H-1.6187ZM-1.6187 69.7492V70.8311H1.6187V69.7492H-1.6187ZM-1.6187 74.6175V75.6994H1.6187V74.6175H-1.6187ZM-1.6187 79.4858V80.5677H1.6187V79.4858H-1.6187ZM-1.6187 84.3541V85.436H1.6187V84.3541H-1.6187ZM-1.6187 89.2225V90.3043H1.6187V89.2225H-1.6187ZM-1.6187 94.0908V95.1726H1.6187V94.0908H-1.6187ZM-1.6187 98.9591V100.041H1.6187V98.9591H-1.6187ZM-1.6187 103.827V104.909H1.6187V103.827H-1.6187ZM-1.6187 108.696V109.778H1.6187V108.696H-1.6187ZM-1.6187 113.564V114.646H1.6187V113.564H-1.6187ZM-1.6187 118.432V119.514H1.6187V118.432H-1.6187ZM-1.6187 123.301V124.382H1.6187V123.301H-1.6187ZM-1.6187 128.169V129.251H1.6187V128.169H-1.6187ZM-1.6187 133.037V134.119H1.6187V133.037H-1.6187ZM-1.6187 137.906V138.987H1.6187V137.906H-1.6187ZM-1.6187 142.774V143.856H1.6187V142.774H-1.6187ZM-1.6187 147.642V148.724H1.6187V147.642H-1.6187ZM-1.6187 152.51V153.592H1.6187V152.51H-1.6187ZM-1.6187 157.379V158.461H1.6187V157.379H-1.6187ZM-1.6187 162.247V163.329H1.6187V162.247H-1.6187ZM-1.6187 167.115V168.197H1.6187V167.115H-1.6187ZM-1.6187 171.984V173.066H1.6187V171.984H-1.6187ZM-1.6187 176.852V177.934H1.6187V176.852H-1.6187ZM-1.6187 181.72V182.802H1.6187V181.72H-1.6187ZM-1.6187 186.589V187.13H1.6187V186.589H-1.6187ZM-1.6187 187.13C-1.6187 187.326 -1.61447 187.522 -1.6061 187.717L1.62832 187.578C1.62193 187.43 1.6187 187.28 1.6187 187.13H-1.6187ZM-0.808191 191.744C-0.673262 192.115 -0.522579 192.478 -0.356969 192.832L2.57621 191.462C2.45052 191.193 2.33621 190.918 2.23389 190.637L-0.808191 191.744ZM1.9254 196.243C2.19044 196.532 2.46792 196.81 2.757 197.075L4.94479 194.688C4.72471 194.487 4.51346 194.275 4.31169 194.055L1.9254 196.243ZM6.1675 199.357C6.52205 199.523 6.88504 199.673 7.25566 199.808L8.36316 196.766C8.08209 196.664 7.8067 196.549 7.53762 196.424L6.1675 199.357ZM11.2827 200.606C11.4777 200.614 11.6736 200.619 11.8705 200.619V197.381C11.72 197.381 11.5704 197.378 11.4217 197.372L11.2827 200.606ZM11.8705 200.619H12.406V197.381H11.8705V200.619ZM16.155 200.619H17.2262V197.381H16.155V200.619ZM20.9752 200.619H22.0463V197.381H20.9752V200.619ZM25.7953 200.619H26.8665V197.381H25.7953V200.619ZM30.6155 200.619H31.6866V197.381H30.6155V200.619ZM35.4356 200.619H36.5068V197.381H35.4356V200.619ZM40.2557 200.619H41.3269V197.381H40.2557V200.619ZM45.0759 200.619H46.147V197.381H45.0759V200.619ZM49.896 200.619H50.9672V197.381H49.896V200.619ZM54.7162 200.619H55.7873V197.381H54.7162V200.619ZM59.5363 200.619H60.6075V197.381H59.5363V200.619ZM64.3565 200.619H65.4276V197.381H64.3565V200.619ZM69.1766 200.619H70.2478V197.381H69.1766V200.619ZM73.9968 200.619H75.0679V197.381H73.9968V200.619ZM78.8169 200.619H79.888V197.381H78.8169V200.619ZM83.6371 200.619H84.7082V197.381H83.6371V200.619ZM88.4572 200.619H89.5283V197.381H88.4572V200.619ZM93.2773 200.619H94.3485V197.381H93.2773V200.619ZM98.0975 200.619H99.1686V197.381H98.0975V200.619ZM102.918 200.619H103.989V197.381H102.918V200.619ZM107.738 200.619H108.809V197.381H107.738V200.619ZM112.558 200.619H113.629V197.381H112.558V200.619ZM117.378 200.619H118.449V197.381H117.378V200.619ZM122.198 200.619H123.269V197.381H122.198V200.619ZM127.018 200.619H128.089V197.381H127.018V200.619ZM131.838 200.619H132.91V197.381H131.838V200.619ZM136.659 200.619H137.73V197.381H136.659V200.619ZM141.479 200.619H142.55V197.381H141.479V200.619ZM146.299 200.619H147.37V197.381H146.299V200.619ZM151.119 200.619H152.19V197.381H151.119V200.619ZM155.939 200.619H157.01V197.381H155.939V200.619ZM160.759 200.619H161.83V197.381H160.759V200.619ZM165.579 200.619H166.651V197.381H165.579V200.619ZM170.4 200.619H171.471V197.381H170.4V200.619ZM175.22 200.619H176.291V197.381H175.22V200.619ZM180.04 200.619H181.111V197.381H180.04V200.619ZM184.86 200.619H185.931V197.381H184.86V200.619ZM189.68 200.619H190.751V197.381H189.68V200.619ZM194.5 200.619H195.571V197.381H194.5V200.619ZM199.32 200.619H199.856V197.381H199.32V200.619ZM199.856 200.619C199.879 200.619 199.901 200.62 199.923 200.623L200.323 197.41C200.169 197.391 200.013 197.381 199.856 197.381V200.619ZM200.307 200.863C200.32 200.881 200.331 200.901 200.341 200.921L203.249 199.499C203.18 199.358 203.103 199.222 203.018 199.092L200.307 200.863ZM200.341 200.921L200.626 201.506L203.535 200.083L203.249 199.499L200.341 200.921ZM202.627 205.596L203.199 206.765L206.107 205.343L205.535 204.174L202.627 205.596ZM205.2 210.856L205.485 211.44L208.394 210.018L208.108 209.433L205.2 210.856ZM205.485 211.44C205.624 211.723 205.793 211.983 205.988 212.216L208.472 210.14C208.445 210.109 208.419 210.069 208.394 210.018L205.485 211.44ZM211.769 212.216C211.964 211.983 212.133 211.723 212.271 211.44L209.363 210.018C209.338 210.069 209.311 210.109 209.285 210.14L211.769 212.216ZM212.271 211.44L212.557 210.856L209.649 209.433L209.363 210.018L212.271 211.44ZM214.558 206.765L215.129 205.596L212.221 204.174L211.65 205.343L214.558 206.765ZM217.13 201.506L217.416 200.921L214.508 199.499L214.222 200.083L217.13 201.506ZM217.416 200.921C217.426 200.901 217.437 200.881 217.449 200.863L214.739 199.092C214.654 199.222 214.577 199.358 214.508 199.499L217.416 200.921ZM217.834 200.623C217.855 200.62 217.878 200.619 217.901 200.619V197.381C217.744 197.381 217.588 197.391 217.434 197.41L217.834 200.623ZM217.901 200.619H218.437V197.381H217.901V200.619ZM222.191 200.619H223.263V197.381H222.191V200.619ZM227.017 200.619H228.09V197.381H227.017V200.619ZM231.844 200.619H232.916V197.381H231.844V200.619ZM236.67 200.619H237.742V197.381H236.67V200.619ZM241.496 200.619H242.569V197.381H241.496V200.619ZM246.323 200.619H247.395V197.381H246.323V200.619ZM251.149 200.619H252.222V197.381H251.149V200.619ZM255.975 200.619H257.048V197.381H255.975V200.619ZM260.802 200.619H261.874V197.381H260.802V200.619ZM265.628 200.619H266.701V197.381H265.628V200.619ZM270.455 200.619H271.527V197.381H270.455V200.619ZM275.281 200.619H276.353V197.381H275.281V200.619ZM280.107 200.619H281.18V197.381H280.107V200.619ZM284.934 200.619H286.006V197.381H284.934V200.619ZM289.76 200.619H290.833V197.381H289.76V200.619ZM294.586 200.619H295.659V197.381H294.586V200.619ZM299.413 200.619H300.485V197.381H299.413V200.619ZM304.239 200.619H305.312V197.381H304.239V200.619ZM309.066 200.619H310.138V197.381H309.066V200.619ZM313.892 200.619H314.965V197.381H313.892V200.619ZM318.718 200.619H319.791V197.381H318.718V200.619ZM323.545 200.619H324.617V197.381H323.545V200.619ZM328.371 200.619H329.444V197.381H328.371V200.619ZM333.198 200.619H334.27V197.381H333.198V200.619ZM338.024 200.619H339.096V197.381H338.024V200.619ZM342.85 200.619H343.923V197.381H342.85V200.619ZM347.677 200.619H348.749V197.381H347.677V200.619ZM352.503 200.619H353.576V197.381H352.503V200.619ZM357.329 200.619H358.402V197.381H357.329V200.619ZM362.156 200.619H363.228V197.381H362.156V200.619ZM366.982 200.619H368.055V197.381H366.982V200.619ZM371.809 200.619H372.881V197.381H371.809V200.619ZM376.635 200.619H377.707V197.381H376.635V200.619ZM381.461 200.619H382.534V197.381H381.461V200.619ZM386.288 200.619H387.36V197.381H386.288V200.619ZM391.114 200.619H392.187V197.381H391.114V200.619ZM395.94 200.619H397.013V197.381H395.94V200.619ZM400.767 200.619H401.839V197.381H400.767V200.619ZM405.593 200.619H406.13V197.381H405.593V200.619ZM406.13 200.619C406.326 200.619 406.522 200.614 406.717 200.606L406.578 197.372C406.43 197.378 406.28 197.381 406.13 197.381V200.619ZM410.744 199.808C411.115 199.673 411.478 199.523 411.832 199.357L410.462 196.424C410.193 196.549 409.918 196.664 409.637 196.766L410.744 199.808ZM415.243 197.075C415.532 196.81 415.81 196.532 416.075 196.243L413.688 194.055C413.487 194.275 413.275 194.487 413.055 194.688L415.243 197.075ZM418.357 192.832C418.523 192.478 418.673 192.115 418.808 191.744L415.766 190.637C415.664 190.918 415.549 191.193 415.424 191.462L418.357 192.832ZM419.606 187.717C419.614 187.522 419.619 187.326 419.619 187.13H416.381C416.381 187.28 416.378 187.43 416.372 187.578L419.606 187.717ZM419.619 187.13V186.589H416.381V187.13H419.619ZM419.619 182.802V181.72H416.381V182.802H419.619ZM419.619 177.934V176.852H416.381V177.934H419.619ZM419.619 173.066V171.984H416.381V173.066H419.619ZM419.619 168.197V167.115H416.381V168.197H419.619ZM419.619 163.329V162.247H416.381V163.329H419.619ZM419.619 158.461V157.379H416.381V158.461H419.619ZM419.619 153.592V152.51H416.381V153.592H419.619ZM419.619 148.724V147.642H416.381V148.724H419.619ZM419.619 143.856V142.774H416.381V143.856H419.619ZM419.619 138.987V137.906H416.381V138.987H419.619ZM419.619 134.119V133.037H416.381V134.119H419.619ZM419.619 129.251V128.169H416.381V129.251H419.619ZM419.619 124.382V123.301H416.381V124.382H419.619ZM419.619 119.514V118.432H416.381V119.514H419.619ZM419.619 114.646V113.564H416.381V114.646H419.619ZM419.619 109.778V108.696H416.381V109.778H419.619ZM419.619 104.909V103.827H416.381V104.909H419.619ZM419.619 100.041V98.9591H416.381V100.041H419.619ZM419.619 95.1726V94.0908H416.381V95.1726H419.619ZM419.619 90.3043V89.2225H416.381V90.3043H419.619ZM419.619 85.436V84.3541H416.381V85.436H419.619ZM419.619 80.5677V79.4858H416.381V80.5677H419.619ZM419.619 75.6994V74.6175H416.381V75.6994H419.619ZM419.619 70.8311V69.7492H416.381V70.8311H419.619ZM419.619 65.9628V64.8809H416.381V65.9628H419.619ZM419.619 61.0944V60.0126H416.381V61.0944H419.619ZM419.619 56.2261V55.1443H416.381V56.2261H419.619ZM419.619 51.3578V50.276H416.381V51.3578H419.619ZM419.619 46.4895V45.4077H416.381V46.4895H419.619ZM419.619 41.6212V40.5394H416.381V41.6212H419.619ZM419.619 36.7529V35.6711H416.381V36.7529H419.619ZM419.619 31.8846V30.8028H416.381V31.8846H419.619ZM419.619 27.0163V25.9345H416.381V27.0163H419.619ZM419.619 22.148V21.0662H416.381V22.148H419.619ZM419.619 17.2797V16.1979H416.381V17.2797H419.619ZM419.619 12.4114V11.8705H416.381V12.4114H419.619ZM419.619 11.8705C419.619 11.6736 419.614 11.4777 419.606 11.2827L416.372 11.4217C416.378 11.5704 416.381 11.72 416.381 11.8705H419.619ZM418.808 7.25566C418.673 6.88504 418.523 6.52205 418.357 6.1675L415.424 7.53762C415.549 7.8067 415.664 8.08209 415.766 8.36316L418.808 7.25566ZM416.075 2.757C415.81 2.46792 415.532 2.19044 415.243 1.92541L413.055 4.31169C413.275 4.51346 413.487 4.72471 413.688 4.94479L416.075 2.757ZM411.832 -0.356967C411.478 -0.522577 411.115 -0.67326 410.744 -0.80819L409.637 2.23389C409.918 2.33621 410.193 2.45052 410.462 2.57621L411.832 -0.356967ZM406.717 -1.6061C406.522 -1.61447 406.326 -1.6187 406.13 -1.6187V1.6187C406.28 1.6187 406.43 1.62193 406.578 1.62832L406.717 -1.6061ZM406.13 -1.6187H405.589V1.6187H406.13V-1.6187ZM401.803 -1.6187H400.721V1.6187H401.803V-1.6187ZM396.936 -1.6187H395.854V1.6187H396.936V-1.6187ZM392.068 -1.6187H390.987V1.6187H392.068V-1.6187ZM387.201 -1.6187H386.119V1.6187H387.201V-1.6187ZM382.333 -1.6187H381.252V1.6187H382.333V-1.6187ZM377.466 -1.6187H376.384V1.6187H377.466V-1.6187ZM372.599 -1.6187H371.517V1.6187H372.599V-1.6187ZM367.731 -1.6187H366.65V1.6187H367.731V-1.6187ZM362.864 -1.6187H361.782V1.6187H362.864V-1.6187ZM357.996 -1.6187H356.915V1.6187H357.996V-1.6187ZM353.129 -1.6187H352.047V1.6187H353.129V-1.6187ZM348.262 -1.6187H347.18V1.6187H348.262V-1.6187ZM343.394 -1.6187H342.313V1.6187H343.394V-1.6187ZM338.527 -1.6187H337.445V1.6187H338.527V-1.6187ZM333.659 -1.6187H332.578V1.6187H333.659V-1.6187ZM328.792 -1.6187H327.71V1.6187H328.792V-1.6187ZM323.925 -1.6187H322.843V1.6187H323.925V-1.6187ZM319.057 -1.6187H317.976V1.6187H319.057V-1.6187ZM314.19 -1.6187H313.108V1.6187H314.19V-1.6187ZM309.322 -1.6187H308.241V1.6187H309.322V-1.6187ZM304.455 -1.6187H303.373V1.6187H304.455V-1.6187ZM299.588 -1.6187H298.506V1.6187H299.588V-1.6187ZM294.72 -1.6187H293.639V1.6187H294.72V-1.6187ZM289.853 -1.6187H288.771V1.6187H289.853V-1.6187ZM284.985 -1.6187H283.904V1.6187H284.985V-1.6187ZM280.118 -1.6187H279.036V1.6187H280.118V-1.6187ZM275.251 -1.6187H274.169V1.6187H275.251V-1.6187ZM270.383 -1.6187H269.302V1.6187H270.383V-1.6187ZM265.516 -1.6187H264.434V1.6187H265.516V-1.6187ZM260.648 -1.6187H259.567V1.6187H260.648V-1.6187ZM255.781 -1.6187H254.699V1.6187H255.781V-1.6187ZM250.914 -1.6187H249.832V1.6187H250.914V-1.6187ZM246.046 -1.6187H244.965V1.6187H246.046V-1.6187ZM241.179 -1.6187H240.097V1.6187H241.179V-1.6187ZM236.311 -1.6187H235.23V1.6187H236.311V-1.6187ZM231.444 -1.6187H230.362V1.6187H231.444V-1.6187ZM226.577 -1.6187H225.495V1.6187H226.577V-1.6187ZM221.709 -1.6187H220.628V1.6187H221.709V-1.6187ZM216.842 -1.6187H215.76V1.6187H216.842V-1.6187ZM211.974 -1.6187H210.893V1.6187H211.974V-1.6187ZM207.107 -1.6187H206.025V1.6187H207.107V-1.6187ZM202.24 -1.6187H201.158V1.6187H202.24V-1.6187ZM197.372 -1.6187H196.291V1.6187H197.372V-1.6187ZM192.505 -1.6187H191.423V1.6187H192.505V-1.6187ZM187.637 -1.6187H186.556V1.6187H187.637V-1.6187ZM182.77 -1.6187H181.688V1.6187H182.77V-1.6187ZM177.903 -1.6187H176.821V1.6187H177.903V-1.6187ZM173.035 -1.6187H171.954V1.6187H173.035V-1.6187ZM168.168 -1.6187H167.086V1.6187H168.168V-1.6187ZM163.3 -1.6187H162.219V1.6187H163.3V-1.6187ZM158.433 -1.6187H157.351V1.6187H158.433V-1.6187ZM153.566 -1.6187H152.484V1.6187H153.566V-1.6187ZM148.698 -1.6187H147.617V1.6187H148.698V-1.6187ZM143.831 -1.6187H142.749V1.6187H143.831V-1.6187ZM138.963 -1.6187H137.882V1.6187H138.963V-1.6187ZM134.096 -1.6187H133.014V1.6187H134.096V-1.6187ZM129.229 -1.6187H128.147V1.6187H129.229V-1.6187ZM124.361 -1.6187H123.28V1.6187H124.361V-1.6187ZM119.494 -1.6187H118.412V1.6187H119.494V-1.6187ZM114.626 -1.6187H113.545V1.6187H114.626V-1.6187ZM109.759 -1.6187H108.677V1.6187H109.759V-1.6187ZM104.892 -1.6187H103.81V1.6187H104.892V-1.6187ZM100.024 -1.6187H98.9426V1.6187H100.024V-1.6187ZM95.1568 -1.6187H94.0752V1.6187H95.1568V-1.6187ZM90.2894 -1.6187H89.2078V1.6187H90.2894V-1.6187ZM85.422 -1.6187H84.3404V1.6187H85.422V-1.6187ZM80.5546 -1.6187H79.473V1.6187H80.5546V-1.6187ZM75.6872 -1.6187H74.6056V1.6187H75.6872V-1.6187ZM70.8198 -1.6187H69.7382V1.6187H70.8198V-1.6187ZM65.9524 -1.6187H64.8708V1.6187H65.9524V-1.6187ZM61.085 -1.6187H60.0034V1.6187H61.085V-1.6187ZM56.2176 -1.6187H55.136V1.6187H56.2176V-1.6187ZM51.3502 -1.6187H50.2686V1.6187H51.3502V-1.6187ZM46.4828 -1.6187H45.4012V1.6187H46.4828V-1.6187ZM41.6154 -1.6187H40.5338V1.6187H41.6154V-1.6187ZM36.748 -1.6187H35.6664V1.6187H36.748V-1.6187ZM31.8806 -1.6187H30.799V1.6187H31.8806V-1.6187ZM27.0132 -1.6187H25.9316V1.6187H27.0132V-1.6187ZM22.1458 -1.6187H21.0642V1.6187H22.1458V-1.6187ZM17.2784 -1.6187H16.1968V1.6187H17.2784V-1.6187ZM12.411 -1.6187H11.8705V1.6187H12.411V-1.6187ZM11.8705 -1.6187C11.6736 -1.6187 11.4777 -1.61447 11.2827 -1.6061L11.4217 1.62832C11.5704 1.62193 11.72 1.6187 11.8705 1.6187V-1.6187ZM7.25566 -0.80819C6.88504 -0.67326 6.52205 -0.522577 6.1675 -0.356966L7.53762 2.57621C7.8067 2.45052 8.08209 2.33621 8.36316 2.23389L7.25566 -0.80819ZM2.757 1.92541C2.46792 2.19044 2.19044 2.46792 1.92541 2.75701L4.31169 4.94479C4.51346 4.72472 4.72471 4.51347 4.94479 4.3117L2.757 1.92541ZM-0.356968 6.16751C-0.522578 6.52205 -0.673261 6.88504 -0.80819 7.25567L2.23389 8.36317C2.33621 8.08209 2.45052 7.80671 2.57621 7.53763L-0.356968 6.16751ZM-1.6061 11.2827C-1.61447 11.4777 -1.6187 11.6736 -1.6187 11.8705H1.6187C1.6187 11.72 1.62193 11.5704 1.62832 11.4217L-1.6061 11.2827Z" fill="#2D74FE" mask="url(#path-1-inside-1_7144_424)"/>
</svg>
