<svg width="418" height="230" viewBox="0 0 418 230" fill="none" xmlns="http://www.w3.org/2000/svg">
<mask id="path-1-inside-1_7144_424" fill="white">
<path fill-rule="evenodd" clip-rule="evenodd" d="M11.8705 0C5.31459 0 0 5.3146 0 11.8705V205.13C0 211.685 5.3146 217 11.8705 217H199.856C200.68 217 201.433 217.47 201.795 218.21L206.939 228.729C207.729 230.342 210.028 230.342 210.817 228.729L215.962 218.21C216.324 217.47 217.076 217 217.901 217H406.13C412.685 217 418 211.685 418 205.13V11.8705C418 5.31459 412.685 0 406.13 0H11.8705Z"/>
</mask>
<path fill-rule="evenodd" clip-rule="evenodd" d="M11.8705 0C5.31459 0 0 5.3146 0 11.8705V205.13C0 211.685 5.3146 217 11.8705 217H199.856C200.68 217 201.433 217.47 201.795 218.21L206.939 228.729C207.729 230.342 210.028 230.342 210.817 228.729L215.962 218.21C216.324 217.47 217.076 217 217.901 217H406.13C412.685 217 418 211.685 418 205.13V11.8705C418 5.31459 412.685 0 406.13 0H11.8705Z" fill="#001341" fill-opacity="0.45"/>
<path d="M215.962 218.21L216.689 218.566L215.962 218.21ZM206.939 228.729L207.667 228.373L206.939 228.729ZM210.817 228.729L211.544 229.085L210.817 228.729ZM201.795 218.21L201.068 218.566L201.795 218.21ZM-0.809351 11.8705V12.4073H0.809351V11.8705H-0.809351ZM-0.809351 16.1651V17.2388H0.809351V16.1651H-0.809351ZM-0.809351 20.9966V22.0703H0.809351V20.9966H-0.809351ZM-0.809351 25.8281V26.9017H0.809351V25.8281H-0.809351ZM-0.809351 30.6596V31.7332H0.809351V30.6596H-0.809351ZM-0.809351 35.491V36.5647H0.809351V35.491H-0.809351ZM-0.809351 40.3225V41.3962H0.809351V40.3225H-0.809351ZM-0.809351 45.154V46.2276H0.809351V45.154H-0.809351ZM-0.809351 49.9855V51.0591H0.809351V49.9855H-0.809351ZM-0.809351 54.8169V55.8906H0.809351V54.8169H-0.809351ZM-0.809351 59.6484V60.7221H0.809351V59.6484H-0.809351ZM-0.809351 64.4799V65.5535H0.809351V64.4799H-0.809351ZM-0.809351 69.3114V70.385H0.809351V69.3114H-0.809351ZM-0.809351 74.1428V75.2165H0.809351V74.1428H-0.809351ZM-0.809351 78.9743V80.048H0.809351V78.9743H-0.809351ZM-0.809351 83.8058V84.8794H0.809351V83.8058H-0.809351ZM-0.809351 88.6373V89.7109H0.809351V88.6373H-0.809351ZM-0.809351 93.4687V94.5424H0.809351V93.4687H-0.809351ZM-0.809351 98.3002V99.3739H0.809351V98.3002H-0.809351ZM-0.809351 103.132V104.205H0.809351V103.132H-0.809351ZM-0.809351 107.963V109.037H0.809351V107.963H-0.809351ZM-0.809351 112.795V113.868H0.809351V112.795H-0.809351ZM-0.809351 117.626V118.7H0.809351V117.626H-0.809351ZM-0.809351 122.458V123.531H0.809351V122.458H-0.809351ZM-0.809351 127.289V128.363H0.809351V127.289H-0.809351ZM-0.809351 132.121V133.194H0.809351V132.121H-0.809351ZM-0.809351 136.952V138.026H0.809351V136.952H-0.809351ZM-0.809351 141.783V142.857H0.809351V141.783H-0.809351ZM-0.809351 146.615V147.689H0.809351V146.615H-0.809351ZM-0.809351 151.446V152.52H0.809351V151.446H-0.809351ZM-0.809351 156.278V157.352H0.809351V156.278H-0.809351ZM-0.809351 161.109V162.183H0.809351V161.109H-0.809351ZM-0.809351 165.941V167.014H0.809351V165.941H-0.809351ZM-0.809351 170.772V171.846H0.809351V170.772H-0.809351ZM-0.809351 175.604V176.677H0.809351V175.604H-0.809351ZM-0.809351 180.435V181.509H0.809351V180.435H-0.809351ZM-0.809351 185.267V186.34H0.809351V185.267H-0.809351ZM-0.809351 190.098V191.172H0.809351V190.098H-0.809351ZM-0.809351 194.93V196.003H0.809351V194.93H-0.809351ZM-0.809351 199.761V200.835H0.809351V199.761H-0.809351ZM-0.809351 204.593V205.13H0.809351V204.593H-0.809351ZM-0.809351 205.13C-0.809351 205.315 -0.805373 205.499 -0.797493 205.683L0.819717 205.613C0.812831 205.453 0.809351 205.292 0.809351 205.13H-0.809351ZM-0.0476721 209.467C0.0791072 209.816 0.220697 210.157 0.376327 210.49L1.84292 209.805C1.70725 209.514 1.58384 209.217 1.47337 208.914L-0.0476721 209.467ZM2.52198 213.696C2.7712 213.968 3.03212 214.229 3.30395 214.478L4.39784 213.285C4.16052 213.067 3.93271 212.839 3.71512 212.602L2.52198 213.696ZM6.51003 216.624C6.84321 216.779 7.1843 216.921 7.53254 217.048L8.08629 215.527C7.78282 215.416 7.48554 215.293 7.19509 215.157L6.51003 216.624ZM11.3174 217.797C11.5009 217.805 11.6852 217.809 11.8705 217.809V216.191C11.7084 216.191 11.5472 216.187 11.3869 216.18L11.3174 217.797ZM11.8705 217.809H12.406V216.191H11.8705V217.809ZM16.155 217.809H17.2262V216.191H16.155V217.809ZM20.9752 217.809H22.0463V216.191H20.9752V217.809ZM25.7953 217.809H26.8665V216.191H25.7953V217.809ZM30.6155 217.809H31.6866V216.191H30.6155V217.809ZM35.4356 217.809H36.5068V216.191H35.4356V217.809ZM40.2557 217.809H41.3269V216.191H40.2557V217.809ZM45.0759 217.809H46.147V216.191H45.0759V217.809ZM49.896 217.809H50.9672V216.191H49.896V217.809ZM54.7162 217.809H55.7873V216.191H54.7162V217.809ZM59.5363 217.809H60.6075V216.191H59.5363V217.809ZM64.3565 217.809H65.4276V216.191H64.3565V217.809ZM69.1766 217.809H70.2478V216.191H69.1766V217.809ZM73.9968 217.809H75.0679V216.191H73.9968V217.809ZM78.8169 217.809H79.888V216.191H78.8169V217.809ZM83.6371 217.809H84.7082V216.191H83.6371V217.809ZM88.4572 217.809H89.5283V216.191H88.4572V217.809ZM93.2773 217.809H94.3485V216.191H93.2773V217.809ZM98.0975 217.809H99.1686V216.191H98.0975V217.809ZM102.918 217.809H103.989V216.191H102.918V217.809ZM107.738 217.809H108.809V216.191H107.738V217.809ZM112.558 217.809H113.629V216.191H112.558V217.809ZM117.378 217.809H118.449V216.191H117.378V217.809ZM122.198 217.809H123.269V216.191H122.198V217.809ZM127.018 217.809H128.089V216.191H127.018V217.809ZM131.838 217.809H132.91V216.191H131.838V217.809ZM136.659 217.809H137.73V216.191H136.659V217.809ZM141.479 217.809H142.55V216.191H141.479V217.809ZM146.299 217.809H147.37V216.191H146.299V217.809ZM151.119 217.809H152.19V216.191H151.119V217.809ZM155.939 217.809H157.01V216.191H155.939V217.809ZM160.759 217.809H161.83V216.191H160.759V217.809ZM165.579 217.809H166.651V216.191H165.579V217.809ZM170.4 217.809H171.471V216.191H170.4V217.809ZM175.22 217.809H176.291V216.191H175.22V217.809ZM180.04 217.809H181.111V216.191H180.04V217.809ZM184.86 217.809H185.931V216.191H184.86V217.809ZM189.68 217.809H190.751V216.191H189.68V217.809ZM194.5 217.809H195.571V216.191H194.5V217.809ZM199.32 217.809H199.856V216.191H199.32V217.809ZM199.856 217.809C199.912 217.809 199.968 217.813 200.023 217.82L200.223 216.213C200.102 216.198 199.98 216.191 199.856 216.191V217.809ZM200.985 218.42C201.015 218.466 201.043 218.515 201.068 218.566L202.522 217.854C202.468 217.743 202.407 217.637 202.34 217.535L200.985 218.42ZM201.068 218.566L201.354 219.15L202.808 218.439L202.522 217.854L201.068 218.566ZM203.354 223.241L203.926 224.409L205.38 223.698L204.808 222.53L203.354 223.241ZM205.927 228.5L206.212 229.085L207.667 228.373L207.381 227.789L205.927 228.5ZM206.212 229.085C206.323 229.31 206.456 229.514 206.609 229.697L207.851 228.659C207.782 228.577 207.72 228.482 207.667 228.373L206.212 229.085ZM211.148 229.697C211.301 229.514 211.434 229.31 211.544 229.085L210.09 228.373C210.037 228.482 209.974 228.577 209.906 228.659L211.148 229.697ZM211.544 229.085L211.83 228.5L210.376 227.789L210.09 228.373L211.544 229.085ZM213.831 224.409L214.402 223.241L212.948 222.53L212.377 223.698L213.831 224.409ZM216.403 219.15L216.689 218.566L215.235 217.854L214.949 218.439L216.403 219.15ZM216.689 218.566C216.714 218.515 216.741 218.466 216.772 218.42L215.416 217.535C215.35 217.637 215.289 217.743 215.235 217.854L216.689 218.566ZM217.734 217.82C217.788 217.813 217.844 217.809 217.901 217.809V216.191C217.777 216.191 217.655 216.198 217.534 216.213L217.734 217.82ZM217.901 217.809H218.437V216.191H217.901V217.809ZM222.191 217.809H223.263V216.191H222.191V217.809ZM227.017 217.809H228.09V216.191H227.017V217.809ZM231.844 217.809H232.916V216.191H231.844V217.809ZM236.67 217.809H237.742V216.191H236.67V217.809ZM241.496 217.809H242.569V216.191H241.496V217.809ZM246.323 217.809H247.395V216.191H246.323V217.809ZM251.149 217.809H252.222V216.191H251.149V217.809ZM255.975 217.809H257.048V216.191H255.975V217.809ZM260.802 217.809H261.874V216.191H260.802V217.809ZM265.628 217.809H266.701V216.191H265.628V217.809ZM270.455 217.809H271.527V216.191H270.455V217.809ZM275.281 217.809H276.353V216.191H275.281V217.809ZM280.107 217.809H281.18V216.191H280.107V217.809ZM284.934 217.809H286.006V216.191H284.934V217.809ZM289.76 217.809H290.833V216.191H289.76V217.809ZM294.586 217.809H295.659V216.191H294.586V217.809ZM299.413 217.809H300.485V216.191H299.413V217.809ZM304.239 217.809H305.312V216.191H304.239V217.809ZM309.066 217.809H310.138V216.191H309.066V217.809ZM313.892 217.809H314.965V216.191H313.892V217.809ZM318.718 217.809H319.791V216.191H318.718V217.809ZM323.545 217.809H324.617V216.191H323.545V217.809ZM328.371 217.809H329.444V216.191H328.371V217.809ZM333.198 217.809H334.27V216.191H333.198V217.809ZM338.024 217.809H339.096V216.191H338.024V217.809ZM342.85 217.809H343.923V216.191H342.85V217.809ZM347.677 217.809H348.749V216.191H347.677V217.809ZM352.503 217.809H353.576V216.191H352.503V217.809ZM357.329 217.809H358.402V216.191H357.329V217.809ZM362.156 217.809H363.228V216.191H362.156V217.809ZM366.982 217.809H368.055V216.191H366.982V217.809ZM371.809 217.809H372.881V216.191H371.809V217.809ZM376.635 217.809H377.707V216.191H376.635V217.809ZM381.461 217.809H382.534V216.191H381.461V217.809ZM386.288 217.809H387.36V216.191H386.288V217.809ZM391.114 217.809H392.187V216.191H391.114V217.809ZM395.94 217.809H397.013V216.191H395.94V217.809ZM400.767 217.809H401.839V216.191H400.767V217.809ZM405.593 217.809H406.13V216.191H405.593V217.809ZM406.13 217.809C406.315 217.809 406.499 217.805 406.683 217.797L406.613 216.18C406.453 216.187 406.292 216.191 406.13 216.191V217.809ZM410.467 217.048C410.816 216.921 411.157 216.779 411.49 216.624L410.805 215.157C410.514 215.293 410.217 215.416 409.914 215.527L410.467 217.048ZM414.696 214.478C414.968 214.229 415.229 213.968 415.478 213.696L414.285 212.602C414.067 212.839 413.839 213.067 413.602 213.285L414.696 214.478ZM417.624 210.49C417.779 210.157 417.921 209.816 418.048 209.467L416.527 208.914C416.416 209.217 416.293 209.514 416.157 209.805L417.624 210.49ZM418.797 205.683C418.805 205.499 418.809 205.315 418.809 205.13H417.191C417.191 205.292 417.187 205.453 417.18 205.613L418.797 205.683ZM418.809 205.13V204.593H417.191V205.13H418.809ZM418.809 200.835V199.761H417.191V200.835H418.809ZM418.809 196.003V194.93H417.191V196.003H418.809ZM418.809 191.172V190.098H417.191V191.172H418.809ZM418.809 186.34V185.267H417.191V186.34H418.809ZM418.809 181.509V180.435H417.191V181.509H418.809ZM418.809 176.677V175.604H417.191V176.677H418.809ZM418.809 171.846V170.772H417.191V171.846H418.809ZM418.809 167.015V165.941H417.191V167.015H418.809ZM418.809 162.183V161.109H417.191V162.183H418.809ZM418.809 157.352V156.278H417.191V157.352H418.809ZM418.809 152.52V151.446H417.191V152.52H418.809ZM418.809 147.689V146.615H417.191V147.689H418.809ZM418.809 142.857V141.784H417.191V142.857H418.809ZM418.809 138.026V136.952H417.191V138.026H418.809ZM418.809 133.194V132.121H417.191V133.194H418.809ZM418.809 128.363V127.289H417.191V128.363H418.809ZM418.809 123.531V122.458H417.191V123.531H418.809ZM418.809 118.7V117.626H417.191V118.7H418.809ZM418.809 113.868V112.795H417.191V113.868H418.809ZM418.809 109.037V107.963H417.191V109.037H418.809ZM418.809 104.205V103.132H417.191V104.205H418.809ZM418.809 99.3739V98.3002H417.191V99.3739H418.809ZM418.809 94.5424V93.4688H417.191V94.5424H418.809ZM418.809 89.7109V88.6373H417.191V89.7109H418.809ZM418.809 84.8795V83.8058H417.191V84.8795H418.809ZM418.809 80.048V78.9743H417.191V80.048H418.809ZM418.809 75.2165V74.1429H417.191V75.2165H418.809ZM418.809 70.3851V69.3114H417.191V70.3851H418.809ZM418.809 65.5536V64.4799H417.191V65.5536H418.809ZM418.809 60.7221V59.6485H417.191V60.7221H418.809ZM418.809 55.8906V54.817H417.191V55.8906H418.809ZM418.809 51.0592V49.9855H417.191V51.0592H418.809ZM418.809 46.2277V45.1541H417.191V46.2277H418.809ZM418.809 41.3962V40.3226H417.191V41.3962H418.809ZM418.809 36.5648V35.4911H417.191V36.5648H418.809ZM418.809 31.7333V30.6597H417.191V31.7333H418.809ZM418.809 26.9018V25.8282H417.191V26.9018H418.809ZM418.809 22.0704V20.9967H417.191V22.0704H418.809ZM418.809 17.2389V16.1653H417.191V17.2389H418.809ZM418.809 12.4075V11.8705H417.191V12.4075H418.809ZM418.809 11.8705C418.809 11.6852 418.805 11.5009 418.797 11.3174L417.18 11.3869C417.187 11.5472 417.191 11.7084 417.191 11.8705H418.809ZM418.048 7.53254C417.921 7.1843 417.779 6.84321 417.624 6.51003L416.157 7.19509C416.293 7.48554 416.416 7.78282 416.527 8.08629L418.048 7.53254ZM415.478 3.30395C415.229 3.03212 414.968 2.7712 414.696 2.52198L413.602 3.71512C413.839 3.93271 414.067 4.16052 414.285 4.39785L415.478 3.30395ZM411.49 0.376328C411.157 0.220698 410.816 0.0791085 410.467 -0.0476709L409.914 1.47337C410.217 1.58385 410.514 1.70725 410.805 1.84292L411.49 0.376328ZM406.683 -0.797493C406.499 -0.805373 406.315 -0.809351 406.13 -0.809351V0.809351C406.292 0.809351 406.453 0.812831 406.613 0.819717L406.683 -0.797493ZM406.13 -0.809351H405.589V0.809351H406.13V-0.809351ZM401.803 -0.809351H400.721V0.809351H401.803V-0.809351ZM396.936 -0.809351H395.854V0.809351H396.936V-0.809351ZM392.068 -0.809351H390.987V0.809351H392.068V-0.809351ZM387.201 -0.809351H386.119V0.809351H387.201V-0.809351ZM382.333 -0.809351H381.252V0.809351H382.333V-0.809351ZM377.466 -0.809351H376.384V0.809351H377.466V-0.809351ZM372.599 -0.809351H371.517V0.809351H372.599V-0.809351ZM367.731 -0.809351H366.65V0.809351H367.731V-0.809351ZM362.864 -0.809351H361.782V0.809351H362.864V-0.809351ZM357.996 -0.809351H356.915V0.809351H357.996V-0.809351ZM353.129 -0.809351H352.047V0.809351H353.129V-0.809351ZM348.262 -0.809351H347.18V0.809351H348.262V-0.809351ZM343.394 -0.809351H342.313V0.809351H343.394V-0.809351ZM338.527 -0.809351H337.445V0.809351H338.527V-0.809351ZM333.659 -0.809351H332.578V0.809351H333.659V-0.809351ZM328.792 -0.809351H327.71V0.809351H328.792V-0.809351ZM323.925 -0.809351H322.843V0.809351H323.925V-0.809351ZM319.057 -0.809351H317.976V0.809351H319.057V-0.809351ZM314.19 -0.809351H313.108V0.809351H314.19V-0.809351ZM309.322 -0.809351H308.241V0.809351H309.322V-0.809351ZM304.455 -0.809351H303.373V0.809351H304.455V-0.809351ZM299.588 -0.809351H298.506V0.809351H299.588V-0.809351ZM294.72 -0.809351H293.639V0.809351H294.72V-0.809351ZM289.853 -0.809351H288.771V0.809351H289.853V-0.809351ZM284.985 -0.809351H283.904V0.809351H284.985V-0.809351ZM280.118 -0.809351H279.036V0.809351H280.118V-0.809351ZM275.251 -0.809351H274.169V0.809351H275.251V-0.809351ZM270.383 -0.809351H269.302V0.809351H270.383V-0.809351ZM265.516 -0.809351H264.434V0.809351H265.516V-0.809351ZM260.648 -0.809351H259.567V0.809351H260.648V-0.809351ZM255.781 -0.809351H254.699V0.809351H255.781V-0.809351ZM250.914 -0.809351H249.832V0.809351H250.914V-0.809351ZM246.046 -0.809351H244.965V0.809351H246.046V-0.809351ZM241.179 -0.809351H240.097V0.809351H241.179V-0.809351ZM236.311 -0.809351H235.23V0.809351H236.311V-0.809351ZM231.444 -0.809351H230.362V0.809351H231.444V-0.809351ZM226.577 -0.809351H225.495V0.809351H226.577V-0.809351ZM221.709 -0.809351H220.628V0.809351H221.709V-0.809351ZM216.842 -0.809351H215.76V0.809351H216.842V-0.809351ZM211.974 -0.809351H210.893V0.809351H211.974V-0.809351ZM207.107 -0.809351H206.025V0.809351H207.107V-0.809351ZM202.24 -0.809351H201.158V0.809351H202.24V-0.809351ZM197.372 -0.809351H196.291V0.809351H197.372V-0.809351ZM192.505 -0.809351H191.423V0.809351H192.505V-0.809351ZM187.637 -0.809351H186.556V0.809351H187.637V-0.809351ZM182.77 -0.809351H181.688V0.809351H182.77V-0.809351ZM177.903 -0.809351H176.821V0.809351H177.903V-0.809351ZM173.035 -0.809351H171.954V0.809351H173.035V-0.809351ZM168.168 -0.809351H167.086V0.809351H168.168V-0.809351ZM163.3 -0.809351H162.219V0.809351H163.3V-0.809351ZM158.433 -0.809351H157.351V0.809351H158.433V-0.809351ZM153.566 -0.809351H152.484V0.809351H153.566V-0.809351ZM148.698 -0.809351H147.617V0.809351H148.698V-0.809351ZM143.831 -0.809351H142.749V0.809351H143.831V-0.809351ZM138.963 -0.809351H137.882V0.809351H138.963V-0.809351ZM134.096 -0.809351H133.014V0.809351H134.096V-0.809351ZM129.229 -0.809351H128.147V0.809351H129.229V-0.809351ZM124.361 -0.809351H123.28V0.809351H124.361V-0.809351ZM119.494 -0.809351H118.412V0.809351H119.494V-0.809351ZM114.626 -0.809351H113.545V0.809351H114.626V-0.809351ZM109.759 -0.809351H108.677V0.809351H109.759V-0.809351ZM104.892 -0.809351H103.81V0.809351H104.892V-0.809351ZM100.024 -0.809351H98.9426V0.809351H100.024V-0.809351ZM95.1568 -0.809351H94.0752V0.809351H95.1568V-0.809351ZM90.2894 -0.809351H89.2078V0.809351H90.2894V-0.809351ZM85.422 -0.809351H84.3404V0.809351H85.422V-0.809351ZM80.5546 -0.809351H79.473V0.809351H80.5546V-0.809351ZM75.6872 -0.809351H74.6056V0.809351H75.6872V-0.809351ZM70.8198 -0.809351H69.7382V0.809351H70.8198V-0.809351ZM65.9524 -0.809351H64.8708V0.809351H65.9524V-0.809351ZM61.085 -0.809351H60.0034V0.809351H61.085V-0.809351ZM56.2176 -0.809351H55.136V0.809351H56.2176V-0.809351ZM51.3502 -0.809351H50.2686V0.809351H51.3502V-0.809351ZM46.4828 -0.809351H45.4012V0.809351H46.4828V-0.809351ZM41.6154 -0.809351H40.5338V0.809351H41.6154V-0.809351ZM36.748 -0.809351H35.6664V0.809351H36.748V-0.809351ZM31.8806 -0.809351H30.799V0.809351H31.8806V-0.809351ZM27.0132 -0.809351H25.9316V0.809351H27.0132V-0.809351ZM22.1458 -0.809351H21.0642V0.809351H22.1458V-0.809351ZM17.2784 -0.809351H16.1968V0.809351H17.2784V-0.809351ZM12.411 -0.809351H11.8705V0.809351H12.411V-0.809351ZM11.8705 -0.809351C11.6852 -0.809351 11.5009 -0.805373 11.3174 -0.797493L11.3869 0.819717C11.5472 0.812831 11.7084 0.809351 11.8705 0.809351V-0.809351ZM7.53254 -0.0476699C7.1843 0.0791097 6.84321 0.2207 6.51003 0.37633L7.19509 1.84292C7.48554 1.70725 7.78282 1.58385 8.08629 1.47337L7.53254 -0.0476699ZM3.30395 2.52198C3.03212 2.7712 2.7712 3.03212 2.52198 3.30396L3.71512 4.39785C3.93271 4.16052 4.16052 3.93271 4.39784 3.71512L3.30395 2.52198ZM0.376328 6.51004C0.220698 6.84322 0.0791084 7.18431 -0.047671 7.53255L1.47337 8.08629C1.58385 7.78283 1.70725 7.48555 1.84292 7.1951L0.376328 6.51004ZM-0.797493 11.3174C-0.805373 11.5009 -0.809351 11.6852 -0.809351 11.8705H0.809351C0.809351 11.7084 0.812831 11.5472 0.819717 11.3869L-0.797493 11.3174ZM215.962 218.21L217.416 218.921L215.962 218.21ZM206.939 228.729L208.394 228.018L206.939 228.729ZM210.817 228.729L212.271 229.44L210.817 228.729ZM201.795 218.21L200.341 218.921L201.795 218.21ZM-1.6187 11.8705V12.4073H1.6187V11.8705H-1.6187ZM-1.6187 16.1651V17.2388H1.6187V16.1651H-1.6187ZM-1.6187 20.9966V22.0703H1.6187V20.9966H-1.6187ZM-1.6187 25.8281V26.9017H1.6187V25.8281H-1.6187ZM-1.6187 30.6596V31.7332H1.6187V30.6596H-1.6187ZM-1.6187 35.491V36.5647H1.6187V35.491H-1.6187ZM-1.6187 40.3225V41.3962H1.6187V40.3225H-1.6187ZM-1.6187 45.154V46.2276H1.6187V45.154H-1.6187ZM-1.6187 49.9855V51.0591H1.6187V49.9855H-1.6187ZM-1.6187 54.8169V55.8906H1.6187V54.8169H-1.6187ZM-1.6187 59.6484V60.7221H1.6187V59.6484H-1.6187ZM-1.6187 64.4799V65.5535H1.6187V64.4799H-1.6187ZM-1.6187 69.3114V70.385H1.6187V69.3114H-1.6187ZM-1.6187 74.1428V75.2165H1.6187V74.1428H-1.6187ZM-1.6187 78.9743V80.048H1.6187V78.9743H-1.6187ZM-1.6187 83.8058V84.8794H1.6187V83.8058H-1.6187ZM-1.6187 88.6373V89.7109H1.6187V88.6373H-1.6187ZM-1.6187 93.4687V94.5424H1.6187V93.4687H-1.6187ZM-1.6187 98.3002V99.3739H1.6187V98.3002H-1.6187ZM-1.6187 103.132V104.205H1.6187V103.132H-1.6187ZM-1.6187 107.963V109.037H1.6187V107.963H-1.6187ZM-1.6187 112.795V113.868H1.6187V112.795H-1.6187ZM-1.6187 117.626V118.7H1.6187V117.626H-1.6187ZM-1.6187 122.458V123.531H1.6187V122.458H-1.6187ZM-1.6187 127.289V128.363H1.6187V127.289H-1.6187ZM-1.6187 132.121V133.194H1.6187V132.121H-1.6187ZM-1.6187 136.952V138.026H1.6187V136.952H-1.6187ZM-1.6187 141.783V142.857H1.6187V141.783H-1.6187ZM-1.6187 146.615V147.689H1.6187V146.615H-1.6187ZM-1.6187 151.446V152.52H1.6187V151.446H-1.6187ZM-1.6187 156.278V157.352H1.6187V156.278H-1.6187ZM-1.6187 161.109V162.183H1.6187V161.109H-1.6187ZM-1.6187 165.941V167.014H1.6187V165.941H-1.6187ZM-1.6187 170.772V171.846H1.6187V170.772H-1.6187ZM-1.6187 175.604V176.677H1.6187V175.604H-1.6187ZM-1.6187 180.435V181.509H1.6187V180.435H-1.6187ZM-1.6187 185.267V186.34H1.6187V185.267H-1.6187ZM-1.6187 190.098V191.172H1.6187V190.098H-1.6187ZM-1.6187 194.93V196.003H1.6187V194.93H-1.6187ZM-1.6187 199.761V200.835H1.6187V199.761H-1.6187ZM-1.6187 204.593V205.13H1.6187V204.593H-1.6187ZM-1.6187 205.13C-1.6187 205.326 -1.61447 205.522 -1.6061 205.717L1.62832 205.578C1.62193 205.43 1.6187 205.28 1.6187 205.13H-1.6187ZM-0.808191 209.744C-0.673262 210.115 -0.522579 210.478 -0.356969 210.832L2.57621 209.462C2.45052 209.193 2.33621 208.918 2.23389 208.637L-0.808191 209.744ZM1.9254 214.243C2.19044 214.532 2.46792 214.81 2.757 215.075L4.94479 212.688C4.72471 212.487 4.51346 212.275 4.31169 212.055L1.9254 214.243ZM6.1675 217.357C6.52205 217.523 6.88504 217.673 7.25566 217.808L8.36316 214.766C8.08209 214.664 7.8067 214.549 7.53762 214.424L6.1675 217.357ZM11.2827 218.606C11.4777 218.614 11.6736 218.619 11.8705 218.619V215.381C11.72 215.381 11.5704 215.378 11.4217 215.372L11.2827 218.606ZM11.8705 218.619H12.406V215.381H11.8705V218.619ZM16.155 218.619H17.2262V215.381H16.155V218.619ZM20.9752 218.619H22.0463V215.381H20.9752V218.619ZM25.7953 218.619H26.8665V215.381H25.7953V218.619ZM30.6155 218.619H31.6866V215.381H30.6155V218.619ZM35.4356 218.619H36.5068V215.381H35.4356V218.619ZM40.2557 218.619H41.3269V215.381H40.2557V218.619ZM45.0759 218.619H46.147V215.381H45.0759V218.619ZM49.896 218.619H50.9672V215.381H49.896V218.619ZM54.7162 218.619H55.7873V215.381H54.7162V218.619ZM59.5363 218.619H60.6075V215.381H59.5363V218.619ZM64.3565 218.619H65.4276V215.381H64.3565V218.619ZM69.1766 218.619H70.2478V215.381H69.1766V218.619ZM73.9968 218.619H75.0679V215.381H73.9968V218.619ZM78.8169 218.619H79.888V215.381H78.8169V218.619ZM83.6371 218.619H84.7082V215.381H83.6371V218.619ZM88.4572 218.619H89.5283V215.381H88.4572V218.619ZM93.2773 218.619H94.3485V215.381H93.2773V218.619ZM98.0975 218.619H99.1686V215.381H98.0975V218.619ZM102.918 218.619H103.989V215.381H102.918V218.619ZM107.738 218.619H108.809V215.381H107.738V218.619ZM112.558 218.619H113.629V215.381H112.558V218.619ZM117.378 218.619H118.449V215.381H117.378V218.619ZM122.198 218.619H123.269V215.381H122.198V218.619ZM127.018 218.619H128.089V215.381H127.018V218.619ZM131.838 218.619H132.91V215.381H131.838V218.619ZM136.659 218.619H137.73V215.381H136.659V218.619ZM141.479 218.619H142.55V215.381H141.479V218.619ZM146.299 218.619H147.37V215.381H146.299V218.619ZM151.119 218.619H152.19V215.381H151.119V218.619ZM155.939 218.619H157.01V215.381H155.939V218.619ZM160.759 218.619H161.83V215.381H160.759V218.619ZM165.579 218.619H166.651V215.381H165.579V218.619ZM170.4 218.619H171.471V215.381H170.4V218.619ZM175.22 218.619H176.291V215.381H175.22V218.619ZM180.04 218.619H181.111V215.381H180.04V218.619ZM184.86 218.619H185.931V215.381H184.86V218.619ZM189.68 218.619H190.751V215.381H189.68V218.619ZM194.5 218.619H195.571V215.381H194.5V218.619ZM199.32 218.619H199.856V215.381H199.32V218.619ZM199.856 218.619C199.879 218.619 199.901 218.62 199.923 218.623L200.323 215.41C200.169 215.391 200.013 215.381 199.856 215.381V218.619ZM200.307 218.863C200.32 218.881 200.331 218.901 200.341 218.921L203.249 217.499C203.18 217.358 203.103 217.222 203.018 217.092L200.307 218.863ZM200.341 218.921L200.626 219.506L203.535 218.083L203.249 217.499L200.341 218.921ZM202.627 223.596L203.199 224.765L206.107 223.343L205.535 222.174L202.627 223.596ZM205.2 228.856L205.485 229.44L208.394 228.018L208.108 227.433L205.2 228.856ZM205.485 229.44C205.624 229.723 205.793 229.983 205.988 230.216L208.472 228.14C208.445 228.109 208.419 228.069 208.394 228.018L205.485 229.44ZM211.769 230.216C211.964 229.983 212.133 229.723 212.271 229.44L209.363 228.018C209.338 228.069 209.311 228.109 209.285 228.14L211.769 230.216ZM212.271 229.44L212.557 228.856L209.649 227.433L209.363 228.018L212.271 229.44ZM214.558 224.765L215.129 223.596L212.221 222.174L211.65 223.343L214.558 224.765ZM217.13 219.506L217.416 218.921L214.508 217.499L214.222 218.083L217.13 219.506ZM217.416 218.921C217.426 218.901 217.437 218.881 217.449 218.863L214.739 217.092C214.654 217.222 214.577 217.358 214.508 217.499L217.416 218.921ZM217.834 218.623C217.855 218.62 217.878 218.619 217.901 218.619V215.381C217.744 215.381 217.588 215.391 217.434 215.41L217.834 218.623ZM217.901 218.619H218.437V215.381H217.901V218.619ZM222.191 218.619H223.263V215.381H222.191V218.619ZM227.017 218.619H228.09V215.381H227.017V218.619ZM231.844 218.619H232.916V215.381H231.844V218.619ZM236.67 218.619H237.742V215.381H236.67V218.619ZM241.496 218.619H242.569V215.381H241.496V218.619ZM246.323 218.619H247.395V215.381H246.323V218.619ZM251.149 218.619H252.222V215.381H251.149V218.619ZM255.975 218.619H257.048V215.381H255.975V218.619ZM260.802 218.619H261.874V215.381H260.802V218.619ZM265.628 218.619H266.701V215.381H265.628V218.619ZM270.455 218.619H271.527V215.381H270.455V218.619ZM275.281 218.619H276.353V215.381H275.281V218.619ZM280.107 218.619H281.18V215.381H280.107V218.619ZM284.934 218.619H286.006V215.381H284.934V218.619ZM289.76 218.619H290.833V215.381H289.76V218.619ZM294.586 218.619H295.659V215.381H294.586V218.619ZM299.413 218.619H300.485V215.381H299.413V218.619ZM304.239 218.619H305.312V215.381H304.239V218.619ZM309.066 218.619H310.138V215.381H309.066V218.619ZM313.892 218.619H314.965V215.381H313.892V218.619ZM318.718 218.619H319.791V215.381H318.718V218.619ZM323.545 218.619H324.617V215.381H323.545V218.619ZM328.371 218.619H329.444V215.381H328.371V218.619ZM333.198 218.619H334.27V215.381H333.198V218.619ZM338.024 218.619H339.096V215.381H338.024V218.619ZM342.85 218.619H343.923V215.381H342.85V218.619ZM347.677 218.619H348.749V215.381H347.677V218.619ZM352.503 218.619H353.576V215.381H352.503V218.619ZM357.329 218.619H358.402V215.381H357.329V218.619ZM362.156 218.619H363.228V215.381H362.156V218.619ZM366.982 218.619H368.055V215.381H366.982V218.619ZM371.809 218.619H372.881V215.381H371.809V218.619ZM376.635 218.619H377.707V215.381H376.635V218.619ZM381.461 218.619H382.534V215.381H381.461V218.619ZM386.288 218.619H387.36V215.381H386.288V218.619ZM391.114 218.619H392.187V215.381H391.114V218.619ZM395.94 218.619H397.013V215.381H395.94V218.619ZM400.767 218.619H401.839V215.381H400.767V218.619ZM405.593 218.619H406.13V215.381H405.593V218.619ZM406.13 218.619C406.326 218.619 406.522 218.614 406.717 218.606L406.578 215.372C406.43 215.378 406.28 215.381 406.13 215.381V218.619ZM410.744 217.808C411.115 217.673 411.478 217.523 411.832 217.357L410.462 214.424C410.193 214.549 409.918 214.664 409.637 214.766L410.744 217.808ZM415.243 215.075C415.532 214.81 415.81 214.532 416.075 214.243L413.688 212.055C413.487 212.275 413.275 212.487 413.055 212.688L415.243 215.075ZM418.357 210.832C418.523 210.478 418.673 210.115 418.808 209.744L415.766 208.637C415.664 208.918 415.549 209.193 415.424 209.462L418.357 210.832ZM419.606 205.717C419.614 205.522 419.619 205.326 419.619 205.13H416.381C416.381 205.28 416.378 205.43 416.372 205.578L419.606 205.717ZM419.619 205.13V204.593H416.381V205.13H419.619ZM419.619 200.835V199.761H416.381V200.835H419.619ZM419.619 196.003V194.93H416.381V196.003H419.619ZM419.619 191.172V190.098H416.381V191.172H419.619ZM419.619 186.34V185.267H416.381V186.34H419.619ZM419.619 181.509V180.435H416.381V181.509H419.619ZM419.619 176.677V175.604H416.381V176.677H419.619ZM419.619 171.846V170.772H416.381V171.846H419.619ZM419.619 167.015V165.941H416.381V167.015H419.619ZM419.619 162.183V161.109H416.381V162.183H419.619ZM419.619 157.352V156.278H416.381V157.352H419.619ZM419.619 152.52V151.446H416.381V152.52H419.619ZM419.619 147.689V146.615H416.381V147.689H419.619ZM419.619 142.857V141.784H416.381V142.857H419.619ZM419.619 138.026V136.952H416.381V138.026H419.619ZM419.619 133.194V132.121H416.381V133.194H419.619ZM419.619 128.363V127.289H416.381V128.363H419.619ZM419.619 123.531V122.458H416.381V123.531H419.619ZM419.619 118.7V117.626H416.381V118.7H419.619ZM419.619 113.868V112.795H416.381V113.868H419.619ZM419.619 109.037V107.963H416.381V109.037H419.619ZM419.619 104.205V103.132H416.381V104.205H419.619ZM419.619 99.3739V98.3002H416.381V99.3739H419.619ZM419.619 94.5424V93.4688H416.381V94.5424H419.619ZM419.619 89.7109V88.6373H416.381V89.7109H419.619ZM419.619 84.8795V83.8058H416.381V84.8795H419.619ZM419.619 80.048V78.9743H416.381V80.048H419.619ZM419.619 75.2165V74.1429H416.381V75.2165H419.619ZM419.619 70.3851V69.3114H416.381V70.3851H419.619ZM419.619 65.5536V64.4799H416.381V65.5536H419.619ZM419.619 60.7221V59.6485H416.381V60.7221H419.619ZM419.619 55.8906V54.817H416.381V55.8906H419.619ZM419.619 51.0592V49.9855H416.381V51.0592H419.619ZM419.619 46.2277V45.1541H416.381V46.2277H419.619ZM419.619 41.3962V40.3226H416.381V41.3962H419.619ZM419.619 36.5648V35.4911H416.381V36.5648H419.619ZM419.619 31.7333V30.6597H416.381V31.7333H419.619ZM419.619 26.9018V25.8282H416.381V26.9018H419.619ZM419.619 22.0704V20.9967H416.381V22.0704H419.619ZM419.619 17.2389V16.1653H416.381V17.2389H419.619ZM419.619 12.4075V11.8705H416.381V12.4075H419.619ZM419.619 11.8705C419.619 11.6736 419.614 11.4777 419.606 11.2827L416.372 11.4217C416.378 11.5704 416.381 11.72 416.381 11.8705H419.619ZM418.808 7.25566C418.673 6.88504 418.523 6.52205 418.357 6.1675L415.424 7.53762C415.549 7.8067 415.664 8.08209 415.766 8.36316L418.808 7.25566ZM416.075 2.757C415.81 2.46792 415.532 2.19044 415.243 1.92541L413.055 4.31169C413.275 4.51346 413.487 4.72471 413.688 4.94479L416.075 2.757ZM411.832 -0.356967C411.478 -0.522577 411.115 -0.67326 410.744 -0.80819L409.637 2.23389C409.918 2.33621 410.193 2.45052 410.462 2.57621L411.832 -0.356967ZM406.717 -1.6061C406.522 -1.61447 406.326 -1.6187 406.13 -1.6187V1.6187C406.28 1.6187 406.43 1.62193 406.578 1.62832L406.717 -1.6061ZM406.13 -1.6187H405.589V1.6187H406.13V-1.6187ZM401.803 -1.6187H400.721V1.6187H401.803V-1.6187ZM396.936 -1.6187H395.854V1.6187H396.936V-1.6187ZM392.068 -1.6187H390.987V1.6187H392.068V-1.6187ZM387.201 -1.6187H386.119V1.6187H387.201V-1.6187ZM382.333 -1.6187H381.252V1.6187H382.333V-1.6187ZM377.466 -1.6187H376.384V1.6187H377.466V-1.6187ZM372.599 -1.6187H371.517V1.6187H372.599V-1.6187ZM367.731 -1.6187H366.65V1.6187H367.731V-1.6187ZM362.864 -1.6187H361.782V1.6187H362.864V-1.6187ZM357.996 -1.6187H356.915V1.6187H357.996V-1.6187ZM353.129 -1.6187H352.047V1.6187H353.129V-1.6187ZM348.262 -1.6187H347.18V1.6187H348.262V-1.6187ZM343.394 -1.6187H342.313V1.6187H343.394V-1.6187ZM338.527 -1.6187H337.445V1.6187H338.527V-1.6187ZM333.659 -1.6187H332.578V1.6187H333.659V-1.6187ZM328.792 -1.6187H327.71V1.6187H328.792V-1.6187ZM323.925 -1.6187H322.843V1.6187H323.925V-1.6187ZM319.057 -1.6187H317.976V1.6187H319.057V-1.6187ZM314.19 -1.6187H313.108V1.6187H314.19V-1.6187ZM309.322 -1.6187H308.241V1.6187H309.322V-1.6187ZM304.455 -1.6187H303.373V1.6187H304.455V-1.6187ZM299.588 -1.6187H298.506V1.6187H299.588V-1.6187ZM294.72 -1.6187H293.639V1.6187H294.72V-1.6187ZM289.853 -1.6187H288.771V1.6187H289.853V-1.6187ZM284.985 -1.6187H283.904V1.6187H284.985V-1.6187ZM280.118 -1.6187H279.036V1.6187H280.118V-1.6187ZM275.251 -1.6187H274.169V1.6187H275.251V-1.6187ZM270.383 -1.6187H269.302V1.6187H270.383V-1.6187ZM265.516 -1.6187H264.434V1.6187H265.516V-1.6187ZM260.648 -1.6187H259.567V1.6187H260.648V-1.6187ZM255.781 -1.6187H254.699V1.6187H255.781V-1.6187ZM250.914 -1.6187H249.832V1.6187H250.914V-1.6187ZM246.046 -1.6187H244.965V1.6187H246.046V-1.6187ZM241.179 -1.6187H240.097V1.6187H241.179V-1.6187ZM236.311 -1.6187H235.23V1.6187H236.311V-1.6187ZM231.444 -1.6187H230.362V1.6187H231.444V-1.6187ZM226.577 -1.6187H225.495V1.6187H226.577V-1.6187ZM221.709 -1.6187H220.628V1.6187H221.709V-1.6187ZM216.842 -1.6187H215.76V1.6187H216.842V-1.6187ZM211.974 -1.6187H210.893V1.6187H211.974V-1.6187ZM207.107 -1.6187H206.025V1.6187H207.107V-1.6187ZM202.24 -1.6187H201.158V1.6187H202.24V-1.6187ZM197.372 -1.6187H196.291V1.6187H197.372V-1.6187ZM192.505 -1.6187H191.423V1.6187H192.505V-1.6187ZM187.637 -1.6187H186.556V1.6187H187.637V-1.6187ZM182.77 -1.6187H181.688V1.6187H182.77V-1.6187ZM177.903 -1.6187H176.821V1.6187H177.903V-1.6187ZM173.035 -1.6187H171.954V1.6187H173.035V-1.6187ZM168.168 -1.6187H167.086V1.6187H168.168V-1.6187ZM163.3 -1.6187H162.219V1.6187H163.3V-1.6187ZM158.433 -1.6187H157.351V1.6187H158.433V-1.6187ZM153.566 -1.6187H152.484V1.6187H153.566V-1.6187ZM148.698 -1.6187H147.617V1.6187H148.698V-1.6187ZM143.831 -1.6187H142.749V1.6187H143.831V-1.6187ZM138.963 -1.6187H137.882V1.6187H138.963V-1.6187ZM134.096 -1.6187H133.014V1.6187H134.096V-1.6187ZM129.229 -1.6187H128.147V1.6187H129.229V-1.6187ZM124.361 -1.6187H123.28V1.6187H124.361V-1.6187ZM119.494 -1.6187H118.412V1.6187H119.494V-1.6187ZM114.626 -1.6187H113.545V1.6187H114.626V-1.6187ZM109.759 -1.6187H108.677V1.6187H109.759V-1.6187ZM104.892 -1.6187H103.81V1.6187H104.892V-1.6187ZM100.024 -1.6187H98.9426V1.6187H100.024V-1.6187ZM95.1568 -1.6187H94.0752V1.6187H95.1568V-1.6187ZM90.2894 -1.6187H89.2078V1.6187H90.2894V-1.6187ZM85.422 -1.6187H84.3404V1.6187H85.422V-1.6187ZM80.5546 -1.6187H79.473V1.6187H80.5546V-1.6187ZM75.6872 -1.6187H74.6056V1.6187H75.6872V-1.6187ZM70.8198 -1.6187H69.7382V1.6187H70.8198V-1.6187ZM65.9524 -1.6187H64.8708V1.6187H65.9524V-1.6187ZM61.085 -1.6187H60.0034V1.6187H61.085V-1.6187ZM56.2176 -1.6187H55.136V1.6187H56.2176V-1.6187ZM51.3502 -1.6187H50.2686V1.6187H51.3502V-1.6187ZM46.4828 -1.6187H45.4012V1.6187H46.4828V-1.6187ZM41.6154 -1.6187H40.5338V1.6187H41.6154V-1.6187ZM36.748 -1.6187H35.6664V1.6187H36.748V-1.6187ZM31.8806 -1.6187H30.799V1.6187H31.8806V-1.6187ZM27.0132 -1.6187H25.9316V1.6187H27.0132V-1.6187ZM22.1458 -1.6187H21.0642V1.6187H22.1458V-1.6187ZM17.2784 -1.6187H16.1968V1.6187H17.2784V-1.6187ZM12.411 -1.6187H11.8705V1.6187H12.411V-1.6187ZM11.8705 -1.6187C11.6736 -1.6187 11.4777 -1.61447 11.2827 -1.6061L11.4217 1.62832C11.5704 1.62193 11.72 1.6187 11.8705 1.6187V-1.6187ZM7.25566 -0.808189C6.88504 -0.673259 6.52205 -0.522576 6.1675 -0.356965L7.53762 2.57622C7.8067 2.45053 8.08209 2.33622 8.36316 2.23389L7.25566 -0.808189ZM2.757 1.92541C2.46792 2.19045 2.19044 2.46793 1.92541 2.75701L4.31169 4.9448C4.51346 4.72472 4.72471 4.51347 4.94479 4.3117L2.757 1.92541ZM-0.356967 6.16751C-0.522577 6.52205 -0.67326 6.88505 -0.80819 7.25567L2.23389 8.36317C2.33621 8.08209 2.45052 7.80671 2.57621 7.53763L-0.356967 6.16751ZM-1.6061 11.2827C-1.61447 11.4777 -1.6187 11.6736 -1.6187 11.8705H1.6187C1.6187 11.72 1.62193 11.5704 1.62832 11.4217L-1.6061 11.2827Z" fill="#2D74FE" mask="url(#path-1-inside-1_7144_424)"/>
</svg>
