<svg width="418" height="179" viewBox="0 0 418 179" fill="none" xmlns="http://www.w3.org/2000/svg">
<mask id="path-1-inside-1_7144_424" fill="white">
<path fill-rule="evenodd" clip-rule="evenodd" d="M11.8705 0C5.31459 0 0 5.31462 0 11.8705V155.935C0 162.491 5.3146 167.805 11.8705 167.805H200C200.771 167.805 201.484 168.217 201.869 168.885L207.009 177.787C207.84 179.226 209.917 179.226 210.747 177.787L215.888 168.885C216.273 168.217 216.986 167.805 217.757 167.805H405.755C412.31 167.805 417.625 162.491 417.625 155.935V11.8705C417.625 5.31459 412.31 0 405.755 0H11.8705Z"/>
</mask>
<path fill-rule="evenodd" clip-rule="evenodd" d="M11.8705 0C5.31459 0 0 5.31462 0 11.8705V155.935C0 162.491 5.3146 167.805 11.8705 167.805H200C200.771 167.805 201.484 168.217 201.869 168.885L207.009 177.787C207.84 179.226 209.917 179.226 210.747 177.787L215.888 168.885C216.273 168.217 216.986 167.805 217.757 167.805H405.755C412.31 167.805 417.625 162.491 417.625 155.935V11.8705C417.625 5.31459 412.31 0 405.755 0H11.8705Z" fill="#001341" fill-opacity="0.45"/>
<path d="M215.888 168.885L216.588 169.289L215.888 168.885ZM207.009 177.787L207.71 177.383L207.009 177.787ZM210.747 177.787L210.046 177.383L210.747 177.787ZM201.869 168.885L202.57 168.48L201.869 168.885ZM-0.809351 11.8705V12.4041H0.809351V11.8705H-0.809351ZM-0.809351 16.1391V17.2062H0.809351V16.1391H-0.809351ZM-0.809351 20.9412V22.0084H0.809351V20.9412H-0.809351ZM-0.809351 25.7434V26.8105H0.809351V25.7434H-0.809351ZM-0.809351 30.5455V31.6127H0.809351V30.5455H-0.809351ZM-0.809351 35.3477V36.4148H0.809351V35.3477H-0.809351ZM-0.809351 40.1498V41.217H0.809351V40.1498H-0.809351ZM-0.809351 44.952V46.0191H0.809351V44.952H-0.809351ZM-0.809351 49.7541V50.8212H0.809351V49.7541H-0.809351ZM-0.809351 54.5563V55.6234H0.809351V54.5563H-0.809351ZM-0.809351 59.3584V60.4255H0.809351V59.3584H-0.809351ZM-0.809351 64.1605V65.2277H0.809351V64.1605H-0.809351ZM-0.809351 68.9627V70.0298H0.809351V68.9627H-0.809351ZM-0.809351 73.7648V74.832H0.809351V73.7648H-0.809351ZM-0.809351 78.567V79.6341H0.809351V78.567H-0.809351ZM-0.809351 83.3691V84.4363H0.809351V83.3691H-0.809351ZM-0.809351 88.1713V89.2384H0.809351V88.1713H-0.809351ZM-0.809351 92.9734V94.0406H0.809351V92.9734H-0.809351ZM-0.809351 97.7756V98.8427H0.809351V97.7756H-0.809351ZM-0.809351 102.578V103.645H0.809351V102.578H-0.809351ZM-0.809351 107.38V108.447H0.809351V107.38H-0.809351ZM-0.809351 112.182V113.249H0.809351V112.182H-0.809351ZM-0.809351 116.984V118.051H0.809351V116.984H-0.809351ZM-0.809351 121.786V122.853H0.809351V121.786H-0.809351ZM-0.809351 126.588V127.656H0.809351V126.588H-0.809351ZM-0.809351 131.391V132.458H0.809351V131.391H-0.809351ZM-0.809351 136.193V137.26H0.809351V136.193H-0.809351ZM-0.809351 140.995V142.062H0.809351V140.995H-0.809351ZM-0.809351 145.797V146.864H0.809351V145.797H-0.809351ZM-0.809351 150.599V151.666H0.809351V150.599H-0.809351ZM-0.809351 155.401V155.935H0.809351V155.401H-0.809351ZM-0.809351 155.935C-0.809351 156.12 -0.805373 156.305 -0.797493 156.488L0.819717 156.418C0.812831 156.258 0.809351 156.097 0.809351 155.935H-0.809351ZM-0.0476712 160.273C0.0791082 160.621 0.220698 160.962 0.376328 161.295L1.84292 160.61C1.70725 160.32 1.58385 160.023 1.47337 159.719L-0.0476712 160.273ZM2.52198 164.501C2.7712 164.773 3.03212 165.034 3.30395 165.283L4.39785 164.09C4.16052 163.873 3.93271 163.645 3.71512 163.408L2.52198 164.501ZM6.51004 167.429C6.84321 167.585 7.1843 167.726 7.53254 167.853L8.08629 166.332C7.78283 166.222 7.48554 166.098 7.1951 165.962L6.51004 167.429ZM11.3174 168.603C11.5009 168.611 11.6852 168.615 11.8705 168.615V166.996C11.7084 166.996 11.5472 166.993 11.3869 166.986L11.3174 168.603ZM11.8705 168.615H12.4065V166.996H11.8705V168.615ZM16.1583 168.615H17.2303V166.996H16.1583V168.615ZM20.9822 168.615H22.0541V166.996H20.9822V168.615ZM25.806 168.615H26.878V166.996H25.806V168.615ZM30.6298 168.615H31.7018V166.996H30.6298V168.615ZM35.4537 168.615H36.5256V166.996H35.4537V168.615ZM40.2775 168.615H41.3495V166.996H40.2775V168.615ZM45.1013 168.615H46.1733V166.996H45.1013V168.615ZM49.9252 168.615H50.9971V166.996H49.9252V168.615ZM54.749 168.615H55.821V166.996H54.749V168.615ZM59.5728 168.615H60.6448V166.996H59.5728V168.615ZM64.3967 168.615H65.4686V166.996H64.3967V168.615ZM69.2205 168.615H70.2925V166.996H69.2205V168.615ZM74.0443 168.615H75.1163V166.996H74.0443V168.615ZM78.8682 168.615H79.9401V166.996H78.8682V168.615ZM83.692 168.615H84.764V166.996H83.692V168.615ZM88.5158 168.615H89.5878V166.996H88.5158V168.615ZM93.3397 168.615H94.4116V166.996H93.3397V168.615ZM98.1635 168.615H99.2354V166.996H98.1635V168.615ZM102.987 168.615H104.059V166.996H102.987V168.615ZM107.811 168.615H108.883V166.996H107.811V168.615ZM112.635 168.615H113.707V166.996H112.635V168.615ZM117.459 168.615H118.531V166.996H117.459V168.615ZM122.283 168.615H123.355V166.996H122.283V168.615ZM127.106 168.615H128.178V166.996H127.106V168.615ZM131.93 168.615H133.002V166.996H131.93V168.615ZM136.754 168.615H137.826V166.996H136.754V168.615ZM141.578 168.615H142.65V166.996H141.578V168.615ZM146.402 168.615H147.474V166.996H146.402V168.615ZM151.226 168.615H152.298V166.996H151.226V168.615ZM156.049 168.615H157.121V166.996H156.049V168.615ZM160.873 168.615H161.945V166.996H160.873V168.615ZM165.697 168.615H166.769V166.996H165.697V168.615ZM170.521 168.615H171.593V166.996H170.521V168.615ZM175.345 168.615H176.417V166.996H175.345V168.615ZM180.169 168.615H181.241V166.996H180.169V168.615ZM184.992 168.615H186.064V166.996H184.992V168.615ZM189.816 168.615H190.888V166.996H189.816V168.615ZM194.64 168.615H195.712V166.996H194.64V168.615ZM199.464 168.615H200V166.996H199.464V168.615ZM200 168.615C200.053 168.615 200.105 168.618 200.157 168.624L200.344 167.016C200.231 167.003 200.116 166.996 200 166.996V168.615ZM201.082 169.158C201.113 169.2 201.142 169.243 201.168 169.289L202.57 168.48C202.512 168.38 202.449 168.283 202.38 168.192L201.082 169.158ZM201.168 169.289L201.454 169.784L202.856 168.974L202.57 168.48L201.168 169.289ZM203.453 173.246L204.024 174.235L205.426 173.426L204.854 172.437L203.453 173.246ZM206.023 177.698L206.308 178.192L207.71 177.383L207.425 176.888L206.023 177.698ZM206.308 178.192C206.426 178.395 206.563 178.58 206.716 178.744L207.899 177.639C207.83 177.565 207.766 177.48 207.71 177.383L206.308 178.192ZM211.041 178.744C211.194 178.58 211.331 178.395 211.448 178.192L210.046 177.383C209.99 177.48 209.927 177.565 209.858 177.639L211.041 178.744ZM211.448 178.192L211.734 177.698L210.332 176.888L210.046 177.383L211.448 178.192ZM213.733 174.235L214.304 173.246L212.902 172.437L212.331 173.426L213.733 174.235ZM216.303 169.784L216.588 169.289L215.187 168.48L214.901 168.974L216.303 169.784ZM216.588 169.289C216.615 169.243 216.644 169.2 216.675 169.158L215.376 168.192C215.308 168.283 215.245 168.38 215.187 168.48L216.588 169.289ZM217.6 168.624C217.651 168.618 217.704 168.615 217.757 168.615V166.996C217.641 166.996 217.526 167.003 217.412 167.016L217.6 168.624ZM217.757 168.615H218.292V166.996H217.757V168.615ZM222.042 168.615H223.113V166.996H222.042V168.615ZM226.862 168.615H227.933V166.996H226.862V168.615ZM231.682 168.615H232.754V166.996H231.682V168.615ZM236.503 168.615H237.574V166.996H236.503V168.615ZM241.323 168.615H242.395V166.996H241.323V168.615ZM246.144 168.615H247.215V166.996H246.144V168.615ZM250.964 168.615H252.035V166.996H250.964V168.615ZM255.785 168.615H256.856V166.996H255.785V168.615ZM260.605 168.615H261.676V166.996H260.605V168.615ZM265.426 168.615H266.497V166.996H265.426V168.615ZM270.246 168.615H271.317V166.996H270.246V168.615ZM275.067 168.615H276.138V166.996H275.067V168.615ZM279.887 168.615H280.958V166.996H279.887V168.615ZM284.707 168.615H285.779V166.996H284.707V168.615ZM289.528 168.615H290.599V166.996H289.528V168.615ZM294.348 168.615H295.42V166.996H294.348V168.615ZM299.169 168.615H300.24V166.996H299.169V168.615ZM303.989 168.615H305.061V166.996H303.989V168.615ZM308.81 168.615H309.881V166.996H308.81V168.615ZM313.63 168.615H314.701V166.996H313.63V168.615ZM318.451 168.615H319.522V166.996H318.451V168.615ZM323.271 168.615H324.342V166.996H323.271V168.615ZM328.092 168.615H329.163V166.996H328.092V168.615ZM332.912 168.615H333.983V166.996H332.912V168.615ZM337.732 168.615H338.804V166.996H337.732V168.615ZM342.553 168.615H343.624V166.996H342.553V168.615ZM347.373 168.615H348.445V166.996H347.373V168.615ZM352.194 168.615H353.265V166.996H352.194V168.615ZM357.014 168.615H358.086V166.996H357.014V168.615ZM361.835 168.615H362.906V166.996H361.835V168.615ZM366.655 168.615H367.727V166.996H366.655V168.615ZM371.476 168.615H372.547V166.996H371.476V168.615ZM376.296 168.615H377.367V166.996H376.296V168.615ZM381.117 168.615H382.188V166.996H381.117V168.615ZM385.937 168.615H387.008V166.996H385.937V168.615ZM390.758 168.615H391.829V166.996H390.758V168.615ZM395.578 168.615H396.649V166.996H395.578V168.615ZM400.399 168.615H401.47V166.996H400.399V168.615ZM405.219 168.615H405.755V166.996H405.219V168.615ZM405.755 168.615C405.94 168.615 406.124 168.611 406.308 168.603L406.238 166.986C406.078 166.993 405.917 166.996 405.755 166.996V168.615ZM410.092 167.853C410.441 167.726 410.782 167.585 411.115 167.429L410.43 165.962C410.139 166.098 409.842 166.222 409.539 166.332L410.092 167.853ZM414.321 165.283C414.593 165.034 414.854 164.773 415.103 164.501L413.91 163.408C413.692 163.645 413.464 163.873 413.227 164.09L414.321 165.283ZM417.249 161.295C417.404 160.962 417.546 160.621 417.673 160.273L416.152 159.719C416.041 160.023 415.918 160.32 415.782 160.61L417.249 161.295ZM418.422 156.488C418.43 156.305 418.434 156.12 418.434 155.935H416.816C416.816 156.097 416.812 156.258 416.805 156.418L418.422 156.488ZM418.434 155.935V155.401H416.816V155.935H418.434ZM418.434 151.666V150.599H416.816V151.666H418.434ZM418.434 146.864V145.797H416.816V146.864H418.434ZM418.434 142.062V140.995H416.816V142.062H418.434ZM418.434 137.26V136.193H416.816V137.26H418.434ZM418.434 132.458V131.391H416.816V132.458H418.434ZM418.434 127.656V126.588H416.816V127.656H418.434ZM418.434 122.853V121.786H416.816V122.853H418.434ZM418.434 118.051V116.984H416.816V118.051H418.434ZM418.434 113.249V112.182H416.816V113.249H418.434ZM418.434 108.447V107.38H416.816V108.447H418.434ZM418.434 103.645V102.578H416.816V103.645H418.434ZM418.434 98.8427V97.7756H416.816V98.8427H418.434ZM418.434 94.0406V92.9734H416.816V94.0406H418.434ZM418.434 89.2384V88.1713H416.816V89.2384H418.434ZM418.434 84.4363V83.3691H416.816V84.4363H418.434ZM418.434 79.6341V78.567H416.816V79.6341H418.434ZM418.434 74.832V73.7648H416.816V74.832H418.434ZM418.434 70.0298V68.9627H416.816V70.0298H418.434ZM418.434 65.2277V64.1605H416.816V65.2277H418.434ZM418.434 60.4255V59.3584H416.816V60.4255H418.434ZM418.434 55.6234V54.5562H416.816V55.6234H418.434ZM418.434 50.8212V49.7541H416.816V50.8212H418.434ZM418.434 46.0191V44.9519H416.816V46.0191H418.434ZM418.434 41.2169V40.1498H416.816V41.2169H418.434ZM418.434 36.4148V35.3476H416.816V36.4148H418.434ZM418.434 31.6126V30.5455H416.816V31.6126H418.434ZM418.434 26.8105V25.7434H416.816V26.8105H418.434ZM418.434 22.0084V20.9412H416.816V22.0084H418.434ZM418.434 17.2062V16.1391H416.816V17.2062H418.434ZM418.434 12.4041V11.8705H416.816V12.4041H418.434ZM418.434 11.8705C418.434 11.6852 418.43 11.5009 418.422 11.3174L416.805 11.3869C416.812 11.5472 416.816 11.7084 416.816 11.8705H418.434ZM417.673 7.53254C417.546 7.1843 417.404 6.84321 417.249 6.51003L415.782 7.19509C415.918 7.48554 416.041 7.78282 416.152 8.08629L417.673 7.53254ZM415.103 3.30395C414.854 3.03212 414.593 2.7712 414.321 2.52198L413.227 3.71512C413.464 3.93271 413.692 4.16052 413.91 4.39784L415.103 3.30395ZM411.115 0.376328C410.782 0.220698 410.441 0.0791081 410.092 -0.0476712L409.539 1.47337C409.842 1.58385 410.139 1.70725 410.43 1.84292L411.115 0.376328ZM406.308 -0.797493C406.124 -0.805373 405.94 -0.809351 405.755 -0.809351V0.809351C405.917 0.809351 406.078 0.812831 406.238 0.819717L406.308 -0.797493ZM405.755 -0.809351H405.214V0.809351H405.755V-0.809351ZM401.432 -0.809351H400.351V0.809351H401.432V-0.809351ZM396.569 -0.809351H395.489V0.809351H396.569V-0.809351ZM391.707 -0.809351H390.626V0.809351H391.707V-0.809351ZM386.844 -0.809351H385.763V0.809351H386.844V-0.809351ZM381.981 -0.809351H380.9V0.809351H381.981V-0.809351ZM377.118 -0.809351H376.038V0.809351H377.118V-0.809351ZM372.255 -0.809351H371.175V0.809351H372.255V-0.809351ZM367.393 -0.809351H366.312V0.809351H367.393V-0.809351ZM362.53 -0.809351H361.449V0.809351H362.53V-0.809351ZM357.667 -0.809351H356.587V0.809351H357.667V-0.809351ZM352.804 -0.809351H351.724V0.809351H352.804V-0.809351ZM347.942 -0.809351H346.861V0.809351H347.942V-0.809351ZM343.079 -0.809351H341.998V0.809351H343.079V-0.809351ZM338.216 -0.809351H337.135V0.809351H338.216V-0.809351ZM333.353 -0.809351H332.273V0.809351H333.353V-0.809351ZM328.491 -0.809351H327.41V0.809351H328.491V-0.809351ZM323.628 -0.809351H322.547V0.809351H323.628V-0.809351ZM318.765 -0.809351H317.684V0.809351H318.765V-0.809351ZM313.902 -0.809351H312.822V0.809351H313.902V-0.809351ZM309.04 -0.809351H307.959V0.809351H309.04V-0.809351ZM304.177 -0.809351H303.096V0.809351H304.177V-0.809351ZM299.314 -0.809351H298.233V0.809351H299.314V-0.809351ZM294.451 -0.809351H293.371V0.809351H294.451V-0.809351ZM289.588 -0.809351H288.508V0.809351H289.588V-0.809351ZM284.726 -0.809351H283.645V0.809351H284.726V-0.809351ZM279.863 -0.809351H278.782V0.809351H279.863V-0.809351ZM275 -0.809351H273.92V0.809351H275V-0.809351ZM270.137 -0.809351H269.057V0.809351H270.137V-0.809351ZM265.275 -0.809351H264.194V0.809351H265.275V-0.809351ZM260.412 -0.809351H259.331V0.809351H260.412V-0.809351ZM255.549 -0.809351H254.469V0.809351H255.549V-0.809351ZM250.686 -0.809351H249.606V0.809351H250.686V-0.809351ZM245.824 -0.809351H244.743V0.809351H245.824V-0.809351ZM240.961 -0.809351H239.88V0.809351H240.961V-0.809351ZM236.098 -0.809351H235.017V0.809351H236.098V-0.809351ZM231.235 -0.809351H230.155V0.809351H231.235V-0.809351ZM226.373 -0.809351H225.292V0.809351H226.373V-0.809351ZM221.51 -0.809351H220.429V0.809351H221.51V-0.809351ZM216.647 -0.809351H215.566V0.809351H216.647V-0.809351ZM211.784 -0.809351H210.704V0.809351H211.784V-0.809351ZM206.922 -0.809351H205.841V0.809351H206.922V-0.809351ZM202.059 -0.809351H200.978V0.809351H202.059V-0.809351ZM197.196 -0.809351H196.115V0.809351H197.196V-0.809351ZM192.333 -0.809351H191.253V0.809351H192.333V-0.809351ZM187.47 -0.809351H186.39V0.809351H187.47V-0.809351ZM182.608 -0.809351H181.527V0.809351H182.608V-0.809351ZM177.745 -0.809351H176.664V0.809351H177.745V-0.809351ZM172.882 -0.809351H171.802V0.809351H172.882V-0.809351ZM168.019 -0.809351H166.939V0.809351H168.019V-0.809351ZM163.157 -0.809351H162.076V0.809351H163.157V-0.809351ZM158.294 -0.809351H157.213V0.809351H158.294V-0.809351ZM153.431 -0.809351H152.351V0.809351H153.431V-0.809351ZM148.568 -0.809351H147.488V0.809351H148.568V-0.809351ZM143.706 -0.809351H142.625V0.809351H143.706V-0.809351ZM138.843 -0.809351H137.762V0.809351H138.843V-0.809351ZM133.98 -0.809351H132.899V0.809351H133.98V-0.809351ZM129.117 -0.809351H128.037V0.809351H129.117V-0.809351ZM124.254 -0.809351H123.174V0.809351H124.254V-0.809351ZM119.392 -0.809351H118.311V0.809351H119.392V-0.809351ZM114.529 -0.809351H113.448V0.809351H114.529V-0.809351ZM109.666 -0.809351H108.585V0.809351H109.666V-0.809351ZM104.803 -0.809351H103.723V0.809351H104.803V-0.809351ZM99.9404 -0.809351H98.8598V0.809351H99.9404V-0.809351ZM95.0776 -0.809351H93.997V0.809351H95.0776V-0.809351ZM90.2148 -0.809351H89.1342V0.809351H90.2148V-0.809351ZM85.352 -0.809351H84.2714V0.809351H85.352V-0.809351ZM80.4893 -0.809351H79.4086V0.809351H80.4893V-0.809351ZM75.6265 -0.809351H74.5458V0.809351H75.6265V-0.809351ZM70.7637 -0.809351H69.683V0.809351H70.7637V-0.809351ZM65.9009 -0.809351H64.8202V0.809351H65.9009V-0.809351ZM61.0381 -0.809351H59.9574V0.809351H61.0381V-0.809351ZM56.1753 -0.809351H55.0947V0.809351H56.1753V-0.809351ZM51.3125 -0.809351H50.2319V0.809351H51.3125V-0.809351ZM46.4497 -0.809351H45.3691V0.809351H46.4497V-0.809351ZM41.5869 -0.809351H40.5063V0.809351H41.5869V-0.809351ZM36.7241 -0.809351H35.6435V0.809351H36.7241V-0.809351ZM31.8613 -0.809351H30.7807V0.809351H31.8613V-0.809351ZM26.9985 -0.809351H25.9179V0.809351H26.9985V-0.809351ZM22.1357 -0.809351H21.0551V0.809351H22.1357V-0.809351ZM17.2729 -0.809351H16.1923V0.809351H17.2729V-0.809351ZM12.4102 -0.809351H11.8705V0.809351H12.4102V-0.809351ZM11.8705 -0.809351C11.6852 -0.809351 11.5009 -0.805373 11.3174 -0.797493L11.3869 0.819717C11.5472 0.812831 11.7084 0.809351 11.8705 0.809351V-0.809351ZM7.53254 -0.0476671C7.1843 0.0791129 6.84321 0.220703 6.51003 0.376334L7.19509 1.84292C7.48554 1.70725 7.78282 1.58385 8.08629 1.47337L7.53254 -0.0476671ZM3.30395 2.52199C3.03212 2.77121 2.77119 3.03213 2.52198 3.30397L3.71512 4.39786C3.93271 4.16053 4.16052 3.93272 4.39784 3.71513L3.30395 2.52199ZM0.376328 6.51005C0.220698 6.84323 0.0791086 7.18432 -0.0476707 7.53256L1.47337 8.08631C1.58385 7.78284 1.70725 7.48556 1.84292 7.19511L0.376328 6.51005ZM-0.797493 11.3175C-0.805373 11.5009 -0.809351 11.6852 -0.809351 11.8705H0.809351C0.809351 11.7084 0.812831 11.5472 0.819717 11.3869L-0.797493 11.3175ZM215.888 168.885L217.289 169.694L215.888 168.885ZM207.009 177.787L208.411 176.978L207.009 177.787ZM210.747 177.787L209.346 176.978L210.747 177.787ZM201.869 168.885L203.271 168.075L201.869 168.885ZM-1.6187 11.8705V12.4041H1.6187V11.8705H-1.6187ZM-1.6187 16.1391V17.2062H1.6187V16.1391H-1.6187ZM-1.6187 20.9412V22.0084H1.6187V20.9412H-1.6187ZM-1.6187 25.7434V26.8105H1.6187V25.7434H-1.6187ZM-1.6187 30.5455V31.6127H1.6187V30.5455H-1.6187ZM-1.6187 35.3477V36.4148H1.6187V35.3477H-1.6187ZM-1.6187 40.1498V41.217H1.6187V40.1498H-1.6187ZM-1.6187 44.952V46.0191H1.6187V44.952H-1.6187ZM-1.6187 49.7541V50.8212H1.6187V49.7541H-1.6187ZM-1.6187 54.5563V55.6234H1.6187V54.5563H-1.6187ZM-1.6187 59.3584V60.4255H1.6187V59.3584H-1.6187ZM-1.6187 64.1605V65.2277H1.6187V64.1605H-1.6187ZM-1.6187 68.9627V70.0298H1.6187V68.9627H-1.6187ZM-1.6187 73.7648V74.832H1.6187V73.7648H-1.6187ZM-1.6187 78.567V79.6341H1.6187V78.567H-1.6187ZM-1.6187 83.3691V84.4363H1.6187V83.3691H-1.6187ZM-1.6187 88.1713V89.2384H1.6187V88.1713H-1.6187ZM-1.6187 92.9734V94.0406H1.6187V92.9734H-1.6187ZM-1.6187 97.7756V98.8427H1.6187V97.7756H-1.6187ZM-1.6187 102.578V103.645H1.6187V102.578H-1.6187ZM-1.6187 107.38V108.447H1.6187V107.38H-1.6187ZM-1.6187 112.182V113.249H1.6187V112.182H-1.6187ZM-1.6187 116.984V118.051H1.6187V116.984H-1.6187ZM-1.6187 121.786V122.853H1.6187V121.786H-1.6187ZM-1.6187 126.588V127.656H1.6187V126.588H-1.6187ZM-1.6187 131.391V132.458H1.6187V131.391H-1.6187ZM-1.6187 136.193V137.26H1.6187V136.193H-1.6187ZM-1.6187 140.995V142.062H1.6187V140.995H-1.6187ZM-1.6187 145.797V146.864H1.6187V145.797H-1.6187ZM-1.6187 150.599V151.666H1.6187V150.599H-1.6187ZM-1.6187 155.401V155.935H1.6187V155.401H-1.6187ZM-1.6187 155.935C-1.6187 156.132 -1.61447 156.328 -1.6061 156.523L1.62832 156.384C1.62193 156.235 1.6187 156.085 1.6187 155.935H-1.6187ZM-0.80819 160.55C-0.673261 160.92 -0.522577 161.283 -0.356967 161.638L2.57621 160.268C2.45052 159.999 2.33621 159.723 2.23389 159.442L-0.80819 160.55ZM1.92541 165.048C2.19044 165.337 2.46792 165.615 2.75701 165.88L4.94479 163.494C4.72472 163.292 4.51346 163.081 4.31169 162.861L1.92541 165.048ZM6.16751 168.162C6.52205 168.328 6.88504 168.479 7.25567 168.614L8.36316 165.572C8.08209 165.469 7.80671 165.355 7.53763 165.229L6.16751 168.162ZM11.2827 169.411C11.4777 169.42 11.6736 169.424 11.8705 169.424V166.187C11.72 166.187 11.5704 166.183 11.4217 166.177L11.2827 169.411ZM11.8705 169.424H12.4065V166.187H11.8705V169.424ZM16.1583 169.424H17.2303V166.187H16.1583V169.424ZM20.9822 169.424H22.0541V166.187H20.9822V169.424ZM25.806 169.424H26.878V166.187H25.806V169.424ZM30.6298 169.424H31.7018V166.187H30.6298V169.424ZM35.4537 169.424H36.5256V166.187H35.4537V169.424ZM40.2775 169.424H41.3495V166.187H40.2775V169.424ZM45.1013 169.424H46.1733V166.187H45.1013V169.424ZM49.9252 169.424H50.9971V166.187H49.9252V169.424ZM54.749 169.424H55.821V166.187H54.749V169.424ZM59.5728 169.424H60.6448V166.187H59.5728V169.424ZM64.3967 169.424H65.4686V166.187H64.3967V169.424ZM69.2205 169.424H70.2925V166.187H69.2205V169.424ZM74.0443 169.424H75.1163V166.187H74.0443V169.424ZM78.8682 169.424H79.9401V166.187H78.8682V169.424ZM83.692 169.424H84.764V166.187H83.692V169.424ZM88.5158 169.424H89.5878V166.187H88.5158V169.424ZM93.3397 169.424H94.4116V166.187H93.3397V169.424ZM98.1635 169.424H99.2354V166.187H98.1635V169.424ZM102.987 169.424H104.059V166.187H102.987V169.424ZM107.811 169.424H108.883V166.187H107.811V169.424ZM112.635 169.424H113.707V166.187H112.635V169.424ZM117.459 169.424H118.531V166.187H117.459V169.424ZM122.283 169.424H123.355V166.187H122.283V169.424ZM127.106 169.424H128.178V166.187H127.106V169.424ZM131.93 169.424H133.002V166.187H131.93V169.424ZM136.754 169.424H137.826V166.187H136.754V169.424ZM141.578 169.424H142.65V166.187H141.578V169.424ZM146.402 169.424H147.474V166.187H146.402V169.424ZM151.226 169.424H152.298V166.187H151.226V169.424ZM156.049 169.424H157.121V166.187H156.049V169.424ZM160.873 169.424H161.945V166.187H160.873V169.424ZM165.697 169.424H166.769V166.187H165.697V169.424ZM170.521 169.424H171.593V166.187H170.521V169.424ZM175.345 169.424H176.417V166.187H175.345V169.424ZM180.169 169.424H181.241V166.187H180.169V169.424ZM184.992 169.424H186.064V166.187H184.992V169.424ZM189.816 169.424H190.888V166.187H189.816V169.424ZM194.64 169.424H195.712V166.187H194.64V169.424ZM199.464 169.424H200V166.187H199.464V169.424ZM200 169.424C200.021 169.424 200.042 169.425 200.063 169.428L200.438 166.212C200.294 166.195 200.147 166.187 200 166.187V169.424ZM200.433 169.641C200.445 169.658 200.457 169.675 200.467 169.694L203.271 168.075C203.197 167.948 203.117 167.825 203.03 167.708L200.433 169.641ZM200.467 169.694L200.753 170.188L203.556 168.57L203.271 168.075L200.467 169.694ZM202.752 173.651L203.323 174.64L206.127 173.021L205.555 172.032L202.752 173.651ZM205.322 178.102L205.607 178.597L208.411 176.978L208.125 176.484L205.322 178.102ZM205.607 178.597C205.755 178.853 205.929 179.087 206.125 179.296L208.49 177.086C208.463 177.057 208.436 177.022 208.411 176.978L205.607 178.597ZM211.632 179.296C211.827 179.087 212.001 178.853 212.149 178.597L209.346 176.978C209.32 177.022 209.293 177.057 209.267 177.086L211.632 179.296ZM212.149 178.597L212.435 178.102L209.631 176.484L209.346 176.978L212.149 178.597ZM214.434 174.64L215.005 173.651L212.201 172.032L211.63 173.021L214.434 174.64ZM217.004 170.188L217.289 169.694L214.486 168.075L214.2 168.57L217.004 170.188ZM217.289 169.694C217.3 169.675 217.312 169.658 217.324 169.641L214.727 167.708C214.64 167.825 214.559 167.948 214.486 168.075L217.289 169.694ZM217.694 169.428C217.714 169.425 217.735 169.424 217.757 169.424V166.187C217.609 166.187 217.463 166.195 217.318 166.212L217.694 169.428ZM217.757 169.424H218.292V166.187H217.757V169.424ZM222.042 169.424H223.113V166.187H222.042V169.424ZM226.862 169.424H227.933V166.187H226.862V169.424ZM231.682 169.424H232.754V166.187H231.682V169.424ZM236.503 169.424H237.574V166.187H236.503V169.424ZM241.323 169.424H242.395V166.187H241.323V169.424ZM246.144 169.424H247.215V166.187H246.144V169.424ZM250.964 169.424H252.035V166.187H250.964V169.424ZM255.785 169.424H256.856V166.187H255.785V169.424ZM260.605 169.424H261.676V166.187H260.605V169.424ZM265.426 169.424H266.497V166.187H265.426V169.424ZM270.246 169.424H271.317V166.187H270.246V169.424ZM275.067 169.424H276.138V166.187H275.067V169.424ZM279.887 169.424H280.958V166.187H279.887V169.424ZM284.707 169.424H285.779V166.187H284.707V169.424ZM289.528 169.424H290.599V166.187H289.528V169.424ZM294.348 169.424H295.42V166.187H294.348V169.424ZM299.169 169.424H300.24V166.187H299.169V169.424ZM303.989 169.424H305.061V166.187H303.989V169.424ZM308.81 169.424H309.881V166.187H308.81V169.424ZM313.63 169.424H314.701V166.187H313.63V169.424ZM318.451 169.424H319.522V166.187H318.451V169.424ZM323.271 169.424H324.342V166.187H323.271V169.424ZM328.092 169.424H329.163V166.187H328.092V169.424ZM332.912 169.424H333.983V166.187H332.912V169.424ZM337.732 169.424H338.804V166.187H337.732V169.424ZM342.553 169.424H343.624V166.187H342.553V169.424ZM347.373 169.424H348.445V166.187H347.373V169.424ZM352.194 169.424H353.265V166.187H352.194V169.424ZM357.014 169.424H358.086V166.187H357.014V169.424ZM361.835 169.424H362.906V166.187H361.835V169.424ZM366.655 169.424H367.727V166.187H366.655V169.424ZM371.476 169.424H372.547V166.187H371.476V169.424ZM376.296 169.424H377.367V166.187H376.296V169.424ZM381.117 169.424H382.188V166.187H381.117V169.424ZM385.937 169.424H387.008V166.187H385.937V169.424ZM390.758 169.424H391.829V166.187H390.758V169.424ZM395.578 169.424H396.649V166.187H395.578V169.424ZM400.399 169.424H401.47V166.187H400.399V169.424ZM405.219 169.424H405.755V166.187H405.219V169.424ZM405.755 169.424C405.951 169.424 406.147 169.42 406.342 169.411L406.203 166.177C406.055 166.183 405.905 166.187 405.755 166.187V169.424ZM410.369 168.614C410.74 168.479 411.103 168.328 411.457 168.162L410.087 165.229C409.818 165.355 409.543 165.469 409.262 165.572L410.369 168.614ZM414.868 165.88C415.157 165.615 415.435 165.337 415.7 165.048L413.313 162.861C413.112 163.081 412.9 163.292 412.68 163.494L414.868 165.88ZM417.982 161.638C418.148 161.283 418.298 160.92 418.433 160.55L415.391 159.442C415.289 159.723 415.174 159.999 415.049 160.268L417.982 161.638ZM419.231 156.523C419.239 156.328 419.244 156.132 419.244 155.935H416.006C416.006 156.085 416.003 156.235 415.997 156.384L419.231 156.523ZM419.244 155.935V155.401H416.006V155.935H419.244ZM419.244 151.666V150.599H416.006V151.666H419.244ZM419.244 146.864V145.797H416.006V146.864H419.244ZM419.244 142.062V140.995H416.006V142.062H419.244ZM419.244 137.26V136.193H416.006V137.26H419.244ZM419.244 132.458V131.391H416.006V132.458H419.244ZM419.244 127.656V126.588H416.006V127.656H419.244ZM419.244 122.853V121.786H416.006V122.853H419.244ZM419.244 118.051V116.984H416.006V118.051H419.244ZM419.244 113.249V112.182H416.006V113.249H419.244ZM419.244 108.447V107.38H416.006V108.447H419.244ZM419.244 103.645V102.578H416.006V103.645H419.244ZM419.244 98.8427V97.7756H416.006V98.8427H419.244ZM419.244 94.0406V92.9734H416.006V94.0406H419.244ZM419.244 89.2384V88.1713H416.006V89.2384H419.244ZM419.244 84.4363V83.3691H416.006V84.4363H419.244ZM419.244 79.6341V78.567H416.006V79.6341H419.244ZM419.244 74.832V73.7648H416.006V74.832H419.244ZM419.244 70.0298V68.9627H416.006V70.0298H419.244ZM419.244 65.2277V64.1605H416.006V65.2277H419.244ZM419.244 60.4255V59.3584H416.006V60.4255H419.244ZM419.244 55.6234V54.5562H416.006V55.6234H419.244ZM419.244 50.8212V49.7541H416.006V50.8212H419.244ZM419.244 46.0191V44.9519H416.006V46.0191H419.244ZM419.244 41.2169V40.1498H416.006V41.2169H419.244ZM419.244 36.4148V35.3476H416.006V36.4148H419.244ZM419.244 31.6126V30.5455H416.006V31.6126H419.244ZM419.244 26.8105V25.7434H416.006V26.8105H419.244ZM419.244 22.0084V20.9412H416.006V22.0084H419.244ZM419.244 17.2062V16.1391H416.006V17.2062H419.244ZM419.244 12.4041V11.8705H416.006V12.4041H419.244ZM419.244 11.8705C419.244 11.6736 419.239 11.4777 419.231 11.2827L415.997 11.4217C416.003 11.5704 416.006 11.72 416.006 11.8705H419.244ZM418.433 7.25566C418.298 6.88504 418.148 6.52204 417.982 6.1675L415.049 7.53762C415.174 7.8067 415.289 8.08209 415.391 8.36316L418.433 7.25566ZM415.7 2.757C415.435 2.46792 415.157 2.19044 414.868 1.9254L412.68 4.31169C412.9 4.51346 413.112 4.72471 413.313 4.94479L415.7 2.757ZM411.457 -0.356967C411.103 -0.522578 410.74 -0.673261 410.369 -0.80819L409.262 2.23389C409.543 2.33621 409.818 2.45052 410.087 2.57621L411.457 -0.356967ZM406.342 -1.6061C406.147 -1.61447 405.951 -1.6187 405.755 -1.6187V1.6187C405.905 1.6187 406.055 1.62193 406.203 1.62832L406.342 -1.6061ZM405.755 -1.6187H405.214V1.6187H405.755V-1.6187ZM401.432 -1.6187H400.351V1.6187H401.432V-1.6187ZM396.569 -1.6187H395.489V1.6187H396.569V-1.6187ZM391.707 -1.6187H390.626V1.6187H391.707V-1.6187ZM386.844 -1.6187H385.763V1.6187H386.844V-1.6187ZM381.981 -1.6187H380.9V1.6187H381.981V-1.6187ZM377.118 -1.6187H376.038V1.6187H377.118V-1.6187ZM372.255 -1.6187H371.175V1.6187H372.255V-1.6187ZM367.393 -1.6187H366.312V1.6187H367.393V-1.6187ZM362.53 -1.6187H361.449V1.6187H362.53V-1.6187ZM357.667 -1.6187H356.587V1.6187H357.667V-1.6187ZM352.804 -1.6187H351.724V1.6187H352.804V-1.6187ZM347.942 -1.6187H346.861V1.6187H347.942V-1.6187ZM343.079 -1.6187H341.998V1.6187H343.079V-1.6187ZM338.216 -1.6187H337.135V1.6187H338.216V-1.6187ZM333.353 -1.6187H332.273V1.6187H333.353V-1.6187ZM328.491 -1.6187H327.41V1.6187H328.491V-1.6187ZM323.628 -1.6187H322.547V1.6187H323.628V-1.6187ZM318.765 -1.6187H317.684V1.6187H318.765V-1.6187ZM313.902 -1.6187H312.822V1.6187H313.902V-1.6187ZM309.04 -1.6187H307.959V1.6187H309.04V-1.6187ZM304.177 -1.6187H303.096V1.6187H304.177V-1.6187ZM299.314 -1.6187H298.233V1.6187H299.314V-1.6187ZM294.451 -1.6187H293.371V1.6187H294.451V-1.6187ZM289.588 -1.6187H288.508V1.6187H289.588V-1.6187ZM284.726 -1.6187H283.645V1.6187H284.726V-1.6187ZM279.863 -1.6187H278.782V1.6187H279.863V-1.6187ZM275 -1.6187H273.92V1.6187H275V-1.6187ZM270.137 -1.6187H269.057V1.6187H270.137V-1.6187ZM265.275 -1.6187H264.194V1.6187H265.275V-1.6187ZM260.412 -1.6187H259.331V1.6187H260.412V-1.6187ZM255.549 -1.6187H254.469V1.6187H255.549V-1.6187ZM250.686 -1.6187H249.606V1.6187H250.686V-1.6187ZM245.824 -1.6187H244.743V1.6187H245.824V-1.6187ZM240.961 -1.6187H239.88V1.6187H240.961V-1.6187ZM236.098 -1.6187H235.017V1.6187H236.098V-1.6187ZM231.235 -1.6187H230.155V1.6187H231.235V-1.6187ZM226.373 -1.6187H225.292V1.6187H226.373V-1.6187ZM221.51 -1.6187H220.429V1.6187H221.51V-1.6187ZM216.647 -1.6187H215.566V1.6187H216.647V-1.6187ZM211.784 -1.6187H210.704V1.6187H211.784V-1.6187ZM206.922 -1.6187H205.841V1.6187H206.922V-1.6187ZM202.059 -1.6187H200.978V1.6187H202.059V-1.6187ZM197.196 -1.6187H196.115V1.6187H197.196V-1.6187ZM192.333 -1.6187H191.253V1.6187H192.333V-1.6187ZM187.47 -1.6187H186.39V1.6187H187.47V-1.6187ZM182.608 -1.6187H181.527V1.6187H182.608V-1.6187ZM177.745 -1.6187H176.664V1.6187H177.745V-1.6187ZM172.882 -1.6187H171.802V1.6187H172.882V-1.6187ZM168.019 -1.6187H166.939V1.6187H168.019V-1.6187ZM163.157 -1.6187H162.076V1.6187H163.157V-1.6187ZM158.294 -1.6187H157.213V1.6187H158.294V-1.6187ZM153.431 -1.6187H152.351V1.6187H153.431V-1.6187ZM148.568 -1.6187H147.488V1.6187H148.568V-1.6187ZM143.706 -1.6187H142.625V1.6187H143.706V-1.6187ZM138.843 -1.6187H137.762V1.6187H138.843V-1.6187ZM133.98 -1.6187H132.899V1.6187H133.98V-1.6187ZM129.117 -1.6187H128.037V1.6187H129.117V-1.6187ZM124.254 -1.6187H123.174V1.6187H124.254V-1.6187ZM119.392 -1.6187H118.311V1.6187H119.392V-1.6187ZM114.529 -1.6187H113.448V1.6187H114.529V-1.6187ZM109.666 -1.6187H108.585V1.6187H109.666V-1.6187ZM104.803 -1.6187H103.723V1.6187H104.803V-1.6187ZM99.9404 -1.6187H98.8598V1.6187H99.9404V-1.6187ZM95.0776 -1.6187H93.997V1.6187H95.0776V-1.6187ZM90.2148 -1.6187H89.1342V1.6187H90.2148V-1.6187ZM85.352 -1.6187H84.2714V1.6187H85.352V-1.6187ZM80.4893 -1.6187H79.4086V1.6187H80.4893V-1.6187ZM75.6265 -1.6187H74.5458V1.6187H75.6265V-1.6187ZM70.7637 -1.6187H69.683V1.6187H70.7637V-1.6187ZM65.9009 -1.6187H64.8202V1.6187H65.9009V-1.6187ZM61.0381 -1.6187H59.9574V1.6187H61.0381V-1.6187ZM56.1753 -1.6187H55.0947V1.6187H56.1753V-1.6187ZM51.3125 -1.6187H50.2319V1.6187H51.3125V-1.6187ZM46.4497 -1.6187H45.3691V1.6187H46.4497V-1.6187ZM41.5869 -1.6187H40.5063V1.6187H41.5869V-1.6187ZM36.7241 -1.6187H35.6435V1.6187H36.7241V-1.6187ZM31.8613 -1.6187H30.7807V1.6187H31.8613V-1.6187ZM26.9985 -1.6187H25.9179V1.6187H26.9985V-1.6187ZM22.1357 -1.6187H21.0551V1.6187H22.1357V-1.6187ZM17.2729 -1.6187H16.1923V1.6187H17.2729V-1.6187ZM12.4102 -1.6187H11.8705V1.6187H12.4102V-1.6187ZM11.8705 -1.6187C11.6736 -1.6187 11.4777 -1.61447 11.2827 -1.6061L11.4217 1.62832C11.5704 1.62193 11.72 1.6187 11.8705 1.6187V-1.6187ZM7.25566 -0.808186C6.88503 -0.673255 6.52204 -0.522572 6.1675 -0.356961L7.53762 2.57622C7.8067 2.45053 8.08209 2.33622 8.36316 2.23389L7.25566 -0.808186ZM2.757 1.92542C2.46792 2.19046 2.19044 2.46794 1.9254 2.75702L4.31169 4.9448C4.51346 4.72473 4.72471 4.51347 4.94479 4.3117L2.757 1.92542ZM-0.356967 6.16752C-0.522577 6.52207 -0.67326 6.88506 -0.80819 7.25568L2.23389 8.36318C2.33622 8.0821 2.45052 7.80672 2.57622 7.53764L-0.356967 6.16752ZM-1.6061 11.2827C-1.61447 11.4777 -1.6187 11.6737 -1.6187 11.8705H1.6187C1.6187 11.72 1.62193 11.5704 1.62832 11.4217L-1.6061 11.2827Z" fill="#2D74FE" mask="url(#path-1-inside-1_7144_424)"/>
</svg>
