<svg width="332" height="107" viewBox="0 0 332 107" fill="none" xmlns="http://www.w3.org/2000/svg">
<g filter="url(#filter0_b_7123_219)">
<mask id="path-1-inside-1_7123_219" fill="white">
<path fill-rule="evenodd" clip-rule="evenodd" d="M151.268 0C152.697 0 154.018 0.762397 154.732 2L162.526 15.5C164.066 18.1667 167.915 18.1667 169.454 15.5L177.249 2C177.963 0.762396 179.284 0 180.713 0H314C323.941 0 332 8.05888 332 18V89C332 98.9411 323.941 107 314 107H18C8.05887 107 0 98.9411 0 89V68.8094C0 67.3803 0.762394 66.0598 2 65.3453L16.5 56.9737C19.1667 55.4341 19.1667 51.5851 16.5 50.0455L2 41.6739C0.762396 40.9594 0 39.6389 0 38.2098V18C0 8.05887 8.05888 0 18 0H151.268Z"/>
</mask>
<path fill-rule="evenodd" clip-rule="evenodd" d="M151.268 0C152.697 0 154.018 0.762397 154.732 2L162.526 15.5C164.066 18.1667 167.915 18.1667 169.454 15.5L177.249 2C177.963 0.762396 179.284 0 180.713 0H314C323.941 0 332 8.05888 332 18V89C332 98.9411 323.941 107 314 107H18C8.05887 107 0 98.9411 0 89V68.8094C0 67.3803 0.762394 66.0598 2 65.3453L16.5 56.9737C19.1667 55.4341 19.1667 51.5851 16.5 50.0455L2 41.6739C0.762396 40.9594 0 39.6389 0 38.2098V18C0 8.05887 8.05888 0 18 0H151.268Z" fill="#001341" fill-opacity="0.65"/>
<path d="M2 65.3453L2.5 66.2113L2 65.3453ZM177.249 2L176.383 1.5L177.249 2ZM154.732 2L155.598 1.5L154.732 2ZM16.5 50.0455L17 49.1795L16.5 50.0455ZM2 41.6739L2.5 40.8079L2 41.6739ZM162.526 15.5L163.392 15L162.526 15.5ZM169.454 15.5L168.588 15L169.454 15.5ZM163.392 15L155.598 1.5L153.866 2.5L161.66 16L163.392 15ZM176.383 1.5L168.588 15L170.321 16L178.115 2.5L176.383 1.5ZM314 -1H180.713V1H314V-1ZM333 18C333 7.50659 324.493 -1 314 -1V1C323.389 1 331 8.61116 331 18H333ZM333 89V18H331V89H333ZM314 108C324.493 108 333 99.4934 333 89H331C331 98.3888 323.389 106 314 106V108ZM18 108H314V106H18V108ZM-1 89C-1 99.4934 7.50659 108 18 108V106C8.61116 106 1 98.3888 1 89H-1ZM-1 68.8094V89H1V68.8094H-1ZM16 56.1077L1.5 64.4793L2.5 66.2113L17 57.8397L16 56.1077ZM1.5 42.54L16 50.9115L17 49.1795L2.5 40.8079L1.5 42.54ZM-1 18V38.2098H1V18H-1ZM18 -1C7.50659 -1 -1 7.50659 -1 18H1C1 8.61116 8.61116 1 18 1V-1ZM151.268 -1H18V1H151.268V-1ZM1 68.8094C1 67.7376 1.5718 66.7472 2.5 66.2113L1.5 64.4793C-0.0470074 65.3724 -1 67.0231 -1 68.8094H1ZM178.115 2.5C178.651 1.5718 179.641 1 180.713 1V-1C178.926 -1 177.276 -0.0470054 176.383 1.5L178.115 2.5ZM155.598 1.5C154.705 -0.0470032 153.054 -1 151.268 -1V1C152.34 1 153.33 1.5718 153.866 2.5L155.598 1.5ZM17 57.8397C20.3333 55.9152 20.3333 51.104 17 49.1795L16 50.9115C18 52.0662 18 54.953 16 56.1077L17 57.8397ZM2.5 40.8079C1.5718 40.272 1 39.2816 1 38.2098H-1C-1 39.9962 -0.0470055 41.6468 1.5 42.54L2.5 40.8079ZM161.66 16C163.585 19.3333 168.396 19.3333 170.321 16L168.588 15C167.434 17 164.547 17 163.392 15L161.66 16Z" fill="#2D74FE" mask="url(#path-1-inside-1_7123_219)"/>
</g>
<defs>
<filter id="filter0_b_7123_219" x="-15" y="-15" width="362" height="137" filterUnits="userSpaceOnUse" color-interpolation-filters="sRGB">
<feFlood flood-opacity="0" result="BackgroundImageFix"/>
<feGaussianBlur in="BackgroundImageFix" stdDeviation="7.5"/>
<feComposite in2="SourceAlpha" operator="in" result="effect1_backgroundBlur_7123_219"/>
<feBlend mode="normal" in="SourceGraphic" in2="effect1_backgroundBlur_7123_219" result="shape"/>
</filter>
</defs>
</svg>
