<svg width="350" height="107" viewBox="0 0 350 107" fill="none" xmlns="http://www.w3.org/2000/svg">
<g filter="url(#filter0_b_7123_206)">
<mask id="path-1-inside-1_7123_206" fill="white">
<path fill-rule="evenodd" clip-rule="evenodd" d="M154.732 2C154.018 0.762397 152.697 0 151.268 0H18C8.05888 0 0 8.05887 0 18V89C0 98.9411 8.05887 107 18 107H314C323.941 107 332 98.9411 332 89V68.7321C332 67.303 332.762 65.9825 334 65.268L347.5 57.4737C350.167 55.9341 350.167 52.0851 347.5 50.5455L334 42.7513C332.762 42.0368 332 40.7162 332 39.2872V18C332 8.05888 323.941 0 314 0H180.713C179.284 0 177.963 0.762396 177.249 2L169.454 15.5C167.915 18.1667 164.066 18.1667 162.526 15.5L154.732 2Z"/>
</mask>
<path fill-rule="evenodd" clip-rule="evenodd" d="M154.732 2C154.018 0.762397 152.697 0 151.268 0H18C8.05888 0 0 8.05887 0 18V89C0 98.9411 8.05887 107 18 107H314C323.941 107 332 98.9411 332 89V68.7321C332 67.303 332.762 65.9825 334 65.268L347.5 57.4737C350.167 55.9341 350.167 52.0851 347.5 50.5455L334 42.7513C332.762 42.0368 332 40.7162 332 39.2872V18C332 8.05888 323.941 0 314 0H180.713C179.284 0 177.963 0.762396 177.249 2L169.454 15.5C167.915 18.1667 164.066 18.1667 162.526 15.5L154.732 2Z" fill="#001341" fill-opacity="0.65"/>
<path d="M154.732 2L155.598 1.5L155.598 1.5L154.732 2ZM177.249 2L178.115 2.5L178.115 2.5L177.249 2ZM169.454 15.5L168.588 15L168.588 15L169.454 15.5ZM162.526 15.5L163.392 15L163.392 15L162.526 15.5ZM334 42.7513L333.5 43.6173L334 42.7513ZM347.5 57.4737L348 58.3397L347.5 57.4737ZM347.5 50.5455L348 49.6795L347.5 50.5455ZM334 65.268L333.5 64.4019L334 65.268ZM151.268 1C152.34 1 153.33 1.5718 153.866 2.50001L155.598 1.5C154.705 -0.0470032 153.054 -1 151.268 -1V1ZM18 1H151.268V-1H18V1ZM1 18C1 8.61116 8.61116 1 18 1V-1C7.50659 -1 -1 7.50659 -1 18H1ZM1 89V18H-1V89H1ZM18 106C8.61116 106 1 98.3888 1 89H-1C-1 99.4934 7.50659 108 18 108V106ZM314 106H18V108H314V106ZM331 89C331 98.3888 323.389 106 314 106V108C324.493 108 333 99.4934 333 89H331ZM331 68.7321V89H333V68.7321H331ZM347 56.6077L333.5 64.4019L334.5 66.134L348 58.3397L347 56.6077ZM333.5 43.6173L347 51.4115L348 49.6795L334.5 41.8853L333.5 43.6173ZM331 18V39.2872H333V18H331ZM314 1C323.389 1 331 8.61116 331 18H333C333 7.50659 324.493 -1 314 -1V1ZM180.713 1H314V-1H180.713V1ZM178.115 2.5C178.651 1.5718 179.641 1 180.713 1V-1C178.926 -1 177.276 -0.0470058 176.383 1.5L178.115 2.5ZM170.321 16L178.115 2.5L176.383 1.5L168.588 15L170.321 16ZM161.66 16C163.585 19.3333 168.396 19.3333 170.321 16L168.588 15C167.434 17 164.547 17 163.392 15L161.66 16ZM153.866 2.5L161.66 16L163.392 15L155.598 1.5L153.866 2.5ZM334.5 41.8853C333.572 41.3494 333 40.359 333 39.2872H331C331 41.0735 331.953 42.7241 333.5 43.6173L334.5 41.8853ZM348 58.3397C351.333 56.4152 351.333 51.604 348 49.6795L347 51.4115C349 52.5662 349 55.453 347 56.6077L348 58.3397ZM333 68.7321C333 67.6603 333.572 66.6699 334.5 66.134L333.5 64.4019C331.953 65.2951 331 66.9457 331 68.7321H333Z" fill="#2D74FE" mask="url(#path-1-inside-1_7123_206)"/>
</g>
<defs>
<filter id="filter0_b_7123_206" x="-15" y="-15" width="379.5" height="137" filterUnits="userSpaceOnUse" color-interpolation-filters="sRGB">
<feFlood flood-opacity="0" result="BackgroundImageFix"/>
<feGaussianBlur in="BackgroundImageFix" stdDeviation="7.5"/>
<feComposite in2="SourceAlpha" operator="in" result="effect1_backgroundBlur_7123_206"/>
<feBlend mode="normal" in="SourceGraphic" in2="effect1_backgroundBlur_7123_206" result="shape"/>
</filter>
</defs>
</svg>
