<svg width="727" height="334" viewBox="0 0 727 334" fill="none" xmlns="http://www.w3.org/2000/svg">
<path d="M0 250.497L55.7011 239.791C57.8434 267.269 79.624 282.256 110.688 282.256C133.54 282.256 148.536 272.978 148.536 255.849C148.536 240.148 137.467 232.654 97.4769 226.588C31.0641 216.596 7.49822 191.616 7.49822 149.507C7.49822 99.1913 47.1317 71 106.046 71C165.675 71 207.808 100.619 211.736 145.225L153.892 158.429C149.25 133.092 132.112 121.316 105.332 121.316C81.7664 121.316 69.9834 130.237 69.9834 144.155C69.9834 164.138 89.6216 167.707 137.467 175.201C191.383 184.122 211.379 210.529 211.379 251.567C211.379 304.381 168.174 334 107.117 334C41.0617 334 3.21352 300.456 0 250.497Z" fill="white"/>
<path d="M243.296 77.4233H350.414C418.612 77.4233 464.672 122.03 464.672 202.322C464.672 283.684 420.754 327.22 349.343 327.22H243.296V77.4233ZM305.781 271.908H345.058C377.907 271.908 402.187 256.92 402.187 202.322C402.187 154.86 382.549 132.735 345.058 132.735H305.781V271.908Z" fill="white"/>
<path d="M497.84 327.22V77.4233H560.325V110.611C560.325 142.014 557.468 154.86 539.258 176.271L553.541 189.832L649.947 77.4233H724.572L632.451 183.765L726 327.22H651.375L588.89 228.015H588.175L560.325 263.7V327.22H497.84Z" fill="white"/>
<path d="M0 2.14433H20.2781C33.1885 2.14433 41.9081 10.5935 41.9081 25.8021C41.9081 41.2135 33.5941 49.4599 20.0753 49.4599H0V2.14433ZM11.8289 38.9829H19.2642C25.4828 38.9829 30.0792 36.144 30.0792 25.8021C30.0792 16.8122 26.3615 12.6214 19.2642 12.6214H11.8289V38.9829Z" fill="#0EF169"/>
<path d="M47.8039 49.4599V2.14433H59.6328V49.4599H47.8039Z" fill="#0EF169"/>
<path d="M65.1594 34.9273L75.7041 32.8995C76.1096 38.1042 80.2328 40.9431 86.1135 40.9431C90.4395 40.9431 93.2784 39.1857 93.2784 35.9412C93.2784 32.9671 91.183 31.5476 83.6125 30.3985C71.0401 28.5059 66.5789 23.7743 66.5789 15.7983C66.5789 6.26754 74.0818 0.92764 85.2348 0.92764C96.5229 0.92764 104.499 6.53792 105.243 14.9871L94.2923 17.4881C93.4136 12.6889 90.1691 10.4584 85.0996 10.4584C80.6384 10.4584 78.4078 12.1482 78.4078 14.7844C78.4078 18.5696 82.1255 19.2455 91.183 20.665C101.39 22.3549 105.175 27.3568 105.175 35.1301C105.175 45.1339 96.9961 50.7442 85.4376 50.7442C72.9327 50.7442 65.7678 44.3904 65.1594 34.9273Z" fill="#0EF169"/>
<path d="M108.401 25.8021C108.401 12.4186 117.729 0.724862 133.343 0.860047C144.428 0.92764 153.215 7.34904 155.311 17.2853L144.225 20.327C142.671 14.5816 138.75 11.4047 133.14 11.4047C125.57 11.4047 120.365 17.2177 120.365 25.8021C120.365 34.3865 125.57 40.1996 133.14 40.1996C138.953 40.1996 143.076 36.7523 144.496 30.3309L155.716 33.1023C153.756 44.12 144.766 50.6766 133.343 50.7442C117.729 50.8794 108.401 39.1857 108.401 25.8021Z" fill="#0EF169"/>
<path d="M158.3 25.8021C158.3 11.4047 168.844 0.860047 183.106 0.860047C197.301 0.860047 207.846 11.4047 207.846 25.8021C207.846 40.1996 197.301 50.7442 183.106 50.7442C168.844 50.7442 158.3 40.1996 158.3 25.8021ZM170.264 25.8021C170.264 34.3865 175.468 40.1996 183.106 40.1996C191.285 40.1996 195.882 33.981 195.882 25.8021C195.882 17.4205 191.15 11.4047 183.106 11.4047C175.063 11.4047 170.264 17.2177 170.264 25.8021Z" fill="#0EF169"/>
<path d="M207.222 2.14433H219.929L227.5 24.7882C229.257 30.0605 229.866 34.1162 230.136 37.2931H234.192C234.53 33.4402 235.408 29.1818 236.828 24.7882L244.331 2.14433H257.106L239.194 49.4599H225.202L207.222 2.14433Z" fill="#0EF169"/>
<path d="M271.88 30.3309V38.9829H294.726V49.4599H260.051V2.14433H294.659V12.6214H271.88V20.665H292.563V30.3309H271.88Z" fill="#0EF169"/>
<path d="M335.34 39.9968L337.233 44.5932C338.044 46.4182 338.652 47.7025 339.936 48.446V49.4599H326.688C325.809 48.7164 325.471 47.9053 325.269 47.1617L322.362 39.9292C320.469 35.1301 319.253 33.7782 314.994 33.7782H311.547V49.4599H299.718V2.14433H324.795C333.921 2.14433 339.125 7.07867 339.125 14.9871C339.125 23.7743 333.988 27.8975 324.728 28.5059V31.8856C330.271 32.5615 332.569 33.305 335.34 39.9968ZM311.547 23.5039H321.957C325.201 23.5039 327.296 21.4761 327.296 17.8937C327.296 14.2436 325.471 12.4186 321.957 12.4186H311.547V23.5039Z" fill="#0EF169"/>
<path d="M356.534 2.14433H397.766V12.6214H383.03V49.4599H371.201V12.6214H356.534V2.14433Z" fill="#0EF169"/>
<path d="M401.294 49.4599V2.14433H413.122V19.8539H429.818V2.14433H441.715V49.4599H429.818V30.8717H413.122V49.4599H401.294Z" fill="#0EF169"/>
<path d="M460.381 30.3309V38.9829H483.228V49.4599H448.552V2.14433H483.16V12.6214H460.381V20.665H481.065V30.3309H460.381Z" fill="#0EF169"/>
<path d="M504.321 49.4599V2.14433H516.15V38.9153H537.51V49.4599H504.321Z" fill="#0EF169"/>
<path d="M540.355 31.2096V2.14433H552.184V30.3309C552.184 37.0903 555.023 40.1996 560.565 40.1996C566.108 40.1996 568.879 37.0227 568.879 30.3309V2.14433H580.708V31.2096C580.708 43.7145 573.273 50.7442 560.565 50.7442C547.858 50.7442 540.355 43.7145 540.355 31.2096Z" fill="#0EF169"/>
<path d="M585.728 25.8021C585.728 12.4186 595.056 0.724862 610.671 0.860047C621.756 0.92764 630.543 7.34904 632.638 17.2853L621.553 20.327C619.999 14.5816 616.078 11.4047 610.468 11.4047C602.897 11.4047 597.693 17.2177 597.693 25.8021C597.693 34.3865 602.897 40.1996 610.468 40.1996C616.281 40.1996 620.404 36.7523 621.824 30.3309L633.044 33.1023C631.084 44.12 622.094 50.6766 610.671 50.7442C595.056 50.8794 585.728 39.1857 585.728 25.8021Z" fill="#0EF169"/>
<path d="M672.939 39.9968L674.832 44.5932C675.643 46.4182 676.251 47.7025 677.535 48.446V49.4599H664.287C663.408 48.7164 663.07 47.9053 662.867 47.1617L659.961 39.9292C658.068 35.1301 656.852 33.7782 652.593 33.7782H649.146V49.4599H637.317V2.14433H662.394C671.519 2.14433 676.724 7.07867 676.724 14.9871C676.724 23.7743 671.587 27.8975 662.327 28.5059V31.8856C667.869 32.5615 670.168 33.305 672.939 39.9968ZM649.146 23.5039H659.555C662.8 23.5039 664.895 21.4761 664.895 17.8937C664.895 14.2436 663.07 12.4186 659.555 12.4186H649.146V23.5039Z" fill="#0EF169"/>
<path d="M726.36 49.4599H714.126L711.692 42.4302H692.158L689.724 49.4599H677.422L695.132 2.14433H708.65L726.36 49.4599ZM697.565 26.816L695.672 32.2235H708.177L706.285 26.816C704.933 22.828 704.46 20.327 703.986 14.3112H699.863C699.39 20.327 698.917 22.828 697.565 26.816Z" fill="#0EF169"/>
</svg>
