<svg width="31" height="30" viewBox="0 0 31 30" fill="none" xmlns="http://www.w3.org/2000/svg">
<g clip-path="url(#clip0_7109_1432)">
<path d="M25.9702 0C25.9702 5.01702 15.4077 2.78723 15.4077 11.1489M15.3787 11.1489C12.5034 11.1489 12.1221 9.4766 9.24681 9.4766C6.37206 9.4766 2 16.7234 2 22.2979C2 24.5277 3.11489 26.2 4.78723 26.2C9.80425 26.2 12.034 21.183 15.3787 21.183C18.7234 21.183 20.9532 26.2 25.9702 26.2C27.6426 26.2 28.7574 24.5277 28.7574 22.2979C28.7574 16.7234 24.3854 9.4766 21.5106 9.4766C18.6353 9.4766 18.254 11.1489 15.3787 11.1489Z" stroke="#AA9CFF" stroke-width="1.5" stroke-miterlimit="10" stroke-linecap="round" stroke-linejoin="round"/>
<path d="M11.4701 17.8382H9.79781V19.5105H8.12547V17.8382H6.45312V16.1658H8.12547V14.4935H9.79781V16.1658H11.4701V17.8382ZM22.0616 13.936C21.7659 13.936 21.4824 14.0535 21.2733 14.2626C21.0642 14.4717 20.9467 14.7552 20.9467 15.0509C20.9467 15.3466 21.0642 15.6302 21.2733 15.8393C21.4824 16.0484 21.7659 16.1658 22.0616 16.1658C22.3573 16.1658 22.6409 16.0484 22.85 15.8393C23.0591 15.6302 23.1765 15.3466 23.1765 15.0509C23.1765 14.7552 23.0591 14.4717 22.85 14.2626C22.6409 14.0535 22.3573 13.936 22.0616 13.936ZM22.0616 18.3956C21.7659 18.3956 21.4824 18.5131 21.2733 18.7222C21.0642 18.9312 20.9467 19.2148 20.9467 19.5105C20.9467 19.8062 21.0642 20.0898 21.2733 20.2989C21.4824 20.5079 21.7659 20.6254 22.0616 20.6254C22.3573 20.6254 22.6409 20.5079 22.85 20.2989C23.0591 20.0898 23.1765 19.8062 23.1765 19.5105C23.1765 19.2148 23.0591 18.9312 22.85 18.7222C22.6409 18.5131 22.3573 18.3956 22.0616 18.3956ZM24.2914 16.1658C23.9957 16.1658 23.7122 16.2833 23.5031 16.4924C23.294 16.7015 23.1765 16.985 23.1765 17.2807C23.1765 17.5764 23.294 17.86 23.5031 18.0691C23.7122 18.2781 23.9957 18.3956 24.2914 18.3956C24.5871 18.3956 24.8707 18.2781 25.0798 18.0691C25.2889 17.86 25.4063 17.5764 25.4063 17.2807C25.4063 16.985 25.2889 16.7015 25.0798 16.4924C24.8707 16.2833 24.5871 16.1658 24.2914 16.1658ZM19.8318 16.1658C19.5362 16.1658 19.2526 16.2833 19.0435 16.4924C18.8344 16.7015 18.717 16.985 18.717 17.2807C18.717 17.5764 18.8344 17.86 19.0435 18.0691C19.2526 18.2781 19.5362 18.3956 19.8318 18.3956C20.1275 18.3956 20.4111 18.2781 20.6202 18.0691C20.8293 17.86 20.9467 17.5764 20.9467 17.2807C20.9467 16.985 20.8293 16.7015 20.6202 16.4924C20.4111 16.2833 20.1275 16.1658 19.8318 16.1658Z" fill="#AA9CFF"/>
</g>
<defs>
<clipPath id="clip0_7109_1432">
<rect width="30" height="30" fill="white" transform="translate(0.75)"/>
</clipPath>
</defs>
</svg>
