<svg width="30" height="31" viewBox="0 0 30 31" fill="none" xmlns="http://www.w3.org/2000/svg">
<path d="M25.7984 5.8999H4.19844C3.17844 5.8999 2.39844 6.6799 2.39844 7.6999V20.8999C2.39844 21.9199 3.17844 22.6999 4.19844 22.6999H25.7984C26.8184 22.6999 27.5984 21.9199 27.5984 20.8999V7.6999C27.5984 6.6799 26.8184 5.8999 25.7984 5.8999Z" stroke="#2D74FE" stroke-width="1.2" stroke-miterlimit="10" stroke-linejoin="round"/>
<path d="M27.0016 25.1H3.00156C1.68156 25.1 0.601562 24.02 0.601562 22.7H29.4016C29.4016 24.02 28.3216 25.1 27.0016 25.1Z" stroke="#2D74FE" stroke-width="1.2" stroke-miterlimit="10" stroke-linejoin="round"/>
<path d="M6 18.4998L11.4 13.0998L15 16.6998L21 10.7424L24 13.6998" stroke="#2D74FE" stroke-width="1.2" stroke-miterlimit="10" stroke-linecap="round" stroke-linejoin="round"/>
<path d="M21.0047 11.9C21.6674 11.9 22.2047 11.3627 22.2047 10.7C22.2047 10.0373 21.6674 9.5 21.0047 9.5C20.3419 9.5 19.8047 10.0373 19.8047 10.7C19.8047 11.3627 20.3419 11.9 21.0047 11.9Z" fill="#2D74FE"/>
<path d="M15.0047 17.9C15.6674 17.9 16.2047 17.3627 16.2047 16.7C16.2047 16.0373 15.6674 15.5 15.0047 15.5C14.3419 15.5 13.8047 16.0373 13.8047 16.7C13.8047 17.3627 14.3419 17.9 15.0047 17.9Z" fill="#2D74FE"/>
<path d="M11.4031 14.2999C12.0659 14.2999 12.6031 13.7626 12.6031 13.0999C12.6031 12.4372 12.0659 11.8999 11.4031 11.8999C10.7404 11.8999 10.2031 12.4372 10.2031 13.0999C10.2031 13.7626 10.7404 14.2999 11.4031 14.2999Z" fill="#2D74FE"/>
</svg>
