<svg width="30" height="31" viewBox="0 0 30 31" fill="none" xmlns="http://www.w3.org/2000/svg">
<path d="M23.1854 11.1912L14.4646 14.5523L14.4668 14.5561C13.8183 14.771 13.3672 15.3633 13.3672 16.1003C13.3672 17.0275 14.0763 17.7366 15.0036 17.7366C15.3919 17.7366 15.7372 17.6073 16.0126 17.3946L16.0159 17.4006L23.1854 11.1912Z" stroke="#2D74FE" stroke-width="1.2" stroke-miterlimit="10" stroke-linecap="round" stroke-linejoin="round"/>
<path d="M15 6.2241V7.34773M24.8182 16.0423H23.6945M5.18182 16.0423H6.30545M10.0664 7.54301L10.6527 8.51992M6.50073 20.9759L7.47764 20.3896M6.50073 11.1092L7.47764 11.695M23.4993 20.9759L22.5224 20.3896M19.9336 7.54301L19.3473 8.51992M15 28.1001C8.4 28.1001 3 22.7001 3 16.1001C3 9.5001 8.4 4.1001 15 4.1001C21.6 4.1001 27 9.5001 27 16.1001C27 22.7001 21.6 28.1001 15 28.1001Z" stroke="#2D74FE" stroke-width="1.2" stroke-miterlimit="10" stroke-linecap="round" stroke-linejoin="round"/>
</svg>
