<svg width="31" height="30" viewBox="0 0 31 30" fill="none" xmlns="http://www.w3.org/2000/svg">
<path d="M11.0312 18.8619L19.5647 10.9309" stroke="#0EF169" stroke-width="1.5" stroke-miterlimit="10" stroke-linecap="round"/>
<path d="M15.9062 10.9309L19.5634 14.3299" stroke="#0EF169" stroke-width="1.5" stroke-miterlimit="10" stroke-linecap="round" stroke-linejoin="round"/>
<path d="M15.4659 10.5961C15.4932 10.5707 15.5412 10.5479 15.6018 10.5479C15.6624 10.5479 15.7104 10.5707 15.7377 10.5961L16.2483 10.0467L15.7377 10.5961C15.7632 10.6198 15.7661 10.6396 15.7661 10.6476C15.7661 10.6556 15.7632 10.6754 15.7377 10.6991C15.7104 10.7245 15.6624 10.7474 15.6018 10.7474C15.5412 10.7474 15.4932 10.7245 15.4659 10.6991C15.4404 10.6754 15.4375 10.6556 15.4375 10.6476C15.4375 10.6396 15.4404 10.6198 15.4659 10.5961ZM19.7326 14.5616C19.7599 14.5362 19.8079 14.5134 19.8685 14.5134C19.9291 14.5134 19.9771 14.5362 20.0044 14.5616C20.0299 14.5853 20.0328 14.6051 20.0328 14.6131C20.0328 14.6211 20.0299 14.641 20.0044 14.6646C19.9771 14.69 19.9291 14.7129 19.8685 14.7129C19.8079 14.7129 19.7599 14.69 19.7326 14.6646C19.7071 14.641 19.7042 14.6211 19.7042 14.6131C19.7042 14.6051 19.7071 14.5853 19.7326 14.5616Z" fill="white" stroke="#0EF169" stroke-width="1.5"/>
<path d="M13.4688 13.1968L17.1259 16.5958" stroke="#0EF169" stroke-width="1.5" stroke-miterlimit="10" stroke-linecap="round" stroke-linejoin="round"/>
<path d="M13.0284 12.8622C13.0557 12.8368 13.1037 12.814 13.1643 12.814C13.2249 12.814 13.2729 12.8368 13.3002 12.8622L13.8108 12.3129L13.3002 12.8622C13.3257 12.8859 13.3286 12.9057 13.3286 12.9137C13.3286 12.9217 13.3257 12.9416 13.3002 12.9652C13.2729 12.9906 13.2249 13.0135 13.1643 13.0135C13.1037 13.0135 13.0557 12.9906 13.0284 12.9652C13.0029 12.9416 13 12.9217 13 12.9137C13 12.9057 13.0029 12.8859 13.0284 12.8622ZM17.2951 16.8277C17.3224 16.8024 17.3704 16.7795 17.431 16.7795C17.4916 16.7795 17.5396 16.8024 17.5669 16.8277C17.5924 16.8514 17.5953 16.8712 17.5953 16.8792C17.5953 16.8872 17.5924 16.9071 17.5669 16.9307C17.5396 16.9561 17.4916 16.979 17.431 16.979C17.3704 16.979 17.3224 16.9561 17.2951 16.9307C17.2696 16.9071 17.2667 16.8872 17.2667 16.8792C17.2667 16.8712 17.2696 16.8514 17.2951 16.8277Z" fill="white" stroke="#0EF169" stroke-width="1.5"/>
<path d="M11.0312 15.4634L14.6884 18.8624" stroke="#0EF169" stroke-width="1.5" stroke-miterlimit="10" stroke-linecap="round" stroke-linejoin="round"/>
<path d="M10.5909 15.1281C10.6182 15.1027 10.6662 15.0798 10.7268 15.0798C10.7874 15.0798 10.8354 15.1027 10.8627 15.1281L11.3733 14.5787L10.8627 15.1281C10.8882 15.1517 10.8911 15.1716 10.8911 15.1796C10.8911 15.1876 10.8882 15.2074 10.8627 15.2311C10.8354 15.2565 10.7874 15.2793 10.7268 15.2793C10.6662 15.2793 10.6182 15.2565 10.5909 15.2311C10.5654 15.2074 10.5625 15.1876 10.5625 15.1796C10.5625 15.1716 10.5654 15.1517 10.5909 15.1281ZM14.8576 19.0936C14.8849 19.0682 14.9329 19.0454 14.9935 19.0454C15.0541 19.0454 15.1021 19.0682 15.1294 19.0936C15.1549 19.1173 15.1578 19.1371 15.1578 19.1451C15.1578 19.1531 15.1549 19.1729 15.1294 19.1966C15.1021 19.222 15.0541 19.2449 14.9935 19.2449C14.9329 19.2449 14.8849 19.222 14.8576 19.1966C14.8321 19.1729 14.8292 19.1531 14.8292 19.1451C14.8292 19.1371 14.8321 19.1173 14.8576 19.0936Z" fill="white" stroke="#0EF169" stroke-width="1.5"/>
<path d="M21.6483 3C17.6254 3 12.2524 4.57544 8.22771 8.31606C1.96783 14.1352 1.32539 22.9715 3.96831 25.4278C4.91126 26.3059 6.7307 26.7931 8.96463 26.7931C12.9869 26.7931 18.3544 25.2109 22.3798 21.4702C28.6415 15.6511 29.2638 6.7984 26.6398 4.35847C25.7017 3.48606 23.8841 3 21.6483 3Z" stroke="#0EF169" stroke-width="1.5" stroke-miterlimit="10" stroke-linecap="round" stroke-linejoin="round"/>
</svg>
