<svg width="113" height="22" viewBox="0 0 113 22" fill="none" xmlns="http://www.w3.org/2000/svg">
<g id="Logo_large">
<path id="Path" d="M14.7594 21.4322V16.782H7.15223C6.52924 17.0988 5.89865 17.4915 5.26047 17.9601C4.62228 18.4287 4.12368 18.8345 3.76467 19.1775L2.75548 18.2014C3.36457 17.6485 3.85964 17.1429 4.2407 16.6845C4.62176 16.2261 4.96169 15.7022 5.26047 15.1128V0.565918H0V21.4322H14.7594Z" fill="white"/>
<path id="Path_2" d="M28.3629 21.9985C34.0141 21.9985 37.3207 18.8984 37.3207 13.3838V0.565918H32.0602V12.9962C32.0602 15.9473 30.8278 17.3483 28.3629 17.3483C25.898 17.3483 24.6355 15.9771 24.6355 12.9962V0.565918H19.375V13.3838C19.375 18.8984 22.7116 21.9985 28.3629 21.9985Z" fill="white"/>
<path id="Path_3" d="M52.9202 21.9995C58.0003 21.9697 61.9983 19.0782 62.87 14.2194L57.8801 12.9972C57.2488 15.829 55.4152 17.3493 52.83 17.3493C49.4633 17.3493 47.1487 14.7857 47.1487 11C47.1487 7.21427 49.4633 4.6507 52.83 4.6507C55.325 4.6507 57.0685 6.05172 57.7598 8.58548L62.6896 7.24408C61.7578 2.86217 57.85 0.0303208 52.9202 0.000511847C45.9764 -0.059106 41.8281 5.09784 41.8281 11C41.8281 16.9022 45.9764 22.0591 52.9202 21.9995Z" fill="white"/>
<path id="Combined Shape" d="M79.2694 0.565918C83.3274 0.565918 85.6421 2.74197 85.6421 6.22961C85.6421 10.1048 83.3575 11.9231 79.2393 12.1914V13.6818C81.7042 13.9799 82.7262 14.3078 83.9587 17.2589L84.8004 19.2859C85.1611 20.0908 85.4316 20.6571 86.0028 20.985V21.4322H80.111C79.7203 21.1043 79.57 20.7466 79.4798 20.4187L78.1872 17.2291C77.3455 15.1127 76.8045 14.5165 74.9107 14.5165H73.3777V21.4322H68.1172V0.565918H79.2694ZM78.0069 5.09687H73.3777V9.98553H78.0069C79.4497 9.98553 80.3816 9.09127 80.3816 7.51139C80.3816 5.90171 79.57 5.09687 78.0069 5.09687Z" fill="white"/>
<path id="Path_4" d="M104.25 0.567846L112.215 21.4341H106.534L103.197 11.4481C102.566 9.51052 102.175 7.63256 102.025 5.93345H100.222C100.101 7.33447 99.8308 9.123 99.0492 11.4481L95.6825 21.4341H90.0312L98.0272 0.567846H104.25Z" fill="white"/>
</g>
</svg>
