<svg width="410" height="158" viewBox="0 0 410 158" fill="none" xmlns="http://www.w3.org/2000/svg">
<g filter="url(#filter0_bd_7132_607)">
<rect x="19.2031" y="84.0286" width="371.762" height="57.7337" rx="6.47481" fill="#001341" fill-opacity="0.65" shape-rendering="crispEdges"/>
<rect x="19.4729" y="84.2983" width="371.222" height="57.1941" rx="6.20502" stroke="#0EF169" stroke-width="0.539567" shape-rendering="crispEdges"/>
<path d="M59.3047 115.117L66.598 108.338" stroke="#0EF169" stroke-width="1.28201" stroke-miterlimit="10" stroke-linecap="round"/>
<path d="M63.4609 108.338L66.5866 111.243" stroke="#0EF169" stroke-width="1.28201" stroke-miterlimit="10" stroke-linecap="round" stroke-linejoin="round"/>
<path d="M63.0871 108.052C63.1105 108.03 63.1515 108.011 63.2033 108.011C63.2551 108.011 63.2961 108.03 63.3195 108.052C63.3412 108.072 63.3437 108.089 63.3437 108.096C63.3437 108.103 63.3412 108.12 63.3195 108.14C63.2961 108.162 63.2551 108.181 63.2033 108.181C63.1515 108.181 63.1105 108.162 63.0871 108.14C63.0654 108.12 63.0629 108.103 63.0629 108.096C63.0629 108.089 63.0654 108.072 63.0871 108.052ZM66.7338 111.441C66.7571 111.42 66.7982 111.4 66.8499 111.4C66.9017 111.4 66.9428 111.42 66.9661 111.441C66.9879 111.462 66.9904 111.479 66.9904 111.485C66.9904 111.492 66.9879 111.509 66.9661 111.529C66.9428 111.551 66.9017 111.571 66.8499 111.571C66.7982 111.571 66.7571 111.551 66.7338 111.529C66.712 111.509 66.7095 111.492 66.7095 111.485C66.7095 111.479 66.712 111.462 66.7338 111.441Z" fill="white" stroke="#0EF169" stroke-width="1.28201"/>
<path d="M61.3828 110.275L64.5085 113.18" stroke="#0EF169" stroke-width="1.28201" stroke-miterlimit="10" stroke-linecap="round" stroke-linejoin="round"/>
<path d="M61.009 109.989C61.0323 109.967 61.0734 109.948 61.1252 109.948C61.1769 109.948 61.218 109.967 61.2413 109.989C61.2631 110.009 61.2656 110.026 61.2656 110.033C61.2656 110.04 61.2631 110.057 61.2413 110.077C61.218 110.099 61.1769 110.118 61.1252 110.118C61.0734 110.118 61.0323 110.099 61.009 110.077C60.9873 110.057 60.9848 110.04 60.9848 110.033C60.9848 110.026 60.9873 110.009 61.009 109.989ZM64.6557 113.378C64.679 113.356 64.7201 113.337 64.7718 113.337C64.8236 113.337 64.8646 113.356 64.888 113.378C64.9097 113.398 64.9122 113.415 64.9122 113.422C64.9122 113.429 64.9097 113.446 64.888 113.466C64.8646 113.488 64.8236 113.507 64.7718 113.507C64.7201 113.507 64.679 113.488 64.6557 113.466C64.6339 113.446 64.6314 113.429 64.6314 113.422C64.6314 113.415 64.6339 113.398 64.6557 113.378Z" fill="white" stroke="#0EF169" stroke-width="1.28201"/>
<path d="M59.3047 112.212L62.4304 115.117" stroke="#0EF169" stroke-width="1.28201" stroke-miterlimit="10" stroke-linecap="round" stroke-linejoin="round"/>
<path d="M58.9153 111.925C58.9386 111.904 58.9797 111.884 59.0314 111.884C59.0832 111.884 59.1243 111.904 59.1476 111.925C59.1693 111.946 59.1718 111.963 59.1718 111.969C59.1718 111.976 59.1693 111.993 59.1476 112.013C59.1243 112.035 59.0832 112.055 59.0314 112.055C58.9797 112.055 58.9386 112.035 58.9153 112.013C58.8935 111.993 58.891 111.976 58.891 111.969C58.891 111.963 58.8935 111.946 58.9153 111.925ZM62.5619 115.315C62.5852 115.293 62.6263 115.273 62.6781 115.273C62.7298 115.273 62.7709 115.293 62.7942 115.315C62.816 115.335 62.8185 115.352 62.8185 115.359C62.8185 115.365 62.816 115.382 62.7942 115.403C62.7709 115.424 62.7298 115.444 62.6781 115.444C62.6263 115.444 62.5852 115.424 62.5619 115.403C62.5402 115.382 62.5377 115.365 62.5377 115.359C62.5377 115.352 62.5401 115.335 62.5619 115.315Z" fill="white" stroke="#0EF169" stroke-width="1.28201"/>
<path d="M68.3734 101.56C64.9351 101.56 60.343 102.907 56.9031 106.104C51.553 111.077 51.0039 118.629 53.2627 120.729C54.0687 121.479 55.6237 121.895 57.533 121.895C60.9707 121.895 65.5582 120.543 68.9985 117.346C74.3503 112.373 74.8822 104.806 72.6395 102.721C71.8377 101.975 70.2843 101.56 68.3734 101.56Z" stroke="#0EF169" stroke-width="1.28201" stroke-miterlimit="10" stroke-linecap="round" stroke-linejoin="round"/>
<path d="M89.964 104.916H97.532C100.612 104.916 102.834 106.896 102.834 110.218C102.834 113.562 100.612 115.498 97.532 115.498H93.814V120.316H89.964V104.916ZM93.814 112.154H97.18C98.148 112.154 98.962 111.472 98.962 110.174C98.962 108.832 98.28 108.26 97.224 108.26H93.814V112.154ZM116.253 117.236L116.869 118.732C117.133 119.326 117.331 119.744 117.749 119.986V120.316H113.437C113.151 120.074 113.041 119.81 112.975 119.568L112.029 117.214C111.413 115.652 111.017 115.212 109.631 115.212H108.509V120.316H104.659V104.916H112.821C115.791 104.916 117.485 106.522 117.485 109.096C117.485 111.956 115.813 113.298 112.799 113.496V114.596C114.603 114.816 115.351 115.058 116.253 117.236ZM108.509 111.868H111.897C112.953 111.868 113.635 111.208 113.635 110.042C113.635 108.854 113.041 108.26 111.897 108.26H108.509V111.868ZM118.568 112.616C118.568 107.93 122 104.498 126.642 104.498C131.262 104.498 134.694 107.93 134.694 112.616C134.694 117.302 131.262 120.734 126.642 120.734C122 120.734 118.568 117.302 118.568 112.616ZM122.462 112.616C122.462 115.41 124.156 117.302 126.642 117.302C129.304 117.302 130.8 115.278 130.8 112.616C130.8 109.888 129.26 107.93 126.642 107.93C124.024 107.93 122.462 109.822 122.462 112.616ZM136.714 120.316V104.916H147.67V108.326H140.564V111.78H147.428V115.036H140.564V120.316H136.714ZM153.261 114.09V116.906H160.697V120.316H149.411V104.916H160.675V108.326H153.261V110.944H159.993V114.09H153.261ZM162.007 115.586L165.439 114.926C165.571 116.62 166.913 117.544 168.827 117.544C170.235 117.544 171.159 116.972 171.159 115.916C171.159 114.948 170.477 114.486 168.013 114.112C163.921 113.496 162.469 111.956 162.469 109.36C162.469 106.258 164.911 104.52 168.541 104.52C172.215 104.52 174.811 106.346 175.053 109.096L171.489 109.91C171.203 108.348 170.147 107.622 168.497 107.622C167.045 107.622 166.319 108.172 166.319 109.03C166.319 110.262 167.529 110.482 170.477 110.944C173.799 111.494 175.031 113.122 175.031 115.652C175.031 118.908 172.369 120.734 168.607 120.734C164.537 120.734 162.205 118.666 162.007 115.586ZM176.315 115.586L179.747 114.926C179.879 116.62 181.221 117.544 183.135 117.544C184.543 117.544 185.467 116.972 185.467 115.916C185.467 114.948 184.785 114.486 182.321 114.112C178.229 113.496 176.777 111.956 176.777 109.36C176.777 106.258 179.219 104.52 182.849 104.52C186.523 104.52 189.119 106.346 189.361 109.096L185.797 109.91C185.511 108.348 184.455 107.622 182.805 107.622C181.353 107.622 180.627 108.172 180.627 109.03C180.627 110.262 181.837 110.482 184.785 110.944C188.107 111.494 189.339 113.122 189.339 115.652C189.339 118.908 186.677 120.734 182.915 120.734C178.845 120.734 176.513 118.666 176.315 115.586ZM191.548 120.316V104.916H195.398V120.316H191.548ZM197.695 112.616C197.695 107.93 201.127 104.498 205.769 104.498C210.389 104.498 213.821 107.93 213.821 112.616C213.821 117.302 210.389 120.734 205.769 120.734C201.127 120.734 197.695 117.302 197.695 112.616ZM201.589 112.616C201.589 115.41 203.283 117.302 205.769 117.302C208.431 117.302 209.927 115.278 209.927 112.616C209.927 109.888 208.387 107.93 205.769 107.93C203.151 107.93 201.589 109.822 201.589 112.616ZM215.841 120.316V104.916H220.065L226.005 114.376H226.049V104.916H229.899V120.316H225.675L219.735 111.054H219.691V120.316H215.841ZM247.165 120.316H243.183L242.391 118.028H236.033L235.241 120.316H231.237L237.001 104.916H241.401L247.165 120.316ZM237.793 112.946L237.177 114.706H241.247L240.631 112.946C240.191 111.648 240.037 110.834 239.883 108.876H238.541C238.387 110.834 238.233 111.648 237.793 112.946ZM248.519 120.316V104.916H252.369V116.884H259.321V120.316H248.519Z" fill="#0EF169"/>
<path d="M265.841 115.586L269.273 114.926C269.405 116.62 270.747 117.544 272.661 117.544C274.069 117.544 274.993 116.972 274.993 115.916C274.993 114.948 274.311 114.486 271.847 114.112C267.755 113.496 266.303 111.956 266.303 109.36C266.303 106.258 268.745 104.52 272.375 104.52C276.049 104.52 278.645 106.346 278.887 109.096L275.323 109.91C275.037 108.348 273.981 107.622 272.331 107.622C270.879 107.622 270.153 108.172 270.153 109.03C270.153 110.262 271.363 110.482 274.311 110.944C277.633 111.494 278.865 113.122 278.865 115.652C278.865 118.908 276.203 120.734 272.441 120.734C268.371 120.734 266.039 118.666 265.841 115.586ZM280.831 104.916H288.399C291.479 104.916 293.701 106.896 293.701 110.218C293.701 113.562 291.479 115.498 288.399 115.498H284.681V120.316H280.831V104.916ZM284.681 112.154H288.047C289.015 112.154 289.829 111.472 289.829 110.174C289.829 108.832 289.147 108.26 288.091 108.26H284.681V112.154ZM294.977 112.616C294.977 107.93 298.409 104.498 303.051 104.498C307.671 104.498 311.103 107.93 311.103 112.616C311.103 117.302 307.671 120.734 303.051 120.734C298.409 120.734 294.977 117.302 294.977 112.616ZM298.871 112.616C298.871 115.41 300.565 117.302 303.051 117.302C305.713 117.302 307.209 115.278 307.209 112.616C307.209 109.888 305.669 107.93 303.051 107.93C300.433 107.93 298.871 109.822 298.871 112.616ZM324.716 117.236L325.332 118.732C325.596 119.326 325.794 119.744 326.212 119.986V120.316H321.9C321.614 120.074 321.504 119.81 321.438 119.568L320.492 117.214C319.876 115.652 319.48 115.212 318.094 115.212H316.972V120.316H313.122V104.916H321.284C324.254 104.916 325.948 106.522 325.948 109.096C325.948 111.956 324.276 113.298 321.262 113.496V114.596C323.066 114.816 323.814 115.058 324.716 117.236ZM316.972 111.868H320.36C321.416 111.868 322.098 111.208 322.098 110.042C322.098 108.854 321.504 108.26 320.36 108.26H316.972V111.868ZM326.525 104.916H339.945V108.326H335.149V120.316H331.299V108.326H326.525V104.916ZM340.735 115.586L344.167 114.926C344.299 116.62 345.641 117.544 347.555 117.544C348.963 117.544 349.887 116.972 349.887 115.916C349.887 114.948 349.205 114.486 346.741 114.112C342.649 113.496 341.197 111.956 341.197 109.36C341.197 106.258 343.639 104.52 347.269 104.52C350.943 104.52 353.539 106.346 353.781 109.096L350.217 109.91C349.931 108.348 348.875 107.622 347.225 107.622C345.773 107.622 345.047 108.172 345.047 109.03C345.047 110.262 346.257 110.482 349.205 110.944C352.527 111.494 353.759 113.122 353.759 115.652C353.759 118.908 351.097 120.734 347.335 120.734C343.265 120.734 340.933 118.666 340.735 115.586Z" fill="white"/>
</g>
<g filter="url(#filter1_bd_7132_607)">
<rect x="19.2031" y="19.2803" width="371.762" height="57.7337" rx="6.47481" fill="#001341" fill-opacity="0.65" shape-rendering="crispEdges"/>
<rect x="19.4729" y="19.5501" width="371.222" height="57.1941" rx="6.20502" stroke="#A68EFF" stroke-width="0.539567" shape-rendering="crispEdges"/>
<g clip-path="url(#clip0_7132_607)">
<path d="M71.643 34.2485C71.643 38.5365 62.6155 36.6307 62.6155 43.7772M62.5907 43.7772C60.1332 43.7772 59.8074 42.3479 57.3499 42.3479C54.8929 42.3479 51.1562 48.5416 51.1562 53.306C51.1562 55.2117 52.1091 56.641 53.5384 56.641C57.8263 56.641 59.7321 52.3531 62.5907 52.3531C65.4493 52.3531 67.3551 56.641 71.643 56.641C73.0723 56.641 74.0252 55.2117 74.0252 53.306C74.0252 48.5416 70.2885 42.3479 67.8315 42.3479C65.374 42.3479 65.0482 43.7772 62.5907 43.7772Z" stroke="#AA9CFF" stroke-width="1.28201" stroke-miterlimit="10" stroke-linecap="round" stroke-linejoin="round"/>
<path d="M59.2489 49.4942H57.8196V50.9235H56.3902V49.4942H54.9609V48.0649H56.3902V46.6356H57.8196V48.0649H59.2489V49.4942ZM68.3011 46.1592C68.0484 46.1592 67.806 46.2596 67.6274 46.4383C67.4487 46.617 67.3483 46.8593 67.3483 47.1121C67.3483 47.3648 67.4487 47.6071 67.6274 47.7858C67.806 47.9645 68.0484 48.0649 68.3011 48.0649C68.5538 48.0649 68.7962 47.9645 68.9749 47.7858C69.1536 47.6071 69.254 47.3648 69.254 47.1121C69.254 46.8593 69.1536 46.617 68.9749 46.4383C68.7962 46.2596 68.5538 46.1592 68.3011 46.1592ZM68.3011 49.9707C68.0484 49.9707 67.806 50.0711 67.6274 50.2498C67.4487 50.4285 67.3483 50.6708 67.3483 50.9235C67.3483 51.1763 67.4487 51.4186 67.6274 51.5973C67.806 51.776 68.0484 51.8764 68.3011 51.8764C68.5538 51.8764 68.7962 51.776 68.9749 51.5973C69.1536 51.4186 69.254 51.1763 69.254 50.9235C69.254 50.6708 69.1536 50.4285 68.9749 50.2498C68.7962 50.0711 68.5538 49.9707 68.3011 49.9707ZM70.2069 48.0649C69.9542 48.0649 69.7118 48.1653 69.5331 48.344C69.3544 48.5227 69.254 48.7651 69.254 49.0178C69.254 49.2705 69.3544 49.5129 69.5331 49.6916C69.7118 49.8703 69.9542 49.9707 70.2069 49.9707C70.4596 49.9707 70.702 49.8703 70.8807 49.6916C71.0594 49.5129 71.1597 49.2705 71.1597 49.0178C71.1597 48.7651 71.0594 48.5227 70.8807 48.344C70.702 48.1653 70.4596 48.0649 70.2069 48.0649ZM66.3954 48.0649C66.1427 48.0649 65.9003 48.1653 65.7216 48.344C65.5429 48.5227 65.4425 48.7651 65.4425 49.0178C65.4425 49.2705 65.5429 49.5129 65.7216 49.6916C65.9003 49.8703 66.1427 49.9707 66.3954 49.9707C66.6481 49.9707 66.8905 49.8703 67.0692 49.6916C67.2479 49.5129 67.3483 49.2705 67.3483 49.0178C67.3483 48.7651 67.2479 48.5227 67.0692 48.344C66.8905 48.1653 66.6481 48.0649 66.3954 48.0649Z" fill="#AA9CFF"/>
</g>
<path d="M101.86 52.4879L102.476 53.9839C102.74 54.5779 102.938 54.9959 103.356 55.2379V55.5679H99.0438C98.7578 55.3259 98.6478 55.0619 98.5818 54.8199L97.6358 52.4659C97.0198 50.9039 96.6238 50.4639 95.2378 50.4639H94.1158V55.5679H90.2658V40.1679H98.4278C101.398 40.1679 103.092 41.7739 103.092 44.3479C103.092 47.2079 101.42 48.5499 98.4058 48.7479V49.8479C100.21 50.0679 100.958 50.3099 101.86 52.4879ZM94.1158 47.1199H97.5038C98.5598 47.1199 99.2418 46.4599 99.2418 45.2939C99.2418 44.1059 98.6478 43.5119 97.5038 43.5119H94.1158V47.1199ZM108.79 49.3419V52.1579H116.226V55.5679H104.94V40.1679H116.204V43.5779H108.79V46.1959H115.522V49.3419H108.79ZM117.173 47.8679C117.173 43.5119 120.209 39.7059 125.291 39.7499C128.899 39.7719 131.759 41.8619 132.441 45.0959L128.833 46.0859C128.327 44.2159 127.051 43.1819 125.225 43.1819C122.761 43.1819 121.067 45.0739 121.067 47.8679C121.067 50.6619 122.761 52.5539 125.225 52.5539C127.117 52.5539 128.459 51.4319 128.921 49.3419L132.573 50.2439C131.935 53.8299 129.009 55.9639 125.291 55.9859C120.209 56.0299 117.173 52.2239 117.173 47.8679ZM145.924 52.4879L146.54 53.9839C146.804 54.5779 147.002 54.9959 147.42 55.2379V55.5679H143.108C142.822 55.3259 142.712 55.0619 142.646 54.8199L141.7 52.4659C141.084 50.9039 140.688 50.4639 139.302 50.4639H138.18V55.5679H134.33V40.1679H142.492C145.462 40.1679 147.156 41.7739 147.156 44.3479C147.156 47.2079 145.484 48.5499 142.47 48.7479V49.8479C144.274 50.0679 145.022 50.3099 145.924 52.4879ZM138.18 47.1199H141.568C142.624 47.1199 143.306 46.4599 143.306 45.2939C143.306 44.1059 142.712 43.5119 141.568 43.5119H138.18V47.1199ZM152.854 49.3419V52.1579H160.29V55.5679H149.004V40.1679H160.268V43.5779H152.854V46.1959H159.586V49.3419H152.854ZM176.955 55.5679H172.973L172.181 53.2799H165.823L165.031 55.5679H161.027L166.791 40.1679H171.191L176.955 55.5679ZM167.583 48.1979L166.967 49.9579H171.037L170.421 48.1979C169.981 46.8999 169.827 46.0859 169.673 44.1279H168.331C168.177 46.0859 168.023 46.8999 167.583 48.1979ZM175.62 40.1679H189.04V43.5779H184.244V55.5679H180.394V43.5779H175.62V40.1679ZM190.797 55.5679V40.1679H194.647V55.5679H190.797ZM196.944 47.8679C196.944 43.1819 200.376 39.7499 205.018 39.7499C209.638 39.7499 213.07 43.1819 213.07 47.8679C213.07 52.5539 209.638 55.9859 205.018 55.9859C200.376 55.9859 196.944 52.5539 196.944 47.8679ZM200.838 47.8679C200.838 50.6619 202.532 52.5539 205.018 52.5539C207.68 52.5539 209.176 50.5299 209.176 47.8679C209.176 45.1399 207.636 43.1819 205.018 43.1819C202.4 43.1819 200.838 45.0739 200.838 47.8679ZM215.09 55.5679V40.1679H219.314L225.254 49.6279H225.298V40.1679H229.148V55.5679H224.924L218.984 46.3059H218.94V55.5679H215.09ZM246.414 55.5679H242.432L241.64 53.2799H235.282L234.49 55.5679H230.486L236.25 40.1679H240.65L246.414 55.5679ZM237.042 48.1979L236.426 49.9579H240.496L239.88 48.1979C239.44 46.8999 239.286 46.0859 239.132 44.1279H237.79C237.636 46.0859 237.482 46.8999 237.042 48.1979ZM247.768 55.5679V40.1679H251.618V52.1359H258.57V55.5679H247.768Z" fill="#AA9CFF"/>
<path d="M265.222 48.0879C265.222 42.8959 268.786 39.6839 273.362 39.7499C276.97 39.7939 279.764 41.8619 280.446 44.8759L276.816 45.8879C276.288 44.1939 275.1 43.1819 273.23 43.1819C270.634 43.1819 269.138 45.1619 269.138 47.9339C269.138 50.7939 270.744 52.7079 273.472 52.7079C275.518 52.7079 276.882 51.6299 277.168 50.1779V50.0679H273.23V47.2739H280.358V55.5679H277.146V55.4579C277.256 54.9299 277.608 54.2039 277.894 53.5439L276.728 52.9719C275.98 54.6879 274.594 55.9419 272.152 55.9419C267.642 55.9419 265.222 52.3559 265.222 48.0879ZM297.569 55.5679H293.587L292.795 53.2799H286.437L285.645 55.5679H281.641L287.405 40.1679H291.805L297.569 55.5679ZM288.197 48.1979L287.581 49.9579H291.651L291.035 48.1979C290.595 46.8999 290.441 46.0859 290.287 44.1279H288.945C288.791 46.0859 288.637 46.8999 288.197 48.1979ZM302.596 55.5679H298.922V40.1679H305.038L306.534 46.2179C306.974 48.0219 306.974 49.1219 307.018 50.3319H308.14C308.184 49.0999 308.162 48.0879 308.624 46.2179L310.12 40.1679H316.236V55.5679H312.562V52.1579C312.562 49.8699 312.804 48.4179 313.97 44.1719L312.32 43.7099L309.086 55.5679H306.072L302.838 43.7099L301.188 44.1719C302.354 48.4179 302.596 49.8699 302.596 52.1579V55.5679ZM322.688 49.3419V52.1579H330.124V55.5679H318.838V40.1679H330.102V43.5779H322.688V46.1959H329.42V49.3419H322.688ZM331.433 50.8379L334.865 50.1779C334.997 51.8719 336.339 52.7959 338.253 52.7959C339.661 52.7959 340.585 52.2239 340.585 51.1679C340.585 50.1999 339.903 49.7379 337.439 49.3639C333.347 48.7479 331.895 47.2079 331.895 44.6119C331.895 41.5099 334.337 39.7719 337.967 39.7719C341.641 39.7719 344.237 41.5979 344.479 44.3479L340.915 45.1619C340.629 43.5999 339.573 42.8739 337.923 42.8739C336.471 42.8739 335.745 43.4239 335.745 44.2819C335.745 45.5139 336.955 45.7339 339.903 46.1959C343.225 46.7459 344.457 48.3739 344.457 50.9039C344.457 54.1599 341.795 55.9859 338.033 55.9859C333.963 55.9859 331.631 53.9179 331.433 50.8379Z" fill="white"/>
</g>
<defs>
<filter id="filter0_bd_7132_607" x="3.01611" y="67.8415" width="404.14" height="90.1077" filterUnits="userSpaceOnUse" color-interpolation-filters="sRGB">
<feFlood flood-opacity="0" result="BackgroundImageFix"/>
<feGaussianBlur in="BackgroundImageFix" stdDeviation="4.04675"/>
<feComposite in2="SourceAlpha" operator="in" result="effect1_backgroundBlur_7132_607"/>
<feColorMatrix in="SourceAlpha" type="matrix" values="0 0 0 0 0 0 0 0 0 0 0 0 0 0 0 0 0 0 127 0" result="hardAlpha"/>
<feOffset/>
<feGaussianBlur stdDeviation="8.09351"/>
<feComposite in2="hardAlpha" operator="out"/>
<feColorMatrix type="matrix" values="0 0 0 0 0.0551736 0 0 0 0 0.945833 0 0 0 0 0.411438 0 0 0 0.22 0"/>
<feBlend mode="normal" in2="effect1_backgroundBlur_7132_607" result="effect2_dropShadow_7132_607"/>
<feBlend mode="normal" in="SourceGraphic" in2="effect2_dropShadow_7132_607" result="shape"/>
</filter>
<filter id="filter1_bd_7132_607" x="0.318274" y="0.395422" width="409.535" height="95.5033" filterUnits="userSpaceOnUse" color-interpolation-filters="sRGB">
<feFlood flood-opacity="0" result="BackgroundImageFix"/>
<feGaussianBlur in="BackgroundImageFix" stdDeviation="4.04675"/>
<feComposite in2="SourceAlpha" operator="in" result="effect1_backgroundBlur_7132_607"/>
<feColorMatrix in="SourceAlpha" type="matrix" values="0 0 0 0 0 0 0 0 0 0 0 0 0 0 0 0 0 0 127 0" result="hardAlpha"/>
<feOffset/>
<feGaussianBlur stdDeviation="9.44243"/>
<feComposite in2="hardAlpha" operator="out"/>
<feColorMatrix type="matrix" values="0 0 0 0 0.666667 0 0 0 0 0.611765 0 0 0 0 1 0 0 0 0.2 0"/>
<feBlend mode="normal" in2="effect1_backgroundBlur_7132_607" result="effect2_dropShadow_7132_607"/>
<feBlend mode="normal" in="SourceGraphic" in2="effect2_dropShadow_7132_607" result="shape"/>
</filter>
<clipPath id="clip0_7132_607">
<rect width="25.6402" height="25.6402" fill="white" transform="translate(50.0859 34.2478)"/>
</clipPath>
</defs>
</svg>
