<svg width="658" height="200" viewBox="0 0 658 200" fill="none" xmlns="http://www.w3.org/2000/svg">
<path d="M0 2.99997H41.28C58.08 2.99997 70.2 13.8 70.2 31.92C70.2 50.16 58.08 60.72 41.28 60.72H21V87H0V2.99997ZM21 42.48H39.36C44.64 42.48 49.08 38.76 49.08 31.68C49.08 24.36 45.36 21.24 39.6 21.24H21V42.48Z" fill="#37358F"/>
<path d="M77.1562 45C77.1562 19.44 95.8762 0.719971 121.196 0.719971C146.396 0.719971 165.116 19.44 165.116 45C165.116 70.56 146.396 89.28 121.196 89.28C95.8762 89.28 77.1562 70.56 77.1562 45ZM98.3962 45C98.3962 60.24 107.636 70.56 121.196 70.56C135.716 70.56 143.876 59.52 143.876 45C143.876 30.12 135.476 19.44 121.196 19.44C106.916 19.44 98.3962 29.76 98.3962 45Z" fill="#37358F"/>
<path d="M186.743 87L167.423 2.99997H189.143L194.903 32.64C196.823 42.72 196.223 54.72 195.983 61.8H203.783C204.383 52.68 205.823 43.08 208.583 33.6L217.583 2.99997H234.023L243.383 34.32C246.143 43.56 247.463 52.92 248.063 61.8H255.863C255.623 54.36 254.903 42.72 256.703 33.36L262.583 2.99997H284.303L265.103 87H241.823L233.303 57.72C229.943 46.2 228.383 34.32 228.503 26.4H223.103C223.223 34.08 221.663 45.12 218.063 57.84L209.663 87H186.743Z" fill="#37358F"/>
<path d="M312.914 53.04V68.4H353.474V87H291.914V2.99997H353.354V21.6H312.914V35.88H349.634V53.04H312.914Z" fill="#37358F"/>
<path d="M427.576 70.2L430.936 78.36C432.376 81.6 433.456 83.88 435.736 85.2V87H412.216C410.656 85.68 410.056 84.24 409.696 82.92L404.536 70.08C401.176 61.56 399.016 59.16 391.456 59.16H385.336V87H364.336V2.99997H408.856C425.056 2.99997 434.296 11.76 434.296 25.8C434.296 41.4 425.176 48.72 408.736 49.8V55.8C418.576 57 422.656 58.32 427.576 70.2ZM385.336 40.92H403.816C409.576 40.92 413.296 37.32 413.296 30.96C413.296 24.48 410.056 21.24 403.816 21.24H385.336V40.92Z" fill="#37358F"/>
<path d="M444.375 87V2.99997H504.135V21.6H465.375V40.44H502.815V58.2H465.375V87H444.375Z" fill="#37358F"/>
<path d="M513.393 54.6V2.99997H534.393V53.04C534.393 65.04 539.433 70.56 549.273 70.56C559.113 70.56 564.033 64.92 564.033 53.04V2.99997H585.033V54.6C585.033 76.8 571.833 89.28 549.273 89.28C526.713 89.28 513.393 76.8 513.393 54.6Z" fill="#37358F"/>
<path d="M598.945 87V2.99997H619.945V68.28H657.865V87H598.945Z" fill="#37358F"/>
<path d="M0 197V113H59.76V131.6H21V150.44H58.44V168.2H21V197H0Z" fill="#0EF169"/>
<path d="M90.2578 163.04V178.4H130.818V197H69.2578V113H130.698V131.6H90.2578V145.88H126.978V163.04H90.2578Z" fill="#0EF169"/>
<path d="M221.72 197H200L195.68 184.52H161L156.68 197H134.84L166.28 113H190.28L221.72 197ZM170.6 156.8L167.24 166.4H189.44L186.08 156.8C183.68 149.72 182.84 145.28 182 134.6H174.68C173.84 145.28 173 149.72 170.6 156.8Z" fill="#0EF169"/>
<path d="M214.435 113H287.635V131.6H261.475V197H240.475V131.6H214.435V113Z" fill="#0EF169"/>
<path d="M295.658 164.6V113H316.658V163.04C316.658 175.04 321.698 180.56 331.538 180.56C341.378 180.56 346.298 174.92 346.298 163.04V113H367.298V164.6C367.298 186.8 354.098 199.28 331.538 199.28C308.978 199.28 295.658 186.8 295.658 164.6Z" fill="#0EF169"/>
<path d="M444.451 180.2L447.811 188.36C449.251 191.6 450.331 193.88 452.611 195.2V197H429.091C427.531 195.68 426.931 194.24 426.571 192.92L421.411 180.08C418.051 171.56 415.891 169.16 408.331 169.16H402.211V197H381.211V113H425.731C441.931 113 451.171 121.76 451.171 135.8C451.171 151.4 442.051 158.72 425.611 159.8V165.8C435.451 167 439.531 168.32 444.451 180.2ZM402.211 150.92H420.691C426.451 150.92 430.171 147.32 430.171 140.96C430.171 134.48 426.931 131.24 420.691 131.24H402.211V150.92Z" fill="#0EF169"/>
<path d="M482.25 163.04V178.4H522.81V197H461.25V113H522.69V131.6H482.25V145.88H518.97V163.04H482.25Z" fill="#0EF169"/>
<path d="M529.952 171.2L548.672 167.6C549.392 176.84 556.712 181.88 567.152 181.88C574.832 181.88 579.872 178.76 579.872 173C579.872 167.72 576.152 165.2 562.712 163.16C540.392 159.8 532.472 151.4 532.472 137.24C532.472 120.32 545.792 110.84 565.592 110.84C585.632 110.84 599.792 120.8 601.112 135.8L581.672 140.24C580.112 131.72 574.352 127.76 565.352 127.76C557.432 127.76 553.472 130.76 553.472 135.44C553.472 142.16 560.072 143.36 576.152 145.88C594.272 148.88 600.992 157.76 600.992 171.56C600.992 189.32 586.472 199.28 565.952 199.28C543.752 199.28 531.032 188 529.952 171.2Z" fill="#0EF169"/>
</svg>
