<svg width="372" height="59" viewBox="0 0 372 59" fill="none" xmlns="http://www.w3.org/2000/svg">
<rect x="0.472909" y="0.758797" width="371.222" height="57.1941" rx="6.20502" fill="#001341" fill-opacity="0.65"/>
<rect x="0.472909" y="0.758797" width="371.222" height="57.1941" rx="6.20502" stroke="#0EF169" stroke-width="0.539567"/>
<path d="M40.3047 31.577L47.598 24.7986" stroke="#0EF169" stroke-width="1.28201" stroke-miterlimit="10" stroke-linecap="round"/>
<path d="M44.4609 24.7986L47.5866 27.7036" stroke="#0EF169" stroke-width="1.28201" stroke-miterlimit="10" stroke-linecap="round" stroke-linejoin="round"/>
<path d="M44.0871 24.5126C44.1105 24.4909 44.1515 24.4713 44.2033 24.4713C44.2551 24.4713 44.2961 24.4909 44.3195 24.5126C44.3412 24.5328 44.3437 24.5497 44.3437 24.5566C44.3437 24.5634 44.3412 24.5804 44.3195 24.6006C44.2961 24.6223 44.2551 24.6418 44.2033 24.6418C44.1515 24.6418 44.1105 24.6223 44.0871 24.6006C44.0654 24.5804 44.0629 24.5634 44.0629 24.5566C44.0629 24.5497 44.0654 24.5328 44.0871 24.5126ZM47.7338 27.9018C47.7571 27.8801 47.7982 27.8606 47.8499 27.8606C47.9017 27.8606 47.9428 27.8801 47.9661 27.9018C47.9879 27.922 47.9904 27.939 47.9904 27.9458C47.9904 27.9527 47.9879 27.9696 47.9661 27.9898L48.4025 28.4594L47.9661 27.9898C47.9428 28.0115 47.9017 28.0311 47.8499 28.0311C47.7982 28.0311 47.7571 28.0115 47.7338 27.9898C47.712 27.9696 47.7095 27.9526 47.7095 27.9458C47.7095 27.939 47.712 27.922 47.7338 27.9018Z" fill="white" stroke="#0EF169" stroke-width="1.28201"/>
<path d="M42.3828 26.7354L45.5085 29.6404" stroke="#0EF169" stroke-width="1.28201" stroke-miterlimit="10" stroke-linecap="round" stroke-linejoin="round"/>
<path d="M42.009 26.4493C42.0323 26.4276 42.0734 26.4081 42.1252 26.4081C42.1769 26.4081 42.218 26.4276 42.2413 26.4493C42.2631 26.4696 42.2656 26.4865 42.2656 26.4934C42.2656 26.5002 42.2631 26.5171 42.2413 26.5374C42.218 26.5591 42.1769 26.5786 42.1252 26.5786C42.0734 26.5786 42.0323 26.5591 42.009 26.5374C41.9873 26.5171 41.9848 26.5002 41.9848 26.4934C41.9848 26.4865 41.9873 26.4696 42.009 26.4493ZM45.6557 29.8386C45.679 29.8169 45.7201 29.7973 45.7718 29.7973C45.8236 29.7973 45.8646 29.8169 45.888 29.8386C45.9097 29.8588 45.9122 29.8757 45.9122 29.8826C45.9122 29.8894 45.9097 29.9064 45.888 29.9266C45.8646 29.9483 45.8236 29.9678 45.7718 29.9678C45.7201 29.9678 45.679 29.9483 45.6557 29.9266C45.6339 29.9064 45.6314 29.8894 45.6314 29.8826C45.6314 29.8757 45.6339 29.8588 45.6557 29.8386Z" fill="white" stroke="#0EF169" stroke-width="1.28201"/>
<path d="M40.3047 28.6729L43.4304 31.5779" stroke="#0EF169" stroke-width="1.28201" stroke-miterlimit="10" stroke-linecap="round" stroke-linejoin="round"/>
<path d="M39.9153 28.3859C39.9386 28.3642 39.9797 28.3446 40.0314 28.3446C40.0832 28.3446 40.1243 28.3642 40.1476 28.3859C40.1693 28.4061 40.1718 28.423 40.1718 28.4299C40.1718 28.4367 40.1693 28.4537 40.1476 28.4739C40.1243 28.4956 40.0832 28.5151 40.0314 28.5151C39.9797 28.5151 39.9386 28.4956 39.9153 28.4739C39.8935 28.4537 39.891 28.4367 39.891 28.4299C39.891 28.423 39.8935 28.4061 39.9153 28.3859ZM43.5619 31.7751C43.5852 31.7534 43.6263 31.7338 43.6781 31.7338C43.7298 31.7338 43.7709 31.7534 43.7942 31.7751C43.816 31.7953 43.8185 31.8123 43.8185 31.8191C43.8185 31.8259 43.816 31.8429 43.7942 31.8631C43.7709 31.8848 43.7298 31.9044 43.6781 31.9044C43.6263 31.9044 43.5852 31.8848 43.5619 31.8631C43.5402 31.8429 43.5377 31.8259 43.5377 31.8191C43.5377 31.8123 43.5401 31.7953 43.5619 31.7751Z" fill="white" stroke="#0EF169" stroke-width="1.28201"/>
<path d="M49.3734 18.0205C45.9351 18.0205 41.343 19.367 37.9031 22.564C32.553 27.5375 32.0039 35.0896 34.2627 37.189C35.0687 37.9395 36.6237 38.3559 38.533 38.3559C41.9707 38.3559 46.5582 37.0036 49.9985 33.8066C55.3503 28.8331 55.8822 21.2669 53.6395 19.1816C52.8377 18.4359 51.2843 18.0205 49.3734 18.0205Z" stroke="#0EF169" stroke-width="1.28201" stroke-miterlimit="10" stroke-linecap="round" stroke-linejoin="round"/>
<path d="M70.9477 22.4766H77.4837C80.1437 22.4766 82.0627 24.1866 82.0627 27.0556C82.0627 29.9436 80.1437 31.6156 77.4837 31.6156H74.2727V35.7766H70.9477V22.4766ZM74.2727 28.7276H77.1797C78.0157 28.7276 78.7187 28.1386 78.7187 27.0176C78.7187 25.8586 78.1297 25.3646 77.2177 25.3646H74.2727V28.7276ZM93.6521 33.1166L94.1841 34.4086C94.4121 34.9216 94.5831 35.2826 94.9441 35.4916V35.7766H91.2201C90.9731 35.5676 90.8781 35.3396 90.8211 35.1306L90.0041 33.0976C89.4721 31.7486 89.1301 31.3686 87.9331 31.3686H86.9641V35.7766H83.6391V22.4766H90.6881C93.2531 22.4766 94.7161 23.8636 94.7161 26.0866C94.7161 28.5566 93.2721 29.7156 90.6691 29.8866V30.8366C92.2271 31.0266 92.8731 31.2356 93.6521 33.1166ZM86.9641 28.4806H89.8901C90.8021 28.4806 91.3911 27.9106 91.3911 26.9036C91.3911 25.8776 90.8781 25.3646 89.8901 25.3646H86.9641V28.4806ZM95.6514 29.1266C95.6514 25.0796 98.6154 22.1156 102.624 22.1156C106.614 22.1156 109.578 25.0796 109.578 29.1266C109.578 33.1736 106.614 36.1376 102.624 36.1376C98.6154 36.1376 95.6514 33.1736 95.6514 29.1266ZM99.0144 29.1266C99.0144 31.5396 100.477 33.1736 102.624 33.1736C104.923 33.1736 106.215 31.4256 106.215 29.1266C106.215 26.7706 104.885 25.0796 102.624 25.0796C100.363 25.0796 99.0144 26.7136 99.0144 29.1266ZM111.323 35.7766V22.4766H120.785V25.4216H114.648V28.4046H120.576V31.2166H114.648V35.7766H111.323ZM125.613 30.3996V32.8316H132.035V35.7766H122.288V22.4766H132.016V25.4216H125.613V27.6826H131.427V30.3996H125.613ZM133.166 31.6916L136.13 31.1216C136.244 32.5846 137.403 33.3826 139.056 33.3826C140.272 33.3826 141.07 32.8886 141.07 31.9766C141.07 31.1406 140.481 30.7416 138.353 30.4186C134.819 29.8866 133.565 28.5566 133.565 26.3146C133.565 23.6356 135.674 22.1346 138.809 22.1346C141.982 22.1346 144.224 23.7116 144.433 26.0866L141.355 26.7896C141.108 25.4406 140.196 24.8136 138.771 24.8136C137.517 24.8136 136.89 25.2886 136.89 26.0296C136.89 27.0936 137.935 27.2836 140.481 27.6826C143.35 28.1576 144.414 29.5636 144.414 31.7486C144.414 34.5606 142.115 36.1376 138.866 36.1376C135.351 36.1376 133.337 34.3516 133.166 31.6916ZM145.524 31.6916L148.488 31.1216C148.602 32.5846 149.761 33.3826 151.414 33.3826C152.63 33.3826 153.428 32.8886 153.428 31.9766C153.428 31.1406 152.839 30.7416 150.711 30.4186C147.177 29.8866 145.923 28.5566 145.923 26.3146C145.923 23.6356 148.032 22.1346 151.167 22.1346C154.34 22.1346 156.582 23.7116 156.791 26.0866L153.713 26.7896C153.466 25.4406 152.554 24.8136 151.129 24.8136C149.875 24.8136 149.248 25.2886 149.248 26.0296C149.248 27.0936 150.293 27.2836 152.839 27.6826C155.708 28.1576 156.772 29.5636 156.772 31.7486C156.772 34.5606 154.473 36.1376 151.224 36.1376C147.709 36.1376 145.695 34.3516 145.524 31.6916ZM158.679 35.7766V22.4766H162.004V35.7766H158.679ZM163.988 29.1266C163.988 25.0796 166.952 22.1156 170.961 22.1156C174.951 22.1156 177.915 25.0796 177.915 29.1266C177.915 33.1736 174.951 36.1376 170.961 36.1376C166.952 36.1376 163.988 33.1736 163.988 29.1266ZM167.351 29.1266C167.351 31.5396 168.814 33.1736 170.961 33.1736C173.26 33.1736 174.552 31.4256 174.552 29.1266C174.552 26.7706 173.222 25.0796 170.961 25.0796C168.7 25.0796 167.351 26.7136 167.351 29.1266ZM179.66 35.7766V22.4766H183.308L188.438 30.6466H188.476V22.4766H191.801V35.7766H188.153L183.023 27.7776H182.985V35.7766H179.66ZM206.712 35.7766H203.273L202.589 33.8006H197.098L196.414 35.7766H192.956L197.934 22.4766H201.734L206.712 35.7766ZM198.618 29.4116L198.086 30.9316H201.601L201.069 29.4116C200.689 28.2906 200.556 27.5876 200.423 25.8966H199.264C199.131 27.5876 198.998 28.2906 198.618 29.4116ZM207.881 35.7766V22.4766H211.206V32.8126H217.21V35.7766H207.881Z" fill="#0EF169"/>
<path d="M222.841 31.6916L225.805 31.1216C225.919 32.5846 227.078 33.3826 228.731 33.3826C229.947 33.3826 230.745 32.8886 230.745 31.9766C230.745 31.1406 230.156 30.7416 228.028 30.4186C224.494 29.8866 223.24 28.5566 223.24 26.3146C223.24 23.6356 225.349 22.1346 228.484 22.1346C231.657 22.1346 233.899 23.7116 234.108 26.0866L231.03 26.7896C230.783 25.4406 229.871 24.8136 228.446 24.8136C227.192 24.8136 226.565 25.2886 226.565 26.0296C226.565 27.0936 227.61 27.2836 230.156 27.6826C233.025 28.1576 234.089 29.5636 234.089 31.7486C234.089 34.5606 231.79 36.1376 228.541 36.1376C225.026 36.1376 223.012 34.3516 222.841 31.6916ZM235.788 22.4766H242.324C244.984 22.4766 246.903 24.1866 246.903 27.0556C246.903 29.9436 244.984 31.6156 242.324 31.6156H239.113V35.7766H235.788V22.4766ZM239.113 28.7276H242.02C242.856 28.7276 243.559 28.1386 243.559 27.0176C243.559 25.8586 242.97 25.3646 242.058 25.3646H239.113V28.7276ZM248.004 29.1266C248.004 25.0796 250.968 22.1156 254.977 22.1156C258.967 22.1156 261.931 25.0796 261.931 29.1266C261.931 33.1736 258.967 36.1376 254.977 36.1376C250.968 36.1376 248.004 33.1736 248.004 29.1266ZM251.367 29.1266C251.367 31.5396 252.83 33.1736 254.977 33.1736C257.276 33.1736 258.568 31.4256 258.568 29.1266C258.568 26.7706 257.238 25.0796 254.977 25.0796C252.716 25.0796 251.367 26.7136 251.367 29.1266ZM273.688 33.1166L274.22 34.4086C274.448 34.9216 274.619 35.2826 274.98 35.4916V35.7766H271.256C271.009 35.5676 270.914 35.3396 270.857 35.1306L270.04 33.0976C269.508 31.7486 269.166 31.3686 267.969 31.3686H267V35.7766H263.675V22.4766H270.724C273.289 22.4766 274.752 23.8636 274.752 26.0866C274.752 28.5566 273.308 29.7156 270.705 29.8866V30.8366C272.263 31.0266 272.909 31.2356 273.688 33.1166ZM267 28.4806H269.926C270.838 28.4806 271.427 27.9106 271.427 26.9036C271.427 25.8776 270.914 25.3646 269.926 25.3646H267V28.4806ZM275.251 22.4766H286.841V25.4216H282.699V35.7766H279.374V25.4216H275.251V22.4766ZM287.523 31.6916L290.487 31.1216C290.601 32.5846 291.76 33.3826 293.413 33.3826C294.629 33.3826 295.427 32.8886 295.427 31.9766C295.427 31.1406 294.838 30.7416 292.71 30.4186C289.176 29.8866 287.922 28.5566 287.922 26.3146C287.922 23.6356 290.031 22.1346 293.166 22.1346C296.339 22.1346 298.581 23.7116 298.79 26.0866L295.712 26.7896C295.465 25.4406 294.553 24.8136 293.128 24.8136C291.874 24.8136 291.247 25.2886 291.247 26.0296C291.247 27.0936 292.292 27.2836 294.838 27.6826C297.707 28.1576 298.771 29.5636 298.771 31.7486C298.771 34.5606 296.472 36.1376 293.223 36.1376C289.708 36.1376 287.694 34.3516 287.523 31.6916ZM304.723 31.6916L307.687 31.1216C307.801 32.5846 308.96 33.3826 310.613 33.3826C311.829 33.3826 312.627 32.8886 312.627 31.9766C312.627 31.1406 312.038 30.7416 309.91 30.4186C306.376 29.8866 305.122 28.5566 305.122 26.3146C305.122 23.6356 307.231 22.1346 310.366 22.1346C313.539 22.1346 315.781 23.7116 315.99 26.0866L312.912 26.7896C312.665 25.4406 311.753 24.8136 310.328 24.8136C309.074 24.8136 308.447 25.2886 308.447 26.0296C308.447 27.0936 309.492 27.2836 312.038 27.6826C314.907 28.1576 315.971 29.5636 315.971 31.7486C315.971 34.5606 313.672 36.1376 310.423 36.1376C306.908 36.1376 304.894 34.3516 304.723 31.6916ZM317.669 22.4766H323.369C326.998 22.4766 329.449 24.8516 329.449 29.1266C329.449 33.4586 327.112 35.7766 323.312 35.7766H317.669V22.4766ZM320.994 32.8316H323.084C324.832 32.8316 326.124 32.0336 326.124 29.1266C326.124 26.5996 325.079 25.4216 323.084 25.4216H320.994V32.8316ZM331.214 35.7766V22.4766H334.539V24.2436C334.539 25.9156 334.387 26.5996 333.418 27.7396L334.178 28.4616L339.308 22.4766H343.279L338.377 28.1386L343.355 35.7766H339.384L336.059 30.4946H336.021L334.539 32.3946V35.7766H331.214Z" fill="white"/>
</svg>
