<svg width="372" height="59" viewBox="0 0 372 59" fill="none" xmlns="http://www.w3.org/2000/svg">
<rect x="0.472909" y="0.758797" width="371.222" height="57.1941" rx="6.20502" fill="#001341" fill-opacity="0.65"/>
<rect x="0.472909" y="0.758797" width="371.222" height="57.1941" rx="6.20502" stroke="#0EF169" stroke-width="0.539567"/>
<path d="M40.3047 31.577L47.598 24.7986" stroke="#0EF169" stroke-width="1.28201" stroke-miterlimit="10" stroke-linecap="round"/>
<path d="M44.4609 24.7986L47.5866 27.7036" stroke="#0EF169" stroke-width="1.28201" stroke-miterlimit="10" stroke-linecap="round" stroke-linejoin="round"/>
<path d="M44.0871 24.5126C44.1105 24.4909 44.1515 24.4713 44.2033 24.4713C44.2551 24.4713 44.2961 24.4909 44.3195 24.5126C44.3412 24.5328 44.3437 24.5497 44.3437 24.5566C44.3437 24.5634 44.3412 24.5804 44.3195 24.6006C44.2961 24.6223 44.2551 24.6418 44.2033 24.6418C44.1515 24.6418 44.1105 24.6223 44.0871 24.6006C44.0654 24.5804 44.0629 24.5634 44.0629 24.5566C44.0629 24.5497 44.0654 24.5328 44.0871 24.5126ZM47.7338 27.9018C47.7571 27.8801 47.7982 27.8606 47.8499 27.8606C47.9017 27.8606 47.9428 27.8801 47.9661 27.9018C47.9879 27.922 47.9904 27.939 47.9904 27.9458C47.9904 27.9527 47.9879 27.9696 47.9661 27.9898L48.4025 28.4594L47.9661 27.9898C47.9428 28.0115 47.9017 28.0311 47.8499 28.0311C47.7982 28.0311 47.7571 28.0115 47.7338 27.9898C47.712 27.9696 47.7095 27.9526 47.7095 27.9458C47.7095 27.939 47.712 27.922 47.7338 27.9018Z" fill="white" stroke="#0EF169" stroke-width="1.28201"/>
<path d="M42.3828 26.7354L45.5085 29.6404" stroke="#0EF169" stroke-width="1.28201" stroke-miterlimit="10" stroke-linecap="round" stroke-linejoin="round"/>
<path d="M42.009 26.4493C42.0323 26.4276 42.0734 26.4081 42.1252 26.4081C42.1769 26.4081 42.218 26.4276 42.2413 26.4493C42.2631 26.4696 42.2656 26.4865 42.2656 26.4934C42.2656 26.5002 42.2631 26.5171 42.2413 26.5374C42.218 26.5591 42.1769 26.5786 42.1252 26.5786C42.0734 26.5786 42.0323 26.5591 42.009 26.5374C41.9873 26.5171 41.9848 26.5002 41.9848 26.4934C41.9848 26.4865 41.9873 26.4696 42.009 26.4493ZM45.6557 29.8386C45.679 29.8169 45.7201 29.7973 45.7718 29.7973C45.8236 29.7973 45.8646 29.8169 45.888 29.8386C45.9097 29.8588 45.9122 29.8757 45.9122 29.8826C45.9122 29.8894 45.9097 29.9064 45.888 29.9266C45.8646 29.9483 45.8236 29.9678 45.7718 29.9678C45.7201 29.9678 45.679 29.9483 45.6557 29.9266C45.6339 29.9064 45.6314 29.8894 45.6314 29.8826C45.6314 29.8757 45.6339 29.8588 45.6557 29.8386Z" fill="white" stroke="#0EF169" stroke-width="1.28201"/>
<path d="M40.3047 28.6729L43.4304 31.5779" stroke="#0EF169" stroke-width="1.28201" stroke-miterlimit="10" stroke-linecap="round" stroke-linejoin="round"/>
<path d="M39.9153 28.3859C39.9386 28.3642 39.9797 28.3446 40.0314 28.3446C40.0832 28.3446 40.1243 28.3642 40.1476 28.3859C40.1693 28.4061 40.1718 28.423 40.1718 28.4299C40.1718 28.4367 40.1693 28.4537 40.1476 28.4739C40.1243 28.4956 40.0832 28.5151 40.0314 28.5151C39.9797 28.5151 39.9386 28.4956 39.9153 28.4739C39.8935 28.4537 39.891 28.4367 39.891 28.4299C39.891 28.423 39.8935 28.4061 39.9153 28.3859ZM43.5619 31.7751C43.5852 31.7534 43.6263 31.7338 43.6781 31.7338C43.7298 31.7338 43.7709 31.7534 43.7942 31.7751C43.816 31.7953 43.8185 31.8123 43.8185 31.8191C43.8185 31.8259 43.816 31.8429 43.7942 31.8631C43.7709 31.8848 43.7298 31.9044 43.6781 31.9044C43.6263 31.9044 43.5852 31.8848 43.5619 31.8631C43.5402 31.8429 43.5377 31.8259 43.5377 31.8191C43.5377 31.8123 43.5401 31.7953 43.5619 31.7751Z" fill="white" stroke="#0EF169" stroke-width="1.28201"/>
<path d="M49.3734 18.0205C45.9351 18.0205 41.343 19.367 37.9031 22.564C32.553 27.5375 32.0039 35.0896 34.2627 37.189C35.0687 37.9395 36.6237 38.3559 38.533 38.3559C41.9707 38.3559 46.5582 37.0036 49.9985 33.8066C55.3503 28.8331 55.8822 21.2669 53.6395 19.1816C52.8377 18.4359 51.2843 18.0205 49.3734 18.0205Z" stroke="#0EF169" stroke-width="1.28201" stroke-miterlimit="10" stroke-linecap="round" stroke-linejoin="round"/>
<path d="M70.964 21.3766H78.532C81.612 21.3766 83.834 23.3566 83.834 26.6786C83.834 30.0226 81.612 31.9586 78.532 31.9586H74.814V36.7766H70.964V21.3766ZM74.814 28.6146H78.18C79.148 28.6146 79.962 27.9326 79.962 26.6346C79.962 25.2926 79.28 24.7206 78.224 24.7206H74.814V28.6146ZM97.2533 33.6966L97.8693 35.1926C98.1333 35.7866 98.3313 36.2046 98.7493 36.4466V36.7766H94.4373C94.1513 36.5346 94.0413 36.2706 93.9753 36.0286L93.0293 33.6746C92.4133 32.1126 92.0173 31.6726 90.6313 31.6726H89.5093V36.7766H85.6593V21.3766H93.8213C96.7913 21.3766 98.4853 22.9826 98.4853 25.5566C98.4853 28.4166 96.8133 29.7586 93.7993 29.9566V31.0566C95.6033 31.2766 96.3513 31.5186 97.2533 33.6966ZM89.5093 28.3286H92.8973C93.9533 28.3286 94.6353 27.6686 94.6353 26.5026C94.6353 25.3146 94.0413 24.7206 92.8973 24.7206H89.5093V28.3286ZM99.5683 29.0766C99.5683 24.3906 103 20.9586 107.642 20.9586C112.262 20.9586 115.694 24.3906 115.694 29.0766C115.694 33.7626 112.262 37.1946 107.642 37.1946C103 37.1946 99.5683 33.7626 99.5683 29.0766ZM103.462 29.0766C103.462 31.8706 105.156 33.7626 107.642 33.7626C110.304 33.7626 111.8 31.7386 111.8 29.0766C111.8 26.3486 110.26 24.3906 107.642 24.3906C105.024 24.3906 103.462 26.2826 103.462 29.0766ZM117.714 36.7766V21.3766H128.67V24.7866H121.564V28.2406H128.428V31.4966H121.564V36.7766H117.714ZM134.261 30.5506V33.3666H141.697V36.7766H130.411V21.3766H141.675V24.7866H134.261V27.4046H140.993V30.5506H134.261ZM143.007 32.0466L146.439 31.3866C146.571 33.0806 147.913 34.0046 149.827 34.0046C151.235 34.0046 152.159 33.4326 152.159 32.3766C152.159 31.4086 151.477 30.9466 149.013 30.5726C144.921 29.9566 143.469 28.4166 143.469 25.8206C143.469 22.7186 145.911 20.9806 149.541 20.9806C153.215 20.9806 155.811 22.8066 156.053 25.5566L152.489 26.3706C152.203 24.8086 151.147 24.0826 149.497 24.0826C148.045 24.0826 147.319 24.6326 147.319 25.4906C147.319 26.7226 148.529 26.9426 151.477 27.4046C154.799 27.9546 156.031 29.5826 156.031 32.1126C156.031 35.3686 153.369 37.1946 149.607 37.1946C145.537 37.1946 143.205 35.1266 143.007 32.0466ZM157.315 32.0466L160.747 31.3866C160.879 33.0806 162.221 34.0046 164.135 34.0046C165.543 34.0046 166.467 33.4326 166.467 32.3766C166.467 31.4086 165.785 30.9466 163.321 30.5726C159.229 29.9566 157.777 28.4166 157.777 25.8206C157.777 22.7186 160.219 20.9806 163.849 20.9806C167.523 20.9806 170.119 22.8066 170.361 25.5566L166.797 26.3706C166.511 24.8086 165.455 24.0826 163.805 24.0826C162.353 24.0826 161.627 24.6326 161.627 25.4906C161.627 26.7226 162.837 26.9426 165.785 27.4046C169.107 27.9546 170.339 29.5826 170.339 32.1126C170.339 35.3686 167.677 37.1946 163.915 37.1946C159.845 37.1946 157.513 35.1266 157.315 32.0466ZM172.548 36.7766V21.3766H176.398V36.7766H172.548ZM178.695 29.0766C178.695 24.3906 182.127 20.9586 186.769 20.9586C191.389 20.9586 194.821 24.3906 194.821 29.0766C194.821 33.7626 191.389 37.1946 186.769 37.1946C182.127 37.1946 178.695 33.7626 178.695 29.0766ZM182.589 29.0766C182.589 31.8706 184.283 33.7626 186.769 33.7626C189.431 33.7626 190.927 31.7386 190.927 29.0766C190.927 26.3486 189.387 24.3906 186.769 24.3906C184.151 24.3906 182.589 26.2826 182.589 29.0766ZM196.841 36.7766V21.3766H201.065L207.005 30.8366H207.049V21.3766H210.899V36.7766H206.675L200.735 27.5146H200.691V36.7766H196.841ZM228.165 36.7766H224.183L223.391 34.4886H217.033L216.241 36.7766H212.237L218.001 21.3766H222.401L228.165 36.7766ZM218.793 29.4066L218.177 31.1666H222.247L221.631 29.4066C221.191 28.1086 221.037 27.2946 220.883 25.3366H219.541C219.387 27.2946 219.233 28.1086 218.793 29.4066ZM229.519 36.7766V21.3766H233.369V33.3446H240.321V36.7766H229.519Z" fill="#0EF169"/>
<path d="M246.841 32.0466L250.273 31.3866C250.405 33.0806 251.747 34.0046 253.661 34.0046C255.069 34.0046 255.993 33.4326 255.993 32.3766C255.993 31.4086 255.311 30.9466 252.847 30.5726C248.755 29.9566 247.303 28.4166 247.303 25.8206C247.303 22.7186 249.745 20.9806 253.375 20.9806C257.049 20.9806 259.645 22.8066 259.887 25.5566L256.323 26.3706C256.037 24.8086 254.981 24.0826 253.331 24.0826C251.879 24.0826 251.153 24.6326 251.153 25.4906C251.153 26.7226 252.363 26.9426 255.311 27.4046C258.633 27.9546 259.865 29.5826 259.865 32.1126C259.865 35.3686 257.203 37.1946 253.441 37.1946C249.371 37.1946 247.039 35.1266 246.841 32.0466ZM261.831 21.3766H269.399C272.479 21.3766 274.701 23.3566 274.701 26.6786C274.701 30.0226 272.479 31.9586 269.399 31.9586H265.681V36.7766H261.831V21.3766ZM265.681 28.6146H269.047C270.015 28.6146 270.829 27.9326 270.829 26.6346C270.829 25.2926 270.147 24.7206 269.091 24.7206H265.681V28.6146ZM275.977 29.0766C275.977 24.3906 279.409 20.9586 284.051 20.9586C288.671 20.9586 292.103 24.3906 292.103 29.0766C292.103 33.7626 288.671 37.1946 284.051 37.1946C279.409 37.1946 275.977 33.7626 275.977 29.0766ZM279.871 29.0766C279.871 31.8706 281.565 33.7626 284.051 33.7626C286.713 33.7626 288.209 31.7386 288.209 29.0766C288.209 26.3486 286.669 24.3906 284.051 24.3906C281.433 24.3906 279.871 26.2826 279.871 29.0766ZM305.716 33.6966L306.332 35.1926C306.596 35.7866 306.794 36.2046 307.212 36.4466V36.7766H302.9C302.614 36.5346 302.504 36.2706 302.438 36.0286L301.492 33.6746C300.876 32.1126 300.48 31.6726 299.094 31.6726H297.972V36.7766H294.122V21.3766H302.284C305.254 21.3766 306.948 22.9826 306.948 25.5566C306.948 28.4166 305.276 29.7586 302.262 29.9566V31.0566C304.066 31.2766 304.814 31.5186 305.716 33.6966ZM297.972 28.3286H301.36C302.416 28.3286 303.098 27.6686 303.098 26.5026C303.098 25.3146 302.504 24.7206 301.36 24.7206H297.972V28.3286ZM307.525 21.3766H320.945V24.7866H316.149V36.7766H312.299V24.7866H307.525V21.3766ZM321.735 32.0466L325.167 31.3866C325.299 33.0806 326.641 34.0046 328.555 34.0046C329.963 34.0046 330.887 33.4326 330.887 32.3766C330.887 31.4086 330.205 30.9466 327.741 30.5726C323.649 29.9566 322.197 28.4166 322.197 25.8206C322.197 22.7186 324.639 20.9806 328.269 20.9806C331.943 20.9806 334.539 22.8066 334.781 25.5566L331.217 26.3706C330.931 24.8086 329.875 24.0826 328.225 24.0826C326.773 24.0826 326.047 24.6326 326.047 25.4906C326.047 26.7226 327.257 26.9426 330.205 27.4046C333.527 27.9546 334.759 29.5826 334.759 32.1126C334.759 35.3686 332.097 37.1946 328.335 37.1946C324.265 37.1946 321.933 35.1266 321.735 32.0466Z" fill="white"/>
</svg>
