<svg width="319" height="150" viewBox="0 0 319 150" fill="none" xmlns="http://www.w3.org/2000/svg">
<rect x="0.5" y="1" width="318" height="148" rx="11.5" fill="#001341" fill-opacity="0.65"/>
<rect x="0.5" y="1" width="318" height="148" rx="11.5" stroke="#0EF169"/>
<path d="M155.281 44.8619L163.815 36.9309" stroke="#0EF169" stroke-width="1.5" stroke-miterlimit="10" stroke-linecap="round"/>
<path d="M160.156 36.9309L163.813 40.3299" stroke="#0EF169" stroke-width="1.5" stroke-miterlimit="10" stroke-linecap="round" stroke-linejoin="round"/>
<path d="M159.716 36.5961C159.743 36.5707 159.791 36.5479 159.852 36.5479C159.912 36.5479 159.96 36.5707 159.988 36.5961L160.498 36.0467L159.988 36.5961C160.013 36.6198 160.016 36.6396 160.016 36.6476C160.016 36.6556 160.013 36.6754 159.988 36.6991C159.96 36.7245 159.912 36.7474 159.852 36.7474C159.791 36.7474 159.743 36.7245 159.716 36.6991C159.69 36.6754 159.688 36.6556 159.688 36.6476C159.688 36.6396 159.69 36.6198 159.716 36.5961ZM163.983 40.5616C164.01 40.5362 164.058 40.5134 164.119 40.5134C164.179 40.5134 164.227 40.5362 164.254 40.5616C164.28 40.5853 164.283 40.6051 164.283 40.6131C164.283 40.6211 164.28 40.641 164.254 40.6646C164.227 40.69 164.179 40.7129 164.119 40.7129C164.058 40.7129 164.01 40.69 163.983 40.6646C163.957 40.641 163.954 40.6211 163.954 40.6131C163.954 40.6051 163.957 40.5853 163.983 40.5616Z" fill="white" stroke="#0EF169" stroke-width="1.5"/>
<path d="M157.719 39.1968L161.376 42.5958" stroke="#0EF169" stroke-width="1.5" stroke-miterlimit="10" stroke-linecap="round" stroke-linejoin="round"/>
<path d="M157.278 38.8622C157.306 38.8368 157.354 38.814 157.414 38.814C157.475 38.814 157.523 38.8368 157.55 38.8622L158.061 38.3129L157.55 38.8622C157.576 38.8859 157.579 38.9057 157.579 38.9137C157.579 38.9217 157.576 38.9416 157.55 38.9652C157.523 38.9906 157.475 39.0135 157.414 39.0135C157.354 39.0135 157.306 38.9906 157.278 38.9652C157.253 38.9416 157.25 38.9217 157.25 38.9137C157.25 38.9057 157.253 38.8859 157.278 38.8622ZM161.545 42.8277C161.572 42.8024 161.62 42.7795 161.681 42.7795C161.742 42.7795 161.79 42.8024 161.817 42.8277C161.842 42.8514 161.845 42.8712 161.845 42.8792C161.845 42.8872 161.842 42.9071 161.817 42.9307C161.79 42.9561 161.742 42.979 161.681 42.979C161.62 42.979 161.572 42.9561 161.545 42.9307C161.52 42.9071 161.517 42.8872 161.517 42.8792C161.517 42.8712 161.52 42.8514 161.545 42.8277Z" fill="white" stroke="#0EF169" stroke-width="1.5"/>
<path d="M155.281 41.4634L158.938 44.8624" stroke="#0EF169" stroke-width="1.5" stroke-miterlimit="10" stroke-linecap="round" stroke-linejoin="round"/>
<path d="M154.841 41.1281C154.868 41.1027 154.916 41.0798 154.977 41.0798C155.037 41.0798 155.085 41.1027 155.113 41.1281L155.623 40.5787L155.113 41.1281C155.138 41.1517 155.141 41.1716 155.141 41.1796C155.141 41.1876 155.138 41.2074 155.113 41.2311C155.085 41.2565 155.037 41.2793 154.977 41.2793C154.916 41.2793 154.868 41.2565 154.841 41.2311C154.815 41.2074 154.812 41.1876 154.812 41.1796C154.812 41.1716 154.815 41.1517 154.841 41.1281ZM159.108 45.0936C159.135 45.0682 159.183 45.0454 159.244 45.0454C159.304 45.0454 159.352 45.0682 159.379 45.0936C159.405 45.1173 159.408 45.1371 159.408 45.1451C159.408 45.1531 159.405 45.1729 159.379 45.1966C159.352 45.222 159.304 45.2449 159.244 45.2449C159.183 45.2449 159.135 45.222 159.108 45.1966C159.082 45.1729 159.079 45.1531 159.079 45.1451C159.079 45.1371 159.082 45.1173 159.108 45.0936Z" fill="white" stroke="#0EF169" stroke-width="1.5"/>
<path d="M165.898 29C161.875 29 156.502 30.5754 152.478 34.3161C146.218 40.1352 145.575 48.9715 148.218 51.4278C149.161 52.3059 150.981 52.7931 153.215 52.7931C157.237 52.7931 162.604 51.2109 166.63 47.4702C172.891 41.6511 173.514 32.7984 170.89 30.3585C169.952 29.4861 168.134 29 165.898 29Z" stroke="#0EF169" stroke-width="1.5" stroke-miterlimit="10" stroke-linecap="round" stroke-linejoin="round"/>
<path d="M56.1911 69.1H65.4791C69.2591 69.1 71.9861 71.53 71.9861 75.607C71.9861 79.711 69.2591 82.087 65.4791 82.087H60.9161V88H56.1911V69.1ZM60.9161 77.983H65.0471C66.2351 77.983 67.2341 77.146 67.2341 75.553C67.2341 73.906 66.3971 73.204 65.1011 73.204H60.9161V77.983ZM88.4553 84.22L89.2113 86.056C89.5353 86.785 89.7783 87.298 90.2913 87.595V88H84.9993C84.6483 87.703 84.5133 87.379 84.4323 87.082L83.2713 84.193C82.5153 82.276 82.0293 81.736 80.3283 81.736H78.9513V88H74.2263V69.1H84.2433C87.8883 69.1 89.9673 71.071 89.9673 74.23C89.9673 77.74 87.9153 79.387 84.2163 79.63V80.98C86.4303 81.25 87.3483 81.547 88.4553 84.22ZM78.9513 77.632H83.1093C84.4053 77.632 85.2423 76.822 85.2423 75.391C85.2423 73.933 84.5133 73.204 83.1093 73.204H78.9513V77.632ZM91.2964 78.55C91.2964 72.799 95.5084 68.587 101.205 68.587C106.875 68.587 111.087 72.799 111.087 78.55C111.087 84.301 106.875 88.513 101.205 88.513C95.5084 88.513 91.2964 84.301 91.2964 78.55ZM96.0754 78.55C96.0754 81.979 98.1544 84.301 101.205 84.301C104.472 84.301 106.308 81.817 106.308 78.55C106.308 75.202 104.418 72.799 101.205 72.799C97.9924 72.799 96.0754 75.121 96.0754 78.55ZM113.566 88V69.1H127.012V73.285H118.291V77.524H126.715V81.52H118.291V88H113.566ZM133.874 80.359V83.815H143V88H129.149V69.1H142.973V73.285H133.874V76.498H142.136V80.359H133.874ZM144.607 82.195L148.819 81.385C148.981 83.464 150.628 84.598 152.977 84.598C154.705 84.598 155.839 83.896 155.839 82.6C155.839 81.412 155.002 80.845 151.978 80.386C146.956 79.63 145.174 77.74 145.174 74.554C145.174 70.747 148.171 68.614 152.626 68.614C157.135 68.614 160.321 70.855 160.618 74.23L156.244 75.229C155.893 73.312 154.597 72.421 152.572 72.421C150.79 72.421 149.899 73.096 149.899 74.149C149.899 75.661 151.384 75.931 155.002 76.498C159.079 77.173 160.591 79.171 160.591 82.276C160.591 86.272 157.324 88.513 152.707 88.513C147.712 88.513 144.85 85.975 144.607 82.195ZM162.168 82.195L166.38 81.385C166.542 83.464 168.189 84.598 170.538 84.598C172.266 84.598 173.4 83.896 173.4 82.6C173.4 81.412 172.563 80.845 169.539 80.386C164.517 79.63 162.735 77.74 162.735 74.554C162.735 70.747 165.732 68.614 170.187 68.614C174.696 68.614 177.882 70.855 178.179 74.23L173.805 75.229C173.454 73.312 172.158 72.421 170.133 72.421C168.351 72.421 167.46 73.096 167.46 74.149C167.46 75.661 168.945 75.931 172.563 76.498C176.64 77.173 178.152 79.171 178.152 82.276C178.152 86.272 174.885 88.513 170.268 88.513C165.273 88.513 162.411 85.975 162.168 82.195ZM180.862 88V69.1H185.587V88H180.862ZM188.407 78.55C188.407 72.799 192.619 68.587 198.316 68.587C203.986 68.587 208.198 72.799 208.198 78.55C208.198 84.301 203.986 88.513 198.316 88.513C192.619 88.513 188.407 84.301 188.407 78.55ZM193.186 78.55C193.186 81.979 195.265 84.301 198.316 84.301C201.583 84.301 203.419 81.817 203.419 78.55C203.419 75.202 201.529 72.799 198.316 72.799C195.103 72.799 193.186 75.121 193.186 78.55ZM210.676 88V69.1H215.86L223.15 80.71H223.204V69.1H227.929V88H222.745L215.455 76.633H215.401V88H210.676ZM249.12 88H244.233L243.261 85.192H235.458L234.486 88H229.572L236.646 69.1H242.046L249.12 88ZM237.618 78.955L236.862 81.115H241.857L241.101 78.955C240.561 77.362 240.372 76.363 240.183 73.96H238.536C238.347 76.363 238.158 77.362 237.618 78.955ZM250.781 88V69.1H255.506V83.788H264.038V88H250.781Z" fill="#0EF169"/>
<path d="M74.3122 110.195L78.5242 109.385C78.6862 111.464 80.3332 112.598 82.6822 112.598C84.4102 112.598 85.5442 111.896 85.5442 110.6C85.5442 109.412 84.7072 108.845 81.6832 108.386C76.6612 107.63 74.8792 105.74 74.8792 102.554C74.8792 98.747 77.8762 96.614 82.3312 96.614C86.8402 96.614 90.0262 98.855 90.3232 102.23L85.9492 103.229C85.5982 101.312 84.3022 100.421 82.2772 100.421C80.4952 100.421 79.6042 101.096 79.6042 102.149C79.6042 103.661 81.0892 103.931 84.7072 104.498C88.7842 105.173 90.2962 107.171 90.2962 110.276C90.2962 114.272 87.0292 116.513 82.4122 116.513C77.4172 116.513 74.5552 113.975 74.3122 110.195ZM92.7097 97.1H101.998C105.778 97.1 108.505 99.53 108.505 103.607C108.505 107.711 105.778 110.087 101.998 110.087H97.4347V116H92.7097V97.1ZM97.4347 105.983H101.566C102.754 105.983 103.753 105.146 103.753 103.553C103.753 101.906 102.916 101.204 101.62 101.204H97.4347V105.983ZM110.07 106.55C110.07 100.799 114.282 96.587 119.979 96.587C125.649 96.587 129.861 100.799 129.861 106.55C129.861 112.301 125.649 116.513 119.979 116.513C114.282 116.513 110.07 112.301 110.07 106.55ZM114.849 106.55C114.849 109.979 116.928 112.301 119.979 112.301C123.246 112.301 125.082 109.817 125.082 106.55C125.082 103.202 123.192 100.799 119.979 100.799C116.766 100.799 114.849 103.121 114.849 106.55ZM146.569 112.22L147.325 114.056C147.649 114.785 147.892 115.298 148.405 115.595V116H143.113C142.762 115.703 142.627 115.379 142.546 115.082L141.385 112.193C140.629 110.276 140.143 109.736 138.442 109.736H137.065V116H132.34V97.1H142.357C146.002 97.1 148.081 99.071 148.081 102.23C148.081 105.74 146.029 107.387 142.33 107.63V108.98C144.544 109.25 145.462 109.547 146.569 112.22ZM137.065 105.632H141.223C142.519 105.632 143.356 104.822 143.356 103.391C143.356 101.933 142.627 101.204 141.223 101.204H137.065V105.632ZM148.789 97.1H165.259V101.285H159.373V116H154.648V101.285H148.789V97.1ZM166.228 110.195L170.44 109.385C170.602 111.464 172.249 112.598 174.598 112.598C176.326 112.598 177.46 111.896 177.46 110.6C177.46 109.412 176.623 108.845 173.599 108.386C168.577 107.63 166.795 105.74 166.795 102.554C166.795 98.747 169.792 96.614 174.247 96.614C178.756 96.614 181.942 98.855 182.239 102.23L177.865 103.229C177.514 101.312 176.218 100.421 174.193 100.421C172.411 100.421 171.52 101.096 171.52 102.149C171.52 103.661 173.005 103.931 176.623 104.498C180.7 105.173 182.212 107.171 182.212 110.276C182.212 114.272 178.945 116.513 174.328 116.513C169.333 116.513 166.471 113.975 166.228 110.195ZM190.671 110.195L194.883 109.385C195.045 111.464 196.692 112.598 199.041 112.598C200.769 112.598 201.903 111.896 201.903 110.6C201.903 109.412 201.066 108.845 198.042 108.386C193.02 107.63 191.238 105.74 191.238 102.554C191.238 98.747 194.235 96.614 198.69 96.614C203.199 96.614 206.385 98.855 206.682 102.23L202.308 103.229C201.957 101.312 200.661 100.421 198.636 100.421C196.854 100.421 195.963 101.096 195.963 102.149C195.963 103.661 197.448 103.931 201.066 104.498C205.143 105.173 206.655 107.171 206.655 110.276C206.655 114.272 203.388 116.513 198.771 116.513C193.776 116.513 190.914 113.975 190.671 110.195ZM209.068 97.1H217.168C222.325 97.1 225.808 100.475 225.808 106.55C225.808 112.706 222.487 116 217.087 116H209.068V97.1ZM213.793 111.815H216.763C219.247 111.815 221.083 110.681 221.083 106.55C221.083 102.959 219.598 101.285 216.763 101.285H213.793V111.815ZM228.316 116V97.1H233.041V99.611C233.041 101.987 232.825 102.959 231.448 104.579L232.528 105.605L239.818 97.1H245.461L238.495 105.146L245.569 116H239.926L235.201 108.494H235.147L233.041 111.194V116H228.316Z" fill="white"/>
</svg>
