<svg width="330" height="154" viewBox="0 0 330 154" fill="none" xmlns="http://www.w3.org/2000/svg">
<rect x="1" y="0.5" width="328.5" height="153" rx="11.5" fill="#001341" fill-opacity="0.65"/>
<rect x="1" y="0.5" width="328.5" height="153" rx="11.5" stroke="#0EF169"/>
<path d="M161.031 46.8619L169.565 38.9309" stroke="#0EF169" stroke-width="1.5" stroke-miterlimit="10" stroke-linecap="round"/>
<path d="M165.906 38.9309L169.563 42.3299" stroke="#0EF169" stroke-width="1.5" stroke-miterlimit="10" stroke-linecap="round" stroke-linejoin="round"/>
<path d="M165.466 38.5961C165.493 38.5707 165.541 38.5479 165.602 38.5479C165.662 38.5479 165.71 38.5707 165.738 38.5961L166.248 38.0467L165.738 38.5961C165.763 38.6198 165.766 38.6396 165.766 38.6476C165.766 38.6556 165.763 38.6754 165.738 38.6991C165.71 38.7245 165.662 38.7474 165.602 38.7474C165.541 38.7474 165.493 38.7245 165.466 38.6991C165.44 38.6754 165.438 38.6556 165.438 38.6476C165.438 38.6396 165.44 38.6198 165.466 38.5961ZM169.733 42.5616C169.76 42.5362 169.808 42.5134 169.869 42.5134C169.929 42.5134 169.977 42.5362 170.004 42.5616C170.03 42.5853 170.033 42.6051 170.033 42.6131C170.033 42.6211 170.03 42.641 170.004 42.6646C169.977 42.69 169.929 42.7129 169.869 42.7129C169.808 42.7129 169.76 42.69 169.733 42.6646C169.707 42.641 169.704 42.6211 169.704 42.6131C169.704 42.6051 169.707 42.5853 169.733 42.5616Z" fill="white" stroke="#0EF169" stroke-width="1.5"/>
<path d="M163.469 41.1968L167.126 44.5958" stroke="#0EF169" stroke-width="1.5" stroke-miterlimit="10" stroke-linecap="round" stroke-linejoin="round"/>
<path d="M163.028 40.8622C163.056 40.8368 163.104 40.814 163.164 40.814C163.225 40.814 163.273 40.8368 163.3 40.8622L163.811 40.3129L163.3 40.8622C163.326 40.8859 163.329 40.9057 163.329 40.9137C163.329 40.9217 163.326 40.9416 163.3 40.9652C163.273 40.9906 163.225 41.0135 163.164 41.0135C163.104 41.0135 163.056 40.9906 163.028 40.9652C163.003 40.9416 163 40.9217 163 40.9137C163 40.9057 163.003 40.8859 163.028 40.8622ZM167.295 44.8277C167.322 44.8024 167.37 44.7795 167.431 44.7795C167.492 44.7795 167.54 44.8024 167.567 44.8277C167.592 44.8514 167.595 44.8712 167.595 44.8792C167.595 44.8872 167.592 44.9071 167.567 44.9307C167.54 44.9561 167.492 44.979 167.431 44.979C167.37 44.979 167.322 44.9561 167.295 44.9307C167.27 44.9071 167.267 44.8872 167.267 44.8792C167.267 44.8712 167.27 44.8514 167.295 44.8277Z" fill="white" stroke="#0EF169" stroke-width="1.5"/>
<path d="M161.031 43.4634L164.688 46.8624" stroke="#0EF169" stroke-width="1.5" stroke-miterlimit="10" stroke-linecap="round" stroke-linejoin="round"/>
<path d="M160.591 43.1281C160.618 43.1027 160.666 43.0798 160.727 43.0798C160.787 43.0798 160.835 43.1027 160.863 43.1281L161.373 42.5787L160.863 43.1281C160.888 43.1517 160.891 43.1716 160.891 43.1796C160.891 43.1876 160.888 43.2074 160.863 43.2311C160.835 43.2565 160.787 43.2793 160.727 43.2793C160.666 43.2793 160.618 43.2565 160.591 43.2311C160.565 43.2074 160.562 43.1876 160.562 43.1796C160.562 43.1716 160.565 43.1517 160.591 43.1281ZM164.858 47.0936C164.885 47.0682 164.933 47.0454 164.994 47.0454C165.054 47.0454 165.102 47.0682 165.129 47.0936C165.155 47.1173 165.158 47.1371 165.158 47.1451C165.158 47.1531 165.155 47.1729 165.129 47.1966C165.102 47.222 165.054 47.2449 164.994 47.2449C164.933 47.2449 164.885 47.222 164.858 47.1966C164.832 47.1729 164.829 47.1531 164.829 47.1451C164.829 47.1371 164.832 47.1173 164.858 47.0936Z" fill="white" stroke="#0EF169" stroke-width="1.5"/>
<path d="M171.648 31C167.625 31 162.252 32.5754 158.228 36.3161C151.968 42.1352 151.325 50.9715 153.968 53.4278C154.911 54.3059 156.731 54.7931 158.965 54.7931C162.987 54.7931 168.354 53.2109 172.38 49.4702C178.641 43.6511 179.264 34.7984 176.64 32.3585C175.702 31.4861 173.884 31 171.648 31Z" stroke="#0EF169" stroke-width="1.5" stroke-miterlimit="10" stroke-linecap="round" stroke-linejoin="round"/>
<path d="M61.9411 71.1H71.2291C75.0091 71.1 77.7361 73.53 77.7361 77.607C77.7361 81.711 75.0091 84.087 71.2291 84.087H66.6661V90H61.9411V71.1ZM66.6661 79.983H70.7971C71.9851 79.983 72.9841 79.146 72.9841 77.553C72.9841 75.906 72.1471 75.204 70.8511 75.204H66.6661V79.983ZM94.2053 86.22L94.9613 88.056C95.2853 88.785 95.5283 89.298 96.0413 89.595V90H90.7493C90.3983 89.703 90.2633 89.379 90.1823 89.082L89.0213 86.193C88.2653 84.276 87.7793 83.736 86.0783 83.736H84.7013V90H79.9763V71.1H89.9933C93.6383 71.1 95.7173 73.071 95.7173 76.23C95.7173 79.74 93.6653 81.387 89.9663 81.63V82.98C92.1803 83.25 93.0983 83.547 94.2053 86.22ZM84.7013 79.632H88.8593C90.1553 79.632 90.9923 78.822 90.9923 77.391C90.9923 75.933 90.2633 75.204 88.8593 75.204H84.7013V79.632ZM97.0464 80.55C97.0464 74.799 101.258 70.587 106.955 70.587C112.625 70.587 116.837 74.799 116.837 80.55C116.837 86.301 112.625 90.513 106.955 90.513C101.258 90.513 97.0464 86.301 97.0464 80.55ZM101.825 80.55C101.825 83.979 103.904 86.301 106.955 86.301C110.222 86.301 112.058 83.817 112.058 80.55C112.058 77.202 110.168 74.799 106.955 74.799C103.742 74.799 101.825 77.121 101.825 80.55ZM119.316 90V71.1H132.762V75.285H124.041V79.524H132.465V83.52H124.041V90H119.316ZM139.624 82.359V85.815H148.75V90H134.899V71.1H148.723V75.285H139.624V78.498H147.886V82.359H139.624ZM150.357 84.195L154.569 83.385C154.731 85.464 156.378 86.598 158.727 86.598C160.455 86.598 161.589 85.896 161.589 84.6C161.589 83.412 160.752 82.845 157.728 82.386C152.706 81.63 150.924 79.74 150.924 76.554C150.924 72.747 153.921 70.614 158.376 70.614C162.885 70.614 166.071 72.855 166.368 76.23L161.994 77.229C161.643 75.312 160.347 74.421 158.322 74.421C156.54 74.421 155.649 75.096 155.649 76.149C155.649 77.661 157.134 77.931 160.752 78.498C164.829 79.173 166.341 81.171 166.341 84.276C166.341 88.272 163.074 90.513 158.457 90.513C153.462 90.513 150.6 87.975 150.357 84.195ZM167.918 84.195L172.13 83.385C172.292 85.464 173.939 86.598 176.288 86.598C178.016 86.598 179.15 85.896 179.15 84.6C179.15 83.412 178.313 82.845 175.289 82.386C170.267 81.63 168.485 79.74 168.485 76.554C168.485 72.747 171.482 70.614 175.937 70.614C180.446 70.614 183.632 72.855 183.929 76.23L179.555 77.229C179.204 75.312 177.908 74.421 175.883 74.421C174.101 74.421 173.21 75.096 173.21 76.149C173.21 77.661 174.695 77.931 178.313 78.498C182.39 79.173 183.902 81.171 183.902 84.276C183.902 88.272 180.635 90.513 176.018 90.513C171.023 90.513 168.161 87.975 167.918 84.195ZM186.612 90V71.1H191.337V90H186.612ZM194.157 80.55C194.157 74.799 198.369 70.587 204.066 70.587C209.736 70.587 213.948 74.799 213.948 80.55C213.948 86.301 209.736 90.513 204.066 90.513C198.369 90.513 194.157 86.301 194.157 80.55ZM198.936 80.55C198.936 83.979 201.015 86.301 204.066 86.301C207.333 86.301 209.169 83.817 209.169 80.55C209.169 77.202 207.279 74.799 204.066 74.799C200.853 74.799 198.936 77.121 198.936 80.55ZM216.426 90V71.1H221.61L228.9 82.71H228.954V71.1H233.679V90H228.495L221.205 78.633H221.151V90H216.426ZM254.87 90H249.983L249.011 87.192H241.208L240.236 90H235.322L242.396 71.1H247.796L254.87 90ZM243.368 80.955L242.612 83.115H247.607L246.851 80.955C246.311 79.362 246.122 78.363 245.933 75.96H244.286C244.097 78.363 243.908 79.362 243.368 80.955ZM256.531 90V71.1H261.256V85.788H269.788V90H256.531Z" fill="#0EF169"/>
<path d="M111.268 112.195L115.48 111.385C115.642 113.464 117.289 114.598 119.638 114.598C121.366 114.598 122.5 113.896 122.5 112.6C122.5 111.412 121.663 110.845 118.639 110.386C113.617 109.63 111.835 107.74 111.835 104.554C111.835 100.747 114.832 98.614 119.287 98.614C123.796 98.614 126.982 100.855 127.279 104.23L122.905 105.229C122.554 103.312 121.258 102.421 119.233 102.421C117.451 102.421 116.56 103.096 116.56 104.149C116.56 105.661 118.045 105.931 121.663 106.498C125.74 107.173 127.252 109.171 127.252 112.276C127.252 116.272 123.985 118.513 119.368 118.513C114.373 118.513 111.511 115.975 111.268 112.195ZM129.665 99.1H138.953C142.733 99.1 145.46 101.53 145.46 105.607C145.46 109.711 142.733 112.087 138.953 112.087H134.39V118H129.665V99.1ZM134.39 107.983H138.521C139.709 107.983 140.708 107.146 140.708 105.553C140.708 103.906 139.871 103.204 138.575 103.204H134.39V107.983ZM147.025 108.55C147.025 102.799 151.237 98.587 156.934 98.587C162.604 98.587 166.816 102.799 166.816 108.55C166.816 114.301 162.604 118.513 156.934 118.513C151.237 118.513 147.025 114.301 147.025 108.55ZM151.804 108.55C151.804 111.979 153.883 114.301 156.934 114.301C160.201 114.301 162.037 111.817 162.037 108.55C162.037 105.202 160.147 102.799 156.934 102.799C153.721 102.799 151.804 105.121 151.804 108.55ZM183.524 114.22L184.28 116.056C184.604 116.785 184.847 117.298 185.36 117.595V118H180.068C179.717 117.703 179.582 117.379 179.501 117.082L178.34 114.193C177.584 112.276 177.098 111.736 175.397 111.736H174.02V118H169.295V99.1H179.312C182.957 99.1 185.036 101.071 185.036 104.23C185.036 107.74 182.984 109.387 179.285 109.63V110.98C181.499 111.25 182.417 111.547 183.524 114.22ZM174.02 107.632H178.178C179.474 107.632 180.311 106.822 180.311 105.391C180.311 103.933 179.582 103.204 178.178 103.204H174.02V107.632ZM185.744 99.1H202.214V103.285H196.328V118H191.603V103.285H185.744V99.1ZM203.184 112.195L207.396 111.385C207.558 113.464 209.205 114.598 211.554 114.598C213.282 114.598 214.416 113.896 214.416 112.6C214.416 111.412 213.579 110.845 210.555 110.386C205.533 109.63 203.751 107.74 203.751 104.554C203.751 100.747 206.748 98.614 211.203 98.614C215.712 98.614 218.898 100.855 219.195 104.23L214.821 105.229C214.47 103.312 213.174 102.421 211.149 102.421C209.367 102.421 208.476 103.096 208.476 104.149C208.476 105.661 209.961 105.931 213.579 106.498C217.656 107.173 219.168 109.171 219.168 112.276C219.168 116.272 215.901 118.513 211.284 118.513C206.289 118.513 203.427 115.975 203.184 112.195Z" fill="white"/>
</svg>
