<svg width="714" height="85" viewBox="0 0 714 85" fill="none" xmlns="http://www.w3.org/2000/svg">
<mask id="path-1-inside-1_7146_291" fill="white">
<path fill-rule="evenodd" clip-rule="evenodd" d="M343.423 0C344.852 0 346.172 0.762396 346.887 2L353.526 13.5C355.066 16.1667 358.915 16.1667 360.454 13.5L367.094 2C367.809 0.762396 369.129 0 370.558 0H702C708.627 0 714 5.37258 714 12V73C714 79.6274 708.627 85 702 85H12C5.37258 85 0 79.6274 0 73V12C0 5.37258 5.37258 0 12 0H343.423Z"/>
</mask>
<path fill-rule="evenodd" clip-rule="evenodd" d="M343.423 0C344.852 0 346.172 0.762396 346.887 2L353.526 13.5C355.066 16.1667 358.915 16.1667 360.454 13.5L367.094 2C367.809 0.762396 369.129 0 370.558 0H702C708.627 0 714 5.37258 714 12V73C714 79.6274 708.627 85 702 85H12C5.37258 85 0 79.6274 0 73V12C0 5.37258 5.37258 0 12 0H343.423Z" fill="#001341" fill-opacity="0.65"/>
<path d="M367.094 2L366.228 1.5L367.094 2ZM346.887 2L347.753 1.5L346.887 2ZM353.526 13.5L352.66 14L353.526 13.5ZM360.454 13.5L361.321 14L360.454 13.5ZM354.392 13L347.753 1.5L346.021 2.5L352.66 14L354.392 13ZM366.228 1.5L359.588 13L361.321 14L367.96 2.5L366.228 1.5ZM370.558 1H702V-1H370.558V1ZM702 1C708.075 1 713 5.92487 713 12H715C715 4.8203 709.18 -1 702 -1V1ZM713 12V73H715V12H713ZM713 73C713 79.0751 708.075 84 702 84V86C709.18 86 715 80.1797 715 73H713ZM702 84H12V86H702V84ZM12 84C5.92487 84 1 79.0751 1 73H-1C-1 80.1797 4.8203 86 12 86V84ZM1 73V12H-1V73H1ZM1 12C1 5.92487 5.92487 1 12 1V-1C4.8203 -1 -1 4.8203 -1 12H1ZM12 1H343.423V-1H12V1ZM367.96 2.5C368.496 1.5718 369.486 1 370.558 1V-1C368.772 -1 367.121 -0.0470054 366.228 1.5L367.96 2.5ZM347.753 1.5C346.86 -0.047 345.209 -1 343.423 -1V1C344.494 1 345.485 1.57179 346.021 2.5L347.753 1.5ZM352.66 14C354.585 17.3333 359.396 17.3333 361.321 14L359.588 13C358.434 15 355.547 15 354.392 13L352.66 14Z" fill="#2D74FE" mask="url(#path-1-inside-1_7146_291)"/>
<path d="M305.798 32.8999H284.198C283.178 32.8999 282.398 33.6799 282.398 34.6999V47.8999C282.398 48.9199 283.178 49.6999 284.198 49.6999H305.798C306.818 49.6999 307.598 48.9199 307.598 47.8999V34.6999C307.598 33.6799 306.818 32.8999 305.798 32.8999Z" stroke="#2D74FE" stroke-width="1.2" stroke-miterlimit="10" stroke-linejoin="round"/>
<path d="M307.002 52.1H283.002C281.682 52.1 280.602 51.02 280.602 49.7H309.402C309.402 51.02 308.322 52.1 307.002 52.1Z" stroke="#2D74FE" stroke-width="1.2" stroke-miterlimit="10" stroke-linejoin="round"/>
<path d="M286 45.4998L291.4 40.0998L295 43.6998L301 37.7424L304 40.6998" stroke="#2D74FE" stroke-width="1.2" stroke-miterlimit="10" stroke-linecap="round" stroke-linejoin="round"/>
<path d="M301.005 38.9C301.667 38.9 302.205 38.3627 302.205 37.7C302.205 37.0373 301.667 36.5 301.005 36.5C300.342 36.5 299.805 37.0373 299.805 37.7C299.805 38.3627 300.342 38.9 301.005 38.9Z" fill="#2D74FE"/>
<path d="M295.005 44.9C295.667 44.9 296.205 44.3627 296.205 43.7C296.205 43.0373 295.667 42.5 295.005 42.5C294.342 42.5 293.805 43.0373 293.805 43.7C293.805 44.3627 294.342 44.9 295.005 44.9Z" fill="#2D74FE"/>
<path d="M291.403 41.2999C292.066 41.2999 292.603 40.7626 292.603 40.0999C292.603 39.4372 292.066 38.8999 291.403 38.8999C290.74 38.8999 290.203 39.4372 290.203 40.0999C290.203 40.7626 290.74 41.2999 291.403 41.2999Z" fill="#2D74FE"/>
<path d="M336.952 50.5H333.332L332.612 48.42H326.832L326.112 50.5H322.472L327.712 36.5H331.712L336.952 50.5ZM328.432 43.8L327.872 45.4H331.572L331.012 43.8C330.612 42.62 330.472 41.88 330.332 40.1H329.112C328.972 41.88 328.832 42.62 328.432 43.8ZM338.182 50.5V36.5H342.022L347.422 45.1H347.462V36.5H350.962V50.5H347.122L341.722 42.08H341.682V50.5H338.182ZM366.659 50.5H363.039L362.319 48.42H356.539L355.819 50.5H352.179L357.419 36.5H361.419L366.659 50.5ZM358.139 43.8L357.579 45.4H361.279L360.719 43.8C360.319 42.62 360.179 41.88 360.039 40.1H358.819C358.679 41.88 358.539 42.62 358.139 43.8ZM367.889 50.5V36.5H371.389V47.38H377.709V50.5H367.889ZM381.382 45.24L376.082 36.5H380.142L380.982 38.24C381.482 39.3 382.382 41 382.502 42.6H383.822C383.942 41 384.622 39.64 385.302 38.22L386.122 36.5H390.182L384.902 45.24V50.5H381.382V45.24ZM390.757 36.5H402.957V39.6H398.597V50.5H395.097V39.6H390.757V36.5ZM404.554 50.5V36.5H408.054V50.5H404.554ZM410.143 43.5C410.143 39.54 412.903 36.08 417.523 36.12C420.803 36.14 423.403 38.04 424.023 40.98L420.743 41.88C420.283 40.18 419.123 39.24 417.463 39.24C415.223 39.24 413.683 40.96 413.683 43.5C413.683 46.04 415.223 47.76 417.463 47.76C419.183 47.76 420.403 46.74 420.823 44.84L424.143 45.66C423.563 48.92 420.903 50.86 417.523 50.88C412.903 50.92 410.143 47.46 410.143 43.5ZM425.121 46.2L428.241 45.6C428.361 47.14 429.581 47.98 431.321 47.98C432.601 47.98 433.441 47.46 433.441 46.5C433.441 45.62 432.821 45.2 430.581 44.86C426.861 44.3 425.541 42.9 425.541 40.54C425.541 37.72 427.761 36.14 431.061 36.14C434.401 36.14 436.761 37.8 436.981 40.3L433.741 41.04C433.481 39.62 432.521 38.96 431.021 38.96C429.701 38.96 429.041 39.46 429.041 40.24C429.041 41.36 430.141 41.56 432.821 41.98C435.841 42.48 436.961 43.96 436.961 46.26C436.961 49.22 434.541 50.88 431.121 50.88C427.421 50.88 425.301 49 425.121 46.2Z" fill="white"/>
</svg>
