<svg width="714" height="70" viewBox="0 0 714 70" fill="none" xmlns="http://www.w3.org/2000/svg">
<mask id="path-1-inside-1_7755_4964" fill="white">
<path fill-rule="evenodd" clip-rule="evenodd" d="M344.577 0C346.006 0 347.327 0.762394 348.041 2L353.526 11.5C355.066 14.1667 358.915 14.1667 360.454 11.5L365.939 2C366.654 0.762395 367.974 0 369.403 0H702C708.627 0 714 5.37258 714 12V58C714 64.6274 708.627 70 702 70H12C5.37258 70 0 64.6274 0 58V12C0 5.37258 5.37258 0 12 0H344.577Z"/>
</mask>
<path fill-rule="evenodd" clip-rule="evenodd" d="M344.577 0C346.006 0 347.327 0.762394 348.041 2L353.526 11.5C355.066 14.1667 358.915 14.1667 360.454 11.5L365.939 2C366.654 0.762395 367.974 0 369.403 0H702C708.627 0 714 5.37258 714 12V58C714 64.6274 708.627 70 702 70H12C5.37258 70 0 64.6274 0 58V12C0 5.37258 5.37258 0 12 0H344.577Z" fill="#001341" fill-opacity="0.65"/>
<path d="M348.041 2L348.907 1.5L348.907 1.49999L348.041 2ZM353.526 11.5L352.66 12L352.66 12L353.526 11.5ZM360.454 11.5L361.321 12L361.321 12L360.454 11.5ZM365.939 2L365.073 1.49999L365.073 1.5L365.939 2ZM344.577 1C345.649 1 346.64 1.57179 347.175 2.5L348.907 1.49999C348.014 -0.0469984 346.364 -1 344.577 -1V1ZM347.175 2.5L352.66 12L354.392 11L348.907 1.5L347.175 2.5ZM352.66 12C354.585 15.3333 359.396 15.3333 361.321 12L359.588 11C358.434 13 355.547 13 354.392 11L352.66 12ZM361.321 12L366.805 2.5L365.073 1.5L359.588 11L361.321 12ZM366.805 2.5C367.341 1.57179 368.332 1 369.403 1V-1C367.617 -1 365.966 -0.0470008 365.073 1.49999L366.805 2.5ZM369.403 1H702V-1H369.403V1ZM702 1C708.075 1 713 5.92487 713 12H715C715 4.8203 709.18 -1 702 -1V1ZM713 12V58H715V12H713ZM713 58C713 64.0751 708.075 69 702 69V71C709.18 71 715 65.1797 715 58H713ZM702 69H12V71H702V69ZM12 69C5.92487 69 1 64.0751 1 58H-1C-1 65.1797 4.8203 71 12 71V69ZM1 58V12H-1V58H1ZM1 12C1 5.92487 5.92487 1 12 1V-1C4.8203 -1 -1 4.8203 -1 12H1ZM12 1H344.577V-1H12V1Z" fill="#2D74FE" mask="url(#path-1-inside-1_7755_4964)"/>
<path d="M305.798 24.8999H284.198C283.178 24.8999 282.398 25.6799 282.398 26.6999V39.8999C282.398 40.9199 283.178 41.6999 284.198 41.6999H305.798C306.818 41.6999 307.598 40.9199 307.598 39.8999V26.6999C307.598 25.6799 306.818 24.8999 305.798 24.8999Z" stroke="#2D74FE" stroke-width="1.2" stroke-miterlimit="10" stroke-linejoin="round"/>
<path d="M307.002 44.1H283.002C281.682 44.1 280.602 43.02 280.602 41.7H309.402C309.402 43.02 308.322 44.1 307.002 44.1Z" stroke="#2D74FE" stroke-width="1.2" stroke-miterlimit="10" stroke-linejoin="round"/>
<path d="M286 37.4998L291.4 32.0998L295 35.6998L301 29.7424L304 32.6998" stroke="#2D74FE" stroke-width="1.2" stroke-miterlimit="10" stroke-linecap="round" stroke-linejoin="round"/>
<path d="M301.005 30.9C301.667 30.9 302.205 30.3627 302.205 29.7C302.205 29.0373 301.667 28.5 301.005 28.5C300.342 28.5 299.805 29.0373 299.805 29.7C299.805 30.3627 300.342 30.9 301.005 30.9Z" fill="#2D74FE"/>
<path d="M295.005 36.9C295.667 36.9 296.205 36.3627 296.205 35.7C296.205 35.0373 295.667 34.5 295.005 34.5C294.342 34.5 293.805 35.0373 293.805 35.7C293.805 36.3627 294.342 36.9 295.005 36.9Z" fill="#2D74FE"/>
<path d="M291.403 33.2999C292.066 33.2999 292.603 32.7626 292.603 32.0999C292.603 31.4372 292.066 30.8999 291.403 30.8999C290.74 30.8999 290.203 31.4372 290.203 32.0999C290.203 32.7626 290.74 33.2999 291.403 33.2999Z" fill="#2D74FE"/>
<path d="M336.952 42.5H333.332L332.612 40.42H326.832L326.112 42.5H322.472L327.712 28.5H331.712L336.952 42.5ZM328.432 35.8L327.872 37.4H331.572L331.012 35.8C330.612 34.62 330.472 33.88 330.332 32.1H329.112C328.972 33.88 328.832 34.62 328.432 35.8ZM338.182 42.5V28.5H342.022L347.422 37.1H347.462V28.5H350.962V42.5H347.122L341.722 34.08H341.682V42.5H338.182ZM366.659 42.5H363.039L362.319 40.42H356.539L355.819 42.5H352.179L357.419 28.5H361.419L366.659 42.5ZM358.139 35.8L357.579 37.4H361.279L360.719 35.8C360.319 34.62 360.179 33.88 360.039 32.1H358.819C358.679 33.88 358.539 34.62 358.139 35.8ZM367.889 42.5V28.5H371.389V39.38H377.709V42.5H367.889ZM381.382 37.24L376.082 28.5H380.142L380.982 30.24C381.482 31.3 382.382 33 382.502 34.6H383.822C383.942 33 384.622 31.64 385.302 30.22L386.122 28.5H390.182L384.902 37.24V42.5H381.382V37.24ZM390.757 28.5H402.957V31.6H398.597V42.5H395.097V31.6H390.757V28.5ZM404.554 42.5V28.5H408.054V42.5H404.554ZM410.143 35.5C410.143 31.54 412.903 28.08 417.523 28.12C420.803 28.14 423.403 30.04 424.023 32.98L420.743 33.88C420.283 32.18 419.123 31.24 417.463 31.24C415.223 31.24 413.683 32.96 413.683 35.5C413.683 38.04 415.223 39.76 417.463 39.76C419.183 39.76 420.403 38.74 420.823 36.84L424.143 37.66C423.563 40.92 420.903 42.86 417.523 42.88C412.903 42.92 410.143 39.46 410.143 35.5ZM425.121 38.2L428.241 37.6C428.361 39.14 429.581 39.98 431.321 39.98C432.601 39.98 433.441 39.46 433.441 38.5C433.441 37.62 432.821 37.2 430.581 36.86C426.861 36.3 425.541 34.9 425.541 32.54C425.541 29.72 427.761 28.14 431.061 28.14C434.401 28.14 436.761 29.8 436.981 32.3L433.741 33.04C433.481 31.62 432.521 30.96 431.021 30.96C429.701 30.96 429.041 31.46 429.041 32.24C429.041 33.36 430.141 33.56 432.821 33.98C435.841 34.48 436.961 35.96 436.961 38.26C436.961 41.22 434.541 42.88 431.121 42.88C427.421 42.88 425.301 41 425.121 38.2Z" fill="white"/>
</svg>
