<svg width="319" height="150" viewBox="0 0 319 150" fill="none" xmlns="http://www.w3.org/2000/svg">
<rect x="0.5" y="1" width="318" height="148" rx="11.5" fill="#001341" fill-opacity="0.65"/>
<rect x="0.5" y="1" width="318" height="148" rx="11.5" stroke="#A68EFF"/>
<g clip-path="url(#clip0_7107_1272)">
<path d="M169.72 26C169.72 31.017 159.158 28.7872 159.158 37.1489M159.129 37.1489C156.253 37.1489 155.872 35.4766 152.997 35.4766C150.122 35.4766 145.75 42.7234 145.75 48.2979C145.75 50.5277 146.865 52.2 148.537 52.2C153.554 52.2 155.784 47.183 159.129 47.183C162.473 47.183 164.703 52.2 169.72 52.2C171.393 52.2 172.507 50.5277 172.507 48.2979C172.507 42.7234 168.135 35.4766 165.261 35.4766C162.385 35.4766 162.004 37.1489 159.129 37.1489Z" stroke="#AA9CFF" stroke-width="1.5" stroke-miterlimit="10" stroke-linecap="round" stroke-linejoin="round"/>
<path d="M155.22 43.8382H153.548V45.5105H151.875V43.8382H150.203V42.1658H151.875V40.4935H153.548V42.1658H155.22V43.8382ZM165.812 39.936C165.516 39.936 165.232 40.0535 165.023 40.2626C164.814 40.4717 164.697 40.7552 164.697 41.0509C164.697 41.3466 164.814 41.6302 165.023 41.8393C165.232 42.0484 165.516 42.1658 165.812 42.1658C166.107 42.1658 166.391 42.0484 166.6 41.8393C166.809 41.6302 166.927 41.3466 166.927 41.0509C166.927 40.7552 166.809 40.4717 166.6 40.2626C166.391 40.0535 166.107 39.936 165.812 39.936ZM165.812 44.3956C165.516 44.3956 165.232 44.5131 165.023 44.7222C164.814 44.9312 164.697 45.2148 164.697 45.5105C164.697 45.8062 164.814 46.0898 165.023 46.2989C165.232 46.5079 165.516 46.6254 165.812 46.6254C166.107 46.6254 166.391 46.5079 166.6 46.2989C166.809 46.0898 166.927 45.8062 166.927 45.5105C166.927 45.2148 166.809 44.9312 166.6 44.7222C166.391 44.5131 166.107 44.3956 165.812 44.3956ZM168.041 42.1658C167.746 42.1658 167.462 42.2833 167.253 42.4924C167.044 42.7015 166.927 42.985 166.927 43.2807C166.927 43.5764 167.044 43.86 167.253 44.0691C167.462 44.2781 167.746 44.3956 168.041 44.3956C168.337 44.3956 168.621 44.2781 168.83 44.0691C169.039 43.86 169.156 43.5764 169.156 43.2807C169.156 42.985 169.039 42.7015 168.83 42.4924C168.621 42.2833 168.337 42.1658 168.041 42.1658ZM163.582 42.1658C163.286 42.1658 163.003 42.2833 162.794 42.4924C162.584 42.7015 162.467 42.985 162.467 43.2807C162.467 43.5764 162.584 43.86 162.794 44.0691C163.003 44.2781 163.286 44.3956 163.582 44.3956C163.878 44.3956 164.161 44.2781 164.37 44.0691C164.579 43.86 164.697 43.5764 164.697 43.2807C164.697 42.985 164.579 42.7015 164.37 42.4924C164.161 42.2833 163.878 42.1658 163.582 42.1658Z" fill="#AA9CFF"/>
</g>
<path d="M71.0661 84.22L71.8221 86.056C72.1461 86.785 72.3891 87.298 72.9021 87.595V88H67.6101C67.2591 87.703 67.1241 87.379 67.0431 87.082L65.8821 84.193C65.1261 82.276 64.6401 81.736 62.9391 81.736H61.5621V88H56.8371V69.1H66.8541C70.4991 69.1 72.5781 71.071 72.5781 74.23C72.5781 77.74 70.5261 79.387 66.8271 79.63V80.98C69.0411 81.25 69.9591 81.547 71.0661 84.22ZM61.5621 77.632H65.7201C67.0161 77.632 67.8531 76.822 67.8531 75.391C67.8531 73.933 67.1241 73.204 65.7201 73.204H61.5621V77.632ZM79.5709 80.359V83.815H88.6969V88H74.8459V69.1H88.6699V73.285H79.5709V76.498H87.8329V80.359H79.5709ZM89.8594 78.55C89.8594 73.204 93.5854 68.533 99.8224 68.587C104.25 68.614 107.76 71.179 108.597 75.148L104.169 76.363C103.548 74.068 101.982 72.799 99.7414 72.799C96.7174 72.799 94.6384 75.121 94.6384 78.55C94.6384 81.979 96.7174 84.301 99.7414 84.301C102.063 84.301 103.71 82.924 104.277 80.359L108.759 81.466C107.976 85.867 104.385 88.486 99.8224 88.513C93.5854 88.567 89.8594 83.896 89.8594 78.55ZM125.145 84.22L125.901 86.056C126.225 86.785 126.468 87.298 126.981 87.595V88H121.689C121.338 87.703 121.203 87.379 121.122 87.082L119.961 84.193C119.205 82.276 118.719 81.736 117.018 81.736H115.641V88H110.916V69.1H120.933C124.578 69.1 126.657 71.071 126.657 74.23C126.657 77.74 124.605 79.387 120.906 79.63V80.98C123.12 81.25 124.038 81.547 125.145 84.22ZM115.641 77.632H119.799C121.095 77.632 121.932 76.822 121.932 75.391C121.932 73.933 121.203 73.204 119.799 73.204H115.641V77.632ZM133.65 80.359V83.815H142.776V88H128.925V69.1H142.749V73.285H133.65V76.498H141.912V80.359H133.65ZM163.229 88H158.342L157.37 85.192H149.567L148.595 88H143.681L150.755 69.1H156.155L163.229 88ZM151.727 78.955L150.971 81.115H155.966L155.21 78.955C154.67 77.362 154.481 76.363 154.292 73.96H152.645C152.456 76.363 152.267 77.362 151.727 78.955ZM161.59 69.1H178.06V73.285H172.174V88H167.449V73.285H161.59V69.1ZM180.216 88V69.1H184.941V88H180.216ZM187.761 78.55C187.761 72.799 191.973 68.587 197.67 68.587C203.34 68.587 207.552 72.799 207.552 78.55C207.552 84.301 203.34 88.513 197.67 88.513C191.973 88.513 187.761 84.301 187.761 78.55ZM192.54 78.55C192.54 81.979 194.619 84.301 197.67 84.301C200.937 84.301 202.773 81.817 202.773 78.55C202.773 75.202 200.883 72.799 197.67 72.799C194.457 72.799 192.54 75.121 192.54 78.55ZM210.031 88V69.1H215.215L222.505 80.71H222.559V69.1H227.284V88H222.1L214.81 76.633H214.756V88H210.031ZM248.474 88H243.587L242.615 85.192H234.812L233.84 88H228.926L236 69.1H241.4L248.474 88ZM236.972 78.955L236.216 81.115H241.211L240.455 78.955C239.915 77.362 239.726 76.363 239.537 73.96H237.89C237.701 76.363 237.512 77.362 236.972 78.955ZM250.135 88V69.1H254.86V83.788H263.392V88H250.135Z" fill="#AA9CFF"/>
<path d="M79.7212 106.82C79.7212 100.448 84.0952 96.506 89.7112 96.587C94.1392 96.641 97.5682 99.179 98.4052 102.878L93.9502 104.12C93.3022 102.041 91.8442 100.799 89.5492 100.799C86.3632 100.799 84.5272 103.229 84.5272 106.631C84.5272 110.141 86.4982 112.49 89.8462 112.49C92.3572 112.49 94.0312 111.167 94.3822 109.385V109.25H89.5492V105.821H98.2972V116H94.3552V115.865C94.4902 115.217 94.9222 114.326 95.2732 113.516L93.8422 112.814C92.9242 114.92 91.2232 116.459 88.2262 116.459C82.6912 116.459 79.7212 112.058 79.7212 106.82ZM119.42 116H114.533L113.561 113.192H105.758L104.786 116H99.8719L106.946 97.1H112.346L119.42 116ZM107.918 106.955L107.162 109.115H112.157L111.401 106.955C110.861 105.362 110.672 104.363 110.483 101.96H108.836C108.647 104.363 108.458 105.362 107.918 106.955ZM125.59 116H121.081V97.1H128.587L130.423 104.525C130.963 106.739 130.963 108.089 131.017 109.574H132.394C132.448 108.062 132.421 106.82 132.988 104.525L134.824 97.1H142.33V116H137.821V111.815C137.821 109.007 138.118 107.225 139.549 102.014L137.524 101.447L133.555 116H129.856L125.887 101.447L123.862 102.014C125.293 107.225 125.59 109.007 125.59 111.815V116ZM150.248 108.359V111.815H159.374V116H145.523V97.1H159.347V101.285H150.248V104.498H158.51V108.359H150.248ZM160.981 110.195L165.193 109.385C165.355 111.464 167.002 112.598 169.351 112.598C171.079 112.598 172.213 111.896 172.213 110.6C172.213 109.412 171.376 108.845 168.352 108.386C163.33 107.63 161.548 105.74 161.548 102.554C161.548 98.747 164.545 96.614 169 96.614C173.509 96.614 176.695 98.855 176.992 102.23L172.618 103.229C172.267 101.312 170.971 100.421 168.946 100.421C167.164 100.421 166.273 101.096 166.273 102.149C166.273 103.661 167.758 103.931 171.376 104.498C175.453 105.173 176.965 107.171 176.965 110.276C176.965 114.272 173.698 116.513 169.081 116.513C164.086 116.513 161.224 113.975 160.981 110.195ZM185.423 110.195L189.635 109.385C189.797 111.464 191.444 112.598 193.793 112.598C195.521 112.598 196.655 111.896 196.655 110.6C196.655 109.412 195.818 108.845 192.794 108.386C187.772 107.63 185.99 105.74 185.99 102.554C185.99 98.747 188.987 96.614 193.442 96.614C197.951 96.614 201.137 98.855 201.434 102.23L197.06 103.229C196.709 101.312 195.413 100.421 193.388 100.421C191.606 100.421 190.715 101.096 190.715 102.149C190.715 103.661 192.2 103.931 195.818 104.498C199.895 105.173 201.407 107.171 201.407 110.276C201.407 114.272 198.14 116.513 193.523 116.513C188.528 116.513 185.666 113.975 185.423 110.195ZM203.821 97.1H211.921C217.078 97.1 220.561 100.475 220.561 106.55C220.561 112.706 217.24 116 211.84 116H203.821V97.1ZM208.546 111.815H211.516C214 111.815 215.836 110.681 215.836 106.55C215.836 102.959 214.351 101.285 211.516 101.285H208.546V111.815ZM223.069 116V97.1H227.794V99.611C227.794 101.987 227.578 102.959 226.201 104.579L227.281 105.605L234.571 97.1H240.214L233.248 105.146L240.322 116H234.679L229.954 108.494H229.9L227.794 111.194V116H223.069Z" fill="white"/>
<defs>
<clipPath id="clip0_7107_1272">
<rect width="30" height="30" fill="white" transform="translate(144.5 26)"/>
</clipPath>
</defs>
</svg>
