<svg width="714" height="84" viewBox="0 0 714 84" fill="none" xmlns="http://www.w3.org/2000/svg">
<mask id="path-1-inside-1_7755_4952" fill="white">
<path fill-rule="evenodd" clip-rule="evenodd" d="M348.041 2.5C347.327 1.26239 346.006 0.5 344.577 0.5H12C5.37258 0.5 0 5.87258 0 12.5V58.5C0 65.1274 5.37258 70.5 12 70.5H344.577C346.006 70.5 347.327 71.2624 348.041 72.5L353.526 82C355.066 84.6667 358.915 84.6667 360.454 82L365.939 72.5C366.654 71.2624 367.974 70.5 369.403 70.5H702C708.627 70.5 714 65.1274 714 58.5V12.5C714 5.87258 708.627 0.5 702 0.5H369.403C367.974 0.5 366.654 1.2624 365.939 2.5L360.454 12C358.915 14.6667 355.066 14.6667 353.526 12L348.041 2.5Z"/>
</mask>
<path fill-rule="evenodd" clip-rule="evenodd" d="M348.041 2.5C347.327 1.26239 346.006 0.5 344.577 0.5H12C5.37258 0.5 0 5.87258 0 12.5V58.5C0 65.1274 5.37258 70.5 12 70.5H344.577C346.006 70.5 347.327 71.2624 348.041 72.5L353.526 82C355.066 84.6667 358.915 84.6667 360.454 82L365.939 72.5C366.654 71.2624 367.974 70.5 369.403 70.5H702C708.627 70.5 714 65.1274 714 58.5V12.5C714 5.87258 708.627 0.5 702 0.5H369.403C367.974 0.5 366.654 1.2624 365.939 2.5L360.454 12C358.915 14.6667 355.066 14.6667 353.526 12L348.041 2.5Z" fill="#001341" fill-opacity="0.65"/>
<path d="M348.041 2.5L348.907 2V1.99999L348.041 2.5ZM365.939 2.5L365.073 1.99999V2L365.939 2.5ZM360.454 12L361.321 12.5V12.5L360.454 12ZM353.526 12L352.66 12.5V12.5L353.526 12ZM365.939 72.5L365.073 72L365.939 72.5ZM348.041 72.5L347.175 73L348.041 72.5ZM344.577 1.5C345.649 1.5 346.639 2.07179 347.175 3L348.907 1.99999C348.014 0.453002 346.364 -0.5 344.577 -0.5V1.5ZM12 1.5H344.577V-0.5H12V1.5ZM1 12.5C1 6.42487 5.92487 1.5 12 1.5V-0.5C4.8203 -0.5 -1 5.3203 -1 12.5H1ZM1 58.5V12.5H-1V58.5H1ZM12 69.5C5.92487 69.5 1 64.5751 1 58.5H-1C-1 65.6797 4.8203 71.5 12 71.5V69.5ZM344.577 69.5H12V71.5H344.577V69.5ZM354.392 81.5L348.907 72L347.175 73L352.66 82.5L354.392 81.5ZM365.073 72L359.588 81.5L361.321 82.5L366.805 73L365.073 72ZM702 69.5H369.403V71.5H702V69.5ZM713 58.5C713 64.5751 708.075 69.5 702 69.5V71.5C709.18 71.5 715 65.6797 715 58.5H713ZM713 12.5V58.5H715V12.5H713ZM702 1.5C708.075 1.5 713 6.42487 713 12.5H715C715 5.3203 709.18 -0.5 702 -0.5V1.5ZM369.403 1.5H702V-0.5H369.403V1.5ZM366.805 3C367.341 2.07179 368.332 1.5 369.403 1.5V-0.5C367.617 -0.5 365.966 0.452999 365.073 1.99999L366.805 3ZM361.321 12.5L366.805 3L365.073 2L359.588 11.5L361.321 12.5ZM352.66 12.5C354.585 15.8333 359.396 15.8333 361.321 12.5L359.588 11.5C358.434 13.5 355.547 13.5 354.392 11.5L352.66 12.5ZM347.175 3L352.66 12.5L354.392 11.5L348.907 2L347.175 3ZM366.805 73C367.341 72.0718 368.332 71.5 369.403 71.5V69.5C367.617 69.5 365.966 70.453 365.073 72L366.805 73ZM352.66 82.5C354.585 85.8333 359.396 85.8333 361.321 82.5L359.588 81.5C358.434 83.5 355.547 83.5 354.392 81.5L352.66 82.5ZM344.577 71.5C345.649 71.5 346.64 72.0718 347.175 73L348.907 72C348.014 70.453 346.364 69.5 344.577 69.5V71.5Z" fill="#2D74FE" mask="url(#path-1-inside-1_7755_4952)"/>
<path d="M261.185 30.691L252.465 34.0521L252.467 34.0559C251.818 34.2709 251.367 34.8632 251.367 35.6001C251.367 36.5274 252.076 37.2365 253.004 37.2365C253.392 37.2365 253.737 37.1072 254.013 36.8945L254.016 36.9005L261.185 30.691Z" stroke="#2D74FE" stroke-width="1.2" stroke-miterlimit="10" stroke-linecap="round" stroke-linejoin="round"/>
<path d="M253 25.724V26.8476M262.818 35.5422H261.695M243.182 35.5422H244.305M248.066 27.0429L248.653 28.0198M244.501 40.4758L245.478 39.8894M244.501 30.6091L245.478 31.1949M261.499 40.4758L260.522 39.8894M257.934 27.0429L257.347 28.0198M253 47.6C246.4 47.6 241 42.2 241 35.6C241 29 246.4 23.6 253 23.6C259.6 23.6 265 29 265 35.6C265 42.2 259.6 47.6 253 47.6Z" stroke="#2D74FE" stroke-width="1.2" stroke-miterlimit="10" stroke-linecap="round" stroke-linejoin="round"/>
<path d="M292.218 40.2L292.778 41.56C293.018 42.1 293.198 42.48 293.578 42.7V43H289.658C289.398 42.78 289.298 42.54 289.238 42.32L288.378 40.18C287.818 38.76 287.458 38.36 286.198 38.36H285.178V43H281.678V29H289.098C291.798 29 293.338 30.46 293.338 32.8C293.338 35.4 291.818 36.62 289.078 36.8V37.8C290.718 38 291.398 38.22 292.218 40.2ZM285.178 35.32H288.258C289.218 35.32 289.838 34.72 289.838 33.66C289.838 32.58 289.298 32.04 288.258 32.04H285.178V35.32ZM295.238 43V29H298.738V43H295.238ZM300.706 38.7L303.826 38.1C303.946 39.64 305.166 40.48 306.906 40.48C308.186 40.48 309.026 39.96 309.026 39C309.026 38.12 308.406 37.7 306.166 37.36C302.446 36.8 301.126 35.4 301.126 33.04C301.126 30.22 303.346 28.64 306.646 28.64C309.986 28.64 312.346 30.3 312.566 32.8L309.326 33.54C309.066 32.12 308.106 31.46 306.606 31.46C305.286 31.46 304.626 31.96 304.626 32.74C304.626 33.86 305.726 34.06 308.406 34.48C311.426 34.98 312.546 36.46 312.546 38.76C312.546 41.72 310.126 43.38 306.706 43.38C303.006 43.38 300.886 41.5 300.706 38.7ZM314.334 43V29H317.834V30.86C317.834 32.62 317.674 33.34 316.654 34.54L317.454 35.3L322.854 29H327.034L321.874 34.96L327.114 43H322.934L319.434 37.44H319.394L317.834 39.44V43H314.334ZM336.639 43H333.299V29H338.859L340.219 34.5C340.619 36.14 340.619 37.14 340.659 38.24H341.679C341.719 37.12 341.699 36.2 342.119 34.5L343.479 29H349.039V43H345.699V39.9C345.699 37.82 345.919 36.5 346.979 32.64L345.479 32.22L342.539 43H339.799L336.859 32.22L335.359 32.64C336.419 36.5 336.639 37.82 336.639 39.9V43ZM364.745 43H361.125L360.405 40.92H354.625L353.905 43H350.265L355.505 29H359.505L364.745 43ZM356.225 36.3L355.665 37.9H359.365L358.805 36.3C358.405 35.12 358.265 34.38 358.125 32.6H356.905C356.765 34.38 356.625 35.12 356.225 36.3ZM365.975 43V29H369.815L375.215 37.6H375.255V29H378.755V43H374.915L369.515 34.58H369.475V43H365.975ZM394.452 43H390.832L390.112 40.92H384.332L383.612 43H379.972L385.212 29H389.212L394.452 43ZM385.932 36.3L385.372 37.9H389.072L388.512 36.3C388.112 35.12 387.972 34.38 387.832 32.6H386.612C386.472 34.38 386.332 35.12 385.932 36.3ZM394.616 36.2C394.616 31.48 397.856 28.56 402.016 28.62C405.296 28.66 407.836 30.54 408.456 33.28L405.156 34.2C404.676 32.66 403.596 31.74 401.896 31.74C399.536 31.74 398.176 33.54 398.176 36.06C398.176 38.66 399.636 40.4 402.116 40.4C403.976 40.4 405.216 39.42 405.476 38.1V38H401.896V35.46H408.376V43H405.456V42.9C405.556 42.42 405.876 41.76 406.136 41.16L405.076 40.64C404.396 42.2 403.136 43.34 400.916 43.34C396.816 43.34 394.616 40.08 394.616 36.2ZM414.182 37.34V39.9H420.942V43H410.682V29H420.922V32.1H414.182V34.48H420.302V37.34H414.182ZM426.092 43H422.752V29H428.312L429.672 34.5C430.072 36.14 430.072 37.14 430.112 38.24H431.132C431.172 37.12 431.152 36.2 431.572 34.5L432.932 29H438.492V43H435.152V39.9C435.152 37.82 435.372 36.5 436.432 32.64L434.932 32.22L431.992 43H429.252L426.312 32.22L424.812 32.64C425.872 36.5 426.092 37.82 426.092 39.9V43ZM444.358 37.34V39.9H451.118V43H440.858V29H451.098V32.1H444.358V34.48H450.478V37.34H444.358ZM452.928 43V29H456.768L462.168 37.6H462.208V29H465.708V43H461.868L456.468 34.58H456.428V43H452.928ZM467.105 29H479.305V32.1H474.945V43H471.445V32.1H467.105V29Z" fill="white"/>
</svg>
