<svg width="714" height="99" viewBox="0 0 714 99" fill="none" xmlns="http://www.w3.org/2000/svg">
<mask id="path-1-inside-1_7146_279" fill="white">
<path fill-rule="evenodd" clip-rule="evenodd" d="M346.887 2C346.172 0.762396 344.852 0 343.423 0H12C5.37258 0 0 5.37258 0 12V73C0 79.6274 5.37258 85 12 85H344.577C346.006 85 347.327 85.7624 348.041 87L353.526 96.5C355.066 99.1667 358.915 99.1667 360.454 96.5L365.939 87C366.654 85.7624 367.974 85 369.403 85H702C708.627 85 714 79.6274 714 73V12C714 5.37258 708.627 0 702 0H370.558C369.129 0 367.809 0.762396 367.094 2L360.454 13.5C358.915 16.1667 355.066 16.1667 353.526 13.5L346.887 2Z"/>
</mask>
<path fill-rule="evenodd" clip-rule="evenodd" d="M346.887 2C346.172 0.762396 344.852 0 343.423 0H12C5.37258 0 0 5.37258 0 12V73C0 79.6274 5.37258 85 12 85H344.577C346.006 85 347.327 85.7624 348.041 87L353.526 96.5C355.066 99.1667 358.915 99.1667 360.454 96.5L365.939 87C366.654 85.7624 367.974 85 369.403 85H702C708.627 85 714 79.6274 714 73V12C714 5.37258 708.627 0 702 0H370.558C369.129 0 367.809 0.762396 367.094 2L360.454 13.5C358.915 16.1667 355.066 16.1667 353.526 13.5L346.887 2Z" fill="#001341" fill-opacity="0.65"/>
<path d="M346.887 2L347.753 1.5L347.753 1.5L346.887 2ZM367.094 2L366.228 1.5L366.228 1.5L367.094 2ZM360.454 13.5L361.321 14L361.321 14L360.454 13.5ZM353.526 13.5L352.66 14L352.66 14L353.526 13.5ZM365.939 87L365.073 86.5L365.939 87ZM348.041 87L347.175 87.5L348.041 87ZM343.423 1C344.494 1 345.485 1.57179 346.021 2.5L347.753 1.5C346.86 -0.0469962 345.209 -1 343.423 -1V1ZM12 1H343.423V-1H12V1ZM1 12C1 5.92487 5.92487 1 12 1V-1C4.8203 -1 -1 4.8203 -1 12H1ZM1 73V12H-1V73H1ZM12 84C5.92487 84 1 79.0751 1 73H-1C-1 80.1797 4.8203 86 12 86V84ZM344.577 84H12V86H344.577V84ZM354.392 96L348.907 86.5L347.175 87.5L352.66 97L354.392 96ZM365.073 86.5L359.588 96L361.321 97L366.805 87.5L365.073 86.5ZM702 84H369.403V86H702V84ZM713 73C713 79.0751 708.075 84 702 84V86C709.18 86 715 80.1797 715 73H713ZM713 12V73H715V12H713ZM702 1C708.075 1 713 5.92487 713 12H715C715 4.8203 709.18 -1 702 -1V1ZM370.558 1H702V-1H370.558V1ZM367.96 2.5C368.496 1.57179 369.486 1 370.558 1V-1C368.772 -1 367.121 -0.0470001 366.228 1.5L367.96 2.5ZM361.321 14L367.96 2.5L366.228 1.5L359.588 13L361.321 14ZM352.66 14C354.585 17.3333 359.396 17.3333 361.321 14L359.588 13C358.434 15 355.547 15 354.392 13L352.66 14ZM346.021 2.5L352.66 14L354.392 13L347.753 1.5L346.021 2.5ZM366.805 87.5C367.341 86.5718 368.332 86 369.403 86V84C367.617 84 365.966 84.953 365.073 86.5L366.805 87.5ZM352.66 97C354.585 100.333 359.396 100.333 361.321 97L359.588 96C358.434 98 355.547 98 354.392 96L352.66 97ZM344.577 86C345.649 86 346.64 86.5718 347.175 87.5L348.907 86.5C348.014 84.953 346.364 84 344.577 84V86Z" fill="#2D74FE" mask="url(#path-1-inside-1_7146_279)"/>
<path d="M261.185 38.1912L252.465 41.5523L252.467 41.5561C251.818 41.771 251.367 42.3633 251.367 43.1003C251.367 44.0275 252.076 44.7366 253.004 44.7366C253.392 44.7366 253.737 44.6073 254.013 44.3946L254.016 44.4006L261.185 38.1912Z" stroke="#2D74FE" stroke-width="1.2" stroke-miterlimit="10" stroke-linecap="round" stroke-linejoin="round"/>
<path d="M253 33.2241V34.3477M262.818 43.0423H261.695M243.182 43.0423H244.305M248.066 34.543L248.653 35.5199M244.501 47.9759L245.478 47.3896M244.501 38.1092L245.478 38.695M261.499 47.9759L260.522 47.3896M257.934 34.543L257.347 35.5199M253 55.1001C246.4 55.1001 241 49.7001 241 43.1001C241 36.5001 246.4 31.1001 253 31.1001C259.6 31.1001 265 36.5001 265 43.1001C265 49.7001 259.6 55.1001 253 55.1001Z" stroke="#2D74FE" stroke-width="1.2" stroke-miterlimit="10" stroke-linecap="round" stroke-linejoin="round"/>
<path d="M292.218 47.7L292.778 49.06C293.018 49.6 293.198 49.98 293.578 50.2V50.5H289.658C289.398 50.28 289.298 50.04 289.238 49.82L288.378 47.68C287.818 46.26 287.458 45.86 286.198 45.86H285.178V50.5H281.678V36.5H289.098C291.798 36.5 293.338 37.96 293.338 40.3C293.338 42.9 291.818 44.12 289.078 44.3V45.3C290.718 45.5 291.398 45.72 292.218 47.7ZM285.178 42.82H288.258C289.218 42.82 289.838 42.22 289.838 41.16C289.838 40.08 289.298 39.54 288.258 39.54H285.178V42.82ZM295.238 50.5V36.5H298.738V50.5H295.238ZM300.706 46.2L303.826 45.6C303.946 47.14 305.166 47.98 306.906 47.98C308.186 47.98 309.026 47.46 309.026 46.5C309.026 45.62 308.406 45.2 306.166 44.86C302.446 44.3 301.126 42.9 301.126 40.54C301.126 37.72 303.346 36.14 306.646 36.14C309.986 36.14 312.346 37.8 312.566 40.3L309.326 41.04C309.066 39.62 308.106 38.96 306.606 38.96C305.286 38.96 304.626 39.46 304.626 40.24C304.626 41.36 305.726 41.56 308.406 41.98C311.426 42.48 312.546 43.96 312.546 46.26C312.546 49.22 310.126 50.88 306.706 50.88C303.006 50.88 300.886 49 300.706 46.2ZM314.334 50.5V36.5H317.834V38.36C317.834 40.12 317.674 40.84 316.654 42.04L317.454 42.8L322.854 36.5H327.034L321.874 42.46L327.114 50.5H322.934L319.434 44.94H319.394L317.834 46.94V50.5H314.334ZM336.639 50.5H333.299V36.5H338.859L340.219 42C340.619 43.64 340.619 44.64 340.659 45.74H341.679C341.719 44.62 341.699 43.7 342.119 42L343.479 36.5H349.039V50.5H345.699V47.4C345.699 45.32 345.919 44 346.979 40.14L345.479 39.72L342.539 50.5H339.799L336.859 39.72L335.359 40.14C336.419 44 336.639 45.32 336.639 47.4V50.5ZM364.745 50.5H361.125L360.405 48.42H354.625L353.905 50.5H350.265L355.505 36.5H359.505L364.745 50.5ZM356.225 43.8L355.665 45.4H359.365L358.805 43.8C358.405 42.62 358.265 41.88 358.125 40.1H356.905C356.765 41.88 356.625 42.62 356.225 43.8ZM365.975 50.5V36.5H369.815L375.215 45.1H375.255V36.5H378.755V50.5H374.915L369.515 42.08H369.475V50.5H365.975ZM394.452 50.5H390.832L390.112 48.42H384.332L383.612 50.5H379.972L385.212 36.5H389.212L394.452 50.5ZM385.932 43.8L385.372 45.4H389.072L388.512 43.8C388.112 42.62 387.972 41.88 387.832 40.1H386.612C386.472 41.88 386.332 42.62 385.932 43.8ZM394.616 43.7C394.616 38.98 397.856 36.06 402.016 36.12C405.296 36.16 407.836 38.04 408.456 40.78L405.156 41.7C404.676 40.16 403.596 39.24 401.896 39.24C399.536 39.24 398.176 41.04 398.176 43.56C398.176 46.16 399.636 47.9 402.116 47.9C403.976 47.9 405.216 46.92 405.476 45.6V45.5H401.896V42.96H408.376V50.5H405.456V50.4C405.556 49.92 405.876 49.26 406.136 48.66L405.076 48.14C404.396 49.7 403.136 50.84 400.916 50.84C396.816 50.84 394.616 47.58 394.616 43.7ZM414.182 44.84V47.4H420.942V50.5H410.682V36.5H420.922V39.6H414.182V41.98H420.302V44.84H414.182ZM426.092 50.5H422.752V36.5H428.312L429.672 42C430.072 43.64 430.072 44.64 430.112 45.74H431.132C431.172 44.62 431.152 43.7 431.572 42L432.932 36.5H438.492V50.5H435.152V47.4C435.152 45.32 435.372 44 436.432 40.14L434.932 39.72L431.992 50.5H429.252L426.312 39.72L424.812 40.14C425.872 44 426.092 45.32 426.092 47.4V50.5ZM444.358 44.84V47.4H451.118V50.5H440.858V36.5H451.098V39.6H444.358V41.98H450.478V44.84H444.358ZM452.928 50.5V36.5H456.768L462.168 45.1H462.208V36.5H465.708V50.5H461.868L456.468 42.08H456.428V50.5H452.928ZM467.105 36.5H479.305V39.6H474.945V50.5H471.445V39.6H467.105V36.5Z" fill="white"/>
</svg>
