<svg width="372" height="59" viewBox="0 0 372 59" fill="none" xmlns="http://www.w3.org/2000/svg">
<rect x="0.472909" y="1.01051" width="371.222" height="57.1941" rx="6.20502" fill="#001341" fill-opacity="0.65"/>
<rect x="0.472909" y="1.01051" width="371.222" height="57.1941" rx="6.20502" stroke="#A68EFF" stroke-width="0.539567"/>
<g clip-path="url(#clip0_7144_441)">
<path d="M52.643 15.709C52.643 19.9969 43.6155 18.0912 43.6155 25.2377M43.5907 25.2377C41.1332 25.2377 40.8074 23.8084 38.3499 23.8084C35.8929 23.8084 32.1562 30.002 32.1562 34.7664C32.1562 36.6721 33.1091 38.1015 34.5384 38.1015C38.8263 38.1015 40.7321 33.8135 43.5907 33.8135C46.4493 33.8135 48.3551 38.1015 52.643 38.1015C54.0723 38.1015 55.0252 36.6721 55.0252 34.7664C55.0252 30.002 51.2885 23.8084 48.8315 23.8084C46.374 23.8084 46.0482 25.2377 43.5907 25.2377Z" stroke="#AA9CFF" stroke-width="1.28201" stroke-miterlimit="10" stroke-linecap="round" stroke-linejoin="round"/>
<path d="M40.2489 30.9547H38.8196V32.384H37.3902V30.9547H35.9609V29.5254H37.3902V28.0961H38.8196V29.5254H40.2489V30.9547ZM49.3011 27.6196C49.0484 27.6196 48.806 27.72 48.6274 27.8987C48.4487 28.0774 48.3483 28.3198 48.3483 28.5725C48.3483 28.8252 48.4487 29.0676 48.6274 29.2463C48.806 29.425 49.0484 29.5254 49.3011 29.5254C49.5539 29.5254 49.7962 29.425 49.9749 29.2463C50.1536 29.0676 50.254 28.8252 50.254 28.5725C50.254 28.3198 50.1536 28.0774 49.9749 27.8987C49.7962 27.72 49.5539 27.6196 49.3011 27.6196ZM49.3011 31.4311C49.0484 31.4311 48.806 31.5315 48.6274 31.7102C48.4487 31.8889 48.3483 32.1313 48.3483 32.384C48.3483 32.6367 48.4487 32.8791 48.6274 33.0578C48.806 33.2365 49.0484 33.3369 49.3011 33.3369C49.5539 33.3369 49.7962 33.2365 49.9749 33.0578C50.1536 32.8791 50.254 32.6367 50.254 32.384C50.254 32.1313 50.1536 31.8889 49.9749 31.7102C49.7962 31.5315 49.5539 31.4311 49.3011 31.4311ZM51.2069 29.5254C50.9542 29.5254 50.7118 29.6258 50.5331 29.8045C50.3544 29.9832 50.254 30.2255 50.254 30.4782C50.254 30.731 50.3544 30.9733 50.5331 31.152C50.7118 31.3307 50.9542 31.4311 51.2069 31.4311C51.4596 31.4311 51.702 31.3307 51.8807 31.152C52.0594 30.9733 52.1597 30.731 52.1597 30.4782C52.1597 30.2255 52.0594 29.9832 51.8807 29.8045C51.702 29.6258 51.4596 29.5254 51.2069 29.5254ZM47.3954 29.5254C47.1427 29.5254 46.9003 29.6258 46.7216 29.8045C46.5429 29.9832 46.4425 30.2255 46.4425 30.4782C46.4425 30.731 46.5429 30.9733 46.7216 31.152C46.9003 31.3307 47.1427 31.4311 47.3954 31.4311C47.6481 31.4311 47.8905 31.3307 48.0692 31.152C48.2479 30.9733 48.3483 30.731 48.3483 30.4782C48.3483 30.2255 48.2479 29.9832 48.0692 29.8045C47.8905 29.6258 47.6481 29.5254 47.3954 29.5254Z" fill="#AA9CFF"/>
</g>
<path d="M82.8598 33.9483L83.4758 35.4443C83.7398 36.0383 83.9378 36.4563 84.3558 36.6983V37.0283H80.0438C79.7578 36.7863 79.6478 36.5223 79.5818 36.2803L78.6358 33.9263C78.0198 32.3643 77.6238 31.9243 76.2378 31.9243H75.1158V37.0283H71.2658V21.6283H79.4278C82.3978 21.6283 84.0918 23.2343 84.0918 25.8083C84.0918 28.6683 82.4198 30.0103 79.4058 30.2083V31.3083C81.2098 31.5283 81.9578 31.7703 82.8598 33.9483ZM75.1158 28.5803H78.5038C79.5598 28.5803 80.2418 27.9203 80.2418 26.7543C80.2418 25.5663 79.6478 24.9723 78.5038 24.9723H75.1158V28.5803ZM89.7896 30.8023V33.6183H97.2256V37.0283H85.9396V21.6283H97.2036V25.0383H89.7896V27.6563H96.5216V30.8023H89.7896ZM98.1728 29.3283C98.1728 24.9723 101.209 21.1663 106.291 21.2103C109.899 21.2323 112.759 23.3223 113.441 26.5563L109.833 27.5463C109.327 25.6763 108.051 24.6423 106.225 24.6423C103.761 24.6423 102.067 26.5343 102.067 29.3283C102.067 32.1223 103.761 34.0143 106.225 34.0143C108.117 34.0143 109.459 32.8923 109.921 30.8023L113.573 31.7043C112.935 35.2903 110.009 37.4243 106.291 37.4463C101.209 37.4903 98.1728 33.6843 98.1728 29.3283ZM126.924 33.9483L127.54 35.4443C127.804 36.0383 128.002 36.4563 128.42 36.6983V37.0283H124.108C123.822 36.7863 123.712 36.5223 123.646 36.2803L122.7 33.9263C122.084 32.3643 121.688 31.9243 120.302 31.9243H119.18V37.0283H115.33V21.6283H123.492C126.462 21.6283 128.156 23.2343 128.156 25.8083C128.156 28.6683 126.484 30.0103 123.47 30.2083V31.3083C125.274 31.5283 126.022 31.7703 126.924 33.9483ZM119.18 28.5803H122.568C123.624 28.5803 124.306 27.9203 124.306 26.7543C124.306 25.5663 123.712 24.9723 122.568 24.9723H119.18V28.5803ZM133.854 30.8023V33.6183H141.29V37.0283H130.004V21.6283H141.268V25.0383H133.854V27.6563H140.586V30.8023H133.854ZM157.955 37.0283H153.973L153.181 34.7403H146.823L146.031 37.0283H142.027L147.791 21.6283H152.191L157.955 37.0283ZM148.583 29.6583L147.967 31.4183H152.037L151.421 29.6583C150.981 28.3603 150.827 27.5463 150.673 25.5883H149.331C149.177 27.5463 149.023 28.3603 148.583 29.6583ZM156.62 21.6283H170.04V25.0383H165.244V37.0283H161.394V25.0383H156.62V21.6283ZM171.797 37.0283V21.6283H175.647V37.0283H171.797ZM177.944 29.3283C177.944 24.6423 181.376 21.2103 186.018 21.2103C190.638 21.2103 194.07 24.6423 194.07 29.3283C194.07 34.0143 190.638 37.4463 186.018 37.4463C181.376 37.4463 177.944 34.0143 177.944 29.3283ZM181.838 29.3283C181.838 32.1223 183.532 34.0143 186.018 34.0143C188.68 34.0143 190.176 31.9903 190.176 29.3283C190.176 26.6003 188.636 24.6423 186.018 24.6423C183.4 24.6423 181.838 26.5343 181.838 29.3283ZM196.09 37.0283V21.6283H200.314L206.254 31.0883H206.298V21.6283H210.148V37.0283H205.924L199.984 27.7663H199.94V37.0283H196.09ZM227.414 37.0283H223.432L222.64 34.7403H216.282L215.49 37.0283H211.486L217.25 21.6283H221.65L227.414 37.0283ZM218.042 29.6583L217.426 31.4183H221.496L220.88 29.6583C220.44 28.3603 220.286 27.5463 220.132 25.5883H218.79C218.636 27.5463 218.482 28.3603 218.042 29.6583ZM228.768 37.0283V21.6283H232.618V33.5963H239.57V37.0283H228.768Z" fill="#AA9CFF"/>
<path d="M246.222 29.5483C246.222 24.3563 249.786 21.1443 254.362 21.2103C257.97 21.2543 260.764 23.3223 261.446 26.3363L257.816 27.3483C257.288 25.6543 256.1 24.6423 254.23 24.6423C251.634 24.6423 250.138 26.6223 250.138 29.3943C250.138 32.2543 251.744 34.1683 254.472 34.1683C256.518 34.1683 257.882 33.0903 258.168 31.6383V31.5283H254.23V28.7343H261.358V37.0283H258.146V36.9183C258.256 36.3903 258.608 35.6643 258.894 35.0043L257.728 34.4323C256.98 36.1483 255.594 37.4023 253.152 37.4023C248.642 37.4023 246.222 33.8163 246.222 29.5483ZM278.569 37.0283H274.587L273.795 34.7403H267.437L266.645 37.0283H262.641L268.405 21.6283H272.805L278.569 37.0283ZM269.197 29.6583L268.581 31.4183H272.651L272.035 29.6583C271.595 28.3603 271.441 27.5463 271.287 25.5883H269.945C269.791 27.5463 269.637 28.3603 269.197 29.6583ZM283.596 37.0283H279.922V21.6283H286.038L287.534 27.6783C287.974 29.4823 287.974 30.5823 288.018 31.7923H289.14C289.184 30.5603 289.162 29.5483 289.624 27.6783L291.12 21.6283H297.236V37.0283H293.562V33.6183C293.562 31.3303 293.804 29.8783 294.97 25.6323L293.32 25.1703L290.086 37.0283H287.072L283.838 25.1703L282.188 25.6323C283.354 29.8783 283.596 31.3303 283.596 33.6183V37.0283ZM303.688 30.8023V33.6183H311.124V37.0283H299.838V21.6283H311.102V25.0383H303.688V27.6563H310.42V30.8023H303.688ZM312.433 32.2983L315.865 31.6383C315.997 33.3323 317.339 34.2563 319.253 34.2563C320.661 34.2563 321.585 33.6843 321.585 32.6283C321.585 31.6603 320.903 31.1983 318.439 30.8243C314.347 30.2083 312.895 28.6683 312.895 26.0723C312.895 22.9703 315.337 21.2323 318.967 21.2323C322.641 21.2323 325.237 23.0583 325.479 25.8083L321.915 26.6223C321.629 25.0603 320.573 24.3343 318.923 24.3343C317.471 24.3343 316.745 24.8843 316.745 25.7423C316.745 26.9743 317.955 27.1943 320.903 27.6563C324.225 28.2063 325.457 29.8343 325.457 32.3643C325.457 35.6203 322.795 37.4463 319.033 37.4463C314.963 37.4463 312.631 35.3783 312.433 32.2983Z" fill="white"/>
<defs>
<clipPath id="clip0_7144_441">
<rect width="25.6402" height="25.6402" fill="white" transform="translate(31.0859 15.7083)"/>
</clipPath>
</defs>
</svg>
