<svg width="372" height="59" viewBox="0 0 372 59" fill="none" xmlns="http://www.w3.org/2000/svg">
<rect x="0.472909" y="1.01051" width="371.222" height="57.1941" rx="6.20502" fill="#001341" fill-opacity="0.65"/>
<rect x="0.472909" y="1.01051" width="371.222" height="57.1941" rx="6.20502" stroke="#A68EFF" stroke-width="0.539567"/>
<g clip-path="url(#clip0_7128_576)">
<path d="M52.643 15.709C52.643 19.9969 43.6155 18.0912 43.6155 25.2377M43.5907 25.2377C41.1332 25.2377 40.8074 23.8084 38.3499 23.8084C35.8929 23.8084 32.1562 30.002 32.1562 34.7664C32.1562 36.6721 33.1091 38.1015 34.5384 38.1015C38.8263 38.1015 40.7321 33.8135 43.5907 33.8135C46.4493 33.8135 48.3551 38.1015 52.643 38.1015C54.0723 38.1015 55.0252 36.6721 55.0252 34.7664C55.0252 30.002 51.2885 23.8084 48.8315 23.8084C46.374 23.8084 46.0482 25.2377 43.5907 25.2377Z" stroke="#AA9CFF" stroke-width="1.28201" stroke-miterlimit="10" stroke-linecap="round" stroke-linejoin="round"/>
<path d="M40.2489 30.9547H38.8196V32.384H37.3902V30.9547H35.9609V29.5254H37.3902V28.0961H38.8196V29.5254H40.2489V30.9547ZM49.3011 27.6196C49.0484 27.6196 48.806 27.72 48.6274 27.8987C48.4487 28.0774 48.3483 28.3198 48.3483 28.5725C48.3483 28.8252 48.4487 29.0676 48.6274 29.2463C48.806 29.425 49.0484 29.5254 49.3011 29.5254C49.5539 29.5254 49.7962 29.425 49.9749 29.2463C50.1536 29.0676 50.254 28.8252 50.254 28.5725C50.254 28.3198 50.1536 28.0774 49.9749 27.8987C49.7962 27.72 49.5539 27.6196 49.3011 27.6196ZM49.3011 31.4311C49.0484 31.4311 48.806 31.5315 48.6274 31.7102C48.4487 31.8889 48.3483 32.1313 48.3483 32.384C48.3483 32.6367 48.4487 32.8791 48.6274 33.0578C48.806 33.2365 49.0484 33.3369 49.3011 33.3369C49.5539 33.3369 49.7962 33.2365 49.9749 33.0578C50.1536 32.8791 50.254 32.6367 50.254 32.384C50.254 32.1313 50.1536 31.8889 49.9749 31.7102C49.7962 31.5315 49.5539 31.4311 49.3011 31.4311ZM51.2069 29.5254C50.9542 29.5254 50.7118 29.6258 50.5331 29.8045C50.3544 29.9832 50.254 30.2255 50.254 30.4782C50.254 30.731 50.3544 30.9733 50.5331 31.152C50.7118 31.3307 50.9542 31.4311 51.2069 31.4311C51.4596 31.4311 51.702 31.3307 51.8807 31.152C52.0594 30.9733 52.1597 30.731 52.1597 30.4782C52.1597 30.2255 52.0594 29.9832 51.8807 29.8045C51.702 29.6258 51.4596 29.5254 51.2069 29.5254ZM47.3954 29.5254C47.1427 29.5254 46.9003 29.6258 46.7216 29.8045C46.5429 29.9832 46.4425 30.2255 46.4425 30.4782C46.4425 30.731 46.5429 30.9733 46.7216 31.152C46.9003 31.3307 47.1427 31.4311 47.3954 31.4311C47.6481 31.4311 47.8905 31.3307 48.0692 31.152C48.2479 30.9733 48.3483 30.731 48.3483 30.4782C48.3483 30.2255 48.2479 29.9832 48.0692 29.8045C47.8905 29.6258 47.6481 29.5254 47.3954 29.5254Z" fill="#AA9CFF"/>
</g>
<path d="M81.1076 33.3683L81.6396 34.6603C81.8676 35.1733 82.0386 35.5343 82.3996 35.7433V36.0283H78.6756C78.4286 35.8193 78.3336 35.5913 78.2766 35.3823L77.4596 33.3493C76.9276 32.0003 76.5856 31.6203 75.3886 31.6203H74.4196V36.0283H71.0946V22.7283H78.1436C80.7086 22.7283 82.1716 24.1153 82.1716 26.3383C82.1716 28.8083 80.7276 29.9673 78.1246 30.1383V31.0883C79.6826 31.2783 80.3286 31.4873 81.1076 33.3683ZM74.4196 28.7323H77.3456C78.2576 28.7323 78.8466 28.1623 78.8466 27.1553C78.8466 26.1293 78.3336 25.6163 77.3456 25.6163H74.4196V28.7323ZM87.0925 30.6513V33.0833H93.5145V36.0283H83.7675V22.7283H93.4955V25.6733H87.0925V27.9343H92.9065V30.6513H87.0925ZM94.3325 29.3783C94.3325 25.6163 96.9545 22.3293 101.344 22.3673C104.46 22.3863 106.93 24.1913 107.519 26.9843L104.403 27.8393C103.966 26.2243 102.864 25.3313 101.287 25.3313C99.1585 25.3313 97.6955 26.9653 97.6955 29.3783C97.6955 31.7913 99.1585 33.4253 101.287 33.4253C102.921 33.4253 104.08 32.4563 104.479 30.6513L107.633 31.4303C107.082 34.5273 104.555 36.3703 101.344 36.3893C96.9545 36.4273 94.3325 33.1403 94.3325 29.3783ZM119.163 33.3683L119.695 34.6603C119.923 35.1733 120.094 35.5343 120.455 35.7433V36.0283H116.731C116.484 35.8193 116.389 35.5913 116.332 35.3823L115.515 33.3493C114.983 32.0003 114.641 31.6203 113.444 31.6203H112.475V36.0283H109.15V22.7283H116.199C118.764 22.7283 120.227 24.1153 120.227 26.3383C120.227 28.8083 118.783 29.9673 116.18 30.1383V31.0883C117.738 31.2783 118.384 31.4873 119.163 33.3683ZM112.475 28.7323H115.401C116.313 28.7323 116.902 28.1623 116.902 27.1553C116.902 26.1293 116.389 25.6163 115.401 25.6163H112.475V28.7323ZM125.148 30.6513V33.0833H131.57V36.0283H121.823V22.7283H131.551V25.6733H125.148V27.9343H130.962V30.6513H125.148ZM145.963 36.0283H142.524L141.84 34.0523H136.349L135.665 36.0283H132.207L137.185 22.7283H140.985L145.963 36.0283ZM137.869 29.6633L137.337 31.1833H140.852L140.32 29.6633C139.94 28.5423 139.807 27.8393 139.674 26.1483H138.515C138.382 27.8393 138.249 28.5423 137.869 29.6633ZM144.81 22.7283H156.4V25.6733H152.258V36.0283H148.933V25.6733H144.81V22.7283ZM157.917 36.0283V22.7283H161.242V36.0283H157.917ZM163.226 29.3783C163.226 25.3313 166.19 22.3673 170.199 22.3673C174.189 22.3673 177.153 25.3313 177.153 29.3783C177.153 33.4253 174.189 36.3893 170.199 36.3893C166.19 36.3893 163.226 33.4253 163.226 29.3783ZM166.589 29.3783C166.589 31.7913 168.052 33.4253 170.199 33.4253C172.498 33.4253 173.79 31.6773 173.79 29.3783C173.79 27.0223 172.46 25.3313 170.199 25.3313C167.938 25.3313 166.589 26.9653 166.589 29.3783ZM178.897 36.0283V22.7283H182.545L187.675 30.8983H187.713V22.7283H191.038V36.0283H187.39L182.26 28.0293H182.222V36.0283H178.897ZM205.95 36.0283H202.511L201.827 34.0523H196.336L195.652 36.0283H192.194L197.172 22.7283H200.972L205.95 36.0283ZM197.856 29.6633L197.324 31.1833H200.839L200.307 29.6633C199.927 28.5423 199.794 27.8393 199.661 26.1483H198.502C198.369 27.8393 198.236 28.5423 197.856 29.6633ZM207.119 36.0283V22.7283H210.444V33.0643H216.448V36.0283H207.119Z" fill="#AA9CFF"/>
<path d="M222.193 29.5683C222.193 25.0843 225.271 22.3103 229.223 22.3673C232.339 22.4053 234.752 24.1913 235.341 26.7943L232.206 27.6683C231.75 26.2053 230.724 25.3313 229.109 25.3313C226.867 25.3313 225.575 27.0413 225.575 29.4353C225.575 31.9053 226.962 33.5583 229.318 33.5583C231.085 33.5583 232.263 32.6273 232.51 31.3733V31.2783H229.109V28.8653H235.265V36.0283H232.491V35.9333C232.586 35.4773 232.89 34.8503 233.137 34.2803L232.13 33.7863C231.484 35.2683 230.287 36.3513 228.178 36.3513C224.283 36.3513 222.193 33.2543 222.193 29.5683ZM250.129 36.0283H246.69L246.006 34.0523H240.515L239.831 36.0283H236.373L241.351 22.7283H245.151L250.129 36.0283ZM242.035 29.6633L241.503 31.1833H245.018L244.486 29.6633C244.106 28.5423 243.973 27.8393 243.84 26.1483H242.681C242.548 27.8393 242.415 28.5423 242.035 29.6633ZM254.471 36.0283H251.298V22.7283H256.58L257.872 27.9533C258.252 29.5113 258.252 30.4613 258.29 31.5063H259.259C259.297 30.4423 259.278 29.5683 259.677 27.9533L260.969 22.7283H266.251V36.0283H263.078V33.0833C263.078 31.1073 263.287 29.8533 264.294 26.1863L262.869 25.7873L260.076 36.0283H257.473L254.68 25.7873L253.255 26.1863C254.262 29.8533 254.471 31.1073 254.471 33.0833V36.0283ZM271.823 30.6513V33.0833H278.245V36.0283H268.498V22.7283H278.226V25.6733H271.823V27.9343H277.637V30.6513H271.823ZM279.376 31.9433L282.34 31.3733C282.454 32.8363 283.613 33.6343 285.266 33.6343C286.482 33.6343 287.28 33.1403 287.28 32.2283C287.28 31.3923 286.691 30.9933 284.563 30.6703C281.029 30.1383 279.775 28.8083 279.775 26.5663C279.775 23.8873 281.884 22.3863 285.019 22.3863C288.192 22.3863 290.434 23.9633 290.643 26.3383L287.565 27.0413C287.318 25.6923 286.406 25.0653 284.981 25.0653C283.727 25.0653 283.1 25.5403 283.1 26.2813C283.1 27.3453 284.145 27.5353 286.691 27.9343C289.56 28.4093 290.624 29.8153 290.624 32.0003C290.624 34.8123 288.325 36.3893 285.076 36.3893C281.561 36.3893 279.547 34.6033 279.376 31.9433ZM296.576 31.9433L299.54 31.3733C299.654 32.8363 300.813 33.6343 302.466 33.6343C303.682 33.6343 304.48 33.1403 304.48 32.2283C304.48 31.3923 303.891 30.9933 301.763 30.6703C298.229 30.1383 296.975 28.8083 296.975 26.5663C296.975 23.8873 299.084 22.3863 302.219 22.3863C305.392 22.3863 307.634 23.9633 307.843 26.3383L304.765 27.0413C304.518 25.6923 303.606 25.0653 302.181 25.0653C300.927 25.0653 300.3 25.5403 300.3 26.2813C300.3 27.3453 301.345 27.5353 303.891 27.9343C306.76 28.4093 307.824 29.8153 307.824 32.0003C307.824 34.8123 305.525 36.3893 302.276 36.3893C298.761 36.3893 296.747 34.6033 296.576 31.9433ZM309.522 22.7283H315.222C318.851 22.7283 321.302 25.1033 321.302 29.3783C321.302 33.7103 318.965 36.0283 315.165 36.0283H309.522V22.7283ZM312.847 33.0833H314.937C316.685 33.0833 317.977 32.2853 317.977 29.3783C317.977 26.8513 316.932 25.6733 314.937 25.6733H312.847V33.0833ZM323.067 36.0283V22.7283H326.392V24.4953C326.392 26.1673 326.24 26.8513 325.271 27.9913L326.031 28.7133L331.161 22.7283H335.132L330.23 28.3903L335.208 36.0283H331.237L327.912 30.7463H327.874L326.392 32.6463V36.0283H323.067Z" fill="white"/>
<defs>
<clipPath id="clip0_7128_576">
<rect width="25.6402" height="25.6402" fill="white" transform="translate(31.0859 15.7083)"/>
</clipPath>
</defs>
</svg>
