<svg width="330" height="154" viewBox="0 0 330 154" fill="none" xmlns="http://www.w3.org/2000/svg">
<rect x="0.5" y="0.5" width="328.5" height="153" rx="11.5" fill="#001341" fill-opacity="0.65"/>
<rect x="0.5" y="0.5" width="328.5" height="153" rx="11.5" stroke="#A68EFF"/>
<g clip-path="url(#clip0_7107_1272)">
<path d="M174.97 28C174.97 33.017 164.408 30.7872 164.408 39.1489M164.379 39.1489C161.503 39.1489 161.122 37.4766 158.247 37.4766C155.372 37.4766 151 44.7234 151 50.2979C151 52.5277 152.115 54.2 153.787 54.2C158.804 54.2 161.034 49.183 164.379 49.183C167.723 49.183 169.953 54.2 174.97 54.2C176.643 54.2 177.757 52.5277 177.757 50.2979C177.757 44.7234 173.385 37.4766 170.511 37.4766C167.635 37.4766 167.254 39.1489 164.379 39.1489Z" stroke="#AA9CFF" stroke-width="1.5" stroke-miterlimit="10" stroke-linecap="round" stroke-linejoin="round"/>
<path d="M160.47 45.8382H158.798V47.5105H157.125V45.8382H155.453V44.1658H157.125V42.4935H158.798V44.1658H160.47V45.8382ZM171.062 41.936C170.766 41.936 170.482 42.0535 170.273 42.2626C170.064 42.4717 169.947 42.7552 169.947 43.0509C169.947 43.3466 170.064 43.6302 170.273 43.8393C170.482 44.0484 170.766 44.1658 171.062 44.1658C171.357 44.1658 171.641 44.0484 171.85 43.8393C172.059 43.6302 172.177 43.3466 172.177 43.0509C172.177 42.7552 172.059 42.4717 171.85 42.2626C171.641 42.0535 171.357 41.936 171.062 41.936ZM171.062 46.3956C170.766 46.3956 170.482 46.5131 170.273 46.7222C170.064 46.9312 169.947 47.2148 169.947 47.5105C169.947 47.8062 170.064 48.0898 170.273 48.2989C170.482 48.5079 170.766 48.6254 171.062 48.6254C171.357 48.6254 171.641 48.5079 171.85 48.2989C172.059 48.0898 172.177 47.8062 172.177 47.5105C172.177 47.2148 172.059 46.9312 171.85 46.7222C171.641 46.5131 171.357 46.3956 171.062 46.3956ZM173.291 44.1658C172.996 44.1658 172.712 44.2833 172.503 44.4924C172.294 44.7015 172.177 44.985 172.177 45.2807C172.177 45.5764 172.294 45.86 172.503 46.0691C172.712 46.2781 172.996 46.3956 173.291 46.3956C173.587 46.3956 173.871 46.2781 174.08 46.0691C174.289 45.86 174.406 45.5764 174.406 45.2807C174.406 44.985 174.289 44.7015 174.08 44.4924C173.871 44.2833 173.587 44.1658 173.291 44.1658ZM168.832 44.1658C168.536 44.1658 168.253 44.2833 168.044 44.4924C167.834 44.7015 167.717 44.985 167.717 45.2807C167.717 45.5764 167.834 45.86 168.044 46.0691C168.253 46.2781 168.536 46.3956 168.832 46.3956C169.128 46.3956 169.411 46.2781 169.62 46.0691C169.829 45.86 169.947 45.5764 169.947 45.2807C169.947 44.985 169.829 44.7015 169.62 44.4924C169.411 44.2833 169.128 44.1658 168.832 44.1658Z" fill="#AA9CFF"/>
</g>
<path d="M76.3161 86.22L77.0721 88.056C77.3961 88.785 77.6391 89.298 78.1521 89.595V90H72.8601C72.5091 89.703 72.3741 89.379 72.2931 89.082L71.1321 86.193C70.3761 84.276 69.8901 83.736 68.1891 83.736H66.8121V90H62.0871V71.1H72.1041C75.7491 71.1 77.8281 73.071 77.8281 76.23C77.8281 79.74 75.7761 81.387 72.0771 81.63V82.98C74.2911 83.25 75.2091 83.547 76.3161 86.22ZM66.8121 79.632H70.9701C72.2661 79.632 73.1031 78.822 73.1031 77.391C73.1031 75.933 72.3741 75.204 70.9701 75.204H66.8121V79.632ZM84.8209 82.359V85.815H93.9469V90H80.0959V71.1H93.9199V75.285H84.8209V78.498H93.0829V82.359H84.8209ZM95.1094 80.55C95.1094 75.204 98.8354 70.533 105.072 70.587C109.5 70.614 113.01 73.179 113.847 77.148L109.419 78.363C108.798 76.068 107.232 74.799 104.991 74.799C101.967 74.799 99.8884 77.121 99.8884 80.55C99.8884 83.979 101.967 86.301 104.991 86.301C107.313 86.301 108.96 84.924 109.527 82.359L114.009 83.466C113.226 87.867 109.635 90.486 105.072 90.513C98.8354 90.567 95.1094 85.896 95.1094 80.55ZM130.395 86.22L131.151 88.056C131.475 88.785 131.718 89.298 132.231 89.595V90H126.939C126.588 89.703 126.453 89.379 126.372 89.082L125.211 86.193C124.455 84.276 123.969 83.736 122.268 83.736H120.891V90H116.166V71.1H126.183C129.828 71.1 131.907 73.071 131.907 76.23C131.907 79.74 129.855 81.387 126.156 81.63V82.98C128.37 83.25 129.288 83.547 130.395 86.22ZM120.891 79.632H125.049C126.345 79.632 127.182 78.822 127.182 77.391C127.182 75.933 126.453 75.204 125.049 75.204H120.891V79.632ZM138.9 82.359V85.815H148.026V90H134.175V71.1H147.999V75.285H138.9V78.498H147.162V82.359H138.9ZM168.479 90H163.592L162.62 87.192H154.817L153.845 90H148.931L156.005 71.1H161.405L168.479 90ZM156.977 80.955L156.221 83.115H161.216L160.46 80.955C159.92 79.362 159.731 78.363 159.542 75.96H157.895C157.706 78.363 157.517 79.362 156.977 80.955ZM166.84 71.1H183.31V75.285H177.424V90H172.699V75.285H166.84V71.1ZM185.466 90V71.1H190.191V90H185.466ZM193.011 80.55C193.011 74.799 197.223 70.587 202.92 70.587C208.59 70.587 212.802 74.799 212.802 80.55C212.802 86.301 208.59 90.513 202.92 90.513C197.223 90.513 193.011 86.301 193.011 80.55ZM197.79 80.55C197.79 83.979 199.869 86.301 202.92 86.301C206.187 86.301 208.023 83.817 208.023 80.55C208.023 77.202 206.133 74.799 202.92 74.799C199.707 74.799 197.79 77.121 197.79 80.55ZM215.281 90V71.1H220.465L227.755 82.71H227.809V71.1H232.534V90H227.35L220.06 78.633H220.006V90H215.281ZM253.724 90H248.837L247.865 87.192H240.062L239.09 90H234.176L241.25 71.1H246.65L253.724 90ZM242.222 80.955L241.466 83.115H246.461L245.705 80.955C245.165 79.362 244.976 78.363 244.787 75.96H243.14C242.951 78.363 242.762 79.362 242.222 80.955ZM255.385 90V71.1H260.11V85.788H268.642V90H255.385Z" fill="#AA9CFF"/>
<path d="M116.177 108.82C116.177 102.448 120.551 98.506 126.167 98.587C130.595 98.641 134.024 101.179 134.861 104.878L130.406 106.12C129.758 104.041 128.3 102.799 126.005 102.799C122.819 102.799 120.983 105.229 120.983 108.631C120.983 112.141 122.954 114.49 126.302 114.49C128.813 114.49 130.487 113.167 130.838 111.385V111.25H126.005V107.821H134.753V118H130.811V117.865C130.946 117.217 131.378 116.326 131.729 115.516L130.298 114.814C129.38 116.92 127.679 118.459 124.682 118.459C119.147 118.459 116.177 114.058 116.177 108.82ZM155.875 118H150.988L150.016 115.192H142.213L141.241 118H136.327L143.401 99.1H148.801L155.875 118ZM144.373 108.955L143.617 111.115H148.612L147.856 108.955C147.316 107.362 147.127 106.363 146.938 103.96H145.291C145.102 106.363 144.913 107.362 144.373 108.955ZM162.045 118H157.536V99.1H165.042L166.878 106.525C167.418 108.739 167.418 110.089 167.472 111.574H168.849C168.903 110.062 168.876 108.82 169.443 106.525L171.279 99.1H178.785V118H174.276V113.815C174.276 111.007 174.573 109.225 176.004 104.014L173.979 103.447L170.01 118H166.311L162.342 103.447L160.317 104.014C161.748 109.225 162.045 111.007 162.045 113.815V118ZM186.704 110.359V113.815H195.83V118H181.979V99.1H195.803V103.285H186.704V106.498H194.966V110.359H186.704ZM197.437 112.195L201.649 111.385C201.811 113.464 203.458 114.598 205.807 114.598C207.535 114.598 208.669 113.896 208.669 112.6C208.669 111.412 207.832 110.845 204.808 110.386C199.786 109.63 198.004 107.74 198.004 104.554C198.004 100.747 201.001 98.614 205.456 98.614C209.965 98.614 213.151 100.855 213.448 104.23L209.074 105.229C208.723 103.312 207.427 102.421 205.402 102.421C203.62 102.421 202.729 103.096 202.729 104.149C202.729 105.661 204.214 105.931 207.832 106.498C211.909 107.173 213.421 109.171 213.421 112.276C213.421 116.272 210.154 118.513 205.537 118.513C200.542 118.513 197.68 115.975 197.437 112.195Z" fill="white"/>
<defs>
<clipPath id="clip0_7107_1272">
<rect width="30" height="30" fill="white" transform="translate(149.75 28)"/>
</clipPath>
</defs>
</svg>
