<svg width="189" height="59" viewBox="0 0 189 59" fill="none" xmlns="http://www.w3.org/2000/svg">
<g filter="url(#filter0_b_7128_535)">
<mask id="path-1-inside-1_7128_535" fill="white">
<path fill-rule="evenodd" clip-rule="evenodd" d="M83.6924 2.00662C83.3068 1.33885 82.5943 0.92749 81.8232 0.92749H9.91533C4.55143 0.92749 0.203125 5.2758 0.203125 10.6397V48.949C0.203125 54.3129 4.55143 58.6612 9.91533 58.6612H169.627C174.991 58.6612 179.339 54.3129 179.339 48.949V38.0162C179.339 37.2451 179.751 36.5326 180.419 36.1471L187.708 31.9388C189.146 31.1081 189.146 29.0313 187.708 28.2006L180.419 23.9923C179.751 23.6067 179.339 22.8942 179.339 22.1231V10.6397C179.339 5.2758 174.991 0.92749 169.627 0.92749H97.7107C96.9397 0.92749 96.2272 1.33885 95.8416 2.00663L91.6361 9.2908C90.8054 10.7296 88.7286 10.7296 87.8979 9.2908L83.6924 2.00662Z"/>
</mask>
<path fill-rule="evenodd" clip-rule="evenodd" d="M83.6924 2.00662C83.3068 1.33885 82.5943 0.92749 81.8232 0.92749H9.91533C4.55143 0.92749 0.203125 5.2758 0.203125 10.6397V48.949C0.203125 54.3129 4.55143 58.6612 9.91533 58.6612H169.627C174.991 58.6612 179.339 54.3129 179.339 48.949V38.0162C179.339 37.2451 179.751 36.5326 180.419 36.1471L187.708 31.9388C189.146 31.1081 189.146 29.0313 187.708 28.2006L180.419 23.9923C179.751 23.6067 179.339 22.8942 179.339 22.1231V10.6397C179.339 5.2758 174.991 0.92749 169.627 0.92749H97.7107C96.9397 0.92749 96.2272 1.33885 95.8416 2.00663L91.6361 9.2908C90.8054 10.7296 88.7286 10.7296 87.8979 9.2908L83.6924 2.00662Z" fill="#001341" fill-opacity="0.65"/>
<path d="M83.6924 2.00662L83.2251 2.27641L83.2251 2.27641L83.6924 2.00662ZM95.8416 2.00663L96.3089 2.27641L96.3089 2.27641L95.8416 2.00663ZM91.6361 9.2908L91.1688 9.02102L91.1688 9.02102L91.6361 9.2908ZM87.8979 9.2908L87.4306 9.56058L87.4306 9.56058L87.8979 9.2908ZM180.419 23.9923L180.688 23.525L180.419 23.9923ZM187.708 31.9388L187.977 32.4061L187.708 31.9388ZM187.708 28.2006L187.438 28.6678L187.708 28.2006ZM180.419 36.1471L180.688 36.6144L180.419 36.1471ZM81.8232 1.46706C82.4015 1.46706 82.9359 1.77558 83.2251 2.27641L84.1596 1.73684C83.6777 0.902126 82.7871 0.387923 81.8232 0.387923V1.46706ZM9.91533 1.46706H81.8232V0.387923H9.91533V1.46706ZM0.742692 10.6397C0.742692 5.5738 4.84943 1.46706 9.91533 1.46706V0.387923C4.25343 0.387923 -0.336442 4.97781 -0.336442 10.6397H0.742692ZM0.742692 48.949V10.6397H-0.336442V48.949H0.742692ZM9.91533 58.1216C4.84942 58.1216 0.742692 54.0149 0.742692 48.949H-0.336442C-0.336442 54.6109 4.25343 59.2007 9.91533 59.2007V58.1216ZM169.627 58.1216H9.91533V59.2007H169.627V58.1216ZM178.8 48.949C178.8 54.0149 174.693 58.1216 169.627 58.1216V59.2007C175.289 59.2007 179.879 54.6109 179.879 48.949H178.8ZM178.8 38.0162V48.949H179.879V38.0162H178.8ZM187.438 31.4715L180.149 35.6798L180.688 36.6144L187.977 32.4061L187.438 31.4715ZM180.149 24.4595L187.438 28.6678L187.977 27.7333L180.688 23.525L180.149 24.4595ZM178.8 10.6397V22.1231H179.879V10.6397H178.8ZM169.627 1.46706C174.693 1.46706 178.8 5.57379 178.8 10.6397H179.879C179.879 4.9778 175.289 0.387923 169.627 0.387923V1.46706ZM97.7107 1.46706H169.627V0.387923H97.7107V1.46706ZM96.3089 2.27641C96.5981 1.77558 97.1324 1.46706 97.7107 1.46706V0.387923C96.7469 0.387923 95.8563 0.902128 95.3743 1.73684L96.3089 2.27641ZM92.1034 9.56058L96.3089 2.27641L95.3744 1.73684L91.1688 9.02102L92.1034 9.56058ZM87.4306 9.56058C88.469 11.3591 91.065 11.3591 92.1034 9.56058L91.1688 9.02102C90.5458 10.1001 88.9882 10.1002 88.3652 9.02102L87.4306 9.56058ZM83.2251 2.27641L87.4306 9.56058L88.3652 9.02102L84.1596 1.73684L83.2251 2.27641ZM180.688 23.525C180.188 23.2358 179.879 22.7015 179.879 22.1231H178.8C178.8 23.087 179.314 23.9776 180.149 24.4595L180.688 23.525ZM187.977 32.4061C189.776 31.3677 189.776 28.7717 187.977 27.7333L187.438 28.6678C188.517 29.2909 188.517 30.8485 187.438 31.4715L187.977 32.4061ZM179.879 38.0162C179.879 37.4379 180.188 36.9035 180.688 36.6144L180.149 35.6798C179.314 36.1617 178.8 37.0524 178.8 38.0162H179.879Z" fill="#2D74FE" mask="url(#path-1-inside-1_7128_535)"/>
</g>
<path d="M26.2321 26.7786L20.1276 29.1313L20.1291 29.134C19.6751 29.2844 19.3594 29.6991 19.3594 30.2149C19.3594 30.864 19.8557 31.3604 20.5048 31.3604C20.7767 31.3604 21.0184 31.2699 21.2112 31.121L21.2135 31.1252L26.2321 26.7786Z" stroke="#2D74FE" stroke-width="0.84" stroke-miterlimit="10" stroke-linecap="round" stroke-linejoin="round"/>
<path d="M20.5094 23.3015V24.088M27.3821 30.1742H26.5956M13.6366 30.1742H14.4232M17.0558 24.2247L17.4663 24.9086M14.5599 33.6278L15.2437 33.2173M14.5599 26.7211L15.2437 27.1311M26.4589 33.6278L25.775 33.2173M23.9629 24.2247L23.5525 24.9086M20.5094 38.6147C15.8894 38.6147 12.1094 34.8347 12.1094 30.2147C12.1094 25.5947 15.8894 21.8147 20.5094 21.8147C25.1294 21.8147 28.9094 25.5947 28.9094 30.2147C28.9094 34.8347 25.1294 38.6147 20.5094 38.6147Z" stroke="#2D74FE" stroke-width="0.84" stroke-miterlimit="10" stroke-linecap="round" stroke-linejoin="round"/>
<path d="M46.618 32.4747L46.982 33.3587C47.138 33.7097 47.255 33.9567 47.502 34.0997V34.2947H44.954C44.785 34.1517 44.72 33.9957 44.681 33.8527L44.122 32.4617C43.758 31.5387 43.524 31.2787 42.705 31.2787H42.042V34.2947H39.767V25.1947H44.59C46.345 25.1947 47.346 26.1437 47.346 27.6647C47.346 29.3547 46.358 30.1477 44.577 30.2647V30.9147C45.643 31.0447 46.085 31.1877 46.618 32.4747ZM42.042 29.3027H44.044C44.668 29.3027 45.071 28.9127 45.071 28.2237C45.071 27.5217 44.72 27.1707 44.044 27.1707H42.042V29.3027ZM48.5809 34.2947V25.1947H50.8559V34.2947H48.5809ZM52.1355 31.4997L54.1635 31.1097C54.2415 32.1107 55.0345 32.6567 56.1655 32.6567C56.9975 32.6567 57.5435 32.3187 57.5435 31.6947C57.5435 31.1227 57.1405 30.8497 55.6845 30.6287C53.2665 30.2647 52.4085 29.3547 52.4085 27.8207C52.4085 25.9877 53.8515 24.9607 55.9965 24.9607C58.1675 24.9607 59.7015 26.0397 59.8445 27.6647L57.7385 28.1457C57.5695 27.2227 56.9455 26.7937 55.9705 26.7937C55.1125 26.7937 54.6835 27.1187 54.6835 27.6257C54.6835 28.3537 55.3985 28.4837 57.1405 28.7567C59.1035 29.0817 59.8315 30.0437 59.8315 31.5387C59.8315 33.4627 58.2585 34.5417 56.0355 34.5417C53.6305 34.5417 52.2525 33.3197 52.1355 31.4997ZM60.9936 34.2947V25.1947H63.2686V26.4037C63.2686 27.5477 63.1646 28.0157 62.5016 28.7957L63.0216 29.2897L66.5316 25.1947H69.2486L65.8946 29.0687L69.3006 34.2947H66.5836L64.3086 30.6807H64.2826L63.2686 31.9807V34.2947H60.9936ZM75.4917 34.2947H73.3207V25.1947H76.9347L77.8187 28.7697C78.0787 29.8357 78.0787 30.4857 78.1047 31.2007H78.7677C78.7937 30.4727 78.7807 29.8747 79.0537 28.7697L79.9377 25.1947H83.5517V34.2947H81.3807V32.2797C81.3807 30.9277 81.5237 30.0697 82.2127 27.5607L81.2377 27.2877L79.3267 34.2947H77.5457L75.6347 27.2877L74.6597 27.5607C75.3487 30.0697 75.4917 30.9277 75.4917 32.2797V34.2947ZM93.7603 34.2947H91.4073L90.9393 32.9427H87.1823L86.7143 34.2947H84.3483L87.7543 25.1947H90.3543L93.7603 34.2947ZM88.2223 29.9397L87.8583 30.9797H90.2633L89.8993 29.9397C89.6393 29.1727 89.5483 28.6917 89.4573 27.5347H88.6643C88.5733 28.6917 88.4823 29.1727 88.2223 29.9397ZM94.56 34.2947V25.1947H97.056L100.566 30.7847H100.592V25.1947H102.867V34.2947H100.371L96.861 28.8217H96.835V34.2947H94.56ZM113.07 34.2947H110.717L110.249 32.9427H106.492L106.024 34.2947H103.658L107.064 25.1947H109.664L113.07 34.2947ZM107.532 29.9397L107.168 30.9797H109.573L109.209 29.9397C108.949 29.1727 108.858 28.6917 108.767 27.5347H107.974C107.883 28.6917 107.792 29.1727 107.532 29.9397ZM113.176 29.8747C113.176 26.8067 115.282 24.9087 117.986 24.9477C120.118 24.9737 121.769 26.1957 122.172 27.9767L120.027 28.5747C119.715 27.5737 119.013 26.9757 117.908 26.9757C116.374 26.9757 115.49 28.1457 115.49 29.7837C115.49 31.4737 116.439 32.6047 118.051 32.6047C119.26 32.6047 120.066 31.9677 120.235 31.1097V31.0447H117.908V29.3937H122.12V34.2947H120.222V34.2297C120.287 33.9177 120.495 33.4887 120.664 33.0987L119.975 32.7607C119.533 33.7747 118.714 34.5157 117.271 34.5157C114.606 34.5157 113.176 32.3967 113.176 29.8747ZM125.895 30.6157V32.2797H130.289V34.2947H123.62V25.1947H130.276V27.2097H125.895V28.7567H129.873V30.6157H125.895ZM133.636 34.2947H131.465V25.1947H135.079L135.963 28.7697C136.223 29.8357 136.223 30.4857 136.249 31.2007H136.912C136.938 30.4727 136.925 29.8747 137.198 28.7697L138.082 25.1947H141.696V34.2947H139.525V32.2797C139.525 30.9277 139.668 30.0697 140.357 27.5607L139.382 27.2877L137.471 34.2947H135.69L133.779 27.2877L132.804 27.5607C133.493 30.0697 133.636 30.9277 133.636 32.2797V34.2947ZM145.509 30.6157V32.2797H149.903V34.2947H143.234V25.1947H149.89V27.2097H145.509V28.7567H149.487V30.6157H145.509ZM151.08 34.2947V25.1947H153.576L157.086 30.7847H157.112V25.1947H159.387V34.2947H156.891L153.381 28.8217H153.355V34.2947H151.08ZM160.294 25.1947H168.224V27.2097H165.39V34.2947H163.115V27.2097H160.294V25.1947Z" fill="white"/>
<defs>
<filter id="filter0_b_7128_535" x="-7.89038" y="-7.16602" width="204.773" height="73.9207" filterUnits="userSpaceOnUse" color-interpolation-filters="sRGB">
<feFlood flood-opacity="0" result="BackgroundImageFix"/>
<feGaussianBlur in="BackgroundImageFix" stdDeviation="4.04675"/>
<feComposite in2="SourceAlpha" operator="in" result="effect1_backgroundBlur_7128_535"/>
<feBlend mode="normal" in="SourceGraphic" in2="effect1_backgroundBlur_7128_535" result="shape"/>
</filter>
</defs>
</svg>
