<svg width="372" height="58" viewBox="0 0 372 58" fill="none" xmlns="http://www.w3.org/2000/svg">
<mask id="path-1-inside-1_7144_396" fill="white">
<path fill-rule="evenodd" clip-rule="evenodd" d="M179.935 1.07913C179.549 0.411363 178.837 0 178.065 0H9.71221C4.3483 0 0 4.34831 0 9.71221V40.2878C0 45.6517 4.34833 50 9.71224 50H178.909C179.68 50 180.392 50.4114 180.778 51.0791L184.14 56.9029C184.971 58.3417 187.048 58.3417 187.878 56.9029L191.241 51.0791C191.626 50.4114 192.339 50 193.11 50H362.048C367.412 50 371.76 45.6517 371.76 40.2878V9.71221C371.76 4.3483 367.412 0 362.048 0H193.953C193.182 0 192.469 0.411364 192.084 1.07913L187.878 8.36331C187.048 9.80216 184.971 9.80216 184.14 8.36331L179.935 1.07913Z"/>
</mask>
<path fill-rule="evenodd" clip-rule="evenodd" d="M179.935 1.07913C179.549 0.411363 178.837 0 178.065 0H9.71221C4.3483 0 0 4.34831 0 9.71221V40.2878C0 45.6517 4.34833 50 9.71224 50H178.909C179.68 50 180.392 50.4114 180.778 51.0791L184.14 56.9029C184.971 58.3417 187.048 58.3417 187.878 56.9029L191.241 51.0791C191.626 50.4114 192.339 50 193.11 50H362.048C367.412 50 371.76 45.6517 371.76 40.2878V9.71221C371.76 4.3483 367.412 0 362.048 0H193.953C193.182 0 192.469 0.411364 192.084 1.07913L187.878 8.36331C187.048 9.80216 184.971 9.80216 184.14 8.36331L179.935 1.07913Z" fill="#001341" fill-opacity="0.65"/>
<path d="M179.935 1.07913L179.467 1.34891V1.34892L179.935 1.07913ZM192.084 1.07913L192.551 1.34892V1.34891L192.084 1.07913ZM187.878 8.36331L187.411 8.09353L187.878 8.36331ZM184.14 8.36331L184.607 8.09353L184.14 8.36331ZM191.241 51.0791L190.773 50.8093L191.241 51.0791ZM184.14 56.9029L183.673 57.1726L184.14 56.9029ZM187.878 56.9029L188.346 57.1727L187.878 56.9029ZM180.778 51.0791L181.245 50.8093L180.778 51.0791ZM178.065 0.539567C178.644 0.539567 179.178 0.848091 179.467 1.34891L180.402 0.809355C179.92 -0.0253647 179.029 -0.539567 178.065 -0.539567V0.539567ZM9.71221 0.539567H178.065V-0.539567H9.71221V0.539567ZM0.539567 9.71221C0.539567 4.6463 4.6463 0.539567 9.71221 0.539567V-0.539567C4.05031 -0.539567 -0.539567 4.05031 -0.539567 9.71221H0.539567ZM0.539567 40.2878V9.71221H-0.539567V40.2878H0.539567ZM9.71224 49.4604C4.64632 49.4604 0.539567 45.3537 0.539567 40.2878H-0.539567C-0.539567 45.9497 4.05034 50.5396 9.71224 50.5396V49.4604ZM178.909 49.4604H9.71224V50.5396H178.909V49.4604ZM184.607 56.6331L181.245 50.8093L180.31 51.3489L183.673 57.1726L184.607 56.6331ZM190.773 50.8093L187.411 56.6331L188.346 57.1727L191.708 51.3489L190.773 50.8093ZM362.048 49.4604H193.11V50.5396H362.048V49.4604ZM371.22 40.2878C371.22 45.3537 367.114 49.4604 362.048 49.4604V50.5396C367.71 50.5396 372.3 45.9497 372.3 40.2878H371.22ZM371.22 9.71221V40.2878H372.3V9.71221H371.22ZM362.048 0.539567C367.114 0.539567 371.22 4.6463 371.22 9.71221H372.3C372.3 4.05031 367.71 -0.539567 362.048 -0.539567V0.539567ZM193.953 0.539567H362.048V-0.539567H193.953V0.539567ZM192.551 1.34891C192.84 0.848092 193.375 0.539567 193.953 0.539567V-0.539567C192.989 -0.539567 192.098 -0.0253645 191.617 0.809355L192.551 1.34891ZM188.346 8.6331L192.551 1.34892L191.617 0.80935L187.411 8.09353L188.346 8.6331ZM183.673 8.63309C184.711 10.4317 187.307 10.4317 188.346 8.6331L187.411 8.09353C186.788 9.17266 185.23 9.17266 184.607 8.09353L183.673 8.63309ZM179.467 1.34892L183.673 8.63309L184.607 8.09353L180.402 0.809349L179.467 1.34892ZM191.708 51.3489C191.997 50.8481 192.531 50.5396 193.11 50.5396V49.4604C192.146 49.4604 191.255 49.9746 190.773 50.8093L191.708 51.3489ZM183.673 57.1726C184.711 58.9712 187.307 58.9712 188.346 57.1727L187.411 56.6331C186.788 57.7122 185.23 57.7122 184.607 56.6331L183.673 57.1726ZM178.909 50.5396C179.487 50.5396 180.021 50.8481 180.31 51.3489L181.245 50.8093C180.763 49.9746 179.872 49.4604 178.909 49.4604V50.5396Z" fill="#2D74FE" mask="url(#path-1-inside-1_7144_396)"/>
<path d="M110.732 21.9839L104.628 24.3367L104.629 24.3393C104.175 24.4898 103.859 24.9044 103.859 25.4203C103.859 26.0693 104.356 26.5657 105.005 26.5657C105.277 26.5657 105.518 26.4752 105.711 26.3263L105.713 26.3305L110.732 21.9839Z" stroke="#2D74FE" stroke-width="0.84" stroke-miterlimit="10" stroke-linecap="round" stroke-linejoin="round"/>
<path d="M105.009 18.5068V19.2934M111.882 25.3795H111.096M98.1366 25.3795H98.9232M101.556 19.4301L101.966 20.1139M99.0599 28.8331L99.7437 28.4226M99.0599 21.9264L99.7437 22.3365M110.959 28.8331L110.275 28.4226M108.463 19.4301L108.052 20.1139M105.009 33.82C100.389 33.82 96.6094 30.04 96.6094 25.42C96.6094 20.8 100.389 17.02 105.009 17.02C109.629 17.02 113.409 20.8 113.409 25.42C113.409 30.04 109.629 33.82 105.009 33.82Z" stroke="#2D74FE" stroke-width="0.84" stroke-miterlimit="10" stroke-linecap="round" stroke-linejoin="round"/>
<path d="M136.29 28.4L136.71 29.42C136.89 29.825 137.025 30.11 137.31 30.275V30.5H134.37C134.175 30.335 134.1 30.155 134.055 29.99L133.41 28.385C132.99 27.32 132.72 27.02 131.775 27.02H131.01V30.5H128.385V20H133.95C135.975 20 137.13 21.095 137.13 22.85C137.13 24.8 135.99 25.715 133.935 25.85V26.6C135.165 26.75 135.675 26.915 136.29 28.4ZM131.01 24.74H133.32C134.04 24.74 134.505 24.29 134.505 23.495C134.505 22.685 134.1 22.28 133.32 22.28H131.01V24.74ZM138.555 30.5V20H141.18V30.5H138.555ZM142.656 27.275L144.996 26.825C145.086 27.98 146.001 28.61 147.306 28.61C148.266 28.61 148.896 28.22 148.896 27.5C148.896 26.84 148.431 26.525 146.751 26.27C143.961 25.85 142.971 24.8 142.971 23.03C142.971 20.915 144.636 19.73 147.111 19.73C149.616 19.73 151.386 20.975 151.551 22.85L149.121 23.405C148.926 22.34 148.206 21.845 147.081 21.845C146.091 21.845 145.596 22.22 145.596 22.805C145.596 23.645 146.421 23.795 148.431 24.11C150.696 24.485 151.536 25.595 151.536 27.32C151.536 29.54 149.721 30.785 147.156 30.785C144.381 30.785 142.791 29.375 142.656 27.275ZM152.877 30.5V20H155.502V21.395C155.502 22.715 155.382 23.255 154.617 24.155L155.217 24.725L159.267 20H162.402L158.532 24.47L162.462 30.5H159.327L156.702 26.33H156.672L155.502 27.83V30.5H152.877ZM169.606 30.5H167.101V20H171.271L172.291 24.125C172.591 25.355 172.591 26.105 172.621 26.93H173.386C173.416 26.09 173.401 25.4 173.716 24.125L174.736 20H178.906V30.5H176.401V28.175C176.401 26.615 176.566 25.625 177.361 22.73L176.236 22.415L174.031 30.5H171.976L169.771 22.415L168.646 22.73C169.441 25.625 169.606 26.615 169.606 28.175V30.5ZM190.685 30.5H187.97L187.43 28.94H183.095L182.555 30.5H179.825L183.755 20H186.755L190.685 30.5ZM184.295 25.475L183.875 26.675H186.65L186.23 25.475C185.93 24.59 185.825 24.035 185.72 22.7H184.805C184.7 24.035 184.595 24.59 184.295 25.475ZM191.608 30.5V20H194.488L198.538 26.45H198.568V20H201.193V30.5H198.313L194.263 24.185H194.233V30.5H191.608ZM212.965 30.5H210.25L209.71 28.94H205.375L204.835 30.5H202.105L206.035 20H209.035L212.965 30.5ZM206.575 25.475L206.155 26.675H208.93L208.51 25.475C208.21 24.59 208.105 24.035 208 22.7H207.085C206.98 24.035 206.875 24.59 206.575 25.475ZM213.088 25.4C213.088 21.86 215.518 19.67 218.638 19.715C221.098 19.745 223.003 21.155 223.468 23.21L220.993 23.9C220.633 22.745 219.823 22.055 218.548 22.055C216.778 22.055 215.758 23.405 215.758 25.295C215.758 27.245 216.853 28.55 218.713 28.55C220.108 28.55 221.038 27.815 221.233 26.825V26.75H218.548V24.845H223.408V30.5H221.218V30.425C221.293 30.065 221.533 29.57 221.728 29.12L220.933 28.73C220.423 29.9 219.478 30.755 217.813 30.755C214.738 30.755 213.088 28.31 213.088 25.4ZM227.763 26.255V28.175H232.833V30.5H225.138V20H232.818V22.325H227.763V24.11H232.353V26.255H227.763ZM236.696 30.5H234.191V20H238.361L239.381 24.125C239.681 25.355 239.681 26.105 239.711 26.93H240.476C240.506 26.09 240.491 25.4 240.806 24.125L241.826 20H245.996V30.5H243.491V28.175C243.491 26.615 243.656 25.625 244.451 22.73L243.326 22.415L241.121 30.5H239.066L236.861 22.415L235.736 22.73C236.531 25.625 236.696 26.615 236.696 28.175V30.5ZM250.395 26.255V28.175H255.465V30.5H247.77V20H255.45V22.325H250.395V24.11H254.985V26.255H250.395ZM256.823 30.5V20H259.703L263.753 26.45H263.783V20H266.408V30.5H263.528L259.478 24.185H259.448V30.5H256.823ZM267.455 20H276.605V22.325H273.335V30.5H270.71V22.325H267.455V20Z" fill="white"/>
</svg>
