<svg width="350" height="107" viewBox="0 0 350 107" fill="none" xmlns="http://www.w3.org/2000/svg">
<mask id="path-1-inside-1_7127_411" fill="white">
<path fill-rule="evenodd" clip-rule="evenodd" d="M154.732 2C154.018 0.762397 152.697 0 151.268 0H18C8.05888 0 0 8.05887 0 18V89C0 98.9411 8.05887 107 18 107H314C323.941 107 332 98.9411 332 89V68.7321C332 67.303 332.762 65.9825 334 65.268L347.5 57.4737C350.167 55.9341 350.167 52.0851 347.5 50.5455L334 42.7513C332.762 42.0368 332 40.7162 332 39.2872V18C332 8.05888 323.941 0 314 0H180.713C179.284 0 177.963 0.762396 177.249 2L169.454 15.5C167.915 18.1667 164.066 18.1667 162.526 15.5L154.732 2Z"/>
</mask>
<path fill-rule="evenodd" clip-rule="evenodd" d="M154.732 2C154.018 0.762397 152.697 0 151.268 0H18C8.05888 0 0 8.05887 0 18V89C0 98.9411 8.05887 107 18 107H314C323.941 107 332 98.9411 332 89V68.7321C332 67.303 332.762 65.9825 334 65.268L347.5 57.4737C350.167 55.9341 350.167 52.0851 347.5 50.5455L334 42.7513C332.762 42.0368 332 40.7162 332 39.2872V18C332 8.05888 323.941 0 314 0H180.713C179.284 0 177.963 0.762396 177.249 2L169.454 15.5C167.915 18.1667 164.066 18.1667 162.526 15.5L154.732 2Z" fill="#001341" fill-opacity="0.65"/>
<path d="M154.732 2L155.598 1.5L155.598 1.5L154.732 2ZM177.249 2L178.115 2.5L178.115 2.5L177.249 2ZM169.454 15.5L168.588 15L168.588 15L169.454 15.5ZM162.526 15.5L163.392 15L163.392 15L162.526 15.5ZM334 42.7513L333.5 43.6173L334 42.7513ZM347.5 57.4737L348 58.3397L347.5 57.4737ZM347.5 50.5455L348 49.6795L347.5 50.5455ZM334 65.268L333.5 64.4019L334 65.268ZM151.268 1C152.34 1 153.33 1.5718 153.866 2.50001L155.598 1.5C154.705 -0.0470032 153.054 -1 151.268 -1V1ZM18 1H151.268V-1H18V1ZM1 18C1 8.61116 8.61116 1 18 1V-1C7.50659 -1 -1 7.50659 -1 18H1ZM1 89V18H-1V89H1ZM18 106C8.61116 106 1 98.3888 1 89H-1C-1 99.4934 7.50659 108 18 108V106ZM314 106H18V108H314V106ZM331 89C331 98.3888 323.389 106 314 106V108C324.493 108 333 99.4934 333 89H331ZM331 68.7321V89H333V68.7321H331ZM347 56.6077L333.5 64.4019L334.5 66.134L348 58.3397L347 56.6077ZM333.5 43.6173L347 51.4115L348 49.6795L334.5 41.8853L333.5 43.6173ZM331 18V39.2872H333V18H331ZM314 1C323.389 1 331 8.61116 331 18H333C333 7.50659 324.493 -1 314 -1V1ZM180.713 1H314V-1H180.713V1ZM178.115 2.5C178.651 1.5718 179.641 1 180.713 1V-1C178.926 -1 177.276 -0.0470058 176.383 1.5L178.115 2.5ZM170.321 16L178.115 2.5L176.383 1.5L168.588 15L170.321 16ZM161.66 16C163.585 19.3333 168.396 19.3333 170.321 16L168.588 15C167.434 17 164.547 17 163.392 15L161.66 16ZM153.866 2.5L161.66 16L163.392 15L155.598 1.5L153.866 2.5ZM334.5 41.8853C333.572 41.3494 333 40.359 333 39.2872H331C331 41.0735 331.953 42.7241 333.5 43.6173L334.5 41.8853ZM348 58.3397C351.333 56.4152 351.333 51.604 348 49.6795L347 51.4115C349 52.5662 349 55.453 347 56.6077L348 58.3397ZM333 68.7321C333 67.6603 333.572 66.6699 334.5 66.134L333.5 64.4019C331.953 65.2951 331 66.9457 331 68.7321H333Z" fill="#2D74FE" mask="url(#path-1-inside-1_7127_411)"/>
<path d="M68.1854 49.1912L59.4646 52.5523L59.4668 52.5561C58.8183 52.771 58.3672 53.3633 58.3672 54.1003C58.3672 55.0275 59.0763 55.7366 60.0036 55.7366C60.3919 55.7366 60.7372 55.6073 61.0126 55.3946L61.0159 55.4006L68.1854 49.1912Z" stroke="#2D74FE" stroke-width="1.2" stroke-miterlimit="10" stroke-linecap="round" stroke-linejoin="round"/>
<path d="M60 44.2241V45.3477M69.8182 54.0423H68.6945M50.1818 54.0423H51.3055M55.0664 45.543L55.6527 46.5199M51.5007 58.9759L52.4776 58.3896M51.5007 49.1092L52.4776 49.695M68.4993 58.9759L67.5224 58.3896M64.9336 45.543L64.3473 46.5199M60 66.1001C53.4 66.1001 48 60.7001 48 54.1001C48 47.5001 53.4 42.1001 60 42.1001C66.6 42.1001 72 47.5001 72 54.1001C72 60.7001 66.6 66.1001 60 66.1001Z" stroke="#2D74FE" stroke-width="1.2" stroke-miterlimit="10" stroke-linecap="round" stroke-linejoin="round"/>
<path d="M99.218 58.7L99.778 60.06C100.018 60.6 100.198 60.98 100.578 61.2V61.5H96.658C96.398 61.28 96.298 61.04 96.238 60.82L95.378 58.68C94.818 57.26 94.458 56.86 93.198 56.86H92.178V61.5H88.678V47.5H96.098C98.798 47.5 100.338 48.96 100.338 51.3C100.338 53.9 98.818 55.12 96.078 55.3V56.3C97.718 56.5 98.398 56.72 99.218 58.7ZM92.178 53.82H95.258C96.218 53.82 96.838 53.22 96.838 52.16C96.838 51.08 96.298 50.54 95.258 50.54H92.178V53.82ZM102.238 61.5V47.5H105.738V61.5H102.238ZM107.706 57.2L110.826 56.6C110.946 58.14 112.166 58.98 113.906 58.98C115.186 58.98 116.026 58.46 116.026 57.5C116.026 56.62 115.406 56.2 113.166 55.86C109.446 55.3 108.126 53.9 108.126 51.54C108.126 48.72 110.346 47.14 113.646 47.14C116.986 47.14 119.346 48.8 119.566 51.3L116.326 52.04C116.066 50.62 115.106 49.96 113.606 49.96C112.286 49.96 111.626 50.46 111.626 51.24C111.626 52.36 112.726 52.56 115.406 52.98C118.426 53.48 119.546 54.96 119.546 57.26C119.546 60.22 117.126 61.88 113.706 61.88C110.006 61.88 107.886 60 107.706 57.2ZM121.334 61.5V47.5H124.834V49.36C124.834 51.12 124.674 51.84 123.654 53.04L124.454 53.8L129.854 47.5H134.034L128.874 53.46L134.114 61.5H129.934L126.434 55.94H126.394L124.834 57.94V61.5H121.334ZM143.639 61.5H140.299V47.5H145.859L147.219 53C147.619 54.64 147.619 55.64 147.659 56.74H148.679C148.719 55.62 148.699 54.7 149.119 53L150.479 47.5H156.039V61.5H152.699V58.4C152.699 56.32 152.919 55 153.979 51.14L152.479 50.72L149.539 61.5H146.799L143.859 50.72L142.359 51.14C143.419 55 143.639 56.32 143.639 58.4V61.5ZM171.745 61.5H168.125L167.405 59.42H161.625L160.905 61.5H157.265L162.505 47.5H166.505L171.745 61.5ZM163.225 54.8L162.665 56.4H166.365L165.805 54.8C165.405 53.62 165.265 52.88 165.125 51.1H163.905C163.765 52.88 163.625 53.62 163.225 54.8ZM172.975 61.5V47.5H176.815L182.215 56.1H182.255V47.5H185.755V61.5H181.915L176.515 53.08H176.475V61.5H172.975ZM201.452 61.5H197.832L197.112 59.42H191.332L190.612 61.5H186.972L192.212 47.5H196.212L201.452 61.5ZM192.932 54.8L192.372 56.4H196.072L195.512 54.8C195.112 53.62 194.972 52.88 194.832 51.1H193.612C193.472 52.88 193.332 53.62 192.932 54.8ZM201.616 54.7C201.616 49.98 204.856 47.06 209.016 47.12C212.296 47.16 214.836 49.04 215.456 51.78L212.156 52.7C211.676 51.16 210.596 50.24 208.896 50.24C206.536 50.24 205.176 52.04 205.176 54.56C205.176 57.16 206.636 58.9 209.116 58.9C210.976 58.9 212.216 57.92 212.476 56.6V56.5H208.896V53.96H215.376V61.5H212.456V61.4C212.556 60.92 212.876 60.26 213.136 59.66L212.076 59.14C211.396 60.7 210.136 61.84 207.916 61.84C203.816 61.84 201.616 58.58 201.616 54.7ZM221.182 55.84V58.4H227.942V61.5H217.682V47.5H227.922V50.6H221.182V52.98H227.302V55.84H221.182ZM233.092 61.5H229.752V47.5H235.312L236.672 53C237.072 54.64 237.072 55.64 237.112 56.74H238.132C238.172 55.62 238.152 54.7 238.572 53L239.932 47.5H245.492V61.5H242.152V58.4C242.152 56.32 242.372 55 243.432 51.14L241.932 50.72L238.992 61.5H236.252L233.312 50.72L231.812 51.14C232.872 55 233.092 56.32 233.092 58.4V61.5ZM251.358 55.84V58.4H258.118V61.5H247.858V47.5H258.098V50.6H251.358V52.98H257.478V55.84H251.358ZM259.928 61.5V47.5H263.768L269.168 56.1H269.208V47.5H272.708V61.5H268.868L263.468 53.08H263.428V61.5H259.928ZM274.105 47.5H286.305V50.6H281.945V61.5H278.445V50.6H274.105V47.5Z" fill="white"/>
</svg>
