<svg width="362" height="80" viewBox="0 0 362 80" fill="none" xmlns="http://www.w3.org/2000/svg">
<g clip-path="url(#clip0_6894_789)">
<line x1="-234.354" y1="204.146" x2="36.6464" y2="-66.8535" stroke="#5452AA"/>
<line x1="-225.354" y1="204.146" x2="45.6464" y2="-66.8535" stroke="#5452AA"/>
<line x1="-216.354" y1="204.146" x2="54.6464" y2="-66.8535" stroke="#5452AA"/>
<line x1="-207.354" y1="204.146" x2="63.6464" y2="-66.8535" stroke="#5452AA"/>
<line x1="-198.354" y1="204.146" x2="72.6464" y2="-66.8535" stroke="#5452AA"/>
<line x1="-189.354" y1="204.146" x2="81.6464" y2="-66.8535" stroke="#5452AA"/>
<line x1="-180.354" y1="204.146" x2="90.6464" y2="-66.8535" stroke="#5452AA"/>
<line x1="-171.354" y1="204.146" x2="99.6464" y2="-66.8535" stroke="#5452AA"/>
<line x1="-162.354" y1="204.146" x2="108.646" y2="-66.8535" stroke="#5452AA"/>
<line x1="-153.354" y1="204.146" x2="117.646" y2="-66.8535" stroke="#5452AA"/>
<line x1="-144.354" y1="204.146" x2="126.646" y2="-66.8535" stroke="#5452AA"/>
<line x1="-135.354" y1="204.146" x2="135.646" y2="-66.8535" stroke="#5452AA"/>
<line x1="-126.354" y1="204.146" x2="144.646" y2="-66.8535" stroke="#5452AA"/>
<line x1="-117.354" y1="204.146" x2="153.646" y2="-66.8535" stroke="#5452AA"/>
<line x1="-108.354" y1="204.146" x2="162.646" y2="-66.8535" stroke="#5452AA"/>
<line x1="-99.3536" y1="204.146" x2="171.646" y2="-66.8535" stroke="#5452AA"/>
<line x1="-90.3536" y1="204.146" x2="180.646" y2="-66.8535" stroke="#5452AA"/>
<line x1="-81.3536" y1="204.146" x2="189.646" y2="-66.8535" stroke="#5452AA"/>
<line x1="-72.3536" y1="204.146" x2="198.646" y2="-66.8535" stroke="#5452AA"/>
<line x1="-63.3536" y1="204.146" x2="207.646" y2="-66.8535" stroke="#5452AA"/>
<line x1="-54.3536" y1="204.146" x2="216.646" y2="-66.8535" stroke="#5452AA"/>
<line x1="-45.3536" y1="204.146" x2="225.646" y2="-66.8535" stroke="#5452AA"/>
<line x1="-36.3536" y1="204.146" x2="234.646" y2="-66.8535" stroke="#5452AA"/>
<line x1="-27.3536" y1="204.146" x2="243.646" y2="-66.8535" stroke="#5452AA"/>
<line x1="-18.3536" y1="204.146" x2="252.646" y2="-66.8535" stroke="#5452AA"/>
<line x1="-9.35355" y1="204.146" x2="261.646" y2="-66.8535" stroke="#5452AA"/>
<line x1="-0.353553" y1="204.146" x2="270.646" y2="-66.8535" stroke="#5452AA"/>
<line x1="8.64645" y1="204.146" x2="279.646" y2="-66.8535" stroke="#5452AA"/>
<line x1="17.6464" y1="204.146" x2="288.646" y2="-66.8535" stroke="#5452AA"/>
<line x1="26.6464" y1="204.146" x2="297.646" y2="-66.8535" stroke="#5452AA"/>
<line x1="35.6464" y1="204.146" x2="306.646" y2="-66.8535" stroke="#5452AA"/>
<line x1="44.6464" y1="204.146" x2="315.646" y2="-66.8535" stroke="#5452AA"/>
<line x1="53.6464" y1="204.146" x2="324.646" y2="-66.8535" stroke="#5452AA"/>
<line x1="62.6464" y1="204.146" x2="333.646" y2="-66.8535" stroke="#5452AA"/>
<line x1="71.6464" y1="204.146" x2="342.646" y2="-66.8535" stroke="#5452AA"/>
<line x1="80.6464" y1="204.146" x2="351.646" y2="-66.8535" stroke="#5452AA"/>
<line x1="89.6464" y1="204.146" x2="360.646" y2="-66.8535" stroke="#5452AA"/>
<line x1="98.6464" y1="204.146" x2="369.646" y2="-66.8535" stroke="#5452AA"/>
<line x1="107.646" y1="204.146" x2="378.646" y2="-66.8535" stroke="#5452AA"/>
<line x1="116.646" y1="204.146" x2="387.646" y2="-66.8535" stroke="#5452AA"/>
<line x1="125.646" y1="204.146" x2="396.646" y2="-66.8535" stroke="#5452AA"/>
<line x1="134.646" y1="204.146" x2="405.646" y2="-66.8535" stroke="#5452AA"/>
<line x1="143.646" y1="204.146" x2="414.646" y2="-66.8535" stroke="#5452AA"/>
<line x1="152.646" y1="204.146" x2="423.646" y2="-66.8535" stroke="#5452AA"/>
<line x1="161.646" y1="204.146" x2="432.646" y2="-66.8535" stroke="#5452AA"/>
<line x1="170.646" y1="204.146" x2="441.646" y2="-66.8535" stroke="#5452AA"/>
<line x1="179.646" y1="204.146" x2="450.646" y2="-66.8535" stroke="#5452AA"/>
<line x1="188.646" y1="204.146" x2="459.646" y2="-66.8535" stroke="#5452AA"/>
<line x1="197.646" y1="204.146" x2="468.646" y2="-66.8535" stroke="#5452AA"/>
<line x1="206.646" y1="204.146" x2="477.646" y2="-66.8535" stroke="#5452AA"/>
<line x1="215.646" y1="204.146" x2="486.646" y2="-66.8535" stroke="#5452AA"/>
<line x1="224.646" y1="204.146" x2="495.646" y2="-66.8535" stroke="#5452AA"/>
</g>
<defs>
<clipPath id="clip0_6894_789">
<rect width="362" height="80" fill="white"/>
</clipPath>
</defs>
</svg>
