<svg width="1130" height="71" viewBox="0 0 1130 71" fill="none" xmlns="http://www.w3.org/2000/svg">
<path d="M0.787874 68.9336H0.0378736L0.0378736 69.6836H0.787874L0.787874 68.9336ZM0.787878 2.43359L0.787878 1.68359H0.0378776L0.0378776 2.43359H0.787878ZM17.4129 2.43359H18.1629L18.1629 1.68359H17.4129L17.4129 2.43359ZM17.4129 68.9336L17.4129 69.6836H18.1629L18.1629 68.9336H17.4129ZM1.53787 68.9336L1.53788 2.43359H0.0378776L0.0378736 68.9336H1.53787ZM0.787878 3.18359H17.4129L17.4129 1.68359H0.787878L0.787878 3.18359ZM16.6629 2.43359L16.6629 68.9336H18.1629L18.1629 2.43359H16.6629ZM17.4129 68.1836H0.787874L0.787874 69.6836H17.4129L17.4129 68.1836ZM28.7587 68.9336H28.0087L28.0087 69.6836H28.7587L28.7587 68.9336ZM28.7587 2.43359L28.7587 1.68359H28.0087L28.0087 2.43359H28.7587ZM46.9987 2.43359L47.6339 2.03476L47.4134 1.68359H46.9987L46.9987 2.43359ZM72.6487 43.2836L72.0135 43.6824L72.234 44.0336H72.6487L72.6487 43.2836ZM72.8387 43.2836L72.8387 44.0336H73.5887L73.5887 43.2836H72.8387ZM72.8387 2.43359L72.8387 1.68359H72.0887L72.0887 2.43359H72.8387ZM89.4637 2.43359H90.2137L90.2137 1.68359H89.4637L89.4637 2.43359ZM89.4637 68.9336L89.4637 69.6836H90.2137L90.2137 68.9336H89.4637ZM71.2237 68.9336L70.5924 69.3385L70.8137 69.6836H71.2237L71.2237 68.9336ZM45.5737 28.9386L46.205 28.5337L45.9837 28.1886H45.5737L45.5737 28.9386ZM45.3837 28.9386L45.3837 28.1886H44.6337L44.6337 28.9386H45.3837ZM45.3837 68.9336L45.3837 69.6836H46.1337L46.1337 68.9336H45.3837ZM29.5087 68.9336L29.5087 2.43359H28.0087L28.0087 68.9336H29.5087ZM28.7587 3.18359H46.9987L46.9987 1.68359H28.7587L28.7587 3.18359ZM46.3635 2.83242L72.0135 43.6824L73.2839 42.8848L47.6339 2.03476L46.3635 2.83242ZM72.6487 44.0336H72.8387L72.8387 42.5336H72.6487L72.6487 44.0336ZM73.5887 43.2836L73.5887 2.43359H72.0887L72.0887 43.2836H73.5887ZM72.8387 3.18359H89.4637L89.4637 1.68359H72.8387L72.8387 3.18359ZM88.7137 2.43359L88.7137 68.9336H90.2137L90.2137 2.43359H88.7137ZM89.4637 68.1836H71.2237L71.2237 69.6836H89.4637L89.4637 68.1836ZM71.855 68.5287L46.205 28.5337L44.9424 29.3435L70.5924 69.3385L71.855 68.5287ZM45.5737 28.1886H45.3837L45.3837 29.6886H45.5737L45.5737 28.1886ZM44.6337 28.9386L44.6337 68.9336H46.1337L46.1337 28.9386H44.6337ZM45.3837 68.1836H28.7587L28.7587 69.6836H45.3837L45.3837 68.1836ZM95.1481 2.43359L95.1481 1.68359H94.3981L94.3981 2.43359H95.1481ZM153.098 2.43359H153.848L153.848 1.68359H153.098L153.098 2.43359ZM153.098 17.1586L153.098 17.9086H153.848L153.848 17.1586H153.098ZM132.388 17.1586L132.388 16.4086H131.638L131.638 17.1586H132.388ZM132.388 68.9336L132.388 69.6836H133.138L133.138 68.9336H132.388ZM115.763 68.9336H115.013L115.013 69.6836H115.763L115.763 68.9336ZM115.763 17.1586H116.513L116.513 16.4086H115.763L115.763 17.1586ZM95.1481 17.1586H94.3981L94.3981 17.9086H95.1481L95.1481 17.1586ZM95.1481 3.18359H153.098L153.098 1.68359H95.1481L95.1481 3.18359ZM152.348 2.43359L152.348 17.1586H153.848L153.848 2.43359H152.348ZM153.098 16.4086H132.388L132.388 17.9086H153.098L153.098 16.4086ZM131.638 17.1586L131.638 68.9336H133.138L133.138 17.1586H131.638ZM132.388 68.1836H115.763L115.763 69.6836H132.388L132.388 68.1836ZM116.513 68.9336L116.513 17.1586H115.013L115.013 68.9336H116.513ZM115.763 16.4086H95.1481L95.1481 17.9086H115.763L115.763 16.4086ZM95.8981 17.1586L95.8981 2.43359H94.3981L94.3981 17.1586H95.8981ZM175.315 42.0486L175.315 41.2986H174.565L174.565 42.0486H175.315ZM175.315 54.2086H174.565L174.565 54.9586H175.315L175.315 54.2086ZM207.425 54.2086H208.175L208.175 53.4586H207.425L207.425 54.2086ZM207.425 68.9336L207.425 69.6836H208.175L208.175 68.9336H207.425ZM158.69 68.9336H157.94L157.94 69.6836H158.69L158.69 68.9336ZM158.69 2.43359L158.69 1.68359H157.94L157.94 2.43359H158.69ZM207.33 2.43359H208.08L208.08 1.68359H207.33L207.33 2.43359ZM207.33 17.1586L207.33 17.9086H208.08L208.08 17.1586H207.33ZM175.315 17.1586L175.315 16.4086H174.565L174.565 17.1586H175.315ZM175.315 28.4636H174.565L174.565 29.2136H175.315L175.315 28.4636ZM204.385 28.4636H205.135L205.135 27.7136H204.385L204.385 28.4636ZM204.385 42.0486L204.385 42.7986H205.135L205.135 42.0486H204.385ZM174.565 42.0486L174.565 54.2086H176.065L176.065 42.0486H174.565ZM175.315 54.9586H207.425L207.425 53.4586H175.315L175.315 54.9586ZM206.675 54.2086L206.675 68.9336H208.175L208.175 54.2086H206.675ZM207.425 68.1836H158.69L158.69 69.6836H207.425L207.425 68.1836ZM159.44 68.9336L159.44 2.43359H157.94L157.94 68.9336H159.44ZM158.69 3.18359H207.33L207.33 1.68359H158.69L158.69 3.18359ZM206.58 2.43359L206.58 17.1586H208.08L208.08 2.43359H206.58ZM207.33 16.4086H175.315L175.315 17.9086H207.33L207.33 16.4086ZM174.565 17.1586L174.565 28.4636H176.065L176.065 17.1586H174.565ZM175.315 29.2136H204.385L204.385 27.7136H175.315L175.315 29.2136ZM203.635 28.4636L203.635 42.0486H205.135L205.135 28.4636H203.635ZM204.385 41.2986H175.315L175.315 42.7986H204.385L204.385 41.2986ZM245.715 0.62859L245.704 1.37851L245.706 1.37853L245.715 0.62859ZM276.305 22.7636L276.506 23.486L277.194 23.2943L277.036 22.5981L276.305 22.7636ZM260.63 27.1336L259.914 27.3568L260.13 28.0514L260.831 27.856L260.63 27.1336ZM262.15 45.6586L262.886 45.8035L262.9 45.7318L262.9 45.6586H262.15ZM262.15 45.1836H262.9L262.9 44.4336H262.15L262.15 45.1836ZM245.145 45.1836H244.395L244.395 45.9336H245.145L245.145 45.1836ZM245.145 33.1186L245.145 32.3686H244.395L244.395 33.1186H245.145ZM275.925 33.1186H276.675L276.675 32.3686H275.925L275.925 33.1186ZM275.925 68.9336L275.925 69.6836H276.675L276.675 68.9336H275.925ZM262.055 68.9336H261.305L261.305 69.6836H262.055L262.055 68.9336ZM262.055 68.4586L261.321 68.3056L261.305 68.3813L261.305 68.4586H262.055ZM265.285 60.1936L265.973 60.4918L266.258 59.8353L265.615 59.5203L265.285 60.1936ZM260.25 57.7236L260.58 57.0503L259.876 56.7047L259.562 57.4239L260.25 57.7236ZM211.315 36.6336C211.315 25.601 215.098 16.7285 221.257 10.6505C227.418 4.57052 236.005 1.23863 245.704 1.37851L245.726 -0.121332C235.664 -0.266448 226.677 3.19416 220.203 9.58288C213.727 15.9737 209.815 25.2462 209.815 36.6336H211.315ZM245.706 1.37853C261.006 1.56512 272.719 10.3136 275.573 22.9291L277.036 22.5981C274.001 9.18358 261.584 0.0720668 245.724 -0.121354L245.706 1.37853ZM276.104 22.0411L260.429 26.4111L260.831 27.856L276.506 23.486L276.104 22.0411ZM261.346 26.9104C260.171 23.1414 258.245 20.0771 255.521 17.9562C252.794 15.8319 249.323 14.6986 245.145 14.6986L245.145 16.1986C249.041 16.1986 252.174 17.2503 254.6 19.1397C257.03 21.0326 258.809 23.8108 259.914 27.3568L261.346 26.9104ZM245.145 14.6986C239.332 14.6986 234.697 16.924 231.529 20.7408C228.374 24.5415 226.725 29.8558 226.725 35.9686H228.225C228.225 30.1114 229.806 25.1657 232.683 21.6989C235.548 18.2482 239.748 16.1986 245.145 16.1986L245.145 14.6986ZM226.725 35.9686C226.725 42.2793 228.498 47.6261 231.854 51.4054C235.22 55.1956 240.114 57.3336 246.19 57.3336L246.19 55.8336C240.486 55.8336 236.022 53.8391 232.976 50.4093C229.92 46.9686 228.225 42.0079 228.225 35.9686H226.725ZM246.19 57.3336C255.291 57.3336 261.565 52.5087 262.886 45.8035L261.414 45.5137C260.265 51.3485 254.759 55.8336 246.19 55.8336L246.19 57.3336ZM262.9 45.6586L262.9 45.1836H261.4L261.4 45.6586H262.9ZM262.15 44.4336H245.145L245.145 45.9336H262.15L262.15 44.4336ZM245.895 45.1836L245.895 33.1186H244.395L244.395 45.1836H245.895ZM245.145 33.8686H275.925L275.925 32.3686H245.145L245.145 33.8686ZM275.175 33.1186L275.175 68.9336H276.675L276.675 33.1186H275.175ZM275.925 68.1836H262.055L262.055 69.6836H275.925L275.925 68.1836ZM262.805 68.9336L262.805 68.4586H261.305L261.305 68.9336H262.805ZM262.789 68.6116C263.011 67.5452 263.486 66.2464 264.077 64.8283C264.67 63.4054 265.344 61.9426 265.973 60.4918L264.597 59.8954C263.99 61.2945 263.287 62.8242 262.693 64.2514C262.096 65.6832 261.574 67.0919 261.321 68.3056L262.789 68.6116ZM265.615 59.5203L260.58 57.0503L259.92 58.3969L264.955 60.8669L265.615 59.5203ZM259.562 57.4239C257.988 61.0357 255.761 64.1199 252.679 66.3029C249.604 68.482 245.628 69.7986 240.49 69.7986L240.49 71.2986C245.897 71.2986 250.186 69.9077 253.547 67.5268C256.902 65.1498 259.282 61.8215 260.937 58.0233L259.562 57.4239ZM240.49 69.7986C230.972 69.7986 223.706 66.024 218.805 60.0277C213.89 54.0141 211.315 45.7147 211.315 36.6336H209.815C209.815 45.9825 212.465 54.6406 217.644 60.977C222.837 67.3307 230.533 71.2986 240.49 71.2986L240.49 69.7986ZM335.995 55.6336L336.689 55.348L336.688 55.3466L335.995 55.6336ZM338.655 62.0936L337.962 62.3792L337.966 62.3887L337.97 62.3982L338.655 62.0936ZM342.455 67.5086H343.205L343.205 67.0762L342.831 66.8595L342.455 67.5086ZM342.455 68.9336L342.455 69.6836H343.205L343.205 68.9336H342.455ZM323.835 68.9336L323.351 69.5061L323.561 69.6836H323.835L323.835 68.9336ZM321.84 65.7036L322.564 65.5063L322.553 65.4643L322.536 65.4239L321.84 65.7036ZM317.755 55.5386L317.058 55.8138L317.059 55.8183L317.755 55.5386ZM302.555 46.8936L302.555 46.1436H301.805L301.805 46.8936H302.555ZM302.555 68.9336L302.555 69.6836H303.305L303.305 68.9336H302.555ZM285.93 68.9336H285.18L285.18 69.6836H285.93L285.93 68.9336ZM285.93 2.43359L285.93 1.68359H285.18L285.18 2.43359H285.93ZM321.08 39.4836L321.031 38.7352L320.33 38.7812L320.33 39.4836H321.08ZM321.08 44.2336H320.33L320.33 44.8977L320.99 44.9781L321.08 44.2336ZM302.555 32.4536H301.805L301.805 33.2036H302.555L302.555 32.4536ZM302.555 16.8736L302.555 16.1236H301.805L301.805 16.8736H302.555ZM335.302 55.9192L337.962 62.3792L339.349 61.808L336.689 55.348L335.302 55.9192ZM337.97 62.3982C339.09 64.9177 340.029 66.9703 342.08 68.1577L342.831 66.8595C341.272 65.9569 340.501 64.3995 339.341 61.789L337.97 62.3982ZM341.705 67.5086L341.705 68.9336H343.205L343.205 67.5086H341.705ZM342.455 68.1836H323.835L323.835 69.6836H342.455L342.455 68.1836ZM324.32 68.3611C323.239 67.4468 322.825 66.4629 322.564 65.5063L321.117 65.9009C321.426 67.0343 321.961 68.3304 323.351 69.5061L324.32 68.3611ZM322.536 65.4239L318.451 55.2589L317.059 55.8183L321.144 65.9833L322.536 65.4239ZM318.453 55.2634C317.128 51.9024 315.981 49.5748 314.318 48.122C312.608 46.6268 310.462 46.1436 307.4 46.1436L307.4 47.6436C310.324 47.6436 312.026 48.1104 313.331 49.2514C314.685 50.4348 315.723 52.4298 317.058 55.8137L318.453 55.2634ZM307.4 46.1436H302.555L302.555 47.6436H307.4L307.4 46.1436ZM301.805 46.8936L301.805 68.9336H303.305L303.305 46.8936H301.805ZM302.555 68.1836H285.93L285.93 69.6836H302.555L302.555 68.1836ZM286.68 68.9336L286.68 2.43359H285.18L285.18 68.9336H286.68ZM285.93 3.18359H321.175L321.175 1.68359H285.93L285.93 3.18359ZM321.175 3.18359C327.458 3.18359 332.293 4.88116 335.55 7.84516C338.798 10.8012 340.565 15.097 340.565 20.4836H342.065C342.065 14.7551 340.175 10.026 336.56 6.73577C332.953 3.45352 327.718 1.68359 321.175 1.68359L321.175 3.18359ZM340.565 20.4836C340.565 26.5062 338.811 30.8161 335.576 33.7376C332.319 36.6787 327.453 38.3134 321.031 38.7352L321.13 40.232C327.723 39.7988 332.974 38.1085 336.581 34.8508C340.21 31.5736 342.065 26.811 342.065 20.4836H340.565ZM320.33 39.4836L320.33 44.2336H321.83L321.83 39.4836H320.33ZM320.99 44.9781C324.899 45.4548 327.477 45.9427 329.574 47.3815C331.66 48.8117 333.371 51.2578 335.302 55.9206L336.688 55.3466C334.724 50.6044 332.874 47.8255 330.423 46.1445C327.984 44.4719 325.052 43.9624 321.171 43.4891L320.99 44.9781ZM302.555 33.2036H317.185L317.185 31.7036H302.555L302.555 33.2036ZM317.185 33.2036C319.624 33.2036 321.71 32.4381 323.185 30.9224C324.659 29.4084 325.44 27.2317 325.44 24.5686H323.94C323.94 26.9405 323.249 28.7063 322.11 29.8761C320.973 31.0441 319.307 31.7036 317.185 31.7036L317.185 33.2036ZM325.44 24.5686C325.44 21.8879 324.77 19.7434 323.326 18.272C321.879 16.7981 319.778 16.1236 317.185 16.1236L317.185 17.6236C319.533 17.6236 321.184 18.2316 322.255 19.3227C323.328 20.4163 323.94 22.1192 323.94 24.5686H325.44ZM317.185 16.1236H302.555L302.555 17.6236H317.185L317.185 16.1236ZM301.805 16.8736L301.805 32.4536H303.305L303.305 16.8736H301.805ZM411.71 68.9336L411.71 69.6836H412.791L412.412 68.6707L411.71 68.9336ZM394.515 68.9336L393.806 69.1789L393.981 69.6836H394.515L394.515 68.9336ZM391.095 59.0536L391.803 58.8083L391.629 58.3036H391.095L391.095 59.0536ZM363.64 59.0536L363.64 58.3036H363.106L362.931 58.8083L363.64 59.0536ZM360.22 68.9336L360.22 69.6836H360.754L360.928 69.1789L360.22 68.9336ZM342.93 68.9336L342.227 68.6707L341.848 69.6836H342.93L342.93 68.9336ZM367.82 2.43359L367.82 1.68359H367.3L367.117 2.17069L367.82 2.43359ZM386.82 2.43359L387.522 2.17069L387.34 1.68359H386.82L386.82 2.43359ZM371.24 37.1086L371.948 37.3564L371.95 37.3494L371.24 37.1086ZM368.58 44.7086L367.872 44.4608L367.523 45.4586H368.58L368.58 44.7086ZM386.155 44.7086L386.155 45.4586H387.212L386.863 44.4608L386.155 44.7086ZM383.495 37.1086L382.784 37.3494L382.787 37.3564L383.495 37.1086ZM380.265 19.5336L381.012 19.4748L380.958 18.7836H380.265L380.265 19.5336ZM374.47 19.5336L374.47 18.7836H373.776L373.722 19.4748L374.47 19.5336ZM411.71 68.1836H394.515L394.515 69.6836H411.71L411.71 68.1836ZM395.223 68.6883L391.803 58.8083L390.386 59.2989L393.806 69.1789L395.223 68.6883ZM391.095 58.3036H363.64L363.64 59.8036H391.095L391.095 58.3036ZM362.931 58.8083L359.511 68.6883L360.928 69.1789L364.348 59.2989L362.931 58.8083ZM360.22 68.1836H342.93L342.93 69.6836H360.22L360.22 68.1836ZM343.632 69.1965L368.522 2.69649L367.117 2.17069L342.227 68.6707L343.632 69.1965ZM367.82 3.18359H386.82L386.82 1.68359H367.82L367.82 3.18359ZM386.117 2.69649L411.007 69.1965L412.412 68.6707L387.522 2.17069L386.117 2.69649ZM370.532 36.8608L367.872 44.4608L369.288 44.9564L371.948 37.3564L370.532 36.8608ZM368.58 45.4586H386.155L386.155 43.9586H368.58L368.58 45.4586ZM386.863 44.4608L384.203 36.8608L382.787 37.3564L385.447 44.9564L386.863 44.4608ZM384.205 36.8678C382.331 31.3393 381.674 27.8896 381.012 19.4748L379.517 19.5924C380.185 28.0876 380.858 31.6679 382.784 37.3494L384.205 36.8678ZM380.265 18.7836H374.47L374.47 20.2836H380.265L380.265 18.7836ZM373.722 19.4748C373.06 27.8896 372.403 31.3393 370.529 36.8678L371.95 37.3494C373.876 31.6679 374.549 28.0876 375.217 19.5924L373.722 19.4748ZM404.993 2.43359L404.993 1.68359H404.243L404.243 2.43359H404.993ZM462.943 2.43359H463.693L463.693 1.68359H462.943L462.943 2.43359ZM462.943 17.1586L462.943 17.9086H463.693L463.693 17.1586H462.943ZM442.233 17.1586L442.233 16.4086H441.483L441.483 17.1586H442.233ZM442.233 68.9336L442.233 69.6836H442.983L442.983 68.9336H442.233ZM425.608 68.9336H424.858L424.858 69.6836H425.608L425.608 68.9336ZM425.608 17.1586H426.358L426.358 16.4086H425.608L425.608 17.1586ZM404.993 17.1586H404.243L404.243 17.9086H404.993L404.993 17.1586ZM404.993 3.18359H462.943L462.943 1.68359H404.993L404.993 3.18359ZM462.193 2.43359L462.193 17.1586H463.693L463.693 2.43359H462.193ZM462.943 16.4086H442.233L442.233 17.9086H462.943L462.943 16.4086ZM441.483 17.1586L441.483 68.9336H442.983L442.983 17.1586H441.483ZM442.233 68.1836H425.608L425.608 69.6836H442.233L442.233 68.1836ZM426.358 68.9336L426.358 17.1586H424.858L424.858 68.9336H426.358ZM425.608 16.4086H404.993L404.993 17.9086H425.608L425.608 16.4086ZM405.743 17.1586L405.743 2.43359H404.243L404.243 17.1586H405.743ZM469.579 68.9336H468.829L468.829 69.6836H469.579L469.579 68.9336ZM469.579 2.43359L469.579 1.68359H468.829L468.829 2.43359H469.579ZM486.204 2.43359H486.954L486.954 1.68359H486.204L486.204 2.43359ZM486.204 68.9336L486.204 69.6836H486.954L486.954 68.9336H486.204ZM470.329 68.9336L470.329 2.43359H468.829L468.829 68.9336H470.329ZM469.579 3.18359H486.204L486.204 1.68359H469.579L469.579 3.18359ZM485.454 2.43359L485.454 68.9336H486.954L486.954 2.43359H485.454ZM486.204 68.1836H469.579L469.579 69.6836H486.204L486.204 68.1836ZM495.925 35.6836C495.925 15.8601 510.412 1.37859 530.04 1.37859L530.04 -0.12141C509.578 -0.12141 494.425 15.0371 494.425 35.6836H495.925ZM530.04 1.37859C549.572 1.37859 564.06 15.8587 564.06 35.6836H565.56C565.56 15.0384 550.409 -0.12141 530.04 -0.12141L530.04 1.37859ZM564.06 35.6836C564.06 55.5084 549.572 69.9886 530.04 69.9886L530.04 71.4886C550.409 71.4886 565.56 56.3287 565.56 35.6836H564.06ZM530.04 69.9886C510.412 69.9886 495.925 55.5071 495.925 35.6836H494.425C494.425 56.3301 509.578 71.4886 530.04 71.4886L530.04 69.9886ZM511.24 35.6836C511.24 41.866 513.116 47.1133 516.43 50.825C519.751 54.5437 524.471 56.6686 530.04 56.6686L530.04 55.1686C524.874 55.1686 520.57 53.2084 517.549 49.8259C514.522 46.4364 512.74 41.5661 512.74 35.6836H511.24ZM530.04 56.6686C535.995 56.6686 540.699 54.3966 543.902 50.595C547.093 46.8084 548.745 41.5651 548.745 35.6836H547.245C547.245 41.2971 545.668 46.1713 542.755 49.6284C539.855 53.0705 535.581 55.1686 530.04 55.1686L530.04 56.6686ZM548.745 35.6836C548.745 29.6579 547.044 24.4122 543.826 20.6603C540.598 16.8953 535.895 14.6986 530.04 14.6986L530.04 16.1986C535.491 16.1986 539.766 18.2293 542.688 21.6368C545.621 25.0574 547.245 29.9293 547.245 35.6836H548.745ZM530.04 14.6986C524.195 14.6986 519.467 16.8178 516.211 20.5485C512.965 24.2672 511.24 29.5164 511.24 35.6836H512.74C512.74 29.7858 514.388 24.9174 517.341 21.5349C520.283 18.1643 524.581 16.1986 530.04 16.1986L530.04 14.6986ZM572.582 68.9336H571.832L571.832 69.6836H572.582L572.582 68.9336ZM572.582 2.43359L572.582 1.68359H571.832L571.832 2.43359H572.582ZM590.822 2.43359L591.457 2.03476L591.236 1.68359H590.822L590.822 2.43359ZM616.472 43.2836L615.837 43.6824L616.057 44.0336H616.472L616.472 43.2836ZM616.662 43.2836L616.662 44.0336H617.412L617.412 43.2836H616.662ZM616.662 2.43359L616.662 1.68359H615.912L615.912 2.43359H616.662ZM633.287 2.43359H634.037L634.037 1.68359H633.287L633.287 2.43359ZM633.287 68.9336L633.287 69.6836H634.037L634.037 68.9336H633.287ZM615.047 68.9336L614.415 69.3385L614.637 69.6836H615.047L615.047 68.9336ZM589.397 28.9386L590.028 28.5337L589.807 28.1886H589.397L589.397 28.9386ZM589.207 28.9386L589.207 28.1886H588.457L588.457 28.9386H589.207ZM589.207 68.9336L589.207 69.6836H589.957L589.957 68.9336H589.207ZM573.332 68.9336L573.332 2.43359H571.832L571.832 68.9336H573.332ZM572.582 3.18359H590.822L590.822 1.68359H572.582L572.582 3.18359ZM590.187 2.83242L615.837 43.6824L617.107 42.8848L591.457 2.03476L590.187 2.83242ZM616.472 44.0336H616.662L616.662 42.5336H616.472L616.472 44.0336ZM617.412 43.2836L617.412 2.43359H615.912L615.912 43.2836H617.412ZM616.662 3.18359H633.287L633.287 1.68359H616.662L616.662 3.18359ZM632.537 2.43359L632.537 68.9336H634.037L634.037 2.43359H632.537ZM633.287 68.1836H615.047L615.047 69.6836H633.287L633.287 68.1836ZM615.678 68.5287L590.028 28.5337L588.765 29.3435L614.415 69.3385L615.678 68.5287ZM589.397 28.1886H589.207L589.207 29.6886H589.397L589.397 28.1886ZM588.457 28.9386L588.457 68.9336H589.957L589.957 28.9386H588.457ZM589.207 68.1836H572.582L572.582 69.6836H589.207L589.207 68.1836ZM682.66 68.9336L682.66 69.6836H683.41L683.41 68.9336H682.66ZM666.795 68.9336H666.045L666.045 69.6836H666.795L666.795 68.9336ZM666.795 2.43359L666.795 1.68359H666.045L666.045 2.43359H666.795ZM693.205 2.43359L693.933 2.25356L693.792 1.68359H693.205L693.205 2.43359ZM699.665 28.5586L700.394 28.3809L700.393 28.3786L699.665 28.5586ZM701.755 46.3236L701.005 46.3508L701.032 47.0736H701.755L701.755 46.3236ZM706.6 46.3236L706.6 47.0736H707.324L707.35 46.3504L706.6 46.3236ZM708.69 28.5586L707.962 28.3786L707.962 28.3787L708.69 28.5586ZM715.15 2.43359L715.15 1.68359H714.563L714.422 2.25356L715.15 2.43359ZM741.56 2.43359H742.31L742.31 1.68359H741.56L741.56 2.43359ZM741.56 68.9336L741.56 69.6836H742.31L742.31 68.9336H741.56ZM725.695 68.9336H724.945L724.945 69.6836H725.695L725.695 68.9336ZM731.775 19.7236L732.498 19.9222L732.696 19.2026L731.977 19.0014L731.775 19.7236ZM724.65 17.7286L724.852 17.0064L724.125 16.8028L723.926 17.5313L724.65 17.7286ZM710.685 68.9336L710.685 69.6836H711.258L711.409 69.1309L710.685 68.9336ZM697.67 68.9336L696.946 69.1309L697.097 69.6836H697.67L697.67 68.9336ZM683.705 17.7286L684.429 17.5313L684.23 16.8028L683.503 17.0064L683.705 17.7286ZM676.58 19.7236L676.378 19.0014L675.659 19.2026L675.857 19.9222L676.58 19.7236ZM682.66 68.1836H666.795L666.795 69.6836H682.66L682.66 68.1836ZM667.545 68.9336L667.545 2.43359H666.045L666.045 68.9336H667.545ZM666.795 3.18359H693.205L693.205 1.68359H666.795L666.795 3.18359ZM692.477 2.61362L698.937 28.7386L700.393 28.3786L693.933 2.25356L692.477 2.61362ZM698.936 28.7363C700.816 36.4426 700.815 41.1211 701.005 46.3508L702.505 46.2963C702.315 41.0761 702.314 36.2545 700.394 28.3809L698.936 28.7363ZM701.755 47.0736H706.6L706.6 45.5736H701.755L701.755 47.0736ZM707.35 46.3504C707.54 41.0211 707.445 36.7268 709.418 28.7385L707.962 28.3787C705.945 36.5404 706.04 40.9861 705.85 46.2968L707.35 46.3504ZM709.418 28.7386L715.878 2.61362L714.422 2.25356L707.962 28.3786L709.418 28.7386ZM715.15 3.18359H741.56L741.56 1.68359H715.15L715.15 3.18359ZM740.81 2.43359L740.81 68.9336H742.31L742.31 2.43359H740.81ZM741.56 68.1836H725.695L725.695 69.6836H741.56L741.56 68.1836ZM726.445 68.9336L726.445 54.2086H724.945L724.945 68.9336H726.445ZM726.445 54.2086C726.445 44.4294 727.469 38.236 732.498 19.9222L731.052 19.525C726.011 37.8812 724.945 44.2278 724.945 54.2086H726.445ZM731.977 19.0014L724.852 17.0064L724.448 18.4508L731.573 20.4458L731.977 19.0014ZM723.926 17.5313L709.961 68.7363L711.409 69.1309L725.374 17.9259L723.926 17.5313ZM710.685 68.1836H697.67L697.67 69.6836H710.685L710.685 68.1836ZM698.394 68.7363L684.429 17.5313L682.981 17.9259L696.946 69.1309L698.394 68.7363ZM683.503 17.0064L676.378 19.0014L676.782 20.4458L683.907 18.4508L683.503 17.0064ZM675.857 19.9222C680.886 38.236 681.91 44.4294 681.91 54.2086H683.41C683.41 44.2278 682.344 37.8812 677.303 19.525L675.857 19.9222ZM681.91 54.2086L681.91 68.9336H683.41L683.41 54.2086H681.91ZM768.471 42.0486L768.471 41.2986H767.721L767.721 42.0486H768.471ZM768.471 54.2086H767.721L767.721 54.9586H768.471L768.471 54.2086ZM800.581 54.2086H801.331L801.331 53.4586H800.581L800.581 54.2086ZM800.581 68.9336L800.581 69.6836H801.331L801.331 68.9336H800.581ZM751.846 68.9336H751.096L751.096 69.6836H751.846L751.846 68.9336ZM751.846 2.43359L751.846 1.68359H751.096L751.096 2.43359H751.846ZM800.486 2.43359H801.236L801.236 1.68359H800.486L800.486 2.43359ZM800.486 17.1586L800.486 17.9086H801.236L801.236 17.1586H800.486ZM768.471 17.1586L768.471 16.4086H767.721L767.721 17.1586H768.471ZM768.471 28.4636H767.721L767.721 29.2136H768.471L768.471 28.4636ZM797.541 28.4636H798.291L798.291 27.7136H797.541L797.541 28.4636ZM797.541 42.0486L797.541 42.7986H798.291L798.291 42.0486H797.541ZM767.721 42.0486L767.721 54.2086H769.221L769.221 42.0486H767.721ZM768.471 54.9586H800.581L800.581 53.4586H768.471L768.471 54.9586ZM799.831 54.2086L799.831 68.9336H801.331L801.331 54.2086H799.831ZM800.581 68.1836H751.846L751.846 69.6836H800.581L800.581 68.1836ZM752.596 68.9336L752.596 2.43359H751.096L751.096 68.9336H752.596ZM751.846 3.18359L800.486 3.18359L800.486 1.68359L751.846 1.68359L751.846 3.18359ZM799.736 2.43359L799.736 17.1586H801.236L801.236 2.43359H799.736ZM800.486 16.4086H768.471L768.471 17.9086H800.486L800.486 16.4086ZM767.721 17.1586L767.721 28.4636H769.221L769.221 17.1586H767.721ZM768.471 29.2136H797.541L797.541 27.7136H768.471L768.471 29.2136ZM796.791 28.4636L796.791 42.0486H798.291L798.291 28.4636H796.791ZM797.541 41.2986H768.471L768.471 42.7986H797.541L797.541 41.2986ZM803.67 2.43359L803.67 1.68359H802.92L802.92 2.43359H803.67ZM861.62 2.43359H862.37L862.37 1.68359H861.62L861.62 2.43359ZM861.62 17.1586L861.62 17.9086H862.37L862.37 17.1586H861.62ZM840.91 17.1586L840.91 16.4086H840.16L840.16 17.1586H840.91ZM840.91 68.9336L840.91 69.6836H841.66L841.66 68.9336H840.91ZM824.285 68.9336H823.535L823.535 69.6836H824.285L824.285 68.9336ZM824.285 17.1586H825.035L825.035 16.4086H824.285L824.285 17.1586ZM803.67 17.1586H802.92L802.92 17.9086H803.67L803.67 17.1586ZM803.67 3.18359H861.62L861.62 1.68359H803.67L803.67 3.18359ZM860.87 2.43359L860.87 17.1586H862.37L862.37 2.43359H860.87ZM861.62 16.4086H840.91L840.91 17.9086H861.62L861.62 16.4086ZM840.16 17.1586L840.16 68.9336H841.66L841.66 17.1586H840.16ZM840.91 68.1836H824.285L824.285 69.6836H840.91L840.91 68.1836ZM825.035 68.9336L825.035 17.1586H823.535L823.535 68.9336H825.035ZM824.285 16.4086H803.67L803.67 17.9086H824.285L824.285 16.4086ZM804.42 17.1586L804.42 2.43359H802.92L802.92 17.1586H804.42ZM867.212 68.9336H866.462L866.462 69.6836H867.212L867.212 68.9336ZM867.212 2.43359L867.212 1.68359H866.462L866.462 2.43359H867.212ZM883.837 2.43359H884.587L884.587 1.68359H883.837L883.837 2.43359ZM883.837 27.3236H883.087L883.087 28.0736H883.837L883.837 27.3236ZM907.302 27.3236L907.302 28.0736H908.052L908.052 27.3236H907.302ZM907.302 2.43359L907.302 1.68359H906.552L906.552 2.43359H907.302ZM924.022 2.43359H924.772L924.772 1.68359H924.022L924.022 2.43359ZM924.022 68.9336L924.022 69.6836H924.772L924.772 68.9336H924.022ZM907.302 68.9336H906.552L906.552 69.6836H907.302L907.302 68.9336ZM907.302 42.8086H908.052L908.052 42.0586H907.302L907.302 42.8086ZM883.837 42.8086L883.837 42.0586H883.087L883.087 42.8086H883.837ZM883.837 68.9336L883.837 69.6836H884.587L884.587 68.9336H883.837ZM867.962 68.9336L867.962 2.43359H866.462L866.462 68.9336H867.962ZM867.212 3.18359H883.837L883.837 1.68359H867.212L867.212 3.18359ZM883.087 2.43359L883.087 27.3236H884.587L884.587 2.43359H883.087ZM883.837 28.0736H907.302L907.302 26.5736H883.837L883.837 28.0736ZM908.052 27.3236L908.052 2.43359H906.552L906.552 27.3236H908.052ZM907.302 3.18359H924.022L924.022 1.68359H907.302L907.302 3.18359ZM923.272 2.43359L923.272 68.9336H924.772L924.772 2.43359H923.272ZM924.022 68.1836H907.302L907.302 69.6836H924.022L924.022 68.1836ZM908.052 68.9336L908.052 42.8086H906.552L906.552 68.9336H908.052ZM907.302 42.0586H883.837L883.837 43.5586H907.302L907.302 42.0586ZM883.087 42.8086L883.087 68.9336H884.587L884.587 42.8086H883.087ZM883.837 68.1836H867.212L867.212 69.6836H883.837L883.837 68.1836ZM932.64 35.6836C932.64 15.8601 947.126 1.37859 966.755 1.37859L966.755 -0.12141C946.293 -0.12141 931.14 15.0371 931.14 35.6836H932.64ZM966.755 1.37859C986.286 1.37859 1000.77 15.8587 1000.77 35.6836H1002.27C1002.27 15.0384 987.123 -0.12141 966.755 -0.12141L966.755 1.37859ZM1000.77 35.6836C1000.77 55.5084 986.286 69.9886 966.755 69.9886L966.755 71.4886C987.123 71.4886 1002.27 56.3287 1002.27 35.6836H1000.77ZM966.755 69.9886C947.126 69.9886 932.64 55.5071 932.64 35.6836H931.14C931.14 56.3301 946.293 71.4886 966.755 71.4886L966.755 69.9886ZM947.955 35.6836C947.955 41.866 949.83 47.1133 953.144 50.825C956.465 54.5437 961.185 56.6686 966.755 56.6686L966.755 55.1686C961.589 55.1686 957.284 53.2084 954.263 49.8259C951.237 46.4364 949.455 41.5661 949.455 35.6836H947.955ZM966.755 56.6686C972.709 56.6686 977.413 54.3966 980.616 50.595C983.807 46.8084 985.46 41.5651 985.46 35.6836H983.96C983.96 41.2971 982.382 46.1713 979.469 49.6284C976.569 53.0705 972.295 55.1686 966.755 55.1686L966.755 56.6686ZM985.46 35.6836C985.46 29.6579 983.758 24.4122 980.541 20.6603C977.312 16.8953 972.609 14.6986 966.755 14.6986L966.755 16.1986C972.205 16.1986 976.48 18.2293 979.402 21.6368C982.336 25.0574 983.96 29.9293 983.96 35.6836H985.46ZM966.755 14.6986C960.909 14.6986 956.182 16.8178 952.925 20.5485C949.679 24.2672 947.955 29.5164 947.955 35.6836H949.455C949.455 29.7858 951.103 24.9174 954.055 21.5349C956.997 18.1643 961.295 16.1986 966.755 16.1986L966.755 14.6986ZM1009.3 2.43359L1009.3 1.68359H1008.55L1008.55 2.43359H1009.3ZM1009.3 68.9336H1008.55L1008.55 69.6836H1009.3L1009.3 68.9336ZM1025.92 54.2086H1025.17L1025.17 54.9586H1025.92L1025.92 54.2086ZM1025.92 17.1586L1025.92 16.4086H1025.17L1025.17 17.1586H1025.92ZM1009.3 3.18359H1037.8L1037.8 1.68359H1009.3L1009.3 3.18359ZM1037.8 3.18359C1046.7 3.18359 1054.09 6.09322 1059.26 11.5582C1064.42 17.0271 1067.45 25.1378 1067.45 35.6836H1068.95C1068.95 24.8544 1065.84 16.3401 1060.35 10.5278C1054.85 4.71146 1047.04 1.68359 1037.8 1.68359L1037.8 3.18359ZM1067.45 35.6836C1067.45 46.3835 1064.56 54.4893 1059.43 59.916C1054.31 65.3371 1046.86 68.1836 1037.51 68.1836L1037.51 69.6836C1047.17 69.6836 1055.05 66.735 1060.52 60.9462C1065.99 55.1629 1068.95 46.6437 1068.95 35.6836H1067.45ZM1037.51 68.1836H1009.3L1009.3 69.6836H1037.51L1037.51 68.1836ZM1010.05 68.9336L1010.05 2.43359H1008.55L1008.55 68.9336H1010.05ZM1025.92 54.9586H1036.37L1036.37 53.4586H1025.92L1025.92 54.9586ZM1036.37 54.9586C1040.84 54.9586 1044.88 53.9383 1047.79 50.9167C1050.69 47.9035 1052.32 43.0435 1052.32 35.6836H1050.82C1050.82 42.8587 1049.22 47.2612 1046.71 49.8767C1044.2 52.4838 1040.64 53.4586 1036.37 53.4586L1036.37 54.9586ZM1052.32 35.6836C1052.32 29.2818 1051 24.4452 1048.29 21.2017C1045.55 17.932 1041.51 16.4086 1036.37 16.4086L1036.37 17.9086C1041.21 17.9086 1044.77 19.3301 1047.14 22.1642C1049.53 25.0245 1050.82 29.4504 1050.82 35.6836H1052.32ZM1036.37 16.4086H1025.92L1025.92 17.9086H1036.37L1036.37 16.4086ZM1025.17 17.1586L1025.17 54.2086H1026.67L1026.67 17.1586H1025.17ZM1073.13 48.5086L1072.98 47.7721L1072.33 47.8969L1072.38 48.5567L1073.13 48.5086ZM1087.95 45.6586L1088.69 45.6003L1088.63 44.7636L1087.8 44.9221L1087.95 45.6586ZM1099.06 42.1436L1099.17 41.4021L1099.17 41.4019L1099.06 42.1436ZM1129.46 20.4836L1129.63 21.2148L1130.27 21.0692L1130.21 20.4178L1129.46 20.4836ZM1114.07 23.9986L1113.33 24.1337L1113.47 24.9042L1114.24 24.7298L1114.07 23.9986ZM1109.7 28.4636L1109.82 27.7236L1109.82 27.7226L1109.7 28.4636ZM1073.27 49.2451L1088.09 46.3951L1087.8 44.9221L1072.98 47.7721L1073.27 49.2451ZM1087.2 45.7169C1087.5 49.5779 1089.19 52.6065 1091.93 54.6546C1094.64 56.6895 1098.33 57.7136 1102.58 57.7136L1102.58 56.2136C1098.56 56.2136 1095.21 55.2427 1092.82 53.4539C1090.45 51.6782 1088.96 49.0542 1088.69 45.6003L1087.2 45.7169ZM1102.58 57.7136C1105.7 57.7136 1108.39 57.0809 1110.31 55.78C1112.27 54.4561 1113.4 52.4682 1113.4 49.9336H1111.9C1111.9 51.959 1111.03 53.486 1109.47 54.5372C1107.88 55.6113 1105.53 56.2136 1102.58 56.2136L1102.58 57.7136ZM1113.4 49.9336C1113.4 48.7999 1113.2 47.7576 1112.68 46.8172C1112.15 45.8752 1111.35 45.0947 1110.23 44.4313C1108.02 43.1267 1104.49 42.2096 1099.17 41.4021L1098.95 42.8851C1104.27 43.6925 1107.53 44.5805 1109.46 45.7221C1110.41 46.2818 1111 46.8848 1111.36 47.543C1111.73 48.2027 1111.9 48.9773 1111.9 49.9336H1113.4ZM1099.17 41.4019C1090.39 40.0804 1084.58 37.7838 1080.97 34.5322C1077.39 31.3136 1075.87 27.0752 1075.87 21.6236H1074.37C1074.37 27.382 1075.99 32.0736 1079.96 35.6475C1083.9 39.1884 1090.06 41.5467 1098.95 42.8852L1099.17 41.4019ZM1075.87 21.6236C1075.87 15.1453 1078.41 10.1448 1082.81 6.74396C1087.24 3.32495 1093.61 1.47359 1101.34 1.47359L1101.34 -0.0264114C1093.39 -0.0264114 1086.66 1.87472 1081.89 5.55697C1077.1 9.25742 1074.37 14.7069 1074.37 21.6236H1075.87ZM1101.34 1.47359C1117 1.47359 1127.72 9.22291 1128.71 20.5493L1130.21 20.4178C1129.11 7.99427 1117.41 -0.0264114 1101.34 -0.0264114L1101.34 1.47359ZM1129.29 19.7524L1113.9 23.2674L1114.24 24.7298L1129.63 21.2148L1129.29 19.7524ZM1114.81 23.8635C1114.16 20.3434 1112.63 17.6894 1110.27 15.9277C1107.91 14.1748 1104.82 13.3686 1101.15 13.3686L1101.15 14.8686C1104.61 14.8686 1107.36 15.6299 1109.37 17.1308C1111.38 18.6228 1112.74 20.9088 1113.33 24.1337L1114.81 23.8635ZM1101.15 13.3686C1097.94 13.3686 1095.42 13.9743 1093.68 15.1474C1091.9 16.3461 1091 18.101 1091 20.1986H1092.5C1092.5 18.5911 1093.16 17.3061 1094.52 16.3911C1095.91 15.4504 1098.09 14.8686 1101.15 14.8686L1101.15 13.3686ZM1091 20.1986C1091 21.6605 1091.36 22.8924 1092.17 23.9199C1092.98 24.931 1094.16 25.6737 1095.67 26.2749C1098.67 27.4654 1103.26 28.2129 1109.58 29.2045L1109.82 27.7226C1103.41 26.7192 1099.03 25.9943 1096.23 24.881C1094.84 24.3304 1093.92 23.7134 1093.35 22.9878C1092.79 22.2785 1092.5 21.3966 1092.5 20.1986H1091ZM1109.58 29.2035C1116.66 30.3757 1121.39 32.6778 1124.36 35.9281C1127.32 39.1682 1128.62 43.4528 1128.62 48.7936H1130.12C1130.12 43.2094 1128.75 38.5165 1125.47 34.9166C1122.19 31.3269 1117.09 28.9265 1109.82 27.7237L1109.58 29.2035ZM1128.62 48.7936C1128.62 55.5944 1125.85 60.8577 1121.13 64.4416C1116.4 68.0431 1109.64 69.9886 1101.63 69.9886L1101.63 71.4886C1109.86 71.4886 1116.97 69.4916 1122.04 65.6356C1127.14 61.7619 1130.12 56.0527 1130.12 48.7936H1128.62ZM1101.63 69.9886C1092.96 69.9886 1086.23 67.7874 1081.58 64.0277C1076.93 60.2769 1074.29 54.9217 1073.87 48.4605L1072.38 48.5567C1072.82 55.3955 1075.63 61.1553 1080.63 65.1945C1085.62 69.2248 1092.72 71.4886 1101.63 71.4886L1101.63 69.9886Z" fill="#A68EFF"/>
</svg>
