<svg width="1093" height="72" viewBox="0 0 1093 72" fill="none" xmlns="http://www.w3.org/2000/svg">
<path d="M0.382539 69.2188H0.0780531L0.0780531 69.5232H0.382539L0.382539 69.2188ZM0.382543 2.71875L0.382543 2.41426H0.0780571L0.078057 2.71875H0.382543ZM17.0075 2.71875H17.312L17.312 2.41426H17.0075L17.0075 2.71875ZM17.0075 69.2188L17.0075 69.5232H17.312L17.312 69.2188H17.0075ZM0.687025 69.2188L0.687029 2.71875H0.078057L0.0780531 69.2188H0.687025ZM0.382543 3.02323H17.0075L17.0075 2.41426H0.382543L0.382543 3.02323ZM16.7031 2.71875L16.7031 69.2188H17.312L17.312 2.71875H16.7031ZM17.0075 68.9143H0.382539L0.382539 69.5232H17.0075L17.0075 68.9143ZM28.3534 69.2188H28.0489L28.0489 69.5232H28.3534L28.3534 69.2188ZM28.3534 2.71875L28.3534 2.41426H28.0489L28.0489 2.71875H28.3534ZM46.5934 2.71875L46.8512 2.55683L46.7617 2.41426H46.5934L46.5934 2.71875ZM72.2434 43.5687L71.9855 43.7307L72.075 43.8732H72.2434L72.2434 43.5687ZM72.4334 43.5687L72.4334 43.8732H72.7378L72.7378 43.5687H72.4334ZM72.4334 2.71875L72.4334 2.41426H72.1289L72.1289 2.71875H72.4334ZM89.0584 2.71875H89.3629L89.3629 2.41426H89.0584L89.0584 2.71875ZM89.0584 69.2188L89.0584 69.5232H89.3628L89.3628 69.2188H89.0584ZM70.8184 69.2188L70.5621 69.3831L70.6519 69.5232H70.8184L70.8184 69.2188ZM45.1684 29.2237L45.4247 29.0594L45.3348 28.9193H45.1684L45.1684 29.2237ZM44.9784 29.2237L44.9784 28.9193H44.6739L44.6739 29.2237H44.9784ZM44.9784 69.2188L44.9784 69.5232H45.2828L45.2828 69.2188H44.9784ZM28.6578 69.2188L28.6578 2.71875H28.0489L28.0489 69.2188H28.6578ZM28.3534 3.02323H46.5934L46.5934 2.41426H28.3534L28.3534 3.02323ZM46.3355 2.88066L71.9855 43.7307L72.5012 43.4068L46.8512 2.55683L46.3355 2.88066ZM72.2434 43.8732H72.4334L72.4334 43.2643H72.2434L72.2434 43.8732ZM72.7378 43.5687L72.7378 2.71875H72.1289L72.1289 43.5687H72.7378ZM72.4334 3.02323H89.0584L89.0584 2.41426H72.4334L72.4334 3.02323ZM88.7539 2.71875L88.7539 69.2188H89.3628L89.3629 2.71875H88.7539ZM89.0584 68.9143H70.8184L70.8184 69.5232H89.0584L89.0584 68.9143ZM71.0747 69.0544L45.4247 29.0594L44.9121 29.3881L70.5621 69.3831L71.0747 69.0544ZM45.1684 28.9193H44.9784L44.9784 29.5282H45.1684L45.1684 28.9193ZM44.6739 29.2237L44.6739 69.2188H45.2828L45.2828 29.2237H44.6739ZM44.9784 68.9143H28.3534L28.3534 69.5232H44.9784L44.9784 68.9143ZM96.3578 48.7937L96.3003 48.4947L96.0367 48.5454L96.0539 48.8133L96.3578 48.7937ZM111.178 45.9437L111.481 45.9201L111.455 45.5804L111.12 45.6447L111.178 45.9437ZM122.293 42.4287L122.338 42.1277L122.338 42.1277L122.293 42.4287ZM152.693 20.7687L152.761 21.0656L153.019 21.0065L152.996 20.7421L152.693 20.7687ZM137.303 24.2837L137.003 24.3386L137.061 24.6514L137.371 24.5806L137.303 24.2837ZM132.933 28.7487L132.983 28.4483L132.98 28.4479L132.933 28.7487ZM96.4153 49.0928L111.235 46.2428L111.12 45.6447L96.3003 48.4947L96.4153 49.0928ZM110.874 45.9674C111.166 49.7076 112.798 52.6159 115.425 54.5831C118.044 56.5449 121.629 57.5532 125.808 57.5532L125.808 56.9443C121.721 56.9443 118.276 55.9576 115.79 54.0956C113.31 52.2391 111.76 49.4949 111.481 45.9201L110.874 45.9674ZM125.808 57.5532C128.883 57.5532 131.468 56.9296 133.293 55.696C135.133 54.4532 136.182 52.6021 136.182 50.2187H135.573C135.573 52.3954 134.628 54.0593 132.952 55.1915C131.263 56.3329 128.813 56.9443 125.808 56.9443L125.808 57.5532ZM136.182 50.2187C136.182 49.1377 135.992 48.175 135.518 47.3179C135.044 46.4602 134.299 45.7325 133.23 45.0999C131.108 43.8437 127.659 42.9352 122.338 42.1277L122.247 42.7298C127.567 43.5373 130.91 44.4338 132.92 45.6239C133.918 46.2144 134.574 46.8701 134.985 47.6126C135.396 48.3557 135.573 49.2098 135.573 50.2187H136.182ZM122.338 42.1277C113.526 40.8011 107.611 38.4861 103.9 35.1486C100.204 31.8245 98.6573 27.4515 98.6573 21.9087H98.0483C98.0483 27.576 99.6365 32.133 103.493 35.6014C107.334 39.0564 113.39 41.3964 122.247 42.7298L122.338 42.1277ZM98.6573 21.9087C98.6573 15.3002 101.254 10.1664 105.771 6.67657C110.297 3.17938 116.779 1.31323 124.573 1.31323L124.573 0.704259C116.691 0.704259 110.063 2.59061 105.398 6.19467C100.724 9.80613 98.0483 15.1222 98.0483 21.9087H98.6573ZM124.573 1.31323C140.356 1.31323 151.364 9.14315 152.389 20.7954L152.996 20.7421C151.931 8.64434 140.52 0.704259 124.573 0.704259L124.573 1.31323ZM152.625 20.4719L137.235 23.9869L137.371 24.5806L152.761 21.0656L152.625 20.4719ZM137.602 24.2289C136.974 20.7965 135.492 18.2518 133.233 16.5701C130.98 14.8921 127.987 14.0993 124.383 14.0993L124.383 14.7082C127.903 14.7082 130.753 15.4829 132.87 17.0586C134.981 18.6307 136.397 21.026 137.003 24.3386L137.602 24.2289ZM124.383 14.0993C121.216 14.0993 118.796 14.6978 117.159 15.8019C115.506 16.9164 114.673 18.5318 114.673 20.4837H115.282C115.282 18.7307 116.017 17.3061 117.499 16.3068C118.997 15.2971 121.279 14.7082 124.383 14.7082L124.383 14.0993ZM114.673 20.4837C114.673 21.8673 115.015 22.9952 115.755 23.9282C116.489 24.8545 117.594 25.5599 119.069 26.1461C122.006 27.3136 126.536 28.0545 132.886 29.0496L132.98 28.4479C126.6 27.448 122.152 26.7164 119.294 25.5802C117.871 25.0145 116.874 24.3602 116.232 23.5498C115.594 22.746 115.282 21.7602 115.282 20.4837H114.673ZM132.883 29.0491C140.018 30.2304 144.86 32.5617 147.92 35.9128C150.976 39.2598 152.293 43.6657 152.293 49.0787H152.902C152.902 43.5668 151.559 38.9952 148.369 35.5022C145.183 32.0133 140.193 29.6421 132.983 28.4484L132.883 29.0491ZM152.293 49.0787C152.293 56.0157 149.462 61.4115 144.635 65.0814C139.799 68.7585 132.935 70.7193 124.858 70.7193L124.858 71.3282C133.025 71.3282 140.032 69.3465 145.004 65.5661C149.986 61.7785 152.902 56.2018 152.902 49.0787H152.293ZM124.858 70.7193C116.12 70.7193 109.282 68.4995 104.529 64.6594C99.7804 60.823 97.0842 55.3476 96.6616 48.7742L96.0539 48.8133C96.4863 55.5399 99.2527 61.1795 104.146 65.1331C109.036 69.083 116.021 71.3282 124.858 71.3282L124.858 70.7193ZM161.185 69.2188H160.88L160.88 69.5232H161.185L161.185 69.2188ZM161.185 2.71875L161.185 2.41426H160.88L160.88 2.71875H161.185ZM177.81 2.71875H178.114L178.114 2.41426H177.81L177.81 2.71875ZM177.81 69.2188L177.81 69.5232H178.114L178.114 69.2188H177.81ZM161.489 69.2188L161.489 2.71875H160.88L160.88 69.2188H161.489ZM161.185 3.02323H177.81L177.81 2.41426H161.185L161.185 3.02323ZM177.505 2.71875L177.505 69.2188H178.114L178.114 2.71875H177.505ZM177.81 68.9143H161.185L161.185 69.5232H177.81L177.81 68.9143ZM221.931 0.913746L221.926 1.2182L221.927 1.21821L221.931 0.913746ZM252.521 23.0487L252.602 23.342L252.882 23.2642L252.818 22.9815L252.521 23.0487ZM236.846 27.4187L236.555 27.5094L236.643 27.7914L236.927 27.712L236.846 27.4187ZM238.366 45.9437L238.664 46.0026L238.67 45.9735L238.67 45.9437H238.366ZM238.366 45.4688H238.67L238.67 45.1643H238.366L238.366 45.4688ZM221.361 45.4688H221.056L221.056 45.7732H221.361L221.361 45.4688ZM221.361 33.4037L221.361 33.0993H221.056L221.056 33.4037H221.361ZM252.141 33.4037H252.445L252.445 33.0993H252.141L252.141 33.4037ZM252.141 69.2188L252.141 69.5232H252.445L252.445 69.2188H252.141ZM238.271 69.2188H237.966L237.966 69.5232H238.271L238.271 69.2188ZM238.271 68.7437L237.973 68.6816L237.966 68.7124L237.966 68.7437H238.271ZM241.501 60.4787L241.78 60.5998L241.896 60.3333L241.635 60.2054L241.501 60.4787ZM236.466 58.0087L236.6 57.7354L236.314 57.5951L236.187 57.8871L236.466 58.0087ZM187.085 36.9187C187.085 25.7808 190.906 16.7895 197.16 10.6186C203.414 4.44688 212.12 1.07676 221.926 1.2182L221.935 0.609292C211.981 0.465729 203.113 3.88811 196.732 10.1851C190.35 16.483 186.476 25.6367 186.476 36.9187H187.085ZM221.927 1.21821C237.393 1.40683 249.315 10.2631 252.224 23.1159L252.818 22.9815C249.836 9.80436 237.628 0.800673 221.934 0.609283L221.927 1.21821ZM252.439 22.7554L236.764 27.1254L236.927 27.712L252.602 23.342L252.439 22.7554ZM237.136 27.3281C235.982 23.6254 234.1 20.646 231.463 18.5929C228.825 16.5383 225.455 15.4293 221.361 15.4293L221.361 16.0382C225.341 16.0382 228.574 17.1142 231.089 19.0734C233.607 21.034 235.429 23.8971 236.555 27.5094L237.136 27.3281ZM221.361 15.4293C215.671 15.4293 211.166 17.6025 208.088 21.3105C205.015 25.012 203.386 30.2169 203.386 36.2537H203.995C203.995 30.3206 205.596 25.2655 208.556 21.6995C211.511 18.14 215.84 16.0382 221.361 16.0382L221.361 15.4293ZM203.386 36.2537C203.386 42.4838 205.136 47.716 208.403 51.3947C211.674 55.0779 216.44 57.1732 222.406 57.1732L222.406 56.5643C216.591 56.5643 212 54.5271 208.858 50.9903C205.713 47.449 203.995 42.3737 203.995 36.2537H203.386ZM222.406 57.1732C231.349 57.1732 237.395 52.4493 238.664 46.0026L238.067 45.8849C236.867 51.9782 231.133 56.5643 222.406 56.5643L222.406 57.1732ZM238.67 45.9437L238.67 45.4688H238.061L238.061 45.9437H238.67ZM238.366 45.1643H221.361L221.361 45.7732H238.366L238.366 45.1643ZM221.665 45.4688L221.665 33.4037H221.056L221.056 45.4688H221.665ZM221.361 33.7082H252.141L252.141 33.0993H221.361L221.361 33.7082ZM251.836 33.4037L251.836 69.2188H252.445L252.445 33.4037H251.836ZM252.141 68.9143H238.271L238.271 69.5232H252.141L252.141 68.9143ZM238.575 69.2188L238.575 68.7437H237.966L237.966 69.2188H238.575ZM238.569 68.8059C238.8 67.6958 239.289 66.3643 239.882 64.9421C240.475 63.518 241.158 62.0353 241.78 60.5998L241.221 60.3577C240.608 61.7722 239.914 63.282 239.32 64.7079C238.725 66.1357 238.216 67.5117 237.973 68.6816L238.569 68.8059ZM241.635 60.2054L236.6 57.7354L236.332 58.2821L241.367 60.7521L241.635 60.2054ZM236.187 57.8871C234.588 61.5542 232.315 64.711 229.153 66.9515C225.993 69.1906 221.923 70.5293 216.706 70.5293L216.706 71.1382C222.033 71.1382 226.229 69.7694 229.505 67.4484C232.779 65.129 235.113 61.8732 236.745 58.1304L236.187 57.8871ZM216.706 70.5293C207.057 70.5293 199.663 66.6973 194.676 60.5948C189.683 54.4853 187.085 46.0794 187.085 36.9187H186.476C186.476 46.1881 189.104 54.7397 194.204 60.9802C199.31 67.2277 206.879 71.1382 216.706 71.1382L216.706 70.5293ZM262.146 69.2188H261.842L261.842 69.5232H262.146L262.146 69.2188ZM262.146 2.71875L262.146 2.41426H261.842L261.842 2.71875H262.146ZM278.771 2.71875H279.076L279.076 2.41426H278.771L278.771 2.71875ZM278.771 27.6087H278.467L278.467 27.9132H278.771L278.771 27.6087ZM302.236 27.6087L302.236 27.9132H302.541L302.541 27.6087H302.236ZM302.236 2.71875L302.236 2.41426H301.932L301.932 2.71875H302.236ZM318.956 2.71875H319.261L319.261 2.41426H318.956L318.956 2.71875ZM318.956 69.2188L318.956 69.5232H319.261L319.261 69.2188H318.956ZM302.236 69.2188H301.932L301.932 69.5232H302.236L302.236 69.2188ZM302.236 43.0937H302.541L302.541 42.7893H302.236L302.236 43.0937ZM278.771 43.0937L278.771 42.7893H278.467L278.467 43.0937H278.771ZM278.771 69.2188L278.771 69.5232H279.076L279.076 69.2188H278.771ZM262.451 69.2188L262.451 2.71875H261.842L261.842 69.2188H262.451ZM262.146 3.02323H278.771L278.771 2.41426H262.146L262.146 3.02323ZM278.467 2.71875L278.467 27.6087H279.076L279.076 2.71875H278.467ZM278.771 27.9132H302.236L302.236 27.3043H278.771L278.771 27.9132ZM302.541 27.6087L302.541 2.71875H301.932L301.932 27.6087H302.541ZM302.236 3.02323H318.956L318.956 2.41426H302.236L302.236 3.02323ZM318.652 2.71875L318.652 69.2188H319.261L319.261 2.71875H318.652ZM318.956 68.9143H302.236L302.236 69.5232H318.956L318.956 68.9143ZM302.541 69.2188L302.541 43.0937H301.932L301.932 69.2188H302.541ZM302.236 42.7893H278.771L278.771 43.3982H302.236L302.236 42.7893ZM278.467 43.0937L278.467 69.2188H279.076L279.076 43.0937H278.467ZM278.771 68.9143H262.146L262.146 69.5232H278.771L278.771 68.9143ZM324.639 2.71875L324.639 2.41426H324.335L324.335 2.71875H324.639ZM382.589 2.71875H382.894L382.894 2.41426H382.589L382.589 2.71875ZM382.589 17.4437L382.589 17.7482H382.894L382.894 17.4437H382.589ZM361.879 17.4437L361.879 17.1393H361.575L361.575 17.4437H361.879ZM361.879 69.2188L361.879 69.5232H362.184L362.184 69.2188H361.879ZM345.254 69.2188H344.95L344.95 69.5232H345.254L345.254 69.2188ZM345.254 17.4437H345.559L345.559 17.1393H345.254L345.254 17.4437ZM324.639 17.4437H324.335L324.335 17.7482H324.639L324.639 17.4437ZM324.639 3.02323H382.589L382.589 2.41426H324.639L324.639 3.02323ZM382.285 2.71875L382.285 17.4437H382.894L382.894 2.71875H382.285ZM382.589 17.1393H361.879L361.879 17.7482H382.589L382.589 17.1393ZM361.575 17.4437L361.575 69.2188H362.184L362.184 17.4437H361.575ZM361.879 68.9143H345.254L345.254 69.5232H361.879L361.879 68.9143ZM345.559 69.2188L345.559 17.4437H344.95L344.95 69.2188H345.559ZM345.254 17.1393H324.639L324.639 17.7482H345.254L345.254 17.1393ZM324.944 17.4437L324.944 2.71875H324.335L324.335 17.4437H324.944ZM385.05 48.7937L384.993 48.4947L384.729 48.5454L384.746 48.8133L385.05 48.7937ZM399.87 45.9437L400.174 45.9201L400.147 45.5804L399.813 45.6447L399.87 45.9437ZM410.985 42.4287L411.031 42.1277L411.03 42.1277L410.985 42.4287ZM441.385 20.7687L441.453 21.0656L441.712 21.0065L441.688 20.7421L441.385 20.7687ZM425.995 24.2837L425.696 24.3386L425.753 24.6514L426.063 24.5806L425.995 24.2837ZM421.625 28.7487L421.675 28.4483L421.672 28.4479L421.625 28.7487ZM385.108 49.0928L399.928 46.2428L399.813 45.6447L384.993 48.4947L385.108 49.0928ZM399.567 45.9674C399.858 49.7076 401.49 52.6159 404.117 54.5831C406.737 56.5449 410.322 57.5532 414.5 57.5532L414.5 56.9443C410.413 56.9443 406.968 55.9576 404.482 54.0956C402.003 52.2391 400.452 49.4949 400.174 45.9201L399.567 45.9674ZM414.5 57.5532C417.575 57.5532 420.16 56.9296 421.986 55.696C423.825 54.4532 424.875 52.6021 424.875 50.2187H424.266C424.266 52.3954 423.32 54.0593 421.645 55.1915C419.955 56.3329 417.505 56.9443 414.5 56.9443L414.5 57.5532ZM424.875 50.2187C424.875 49.1377 424.684 48.175 424.21 47.3179C423.736 46.4602 422.991 45.7325 421.923 45.0999C419.801 43.8437 416.351 42.9352 411.031 42.1277L410.939 42.7298C416.259 43.5373 419.602 44.4338 421.613 45.6239C422.61 46.2144 423.267 46.8701 423.677 47.6126C424.088 48.3557 424.266 49.2098 424.266 50.2187H424.875ZM411.03 42.1277C402.218 40.8011 396.303 38.4861 392.593 35.1486C388.896 31.8245 387.35 27.4515 387.35 21.9087H386.741C386.741 27.576 388.329 32.133 392.185 35.6014C396.027 39.0564 402.082 41.3964 410.94 42.7298L411.03 42.1277ZM387.35 21.9087C387.35 15.3002 389.946 10.1664 394.463 6.67657C398.99 3.17938 405.472 1.31323 413.265 1.31323L413.265 0.704259C405.384 0.704259 398.756 2.59061 394.091 6.19467C389.417 9.80613 386.741 15.1222 386.741 21.9087H387.35ZM413.265 1.31323C429.048 1.31323 440.056 9.14315 441.082 20.7954L441.688 20.7421C440.624 8.64434 429.212 0.704259 413.265 0.704259L413.265 1.31323ZM441.317 20.4719L425.927 23.9869L426.063 24.5806L441.453 21.0656L441.317 20.4719ZM426.295 24.2289C425.666 20.7965 424.184 18.2518 421.926 16.5701C419.672 14.8921 416.68 14.0993 413.075 14.0993L413.075 14.7082C416.596 14.7082 419.446 15.4829 421.562 17.0586C423.674 18.6307 425.089 21.026 425.696 24.3386L426.295 24.2289ZM413.075 14.0993C409.909 14.0993 407.489 14.6978 405.851 15.8019C404.198 16.9164 403.366 18.5318 403.366 20.4837H403.975C403.975 18.7307 404.71 17.3061 406.192 16.3068C407.689 15.2971 409.972 14.7082 413.075 14.7082L413.075 14.0993ZM403.366 20.4837C403.366 21.8673 403.707 22.9952 404.447 23.9282C405.182 24.8545 406.287 25.5599 407.761 26.1461C410.698 27.3136 415.228 28.0545 421.578 29.0496L421.672 28.4479C415.292 27.448 410.844 26.7164 407.986 25.5802C406.563 25.0145 405.567 24.3602 404.924 23.5498C404.287 22.746 403.975 21.7602 403.975 20.4837H403.366ZM421.575 29.0491C428.71 30.2304 433.552 32.5617 436.612 35.9128C439.669 39.2598 440.986 43.6657 440.986 49.0787H441.595C441.595 43.5668 440.252 38.9952 437.062 35.5022C433.876 32.0133 428.885 29.6421 421.675 28.4484L421.575 29.0491ZM440.986 49.0787C440.986 56.0157 438.155 61.4115 433.328 65.0814C428.491 68.7585 421.628 70.7193 413.55 70.7193L413.55 71.3282C421.718 71.3282 428.724 69.3465 433.696 65.5661C438.678 61.7785 441.595 56.2018 441.595 49.0787H440.986ZM413.55 70.7193C404.812 70.7193 397.975 68.4995 393.222 64.6594C388.473 60.823 385.777 55.3476 385.354 48.7742L384.746 48.8133C385.179 55.5399 387.945 61.1795 392.839 65.1331C397.728 69.083 404.713 71.3282 413.55 71.3282L413.55 70.7193ZM535.461 69.2188L535.461 69.5232H535.9L535.746 69.112L535.461 69.2188ZM518.266 69.2188L517.978 69.3184L518.049 69.5232H518.266L518.266 69.2188ZM514.846 59.3387L515.134 59.2391L515.063 59.0343H514.846L514.846 59.3387ZM487.391 59.3387L487.391 59.0343H487.174L487.103 59.2391L487.391 59.3387ZM483.971 69.2188L483.971 69.5232H484.188L484.259 69.3184L483.971 69.2188ZM466.681 69.2188L466.396 69.112L466.242 69.5232H466.681L466.681 69.2188ZM491.571 2.71875L491.571 2.41426H491.36L491.286 2.61201L491.571 2.71875ZM510.571 2.71875L510.856 2.61201L510.782 2.41426H510.571L510.571 2.71875ZM494.991 37.3937L495.279 37.4943L495.28 37.4915L494.991 37.3937ZM492.331 44.9937L492.044 44.8932L491.902 45.2982H492.331L492.331 44.9937ZM509.906 44.9937L509.906 45.2982H510.335L510.194 44.8932L509.906 44.9937ZM507.246 37.3937L506.958 37.4915L506.959 37.4943L507.246 37.3937ZM504.016 19.8187L504.32 19.7949L504.298 19.5143H504.016L504.016 19.8187ZM498.221 19.8187L498.221 19.5143H497.94L497.918 19.7949L498.221 19.8187ZM535.461 68.9143H518.266L518.266 69.5232H535.461L535.461 68.9143ZM518.554 69.1191L515.134 59.2391L514.558 59.4384L517.978 69.3184L518.554 69.1191ZM514.846 59.0343H487.391L487.391 59.6432H514.846L514.846 59.0343ZM487.103 59.2391L483.683 69.1191L484.259 69.3184L487.679 59.4384L487.103 59.2391ZM483.971 68.9143H466.681L466.681 69.5232H483.971L483.971 68.9143ZM466.966 69.3255L491.856 2.82548L491.286 2.61201L466.396 69.112L466.966 69.3255ZM491.571 3.02323H510.571L510.571 2.41426H491.571L491.571 3.02323ZM510.286 2.82548L535.176 69.3255L535.746 69.112L510.856 2.61201L510.286 2.82548ZM494.704 37.2932L492.044 44.8932L492.619 45.0943L495.279 37.4943L494.704 37.2932ZM492.331 45.2982H509.906L509.906 44.6893H492.331L492.331 45.2982ZM510.194 44.8932L507.534 37.2932L506.959 37.4943L509.619 45.0943L510.194 44.8932ZM507.535 37.296C505.645 31.722 504.983 28.2335 504.32 19.7949L503.713 19.8426C504.379 28.314 505.047 31.8555 506.958 37.4915L507.535 37.296ZM504.016 19.5143H498.221L498.221 20.1232H504.016L504.016 19.5143ZM497.918 19.7949C497.254 28.2335 496.592 31.722 494.703 37.296L495.28 37.4915C497.19 31.8555 497.858 28.314 498.525 19.8426L497.918 19.7949ZM528.744 2.71875L528.744 2.41426H528.44L528.44 2.71875H528.744ZM586.694 2.71875H586.999L586.999 2.41426H586.694L586.694 2.71875ZM586.694 17.4437L586.694 17.7482H586.999L586.999 17.4437H586.694ZM565.984 17.4437L565.984 17.1393H565.68L565.68 17.4437H565.984ZM565.984 69.2188L565.984 69.5232H566.289L566.289 69.2188H565.984ZM549.359 69.2188H549.055L549.055 69.5232H549.359L549.359 69.2188ZM549.359 17.4437H549.664L549.664 17.1393H549.359L549.359 17.4437ZM528.744 17.4437H528.44L528.44 17.7482H528.744L528.744 17.4437ZM528.744 3.02323H586.694L586.694 2.41426H528.744L528.744 3.02323ZM586.39 2.71875L586.39 17.4437H586.999L586.999 2.71875H586.39ZM586.694 17.1393H565.984L565.984 17.7482H586.694L586.694 17.1393ZM565.68 17.4437L565.68 69.2188H566.289L566.289 17.4437H565.68ZM565.984 68.9143H549.359L549.359 69.5232H565.984L565.984 68.9143ZM549.664 69.2188L549.664 17.4437H549.055L549.055 69.2188H549.664ZM549.359 17.1393H528.744L528.744 17.7482H549.359L549.359 17.1393ZM529.049 17.4437L529.049 2.71875H528.44L528.44 17.4437H529.049ZM678.915 69.2188L678.915 69.5232H679.354L679.2 69.112L678.915 69.2188ZM661.72 69.2188L661.432 69.3184L661.503 69.5232H661.72L661.72 69.2188ZM658.3 59.3387L658.588 59.2391L658.517 59.0343H658.3L658.3 59.3387ZM630.845 59.3387L630.845 59.0343H630.628L630.557 59.2391L630.845 59.3387ZM627.425 69.2188L627.425 69.5232H627.642L627.713 69.3184L627.425 69.2188ZM610.135 69.2188L609.85 69.112L609.696 69.5232H610.135L610.135 69.2188ZM635.025 2.71875L635.025 2.41426H634.814L634.74 2.61201L635.025 2.71875ZM654.025 2.71875L654.31 2.61201L654.236 2.41426H654.025L654.025 2.71875ZM638.445 37.3937L638.732 37.4943L638.733 37.4915L638.445 37.3937ZM635.785 44.9937L635.497 44.8932L635.356 45.2982H635.785L635.785 44.9937ZM653.36 44.9937L653.36 45.2982H653.789L653.647 44.8932L653.36 44.9937ZM650.7 37.3937L650.411 37.4915L650.412 37.4943L650.7 37.3937ZM647.47 19.8187L647.773 19.7949L647.751 19.5143H647.47L647.47 19.8187ZM641.675 19.8187L641.675 19.5143H641.393L641.371 19.7949L641.675 19.8187ZM678.915 68.9143H661.72L661.72 69.5232H678.915L678.915 68.9143ZM662.008 69.1191L658.588 59.2391L658.012 59.4384L661.432 69.3184L662.008 69.1191ZM658.3 59.0343H630.845L630.845 59.6432H658.3L658.3 59.0343ZM630.557 59.2391L627.137 69.1191L627.713 69.3184L631.133 59.4384L630.557 59.2391ZM627.425 68.9143H610.135L610.135 69.5232H627.425L627.425 68.9143ZM610.42 69.3255L635.31 2.82548L634.74 2.61201L609.85 69.112L610.42 69.3255ZM635.025 3.02323H654.025L654.025 2.41426H635.025L635.025 3.02323ZM653.74 2.82548L678.63 69.3255L679.2 69.112L654.31 2.61201L653.74 2.82548ZM638.157 37.2932L635.497 44.8932L636.072 45.0943L638.732 37.4943L638.157 37.2932ZM635.785 45.2982H653.36L653.36 44.6893H635.785L635.785 45.2982ZM653.647 44.8932L650.987 37.2932L650.412 37.4943L653.072 45.0943L653.647 44.8932ZM650.988 37.296C649.099 31.722 648.437 28.2335 647.773 19.7949L647.166 19.8426C647.833 28.314 648.501 31.8555 650.411 37.4915L650.988 37.296ZM647.47 19.5143H641.675L641.675 20.1232H647.47L647.47 19.5143ZM641.371 19.7949C640.708 28.2335 640.046 31.722 638.156 37.296L638.733 37.4915C640.644 31.8555 641.312 28.314 641.978 19.8426L641.371 19.7949ZM739.848 0.913746L739.843 1.2182L739.844 1.21821L739.848 0.913746ZM770.438 23.0487L770.519 23.342L770.799 23.2642L770.735 22.9815L770.438 23.0487ZM754.763 27.4187L754.472 27.5094L754.56 27.7914L754.844 27.712L754.763 27.4187ZM756.283 45.9437L756.581 46.0026L756.587 45.9735L756.587 45.9437H756.283ZM756.283 45.4688H756.587L756.587 45.1643H756.283L756.283 45.4688ZM739.278 45.4688H738.973L738.973 45.7732H739.278L739.278 45.4688ZM739.278 33.4037L739.278 33.0993H738.973L738.973 33.4037H739.278ZM770.058 33.4037H770.362L770.362 33.0993H770.058L770.058 33.4037ZM770.058 69.2188L770.058 69.5232H770.362L770.362 69.2188H770.058ZM756.188 69.2188H755.883L755.883 69.5232H756.188L756.188 69.2188ZM756.188 68.7437L755.89 68.6816L755.883 68.7124L755.883 68.7437H756.188ZM759.418 60.4787L759.697 60.5998L759.813 60.3333L759.552 60.2054L759.418 60.4787ZM754.383 58.0087L754.517 57.7354L754.231 57.5951L754.104 57.8871L754.383 58.0087ZM705.002 36.9187C705.002 25.7808 708.823 16.7895 715.077 10.6186C721.331 4.44688 730.037 1.07676 739.843 1.2182L739.852 0.609292C729.898 0.465729 721.03 3.88811 714.649 10.1851C708.267 16.483 704.393 25.6367 704.393 36.9187H705.002ZM739.844 1.21821C755.31 1.40683 767.232 10.2631 770.141 23.1159L770.735 22.9815C767.753 9.80436 755.545 0.800673 739.851 0.609283L739.844 1.21821ZM770.356 22.7554L754.681 27.1254L754.844 27.712L770.519 23.342L770.356 22.7554ZM755.053 27.3281C753.899 23.6254 752.017 20.646 749.38 18.5929C746.742 16.5383 743.372 15.4293 739.278 15.4293L739.278 16.0382C743.258 16.0382 746.491 17.1142 749.006 19.0734C751.524 21.034 753.346 23.8971 754.472 27.5094L755.053 27.3281ZM739.278 15.4293C733.588 15.4293 729.083 17.6025 726.005 21.3105C722.932 25.012 721.303 30.2169 721.303 36.2537H721.912C721.912 30.3206 723.513 25.2655 726.473 21.6995C729.428 18.14 733.757 16.0382 739.278 16.0382L739.278 15.4293ZM721.303 36.2537C721.303 42.4838 723.053 47.716 726.32 51.3947C729.591 55.0779 734.357 57.1732 740.323 57.1732L740.323 56.5643C734.508 56.5643 729.917 54.5271 726.775 50.9903C723.63 47.449 721.912 42.3737 721.912 36.2537H721.303ZM740.323 57.1732C749.266 57.1732 755.312 52.4493 756.581 46.0026L755.984 45.8849C754.784 51.9782 749.05 56.5643 740.323 56.5643L740.323 57.1732ZM756.587 45.9437L756.587 45.4688H755.978L755.978 45.9437H756.587ZM756.283 45.1643H739.278L739.278 45.7732H756.283L756.283 45.1643ZM739.582 45.4688L739.582 33.4037H738.973L738.973 45.4688H739.582ZM739.278 33.7082H770.058L770.058 33.0993H739.278L739.278 33.7082ZM769.753 33.4037L769.753 69.2188H770.362L770.362 33.4037H769.753ZM770.058 68.9143H756.188L756.188 69.5232H770.058L770.058 68.9143ZM756.492 69.2188L756.492 68.7437H755.883L755.883 69.2188H756.492ZM756.486 68.8059C756.717 67.6958 757.206 66.3643 757.799 64.9421C758.392 63.518 759.075 62.0353 759.697 60.5998L759.138 60.3577C758.525 61.7722 757.831 63.282 757.237 64.7079C756.642 66.1357 756.133 67.5117 755.89 68.6816L756.486 68.8059ZM759.552 60.2054L754.517 57.7354L754.249 58.2821L759.284 60.7521L759.552 60.2054ZM754.104 57.8871C752.505 61.5542 750.232 64.711 747.07 66.9515C743.91 69.1906 739.84 70.5293 734.623 70.5293L734.623 71.1382C739.95 71.1382 744.146 69.7694 747.422 67.4484C750.696 65.129 753.03 61.8732 754.662 58.1304L754.104 57.8871ZM734.623 70.5293C724.974 70.5293 717.58 66.6973 712.593 60.5948C707.6 54.4853 705.002 46.0794 705.002 36.9187H704.393C704.393 46.1881 707.021 54.7397 712.121 60.9802C717.227 67.2277 724.796 71.1382 734.623 71.1382L734.623 70.5293ZM780.063 69.2188H779.759L779.759 69.5232H780.063L780.063 69.2188ZM780.063 2.71875L780.063 2.41426H779.759L779.759 2.71875H780.063ZM796.688 2.71875H796.993L796.993 2.41426H796.688L796.688 2.71875ZM796.688 54.3987H796.384L796.384 54.7032H796.688L796.688 54.3987ZM826.708 54.3987H827.013L827.013 54.0943H826.708L826.708 54.3987ZM826.708 69.2188L826.708 69.5232H827.013L827.013 69.2188H826.708ZM780.368 69.2188L780.368 2.71875H779.759L779.759 69.2188H780.368ZM780.063 3.02323H796.688L796.688 2.41426H780.063L780.063 3.02323ZM796.384 2.71875L796.384 54.3987H796.993L796.993 2.71875H796.384ZM796.688 54.7032H826.708L826.708 54.0943H796.688L796.688 54.7032ZM826.404 54.3987L826.404 69.2188H827.013L827.013 54.3987H826.404ZM826.708 68.9143H780.063L780.063 69.5232H826.708L826.708 68.9143ZM897.4 69.2188L897.4 69.5232H897.839L897.685 69.112L897.4 69.2188ZM880.205 69.2188L879.917 69.3184L879.988 69.5232H880.205L880.205 69.2188ZM876.785 59.3387L877.073 59.2391L877.002 59.0343H876.785L876.785 59.3387ZM849.33 59.3387L849.33 59.0343H849.113L849.042 59.2391L849.33 59.3387ZM845.91 69.2188L845.91 69.5232H846.127L846.198 69.3184L845.91 69.2188ZM828.62 69.2188L828.335 69.112L828.181 69.5232H828.62L828.62 69.2188ZM853.51 2.71875L853.51 2.41426H853.299L853.225 2.61201L853.51 2.71875ZM872.51 2.71875L872.795 2.61201L872.721 2.41426H872.51L872.51 2.71875ZM856.93 37.3937L857.217 37.4943L857.218 37.4915L856.93 37.3937ZM854.27 44.9937L853.983 44.8932L853.841 45.2982H854.27L854.27 44.9937ZM871.845 44.9937L871.845 45.2982H872.274L872.132 44.8932L871.845 44.9937ZM869.185 37.3937L868.897 37.4915L868.898 37.4943L869.185 37.3937ZM865.955 19.8187L866.259 19.7949L866.236 19.5143H865.955L865.955 19.8187ZM860.16 19.8187L860.16 19.5143H859.879L859.856 19.7949L860.16 19.8187ZM897.4 68.9143H880.205L880.205 69.5232H897.4L897.4 68.9143ZM880.493 69.1191L877.073 59.2391L876.497 59.4384L879.917 69.3184L880.493 69.1191ZM876.785 59.0343H849.33L849.33 59.6432H876.785L876.785 59.0343ZM849.042 59.2391L845.622 69.1191L846.198 69.3184L849.618 59.4384L849.042 59.2391ZM845.91 68.9143H828.62L828.62 69.5232H845.91L845.91 68.9143ZM828.905 69.3255L853.795 2.82548L853.225 2.61201L828.335 69.112L828.905 69.3255ZM853.51 3.02323H872.51L872.51 2.41426H853.51L853.51 3.02323ZM872.225 2.82548L897.115 69.3255L897.685 69.112L872.795 2.61201L872.225 2.82548ZM856.643 37.2932L853.983 44.8932L854.557 45.0943L857.217 37.4943L856.643 37.2932ZM854.27 45.2982H871.845L871.845 44.6893H854.27L854.27 45.2982ZM872.132 44.8932L869.472 37.2932L868.898 37.4943L871.558 45.0943L872.132 44.8932ZM869.473 37.296C867.584 31.722 866.922 28.2335 866.259 19.7949L865.651 19.8426C866.318 28.314 866.986 31.8555 868.897 37.4915L869.473 37.296ZM865.955 19.5143H860.16L860.16 20.1232H865.955L865.955 19.5143ZM859.856 19.7949C859.193 28.2335 858.531 31.722 856.642 37.296L857.218 37.4915C859.129 31.8555 859.797 28.314 860.464 19.8426L859.856 19.7949ZM902.294 69.2188H901.989L901.989 69.5232H902.294L902.294 69.2188ZM902.294 2.71875L902.294 2.41426H901.989L901.989 2.71875H902.294ZM920.534 2.71875L920.792 2.55683L920.702 2.41426H920.534L920.534 2.71875ZM946.184 43.5687L945.926 43.7307L946.016 43.8732H946.184L946.184 43.5687ZM946.374 43.5687L946.374 43.8732H946.678L946.678 43.5687H946.374ZM946.374 2.71875L946.374 2.41426H946.069L946.069 2.71875H946.374ZM962.999 2.71875H963.303L963.303 2.41426H962.999L962.999 2.71875ZM962.999 69.2188L962.999 69.5232H963.303L963.303 69.2188H962.999ZM944.759 69.2188L944.503 69.3831L944.593 69.5232H944.759L944.759 69.2188ZM919.109 29.2237L919.365 29.0594L919.275 28.9193H919.109L919.109 29.2237ZM918.919 29.2237L918.919 28.9193H918.614L918.614 29.2237H918.919ZM918.919 69.2188L918.919 69.5232H919.223L919.223 69.2188H918.919ZM902.598 69.2188L902.598 2.71875H901.989L901.989 69.2188H902.598ZM902.294 3.02323H920.534L920.534 2.41426H902.294L902.294 3.02323ZM920.276 2.88066L945.926 43.7307L946.442 43.4068L920.792 2.55683L920.276 2.88066ZM946.184 43.8732H946.374L946.374 43.2643H946.184L946.184 43.8732ZM946.678 43.5687L946.678 2.71875H946.069L946.069 43.5687H946.678ZM946.374 3.02323H962.999L962.999 2.41426H946.374L946.374 3.02323ZM962.694 2.71875L962.694 69.2188H963.303L963.303 2.71875H962.694ZM962.999 68.9143H944.759L944.759 69.5232H962.999L962.999 68.9143ZM945.015 69.0544L919.365 29.0594L918.853 29.3881L944.503 69.3831L945.015 69.0544ZM919.109 28.9193H918.919L918.919 29.5282H919.109L919.109 28.9193ZM918.614 29.2237L918.614 69.2188H919.223L919.223 29.2237H918.614ZM918.919 68.9143H902.294L902.294 69.5232H918.919L918.919 68.9143ZM1005.92 0.913746L1005.92 1.21822L1005.92 1.21823L1005.92 0.913746ZM1036.8 23.9987L1036.88 24.2924L1037.16 24.2165L1037.1 23.9359L1036.8 23.9987ZM1021.22 28.2737L1020.92 28.3533L1021 28.6482L1021.3 28.5674L1021.22 28.2737ZM1021.6 42.3337L1021.67 42.0381L1021.37 41.9633L1021.3 42.268L1021.6 42.3337ZM1037.37 46.2287L1037.67 46.2821L1037.72 46.0015L1037.44 45.9331L1037.37 46.2287ZM1005.92 71.0238L1005.92 70.7193L1005.92 70.7193L1005.92 71.0238ZM971.173 35.9687C971.173 17.3058 984.166 1.02987 1005.92 1.21822L1005.93 0.609271C983.791 0.417624 970.564 17.0117 970.564 35.9687H971.173ZM1005.92 1.21823C1021.38 1.3125 1033.59 10.2594 1036.5 24.0616L1037.1 23.9359C1034.12 9.80814 1021.62 0.704989 1005.93 0.609266L1005.92 1.21823ZM1036.72 23.7051L1021.14 27.9801L1021.3 28.5674L1036.88 24.2924L1036.72 23.7051ZM1021.51 28.1942C1020.41 24.108 1018.45 20.9125 1015.76 18.7386C1013.06 16.5635 1009.64 15.4293 1005.64 15.4293L1005.64 16.0382C1009.52 16.0382 1012.8 17.1365 1015.37 19.2127C1017.95 21.29 1019.85 24.3644 1020.92 28.3533L1021.51 28.1942ZM1005.64 15.4293C1000.24 15.4293 995.663 17.5058 992.443 21.1245C989.227 24.7403 987.379 29.8754 987.379 35.9687H987.988C987.988 29.9971 989.798 25.0147 992.898 21.5293C995.997 18.0467 1000.4 16.0382 1005.64 16.0382L1005.64 15.4293ZM987.379 35.9687C987.379 42.0621 989.227 47.1972 992.443 50.813C995.663 54.4317 1000.24 56.5082 1005.64 56.5082L1005.64 55.8993C1000.4 55.8993 995.997 53.8908 992.898 50.4082C989.798 46.9228 987.988 41.9404 987.988 35.9687H987.379ZM1005.64 56.5082C1009.79 56.5082 1013.35 55.277 1016.13 52.884C1018.91 50.4925 1020.89 46.9611 1021.9 42.3995L1021.3 42.268C1020.31 46.7314 1018.39 50.135 1015.74 52.4223C1013.08 54.7079 1009.66 55.8993 1005.64 55.8993L1005.64 56.5082ZM1021.53 42.6294L1037.3 46.5244L1037.44 45.9331L1021.67 42.0381L1021.53 42.6294ZM1037.07 46.1754C1034.34 61.4939 1021.85 70.625 1005.92 70.7193L1005.93 71.3282C1022.1 71.2325 1034.88 61.9336 1037.67 46.2821L1037.07 46.1754ZM1005.92 70.7193C984.166 70.9076 971.173 54.6317 971.173 35.9687H970.564C970.564 54.9258 983.791 71.5199 1005.93 71.3282L1005.92 70.7193ZM1060.63 42.3337L1060.63 42.0293H1060.33L1060.33 42.3337H1060.63ZM1060.63 54.4937H1060.33L1060.33 54.7982H1060.63L1060.63 54.4937ZM1092.74 54.4937H1093.05L1093.05 54.1893H1092.74L1092.74 54.4937ZM1092.74 69.2188L1092.74 69.5232H1093.05L1093.05 69.2188H1092.74ZM1044.01 69.2188H1043.7L1043.7 69.5232H1044.01L1044.01 69.2188ZM1044.01 2.71875L1044.01 2.41426H1043.7L1043.7 2.71875H1044.01ZM1092.65 2.71875H1092.95L1092.95 2.41426H1092.65L1092.65 2.71875ZM1092.65 17.4437L1092.65 17.7482H1092.95L1092.95 17.4437H1092.65ZM1060.63 17.4437L1060.63 17.1393H1060.33L1060.33 17.4437H1060.63ZM1060.63 28.7487H1060.33L1060.33 29.0532H1060.63L1060.63 28.7487ZM1089.7 28.7487H1090.01L1090.01 28.4443H1089.7L1089.7 28.7487ZM1089.7 42.3337L1089.7 42.6382H1090.01L1090.01 42.3337H1089.7ZM1060.33 42.3337L1060.33 54.4937H1060.94L1060.94 42.3337H1060.33ZM1060.63 54.7982H1092.74L1092.74 54.1893H1060.63L1060.63 54.7982ZM1092.44 54.4937L1092.44 69.2188H1093.05L1093.05 54.4937H1092.44ZM1092.74 68.9143H1044.01L1044.01 69.5232H1092.74L1092.74 68.9143ZM1044.31 69.2188L1044.31 2.71875H1043.7L1043.7 69.2188H1044.31ZM1044.01 3.02323H1092.65L1092.65 2.41426H1044.01L1044.01 3.02323ZM1092.34 2.71875L1092.34 17.4437H1092.95L1092.95 2.71875H1092.34ZM1092.65 17.1393H1060.63L1060.63 17.7482H1092.65L1092.65 17.1393ZM1060.33 17.4437L1060.33 28.7487H1060.94L1060.94 17.4437H1060.33ZM1060.63 29.0532H1089.7L1089.7 28.4443H1060.63L1060.63 29.0532ZM1089.4 28.7487L1089.4 42.3337H1090.01L1090.01 28.7487H1089.4ZM1089.7 42.0293H1060.63L1060.63 42.6382H1089.7L1089.7 42.0293Z" fill="#0EF169"/>
</svg>
