<svg width="18" height="18" viewBox="0 0 18 18" fill="none" xmlns="http://www.w3.org/2000/svg">
<path d="M9 3C5.27812 3 2.25 6.02812 2.25 9.75C2.25 13.4719 5.27812 16.5 9 16.5C12.7219 16.5 15.75 13.4719 15.75 9.75C15.75 6.02812 12.7219 3 9 3ZM11.8354 7.71038L10.0834 9.46237C10.1077 9.55463 10.125 9.64988 10.125 9.75C10.125 10.3714 9.62138 10.875 9 10.875C8.37862 10.875 7.875 10.3714 7.875 9.75C7.875 9.12862 8.37862 8.625 9 8.625C9.10012 8.625 9.19537 8.64225 9.28763 8.667L11.0396 6.915C11.2594 6.69525 11.6152 6.69525 11.835 6.915C12.0547 7.13438 12.0548 7.49063 11.8354 7.71038Z" fill="#AA9CFF"/>
<path d="M9 3.5625V2.0625" stroke="#AA9CFF" stroke-width="3" stroke-miterlimit="10" stroke-linecap="round"/>
<path d="M13.375 5.37533L14.4359 4.31445" stroke="#AA9CFF" stroke-width="3" stroke-miterlimit="10" stroke-linecap="round"/>
<path d="M8.0625 1.6875H9.9375" stroke="#AA9CFF" stroke-width="3" stroke-miterlimit="10" stroke-linecap="round"/>
</svg>
