<svg width="19" height="18" viewBox="0 0 19 18" fill="none" xmlns="http://www.w3.org/2000/svg">
<path d="M9.5 3C5.77812 3 2.75 6.02812 2.75 9.75C2.75 13.4719 5.77812 16.5 9.5 16.5C13.2219 16.5 16.25 13.4719 16.25 9.75C16.25 6.02812 13.2219 3 9.5 3ZM12.3354 7.71038L10.5834 9.46237C10.6077 9.55463 10.625 9.64988 10.625 9.75C10.625 10.3714 10.1214 10.875 9.5 10.875C8.87862 10.875 8.375 10.3714 8.375 9.75C8.375 9.12862 8.87862 8.625 9.5 8.625C9.60012 8.625 9.69537 8.64225 9.78763 8.667L11.5396 6.915C11.7594 6.69525 12.1152 6.69525 12.335 6.915C12.5547 7.13438 12.5548 7.49063 12.3354 7.71038Z" fill="#0EF169"/>
<path d="M9.5 3.5625V2.0625" stroke="#0EF169" stroke-width="3" stroke-miterlimit="10" stroke-linecap="round"/>
<path d="M13.875 5.37533L14.9359 4.31445" stroke="#0EF169" stroke-width="3" stroke-miterlimit="10" stroke-linecap="round"/>
<path d="M8.5625 1.6875H10.4375" stroke="#0EF169" stroke-width="3" stroke-miterlimit="10" stroke-linecap="round"/>
</svg>
