<svg width="714" height="84" viewBox="0 0 714 84" fill="none" xmlns="http://www.w3.org/2000/svg">
<mask id="path-1-inside-1_7755_4877" fill="white">
<path fill-rule="evenodd" clip-rule="evenodd" d="M348.041 2C347.327 0.762394 346.006 0 344.577 0H12C5.37258 0 0 5.37258 0 12V58C0 64.6274 5.37258 70 12 70H344.577C346.006 70 347.327 70.7624 348.041 72L353.526 81.5C355.066 84.1667 358.915 84.1667 360.454 81.5L365.939 72C366.654 70.7624 367.974 70 369.403 70H702C708.627 70 714 64.6274 714 58V12C714 5.37258 708.627 0 702 0H369.403C367.974 0 366.654 0.762395 365.939 2L360.454 11.5C358.915 14.1667 355.066 14.1667 353.526 11.5L348.041 2Z"/>
</mask>
<path fill-rule="evenodd" clip-rule="evenodd" d="M348.041 2C347.327 0.762394 346.006 0 344.577 0H12C5.37258 0 0 5.37258 0 12V58C0 64.6274 5.37258 70 12 70H344.577C346.006 70 347.327 70.7624 348.041 72L353.526 81.5C355.066 84.1667 358.915 84.1667 360.454 81.5L365.939 72C366.654 70.7624 367.974 70 369.403 70H702C708.627 70 714 64.6274 714 58V12C714 5.37258 708.627 0 702 0H369.403C367.974 0 366.654 0.762395 365.939 2L360.454 11.5C358.915 14.1667 355.066 14.1667 353.526 11.5L348.041 2Z" fill="#001341" fill-opacity="0.65"/>
<path d="M348.041 2L348.907 1.5L348.907 1.49999L348.041 2ZM365.939 2L365.073 1.49999L365.073 1.5L365.939 2ZM360.454 11.5L361.321 12L361.321 12L360.454 11.5ZM353.526 11.5L352.66 12L352.66 12L353.526 11.5ZM365.939 72L365.073 71.5L365.939 72ZM348.041 72L347.175 72.5L348.041 72ZM344.577 1C345.649 1 346.64 1.57179 347.175 2.5L348.907 1.49999C348.014 -0.0469984 346.364 -1 344.577 -1V1ZM12 1H344.577V-1H12V1ZM1 12C1 5.92487 5.92487 1 12 1V-1C4.8203 -1 -1 4.8203 -1 12H1ZM1 58V12H-1V58H1ZM12 69C5.92487 69 1 64.0751 1 58H-1C-1 65.1797 4.8203 71 12 71V69ZM344.577 69H12V71H344.577V69ZM354.392 81L348.907 71.5L347.175 72.5L352.66 82L354.392 81ZM365.073 71.5L359.588 81L361.321 82L366.805 72.5L365.073 71.5ZM702 69H369.403V71H702V69ZM713 58C713 64.0751 708.075 69 702 69V71C709.18 71 715 65.1797 715 58H713ZM713 12V58H715V12H713ZM702 1C708.075 1 713 5.92487 713 12H715C715 4.8203 709.18 -1 702 -1V1ZM369.403 1H702V-1H369.403V1ZM366.805 2.5C367.341 1.57179 368.332 1 369.403 1V-1C367.617 -1 365.966 -0.0470008 365.073 1.49999L366.805 2.5ZM361.321 12L366.805 2.5L365.073 1.5L359.588 11L361.321 12ZM352.66 12C354.585 15.3333 359.396 15.3333 361.321 12L359.588 11C358.434 13 355.547 13 354.392 11L352.66 12ZM347.175 2.5L352.66 12L354.392 11L348.907 1.5L347.175 2.5ZM366.805 72.5C367.341 71.5718 368.332 71 369.403 71V69C367.617 69 365.966 69.953 365.073 71.5L366.805 72.5ZM352.66 82C354.585 85.3333 359.396 85.3333 361.321 82L359.588 81C358.434 83 355.547 83 354.392 81L352.66 82ZM344.577 71C345.649 71 346.64 71.5718 347.175 72.5L348.907 71.5C348.014 69.953 346.364 69 344.577 69V71Z" fill="#2D74FE" mask="url(#path-1-inside-1_7755_4877)"/>
<path d="M140.375 22.1191C140.375 22.1191 140.375 31.0109 140.375 33.9373C140.375 36.8638 140.375 45.7555 140.375 45.7555" stroke="#2D74FE" stroke-width="1.2"/>
<path d="M150.51 27.7468H130.25" stroke="#2D74FE" stroke-width="1.2"/>
<path d="M143.758 44.6862C142.688 45.0238 141.563 45.1927 140.381 45.1927C134.134 45.1927 129.126 40.1277 129.126 33.9372C129.126 27.6905 134.19 22.6818 140.381 22.6818C146.571 22.6818 151.636 27.7468 151.636 33.9372C151.636 34.9502 151.468 35.9632 151.242 36.9199L152.143 37.7641C152.537 36.5823 152.762 35.2879 152.762 33.9372C152.762 27.0714 147.191 21.5563 140.381 21.5563C133.515 21.5563 128 27.1277 128 33.9372C128 40.8031 133.571 46.3182 140.381 46.3182C141.563 46.3182 142.688 46.1494 143.758 45.868V44.6862Z" fill="#2D74FE"/>
<path d="M150.454 42.435H153.887L146.008 35.0627V45.9242L148.259 43.6731L150.003 47.5L152.198 46.487L150.397 42.5476L150.454 42.435Z" stroke="#2D74FE" stroke-width="1.2" stroke-linecap="round" stroke-linejoin="round"/>
<path d="M140.379 22.0627C136.327 22.0627 133.062 27.3528 133.062 33.8809C133.062 40.4091 136.327 45.6991 140.379 45.6991" stroke="#2D74FE" stroke-width="1.2" stroke-linecap="round"/>
<path d="M143.757 39.5649H130.25V40.6905H143.757V39.5649Z" fill="#2D74FE"/>
<path d="M148.707 34.5001H151.971V33.3745H147.469L148.707 34.5001Z" fill="#2D74FE"/>
<path d="M143.75 33.3745H128.555V34.5001H143.75V33.3745Z" fill="#2D74FE"/>
<path d="M140.383 22.6255C143.929 22.6255 146.855 27.184 147.136 32.9805L148.262 34.0498C148.262 33.9935 148.262 33.9372 148.262 33.881C148.262 27.0152 144.716 21.5 140.383 21.5C140.045 21.5 139.82 21.7251 139.82 22.0628C139.82 22.4004 140.045 22.6255 140.383 22.6255Z" fill="#2D74FE"/>
<path d="M143.76 43.6732C142.747 44.6299 141.621 45.1927 140.383 45.1927C140.045 45.1927 139.82 45.4178 139.82 45.7555C139.82 46.0931 140.045 46.3182 140.383 46.3182C141.621 46.3182 142.747 45.868 143.76 45.1364V43.6732Z" fill="#2D74FE"/>
<path d="M169.31 42.5V28.5H172.81V42.5H169.31ZM174.899 35.5C174.899 31.24 178.019 28.12 182.239 28.12C186.439 28.12 189.559 31.24 189.559 35.5C189.559 39.76 186.439 42.88 182.239 42.88C178.019 42.88 174.899 39.76 174.899 35.5ZM178.439 35.5C178.439 38.04 179.979 39.76 182.239 39.76C184.659 39.76 186.019 37.92 186.019 35.5C186.019 33.02 184.619 31.24 182.239 31.24C179.859 31.24 178.439 32.96 178.439 35.5ZM190.775 38.2L193.895 37.6C194.015 39.14 195.235 39.98 196.975 39.98C198.255 39.98 199.095 39.46 199.095 38.5C199.095 37.62 198.475 37.2 196.235 36.86C192.515 36.3 191.195 34.9 191.195 32.54C191.195 29.72 193.415 28.14 196.715 28.14C200.055 28.14 202.415 29.8 202.635 32.3L199.395 33.04C199.135 31.62 198.175 30.96 196.675 30.96C195.355 30.96 194.695 31.46 194.695 32.24C194.695 33.36 195.795 33.56 198.475 33.98C201.495 34.48 202.615 35.96 202.615 38.26C202.615 41.22 200.195 42.88 196.775 42.88C193.075 42.88 190.955 41 190.775 38.2ZM207.543 42.28L205.503 45.7L203.983 44.96L205.323 42.66C204.423 42.48 203.843 41.86 203.843 40.78C203.843 39.46 204.703 38.84 205.943 38.84C207.183 38.84 208.043 39.46 208.043 40.78C208.043 41.28 207.903 41.68 207.543 42.28ZM228.661 42.5H225.041L224.321 40.42H218.541L217.821 42.5H214.181L219.421 28.5H223.421L228.661 42.5ZM220.141 35.8L219.581 37.4H223.281L222.721 35.8C222.321 34.62 222.181 33.88 222.041 32.1H220.821C220.681 33.88 220.541 34.62 220.141 35.8ZM229.891 42.5V28.5H233.731L239.131 37.1H239.171V28.5H242.671V42.5H238.831L233.431 34.08H233.391V42.5H229.891ZM245.028 28.5H251.028C254.848 28.5 257.428 31 257.428 35.5C257.428 40.06 254.968 42.5 250.968 42.5H245.028V28.5ZM248.528 39.4H250.728C252.568 39.4 253.928 38.56 253.928 35.5C253.928 32.84 252.828 31.6 250.728 31.6H248.528V39.4ZM269.825 39.7L270.385 41.06C270.625 41.6 270.805 41.98 271.185 42.2V42.5H267.265C267.005 42.28 266.905 42.04 266.845 41.82L265.985 39.68C265.425 38.26 265.065 37.86 263.805 37.86H262.785V42.5H259.285V28.5H266.705C269.405 28.5 270.945 29.96 270.945 32.3C270.945 34.9 269.425 36.12 266.685 36.3V37.3C268.325 37.5 269.005 37.72 269.825 39.7ZM262.785 34.82H265.865C266.825 34.82 267.445 34.22 267.445 33.16C267.445 32.08 266.905 31.54 265.865 31.54H262.785V34.82ZM271.93 35.5C271.93 31.24 275.05 28.12 279.27 28.12C283.47 28.12 286.59 31.24 286.59 35.5C286.59 39.76 283.47 42.88 279.27 42.88C275.05 42.88 271.93 39.76 271.93 35.5ZM275.47 35.5C275.47 38.04 277.01 39.76 279.27 39.76C281.69 39.76 283.05 37.92 283.05 35.5C283.05 33.02 281.65 31.24 279.27 31.24C276.89 31.24 275.47 32.96 275.47 35.5ZM288.646 42.5V28.5H292.146V42.5H288.646ZM294.735 28.5H300.735C304.555 28.5 307.135 31 307.135 35.5C307.135 40.06 304.675 42.5 300.675 42.5H294.735V28.5ZM298.235 39.4H300.435C302.275 39.4 303.635 38.56 303.635 35.5C303.635 32.84 302.535 31.6 300.435 31.6H298.235V39.4ZM311.527 42.28L309.487 45.7L307.967 44.96L309.307 42.66C308.407 42.48 307.827 41.86 307.827 40.78C307.827 39.46 308.687 38.84 309.927 38.84C311.167 38.84 312.027 39.46 312.027 40.78C312.027 41.28 311.887 41.68 311.527 42.28ZM332.645 42.5H329.025L328.305 40.42H322.525L321.805 42.5H318.165L323.405 28.5H327.405L332.645 42.5ZM324.125 35.8L323.565 37.4H327.265L326.705 35.8C326.305 34.62 326.165 33.88 326.025 32.1H324.805C324.665 33.88 324.525 34.62 324.125 35.8ZM333.875 42.5V28.5H337.715L343.115 37.1H343.155V28.5H346.655V42.5H342.815L337.415 34.08H337.375V42.5H333.875ZM349.012 28.5H355.012C358.832 28.5 361.412 31 361.412 35.5C361.412 40.06 358.952 42.5 354.952 42.5H349.012V28.5ZM352.512 39.4H354.712C356.552 39.4 357.912 38.56 357.912 35.5C357.912 32.84 356.812 31.6 354.712 31.6H352.512V39.4ZM370.488 42.5L367.268 28.5H370.888L371.848 33.44C372.168 35.12 372.068 37.12 372.028 38.3H373.328C373.428 36.78 373.668 35.18 374.128 33.6L375.628 28.5H378.368L379.928 33.72C380.388 35.26 380.608 36.82 380.708 38.3H382.008C381.968 37.06 381.848 35.12 382.148 33.56L383.128 28.5H386.748L383.548 42.5H379.668L378.248 37.62C377.688 35.7 377.428 33.72 377.448 32.4H376.548C376.568 33.68 376.308 35.52 375.708 37.64L374.308 42.5H370.488ZM391.516 36.84V39.4H398.276V42.5H388.016V28.5H398.256V31.6H391.516V33.98H397.636V36.84H391.516ZM408.726 34.7V35.54C410.606 35.7 411.746 36.9 411.746 38.82C411.746 41.18 409.806 42.5 406.886 42.5H400.086V28.5H407.446C409.926 28.5 411.306 29.8 411.306 31.74C411.306 33.36 410.446 34.46 408.726 34.7ZM406.366 31.5H403.526V33.92H406.386C407.466 33.92 407.826 33.52 407.826 32.7C407.826 31.94 407.466 31.5 406.366 31.5ZM403.526 39.5H406.706C407.906 39.5 408.286 39.02 408.286 38.08C408.286 37.12 407.846 36.64 406.686 36.64H403.526V39.5ZM418.219 35.5C418.219 31.54 420.979 28.08 425.599 28.12C428.879 28.14 431.479 30.04 432.099 32.98L428.819 33.88C428.359 32.18 427.199 31.24 425.539 31.24C423.299 31.24 421.759 32.96 421.759 35.5C421.759 38.04 423.299 39.76 425.539 39.76C427.259 39.76 428.479 38.74 428.899 36.84L432.219 37.66C431.639 40.92 428.979 42.86 425.599 42.88C420.979 42.92 418.219 39.46 418.219 35.5ZM433.317 35.5C433.317 31.24 436.437 28.12 440.657 28.12C444.857 28.12 447.977 31.24 447.977 35.5C447.977 39.76 444.857 42.88 440.657 42.88C436.437 42.88 433.317 39.76 433.317 35.5ZM436.857 35.5C436.857 38.04 438.397 39.76 440.657 39.76C443.077 39.76 444.437 37.92 444.437 35.5C444.437 33.02 443.037 31.24 440.657 31.24C438.277 31.24 436.857 32.96 436.857 35.5ZM453.153 42.5H449.813V28.5H455.373L456.733 34C457.133 35.64 457.133 36.64 457.173 37.74H458.193C458.233 36.62 458.213 35.7 458.633 34L459.993 28.5H465.553V42.5H462.213V39.4C462.213 37.32 462.433 36 463.493 32.14L461.993 31.72L459.053 42.5H456.313L453.373 31.72L451.873 32.14C452.933 36 453.153 37.32 453.153 39.4V42.5ZM467.918 28.5H474.798C477.598 28.5 479.618 30.3 479.618 33.32C479.618 36.36 477.598 38.12 474.798 38.12H471.418V42.5H467.918V28.5ZM471.418 35.08H474.478C475.358 35.08 476.098 34.46 476.098 33.28C476.098 32.06 475.478 31.54 474.518 31.54H471.418V35.08ZM493.172 42.5H489.552L488.832 40.42H483.052L482.332 42.5H478.692L483.932 28.5H487.932L493.172 42.5ZM484.652 35.8L484.092 37.4H487.792L487.232 35.8C486.832 34.62 486.692 33.88 486.552 32.1H485.332C485.192 33.88 485.052 34.62 484.652 35.8ZM491.958 28.5H504.158V31.6H499.798V42.5H496.298V31.6H491.958V28.5ZM505.755 42.5V28.5H509.255V42.5H505.755ZM520.484 34.7V35.54C522.364 35.7 523.504 36.9 523.504 38.82C523.504 41.18 521.564 42.5 518.644 42.5H511.844V28.5H519.204C521.684 28.5 523.064 29.8 523.064 31.74C523.064 33.36 522.204 34.46 520.484 34.7ZM518.124 31.5H515.284V33.92H518.144C519.224 33.92 519.584 33.52 519.584 32.7C519.584 31.94 519.224 31.5 518.124 31.5ZM515.284 39.5H518.464C519.664 39.5 520.044 39.02 520.044 38.08C520.044 37.12 519.604 36.64 518.444 36.64H515.284V39.5ZM525.599 42.5V28.5H529.099V42.5H525.599ZM531.688 42.5V28.5H535.188V39.38H541.508V42.5H531.688ZM543.177 42.5V28.5H546.677V42.5H543.177ZM548.306 28.5H560.506V31.6H556.146V42.5H552.646V31.6H548.306V28.5ZM562.103 42.5V28.5H565.603V42.5H562.103ZM571.692 36.84V39.4H578.452V42.5H568.192V28.5H578.432V31.6H571.692V33.98H577.812V36.84H571.692ZM579.642 38.2L582.762 37.6C582.882 39.14 584.102 39.98 585.842 39.98C587.122 39.98 587.962 39.46 587.962 38.5C587.962 37.62 587.342 37.2 585.102 36.86C581.382 36.3 580.062 34.9 580.062 32.54C580.062 29.72 582.282 28.14 585.582 28.14C588.922 28.14 591.282 29.8 591.502 32.3L588.262 33.04C588.002 31.62 587.042 30.96 585.542 30.96C584.222 30.96 583.562 31.46 583.562 32.24C583.562 33.36 584.662 33.56 587.342 33.98C590.362 34.48 591.482 35.96 591.482 38.26C591.482 41.22 589.062 42.88 585.642 42.88C581.942 42.88 579.822 41 579.642 38.2Z" fill="white"/>
</svg>
