<svg width="65" height="66" viewBox="0 0 65 66" fill="none" xmlns="http://www.w3.org/2000/svg">
<path d="M16.5473 8.79138C16.2251 8.77849 15.9114 8.9117 15.6923 9.15232C15.6923 9.15232 11.0001 14.2656 11.0001 23.1C10.9958 23.4953 11.202 23.8648 11.5458 24.0668C11.8895 24.2644 12.3106 24.2644 12.6544 24.0668C12.9981 23.8648 13.2044 23.4953 13.2001 23.1C13.2001 15.0261 17.3079 10.6476 17.3079 10.6476C17.6044 10.334 17.6903 9.8742 17.527 9.47459C17.3637 9.07068 16.9813 8.80427 16.5473 8.79138ZM34.1001 8.79998C31.0622 8.79998 28.6001 11.2621 28.6001 14.3C28.6001 14.4847 28.613 14.6652 28.6344 14.85C28.4883 14.8844 28.3508 14.9488 28.2262 15.039L12.5469 26.3613C12.4782 26.4129 12.418 26.473 12.3622 26.5375C12.3407 26.559 12.3106 26.5633 12.2891 26.589C12.2891 26.5847 12.2891 26.5847 12.2891 26.589C10.579 28.2949 10.579 31.1008 12.2891 32.8109C13.995 34.5211 16.8008 34.5211 18.511 32.8109C18.8161 32.5058 18.8891 32.1105 18.8848 31.857C18.8762 31.6035 18.8247 31.4273 18.7645 31.264C18.6485 30.9375 18.4852 30.6539 18.2876 30.3488C17.888 29.7344 17.338 29.0554 16.7364 28.4109C16.2723 27.9211 15.7868 27.4785 15.2969 27.0918L29.3048 16.9769C30.2715 18.7172 32.1063 19.7957 34.1001 19.8C37.138 19.8 39.6001 17.3379 39.6001 14.3C39.6001 11.2621 37.138 8.79998 34.1001 8.79998ZM23.1559 9.89138C22.911 9.88279 22.6661 9.95584 22.4641 10.1019C22.4641 10.1019 18.7001 12.766 18.7001 17.6C18.6958 17.9953 18.902 18.3648 19.2458 18.5668C19.5895 18.7644 20.0106 18.7644 20.3544 18.5668C20.6981 18.3648 20.9044 17.9953 20.9001 17.6C20.9001 13.8961 23.736 11.898 23.736 11.898C24.1227 11.6316 24.2989 11.1418 24.17 10.6863C24.0368 10.2308 23.6329 9.91287 23.1559 9.89138ZM41.6454 12.7789C41.9247 14.1797 41.8173 15.6621 41.2801 17.0586L43.2309 18.107L36.6911 21.1105L36.6868 21.1191C35.1399 21.6562 34.1044 23.1129 34.1001 24.75C34.1001 25.1797 34.1774 25.6094 34.3192 26.0176V26.0219L38.6719 42.7969L33.3739 53.0578L33.3782 53.0621C33.1333 53.4832 33.0001 53.9601 33.0001 54.45C33.0001 55.9668 34.2333 57.2 35.7501 57.2C36.863 57.2 37.8641 56.5297 38.2895 55.5027L43.927 44.1847L45.2075 34.3191C45.4309 32.5574 45.3192 30.8 44.7692 29.0426L43.1192 22.6574L48.2067 20.7195V20.7023C48.993 20.3457 49.5001 19.5636 49.5001 18.7C49.5001 17.9695 49.1391 17.2906 48.5376 16.8781V16.8738L41.6454 12.7789ZM13.6555 28.5957C14.0594 28.8707 14.618 29.3691 15.1337 29.9191C15.6407 30.4605 16.1048 31.0449 16.3969 31.4875C15.5633 31.9472 14.5579 31.9687 13.8446 31.2554C13.1012 30.5121 13.127 29.4422 13.6555 28.5957ZM47.1841 36.1926L46.0626 44.8336L45.2419 46.4793L48.5075 55.189L48.5118 55.1847C48.8341 56.3449 49.8868 57.2 51.1501 57.2C52.6712 57.2 53.9001 55.9711 53.9001 54.45C53.9001 54.0461 53.8055 53.6636 53.6508 53.3199L53.6594 53.3156L47.1841 36.1926Z" fill="#63AEF7"/>
</svg>
