<svg width="101" height="100" viewBox="0 0 101 100" fill="none" xmlns="http://www.w3.org/2000/svg">
<circle cx="50.3359" cy="50" r="50" fill="#63AEF7" fill-opacity="0.45"/>
<g clip-path="url(#clip0_7950_9291)">
<path d="M50.417 18.502C50.5625 18.5087 50.7038 18.5538 50.8252 18.6348C50.9213 18.6988 51.0022 18.7824 51.0625 18.8799L51.1152 18.9814L59.0527 39.6709L59.1689 39.9736L59.4932 39.9912L81.6348 41.1621V41.1631C81.7981 41.172 81.9549 41.2307 82.084 41.3311C82.2102 41.4293 82.3038 41.563 82.3535 41.7148C82.3957 41.8783 82.395 42.0499 82.3506 42.2129C82.3067 42.3737 82.2213 42.52 82.1045 42.6387L64.9873 56.5576L64.7354 56.7617L64.8193 57.0752L70.5508 78.4365L70.5527 78.4434C70.5987 78.6055 70.5918 78.7781 70.5342 78.9365C70.4765 79.0949 70.3708 79.2314 70.2314 79.3262L70.2188 79.334L70.207 79.3438C70.0894 79.4346 69.9446 79.4834 69.7959 79.4834L69.6855 79.4746C69.5767 79.4565 69.473 79.4119 69.3848 79.3438L69.3682 79.3301L69.3496 79.3184L50.6719 67.3359L50.4014 67.1621L50.1309 67.3359L31.5049 79.3193L31.4385 79.3613L31.3887 79.4219C31.3669 79.4484 31.3391 79.4697 31.3076 79.4834C31.2783 79.4961 31.2467 79.501 31.2148 79.5C31.0275 79.4803 30.8468 79.422 30.6836 79.3281C30.5557 79.2213 30.4575 79.0836 30.4004 78.9268C30.3406 78.7624 30.3271 78.5844 30.3623 78.4131L36.0879 57.0752L36.1719 56.7617L35.9199 56.5566L18.7266 42.6201L18.7021 42.6006L18.6758 42.584L18.5732 42.5078C18.4773 42.4245 18.4021 42.3193 18.3545 42.2002C18.2924 42.0448 18.2806 41.8743 18.3203 41.7119C18.3703 41.5613 18.4634 41.4286 18.5889 41.3311C18.7179 41.2307 18.8748 41.172 19.0381 41.1631L19.0371 41.1621L41.1797 39.9912L41.5039 39.9736L41.6201 39.6709L49.542 19.0205C49.6144 18.9168 49.7017 18.8248 49.8018 18.748L49.917 18.6689C50.0695 18.5774 50.2404 18.5213 50.417 18.502Z" fill="#001035" stroke="#63AEF7"/>
<path d="M27.4922 38.1114C27.9467 37.2896 28.4468 36.4938 28.9901 35.7278C32.5848 30.5603 37.921 26.861 44.0212 25.3076" stroke="#63AEF7" stroke-width="2" stroke-dasharray="2.2 2"/>
<path d="M30.1947 67.365C26.3414 62.6839 24.2369 56.8079 24.2422 50.7449" stroke="#63AEF7" stroke-width="2" stroke-dasharray="2.2 2"/>
<path d="M59.0266 75.5066C53.4651 77.426 47.4208 77.426 41.8594 75.5066" stroke="#63AEF7" stroke-width="2" stroke-dasharray="2.2 2"/>
<path d="M76.6533 50.7449C76.6553 57.2043 74.2657 63.4358 69.9453 68.2377" stroke="#63AEF7" stroke-width="2" stroke-dasharray="2.2 2"/>
<path d="M55.9609 25.125C59.5781 25.9075 62.989 27.4457 65.97 29.6388C68.951 31.8319 71.4348 34.6303 73.2584 37.8506" stroke="#63AEF7" stroke-width="2" stroke-dasharray="2.2 2"/>
</g>
<defs>
<clipPath id="clip0_7950_9291">
<rect width="65.087" height="62" fill="white" transform="translate(17.8359 18)"/>
</clipPath>
</defs>
</svg>
