<svg width="733" height="500" viewBox="0 0 733 500" fill="none" xmlns="http://www.w3.org/2000/svg">
<g clip-path="url(#clip0_7425_1114)">
<path d="M529.799 13.8C531.399 19.8 536.599 41.4 536.599 41.4C536.899 43.7 535.499 45.1 533.099 45C511.199 42.7 459.099 39.6 459.099 39.6C460.499 48.3 465.599 103.8 465.599 103.8L531.499 107.5C535.699 107.7 538.399 110.1 538.999 114L542.699 150.9C542.799 153.1 540.599 155.6 537.799 155.4L468.499 153.3C468.499 158.3 470.599 229.9 470.599 229.9C470.599 229.9 544.499 230.6 550.899 230.6C557.299 230.6 557.599 235.7 557.599 235.7C557.699 242 557.599 279.1 557.399 279.9C556.799 283.1 554.499 285 550.899 285L416.899 286C413.499 285.8 410.499 283.6 410.599 280.3C411.499 231.4 407.499 25.1 404.999 4.40002C404.999 2.20002 406.899 0.400025 408.699 0.500025C445.199 2.40002 478.099 4.30003 522.999 8.20003C526.299 8.50003 528.899 10.1 529.799 13.8ZM317.999 280.6C328.799 224.8 384.899 5.00002 384.899 5.00002C385.599 2.70002 384.299 -0.0999756 380.899 -0.0999756L337.799 0.400024C334.099 0.500024 332.199 1.90002 331.099 5.30002C317.399 52.5 292.699 158.8 292.699 158.8C286.399 133.9 278.299 7.60002 278.299 7.60002C278.199 4.80002 276.799 3.70003 273.799 3.70003L234.499 7.40003C230.699 7.90003 228.899 9.80003 228.799 13.4C228.799 13.4 224.199 96.7 264.299 280C264.799 282.7 267.799 285.6 271.399 285.5L310.899 285.8C314.599 285.9 317.099 284 317.999 280.6ZM134.099 173.3C134.099 173.3 144.799 122.9 158.499 90.2C156.799 117.5 156.899 144.9 158.299 171.8L134.099 173.3ZM160.799 21.6C79.9988 168.1 74.7988 276.6 74.7988 276.6C74.7988 280.3 76.4988 281.9 80.4988 282L107.999 282.9C110.599 283 112.199 281.9 113.099 279.6C113.099 279.6 119.199 236.8 123.099 222.2L164.099 221.4C164.099 221.4 172.099 270 174.699 279.4C175.499 282.6 177.699 284.4 181.299 284.6L221.799 285.2C225.499 285 227.999 282.5 227.699 279.1C227.699 279.1 207.799 192.9 202.899 149.2C197.999 105.5 193.199 58.9 195.899 15.5C195.799 14.3 194.699 13.3 193.399 13.2L167.299 17.5C164.199 17.9 162.299 19.4 160.799 21.6ZM477.799 421.2C478.599 416.6 480.099 395.6 480.099 395.6C479.999 393.6 478.799 392.2 476.599 391.9C476.599 391.9 428.999 393 425.499 393C425.499 381.2 426.799 340.5 426.799 340.5L487.499 339.5C490.299 339.3 491.999 337.6 492.099 335.4L493.199 306.2C493.299 303.8 490.899 302.6 488.999 302.8C488.999 302.8 393.299 303.8 387.999 303.8C385.599 304.2 384.199 305.7 383.999 307.9L382.699 497C382.799 498.7 383.899 499.8 385.699 500C416.299 500.7 469.499 497 469.499 497C473.899 496.7 475.199 495.8 475.899 491.8L479.099 472C479.299 470.1 478.299 469 476.199 468.9C464.099 469.4 421.199 471.5 421.199 471.5L423.699 426.7C440.499 426.2 473.899 424.8 473.899 424.8C475.899 424.4 477.399 423.1 477.799 421.2ZM249.899 370.5C251.899 370.4 253.399 369.8 253.499 367.3C254.599 332.1 233.599 300.6 193.599 299.3C160.599 298.2 142.499 324.2 149.299 360.6C153.499 383.1 161.599 398.1 187.299 410.5C214.699 423.8 221.699 424.8 225.499 442.8C227.599 452.6 229.999 464.8 217.199 464.7C197.199 464.5 196.199 448.2 194.899 442.9C193.899 439 192.699 438.6 189.499 438.2L165.799 435.3C163.699 435.2 162.599 435.6 162.999 438C170.199 476 201.599 492.1 230.199 492.8C254.399 493.3 266.499 480.1 261.599 444.7C256.299 406.8 240.399 400.8 210.799 387.4C191.299 378.6 184.699 376.8 182.999 361.1C181.899 351.5 179.999 335.9 196.399 337.1C215.799 338.6 213.299 356.2 215.099 364.3C215.399 367.6 216.899 368.9 220.399 369.2L249.899 370.5ZM644.799 428.6C632.899 457.9 642.599 466 649.799 466.4C672.999 467.8 696.799 433.9 704.399 409.5C713.799 379.6 712.799 375 694.199 366.4C685.999 362.6 685.199 362.1 688.699 343.8C691.899 327 697.999 325.3 702.399 325.5C710.599 326 706.399 343.7 705.599 347.6C705.199 349.4 705.599 350.7 707.499 350.6C708.799 350.5 718.499 348.3 719.999 348C721.399 347.7 722.099 346.8 722.599 345.6C723.099 344.4 725.199 333.8 725.799 328.8C727.599 315.5 724.599 293.1 706.999 292.4C686.399 291.6 671.199 317.7 666.199 340.8C664.699 347.6 659.999 368.1 663.899 381C666.799 390.5 673.599 393.4 683.799 397.9C690.299 400.8 691.799 403 684.899 421.1C678.499 437.8 670.199 440.8 666.299 439.9C662.499 439.1 663.699 433.6 667.599 423.3C668.399 421.2 667.199 420.4 665.599 420.7C663.999 421 649.899 424.2 649.899 424.2C647.199 424.8 645.899 425.9 644.799 428.6ZM627.899 302.4C626.999 310.4 623.099 348.5 622.999 353.4C622.999 354.7 624.299 355.1 625.399 354.7C628.299 353.9 651.899 332.5 651.899 332.5C653.299 331.3 654.099 329.8 654.299 328.1L656.899 301.4C657.099 298.2 655.999 297.3 652.599 297.4L632.599 298.4C629.999 298.4 628.299 300 627.899 302.4ZM49.6988 427.3C49.6988 427.3 58.5988 432.3 58.5988 427.5C58.5988 422.7 51.1988 402 47.2988 395.2C43.3988 388.3 38.1988 386.4 34.1988 386C37.0988 396.9 42.0988 411.2 49.6988 427.3ZM32.1988 361.2C37.1988 362.3 38.1988 357.2 34.8988 340.9C32.1988 327.9 28.4988 321.3 18.7988 320.7C19.8988 332.4 24.9988 354.5 26.7988 359.9C26.7988 359.8 30.3988 360.8 32.1988 361.2ZM70.7988 413.4C77.6988 433.4 81.9988 447.2 77.7988 453C73.4988 459.1 58.8988 450.7 52.7988 447.3C49.6988 445.6 47.8988 443.9 46.4988 441.1C13.1988 382.1 2.39884 304.2 2.29884 292.9C2.19884 290.4 3.19883 289.7 5.19883 289.8C36.1988 291.8 43.8988 305.1 51.3988 336.2C57.7988 363 56.8988 372.5 51.6988 378.6C58.7988 384 66.2988 400.4 70.7988 413.4ZM573.899 363.3C577.399 336.5 568.899 335.7 545.099 337.4C544.199 348.9 540.699 383.1 539.699 391.9C564.999 391.6 570.599 388.8 573.899 363.3ZM559.899 301.1C604.299 300 609.699 328.8 607.799 357.4C606.399 377.3 597.999 399.2 577.799 411.7C580.099 423.2 583.099 446 583.699 478.6C583.999 481.7 581.699 483.3 578.999 483.7C560.299 487.3 554.799 487.4 554.799 487.4C553.899 487.4 553.199 486.7 553.099 485.9C552.199 463.7 545.099 421.8 545.099 421.8C542.099 422.2 538.199 422.3 534.899 422.7C530.699 453.5 521.499 488.6 521.499 488.6C520.899 491.1 519.199 492.4 516.599 492.6C504.699 494.1 490.499 495.1 490.499 495.1C488.499 495.1 487.499 494.2 487.899 492.1C497.299 444.2 504.599 381.4 507.799 306.4C507.899 303.8 510.099 302.5 511.999 302.3C511.899 302.3 533.799 301.7 559.899 301.1ZM80.2988 301C79.9988 295.8 75.9988 296.2 75.9988 296.2C75.9988 296.2 61.7988 295.3 59.8988 295.1C57.9988 294.9 56.5988 295.2 56.3988 297.9C63.5988 378.9 84.9988 430.2 84.9988 430.2C93.9988 454.4 111.799 466.1 111.799 466.1C128.799 478.5 144.799 480.9 152.799 470.8C158.799 463.2 156.799 452 154.299 443.7C139.799 394.5 132.699 333.1 130.899 303.2C130.699 300.4 129.199 298.8 125.899 298.8L104.199 297.9C102.399 297.9 100.799 298.8 100.899 301.8C109.599 394.5 126.099 437.5 126.599 439.5C126.599 439.5 130.499 450.1 122.699 450.1C111.399 450.1 107.199 435.1 107.199 435.1C82.6988 359.1 80.2988 301 80.2988 301ZM671.299 240.5C680.899 240.5 687.199 227.9 687.199 227.9C683.799 218.2 659.199 172.5 659.199 172.5C647.899 191.5 651.199 209.3 652.899 217.5C655.099 228 661.699 240.5 671.299 240.5ZM648.599 64.8C637.799 56.8 637.799 69.7 637.799 69.7C637.799 82.3 654.599 105.9 654.599 105.9C668.399 80.1 648.599 64.8 648.599 64.8ZM718.199 228C720.699 233.6 732.099 265.8 732.799 275.4C732.599 278.5 731.299 279.7 728.699 279.8C722.699 280.1 716.599 280.4 710.599 280.7C708.999 280.8 708.199 280.4 707.199 279C706.199 277.6 703.799 270.6 701.499 263.2C683.699 288.4 654.599 292.7 634.399 271C620.399 256 611.199 236.7 611.199 198.1C611.199 159.5 634.199 132.7 634.199 132.7C634.199 132.7 609.899 96.2 603.699 71.8C597.499 47.4 599.399 29 618.099 27.6C636.799 26.2 654.799 40.7 665.399 52.7C675.999 64.7 687.199 84.9 687.199 106.7C687.199 123.9 679.899 136.5 676.699 142C683.299 151.7 700.199 185.2 702.399 191.2C706.199 181.7 706.699 177.3 709.399 170C709.999 168.5 711.499 168.3 712.699 169.5C712.699 169.5 720.499 177.7 726.199 186.3C728.499 189.1 729.099 192.3 729.099 195.6C729.299 200.7 723.799 216.9 718.199 228ZM66.0988 83.4C71.3988 69 52.7988 78.5 52.7988 78.5C45.6988 95.1 21.0988 157.6 19.5988 236.3C37.1988 238.1 38.7988 225.3 39.2988 214.1C40.7988 182.4 52.3988 121 66.0988 83.4ZM91.8988 42.2C97.1988 46.1 103.199 54.1 92.8988 84.9C66.4988 163.6 76.9988 235.7 53.6988 264.3C53.6988 264.3 43.0988 280.8 23.8988 279.5L4.69883 278.2C1.69883 277.9 0.698838 277.6 0.498838 274.8C-4.80116 183.9 22.2988 104 46.8988 59.5C46.8988 59.5 49.0988 54.8 53.8988 52.5C53.8988 52.4 82.4988 35.3 91.8988 42.2ZM292.299 340.2C294.099 404.6 302.699 485.7 304.199 494.4C304.599 497.1 305.699 498 308.199 498.4C310.799 498.7 335.999 499.5 335.999 499.5C338.799 499.6 340.899 498.6 340.499 495.1C337.999 469.9 334.699 340.7 334.699 340.7C334.699 340.7 360.299 340.8 369.899 340.9C371.999 340.7 373.699 339.5 373.699 337.5V307.6C373.699 305.3 371.899 303.8 369.299 303.6C328.699 303 257.199 302.7 257.199 302.7C255.199 302.9 253.799 304.1 253.499 305.9C253.099 309.3 254.599 335.7 254.599 335.7C254.999 337.8 256.399 339 258.699 339.3L292.299 340.2Z" fill="#ED6F00"/>
</g>
<defs>
<clipPath id="clip0_7425_1114">
<rect width="733" height="500" fill="white"/>
</clipPath>
</defs>
</svg>
