<svg width="180" height="180" viewBox="0 0 180 180" fill="none" xmlns="http://www.w3.org/2000/svg">
<g clip-path="url(#clip0_7434_1144)">
<path d="M179.93 89.9571C179.93 113.816 170.452 136.698 153.581 153.569C136.71 170.44 113.828 179.918 89.9691 179.918C66.1099 179.918 43.2279 170.44 26.3569 153.569C9.48585 136.698 0.0078125 113.816 0.0078125 89.9571C0.0078125 66.0979 9.48585 43.2159 26.3569 26.3448C43.2279 9.47383 66.1099 -0.00421143 89.9691 -0.00421143C113.828 -0.00421143 136.71 9.47383 153.581 26.3448C170.452 43.2159 179.93 66.0979 179.93 89.9571Z" fill="#FF6F00"/>
<path d="M8.578 77.6689C7.44779 77.6689 6.4291 78.5849 6.4291 78.5849C5.4179 79.3465 3.15951 82.7868 2.16259 84.372C1.85453 84.8752 1.60156 85.237 1.60156 86.2325C1.60156 89.5069 2.32716 96.2371 3.53217 102.019C5.8674 112.287 9.65245 123.254 16.2549 133.88L17.5184 136.009C18.3222 137.363 18.8669 136.826 19.4109 136.583L23.3918 134.642C26.1758 133.239 27.5536 130.514 27.5536 126.752C27.5536 122.869 26.2629 119.188 24.1045 114.28C19.5211 104.837 16.2998 95.7829 13.8265 85.3832C13.2804 83.1404 12.461 80.9881 11.3335 79.3907C10.6358 78.4849 9.9231 77.6702 8.578 77.6702V77.6689ZM7.19278 87.8632C7.43487 87.8585 7.63072 88.0169 7.84969 88.2509C8.89966 89.6096 9.63953 95.0478 10.682 98.539C12.2032 104.023 14.431 110.151 16.2651 114.316C17.84 117.643 18.9308 120.186 19.3381 121.481C19.3381 121.481 19.6829 122.475 19.6829 123.231C19.6829 124.042 19.4027 124.97 18.4997 125.536L17.498 126.155C17.2953 126.278 17.1498 126.316 17.0566 126.097C11.5327 115.821 7.12817 103.438 5.19825 90.7738C5.13772 90.2624 5.05952 89.7673 5.3805 89.4545L6.25297 88.4515C6.66099 88.0346 6.95001 87.868 7.19278 87.8632ZM26.2962 59.6413C26.0609 59.6494 25.7909 59.7909 25.5074 60.0561L21.3633 63.5161C20.6696 64.1125 20.3514 64.3253 20.3514 65.9445C20.3514 85.7504 24.9708 108.276 32.8136 127.203C33.4107 128.739 33.8983 129.144 35.0543 128.641L40.5993 125.669C41.2725 125.319 41.4711 125.03 41.4711 124.579C41.4711 124.272 41.3671 123.961 41.2562 123.686C41.2562 123.686 39.2358 118.944 36.7163 111.617C36.596 111.277 36.5946 111.229 36.8238 111.096L44.6101 106.308C44.7625 106.22 44.8808 106.196 44.9801 106.304L53.9993 117.006C54.6256 117.669 55.3444 117.574 56.2189 117.098L63.9495 112.809C64.7798 112.318 64.9873 111.953 64.9873 111.428C64.9873 110.786 64.3936 110.24 64.3936 110.24C59.5586 104.954 37.6296 81.8429 26.8736 60.0289C26.7307 59.7596 26.5315 59.6345 26.2962 59.6413ZM28.1343 79.8946C28.1955 79.8946 28.2377 80.0095 28.2622 80.0551C29.9983 83.5709 34.003 90.9798 37.5759 96.3351C37.703 96.5642 37.7731 96.6615 37.5235 96.8179L33.4794 99.4911C33.1122 99.7536 32.9986 99.7998 32.8442 99.2374C30.8755 92.769 29.5168 87.2947 28.084 80.4393C28.084 80.4393 28.0452 80.2673 28.0452 80.1619C28.0452 80.0456 28.0391 79.8953 28.1343 79.8953V79.8946ZM33.036 54.8606C33.036 54.2629 33.3828 53.9242 33.8276 53.6033L40.9672 48.5404C41.4935 48.1413 42.2021 47.7958 42.6503 48.4765C49.1378 58.6158 56.5678 69.2664 63.5646 77.9599C59.8517 66.2559 56.3005 54.8484 53.3642 42.6799C53.0343 41.3226 52.7685 40.6494 54.3454 39.8061L62.1345 35.1867C62.4514 34.9963 62.7928 34.7719 63.1797 34.7719C63.7782 34.7719 64.0257 35.069 64.1971 35.7579C69.3197 54.5886 75.895 77.3391 83.21 99.8032C83.21 99.8032 83.4317 100.422 83.4317 100.857C83.4317 101.167 83.3508 101.847 82.4702 102.342L75.0102 106.569C74.5356 106.853 74.1786 107.099 73.5801 107.099C72.6179 107.099 72.3003 106.591 71.6808 105.903C56.0401 88.2475 44.927 75.0793 33.5447 56.1792C33.5447 56.1792 33.036 55.3605 33.036 54.8606ZM68.3704 33.3921C68.1215 32.9977 67.9944 32.814 67.9944 32.5108C67.9944 32.0225 68.2283 31.7539 68.9376 31.3833C79.4794 25.8274 83.633 23.7805 92.3225 19.9859C93.5016 19.4698 93.9783 19.5194 94.5904 20.0743L99.3193 24.9828C99.5424 25.2099 99.6144 25.4153 99.6144 25.637C99.6144 26.0607 99.5084 26.0913 98.3339 26.6693C93.1453 28.9712 88.5197 31.3112 83.8017 33.645C83.5548 33.7674 83.5133 33.8409 83.752 34.187L92.1491 46.0991C92.3531 46.4391 92.4938 46.4038 92.7774 46.2474L106.211 39.3695C107.124 38.8996 108.007 39.0254 108.615 39.8442L113.615 46.7832C114.067 47.4238 114.005 48.1304 113.14 48.5887L99.1711 56.0215C98.8215 56.1881 98.7964 56.2568 99.0323 56.6512L108.171 71.554C108.378 71.907 108.492 71.8614 108.83 71.6656L124.961 62.4444C125.797 61.9568 126.55 62.205 127.044 63.0537L131.917 71.533C132.363 72.351 132.419 73.163 131.351 73.7948L104.368 89.7095C103.467 90.1753 102.505 90.0869 101.896 88.9458C91.314 70.0444 75.6263 44.4895 68.3704 33.3921ZM120.671 11.0735C118.593 11.0735 112.475 11.7535 112.475 16.0894C112.475 20.9747 119.914 27.2997 129.904 32.2557C130.121 32.3625 130.242 32.4856 130.226 32.6651C130.159 33.7654 130.026 34.9731 130.026 35.9667C130.026 42.9547 132.254 47.7992 136.043 52.9715C136.556 53.6298 139.077 56.8096 141.792 58.6511C144.201 60.1431 146.943 61.6603 150.126 61.6603C155.506 61.6603 158.981 56.949 159.363 52.3799C159.368 52.2935 159.418 51.9018 159.454 51.7121C159.49 51.5401 159.593 51.6237 159.645 51.6781C160.458 52.4425 161.287 53.1907 162.13 53.9222C162.647 54.352 163.019 54.4649 163.633 54.0426L167.098 51.7991C167.955 51.2381 167.405 50.231 166.76 49.6054C164.451 47.2423 162.068 45.0655 159.266 42.7643C158.918 42.4691 158.741 42.3413 158.686 41.8585L158.184 38.3114C157.816 35.9333 157.097 33.339 155.444 32.744L153.089 31.7518C152.134 31.3268 150.943 30.8454 150.458 30.8454C149.961 30.8454 149.917 31.1276 150.055 31.6961L151.146 36.2305C151.2 36.4509 151.099 36.5733 150.889 36.4243C147.521 34.0803 143.772 31.6274 140.025 29.4112C140.382 16.9489 127.843 11.0741 120.67 11.0741L120.671 11.0735ZM124.629 16.7517C127.369 16.7517 131.08 19.8785 131.198 24.1858C131.204 24.4578 131.202 24.6115 130.937 24.4735C128.387 23.1256 123.042 20.2049 123.042 17.9023C123.042 17.1577 123.53 16.7524 124.629 16.7524L124.629 16.7517ZM140.274 37.9836C140.305 37.9857 140.342 37.9986 140.38 38.0217C144.426 40.4522 148.738 43.3124 152.239 45.8727C152.365 45.957 152.377 46.0372 152.373 46.2977C152.373 49.1654 151.103 50.7682 149.254 50.7682C145.4 50.7682 140.114 44.6615 140.114 38.2217C140.114 38.0618 140.177 37.9768 140.273 37.9836H140.274ZM26.6587 138.77C25.9922 138.778 25.253 138.838 24.7274 139.075L21.4836 140.465C21.0681 140.653 20.7512 140.8 21.2402 141.476C26.2751 148.43 34.6742 158.191 46.7617 166.147C47.9341 166.915 48.6339 167.438 49.6165 167.438C50.2 167.438 52.6461 167.262 52.6461 167.262C55.1615 167.084 55.7524 166.269 55.7524 165.529C55.7518 164.698 55.0527 163.498 54.0884 162.479C52.0177 160.384 50.5162 159.116 47.7485 156.832C45.1637 154.686 43.5309 154.025 41.6704 153.289C41.7146 151.881 41.3011 150.546 39.8152 148.706C37.4739 145.786 35.2087 142.987 31.9071 140.718C29.9827 139.394 28.3071 138.77 26.6587 138.77ZM29.5372 144.822C30.171 144.822 30.8885 145.077 31.6433 145.698C33.5882 147.281 35.1876 149.409 35.7085 150.33C35.7085 150.33 36.0703 150.957 36.0703 151.295C36.0703 151.673 35.886 151.891 35.3202 152.06L34.4178 152.35C34.2111 152.419 34.1812 152.355 34.0662 152.251C31.9534 150.087 29.9031 147.694 28.1364 145.507C27.9936 145.323 27.982 145.191 28.1656 145.13C28.662 144.957 29.0361 144.822 29.5372 144.822ZM40.4742 156.632C41.2705 156.632 41.9539 156.899 42.5646 157.273C44.4034 158.442 46.3564 160.18 48.1252 161.787C48.4108 162.054 48.846 162.601 48.846 162.93C48.846 163.349 47.998 163.598 47.0773 163.598C46.8631 163.598 46.6196 163.391 46.4176 163.25C44.5102 161.861 40.6829 158.659 39.0101 157.085C38.8945 156.991 38.8788 156.901 39.0346 156.863C39.0346 156.863 39.8737 156.632 40.4742 156.632ZM33.002 136.43C32.7932 136.139 32.6783 135.975 32.6783 135.688C32.6783 135.414 32.9014 135.215 33.2359 135.056C34.4919 134.475 35.4678 133.983 36.5592 133.454C36.5592 133.454 36.9061 133.26 37.1692 133.26C37.6004 133.26 37.8846 133.625 38.2546 134.184C45.1025 143.958 51.5288 151.244 59.7089 158.572C60.6344 159.334 61.7442 160.027 63.124 160.027C64.4174 160.027 65.1641 159.434 65.1641 158.826C65.1641 158.083 63.8224 156.88 62.9451 156.07C54.882 148.372 48.5815 140.694 42.6489 132.128C42.4197 131.782 42.143 131.4 42.143 131.064C42.143 130.639 42.5102 130.436 42.9583 130.214L46.7141 128.293C47.0814 128.088 47.3785 127.901 47.775 127.901C48.3068 127.901 48.6271 128.326 49.0827 129.051C55.9252 138.998 62.0312 146.648 70.199 154.695C71.7835 156.244 73.164 157.931 73.164 159.994C73.164 163.29 69.5815 164.525 66.2494 164.525C61.4076 164.525 56.5862 162.21 53.5988 159.423C44.7652 151.632 38.8761 144.685 33.002 136.431V136.43ZM55.3947 128.984C55.3947 122.406 61.9088 118.469 67.6401 118.469C72.9477 118.469 77.2917 121.185 79.1775 124.036L80.9775 126.655C81.2767 127.091 81.4277 127.342 81.4277 127.635C81.4277 127.962 81.3053 128.214 80.5348 128.592L75.0041 131.412C74.7199 131.544 74.4465 131.741 74.0154 131.741C73.4523 131.741 73.0823 131.216 72.7233 130.685L71.9603 129.591C71.0341 128.326 69.5475 127.228 68.0107 127.228C66.3786 127.228 64.1937 128.427 64.1937 130.108C64.1937 131.348 64.9118 132.456 65.8121 133.803C67.2844 135.756 68.0413 136.804 70.214 136.804C72.6118 136.804 77.7242 135.945 80.8238 135.945C85.6561 135.945 88.2409 137.989 90.5496 140.375L92.3565 142.492C94.0042 144.482 95.7362 147.35 95.7362 149.949C95.7362 155.182 88.2892 158.089 83.4005 158.089C78.7545 158.089 75.4067 156.712 72.4751 153.756L71.3802 152.646C71.2116 152.451 71.1041 152.332 71.1041 152.111C71.1041 151.894 71.1313 151.754 71.706 151.519L76.407 149.547C76.407 149.547 77.0565 149.259 77.4135 149.259C78.0139 149.259 78.3709 149.723 78.8524 150.266C80.0214 151.629 81.0469 152.435 82.7816 152.435C84.5477 152.435 87.0305 151.075 87.0305 150.083C87.0305 149.278 86.0247 147.851 85.0992 146.723C83.2644 144.55 82.0492 143.386 80.3247 143.386C79.0632 143.386 73.6808 144.015 71.3115 144.015C66.3718 144.015 62.9023 142.753 58.6623 137.4C56.8099 134.947 55.3947 132.313 55.3947 128.984ZM74.2731 115.098C74.0861 114.787 73.931 114.528 73.931 114.186C73.931 113.76 74.1541 113.516 74.5968 113.246L97.0494 100.555C97.0494 100.555 97.5478 100.253 97.9096 100.253C98.3951 100.253 98.6685 100.584 99.0221 101.207L102.141 106.581C102.268 106.8 102.388 107.05 102.388 107.285C102.388 107.773 102.148 107.963 101.463 108.34L95.0202 112.022C94.7944 112.155 94.7631 112.258 94.9678 112.584C101.412 123.245 107.467 133.078 114.353 143.417C114.549 143.689 114.598 143.875 114.598 144.066C114.598 144.379 114.333 144.65 113.843 144.903L108.421 147.771C108.137 147.917 107.954 147.998 107.595 147.998C107.176 147.998 106.952 147.733 106.75 147.462C99.4288 137.726 92.5006 127.31 86.2484 117.451C86.0199 117.077 85.9193 117.115 85.5793 117.3L79.3189 120.687C79.0333 120.853 78.9163 120.933 78.5301 120.945C78.0568 120.945 77.8024 120.694 77.4203 120.076L74.2731 115.098ZM100.945 99.8175C100.8 99.5421 100.698 99.3374 100.698 99.0688C100.698 98.6268 100.949 98.3051 101.71 97.8488C108.319 94.0215 114.901 90.1473 121.456 86.2264C121.785 86.0156 121.942 85.9646 122.17 85.9646C122.589 85.9646 122.935 86.2278 123.234 86.8452L126.087 92.2916C126.621 93.1913 126.151 93.6816 125.684 93.9828L113.784 101.16C113.566 101.28 113.52 101.387 113.684 101.67L119.331 112.115C119.444 112.318 119.592 112.297 119.83 112.149L129.595 106.104C129.891 105.927 130.581 105.71 130.941 106.393L133.448 111.731C133.749 112.397 133.53 112.914 133.086 113.169L123.316 119.313C123.162 119.402 123.175 119.515 123.267 119.715L127.794 128.654C127.935 128.917 127.979 128.932 128.263 128.764C131.829 126.555 135.334 124.312 138.736 122.01C139.205 121.724 139.661 121.829 139.843 122.286L141.591 126.938C141.738 127.366 141.916 127.884 140.903 128.546C135.143 132.457 129.956 135.675 124.419 138.922C123.705 139.325 123.36 139.262 122.915 138.463L100.945 99.8175ZM142.612 75.146C140.297 75.146 138.38 76.0429 136.356 77.1595L126.629 83.0983C125.564 83.7076 125.695 84.2917 126.062 84.9996C132.954 98.0426 138.961 110.952 143.972 125.288C144.227 126.076 144.805 125.91 145.327 125.514L149.843 122.246C150.533 121.74 150.628 121.268 150.441 120.577C148.552 113.93 146.641 108.927 145.546 105.964C145.43 105.662 145.363 105.488 145.583 105.345L147.128 104.288C147.291 104.163 147.381 104.147 147.547 104.325C152.751 110.816 153.535 112.131 156.528 116.378C156.77 116.682 157.023 116.727 157.459 116.382L161.7 112.9C162.062 112.599 162.432 112.002 162.014 111.336C159.112 106.673 156.964 103.395 152.951 98.3201C152.84 98.214 152.832 98.1229 152.912 97.9753C153.861 96.0136 154.35 93.8614 154.342 91.6823C154.342 88.8193 153.461 85.9061 152.441 83.5478C150.472 79.1235 147.196 75.146 142.612 75.146ZM142.32 84.2407C143.624 84.2407 144.418 85.3315 145.387 86.9758C146.512 88.8853 147.48 91.8067 147.48 93.5041C147.48 94.8798 146.522 96.0114 144.945 97.0566L142.954 98.3813C142.748 98.5479 142.647 98.5676 142.556 98.3745L137.406 87.0112C137.278 86.7371 137.341 86.663 137.542 86.5433L139.897 85.054C140.423 84.7296 141.523 84.2407 142.32 84.2407ZM150.186 70.2225C149.699 69.2671 149.78 68.7312 150.481 68.2817C151.806 67.4562 152.998 66.6905 154.39 65.7609C154.787 65.5161 155.387 65.123 155.931 66.3035L158.295 71.5629C158.684 72.3789 158.642 72.6965 158.262 73.7533L156.178 79.8973C155.967 80.421 155.784 81.0024 155.384 81.0024C154.996 81.0024 154.664 80.272 154.347 79.4336C153.108 76.5543 151.688 73.2793 150.186 70.2225ZM161.231 66.4824C161.231 60.8803 164.117 57.865 166.673 57.865C169.333 57.865 172.023 60.6579 173.473 64.6041L174.332 67.0801C174.532 67.6316 174.527 68.0403 174.166 68.3497L172.155 70.1552C172.007 70.2865 171.885 70.4238 171.646 70.4238C171.365 70.4238 171.234 70.0791 171.114 69.737C170.386 67.4426 169.44 65.6351 168.358 65.6351C167.711 65.6351 166.697 66.2994 166.697 68.0084C166.697 69.3283 167.151 70.7781 167.849 72.4735C168.754 74.8243 169.055 75.1664 170.269 75.1664C171.146 75.1664 172.571 75.0616 173.373 75.0616C175.594 75.0616 176.795 76.5244 177.766 80.1687C178.462 82.9384 178.919 85.885 178.919 88.7473C178.919 97.6353 174.92 101.343 172.889 101.343C170.683 101.343 169.408 98.5404 168.889 95.8407L168.481 93.9733C168.362 93.3647 168.427 92.8179 168.808 92.4636L171.65 89.8197C172.13 89.3301 172.441 89.4069 172.575 90.2263C173.081 92.99 173.348 93.6435 174.021 93.6435C174.58 93.6435 176.01 92.4766 176.01 90.2127C176.01 89.2213 175.71 86.8371 175.381 85.3893C175.043 84.1598 174.827 82.8269 173.739 82.8269C173.173 82.8269 170.811 83.0622 170.134 83.0622C167.401 83.0622 166.024 81.2833 164.881 79.3316C162.942 75.5941 161.231 70.6571 161.231 66.4831V66.4824Z" fill="#15189A"/>
</g>
<defs>
<clipPath id="clip0_7434_1144">
<rect width="179.923" height="179.923" fill="white" transform="translate(0 -0.00430298)"/>
</clipPath>
</defs>
</svg>
