<svg width="60" height="60" viewBox="0 0 60 60" fill="none" xmlns="http://www.w3.org/2000/svg">
<path d="M15.9374 0C7.14947 0 0 7.14947 0 15.9374C0 24.7253 7.14947 31.8747 15.9374 31.8747C24.7253 31.8747 31.8747 24.7253 31.8747 15.9374C31.8756 7.14947 24.7253 0 15.9374 0ZM26.7173 10.2573H22.4351C22.1658 8.50512 21.7718 6.88781 21.2639 5.48986C21.1845 5.27111 21.1032 5.06381 21.0205 4.86196C23.4599 5.98593 25.466 7.89199 26.7172 10.2573H26.7173ZM14.0941 6.8853C14.9362 4.50798 15.8008 3.95399 15.9375 3.94317C16.0741 3.95379 16.9381 4.50712 17.7802 6.88445C18.1342 7.88383 18.4209 9.02241 18.6369 10.2572H13.2389C13.4535 9.02321 13.7402 7.88383 14.0941 6.88525V6.8853ZM4.13661 18.9901C3.8839 18.014 3.74931 16.9913 3.74931 15.9373C3.74931 15.2807 3.80202 14.6361 3.90265 14.0072H9.06877C9.03815 14.6433 9.02148 15.2873 9.02148 15.9373C9.02148 16.974 9.0621 17.9946 9.1394 18.9901H4.13661ZM5.82934 22.7401H9.63271C9.88543 24.0622 10.2127 25.2914 10.6107 26.3856C10.69 26.6044 10.7713 26.8117 10.854 27.0135C8.81331 26.0729 7.07539 24.5856 5.82934 22.7401ZM10.6107 5.48965C10.1027 6.8876 9.70791 8.50427 9.43938 10.257H5.15722C6.40849 7.89156 8.4152 5.98571 10.8539 4.86174C10.7714 5.06383 10.6899 5.27113 10.6105 5.48986L10.6107 5.48965ZM17.7793 24.9897C16.9366 27.3686 16.0714 27.9211 15.9366 27.931C15.8011 27.921 14.9353 27.3677 14.0932 24.9883C13.8499 24.3003 13.6386 23.5443 13.4592 22.7388H18.4133C18.2348 23.5457 18.0233 24.3018 17.7793 24.9897V24.9897ZM18.9739 18.9896H12.8997C12.8151 18.003 12.7709 16.9802 12.7709 15.9369C12.7709 15.2842 12.7882 14.6396 12.8215 14.0068H19.0515C19.0848 14.6395 19.1021 15.2848 19.1021 15.9369C19.1023 16.9802 19.0584 18.003 18.9736 18.9896H18.9739ZM21.02 27.0127C21.1021 26.8115 21.1833 26.6033 21.2633 26.3848C21.6606 25.2908 21.9879 24.062 22.2412 22.7393H26.0446C24.7988 24.5854 23.0606 26.0727 21.02 27.0127ZM22.7348 18.9896C22.8121 17.9951 22.8527 16.9735 22.8527 15.9369C22.8527 15.2863 22.836 14.6423 22.8054 14.0068H27.9715C28.0721 14.6356 28.1249 15.2802 28.1249 15.9369C28.1249 16.9909 27.9903 18.0136 27.7376 18.9896H22.7348ZM50.7641 47.388C50.9374 48.8168 50.5501 50.1254 49.6447 51.1721C48.7841 52.1666 47.4592 52.88 45.9373 53.2021V53.6627C45.9373 54.6981 45.098 55.5373 44.0627 55.5373C43.0273 55.5373 42.1881 54.6979 42.1881 53.6627V53.1694C39.7842 52.5866 37.9527 50.9059 37.3768 48.5972C37.1262 47.5926 37.7374 46.575 38.7429 46.3244C39.7468 46.0738 40.7656 46.6851 41.0156 47.6905C41.3868 49.1792 42.9756 49.6699 44.2169 49.6432C45.3123 49.6172 46.3542 49.2459 46.8096 48.7199C46.9569 48.5499 47.0996 48.312 47.043 47.8405C46.9896 47.3992 46.8642 46.3659 43.7742 45.8592C38.7853 45.0399 37.9084 42.2038 37.83 40.5858C37.7021 37.9537 39.4422 35.7403 42.1889 34.9905V34.4632C42.1889 33.4278 43.0283 32.5886 44.0635 32.5886C45.0989 32.5886 45.9381 33.428 45.9381 34.4632V34.9738C47.7108 35.4384 49.3708 36.6145 50.2582 38.7285C50.6588 39.683 50.2102 40.7825 49.2554 41.1831C48.3 41.5837 47.2014 41.1352 46.8008 40.1803C46.0748 38.4509 44.2762 38.3536 43.3281 38.569C42.9008 38.6657 41.5114 39.0851 41.5753 40.4036C41.5926 40.7603 41.6387 41.7076 44.3814 42.1582C48.2727 42.7968 50.4205 44.5562 50.7639 47.3881L50.7641 47.388ZM44.0626 28.1242C35.2747 28.1242 28.1253 35.2737 28.1253 44.0616C28.1253 52.8505 35.2747 60 44.0626 60C52.8505 60 60 52.8505 60 44.0626C60 35.2742 52.8505 28.1242 44.0626 28.1242ZM44.0626 56.2501C37.3425 56.2501 31.8752 50.7828 31.8752 44.0626C31.8752 37.3425 37.3425 31.8752 44.0626 31.8752C50.7828 31.8752 56.2501 37.3425 56.2501 44.0626C56.2501 50.7828 50.7828 56.2501 44.0626 56.2501ZM27.1978 48.9481C27.1978 49.9835 26.3584 50.8227 25.3232 50.8227L16.9577 50.8229C12.667 50.8229 9.17622 47.3322 9.17622 43.0414V41.3666L7.73412 43.1278C7.36349 43.5806 6.82471 43.8152 6.28198 43.8152C5.86406 43.8152 5.44405 43.6764 5.0953 43.3912C4.29405 42.7351 4.17651 41.5539 4.83258 40.7524L9.60056 34.9288C9.95661 34.4942 10.4893 34.2415 11.0512 34.2415C11.6133 34.2415 12.1458 34.4942 12.5018 34.9288L17.2692 40.7524C17.9253 41.5536 17.8072 42.7351 17.0059 43.3912C16.2047 44.0473 15.0231 43.9291 14.3671 43.1279L12.9258 41.3672V43.0418C12.9258 45.2645 14.7346 47.0731 16.9572 47.0731H25.3221C26.3588 47.0727 27.198 47.9121 27.198 48.9479L27.1978 48.9481ZM33.9947 11.0514C33.9947 10.0159 34.8341 9.17676 35.8693 9.17676H43.0417C47.3324 9.17676 50.8232 12.6674 50.8232 16.9582V19.4756L52.2644 17.7149C52.9205 16.9137 54.1018 16.7955 54.9033 17.4516C55.7045 18.1076 55.8226 19.2889 55.1666 20.0904L50.3992 25.9139C50.0432 26.3494 49.5104 26.6013 48.9486 26.6013C48.3865 26.6013 47.854 26.3492 47.4979 25.9139L42.7299 20.0904C42.0739 19.2891 42.192 18.1076 42.9927 17.4516C43.7939 16.7955 44.9754 16.9136 45.6315 17.7143L47.0736 19.4755V16.9576C47.0736 14.7348 45.2648 12.9262 43.0423 12.9262L35.8704 12.926C34.8343 12.9266 33.9949 12.0872 33.9949 11.0514L33.9947 11.0514Z" fill="#A1C8FF"/>
</svg>
