<svg width="100" height="100" viewBox="0 0 100 100" fill="none" xmlns="http://www.w3.org/2000/svg">
<circle cx="50" cy="50" r="50" fill="#BC6F4E" fill-opacity="0.45"/>
<circle cx="31.8516" cy="57.5752" r="7.12505" fill="#BC6F4E"/>
<rect x="36.1328" y="24.3252" width="25.1752" height="12.3501" fill="#BC6F4E"/>
<rect x="57.9766" y="50.4502" width="19.4751" height="24.7002" fill="#BC6F4E"/>
<path d="M31.6737 75.2423C27.224 75.2423 23.2558 73.0027 20.9375 69.4697C22.072 74.3561 26.4424 78.0004 31.6737 78.0004C36.905 78.0004 41.2752 74.3561 42.4099 69.4697C40.0914 73.0028 36.1234 75.2423 31.6737 75.2423Z" fill="#001035"/>
<path d="M31.6664 70.6419C27.1799 70.6419 23.2269 68.3306 20.9219 64.8398C22.0464 69.741 26.4253 73.4 31.6664 73.4C36.9075 73.4 41.2866 69.7409 42.4109 64.8398C40.106 68.3307 36.1529 70.6419 31.6664 70.6419Z" fill="#001035"/>
<path d="M31.6872 47.0713C25.6162 47.0713 20.6719 52.0156 20.6719 58.0866C20.6719 64.1576 25.6162 69.1019 31.6872 69.1019C37.7582 69.1019 42.7025 64.1576 42.7025 58.0866C42.7025 52.0156 37.7582 47.0713 31.6872 47.0713ZM32.3131 62.0922V63.5943H30.6858V62.1548C29.9348 62.0922 29.1837 61.8419 28.683 61.4664L28.4953 61.3412L29.0585 59.7139L29.4341 59.9643C29.9348 60.2772 30.6232 60.5276 31.2491 60.5276C32.0002 60.5276 32.5635 60.1521 32.5635 59.5262C32.5635 59.1507 32.3757 58.7125 31.1866 58.2118C29.9348 57.7111 28.6831 57.0227 28.6831 55.458C28.6831 54.2062 29.4968 53.2675 30.811 52.8919V51.4524H32.4383V52.8293C33.0642 52.8919 33.5649 53.0797 34.0656 53.33L34.3159 53.5178L33.6901 55.1451L33.3145 54.9573C33.0642 54.8321 32.5635 54.5192 31.7498 54.5192C30.9362 54.5192 30.6233 54.9573 30.6233 55.3328C30.6233 55.771 30.811 56.0213 32.1253 56.5846C33.2519 57.0227 34.5037 57.7737 34.5037 59.4636C34.5037 60.7153 33.6274 61.7793 32.3131 62.0922Z" fill="#001035"/>
<path d="M62.0105 21H36.2684C35.2525 21 34.4297 21.8228 34.4297 22.8387V37.5485C34.4297 38.5644 35.2525 39.3872 36.2684 39.3872H62.0105C63.0264 39.3872 63.8492 38.5644 63.8492 37.5485V22.8387C63.8492 21.8228 63.0264 21 62.0105 21ZM39.9459 34.7904H38.1071V32.9517H39.9459V34.7904ZM43.6233 34.7904H41.7846V32.9517H43.6233V34.7904ZM44.5427 29.2743C44.5427 29.7818 44.1309 30.1936 43.6233 30.1936H39.9459C39.4383 30.1936 39.0265 29.7818 39.0265 29.2743V27.4355C39.0265 26.9279 39.4383 26.5162 39.9459 26.5162H43.6233C44.1309 26.5162 44.5427 26.928 44.5427 27.4355V29.2743ZM47.3007 34.7904H45.462V32.9517H47.3007V34.7904ZM51.8975 34.7904H50.0588V32.9517H51.8975V34.7904ZM55.575 34.7904H53.7363V32.9517H55.575V34.7904ZM59.2524 34.7904H57.4137V32.9517H59.2524V34.7904Z" fill="#001035"/>
<path d="M76.7259 46.7422H58.3387C57.3228 46.7422 56.5 47.565 56.5 48.5809V76.1617C56.5 77.1777 57.3228 78.0005 58.3387 78.0005H76.7259C77.7418 78.0005 78.5647 77.1777 78.5647 76.1617V48.5809C78.5647 47.565 77.7418 46.7422 76.7259 46.7422ZM75.8066 73.4037H59.2581V51.339H75.8066V73.4037Z" fill="#001035"/>
<path d="M67.5215 55.9355C63.9672 55.9355 61.0859 58.8168 61.0859 62.3711C61.0859 65.9253 63.9672 68.8066 67.5215 68.8066C71.0757 68.8066 73.957 65.9253 73.957 62.3711C73.957 58.8168 71.0757 55.9355 67.5215 55.9355ZM66.6021 65.5097L64.1133 63.0209L65.4133 61.7209L66.6021 62.9097L69.6295 59.8824L70.9294 61.1823L66.6021 65.5097Z" fill="#001035"/>
<path d="M27.6788 44.3532L25.8906 43.9238C26.0276 43.3502 26.1904 42.7691 26.3723 42.1973L28.1247 42.7555C27.9555 43.2858 27.8056 43.8227 27.6788 44.3532ZM28.6891 41.2008L26.9846 40.5093C27.2072 39.9613 27.4554 39.4116 27.7228 38.8738L29.3694 39.6911C29.1231 40.1876 28.8941 40.6959 28.6891 41.2008ZM30.1637 38.2358L28.5834 37.2971C28.8877 36.7832 29.2158 36.2766 29.5589 35.7884L31.064 36.8456C30.7485 37.2951 30.446 37.7623 30.1638 38.2358L30.1637 38.2358ZM32.0641 35.5255L30.6418 34.3598C31.0151 33.9038 31.415 33.4516 31.8304 33.0156L33.1608 34.2834C32.7776 34.6871 32.4089 35.1045 32.0641 35.5255Z" fill="#BC6F4E"/>
<path d="M49.1355 73.403C48.9571 73.403 48.7779 73.4011 48.6003 73.3975L48.638 71.5587C49.2826 71.5725 49.9344 71.5587 50.5742 71.5183L50.6911 73.3534C50.1762 73.3856 49.6576 73.403 49.1355 73.403ZM46.5097 73.2615C45.812 73.1853 45.1142 73.0776 44.4375 72.9416L44.7987 71.1387C45.4229 71.2638 46.0655 71.363 46.7091 71.4329L46.5097 73.2615ZM52.7751 73.1282L52.4966 71.3105C53.1329 71.213 53.7719 71.0862 54.3924 70.9336L54.831 72.7199C54.157 72.8863 53.4646 73.0234 52.7751 73.1282Z" fill="#BC6F4E"/>
<path d="M70.5999 44.3778C70.4748 43.8528 70.3287 43.3251 70.1659 42.8129L71.9182 42.2567C72.0939 42.8129 72.2519 43.3839 72.3881 43.9529L70.5999 44.3778ZM69.6162 41.2841C69.4159 40.7849 69.1933 40.2856 68.9553 39.8003L70.6055 38.9903C70.8639 39.517 71.1047 40.0577 71.3216 40.5982L69.6162 41.2841ZM68.1876 38.3688C67.9183 37.9091 67.6248 37.4475 67.3161 36.9989L68.8294 35.9554C69.164 36.4417 69.4821 36.9411 69.7744 37.4402L68.1876 38.3688ZM66.345 35.6952C66.0048 35.2723 65.6509 34.8631 65.2812 34.4659L66.6281 33.2129C67.0254 33.6404 67.4123 34.0882 67.7783 34.5423L66.345 35.6952Z" fill="#BC6F4E"/>
</svg>
