<svg width="101" height="100" viewBox="0 0 101 100" fill="none" xmlns="http://www.w3.org/2000/svg">
<circle cx="50.5" cy="50" r="50" fill="#E83643" fill-opacity="0.35"/>
<circle cx="32.3516" cy="57.5752" r="7.12505" fill="#E83643"/>
<rect x="36.6328" y="24.3252" width="25.1752" height="12.3501" fill="#E83643"/>
<rect x="58.4766" y="50.4502" width="19.4751" height="24.7002" fill="#E83643"/>
<path d="M32.1737 75.2423C27.724 75.2423 23.7558 73.0027 21.4375 69.4697C22.572 74.3561 26.9424 78.0004 32.1737 78.0004C37.405 78.0004 41.7752 74.3561 42.9099 69.4697C40.5914 73.0028 36.6234 75.2423 32.1737 75.2423Z" fill="#001035"/>
<path d="M32.1664 70.6419C27.6799 70.6419 23.7269 68.3306 21.4219 64.8398C22.5464 69.741 26.9253 73.4 32.1664 73.4C37.4075 73.4 41.7866 69.7409 42.9109 64.8398C40.606 68.3307 36.6529 70.6419 32.1664 70.6419Z" fill="#001035"/>
<path d="M32.1872 47.0713C26.1162 47.0713 21.1719 52.0156 21.1719 58.0866C21.1719 64.1576 26.1162 69.1019 32.1872 69.1019C38.2582 69.1019 43.2025 64.1576 43.2025 58.0866C43.2025 52.0156 38.2582 47.0713 32.1872 47.0713ZM32.8131 62.0922V63.5943H31.1858V62.1548C30.4348 62.0922 29.6837 61.8419 29.183 61.4664L28.9953 61.3412L29.5585 59.7139L29.9341 59.9643C30.4348 60.2772 31.1232 60.5276 31.7491 60.5276C32.5002 60.5276 33.0635 60.1521 33.0635 59.5262C33.0635 59.1507 32.8757 58.7125 31.6866 58.2118C30.4348 57.7111 29.1831 57.0227 29.1831 55.458C29.1831 54.2062 29.9968 53.2675 31.311 52.8919V51.4524H32.9383V52.8293C33.5642 52.8919 34.0649 53.0797 34.5656 53.33L34.8159 53.5178L34.1901 55.1451L33.8145 54.9573C33.5642 54.8321 33.0635 54.5192 32.2498 54.5192C31.4362 54.5192 31.1233 54.9573 31.1233 55.3328C31.1233 55.771 31.311 56.0213 32.6253 56.5846C33.7519 57.0227 35.0037 57.7737 35.0037 59.4636C35.0037 60.7153 34.1274 61.7793 32.8131 62.0922Z" fill="#001035"/>
<path d="M62.5105 21H36.7684C35.7525 21 34.9297 21.8228 34.9297 22.8387V37.5485C34.9297 38.5644 35.7525 39.3872 36.7684 39.3872H62.5105C63.5264 39.3872 64.3492 38.5644 64.3492 37.5485V22.8387C64.3492 21.8228 63.5264 21 62.5105 21ZM40.4459 34.7904H38.6071V32.9517H40.4459V34.7904ZM44.1233 34.7904H42.2846V32.9517H44.1233V34.7904ZM45.0427 29.2743C45.0427 29.7818 44.6309 30.1936 44.1233 30.1936H40.4459C39.9383 30.1936 39.5265 29.7818 39.5265 29.2743V27.4355C39.5265 26.9279 39.9383 26.5162 40.4459 26.5162H44.1233C44.6309 26.5162 45.0427 26.928 45.0427 27.4355V29.2743ZM47.8007 34.7904H45.962V32.9517H47.8007V34.7904ZM52.3975 34.7904H50.5588V32.9517H52.3975V34.7904ZM56.075 34.7904H54.2363V32.9517H56.075V34.7904ZM59.7524 34.7904H57.9137V32.9517H59.7524V34.7904Z" fill="#001035"/>
<path d="M77.2259 46.7422H58.8387C57.8228 46.7422 57 47.565 57 48.5809V76.1617C57 77.1777 57.8228 78.0005 58.8387 78.0005H77.2259C78.2418 78.0005 79.0647 77.1777 79.0647 76.1617V48.5809C79.0647 47.565 78.2418 46.7422 77.2259 46.7422ZM76.3066 73.4037H59.7581V51.339H76.3066V73.4037Z" fill="#001035"/>
<path d="M68.0215 55.9355C64.4672 55.9355 61.5859 58.8168 61.5859 62.3711C61.5859 65.9253 64.4672 68.8066 68.0215 68.8066C71.5757 68.8066 74.457 65.9253 74.457 62.3711C74.457 58.8168 71.5757 55.9355 68.0215 55.9355ZM67.1021 65.5097L64.6133 63.0209L65.9133 61.7209L67.1021 62.9097L70.1295 59.8824L71.4294 61.1823L67.1021 65.5097Z" fill="#001035"/>
<path d="M28.1788 44.3532L26.3906 43.9238C26.5276 43.3502 26.6904 42.7691 26.8723 42.1973L28.6247 42.7555C28.4555 43.2858 28.3056 43.8227 28.1788 44.3532ZM29.1891 41.2008L27.4846 40.5093C27.7072 39.9613 27.9554 39.4116 28.2228 38.8738L29.8694 39.6911C29.6231 40.1876 29.3941 40.6959 29.1891 41.2008ZM30.6637 38.2358L29.0834 37.2971C29.3877 36.7832 29.7158 36.2766 30.0589 35.7884L31.564 36.8456C31.2485 37.2951 30.946 37.7623 30.6638 38.2358L30.6637 38.2358ZM32.5641 35.5255L31.1418 34.3598C31.5151 33.9038 31.915 33.4516 32.3304 33.0156L33.6608 34.2834C33.2776 34.6871 32.9089 35.1045 32.5641 35.5255Z" fill="#E83643"/>
<path d="M49.6355 73.403C49.4571 73.403 49.2779 73.4011 49.1003 73.3975L49.138 71.5587C49.7826 71.5725 50.4344 71.5587 51.0742 71.5183L51.1911 73.3534C50.6762 73.3856 50.1576 73.403 49.6355 73.403ZM47.0097 73.2615C46.312 73.1853 45.6142 73.0776 44.9375 72.9416L45.2987 71.1387C45.9229 71.2638 46.5655 71.363 47.2091 71.4329L47.0097 73.2615ZM53.2751 73.1282L52.9966 71.3105C53.6329 71.213 54.2719 71.0862 54.8924 70.9336L55.331 72.7199C54.657 72.8863 53.9646 73.0234 53.2751 73.1282Z" fill="#E83643"/>
<path d="M71.0999 44.3778C70.9748 43.8528 70.8287 43.3251 70.6659 42.8129L72.4182 42.2567C72.5939 42.8129 72.7519 43.3839 72.8881 43.9529L71.0999 44.3778ZM70.1162 41.2841C69.9159 40.7849 69.6933 40.2856 69.4553 39.8003L71.1055 38.9903C71.3639 39.517 71.6047 40.0577 71.8216 40.5982L70.1162 41.2841ZM68.6876 38.3688C68.4183 37.9091 68.1248 37.4475 67.8161 36.9989L69.3294 35.9554C69.664 36.4417 69.9821 36.9411 70.2744 37.4402L68.6876 38.3688ZM66.845 35.6952C66.5048 35.2723 66.1509 34.8631 65.7812 34.4659L67.1281 33.2129C67.5254 33.6404 67.9123 34.0882 68.2783 34.5423L66.845 35.6952Z" fill="#E83643"/>
</svg>
