<svg width="482" height="145" viewBox="0 0 482 145" fill="none" xmlns="http://www.w3.org/2000/svg">
<path d="M240.926 5.11425C217.885 5.11425 199.141 23.8592 199.141 46.8998C199.141 69.9405 217.885 88.6867 240.926 88.6867C263.966 88.6867 282.711 69.9405 282.711 46.8998C282.711 23.8592 263.966 5.11425 240.926 5.11425ZM240.926 93.7709C215.081 93.7709 194.055 72.7456 194.055 46.8998C194.055 21.0554 215.081 0.0288086 240.926 0.0288086C266.77 0.0288086 287.797 21.0554 287.797 46.8998C287.797 72.7456 266.77 93.7709 240.926 93.7709Z" fill="white"/>
<path d="M256.947 36.3195C256.947 36.3195 256.516 36.2613 251.797 36.6478V38.589C251.797 38.589 254.677 44.4572 254.677 48.614C254.677 52.7721 255.018 64.5629 255.018 64.5629C255.018 64.5629 254.963 65.7092 255.247 66.6212C255.43 67.2042 256.238 68.2577 256.599 68.9374C256.747 69.217 257.147 69.217 257.294 68.9374C257.655 68.2577 258.464 67.2042 258.647 66.6212C258.931 65.7092 258.875 64.5629 258.875 64.5629C258.875 64.5629 259.216 52.7721 259.216 48.614C259.216 44.4572 262.096 38.589 262.096 38.589V36.6478C257.378 36.2613 256.947 36.3195 256.947 36.3195Z" fill="white"/>
<path d="M247.891 31.8165H229.91L229.474 40.2351C230.179 40.0284 231.019 39.8831 231.994 39.7999C232.968 39.7167 233.849 39.6744 234.638 39.6744C236.794 39.6744 238.797 39.9861 240.643 40.6082C242.488 41.2303 244.096 42.1327 245.465 43.3154C246.834 44.4968 247.901 45.9496 248.669 47.67C249.437 49.3928 249.82 52.4738 249.82 54.7138C249.82 57.1618 249.395 59.3493 248.544 61.2776C247.693 63.2072 246.543 64.836 245.091 66.1628C243.639 67.4908 241.938 68.5071 239.989 69.2117C238.039 69.9164 235.965 70.2696 233.768 70.2696C230.075 70.2696 226.964 69.4076 224.434 67.6872C221.904 65.9656 220.333 62.7855 219.172 59.7986L225.679 58.4117C226.301 60.1538 227.337 61.2776 228.79 62.3362C230.242 63.3935 231.963 63.9228 233.954 63.9228C235.074 63.9228 236.131 63.7365 237.127 63.3634C238.122 62.989 238.993 62.4514 239.74 61.7455C240.487 61.0408 241.354 60.1576 241.789 59.1004C242.224 58.0431 242.443 56.8514 242.443 55.5234C242.443 53.8223 242.152 51.3096 241.571 50.1909C240.989 49.0709 239.959 48.1679 239.025 47.4837C238.092 46.7989 237.043 46.3228 235.882 46.0533C234.721 45.7839 233.539 45.6482 232.336 45.6482C231.506 45.6482 230.625 45.7109 229.692 45.8351C228.759 45.9592 227.846 46.1365 226.954 46.3637C226.061 46.5922 225.191 46.8514 224.341 47.1413C223.49 47.4325 222.733 47.7429 222.07 48.0751L222.816 25.0972H247.856L247.891 31.8165Z" fill="white"/>
<path d="M261.045 29.1094C261.045 31.3718 259.211 33.206 256.948 33.206C254.686 33.206 252.852 31.3718 252.852 29.1094C252.852 26.8469 254.686 25.0127 256.948 25.0127C259.211 25.0127 261.045 26.8469 261.045 29.1094Z" fill="white"/>
<path d="M0 110.246H19.5168V115.647H5.49504V124.174H16.4378V129.48H5.49504V143.88H0V110.246Z" fill="white"/>
<path d="M35.25 110.247H40.745V143.881H35.25V110.247Z" fill="white"/>
<path d="M55.4766 110.247H61.5406L71.0618 131.753L80.6311 110.247H86.6478L71.0618 144.259L55.4766 110.247Z" fill="white"/>
<path d="M101.375 110.246H121.319V115.647H106.87V124.174H118.477V129.48H106.87V138.48H121.319V143.88H101.375V110.246Z" fill="white"/>
<path d="M156.672 110.247H162.168V143.881H156.672V110.247Z" fill="white"/>
<path d="M190.921 124.79C194.711 124.79 196.558 122.942 196.558 120.099C196.558 117.21 194.711 115.315 190.921 115.315H186.041V124.79H190.921ZM189.216 129.575H186.041V143.881H180.547V110.247H191.442C197.696 110.247 202.148 114.274 202.148 119.911C202.148 124.27 199.495 127.727 195.232 129.054L205.938 143.881H199.353L189.216 129.575Z" fill="white"/>
<path d="M245.646 127.064C245.646 120.337 240.672 115.079 234.04 115.079C227.408 115.079 222.433 120.337 222.433 127.064C222.433 133.79 227.408 139.049 234.04 139.049C240.672 139.049 245.646 133.79 245.646 127.064ZM216.844 127.064C216.844 117.352 224.517 109.868 234.04 109.868C243.609 109.868 251.236 117.352 251.236 127.064C251.236 136.775 243.609 144.26 234.04 144.26C224.517 144.26 216.844 136.775 216.844 127.064Z" fill="white"/>
<path d="M273.167 122.421V143.881H267.672V109.868L290.647 131.706V110.246H296.143V144.26L273.167 122.421Z" fill="white"/>
<path d="M331.203 127.064C331.203 117.352 338.878 109.868 348.399 109.868C353.184 109.868 357.59 111.525 360.669 114.746L357.115 118.632C355.032 116.405 351.715 115.079 348.399 115.079C341.767 115.079 336.792 120.337 336.792 127.064C336.792 133.79 341.767 139.049 348.399 139.049C350.862 139.049 353.373 138.433 355.268 137.249V129.48H346.031L348.447 124.174H360.763V139.948C357.636 142.648 353.136 144.26 348.399 144.26C338.878 144.26 331.203 136.775 331.203 127.064Z" fill="white"/>
<path d="M405.475 127.064C405.475 120.337 400.5 115.079 393.868 115.079C387.236 115.079 382.262 120.337 382.262 127.064C382.262 133.79 387.236 139.049 393.868 139.049C400.5 139.049 405.475 133.79 405.475 127.064ZM376.672 127.064C376.672 117.352 384.347 109.868 393.868 109.868C403.437 109.868 411.065 117.352 411.065 127.064C411.065 136.775 403.437 144.26 393.868 144.26C384.347 144.26 376.672 136.775 376.672 127.064Z" fill="white"/>
<path d="M427.516 110.246H433.011V138.433H447.175V143.88H427.516V110.246Z" fill="white"/>
<path d="M462.328 110.246H481.845V115.647H467.823V124.174H478.766V129.48H467.823V143.88H462.328V110.246Z" fill="white"/>
<path d="M0.0078125 110.246H19.5246V115.647H5.50285V124.174H16.4456V129.48H5.50285V143.88H0.0078125V110.246Z" fill="white"/>
<path d="M35.2578 110.247H40.7529V143.881H35.2578V110.247Z" fill="white"/>
<path d="M55.4844 110.247H61.5484L71.0696 131.753L80.6389 110.247H86.6556L71.0696 144.259L55.4844 110.247Z" fill="white"/>
<path d="M101.383 110.246H121.326V115.647H106.878V124.174H118.485V129.48H106.878V138.48H121.326V143.88H101.383V110.246Z" fill="white"/>
<path d="M156.68 110.247H162.175V143.881H156.68V110.247Z" fill="white"/>
<path d="M190.929 124.79C194.719 124.79 196.566 122.942 196.566 120.099C196.566 117.21 194.719 115.315 190.929 115.315H186.049V124.79H190.929ZM189.223 129.575H186.049V143.881H180.555V110.247H191.45C197.703 110.247 202.156 114.274 202.156 119.911C202.156 124.27 199.503 127.727 195.239 129.054L205.945 143.881H199.361L189.223 129.575Z" fill="white"/>
<path d="M245.654 127.064C245.654 120.337 240.68 115.079 234.048 115.079C227.415 115.079 222.441 120.337 222.441 127.064C222.441 133.79 227.415 139.049 234.048 139.049C240.68 139.049 245.654 133.79 245.654 127.064ZM216.852 127.064C216.852 117.352 224.525 109.868 234.048 109.868C243.617 109.868 251.244 117.352 251.244 127.064C251.244 136.775 243.617 144.26 234.048 144.26C224.525 144.26 216.852 136.775 216.852 127.064Z" fill="white"/>
<path d="M273.167 122.421V143.881H267.672V109.868L290.647 131.706V110.246H296.143V144.26L273.167 122.421Z" fill="white"/>
<path d="M331.203 127.064C331.203 117.352 338.878 109.868 348.399 109.868C353.184 109.868 357.59 111.525 360.669 114.746L357.115 118.632C355.032 116.405 351.715 115.079 348.399 115.079C341.767 115.079 336.792 120.337 336.792 127.064C336.792 133.79 341.767 139.049 348.399 139.049C350.862 139.049 353.373 138.433 355.268 137.249V129.48H346.031L348.447 124.174H360.763V139.948C357.636 142.648 353.136 144.26 348.399 144.26C338.878 144.26 331.203 136.775 331.203 127.064Z" fill="white"/>
<path d="M405.483 127.064C405.483 120.337 400.508 115.079 393.876 115.079C387.244 115.079 382.269 120.337 382.269 127.064C382.269 133.79 387.244 139.049 393.876 139.049C400.508 139.049 405.483 133.79 405.483 127.064ZM376.68 127.064C376.68 117.352 384.355 109.868 393.876 109.868C403.445 109.868 411.073 117.352 411.073 127.064C411.073 136.775 403.445 144.26 393.876 144.26C384.355 144.26 376.68 136.775 376.68 127.064Z" fill="white"/>
<path d="M427.523 110.246H433.018V138.433H447.182V143.88H427.523V110.246Z" fill="white"/>
<path d="M462.328 110.246H481.845V115.647H467.823V124.174H478.766V129.48H467.823V143.88H462.328V110.246Z" fill="white"/>
<path d="M0.0078125 110.246H19.5246V115.647H5.50285V124.174H16.4456V129.48H5.50285V143.88H0.0078125V110.246Z" fill="white"/>
<path d="M35.2578 110.247H40.7529V143.881H35.2578V110.247Z" fill="white"/>
<path d="M55.4844 110.247H61.5484L71.0696 131.753L80.6389 110.247H86.6556L71.0696 144.259L55.4844 110.247Z" fill="white"/>
<path d="M101.383 110.246H121.326V115.647H106.878V124.174H118.485V129.48H106.878V138.48H121.326V143.88H101.383V110.246Z" fill="white"/>
<path d="M156.68 110.247H162.175V143.881H156.68V110.247Z" fill="white"/>
<path d="M190.929 124.79C194.719 124.79 196.566 122.942 196.566 120.099C196.566 117.21 194.719 115.315 190.929 115.315H186.049V124.79H190.929ZM189.223 129.575H186.049V143.881H180.555V110.247H191.45C197.703 110.247 202.156 114.274 202.156 119.911C202.156 124.27 199.503 127.727 195.239 129.054L205.945 143.881H199.361L189.223 129.575Z" fill="white"/>
<path d="M245.654 127.064C245.654 120.337 240.68 115.079 234.048 115.079C227.415 115.079 222.441 120.337 222.441 127.064C222.441 133.79 227.415 139.049 234.048 139.049C240.68 139.049 245.654 133.79 245.654 127.064ZM216.852 127.064C216.852 117.352 224.525 109.868 234.048 109.868C243.617 109.868 251.244 117.352 251.244 127.064C251.244 136.775 243.617 144.26 234.048 144.26C224.525 144.26 216.852 136.775 216.852 127.064Z" fill="white"/>
<path d="M273.167 122.421V143.881H267.672V109.868L290.647 131.706V110.246H296.143V144.26L273.167 122.421Z" fill="white"/>
<path d="M331.203 127.064C331.203 117.352 338.878 109.868 348.399 109.868C353.184 109.868 357.59 111.525 360.669 114.746L357.115 118.632C355.032 116.405 351.715 115.079 348.399 115.079C341.767 115.079 336.792 120.337 336.792 127.064C336.792 133.79 341.767 139.049 348.399 139.049C350.862 139.049 353.373 138.433 355.268 137.249V129.48H346.031L348.447 124.174H360.763V139.948C357.636 142.648 353.136 144.26 348.399 144.26C338.878 144.26 331.203 136.775 331.203 127.064Z" fill="white"/>
<path d="M405.483 127.064C405.483 120.337 400.508 115.079 393.876 115.079C387.244 115.079 382.269 120.337 382.269 127.064C382.269 133.79 387.244 139.049 393.876 139.049C400.508 139.049 405.483 133.79 405.483 127.064ZM376.68 127.064C376.68 117.352 384.355 109.868 393.876 109.868C403.445 109.868 411.073 117.352 411.073 127.064C411.073 136.775 403.445 144.26 393.876 144.26C384.355 144.26 376.68 136.775 376.68 127.064Z" fill="white"/>
<path d="M427.523 110.246H433.018V138.433H447.182V143.88H427.523V110.246Z" fill="white"/>
<path d="M462.328 110.246H481.845V115.647H467.823V124.174H478.766V129.48H467.823V143.88H462.328V110.246Z" fill="white"/>
</svg>
