<svg width="60" height="60" viewBox="0 0 60 60" fill="none" xmlns="http://www.w3.org/2000/svg">
<path d="M7.03497 22.6223C6.95251 22.1669 6.87007 21.7115 6.80352 21.2497C6.71249 20.6133 6.6449 19.9791 6.58924 19.3458C4.35955 19.0405 2.27568 17.6113 0.447824 15.1566C0.151928 16.513 0.00188571 17.8973 0 19.2858C0.00355746 20.2459 0.0774265 21.2045 0.220773 22.1539C2.48207 22.4323 4.75676 22.5886 7.03504 22.6223L7.03497 22.6223Z" fill="#A1C8FF"/>
<path d="M0.679688 24.3666C1.23003 26.3971 2.11588 28.3215 3.3005 30.0602C4.09191 29.0392 5.14914 28.2555 6.35616 27.7951C6.95128 27.5779 7.55963 27.399 8.17758 27.2594C7.91935 26.4462 7.68267 25.6179 7.47799 24.7715C5.20646 24.7541 2.93718 24.6189 0.679795 24.3666L0.679688 24.3666Z" fill="#A1C8FF"/>
<path d="M26.7891 38.5715C26.7891 38.8557 26.9019 39.1282 27.103 39.3291C27.3038 39.5302 27.5763 39.6429 27.8605 39.6429H40.7176C41.0018 39.6429 41.2743 39.5302 41.4752 39.3291C41.6763 39.1282 41.7891 38.8557 41.7891 38.5715V32.1429H26.7891L26.7891 38.5715ZM30.0033 34.2858H38.5747C38.9575 34.2858 39.3111 34.49 39.5026 34.8215C39.6941 35.153 39.6941 35.5614 39.5026 35.8929C39.3111 36.2244 38.9575 36.4286 38.5747 36.4286H30.0033C29.6206 36.4286 29.2669 36.2244 29.0755 35.8929C28.884 35.5615 28.884 35.153 29.0755 34.8215C29.267 34.49 29.6206 34.2858 30.0033 34.2858Z" fill="#A1C8FF"/>
<path d="M20.5492 12.1651C20.3638 12.3568 20.1956 12.5305 20.0424 12.6826C19.7982 12.9258 19.541 13.1981 19.2656 13.4883C17.1849 15.6847 14.111 18.9194 8.76562 19.3683C8.8171 19.8933 8.85247 20.4171 8.92738 20.9455C9.00879 21.5091 9.10316 22.0669 9.2103 22.6189C20.5192 22.4132 31.0813 19.2567 37.8345 14.0572C36.8625 10.6326 34.962 7.54345 32.3435 5.1322C27.7843 6.21241 23.6671 8.66748 20.5492 12.165L20.5492 12.1651Z" fill="#A1C8FF"/>
<path d="M43.9319 48.2144C43.9319 48.8062 43.4523 49.2858 42.8605 49.2858C42.2687 49.2858 41.7891 48.8062 41.7891 48.2144C41.7891 47.6226 42.2687 47.1429 42.8605 47.1429C43.4523 47.1429 43.9319 47.6226 43.9319 48.2144Z" fill="#A1C8FF"/>
<path d="M27.8538 41.7858C27.0013 41.7858 26.1837 41.4472 25.581 40.8444C24.9781 40.2417 24.6395 39.4241 24.6395 38.5715V32.143H16.6488C15.8517 32.1461 15.0787 32.4173 14.4539 32.9124C13.8292 33.4078 13.3891 34.0986 13.2041 34.8741L8.71921 52.9512C8.23183 54.8318 8.7485 56.8309 10.0859 58.2401C11.4233 59.6493 13.3927 60.2697 15.2962 59.8813C17.1998 59.493 18.7689 58.1507 19.4473 56.3304L20.6108 53.4375H20.611C20.8441 52.8522 21.3439 52.414 21.9545 52.259C22.581 52.1008 23.2456 52.2495 23.7449 52.6597C24.4208 53.1925 25.2677 53.4607 26.1272 53.4149C26.9866 53.3689 27.7999 53.0117 28.4153 52.4101C29.0223 51.7902 29.8513 51.437 30.7188 51.4286H37.802C38.6734 51.437 39.5055 51.793 40.1132 52.4176C40.7345 53.0209 41.5554 53.3758 42.4205 53.4154C43.2858 53.4547 44.1354 53.176 44.8092 52.6319C45.1779 52.3322 45.6381 52.1677 46.1131 52.1659C46.2827 52.1654 46.4515 52.1868 46.6156 52.2291C47.2231 52.3856 47.7188 52.8238 47.9486 53.4076L49.1144 56.309H49.1142C49.5137 57.3819 50.2288 58.3088 51.165 58.9675C52.1012 59.6263 53.2151 59.9862 54.36 60C54.9077 59.9996 55.4522 59.9178 55.9757 59.7568C57.3654 59.3251 58.5384 58.3797 59.2551 57.113C59.9718 55.8463 60.1783 54.3541 59.8329 52.9403L55.3659 34.875C55.1784 34.1005 54.7375 33.4112 54.1133 32.9161C53.4888 32.421 52.7171 32.1489 51.9202 32.1428H43.9252V38.5714C43.9252 39.4239 43.5866 40.2415 42.9837 40.8442C42.3811 41.4471 41.5634 41.7857 40.7109 41.7857L27.8538 41.7858ZM20.3538 40.7144H19.2824V41.7858C19.2824 42.1686 19.0782 42.5222 18.7467 42.7137C18.4152 42.9052 18.0068 42.9052 17.6753 42.7137C17.3438 42.5222 17.1395 42.1685 17.1395 41.7858V40.7144H16.0681C15.6854 40.7144 15.3317 40.5102 15.1403 40.1787C14.9488 39.8472 14.9488 39.4388 15.1403 39.1073C15.3317 38.7758 15.6854 38.5715 16.0681 38.5715H17.1395V37.5001C17.1395 37.1174 17.3438 36.7637 17.6753 36.5723C18.0067 36.3808 18.4152 36.3808 18.7467 36.5723C19.0782 36.7637 19.2824 37.1174 19.2824 37.5001V38.5715H20.3538C20.7366 38.5715 21.0902 38.7758 21.2817 39.1073C21.4732 39.4387 21.4732 39.8472 21.2817 40.1787C21.0902 40.5102 20.7365 40.7144 20.3538 40.7144ZM25.711 51.4287C24.8584 51.4287 24.0408 51.0901 23.4381 50.4872C22.8352 49.8845 22.4967 49.0669 22.4967 48.2144C22.4967 47.3618 22.8353 46.5442 23.4381 45.9416C24.0408 45.3387 24.8584 45.0001 25.711 45.0001C26.5635 45.0001 27.3811 45.3387 27.9838 45.9416C28.5867 46.5442 28.9252 47.3618 28.9252 48.2144C28.9252 49.0669 28.5866 49.8845 27.9838 50.4872C27.3811 51.0901 26.5635 51.4287 25.711 51.4287ZM35.3538 49.2858H33.2109C32.8282 49.2858 32.4745 49.0816 32.2831 48.7501C32.0916 48.4186 32.0916 48.0102 32.2831 47.6787C32.4746 47.3472 32.8282 47.143 33.2109 47.143H35.3538C35.7365 47.143 36.0902 47.3472 36.2816 47.6787C36.4731 48.0101 36.4731 48.4186 36.2816 48.7501C36.0902 49.0816 35.7365 49.2858 35.3538 49.2858ZM50.8895 45.0001H49.818C49.4353 45.0001 49.0816 44.7959 48.8902 44.4644C48.6987 44.1329 48.6987 43.7245 48.8902 43.393C49.0817 43.0615 49.4353 42.8572 49.818 42.8572H50.8895C51.2722 42.8572 51.6259 43.0615 51.8173 43.393C52.0088 43.7244 52.0088 44.1329 51.8173 44.4644C51.6258 44.7959 51.2722 45.0001 50.8895 45.0001ZM53.568 39.643C53.9508 39.643 54.3044 39.8472 54.4959 40.1787C54.6874 40.5102 54.6874 40.9186 54.4959 41.2501C54.3044 41.5816 53.9507 41.7858 53.568 41.7858H52.4966C52.1139 41.7858 51.7602 41.5816 51.5687 41.2501C51.3773 40.9186 51.3773 40.5102 51.5687 40.1787C51.7602 39.8472 52.1139 39.643 52.4966 39.643H53.568ZM49.818 36.4287H50.8895C51.2722 36.4287 51.6259 36.6329 51.8173 36.9644C52.0088 37.2959 52.0088 37.7043 51.8173 38.0358C51.6258 38.3673 51.2722 38.5715 50.8895 38.5715H49.818C49.4353 38.5715 49.0816 38.3673 48.8902 38.0358C48.6987 37.7044 48.6987 37.2959 48.8902 36.9644C49.0817 36.6329 49.4353 36.4287 49.818 36.4287ZM47.1395 39.643H48.2109C48.5936 39.643 48.9473 39.8472 49.1388 40.1787C49.3302 40.5102 49.3302 40.9186 49.1388 41.2501C48.9473 41.5816 48.5936 41.7858 48.2109 41.7858H47.1395C46.7567 41.7858 46.4031 41.5816 46.2116 41.2501C46.0201 40.9186 46.0201 40.5102 46.2116 40.1787C46.4031 39.8472 46.7568 39.643 47.1395 39.643ZM46.068 48.2144C46.068 49.0669 45.7295 49.8845 45.1266 50.4872C44.5239 51.0901 43.7063 51.4287 42.8538 51.4287C42.0012 51.4287 41.1836 51.0901 40.581 50.4872C39.9781 49.8845 39.6395 49.0669 39.6395 48.2144C39.6395 47.3618 39.9781 46.5442 40.581 45.9416C41.1836 45.3387 42.0012 45.0001 42.8538 45.0001C43.7063 45.0001 44.5239 45.3387 45.1266 45.9416C45.7295 46.5442 46.068 47.3618 46.068 48.2144Z" fill="#A1C8FF"/>
<path d="M6.45523 17.1601C6.2491 12.254 7.17657 7.36623 9.16583 2.87695C5.51736 5.10729 2.72174 8.49658 1.22656 12.5026C2.4181 14.4795 4.1912 16.6341 6.45523 17.1602V17.1601Z" fill="#A1C8FF"/>
<path d="M8.61597 17.2287C13.1352 16.8301 15.757 14.0722 17.7081 12.0141C17.9973 11.7088 18.2685 11.4237 18.5244 11.1676C18.6701 11.022 18.8297 10.8558 19.0066 10.6738L19.0068 10.6735C22.0538 7.30734 25.9469 4.81874 30.2814 3.46607C27.7202 1.67122 24.7582 0.531165 21.6543 0.14588C18.5504 -0.239582 15.3998 0.141695 12.4775 1.25582C9.64218 6.08228 8.2985 11.6401 8.61596 17.2286L8.61597 17.2287Z" fill="#A1C8FF"/>
<path d="M10.3345 26.9551C13.5333 26.8884 16.6907 27.6878 19.4727 29.2684C19.824 29.4408 20.153 29.6025 20.4606 29.745C20.588 29.7986 20.7552 29.8779 20.9342 29.9593L21.0135 29.9968H35.2849V29.997C37.4321 26.8382 38.577 23.1056 38.5698 19.286C38.5625 18.3102 38.4809 17.3362 38.3256 16.3728C31.2971 21.4085 20.8325 24.476 9.6875 24.7535C9.87918 25.5002 10.0966 26.235 10.3345 26.9551Z" fill="#A1C8FF"/>
<path d="M7.10156 29.8051C6.09624 30.208 5.24349 30.9174 4.66406 31.8323C6.317 33.7621 8.33262 35.349 10.5965 36.5026L11.1323 34.3598C11.1549 34.2677 11.1944 34.184 11.2212 34.094V34.0942C10.3218 32.562 9.54774 30.9596 8.90676 29.3027C8.29342 29.4247 7.68989 29.5926 7.10146 29.8052L7.10156 29.8051Z" fill="#A1C8FF"/>
<path d="M16.0153 30.0547C14.4569 29.4085 12.7887 29.0685 11.1016 29.053C11.4956 30.0204 11.9384 30.9673 12.4281 31.8902C13.3577 30.8583 14.6346 30.2048 16.0153 30.0547Z" fill="#A1C8FF"/>
<path d="M26.7835 48.2144C26.7835 48.8062 26.3038 49.2858 25.7121 49.2858C25.1203 49.2858 24.6406 48.8062 24.6406 48.2144C24.6406 47.6226 25.1203 47.1429 25.7121 47.1429C26.3038 47.1429 26.7835 47.6226 26.7835 48.2144Z" fill="#A1C8FF"/>
</svg>
