<svg width="250" height="30" viewBox="0 0 250 30" fill="none" xmlns="http://www.w3.org/2000/svg">
<path fill-rule="evenodd" clip-rule="evenodd" d="M32.3351 23.7581H8.12597C7.448 23.7581 6.87362 23.5228 6.40281 23.0519C5.932 22.5624 5.69659 21.9879 5.69659 21.3287V7.59997C5.69659 6.94084 5.932 6.37587 6.40281 5.90505C6.87362 5.41542 7.448 5.17059 8.12597 5.17059H40.1599C40.2352 5.17059 40.2917 5.15176 40.3294 5.11409C40.3859 5.0576 40.4142 5.0011 40.4142 4.9446V0.594325C40.4142 0.518996 40.3859 0.462499 40.3294 0.424834C40.2917 0.368336 40.2352 0.340088 40.1599 0.340088H8.12597C5.88492 0.340088 3.97343 1.13105 2.39151 2.71296C0.828419 4.27606 0.046875 6.17813 0.046875 8.41918V20.5095C0.046875 22.7506 0.828419 24.6621 2.39151 26.244C3.97343 27.8071 5.88492 28.5886 8.12597 28.5886H33.126C35.141 28.5886 36.8549 27.8824 38.2673 26.47C39.6985 25.0388 40.4142 23.3251 40.4142 21.3287V14.7186C40.4142 14.6433 40.3859 14.5868 40.3294 14.5491C40.2917 14.4926 40.2352 14.4643 40.1599 14.4643H34.9904C34.9339 14.4643 34.8775 14.4926 34.821 14.5491C34.7832 14.5868 34.7645 14.6433 34.7645 14.7186V21.3287C34.7645 21.9879 34.5195 22.5624 34.03 23.0519C33.5591 23.5228 32.9941 23.7581 32.3351 23.7581ZM54.5654 7.59997V12.035H84.9892C85.0645 12.035 85.121 12.0632 85.1587 12.1197C85.2152 12.1574 85.2434 12.2139 85.2434 12.2892V16.6395C85.2434 16.7149 85.2152 16.7807 85.1587 16.8372C85.121 16.8749 85.0645 16.8937 84.9892 16.8937H54.5654V21.3287C54.5654 21.9879 54.8008 22.5624 55.2717 23.0519C55.7424 23.5228 56.3169 23.7581 56.9948 23.7581H89.0287C89.104 23.7581 89.1605 23.7864 89.1982 23.8429C89.2547 23.8806 89.283 23.9276 89.283 23.9841V28.3344C89.283 28.4098 89.2547 28.4756 89.1982 28.5321C89.1605 28.5698 89.104 28.5886 89.0287 28.5886H56.9948C54.7537 28.5886 52.8423 27.8071 51.2604 26.244C49.6972 24.6621 48.9156 22.7506 48.9156 20.5095V8.41918C48.9156 6.17813 49.6972 4.27606 51.2604 2.71296C52.8423 1.13105 54.7537 0.340088 56.9948 0.340088H89.0287C89.104 0.340088 89.1605 0.368336 89.1982 0.424834C89.2547 0.462499 89.283 0.518996 89.283 0.594325V4.9446C89.283 5.0011 89.2547 5.0576 89.1982 5.11409C89.1605 5.15176 89.104 5.17059 89.0287 5.17059H56.9948C56.3169 5.17059 55.7424 5.41542 55.2717 5.90505C54.8008 6.37587 54.5654 6.94084 54.5654 7.59997ZM132.534 0.424834C132.496 0.462499 132.478 0.518996 132.478 0.594325V23.7581H128.862C128.033 23.7581 127.355 23.3909 126.828 22.6564L113.692 3.10844C112.449 1.3382 110.745 0.415418 108.579 0.340088H108.523H98.0142C97.9577 0.340088 97.9012 0.368336 97.8447 0.424834C97.8071 0.462499 97.7882 0.518996 97.7882 0.594325V28.3626C97.7882 28.4191 97.8071 28.4756 97.8447 28.5321C97.9012 28.5698 97.9577 28.5886 98.0142 28.5886H103.184C103.259 28.5886 103.316 28.5698 103.353 28.5321C103.41 28.4756 103.438 28.4191 103.438 28.3626V5.19884H107.054C107.864 5.19884 108.542 5.55666 109.088 6.27229L122.223 25.8485C123.466 27.6189 125.171 28.5321 127.336 28.5886H127.393H137.901C137.958 28.5886 138.005 28.5698 138.042 28.5321C138.099 28.4756 138.127 28.4191 138.127 28.3626V0.594325C138.127 0.518996 138.099 0.462499 138.042 0.424834C138.005 0.368336 137.958 0.340088 137.901 0.340088H132.732C132.656 0.340088 132.59 0.368336 132.534 0.424834ZM152.249 0.594325V28.3626C152.249 28.4191 152.221 28.4756 152.165 28.5321C152.128 28.5698 152.072 28.5886 151.995 28.5886H146.826C146.769 28.5886 146.713 28.5698 146.656 28.5321C146.62 28.4756 146.6 28.4191 146.6 28.3626V0.594325C146.6 0.518996 146.62 0.462499 146.656 0.424834C146.713 0.368336 146.769 0.340088 146.826 0.340088H151.995C152.072 0.340088 152.128 0.368336 152.165 0.424834C152.221 0.462499 152.249 0.518996 152.249 0.594325ZM201.091 20.5378V0.594325C201.091 0.518996 201.063 0.462499 201.007 0.424834C200.968 0.368336 200.912 0.340088 200.837 0.340088H195.696C195.62 0.340088 195.555 0.368336 195.498 0.424834C195.46 0.462499 195.442 0.518996 195.442 0.594325V21.3287C195.442 22.0067 195.206 22.5811 194.735 23.0519C194.264 23.5228 193.69 23.7581 193.012 23.7581H168.803C168.144 23.7581 167.569 23.5228 167.08 23.0519C166.608 22.5811 166.374 22.0067 166.374 21.3287V0.594325C166.374 0.518996 166.346 0.462499 166.289 0.424834C166.251 0.368336 166.204 0.340088 166.148 0.340088H160.978C160.902 0.340088 160.837 0.368336 160.781 0.424834C160.742 0.462499 160.724 0.518996 160.724 0.594325V20.5378C160.724 22.7601 161.515 24.6621 163.097 26.244C164.679 27.8071 166.58 28.5886 168.803 28.5886H193.012C195.252 28.5886 197.155 27.8071 198.718 26.244C200.3 24.6621 201.091 22.7601 201.091 20.5378ZM215.245 9.60562V7.59997C215.245 6.922 215.481 6.34762 215.951 5.87681C216.423 5.406 216.988 5.17059 217.646 5.17059H248.098C248.155 5.17059 248.203 5.15176 248.24 5.11409C248.296 5.0576 248.324 5.0011 248.324 4.9446V0.566077C248.324 0.509579 248.296 0.462499 248.24 0.424834C248.203 0.368336 248.155 0.340088 248.098 0.340088H217.646C215.425 0.340088 213.522 1.13105 211.94 2.71296C210.378 4.27606 209.596 6.16871 209.596 8.39093V8.81466C209.596 11.0369 210.378 12.939 211.94 14.5208C213.522 16.084 215.425 16.8655 217.646 16.8655H241.884C242.543 16.8655 243.108 17.1104 243.579 17.5999C244.05 18.0708 244.285 18.6358 244.285 19.2948V21.3287C244.285 21.9879 244.05 22.5529 243.579 23.0237C243.108 23.4946 242.543 23.7299 241.884 23.7299H211.432C211.375 23.7299 211.319 23.7581 211.262 23.8146C211.225 23.8523 211.206 23.9088 211.206 23.9841V28.3344C211.206 28.4098 211.225 28.4756 211.262 28.5321C211.319 28.5698 211.375 28.5886 211.432 28.5886H241.884C244.107 28.5886 245.999 27.7977 247.562 26.2157C249.144 24.6338 249.935 22.7318 249.935 20.5095V20.1141C249.935 17.8731 249.144 15.971 247.562 14.4078C245.999 12.826 244.107 12.035 241.884 12.035H217.646C216.988 12.035 216.423 11.7996 215.951 11.3288C215.481 10.858 215.245 10.2836 215.245 9.60562Z" fill="white"/>
</svg>
