<svg width="65" height="66" viewBox="0 0 65 66" fill="none" xmlns="http://www.w3.org/2000/svg">
<path d="M33 4C17.0968 4 4 17.0968 4 33C4 48.9032 17.0968 62 33 62C48.9032 62 62 48.9032 62 33C62 17.0968 48.9032 4 33 4ZM33 60.129C18.0323 60.129 5.87097 47.9677 5.87097 33C5.87097 18.0323 18.0323 5.87097 33 5.87097C47.9677 5.87097 60.129 18.0323 60.129 33C60.129 47.9677 47.9677 60.129 33 60.129Z" fill="#8E69FF" stroke="#8E69FF"/>
<path d="M45.9197 15.4126L44.61 16.7223C44.2358 16.5352 43.8616 16.3481 43.4874 16.3481C41.9907 16.3481 40.8681 17.4707 40.8681 18.9674C40.8681 19.3416 41.0552 19.7158 41.2423 20.09L38.4358 22.8965H19.5391L32.0745 37.6771V47.219H27.0229V49.09H38.81V47.219H33.9455V37.6771L46.481 22.8965H41.0552L42.552 21.3997C42.9262 21.5868 43.1133 21.5868 43.4874 21.5868C44.9842 21.5868 46.1068 20.4642 46.1068 18.9674C46.1068 18.5932 46.1068 18.4061 45.9197 18.032L47.2294 16.7223L45.9197 15.4126ZM42.3649 24.9545L33.01 35.9932L23.6552 24.9545H36.5649L33.7584 27.761L35.0681 29.0707L39.3713 24.7674L42.3649 24.9545Z" fill="#8E69FF" stroke="#8E69FF"/>
</svg>
