<svg width="60" height="60" viewBox="0 0 60 60" fill="none" xmlns="http://www.w3.org/2000/svg">
<path d="M58.194 12.7788C59.3228 11.4268 59.9998 9.68875 59.9998 7.79113C59.9998 5.89351 59.3228 4.15543 58.194 2.80347C57.1496 4.19854 56.5234 5.91991 56.5234 7.79113C56.5232 9.66235 57.1497 11.3837 58.194 12.7788Z" fill="#DDDF36"/>
<path d="M54.2997 7.79101C54.2997 5.34774 55.1378 3.1033 56.5367 1.31247C55.2989 0.483622 53.812 0 52.2125 0C50.6151 0 49.1282 0.483818 47.8906 1.31066C49.2857 3.10134 50.1276 5.34578 50.1276 7.78921C50.1276 10.2325 49.2857 12.4769 47.8906 14.2678C49.1282 15.091 50.6151 15.5784 52.2125 15.5784C53.8139 15.5784 55.2989 15.091 56.5383 14.2678C55.1414 12.4789 54.2997 10.2344 54.2997 7.79127L54.2997 7.79101Z" fill="#DDDF36"/>
<path d="M46.2313 2.80359C45.1025 4.15555 44.4219 5.89363 44.4219 7.79125C44.4219 9.68887 45.1025 11.427 46.2313 12.7789C47.2757 11.3838 47.9019 9.66247 47.9019 7.79125C47.9021 5.91983 47.2758 4.19866 46.2313 2.80359Z" fill="#DDDF36"/>
<path d="M51.1781 45.2794L45.2812 51.1784C48.8081 54.7053 52.8844 58.7779 52.8844 58.7779C54.514 60.4075 57.154 60.4075 58.7813 58.7779C60.4109 57.1523 60.4109 54.5084 58.7813 52.881C58.7813 52.883 54.6824 48.7859 51.1781 45.2794Z" fill="#DDDF36"/>
<path d="M5.35834 5.35571L5.35451 5.35954C-2.47193 13.186 -1.61905 26.7727 7.25956 35.6453C11.6472 40.035 17.1842 42.4575 22.6185 42.8417C22.6185 42.8417 22.9354 42.8586 23.0516 42.866C25.4685 42.9674 38.9917 44.893 40.8686 46.7754C41.285 47.1936 41.8868 47.7936 42.5805 48.4893L48.4851 42.5847C48.4851 42.5847 47.1914 41.2889 46.7732 40.8708C44.8907 38.994 42.965 25.4706 42.8638 23.0538C42.8582 22.9357 42.8395 22.6225 42.8395 22.6225C42.4552 17.1887 40.0306 11.6496 35.6431 7.26357C26.772 -1.61839 13.1874 -2.47178 5.35888 5.35487L5.35834 5.35571ZM32.7509 10.156C33.6041 11.0093 34.3578 11.9149 35.0328 12.8579L33.1878 14.7029L29.5146 11.0334L31.519 9.02905C31.939 9.38718 32.3515 9.75843 32.7509 10.156L32.7509 10.156ZM34.551 34.547C33.9117 35.1863 33.2141 35.732 32.4846 36.2253L29.5144 33.2533L33.1857 29.5819L36.169 32.5652C35.691 33.2627 35.1659 33.9339 34.5509 34.547H34.551ZM5.41248 24.0279L9.08381 27.6992L7.41885 29.3624C6.37807 27.778 5.58692 26.1036 5.04689 24.3953L5.41248 24.0279ZM10.1582 32.7469C9.7606 32.3493 9.38938 31.935 9.03127 31.5188L10.9681 29.582L14.6377 33.2533L12.8619 35.0291C11.9188 34.3537 11.0114 33.6 10.1582 32.747L10.1582 32.7469ZM18.4049 33.2513L22.0762 29.5817L25.7458 33.2513L22.078 36.9246L18.4049 33.2513ZM16.5224 31.3685L12.849 27.6972L16.5204 24.0277L20.1917 27.699L16.5224 31.3685ZM10.9663 25.8146L7.2968 22.1412L10.9663 18.4717L14.6377 22.1412L10.9663 25.8146ZM25.7457 11.0331L22.0762 14.7026L18.4048 11.0331L22.0782 7.35977L25.7457 11.0331ZM27.632 12.9158L31.2998 16.5892L27.632 20.2569L23.9607 16.5874L27.632 12.9158ZM22.078 25.8126L18.4067 22.1413L22.0762 18.4699L25.7476 22.1413L22.078 25.8126ZM31.3014 27.6989L27.6318 31.3702L23.9605 27.6989L27.63 24.0294L31.3014 27.6989ZM20.1918 16.5873L16.5205 20.2548L12.8489 16.5853L16.5223 12.9158L20.1918 16.5873ZM29.5167 22.1413L33.1844 18.47L36.8578 22.1395L33.1844 25.8128L29.5167 22.1413ZM29.363 7.41659L27.6324 9.15106L23.9611 5.47973L24.396 5.04466C26.106 5.58469 27.7784 6.37582 29.363 7.41659ZM18.8851 4.17088L20.1902 5.47772L16.5227 9.14725L12.7707 5.39713C14.6756 4.58339 16.7494 4.17268 18.8852 4.17088H18.8851ZM8.35879 8.35605C8.97375 7.74109 9.64506 7.21601 10.3426 6.7378L14.6384 11.0354L10.9689 14.7031L6.68259 10.4186C7.17386 9.6911 7.7195 8.99173 8.35884 8.35605H8.35879ZM5.36058 12.8675L9.08069 16.5876L5.41117 20.2571L4.17543 19.0234C4.16233 16.8762 4.55612 14.7857 5.36058 12.8677V12.8675ZM15.197 36.4613L16.5246 35.1337L19.5584 38.1694C18.0753 37.7925 16.6108 37.215 15.197 36.4613ZM24.0341 38.7319L27.6323 35.1337L30.0418 37.5432C28.1667 38.3289 26.1305 38.7263 24.034 38.732L24.0341 38.7319ZM42.8953 42.8984L34.0206 40.8376C34.0206 40.8376 35.9762 39.9995 37.9844 37.9856C39.9925 35.9775 40.8327 34.0236 40.8327 34.0236L42.8953 42.8984ZM37.5084 30.1347L35.0708 27.6971L38.7347 24.0332C38.7293 26.1632 38.3242 28.2334 37.5084 30.1348L37.5084 30.1347ZM38.2136 19.7336L35.071 16.5872L36.4679 15.1939C37.246 16.6641 37.8347 18.1905 38.2136 19.7336V19.7336Z" fill="#DDDF36"/>
</svg>
