<svg width="73" height="60" viewBox="0 0 73 60" fill="none" xmlns="http://www.w3.org/2000/svg">
<path d="M32.1719 12.3194L33.7224 10.7689L35.1971 12.2437L33.6466 13.7942L32.1719 12.3194Z" fill="#DDDF36"/>
<path d="M35.1974 17.236L33.7227 18.7107L32.1719 17.1599L33.6466 15.6852L35.1974 17.236Z" fill="#DDDF36"/>
<path d="M46.0523 16.2154L44.5781 14.7412L46.0535 13.2659L47.5276 14.7401L46.0523 16.2154Z" fill="#DDDF36"/>
<path d="M50.3423 53.468C48.6772 53.0868 47.6669 52.1287 47.1955 51.5656C45.4087 52.0504 43.6729 52.2983 41.9951 52.2983C41.5604 52.2983 41.1305 52.2796 40.7031 52.2467C41.2601 54.9789 42.5114 57.6545 44.8217 60C49.9968 59.8916 54.4359 56.7802 56.4765 52.3366C54.8101 53.1978 53.2529 53.6319 51.8197 53.6319C51.3106 53.6314 50.8191 53.577 50.3424 53.4681L50.3423 53.468Z" fill="#DDDF36"/>
<path d="M36.1443 13.189L37.6948 14.7395L36.1443 16.29L34.5938 14.7395L36.1443 13.189Z" fill="#DDDF36"/>
<path d="M58.0414 33.199C58.0695 33.2271 58.0821 33.2625 58.1043 33.2932L58.6399 32.7576C55.9556 29.7305 54.6124 25.4352 53.9571 22.3225C53.4202 23.8978 52.5915 25.3555 51.4609 26.6183L58.0414 33.199Z" fill="#DDDF36"/>
<path d="M42.0781 12.2439L43.5537 10.7683L45.1045 12.3191L43.6289 13.7947L42.0781 12.2439Z" fill="#DDDF36"/>
<path d="M38.6364 13.7945L37.0859 12.244L38.6359 10.6941L40.1864 12.2446L38.6364 13.7945Z" fill="#DDDF36"/>
<path d="M45.1028 17.1603L43.5523 18.7109L42.0781 17.2367L43.6286 15.6862L45.1028 17.1603Z" fill="#DDDF36"/>
<path d="M38.6364 15.6853L40.187 17.2358L38.6364 18.7863L37.0859 17.2358L38.6364 15.6853Z" fill="#DDDF36"/>
<path d="M41.1364 16.291L39.5859 14.7404L41.1364 13.1899L42.687 14.7404L41.1364 16.291Z" fill="#DDDF36"/>
<path d="M57.5063 44.8453C57.1773 42.7489 56.3562 40.8192 55.1572 39.1742C53.3604 40.4753 47.5281 45.0968 47.9953 49.9332C51.0052 48.9466 54.182 47.2467 57.506 44.8455L57.5063 44.8453Z" fill="#DDDF36"/>
<path d="M1.90866 46.8244C2.43492 47.2933 4.37474 48.8847 7.36881 49.8286L1.84375 40.6495C1.28181 43.7288 1.75708 46.1753 1.9085 46.8241L1.90866 46.8244Z" fill="#DDDF36"/>
<path d="M2.24786 38.9433C2.3514 38.9981 2.44651 39.0705 2.51187 39.1783L9.15848 50.2206C9.16965 50.2392 9.17043 50.2615 9.17992 50.2811C10.0529 50.4443 10.9886 50.5445 11.987 50.5451L3.35494 36.2034C2.87194 37.1326 2.51366 38.0522 2.24758 38.9427L2.24786 38.9433Z" fill="#DDDF36"/>
<path d="M10.3801 29.0481C7.4421 30.8117 5.45847 32.8432 4.12711 34.8909L13.503 50.4685C15.9222 50.236 18.6353 49.4213 21.5749 47.6478C24.4932 45.8861 26.4526 43.8044 27.7653 41.6946L18.5374 26.3639C16.0581 26.5362 13.3025 27.294 10.3805 29.0479L10.3801 29.0481ZM18.3771 33.5325L19.5219 35.4334L20.9334 34.5838C21.2501 34.3932 21.6602 34.4951 21.8511 34.8118C22.0417 35.1285 21.9398 35.5387 21.6231 35.7296L20.2116 36.5792L21.3565 38.48C21.5471 38.7967 21.4451 39.2068 21.1284 39.3977C20.9704 39.4928 20.7878 39.5149 20.6218 39.4737C20.4558 39.4324 20.3052 39.3275 20.2101 39.1695L19.0653 37.2687L16.8954 38.5755L18.0392 40.477C18.2299 40.7936 18.1279 41.2038 17.8112 41.3947C17.6532 41.4898 17.4714 41.5121 17.3051 41.4708C17.1391 41.4295 16.9886 41.3246 16.8935 41.1667L15.7496 39.2652L13.5789 40.5718L14.723 42.4724C14.9136 42.7891 14.8116 43.1993 14.4949 43.3902C14.3369 43.4852 14.1551 43.5075 13.9888 43.4662C13.8228 43.425 13.6723 43.3201 13.5772 43.1621L12.4332 41.2615L11.0211 42.1109C10.8631 42.206 10.6813 42.2283 10.515 42.187C10.349 42.1457 10.1985 42.0409 10.1034 41.8829C9.9128 41.5662 10.0147 41.156 10.3315 40.9651L11.7429 40.1155L10.5979 38.2132C10.4073 37.8965 10.5092 37.4863 10.8259 37.2954C11.1426 37.1048 11.5528 37.2068 11.7437 37.5235L12.8887 39.4259L15.0594 38.1193L13.9146 36.2162C13.7239 35.8995 13.8259 35.4893 14.1426 35.2984C14.4593 35.1078 14.8695 35.2097 15.0604 35.5265L16.2052 37.4296L18.3751 36.1228L17.2302 34.222C17.0396 33.9053 17.1416 33.4951 17.4583 33.3042C17.7756 33.1144 18.1864 33.2164 18.3771 33.5325Z" fill="#DDDF36"/>
<path d="M22.9059 26.6452C22.0259 26.4685 21.0796 26.3553 20.0814 26.3298L28.5207 40.3502C28.9741 39.4383 29.3204 38.5322 29.5781 37.6557C29.5316 37.6131 29.4833 37.5715 29.4484 37.5146L22.9059 26.6452Z" fill="#DDDF36"/>
<path d="M30.0504 29.8788C29.4749 29.4217 27.5714 28.0308 24.7578 27.1289L30.003 35.843C30.5227 32.9335 30.1846 30.6007 30.0504 29.8788L30.0504 29.8788Z" fill="#DDDF36"/>
<path d="M34.7554 50.57C33.3264 49.825 32.2411 48.9679 31.4922 48.2592C31.6775 50.0306 32.2172 51.6982 33.0383 53.1893C33.951 52.5647 34.5113 51.7564 34.7339 50.728C34.7448 50.6764 34.7462 50.6224 34.7554 50.57Z" fill="#DDDF36"/>
<path d="M36.0004 51.1478C35.68 52.4665 34.9238 53.533 33.7422 54.3268C35.8224 57.3365 39.1246 59.4317 42.9263 59.9023C40.892 57.4777 39.7839 54.7935 39.3033 52.082C38.0713 51.8794 36.9754 51.5462 36.0005 51.1478H36.0004Z" fill="#DDDF36"/>
<path d="M47.4503 9.97425L46.0508 11.3738L44.5 9.82297L45.8995 8.42346L47.4503 9.97425Z" fill="#DDDF36"/>
<path d="M34.8069 49.0607C34.5901 46.6032 33.0769 43.9566 32.1608 42.5571C31.7515 43.7245 31.5069 44.9649 31.4453 46.2544C31.8212 46.718 32.9418 47.9651 34.8069 49.0607Z" fill="#DDDF36"/>
<path d="M54.3092 38.1306C51.9033 35.4497 48.4247 33.7512 44.5473 33.7512C44.5334 33.7512 44.5192 33.7532 44.5053 33.7532C43.5878 35.3901 39.5308 43.1648 40.4784 50.8845C42.453 51.0784 44.5259 50.8845 46.6891 50.3155C45.9282 44.6785 52.2364 39.6258 54.3089 38.1308L54.3092 38.1306Z" fill="#DDDF36"/>
<path d="M32.7812 41.0871C33.6266 42.2659 36.2144 46.1878 36.1634 49.7562C37.0288 50.1412 38.0129 50.4656 39.1124 50.6804C38.3841 43.5493 41.5483 36.527 42.9306 33.8622C38.4665 34.413 34.7002 37.2093 32.7815 41.0869L32.7812 41.0871Z" fill="#DDDF36"/>
<path d="M48.6253 51.1291C49.0538 51.5142 49.72 51.9602 50.6681 52.1717C52.499 52.5791 54.6937 51.9672 57.1893 50.3729C57.4969 49.2596 57.6746 48.0927 57.6746 46.8829C57.6746 46.7157 57.656 46.5533 57.6493 46.3875C54.5226 48.5761 51.5102 50.1547 48.625 51.1291L48.6253 51.1291Z" fill="#DDDF36"/>
<path d="M37.1641 22.1526L38.6388 20.6779L40.113 22.152L38.6382 23.6268L37.1641 22.1526Z" fill="#DDDF36"/>
<path d="M50.5095 27.5527C49.269 28.6627 47.8108 29.5053 46.2031 30.055C49.3164 30.7098 53.624 32.053 56.6589 34.7439L57.1958 34.207C57.1652 34.185 57.129 34.1722 57.1017 34.1441L50.5095 27.5527Z" fill="#DDDF36"/>
<path d="M50.0591 26.159C55.1993 21.0182 54.2584 11.7132 47.9613 5.41643C44.519 1.97462 40.0412 0 35.6774 0C32.3626 0 29.3588 1.17882 27.2187 3.31863C24.746 5.79139 23.5916 9.29726 23.9684 13.191C24.3495 17.1335 26.2492 20.9942 29.3165 24.0612C32.7588 27.5036 37.2359 29.479 41.6004 29.479C44.9146 29.479 47.919 28.3003 50.0591 26.159ZM40.9649 26.8988C40.8345 27.0292 40.6634 27.0946 40.4921 27.0946C40.321 27.0946 40.1496 27.0292 40.0192 26.8988L38.6389 25.5184L38.124 26.0333C37.9936 26.1637 37.8226 26.2292 37.6512 26.2292C37.4801 26.2292 37.3088 26.1637 37.1784 26.0333C36.917 25.772 36.917 25.3493 37.1784 25.0877L37.6933 24.5728L36.2188 23.0983L34.8151 24.502C35.0564 24.7648 35.0539 25.1707 34.7998 25.4243C34.6694 25.5547 34.4983 25.6202 34.3269 25.6202C34.1559 25.6202 33.9845 25.5547 33.8541 25.4243L33.8369 25.407C33.7552 25.4405 33.6691 25.4586 33.5822 25.4586C33.4111 25.4586 33.2398 25.3931 33.1094 25.2627C32.9127 25.066 32.8647 24.7773 32.9651 24.5352L31.3783 22.9476L30.616 23.71C30.4856 23.8404 30.3145 23.9058 30.1431 23.9058C29.9721 23.9058 29.8007 23.8404 29.6703 23.71C29.409 23.4486 29.409 23.026 29.6703 22.7643L30.4327 22.002L28.8451 20.4138C28.7629 20.4478 28.6765 20.4654 28.5896 20.4654C28.4185 20.4654 28.2472 20.3999 28.1168 20.2695C27.9195 20.0722 27.8721 19.7833 27.9724 19.5412L27.9552 19.5239C27.6938 19.2625 27.6938 18.839 27.9552 18.5782C28.2093 18.3241 28.6152 18.3213 28.878 18.5629L30.2809 17.1601L28.8058 15.685L28.2909 16.1999C28.1605 16.3303 27.9894 16.3958 27.8181 16.3958C27.647 16.3958 27.4757 16.3303 27.3453 16.1999C27.0839 15.9386 27.0839 15.5159 27.3453 15.2543L27.8602 14.7394L26.4799 13.359C26.2185 13.0977 26.2185 12.675 26.4799 12.4134C26.7412 12.152 27.1639 12.152 27.4255 12.4134L28.8058 13.7937L30.2809 12.3187L28.6512 10.689C28.5347 10.6608 28.4224 10.6135 28.3316 10.5224C28.2408 10.4315 28.1931 10.319 28.165 10.2028L27.0087 9.04651C26.7474 8.78516 26.7474 8.3625 27.0087 8.10085C27.2701 7.83951 27.6927 7.83951 27.9544 8.10085L28.8805 9.02697L30.4313 7.47617L28.4224 5.46732C28.1611 5.20597 28.1611 4.78331 28.4224 4.52167C28.6838 4.26032 29.1064 4.26032 29.3681 4.52167L31.3769 6.53052L32.9269 4.98059L32.0007 4.05448C31.7394 3.79313 31.7394 3.37046 32.0007 3.10882C32.2621 2.84747 32.6848 2.84747 32.9464 3.10882L34.1018 4.26425C34.2183 4.29155 34.3311 4.3392 34.4222 4.43086C34.5131 4.52253 34.5613 4.63481 34.5889 4.75128L36.2177 6.3801L37.6935 4.90506L36.3132 3.52474C36.0518 3.26339 36.0518 2.84073 36.3132 2.57908C36.5745 2.31773 36.9972 2.31773 37.2588 2.57908L38.6392 3.9594L39.1535 3.44451C39.4148 3.18316 39.8375 3.18316 40.0991 3.44451C40.3605 3.70586 40.3605 4.12852 40.0991 4.39016L39.5848 4.90449L41.0606 6.38032L42.4644 4.97661C42.2222 4.71442 42.2242 4.30791 42.4791 4.05328C42.7405 3.79193 43.1631 3.79193 43.4248 4.05328L43.4434 4.07195C43.6856 3.97304 43.9731 4.02179 44.169 4.21767C44.3649 4.41354 44.4136 4.70191 44.3147 4.9432L45.9014 6.5308L46.6632 5.76903C46.9246 5.50768 47.3472 5.50768 47.6089 5.76903C47.8702 6.03038 47.8702 6.45304 47.6089 6.71468L46.8471 7.47645L48.4347 9.06462C48.6768 8.96488 48.9649 9.01307 49.1616 9.20978C49.3583 9.40649 49.4062 9.69459 49.3067 9.93668L49.324 9.95395C49.5854 10.2153 49.5854 10.6388 49.324 10.8996C49.1936 11.03 49.0226 11.0955 48.8512 11.0955C48.6888 11.0955 48.5288 11.032 48.4012 10.9149L46.9984 12.3178L48.4728 13.7923L48.9877 13.2774C49.2491 13.016 49.6718 13.016 49.9334 13.2774C50.1947 13.5387 50.1947 13.9614 49.9334 14.223L49.4185 14.7379L50.7993 16.1182C51.0607 16.3796 51.0607 16.8023 50.7993 17.0639C50.6689 17.1943 50.4978 17.2598 50.3265 17.2598C50.1554 17.2598 49.9841 17.1943 49.8537 17.0639L48.4729 15.6836L46.9978 17.1586L48.628 18.7888C48.7436 18.8169 48.8559 18.8643 48.9462 18.9546C49.0364 19.0448 49.0846 19.1571 49.112 19.2728L50.2694 20.4302C50.5307 20.6915 50.5307 21.1142 50.2694 21.3758C50.139 21.5062 49.9679 21.5717 49.7966 21.5717C49.6255 21.5717 49.4541 21.5062 49.3237 21.3758L48.3971 20.4492L46.8471 21.9991L48.8551 24.0071C49.1165 24.2684 49.1165 24.6911 48.8551 24.9527C48.7247 25.0831 48.5536 25.1486 48.3823 25.1486C48.2112 25.1486 48.0399 25.0831 47.9095 24.9527L45.9006 22.9439L44.3498 24.4947L45.2765 25.4214C45.5379 25.6827 45.5379 26.1054 45.2765 26.367C45.1461 26.4974 44.975 26.5629 44.8037 26.5629C44.6326 26.5629 44.4613 26.4974 44.3309 26.367L43.174 25.2102C43.0576 25.182 42.9453 25.1346 42.8544 25.0435C42.7636 24.9527 42.716 24.8401 42.6878 24.724L41.0582 23.0943L39.5831 24.5693L40.9634 25.9496C41.2264 26.2138 41.2264 26.637 40.9648 26.8987L40.9649 26.8988Z" fill="#DDDF36"/>
<path d="M39.5859 19.7325L41.1364 18.182L42.6106 19.6562L41.0601 21.2067L39.5859 19.7325Z" fill="#DDDF36"/>
<path d="M43.4073 23.5519L42.0078 22.1524L43.5583 20.6019L44.9578 22.0014L43.4073 23.5519Z" fill="#DDDF36"/>
<path d="M45.8995 21.0563L44.5 19.6567L46.0499 18.1068L47.4494 19.5063L45.8995 21.0563Z" fill="#DDDF36"/>
<path d="M57.2422 36.0449L59.9392 33.3479L61.3337 34.7424L58.6367 37.4394L57.2422 36.0449Z" fill="#DDDF36"/>
<path d="M64.5947 38.0001L61.8984 40.6969L70.0133 48.8103V48.8095L70.0153 48.8089L72.7095 46.1147L64.5947 38.0001Z" fill="#DDDF36"/>
<path d="M43.3998 5.92786L44.9495 7.47808L43.5497 8.87758L42 7.32736L43.3998 5.92786Z" fill="#DDDF36"/>
<path d="M59.625 38.3437L62.2451 35.725L63.6118 37.0925L60.9916 39.7112L59.625 38.3437Z" fill="#DDDF36"/>
<path d="M37.6899 9.7467L36.1397 11.2964L34.6641 9.82059L36.2143 8.27087L37.6899 9.7467Z" fill="#DDDF36"/>
<path d="M33.8702 5.92786L35.2698 7.32736L33.7198 8.8773L32.3203 7.47779L33.8702 5.92786Z" fill="#DDDF36"/>
<path d="M31.2248 13.2645L32.6995 14.7393L31.2248 16.214L29.75 14.7393L31.2248 13.2645Z" fill="#DDDF36"/>
<path d="M38.6391 5.85083L40.1147 7.32587L38.6397 8.80149L37.1641 7.32644L38.6391 5.85083Z" fill="#DDDF36"/>
<path d="M31.3786 8.42358L32.7781 9.82309L31.2276 11.3736L29.8281 9.97409L31.3786 8.42358Z" fill="#DDDF36"/>
<path d="M34.6641 19.6568L36.1388 18.182L37.6893 19.7325L36.2146 21.2073L34.6641 19.6568Z" fill="#DDDF36"/>
<path d="M33.8705 23.5492L32.3203 21.9984L33.7204 20.5989L35.2706 22.1497L33.8705 23.5492Z" fill="#DDDF36"/>
<path d="M29.8281 19.5056L31.2273 18.1067L32.7781 19.6578L31.3789 21.0567L29.8281 19.5056Z" fill="#DDDF36"/>
<path d="M42.6121 9.82297L41.1364 11.2986L39.5859 9.74807L41.0615 8.27246L42.6121 9.82297Z" fill="#DDDF36"/>
</svg>
