<svg width="49" height="60" viewBox="0 0 49 60" fill="none" xmlns="http://www.w3.org/2000/svg">
<g clip-path="url(#clip0_7472_1130)">
<path d="M25.3827 30.0064C25.5474 30.4378 26.0307 30.6564 26.4593 30.4932C26.8892 30.3285 27.1073 29.8491 26.9446 29.4185C26.5392 28.3413 25.9326 27.3732 25.1399 26.5347C23.4958 24.7921 21.268 23.8352 18.8739 23.8352C14.1239 23.8352 10.2578 27.6991 10.2578 32.4529C10.2578 35.9749 12.3685 39.1129 15.6358 40.4368C15.7365 40.4821 15.8424 40.5047 15.9457 40.5047C16.2758 40.5047 16.5898 40.304 16.7211 39.98C16.8938 39.5546 16.6892 39.0659 16.2639 38.8927C13.6284 37.822 11.9267 35.2941 11.9267 32.4534C11.9267 28.6194 15.0434 25.5034 18.8733 25.5034C20.8067 25.5034 22.5998 26.276 23.9273 27.6813C24.5675 28.3586 25.0561 29.1357 25.3827 30.0064Z" fill="#8E69FF"/>
<path d="M18.8669 28.5991C19.9856 28.5991 21.0429 29.0824 21.7781 29.9264C22.0802 30.2738 22.6088 30.3077 22.9548 30.0058C23.3007 29.7059 23.3361 29.1812 23.0362 28.8311C21.9856 27.6265 20.467 26.9331 18.8669 26.9331C15.8257 26.9331 13.3516 29.4071 13.3516 32.4518C13.3516 33.9958 14.0076 35.481 15.1463 36.5238C15.3069 36.6692 15.5076 36.7425 15.709 36.7425C15.9336 36.7425 16.1623 36.6512 16.3251 36.4706C16.6359 36.1325 16.6118 35.6038 16.2698 35.292C15.475 34.5661 15.0217 33.5288 15.0217 32.4513C15.0211 30.3283 16.7456 28.5991 18.8669 28.5991Z" fill="#8E69FF"/>
<path d="M45.9188 47.1252L38.3983 32.8114C38.0331 32.1155 37.3169 31.6807 36.5264 31.6807C36.1876 31.6807 35.8456 31.7641 35.5457 31.9247C34.6597 32.3873 34.2404 33.3973 34.4804 34.3259L34.427 34.3452L37.5236 40.2363C37.567 40.3196 37.575 40.419 37.5476 40.5082C37.5177 40.6015 37.4556 40.6797 37.3723 40.7228C37.2009 40.8142 36.9743 40.7422 36.8855 40.5703L33.7788 34.6637C33.4136 33.9616 32.6942 33.533 31.9069 33.533C31.5648 33.533 31.227 33.6163 30.9249 33.773C30.4255 34.0336 30.0581 34.4789 29.8908 35.0169C29.7222 35.5582 29.7756 36.1302 30.0128 36.5575L33.1248 42.5436C33.2187 42.7209 33.1508 42.9396 32.9754 43.0323C32.8049 43.1217 32.5801 43.0503 32.4902 42.8797L29.2882 36.7914C28.9229 36.0961 28.2075 35.6628 27.4162 35.6628C27.0762 35.6628 26.7383 35.7467 26.4362 35.9054C25.9349 36.168 25.5694 36.6107 25.4002 37.1493C25.2476 37.64 25.2769 38.1613 25.5096 38.6693L29.0076 45.3392C29.099 45.5219 29.031 45.7411 28.8564 45.8299C28.681 45.9219 28.4584 45.8518 28.3676 45.6806L20.8494 31.3701C20.4841 30.6707 19.768 30.2415 18.9794 30.2415C18.6387 30.2415 18.2979 30.3254 17.9954 30.4841C16.9655 31.0262 16.5682 32.3081 17.1087 33.338L27.3409 52.8034C27.3862 52.8848 27.3943 52.9855 27.3643 53.0753C27.3383 53.1686 27.2729 53.2439 27.187 53.2854C27.0184 53.3794 26.7916 53.3054 26.7011 53.138L21.6191 43.4676L22.3938 53.5019C22.4079 54.6786 22.861 57.0752 24.5385 57.7493L34.8696 59.9999L47.6306 53.2955L47.6846 53.1369C47.9826 52.2789 46.9648 49.1097 45.9188 47.1252Z" fill="#8E69FF"/>
<path d="M19.8357 46.9819H3.83079V6.57444H29.5439V32.4487C29.6932 32.3434 29.818 32.2128 29.9853 32.1273C30.8759 31.6659 31.9374 31.5546 32.8794 31.7792L32.8792 6.05162C32.8799 2.71681 30.1646 0 26.8276 0H6.54996C3.21276 0 0.5 2.71654 0.5 6.05162V51.1752C0.5 54.5104 3.21265 57.2274 6.54996 57.2274H21.1676C20.6129 56.0906 20.371 54.7966 20.3562 53.6874L19.8357 46.9819ZM13.6752 1.93336H19.7029C20.3789 1.93336 20.9108 2.59264 20.9108 3.43813C20.9108 4.28079 20.378 4.94073 19.7029 4.94073H13.6752C12.9972 4.94073 12.4651 4.28079 12.4651 3.43813C12.4653 2.5933 12.9972 1.93336 13.6752 1.93336ZM16.6864 55.0391C14.9692 55.0391 13.5697 53.6418 13.5697 51.9223C13.5697 50.2058 14.969 48.8056 16.6864 48.8056C18.403 48.8056 19.8032 50.2055 19.8032 51.9223C19.8025 53.6417 18.4032 55.0391 16.6864 55.0391Z" fill="#8E69FF"/>
</g>
<defs>
<clipPath id="clip0_7472_1130">
<rect width="48" height="60" fill="white" transform="translate(0.5)"/>
</clipPath>
</defs>
</svg>
