<svg width="48" height="60" viewBox="0 0 48 60" fill="none" xmlns="http://www.w3.org/2000/svg">
<path d="M24.8827 30.0065C25.0474 30.4379 25.5307 30.6565 25.9593 30.4933C26.3892 30.3286 26.6073 29.8492 26.4446 29.4186C26.0392 28.3414 25.4326 27.3733 24.6399 26.5348C22.9958 24.7922 20.768 23.8353 18.3739 23.8353C13.6239 23.8353 9.75781 27.6992 9.75781 32.453C9.75781 35.975 11.8685 39.113 15.1358 40.4369C15.2365 40.4822 15.3424 40.5048 15.4457 40.5048C15.7758 40.5048 16.0898 40.3041 16.2211 39.9801C16.3938 39.5547 16.1892 39.066 15.7639 38.8928C13.1284 37.8221 11.4267 35.2942 11.4267 32.4535C11.4267 28.6195 14.5434 25.5035 18.3733 25.5035C20.3067 25.5035 22.0998 26.2761 23.4273 27.6814C24.0675 28.3587 24.5562 29.1354 24.8828 30.0061L24.8827 30.0065Z" fill="#DDDF36"/>
<path d="M18.3669 28.5992C19.4856 28.5992 20.5429 29.0825 21.2781 29.9265C21.5802 30.2739 22.1088 30.3078 22.4548 30.0059C22.8007 29.706 22.8361 29.1813 22.5362 28.8312C21.4856 27.6266 19.967 26.9332 18.3669 26.9332C15.3257 26.9332 12.8516 29.4072 12.8516 32.4519C12.8516 33.9959 13.5076 35.4811 14.6463 36.5239C14.8069 36.6693 15.0076 36.7426 15.209 36.7426C15.4336 36.7426 15.6623 36.6513 15.8251 36.4707C16.1359 36.1326 16.1118 35.6039 15.7698 35.2921C14.975 34.5662 14.5217 33.5289 14.5217 32.4514C14.5211 30.3284 16.2456 28.5992 18.3669 28.5992Z" fill="#DDDF36"/>
<path d="M45.4188 47.1252L37.8983 32.8114C37.5331 32.1155 36.8169 31.6807 36.0264 31.6807C35.6876 31.6807 35.3456 31.7641 35.0457 31.9247C34.1597 32.3873 33.7404 33.3973 33.9804 34.3259L33.927 34.3452L37.0236 40.2363C37.067 40.3196 37.075 40.419 37.0476 40.5082C37.0177 40.6015 36.9556 40.6797 36.8723 40.7228C36.7009 40.8142 36.4743 40.7422 36.3855 40.5703L33.2788 34.6637C32.9136 33.9616 32.1942 33.533 31.4069 33.533C31.0648 33.533 30.727 33.6163 30.4249 33.773C29.9255 34.0336 29.5581 34.4789 29.3908 35.0169C29.2222 35.5582 29.2756 36.1302 29.5128 36.5575L32.6248 42.5436C32.7187 42.7209 32.6508 42.9396 32.4754 43.0323C32.3049 43.1217 32.0801 43.0503 31.9902 42.8797L28.7882 36.7914C28.4229 36.0961 27.7075 35.6628 26.9162 35.6628C26.5762 35.6628 26.2383 35.7467 25.9362 35.9054C25.4349 36.168 25.0694 36.6107 24.9002 37.1493C24.7476 37.64 24.7769 38.1613 25.0096 38.6693L28.5076 45.3392C28.599 45.5219 28.531 45.7411 28.3564 45.8299C28.181 45.9219 27.9584 45.8518 27.8676 45.6806L20.3494 31.3701C19.9841 30.6707 19.268 30.2415 18.4794 30.2415C18.1387 30.2415 17.7979 30.3254 17.4954 30.4841C16.4655 31.0262 16.0682 32.3081 16.6087 33.338L26.8409 52.8034C26.8862 52.8848 26.8943 52.9855 26.8643 53.0753C26.8383 53.1686 26.7729 53.2439 26.687 53.2854C26.5184 53.3794 26.2916 53.3054 26.2011 53.138L21.1191 43.4676L21.8938 53.5019C21.9079 54.6786 22.361 57.0752 24.0385 57.7493L34.3696 59.9999L47.1306 53.2955L47.1846 53.1369C47.4826 52.2789 46.4652 49.1103 45.4192 47.1258L45.4188 47.1252Z" fill="#DDDF36"/>
<path d="M19.3357 46.9819H3.33079V6.57444H29.0439V32.4487C29.1932 32.3434 29.318 32.2128 29.4853 32.1273C30.3759 31.6659 31.4374 31.5546 32.3794 31.7792L32.3792 6.05162C32.3799 2.71681 29.6646 0 26.3276 0H6.04996C2.71276 0 0 2.71654 0 6.05162V51.1752C0 54.5104 2.71265 57.2274 6.04996 57.2274H20.6676C20.1129 56.0906 19.871 54.7966 19.8562 53.6874L19.3357 46.9819ZM13.1752 1.93336H19.2029C19.8789 1.93336 20.4108 2.59264 20.4108 3.43813C20.4108 4.28079 19.878 4.94073 19.2029 4.94073H13.1752C12.4972 4.94073 11.9651 4.28079 11.9651 3.43813C11.9653 2.5933 12.4972 1.93336 13.1752 1.93336ZM16.1864 55.0391C14.4692 55.0391 13.0697 53.6418 13.0697 51.9223C13.0697 50.2058 14.469 48.8056 16.1864 48.8056C17.903 48.8056 19.3032 50.2055 19.3032 51.9223C19.3025 53.6417 17.9032 55.0391 16.1864 55.0391Z" fill="#DDDF36"/>
</svg>
