<svg width="65" height="65" viewBox="0 0 65 65" fill="none" xmlns="http://www.w3.org/2000/svg">
<path d="M11.566 26.1144C11.489 25.6894 11.4121 25.2644 11.35 24.8334C11.265 24.2394 11.2019 23.6474 11.15 23.0564C9.06891 22.7715 7.12396 21.4375 5.41797 19.1465C5.1418 20.4125 5.00176 21.7045 5 23.0004C5.00332 23.8965 5.07226 24.7912 5.20605 25.6773C7.3166 25.9371 9.43964 26.083 11.566 26.1144L11.566 26.1144Z" fill="#8E69FF"/>
<path d="M5.63281 27.7422C6.14646 29.6373 6.97326 31.4334 8.07891 33.0562C8.81755 32.1033 9.8043 31.3718 10.9308 30.9422C11.4863 30.7394 12.0541 30.5724 12.6308 30.4422C12.3898 29.6832 12.1689 28.9101 11.9779 28.1201C9.8578 28.1039 7.73981 27.9777 5.63291 27.7422L5.63281 27.7422Z" fill="#8E69FF"/>
<path d="M24.1777 16.3541C24.0047 16.533 23.8476 16.6951 23.7047 16.8371C23.4767 17.0641 23.2367 17.3182 22.9797 17.5891C21.0377 19.6391 18.1687 22.6581 13.1797 23.0771C13.2277 23.5671 13.2607 24.056 13.3307 24.5491C13.4066 25.0751 13.4947 25.5958 13.5947 26.111C24.1497 25.919 34.0077 22.9729 40.3107 18.12C39.4034 14.9237 37.6296 12.0405 35.1857 9.79004C30.9304 10.7982 27.0877 13.0896 24.1777 16.354L24.1777 16.3541Z" fill="#8E69FF"/>
<path d="M11.0285 21.016C10.8361 16.4369 11.7018 11.875 13.5584 7.68506C10.1532 9.7667 7.54393 12.93 6.14844 16.669C7.26053 18.5141 8.91543 20.5251 11.0285 21.0161V21.016Z" fill="#8E69FF"/>
<path d="M13.0426 21.0802C17.2606 20.7081 19.7076 18.1341 21.5286 16.2132C21.7985 15.9282 22.0516 15.6622 22.2905 15.4231C22.4264 15.2872 22.5754 15.1321 22.7405 14.9622L22.7407 14.962C25.5846 11.8202 29.2182 9.49749 33.2637 8.235C30.8732 6.5598 28.1087 5.49575 25.2117 5.13615C22.3148 4.77639 19.3742 5.13225 16.6467 6.1721C14.0004 10.6768 12.7463 15.8641 13.0426 21.0801L13.0426 21.0802Z" fill="#8E69FF"/>
<path d="M14.6429 30.1581C17.6285 30.0958 20.5754 30.8419 23.1719 32.3171C23.4998 32.478 23.8069 32.629 24.094 32.762C24.2129 32.812 24.369 32.886 24.5359 32.962L24.61 32.997H37.9299V32.9972C39.934 30.0489 41.0026 26.5652 40.9959 23.0002C40.9891 22.0894 40.9129 21.1804 40.768 20.2812C34.208 24.9812 24.441 27.8442 14.0391 28.1032C14.218 28.8001 14.4209 29.486 14.6429 30.1581Z" fill="#8E69FF"/>
<path d="M11.6266 32.818C10.6883 33.194 9.89236 33.8561 9.35156 34.71C10.8943 36.5112 12.7756 37.9923 14.8885 39.069L15.3885 37.069C15.4096 36.9831 15.4466 36.905 15.4716 36.821V36.8212C14.6321 35.3911 13.9097 33.8956 13.3114 32.3491C12.739 32.463 12.1757 32.6196 11.6265 32.8181L11.6266 32.818Z" fill="#8E69FF"/>
<path d="M19.9455 33.0512C18.491 32.4481 16.934 32.1307 15.3594 32.1162C15.7271 33.0192 16.1404 33.9029 16.5975 34.7643C17.4651 33.8012 18.6569 33.1912 19.9455 33.0512Z" fill="#8E69FF"/>
<path d="M30 41C30 41.2652 30.1053 41.5195 30.293 41.707C30.4805 41.8947 30.7348 42 31 42H43C43.2652 42 43.5195 41.8947 43.707 41.707C43.8947 41.5195 44 41.2652 44 41V35H30L30 41ZM33 37H41C41.3572 37 41.6873 37.1906 41.866 37.5C42.0447 37.8094 42.0447 38.1906 41.866 38.5C41.6873 38.8094 41.3572 39 41 39H33C32.6428 39 32.3127 38.8094 32.134 38.5C31.9553 38.1906 31.9553 37.8094 32.134 37.5C32.3127 37.1906 32.6428 37 33 37Z" fill="#8E69FF"/>
<path d="M46 50C46 50.5523 45.5523 51 45 51C44.4477 51 44 50.5523 44 50C44 49.4477 44.4477 49 45 49C45.5523 49 46 49.4477 46 50Z" fill="#8E69FF"/>
<path d="M30.9958 43.9996C30.2001 43.9996 29.437 43.6836 28.8745 43.1209C28.3118 42.5584 27.9958 41.7953 27.9958 40.9997V34.9997H20.5379C19.7939 35.0026 19.0724 35.2557 18.4892 35.7178C17.9062 36.1801 17.4955 36.8249 17.3228 37.5487L13.1369 54.4206C12.682 56.1759 13.1642 58.0417 14.4125 59.357C15.6607 60.6722 17.4988 61.2513 19.2754 60.8888C21.0521 60.5263 22.5166 59.2736 23.1498 57.5746L24.2357 54.8746H24.2359C24.4535 54.3283 24.9199 53.9193 25.4898 53.7746C26.0745 53.6269 26.6949 53.7658 27.1609 54.1486C27.7917 54.6459 28.5822 54.8962 29.3843 54.8535C30.1865 54.8105 30.9455 54.4771 31.5199 53.9156C32.0865 53.3371 32.8601 53.0074 33.6699 52.9996H40.2809C41.0942 53.0074 41.8707 53.3396 42.4379 53.9226C43.0178 54.4857 43.784 54.817 44.5914 54.8539C45.399 54.8906 46.192 54.6305 46.8209 54.1226C47.165 53.843 47.5945 53.6894 48.0379 53.6877C48.1961 53.6873 48.3537 53.7072 48.5068 53.7467C49.0738 53.8928 49.5365 54.3018 49.751 54.8467L50.8391 57.5547H50.8389C51.2117 58.556 51.8791 59.4211 52.7529 60.0359C53.6268 60.6507 54.6664 60.9867 55.735 60.9996C56.2461 60.9992 56.7543 60.9228 57.243 60.7726C58.54 60.3697 59.6348 59.4872 60.3037 58.305C60.9727 57.1228 61.1654 55.73 60.843 54.4105L56.6738 37.5495C56.4988 36.8267 56.0873 36.1833 55.5047 35.7212C54.9219 35.2591 54.2016 35.0052 53.4578 34.9995H45.9958V40.9995C45.9958 41.7952 45.6798 42.5583 45.1171 43.1208C44.5546 43.6835 43.7915 43.9995 42.9958 43.9995L30.9958 43.9996ZM23.9959 42.9996H22.9959V43.9996C22.9959 44.3569 22.8052 44.6869 22.4959 44.8656C22.1865 45.0444 21.8053 45.0444 21.4959 44.8656C21.1865 44.6869 20.9959 44.3568 20.9959 43.9996V42.9996H19.9959C19.6386 42.9996 19.3086 42.809 19.1299 42.4996C18.9512 42.1903 18.9512 41.809 19.1299 41.4997C19.3086 41.1903 19.6387 40.9997 19.9959 40.9997H20.9959V39.9997C20.9959 39.6424 21.1865 39.3124 21.4959 39.1337C21.8052 38.9549 22.1865 38.9549 22.4959 39.1337C22.8052 39.3124 22.9959 39.6425 22.9959 39.9997V40.9997H23.9959C24.3531 40.9997 24.6832 41.1903 24.8619 41.4997C25.0406 41.809 25.0406 42.1902 24.8619 42.4996C24.6831 42.809 24.3531 42.9996 23.9959 42.9996ZM28.9958 52.9996C28.2001 52.9996 27.437 52.6836 26.8746 52.1209C26.3119 51.5584 25.9959 50.7953 25.9959 49.9996C25.9959 49.2039 26.3119 48.4408 26.8746 47.8783C27.437 47.3156 28.2001 46.9996 28.9958 46.9996C29.7915 46.9996 30.5546 47.3156 31.1171 47.8783C31.6798 48.4408 31.9958 49.2039 31.9958 49.9996C31.9958 50.7953 31.6798 51.5584 31.1171 52.1209C30.5546 52.6836 29.7915 52.9996 28.9958 52.9996ZM37.9958 50.9996H35.9958C35.6386 50.9996 35.3085 50.809 35.1298 50.4996C34.9511 50.1903 34.9511 49.809 35.1298 49.4996C35.3085 49.1903 35.6386 48.9996 35.9958 48.9996H37.9958C38.353 48.9996 38.6831 49.1903 38.8618 49.4996C39.0405 49.809 39.0405 50.1902 38.8618 50.4996C38.6831 50.809 38.353 50.9996 37.9958 50.9996ZM52.4958 46.9996H51.4958C51.1386 46.9996 50.8085 46.809 50.6298 46.4996C50.4511 46.1903 50.4511 45.809 50.6298 45.4996C50.8085 45.1903 51.1386 44.9996 51.4958 44.9996H52.4958C52.853 44.9996 53.1831 45.1903 53.3618 45.4996C53.5405 45.809 53.5405 46.1902 53.3618 46.4996C53.1831 46.809 52.853 46.9996 52.4958 46.9996ZM54.9958 41.9996C55.353 41.9996 55.6831 42.1903 55.8618 42.4996C56.0405 42.809 56.0405 43.1902 55.8618 43.4996C55.6831 43.809 55.353 43.9996 54.9958 43.9996H53.9958C53.6386 43.9996 53.3085 43.809 53.1298 43.4996C52.9511 43.1903 52.9511 42.809 53.1298 42.4996C53.3085 42.1903 53.6386 41.9996 53.9958 41.9996H54.9958ZM51.4958 38.9997H52.4958C52.853 38.9997 53.1831 39.1903 53.3618 39.4997C53.5405 39.809 53.5405 40.1903 53.3618 40.4997C53.1831 40.809 52.853 40.9997 52.4958 40.9997H51.4958C51.1386 40.9997 50.8085 40.809 50.6298 40.4997C50.4511 40.1903 50.4511 39.8091 50.6298 39.4997C50.8085 39.1903 51.1386 38.9997 51.4958 38.9997ZM48.9958 41.9996H49.9958C50.353 41.9996 50.6831 42.1903 50.8618 42.4996C51.0405 42.809 51.0405 43.1902 50.8618 43.4996C50.6831 43.809 50.353 43.9996 49.9958 43.9996H48.9958C48.6386 43.9996 48.3085 43.809 48.1298 43.4996C47.9511 43.1903 47.9511 42.809 48.1298 42.4996C48.3085 42.1903 48.6386 41.9996 48.9958 41.9996ZM47.9958 49.9996C47.9958 50.7953 47.6798 51.5584 47.1171 52.1209C46.5546 52.6836 45.7915 52.9996 44.9958 52.9996C44.2001 52.9996 43.437 52.6836 42.8745 52.1209C42.3118 51.5584 41.9958 50.7953 41.9958 49.9996C41.9958 49.2039 42.3118 48.4408 42.8745 47.8783C43.437 47.3156 44.2001 46.9996 44.9958 46.9996C45.7915 46.9996 46.5546 47.3156 47.1171 47.8783C47.6798 48.4408 47.9958 49.2039 47.9958 49.9996Z" fill="#8E69FF"/>
<path d="M30 50C30 50.5523 29.5523 51 29 51C28.4477 51 28 50.5523 28 50C28 49.4477 28.4477 49 29 49C29.5523 49 30 49.4477 30 50Z" fill="#8E69FF"/>
</svg>
