<svg width="61" height="60" viewBox="0 0 61 60" fill="none" xmlns="http://www.w3.org/2000/svg">
<g clip-path="url(#clip0_7472_1078)">
<path d="M16.4374 0C7.64947 0 0.5 7.14947 0.5 15.9374C0.5 24.7253 7.64947 31.8747 16.4374 31.8747C25.2253 31.8747 32.3747 24.7253 32.3747 15.9374C32.3756 7.14947 25.2253 0 16.4374 0ZM27.2173 10.2573H22.9351C22.6658 8.50512 22.2718 6.88781 21.7639 5.48986C21.6845 5.27111 21.6032 5.06381 21.5205 4.86196C23.9599 5.98593 25.9662 7.89199 27.2173 10.2573ZM14.5941 6.8853C15.4362 4.50798 16.3008 3.95399 16.4375 3.94317C16.5741 3.95379 17.4381 4.50712 18.2802 6.88445C18.6342 7.88383 18.9209 9.02241 19.1369 10.2572H13.7389C13.9535 9.02321 14.2402 7.88388 14.5941 6.8853ZM4.63661 18.9901C4.3839 18.014 4.24931 16.9913 4.24931 15.9373C4.24931 15.2807 4.30202 14.6361 4.40265 14.0072H9.56877C9.53815 14.6433 9.52148 15.2873 9.52148 15.9373C9.52148 16.974 9.5621 17.9946 9.6394 18.9901H4.63661ZM6.32934 22.7401H10.1327C10.3854 24.0622 10.7127 25.2914 11.1107 26.3856C11.19 26.6044 11.2713 26.8117 11.354 27.0135C9.31331 26.0729 7.57539 24.5856 6.32934 22.7401ZM11.1107 5.48965C10.6027 6.8876 10.2079 8.50427 9.93938 10.257H5.65722C6.90849 7.89156 8.9152 5.98571 11.3539 4.86174C11.2714 5.06383 11.19 5.27091 11.1107 5.48965ZM18.2793 24.9897C17.4366 27.3686 16.5714 27.9211 16.4366 27.931C16.3011 27.921 15.4353 27.3677 14.5932 24.9883C14.3499 24.3003 14.1386 23.5443 13.9592 22.7388H18.9133C18.7348 23.5457 18.5233 24.3018 18.2793 24.9897ZM19.4739 18.9896H13.3997C13.3151 18.003 13.2709 16.9802 13.2709 15.9369C13.2709 15.2842 13.2882 14.6396 13.3215 14.0068H19.5515C19.5848 14.6395 19.6021 15.2848 19.6021 15.9369C19.6023 16.9802 19.5587 18.003 19.4739 18.9896ZM21.52 27.0127C21.6021 26.8115 21.6833 26.6033 21.7633 26.3848C22.1606 25.2908 22.4879 24.0621 22.7412 22.7393H26.5446C25.2988 24.5854 23.5606 26.0727 21.52 27.0127ZM23.2348 18.9896C23.3121 17.9951 23.3527 16.9735 23.3527 15.9369C23.3527 15.2863 23.336 14.6423 23.3054 14.0068H28.4715C28.5721 14.6356 28.6249 15.2802 28.6249 15.9369C28.6249 16.9909 28.4903 18.0136 28.2376 18.9896H23.2348ZM51.2641 47.388C51.4374 48.8168 51.0501 50.1254 50.1447 51.1721C49.2841 52.1666 47.9592 52.88 46.4373 53.2021V53.6627C46.4373 54.6981 45.598 55.5373 44.5627 55.5373C43.5273 55.5373 42.6881 54.6979 42.6881 53.6627V53.1694C40.2842 52.5866 38.4527 50.9059 37.8768 48.5972C37.6262 47.5926 38.2374 46.575 39.2429 46.3244C40.2468 46.0738 41.2656 46.6851 41.5156 47.6905C41.8868 49.1792 43.4756 49.6699 44.7169 49.6432C45.8123 49.6172 46.8542 49.2459 47.3096 48.7199C47.4569 48.5499 47.5996 48.312 47.543 47.8405C47.4896 47.3992 47.3642 46.3659 44.2742 45.8592C39.2853 45.0399 38.4084 42.2038 38.33 40.5858C38.2021 37.9537 39.9422 35.7403 42.6889 34.9905V34.4632C42.6889 33.4278 43.5283 32.5886 44.5635 32.5886C45.5989 32.5886 46.4381 33.428 46.4381 34.4632V34.9738C48.2108 35.4384 49.8708 36.6145 50.7582 38.7285C51.1588 39.683 50.7102 40.7825 49.7554 41.1831C48.8 41.5837 47.7014 41.1352 47.3008 40.1803C46.5748 38.4509 44.7762 38.3536 43.8281 38.569C43.4008 38.6657 42.0114 39.0851 42.0753 40.4036C42.0926 40.7603 42.1387 41.7076 44.8814 42.1582C48.7727 42.7968 50.9206 44.5561 51.2641 47.388ZM44.5626 28.1242C35.7747 28.1242 28.6253 35.2737 28.6253 44.0616C28.6253 52.8505 35.7747 60 44.5626 60C53.3505 60 60.5 52.8505 60.5 44.0626C60.5 35.2742 53.3505 28.1242 44.5626 28.1242ZM44.5626 56.2501C37.8425 56.2501 32.3752 50.7828 32.3752 44.0626C32.3752 37.3425 37.8425 31.8752 44.5626 31.8752C51.2828 31.8752 56.7501 37.3425 56.7501 44.0626C56.7501 50.7828 51.2828 56.2501 44.5626 56.2501ZM27.6978 48.9481C27.6978 49.9835 26.8584 50.8227 25.8232 50.8227L17.4577 50.8229C13.167 50.8229 9.67622 47.3322 9.67622 43.0414V41.3666L8.23412 43.1278C7.86349 43.5806 7.32471 43.8152 6.78198 43.8152C6.36406 43.8152 5.94405 43.6764 5.5953 43.3912C4.79405 42.7351 4.67651 41.5539 5.33258 40.7524L10.1006 34.9288C10.4566 34.4942 10.9893 34.2415 11.5512 34.2415C12.1133 34.2415 12.6458 34.4942 13.0018 34.9288L17.7692 40.7524C18.4253 41.5536 18.3072 42.7351 17.5059 43.3912C16.7047 44.0473 15.5231 43.9291 14.8671 43.1279L13.4258 41.3672V43.0418C13.4258 45.2645 15.2346 47.0731 17.4572 47.0731H25.8221C26.8588 47.0727 27.6978 47.9122 27.6978 48.9481ZM34.4947 11.0514C34.4947 10.0159 35.3341 9.17676 36.3693 9.17676H43.5417C47.8324 9.17676 51.3232 12.6674 51.3232 16.9582V19.4756L52.7644 17.7149C53.4205 16.9136 54.6018 16.7955 55.4033 17.4516C56.2045 18.1076 56.3226 19.2889 55.6666 20.0904L50.8992 25.9139C50.5432 26.3494 50.0104 26.6013 49.4486 26.6013C48.8865 26.6013 48.354 26.3492 47.9979 25.9139L43.2299 20.0904C42.5739 19.2891 42.692 18.1076 43.4927 17.4516C44.2939 16.7955 45.4754 16.9136 46.1315 17.7143L47.5736 19.4755V16.9576C47.5736 14.7348 45.7648 12.9262 43.5423 12.9262L36.3704 12.926C35.3343 12.9266 34.4947 12.0872 34.4947 11.0514Z" fill="#8E69FF"/>
</g>
<defs>
<clipPath id="clip0_7472_1078">
<rect width="60" height="60" fill="white" transform="translate(0.5)"/>
</clipPath>
</defs>
</svg>
