<svg width="101" height="100" viewBox="0 0 101 100" fill="none" xmlns="http://www.w3.org/2000/svg">
<circle cx="50.6641" cy="50" r="50" fill="#FB441C" fill-opacity="0.45"/>
<rect x="24.1797" y="37.4199" width="52.835" height="24.7209" fill="#FB441C"/>
<path fill-rule="evenodd" clip-rule="evenodd" d="M70.6298 43.4407C69.8476 42.6489 69.3021 41.6181 69.1104 40.4653H32.0844C31.8921 41.6179 31.3472 42.6496 30.565 43.4407C29.7827 44.2319 28.7643 44.784 27.6253 44.9786V54.5827C28.764 54.7773 29.7827 55.3288 30.565 56.1206C31.3472 56.9124 31.8921 57.9432 32.0844 59.096H69.1093C69.3016 57.9434 69.8465 56.9124 70.6288 56.1206C71.411 55.3288 72.4295 54.7773 73.5685 54.5827V44.9786C72.4297 44.784 71.4104 44.2325 70.6288 43.4407H70.6298ZM38.3952 50.7038H31.5039C31.0004 50.7038 30.5918 50.2904 30.5918 49.7808C30.5918 49.2711 31.0003 48.8577 31.5039 48.8577H38.3952C38.8987 48.8577 39.3072 49.2711 39.3072 49.7808C39.3072 50.2904 38.8987 50.7038 38.3952 50.7038ZM56.4848 55.739C54.9781 57.264 52.8971 58.2073 50.5983 58.2073C48.2994 58.2073 46.2183 57.264 44.7117 55.739C43.2051 54.2139 42.273 52.1077 42.273 49.781C42.273 47.4542 43.205 45.3478 44.7117 43.823C46.2184 42.2981 48.2994 41.3547 50.5983 41.3547C52.8971 41.3547 54.9782 42.2979 56.4848 43.823C57.9914 45.348 58.9235 47.4542 58.9235 49.781C58.9235 52.1077 57.9915 54.2141 56.4848 55.739ZM69.6927 50.7038H62.8013C62.2978 50.7038 61.8893 50.2904 61.8893 49.7808C61.8893 49.2711 62.2978 48.8577 62.8013 48.8577H69.6927C70.1962 48.8577 70.6047 49.2711 70.6047 49.7808C70.6047 50.2904 70.1962 50.7038 69.6927 50.7038ZM76.8708 34.707H24.3257C23.0106 34.707 21.9375 35.7932 21.9375 37.1242V62.4359C21.9375 63.7669 23.0106 64.8531 24.3257 64.8531H76.8703C78.1854 64.8531 79.2585 63.7669 79.2585 62.4359V37.1253C79.2585 35.7942 78.1854 34.7081 76.8703 34.7081L76.8708 34.707ZM75.3946 55.4283C75.3946 55.9379 74.9861 56.3514 74.4826 56.3514C73.482 56.3514 72.5761 56.7621 71.9202 57.4254C71.2644 58.0892 70.8592 59.0056 70.8592 60.0189C70.8592 60.5285 70.4507 60.9419 69.9471 60.9419L31.2496 60.9422C30.7461 60.9422 30.3376 60.5287 30.3376 60.0191C30.3376 59.0064 29.9318 58.0894 29.2765 57.4256C28.6206 56.7618 27.7153 56.3516 26.7141 56.3516C26.2106 56.3516 25.8021 55.9382 25.8021 55.4285V44.1325C25.8021 43.6229 26.2106 43.2094 26.7141 43.2094C27.7147 43.2094 28.6206 42.7987 29.2765 42.1355C29.9324 41.4717 30.3376 40.5553 30.3376 39.542C30.3376 39.0324 30.7461 38.6189 31.2496 38.6189H69.9461C70.4496 38.6189 70.8581 39.0324 70.8581 39.542C70.8581 40.5547 71.2639 41.4717 71.9192 42.1355C72.575 42.7993 73.4804 43.2094 74.4816 43.2094C74.985 43.2094 75.3936 43.6229 75.3936 44.1325V55.4285L75.3946 55.4283Z" fill="#001035"/>
<path d="M50.591 42.751C46.7173 42.751 43.5625 45.9058 43.5625 49.7795C43.5625 53.6532 46.7173 56.808 50.591 56.808C54.4647 56.808 57.6195 53.6532 57.6195 49.7795C57.6195 45.9058 54.4647 42.751 50.591 42.751ZM50.9904 52.3353V53.2937H49.952V52.3753C49.4728 52.3353 48.9936 52.1756 48.6741 51.936L48.5543 51.8561L48.9137 50.8178L49.1534 50.9776C49.4728 51.1772 49.9121 51.337 50.3115 51.337C50.7907 51.337 51.1501 51.0974 51.1501 50.698C51.1501 50.4584 51.0303 50.1788 50.2716 49.8594C49.4729 49.5399 48.6742 49.1006 48.6742 48.1022C48.6742 47.3036 49.1934 46.7046 50.032 46.4649V45.5464H51.0703V46.425C51.4696 46.4649 51.7891 46.5847 52.1086 46.7445L52.2683 46.8643L51.869 47.9026L51.6293 47.7828C51.4696 47.7029 51.1501 47.5032 50.631 47.5032C50.1118 47.5032 49.9121 47.7828 49.9121 48.0224C49.9121 48.3019 50.0319 48.4617 50.8706 48.8211C51.5894 49.1006 52.3881 49.5798 52.3881 50.6581C52.3881 51.4568 51.829 52.1356 50.9904 52.3353Z" fill="#001035"/>
<path fill-rule="evenodd" clip-rule="evenodd" d="M25.8394 21.471V27.241H36.7599V29.0501C36.7599 29.3188 36.909 29.549 37.153 29.6555C37.3971 29.7619 37.6646 29.7148 37.8582 29.5303L42.2774 25.3153C42.5481 25.0567 42.6865 24.7323 42.6865 24.3559C42.6865 23.9795 42.5481 23.655 42.2774 23.3964L37.8582 19.1815C37.6646 18.997 37.3971 18.9492 37.153 19.0563C36.909 19.1628 36.7599 19.393 36.7599 19.6617V21.4708L25.8394 21.471ZM75.3436 72.3195V78.0895H64.4231V79.8986C64.4231 80.1673 64.274 80.3975 64.03 80.504C63.7859 80.6104 63.5184 80.5633 63.3248 80.3788L58.9056 76.1638C58.6349 75.9052 58.4965 75.5808 58.4965 75.2044C58.4965 74.828 58.6349 74.5035 58.9056 74.245L63.3248 70.03C63.5184 69.8455 63.7859 69.7977 64.03 69.9048C64.274 70.0113 64.4231 70.2415 64.4231 70.5102V72.3193L75.3436 72.3195ZM81.8576 72.9787V77.4305C81.8576 77.7935 81.5649 78.0897 81.2063 78.0897H78.7171V72.3197H81.2063C81.5649 72.3197 81.8576 72.6158 81.8576 72.9787ZM19.3281 22.1305V26.5823C19.3281 26.9453 19.6208 27.2415 19.9794 27.2415H22.4686V21.4715H19.9794C19.6208 21.4715 19.3281 21.7675 19.3281 22.1305Z" fill="#FB441C"/>
</svg>
