<svg width="101" height="100" viewBox="0 0 101 100" fill="none" xmlns="http://www.w3.org/2000/svg">
<circle cx="50.3359" cy="50" r="50" fill="#6F58FF" fill-opacity="0.4"/>
<rect x="23.8516" y="37.4199" width="52.835" height="24.7209" fill="#8E69FF"/>
<path fill-rule="evenodd" clip-rule="evenodd" d="M70.3017 43.4407C69.5195 42.6489 68.974 41.6181 68.7823 40.4653H31.7563C31.564 41.6179 31.0191 42.6496 30.2368 43.4407C29.4546 44.2319 28.4361 44.784 27.2971 44.9786V54.5827C28.4359 54.7773 29.4546 55.3288 30.2368 56.1206C31.0191 56.9124 31.564 57.9432 31.7563 59.096H68.7812C68.9735 57.9434 69.5184 56.9124 70.3006 56.1206C71.0829 55.3288 72.1014 54.7773 73.2403 54.5827V44.9786C72.1016 44.784 71.0823 44.2325 70.3006 43.4407H70.3017ZM38.067 50.7038H31.1757C30.6722 50.7038 30.2637 50.2904 30.2637 49.7808C30.2637 49.2711 30.6722 48.8577 31.1757 48.8577H38.067C38.5705 48.8577 38.9791 49.2711 38.9791 49.7808C38.9791 50.2904 38.5706 50.7038 38.067 50.7038ZM56.1567 55.739C54.6499 57.264 52.569 58.2073 50.2701 58.2073C47.9713 58.2073 45.8902 57.264 44.3836 55.739C42.877 54.2139 41.9449 52.1077 41.9449 49.781C41.9449 47.4542 42.8769 45.3478 44.3836 43.823C45.8903 42.2981 47.9713 41.3547 50.2701 41.3547C52.569 41.3547 54.6501 42.2979 56.1567 43.823C57.6632 45.348 58.5954 47.4542 58.5954 49.781C58.5954 52.1077 57.6634 54.2141 56.1567 55.739ZM69.3645 50.7038H62.4732C61.9697 50.7038 61.5612 50.2904 61.5612 49.7808C61.5612 49.2711 61.9697 48.8577 62.4732 48.8577H69.3645C69.868 48.8577 70.2765 49.2711 70.2765 49.7808C70.2765 50.2904 69.868 50.7038 69.3645 50.7038ZM76.5427 34.707H23.9976C22.6825 34.707 21.6094 35.7932 21.6094 37.1242V62.4359C21.6094 63.7669 22.6825 64.8531 23.9976 64.8531H76.5422C77.8572 64.8531 78.9304 63.7669 78.9304 62.4359V37.1253C78.9304 35.7942 77.8572 34.7081 76.5422 34.7081L76.5427 34.707ZM75.0665 55.4283C75.0665 55.9379 74.658 56.3514 74.1545 56.3514C73.1539 56.3514 72.248 56.7621 71.5921 57.4254C70.9362 58.0892 70.531 59.0056 70.531 60.0189C70.531 60.5285 70.1225 60.9419 69.619 60.9419L30.9215 60.9422C30.418 60.9422 30.0094 60.5287 30.0094 60.0191C30.0094 59.0064 29.6036 58.0894 28.9484 57.4256C28.2925 56.7618 27.3871 56.3516 26.386 56.3516C25.8825 56.3516 25.474 55.9382 25.474 55.4285V44.1325C25.474 43.6229 25.8825 43.2094 26.386 43.2094C27.3865 43.2094 28.2925 42.7987 28.9484 42.1355C29.6042 41.4717 30.0094 40.5553 30.0094 39.542C30.0094 39.0324 30.4179 38.6189 30.9215 38.6189H69.618C70.1215 38.6189 70.53 39.0324 70.53 39.542C70.53 40.5547 70.9358 41.4717 71.591 42.1355C72.2469 42.7993 73.1523 43.2094 74.1534 43.2094C74.6569 43.2094 75.0654 43.6229 75.0654 44.1325V55.4285L75.0665 55.4283Z" fill="#001035"/>
<path d="M50.2629 42.751C46.3892 42.751 43.2344 45.9058 43.2344 49.7795C43.2344 53.6532 46.3892 56.808 50.2629 56.808C54.1366 56.808 57.2914 53.6532 57.2914 49.7795C57.2914 45.9058 54.1366 42.751 50.2629 42.751ZM50.6622 52.3353V53.2937H49.6239V52.3753C49.1447 52.3353 48.6655 52.1756 48.346 51.936L48.2262 51.8561L48.5856 50.8178L48.8252 50.9776C49.1447 51.1772 49.584 51.337 49.9834 51.337C50.4626 51.337 50.822 51.0974 50.822 50.698C50.822 50.4584 50.7022 50.1788 49.9434 49.8594C49.1447 49.5399 48.3461 49.1006 48.3461 48.1022C48.3461 47.3036 48.8652 46.7046 49.7038 46.4649V45.5464H50.7421V46.425C51.1415 46.4649 51.461 46.5847 51.7804 46.7445L51.9402 46.8643L51.5408 47.9026L51.3012 47.7828C51.1415 47.7029 50.822 47.5032 50.3028 47.5032C49.7837 47.5032 49.584 47.7828 49.584 48.0224C49.584 48.3019 49.7038 48.4617 50.5424 48.8211C51.2613 49.1006 52.06 49.5798 52.06 50.6581C52.06 51.4568 51.5008 52.1356 50.6622 52.3353Z" fill="#001035"/>
<path fill-rule="evenodd" clip-rule="evenodd" d="M25.5113 21.471V27.241H36.4318V29.0501C36.4318 29.3188 36.5808 29.549 36.8249 29.6555C37.069 29.7619 37.3365 29.7148 37.53 29.5303L41.9493 25.3153C42.22 25.0567 42.3584 24.7323 42.3584 24.3559C42.3584 23.9795 42.22 23.655 41.9493 23.3964L37.53 19.1815C37.3365 18.997 37.069 18.9492 36.8249 19.0563C36.5808 19.1628 36.4318 19.393 36.4318 19.6617V21.4708L25.5113 21.471ZM75.0155 72.3195V78.0895H64.095V79.8986C64.095 80.1673 63.9459 80.3975 63.7018 80.504C63.4578 80.6104 63.1902 80.5633 62.9967 80.3788L58.5774 76.1638C58.3068 75.9052 58.1683 75.5808 58.1683 75.2044C58.1683 74.828 58.3068 74.5035 58.5774 74.245L62.9967 70.03C63.1902 69.8455 63.4578 69.7977 63.7018 69.9048C63.9459 70.0113 64.095 70.2415 64.095 70.5102V72.3193L75.0155 72.3195ZM81.5294 72.9787V77.4305C81.5294 77.7935 81.2367 78.0897 80.8782 78.0897H78.389V72.3197H80.8782C81.2368 72.3197 81.5294 72.6158 81.5294 72.9787ZM19 22.1305V26.5823C19 26.9453 19.2927 27.2415 19.6513 27.2415H22.1405V21.4715H19.6513C19.2927 21.4715 19 21.7675 19 22.1305Z" fill="#8E69FF"/>
</svg>
