<svg width="65" height="65" viewBox="0 0 65 65" fill="none" xmlns="http://www.w3.org/2000/svg">
<path d="M37.0504 33.0065C37.2097 33.4235 37.6768 33.6348 38.0912 33.477C38.5067 33.3178 38.7176 32.8544 38.5602 32.4382C38.1684 31.3968 37.582 30.4611 36.8157 29.6505C35.2264 27.9659 33.0729 27.041 30.7585 27.041C26.1669 27.041 22.4297 30.7761 22.4297 35.3715C22.4297 38.776 24.47 41.8094 27.6284 43.0892C27.7258 43.133 27.8281 43.1548 27.928 43.1548C28.2471 43.1548 28.5506 42.9608 28.6775 42.6476C28.8445 42.2364 28.6467 41.764 28.2355 41.5966C25.688 40.5616 24.0429 38.1179 24.0429 35.3719C24.0429 31.6657 27.0558 28.6536 30.758 28.6536C32.6269 28.6536 34.3603 29.4004 35.6435 30.7589C36.2623 31.4136 36.7348 32.1644 37.0505 33.0061L37.0504 33.0065Z" fill="#FB441C"/>
<path d="M30.7534 31.6456C31.8348 31.6456 32.8568 32.1128 33.5676 32.9287C33.8596 33.2645 34.3706 33.2972 34.705 33.0054C35.0394 32.7155 35.0736 32.2083 34.7837 31.8699C33.7681 30.7054 32.3001 30.0352 30.7534 30.0352C27.8136 30.0352 25.4219 32.4266 25.4219 35.3698C25.4219 36.8624 26.0561 38.2981 27.1568 39.3061C27.312 39.4467 27.506 39.5176 27.7007 39.5176C27.9178 39.5176 28.139 39.4293 28.2963 39.2547C28.5967 38.9279 28.5734 38.4168 28.2428 38.1154C27.4746 37.4137 27.0364 36.411 27.0364 35.3694C27.0357 33.3171 28.7028 31.6456 30.7534 31.6456Z" fill="#FB441C"/>
<path d="M56.9036 49.5543L49.6337 35.7177C49.2807 35.0449 48.5884 34.6247 47.8242 34.6247C47.4967 34.6247 47.1661 34.7053 46.8762 34.8605C46.0197 35.3077 45.6144 36.2841 45.8464 37.1817L45.7948 37.2004L48.7881 42.8951C48.8301 42.9756 48.8379 43.0717 48.8114 43.1579C48.7825 43.2481 48.7225 43.3237 48.6419 43.3654C48.4762 43.4537 48.2572 43.3841 48.1714 43.2179L45.1682 37.5082C44.8151 36.8295 44.1197 36.4152 43.3587 36.4152C43.0281 36.4152 42.7014 36.4958 42.4094 36.6472C41.9267 36.8992 41.5715 37.3296 41.4098 37.8497C41.2468 38.3729 41.2984 38.9259 41.5277 39.3389L44.536 45.1254C44.6268 45.2968 44.5611 45.5083 44.3916 45.5979C44.2267 45.6843 44.0094 45.6153 43.9226 45.4504L40.8273 39.565C40.4742 38.8929 39.7826 38.474 39.0177 38.474C38.689 38.474 38.3624 38.5552 38.0704 38.7085C37.5858 38.9624 37.2325 39.3903 37.0689 39.911C36.9214 40.3853 36.9497 40.8892 37.1746 41.3803L40.5561 47.8279C40.6444 48.0045 40.5787 48.2164 40.4098 48.3022C40.2403 48.3911 40.0251 48.3234 39.9374 48.1579L32.6697 34.3244C32.3167 33.6483 31.6244 33.2334 30.8621 33.2334C30.5327 33.2334 30.2034 33.3146 29.911 33.4679C28.9153 33.992 28.5313 35.2311 29.0538 36.2267L38.9449 55.0433C38.9887 55.1219 38.9965 55.2193 38.9675 55.3061C38.9424 55.3963 38.8792 55.4691 38.7961 55.5092C38.6331 55.6 38.4139 55.5285 38.3264 55.3668L33.4138 46.0186L34.1627 55.7185C34.1764 56.856 34.6144 59.1727 36.2359 59.8243L46.2226 61.9999L58.5582 55.519L58.6105 55.3657C58.8985 54.5362 57.9151 51.4732 56.904 49.555L56.9036 49.5543Z" fill="#FB441C"/>
<path d="M31.6911 49.4158H16.2198V10.3553H41.0758V35.3671C41.2201 35.2653 41.3407 35.139 41.5025 35.0564C42.3634 34.6104 43.3895 34.5028 44.3001 34.7199L44.2999 9.8499C44.3005 6.62625 41.6758 4 38.45 4H18.8483C15.6223 4 13 6.62598 13 9.8499V53.4693C13 56.6934 15.6222 59.3198 18.8483 59.3198H32.9787C32.4425 58.221 32.2086 56.97 32.1944 55.8979L31.6911 49.4158ZM25.736 5.86892H31.5628C32.2163 5.86892 32.7304 6.50622 32.7304 7.32353C32.7304 8.1381 32.2154 8.77604 31.5628 8.77604H25.736C25.0806 8.77604 24.5663 8.1381 24.5663 7.32353C24.5665 6.50686 25.0806 5.86892 25.736 5.86892ZM28.6469 57.2044C26.9869 57.2044 25.634 55.8537 25.634 54.1916C25.634 52.5323 26.9867 51.1787 28.6469 51.1787C30.3062 51.1787 31.6597 52.532 31.6597 54.1916C31.6591 55.8536 30.3065 57.2044 28.6469 57.2044Z" fill="#FB441C"/>
</svg>
