<svg width="65" height="66" viewBox="0 0 65 66" fill="none" xmlns="http://www.w3.org/2000/svg">
<path d="M31.9969 7.69995C21.6844 7.69995 13.2969 16.0875 13.2969 26.4C13.2969 33.5371 17.3359 39.7503 23.2313 42.9H40.7625C46.6578 39.7503 50.6969 33.5371 50.6969 26.4C50.6969 16.0875 42.3094 7.69995 31.9969 7.69995ZM42.9969 26.4C43.6027 26.4 44.0969 26.8941 44.0969 27.5C44.0969 28.1058 43.6027 28.6 42.9969 28.6C42.391 28.6 41.8969 28.1058 41.8969 27.5C41.8969 26.8941 42.391 26.4 42.9969 26.4ZM39.6969 29.7C40.3027 29.7 40.7969 30.1941 40.7969 30.8C40.7969 31.4058 40.3027 31.9 39.6969 31.9C39.091 31.9 38.5969 31.4058 38.5969 30.8C38.5969 30.1941 39.091 29.7 39.6969 29.7ZM44.0969 30.8C44.7027 30.8 45.1969 31.2941 45.1969 31.9C45.1969 32.5058 44.7027 33 44.0969 33C43.491 33 42.9969 32.5058 42.9969 31.9C42.9969 31.2941 43.491 30.8 44.0969 30.8ZM36.3969 33C37.0027 33 37.4969 33.4941 37.4969 34.1C37.4969 34.7058 37.0027 35.2 36.3969 35.2C35.791 35.2 35.2969 34.7058 35.2969 34.1C35.2969 33.4941 35.791 33 36.3969 33ZM40.7969 34.1C41.4027 34.1 41.8969 34.5941 41.8969 35.2C41.8969 35.8058 41.4027 36.3 40.7969 36.3C40.191 36.3 39.6969 35.8058 39.6969 35.2C39.6969 34.5941 40.191 34.1 40.7969 34.1ZM33.0969 36.3C33.7027 36.3 34.1969 36.7941 34.1969 37.4C34.1969 38.0058 33.7027 38.5 33.0969 38.5C32.491 38.5 31.9969 38.0058 31.9969 37.4C31.9969 36.7941 32.491 36.3 33.0969 36.3ZM37.4969 37.4C38.1027 37.4 38.5969 37.8941 38.5969 38.5C38.5969 39.1058 38.1027 39.6 37.4969 39.6C36.891 39.6 36.3969 39.1058 36.3969 38.5C36.3969 37.8941 36.891 37.4 37.4969 37.4ZM23.1969 45.1C22.591 45.1 22.0969 45.5898 22.0969 46.2C22.0969 46.6726 22.402 47.0808 22.8531 47.2312C26.3508 48.4 29.7969 51.657 29.7969 55.3437V56.1H14.9469C14.9125 56.1 14.8781 56.1 14.8438 56.1C14.2379 56.13 13.7652 56.6457 13.7953 57.2515C13.8254 57.8574 14.341 58.33 14.9469 58.3H49.0469C49.4422 58.3042 49.8117 58.098 50.0137 57.7542C50.2113 57.4105 50.2113 56.9894 50.0137 56.6457C49.8117 56.3019 49.4422 56.0957 49.0469 56.1H34.1969V55.3437C34.1969 51.657 37.643 48.4 41.1406 47.2312C41.5918 47.0808 41.8969 46.6726 41.8969 46.2C41.8969 45.5898 41.407 45.1 40.7969 45.1H23.1969Z" fill="#63AEF7"/>
</svg>
