<svg width="65" height="66" viewBox="0 0 65 66" fill="none" xmlns="http://www.w3.org/2000/svg">
<path d="M37.0504 33.5065C37.2097 33.9235 37.6768 34.1348 38.0912 33.977C38.5067 33.8178 38.7176 33.3544 38.5602 32.9382C38.1684 31.8968 37.582 30.9611 36.8157 30.1505C35.2264 28.4659 33.0729 27.541 30.7585 27.541C26.1669 27.541 22.4297 31.2761 22.4297 35.8715C22.4297 39.276 24.47 42.3094 27.6284 43.5892C27.7258 43.633 27.8281 43.6548 27.928 43.6548C28.2471 43.6548 28.5506 43.4608 28.6775 43.1476C28.8445 42.7364 28.6467 42.264 28.2355 42.0966C25.688 41.0616 24.0429 38.6179 24.0429 35.8719C24.0429 32.1657 27.0558 29.1536 30.758 29.1536C32.6269 29.1536 34.3603 29.9004 35.6435 31.2589C36.2623 31.9136 36.7348 32.6644 37.0505 33.5061L37.0504 33.5065Z" fill="#D7AC5B"/>
<path d="M30.7534 32.1456C31.8348 32.1456 32.8568 32.6128 33.5676 33.4287C33.8596 33.7645 34.3706 33.7972 34.705 33.5054C35.0394 33.2155 35.0736 32.7083 34.7837 32.3699C33.7681 31.2054 32.3001 30.5352 30.7534 30.5352C27.8136 30.5352 25.4219 32.9266 25.4219 35.8698C25.4219 37.3624 26.0561 38.7981 27.1568 39.8061C27.312 39.9467 27.506 40.0176 27.7007 40.0176C27.9178 40.0176 28.139 39.9293 28.2963 39.7547C28.5967 39.4279 28.5734 38.9168 28.2428 38.6154C27.4746 37.9137 27.0364 36.911 27.0364 35.8694C27.0357 33.8171 28.7028 32.1456 30.7534 32.1456Z" fill="#D7AC5B"/>
<path d="M56.9036 50.0543L49.6337 36.2177C49.2807 35.5449 48.5884 35.1247 47.8242 35.1247C47.4967 35.1247 47.1661 35.2053 46.8762 35.3605C46.0197 35.8077 45.6144 36.7841 45.8464 37.6817L45.7948 37.7004L48.7881 43.3951C48.8301 43.4756 48.8379 43.5717 48.8114 43.6579C48.7825 43.7481 48.7225 43.8237 48.6419 43.8654C48.4762 43.9537 48.2572 43.8841 48.1714 43.7179L45.1682 38.0082C44.8151 37.3295 44.1197 36.9152 43.3587 36.9152C43.0281 36.9152 42.7014 36.9958 42.4094 37.1472C41.9267 37.3992 41.5715 37.8296 41.4098 38.3497C41.2468 38.8729 41.2984 39.4259 41.5277 39.8389L44.536 45.6254C44.6268 45.7968 44.5611 46.0083 44.3916 46.0979C44.2267 46.1843 44.0094 46.1153 43.9226 45.9504L40.8273 40.065C40.4742 39.3929 39.7826 38.974 39.0177 38.974C38.689 38.974 38.3624 39.0552 38.0704 39.2085C37.5858 39.4624 37.2325 39.8903 37.0689 40.411C36.9214 40.8853 36.9497 41.3892 37.1746 41.8803L40.5561 48.3279C40.6444 48.5045 40.5787 48.7164 40.4098 48.8022C40.2403 48.8911 40.0251 48.8234 39.9374 48.6579L32.6697 34.8244C32.3167 34.1483 31.6244 33.7334 30.8621 33.7334C30.5327 33.7334 30.2034 33.8146 29.911 33.9679C28.9153 34.492 28.5313 35.7311 29.0538 36.7267L38.9449 55.5433C38.9887 55.6219 38.9965 55.7193 38.9675 55.8061C38.9424 55.8963 38.8792 55.9691 38.7961 56.0092C38.6331 56.1 38.4139 56.0285 38.3264 55.8668L33.4138 46.5186L34.1627 56.2185C34.1764 57.356 34.6144 59.6727 36.2359 60.3243L46.2226 62.4999L58.5582 56.019L58.6105 55.8657C58.8985 55.0362 57.9151 51.9732 56.904 50.055L56.9036 50.0543Z" fill="#D7AC5B"/>
<path d="M31.6911 49.9158H16.2198V10.8553H41.0758V35.8671C41.2201 35.7653 41.3407 35.639 41.5025 35.5564C42.3634 35.1104 43.3895 35.0028 44.3001 35.2199L44.2999 10.3499C44.3005 7.12625 41.6758 4.5 38.45 4.5H18.8483C15.6223 4.5 13 7.12598 13 10.3499V53.9693C13 57.1934 15.6222 59.8198 18.8483 59.8198H32.9787C32.4425 58.721 32.2086 57.47 32.1944 56.3979L31.6911 49.9158ZM25.736 6.36892H31.5628C32.2163 6.36892 32.7304 7.00622 32.7304 7.82353C32.7304 8.6381 32.2154 9.27604 31.5628 9.27604H25.736C25.0806 9.27604 24.5663 8.6381 24.5663 7.82353C24.5665 7.00686 25.0806 6.36892 25.736 6.36892ZM28.6469 57.7044C26.9869 57.7044 25.634 56.3537 25.634 54.6916C25.634 53.0323 26.9867 51.6787 28.6469 51.6787C30.3062 51.6787 31.6597 53.032 31.6597 54.6916C31.6591 56.3536 30.3065 57.7044 28.6469 57.7044Z" fill="#D7AC5B"/>
</svg>
