<svg width="2645" height="157" viewBox="0 0 2645 157" fill="none" xmlns="http://www.w3.org/2000/svg">
<path opacity="0.2" d="M0.390001 152H-0.109999V152.5H0.390001V152ZM0.390001 4.99999V4.49999H-0.109999V4.99999H0.390001ZM37.14 4.99999H37.64V4.49999H37.14V4.99999ZM37.14 119.24H36.64V119.74H37.14V119.24ZM103.5 119.24H104V118.74H103.5V119.24ZM103.5 152V152.5H104V152H103.5ZM0.890001 152V4.99999H-0.109999V152H0.890001ZM0.390001 5.49999H37.14V4.49999H0.390001V5.49999ZM36.64 4.99999V119.24H37.64V4.99999H36.64ZM37.14 119.74H103.5V118.74H37.14V119.74ZM103 119.24V152H104V119.24H103ZM103.5 151.5H0.390001V152.5H103.5V151.5ZM115.839 4.99999V4.49999H115.339V4.99999H115.839ZM152.589 4.99999H153.089V4.49999H152.589V4.99999ZM204.459 4.99999V4.49999H203.959V4.99999H204.459ZM241.209 4.99999H241.709V4.49999H241.209V4.99999ZM116.339 95.3V4.99999H115.339V95.3H116.339ZM115.839 5.49999H152.589V4.49999H115.839V5.49999ZM152.089 4.99999V92.57H153.089V4.99999H152.089ZM152.089 92.57C152.089 103.127 154.304 110.933 158.773 116.102C163.255 121.286 169.926 123.73 178.629 123.73V122.73C170.113 122.73 163.763 120.344 159.53 115.448C155.284 110.537 153.089 103.013 153.089 92.57H152.089ZM178.629 123.73C187.336 123.73 193.954 121.231 198.383 116.02C202.797 110.825 204.959 103.021 204.959 92.57H203.959C203.959 102.909 201.816 110.435 197.621 115.372C193.439 120.294 187.143 122.73 178.629 122.73V123.73ZM204.959 92.57V4.99999H203.959V92.57H204.959ZM204.459 5.49999H241.209V4.49999H204.459V5.49999ZM240.709 4.99999V95.3H241.709V4.99999H240.709ZM240.709 95.3C240.709 114.625 234.966 129.654 224.377 139.854C213.786 150.056 198.28 155.49 178.629 155.49V156.49C198.459 156.49 214.243 151.004 225.071 140.574C235.902 130.141 241.709 114.825 241.709 95.3H240.709ZM178.629 155.49C158.979 155.49 143.42 150.056 132.775 139.853C122.134 129.653 116.339 114.624 116.339 95.3H115.339C115.339 114.826 121.199 130.142 132.083 140.575C142.964 151.004 158.8 156.49 178.629 156.49V155.49ZM337.796 1.00999L337.792 1.50997L337.793 1.50998L337.796 1.00999ZM406.046 52.04L406.178 52.5222L406.632 52.3976L406.535 51.9368L406.046 52.04ZM371.606 61.49L371.123 61.6206L371.254 62.1049L371.738 61.9722L371.606 61.49ZM372.446 92.57L372.566 92.0846L372.068 91.9617L371.958 92.4621L372.446 92.57ZM407.306 101.18L407.798 101.268L407.88 100.807L407.426 100.695L407.306 101.18ZM337.796 155.99L337.793 155.49L337.792 155.49L337.796 155.99ZM260.806 78.5C260.806 37.1615 289.595 1.09269 337.792 1.50997L337.8 0.51001C288.978 0.087307 259.806 36.6785 259.806 78.5H260.806ZM337.793 1.50998C372.038 1.71879 399.103 21.5405 405.557 52.1432L406.535 51.9368C399.969 20.7995 372.434 0.721187 337.799 0.510001L337.793 1.50998ZM405.914 51.5578L371.474 61.0078L371.738 61.9722L406.178 52.5222L405.914 51.5578ZM372.089 61.3594C369.652 52.3545 365.351 45.325 359.425 40.547C353.497 35.7671 345.979 33.27 337.166 33.27V34.27C345.783 34.27 353.07 36.7079 358.797 41.3255C364.526 45.945 368.73 52.7755 371.123 61.6206L372.089 61.3594ZM337.166 33.27C325.27 33.27 315.209 37.8409 308.127 45.8014C301.05 53.7573 296.976 65.065 296.976 78.5H297.976C297.976 65.265 301.987 54.2077 308.875 46.4661C315.758 38.7291 325.542 34.27 337.166 34.27V33.27ZM296.976 78.5C296.976 91.935 301.05 103.243 308.127 111.199C315.209 119.159 325.27 123.73 337.166 123.73V122.73C325.542 122.73 315.758 118.271 308.875 110.534C301.987 102.792 297.976 91.735 297.976 78.5H296.976ZM337.166 123.73C346.299 123.73 354.137 121.02 360.251 115.76C366.361 110.504 370.711 102.734 372.934 92.6779L371.958 92.4621C369.771 102.356 365.511 109.916 359.599 115.002C353.69 120.085 346.093 122.73 337.166 122.73V123.73ZM372.326 93.0554L407.186 101.665L407.426 100.695L372.566 92.0846L372.326 93.0554ZM406.814 101.092C400.772 135.049 373.08 155.281 337.793 155.49L337.799 156.49C373.492 156.279 401.66 135.771 407.798 101.268L406.814 101.092ZM337.792 155.49C289.595 155.907 260.806 119.839 260.806 78.5H259.806C259.806 120.321 288.978 156.913 337.8 156.49L337.792 155.49ZM534.751 122.6L535.214 122.41L535.213 122.409L534.751 122.6ZM540.631 136.88L540.169 137.07L540.175 137.083L540.631 136.88ZM549.031 148.85H549.531V148.562L549.282 148.417L549.031 148.85ZM549.031 152V152.5H549.531V152H549.031ZM507.871 152L507.548 152.382L507.688 152.5H507.871V152ZM503.461 144.86L503.944 144.728L503.936 144.7L503.925 144.674L503.461 144.86ZM494.431 122.39L493.966 122.573L493.967 122.576L494.431 122.39ZM460.831 103.28V102.78H460.331V103.28H460.831ZM460.831 152V152.5H461.331V152H460.831ZM424.081 152H423.581V152.5H424.081V152ZM424.081 4.99999V4.49999H423.581V4.99999H424.081ZM501.781 86.9L501.749 86.4011L501.281 86.4318V86.9H501.781ZM501.781 97.4H501.281V97.8427L501.721 97.8963L501.781 97.4ZM460.831 71.36H460.331V71.86H460.831V71.36ZM460.831 36.92V36.42H460.331V36.92H460.831ZM534.289 122.79L540.169 137.07L541.094 136.69L535.214 122.41L534.289 122.79ZM540.175 137.083C542.681 142.723 544.627 146.878 548.781 149.283L549.282 148.417C545.456 146.202 543.622 142.377 541.088 136.677L540.175 137.083ZM548.531 148.85V152H549.531V148.85H548.531ZM549.031 151.5H507.871V152.5H549.031V151.5ZM508.194 151.618C505.567 149.395 504.558 146.98 503.944 144.728L502.979 144.992C503.625 147.36 504.715 149.985 507.548 152.382L508.194 151.618ZM503.925 144.674L494.895 122.204L493.967 122.576L502.997 145.046L503.925 144.674ZM494.897 122.207C491.96 114.759 489.508 109.871 486.072 106.867C482.603 103.835 478.202 102.78 471.541 102.78V103.78C478.11 103.78 482.215 104.825 485.414 107.62C488.645 110.444 491.023 115.111 493.966 122.573L494.897 122.207ZM471.541 102.78H460.831V103.78H471.541V102.78ZM460.331 103.28V152H461.331V103.28H460.331ZM460.831 151.5H424.081V152.5H460.831V151.5ZM424.581 152V4.99999H423.581V152H424.581ZM424.081 5.49999H501.991V4.49999H424.081V5.49999ZM501.991 5.49999C516.08 5.49999 527.076 9.30837 534.546 16.106C542.01 22.8984 546.011 32.729 546.011 44.9H547.011C547.011 32.501 542.928 22.3816 535.219 15.3664C527.516 8.35661 516.253 4.49999 501.991 4.49999V5.49999ZM546.011 44.9C546.011 58.4484 542.055 68.325 534.6 75.0577C527.131 81.8034 516.076 85.4598 501.749 86.4011L501.814 87.3989C516.257 86.4502 527.567 82.7566 535.27 75.7998C542.988 68.83 547.011 58.6516 547.011 44.9H546.011ZM501.281 86.9V97.4H502.281V86.9H501.281ZM501.721 97.8963C510.34 98.9475 516.312 100.043 521.212 103.404C526.104 106.759 529.995 112.423 534.289 122.791L535.213 122.409C530.897 111.987 526.914 106.101 521.778 102.579C516.651 99.0622 510.443 97.9525 501.842 96.9037L501.721 97.8963ZM460.831 71.86H493.171V70.86H460.831V71.86ZM493.171 71.86C498.317 71.86 502.604 70.2497 505.605 67.1675C508.604 64.0865 510.261 59.5921 510.261 53.93H509.261C509.261 59.3979 507.664 63.6185 504.888 66.47C502.113 69.3203 498.106 70.86 493.171 70.86V71.86ZM510.261 53.93C510.261 48.1829 508.824 43.7832 505.918 40.8223C503.01 37.8596 498.713 36.42 493.171 36.42V37.42C498.55 37.42 502.547 38.8153 505.205 41.5227C507.863 44.2318 509.261 48.3371 509.261 53.93H510.261ZM493.171 36.42H460.831V37.42H493.171V36.42ZM460.331 36.92V71.36H461.331V36.92H460.331ZM704.22 152V152.5H704.941L704.688 151.825L704.22 152ZM666.21 152L665.737 152.164L665.854 152.5H666.21V152ZM658.65 130.16L659.122 129.996L659.006 129.66H658.65V130.16ZM597.96 130.16V129.66H597.604L597.487 129.996L597.96 130.16ZM590.4 152V152.5H590.756L590.872 152.164L590.4 152ZM552.18 152L551.711 151.825L551.459 152.5H552.18V152ZM607.2 4.99999V4.49999H606.853L606.731 4.82472L607.2 4.99999ZM649.2 4.99999L649.668 4.82472L649.547 4.49999H649.2V4.99999ZM614.76 81.65L615.232 81.8152L615.233 81.8105L614.76 81.65ZM608.88 98.45L608.408 98.2848L608.175 98.95H608.88V98.45ZM647.73 98.45V98.95H648.435L648.202 98.2848L647.73 98.45ZM641.85 81.65L641.376 81.8105L641.378 81.8152L641.85 81.65ZM634.71 42.8L635.208 42.7608L635.172 42.3H634.71V42.8ZM621.9 42.8V42.3H621.438L621.401 42.7608L621.9 42.8ZM704.22 151.5H666.21V152.5H704.22V151.5ZM666.682 151.836L659.122 129.996L658.177 130.324L665.737 152.164L666.682 151.836ZM658.65 129.66H597.96V130.66H658.65V129.66ZM597.487 129.996L589.927 151.836L590.872 152.164L598.432 130.324L597.487 129.996ZM590.4 151.5H552.18V152.5H590.4V151.5ZM552.648 152.175L607.668 5.17526L606.731 4.82472L551.711 151.825L552.648 152.175ZM607.2 5.49999H649.2V4.49999H607.2V5.49999ZM648.731 5.17526L703.751 152.175L704.688 151.825L649.668 4.82472L648.731 5.17526ZM614.288 81.4848L608.408 98.2848L609.352 98.6152L615.232 81.8152L614.288 81.4848ZM608.88 98.95H647.73V97.95H608.88V98.95ZM648.202 98.2848L642.322 81.4848L641.378 81.8152L647.258 98.6152L648.202 98.2848ZM642.323 81.4895C638.141 69.1504 636.676 61.424 635.208 42.7608L634.211 42.8392C635.683 61.556 637.159 69.3695 641.376 81.8105L642.323 81.4895ZM634.71 42.3H621.9V43.3H634.71V42.3ZM621.401 42.7608C619.933 61.424 618.469 69.1504 614.286 81.4895L615.233 81.8105C619.451 69.3695 620.926 61.556 622.398 42.8392L621.401 42.7608ZM799.643 70.1L799.905 70.5262L800.427 70.2057L800.008 69.7583L799.643 70.1ZM839.543 70.73L839.509 70.2312L839.088 70.2601L839.046 70.6802L839.543 70.73ZM838.703 79.13L838.206 79.0802L838.164 79.496L838.566 79.6108L838.703 79.13ZM862.853 90.89L863.135 90.4765L863.131 90.474L862.853 90.89ZM868.103 94.46L867.822 94.8735L868.228 95.1495L868.512 94.7487L868.103 94.46ZM880.493 68.42L880.652 67.946L880.161 67.781L880.014 68.2783L880.493 68.42ZM913.043 79.34L913.517 79.5005L913.678 79.0255L913.202 78.866L913.043 79.34ZM886.793 103.07L886.713 102.577L886.426 102.624L886.325 102.896L886.793 103.07ZM884.693 108.74L884.225 108.566L884.117 108.857L884.33 109.083L884.693 108.74ZM907.373 152V152.5H907.937L907.87 151.941L907.373 152ZM869.993 152L869.504 152.104L869.588 152.5H869.993V152ZM863.903 133.1L864.366 132.91L864.238 132.6H863.903V133.1ZM857.603 133.1V132.6H857.266L857.14 132.913L857.603 133.1ZM830.513 56.87L830.23 57.282L830.511 57.4752L830.794 57.2841L830.513 56.87ZM844.793 114.2L845.179 114.518L845.472 114.163L845.142 113.842L844.793 114.2ZM819.803 89.84L820.152 89.482L819.842 89.1794L819.499 89.4437L819.803 89.84ZM769.273 115.46C769.273 93.0565 784.187 80.1665 799.905 70.5262L799.382 69.6738C783.6 79.3535 768.273 92.5035 768.273 115.46H769.273ZM800.008 69.7583C790.804 59.9264 784.813 49.9642 784.813 37.97H783.813C783.813 50.3358 790.003 60.5336 799.278 70.4417L800.008 69.7583ZM784.813 37.97C784.813 27.3165 789.514 18.2718 797.72 11.8781C805.934 5.47761 817.683 1.71999 831.773 1.71999V0.719989C817.514 0.719989 805.533 4.52237 797.105 11.0893C788.668 17.6632 783.813 26.9934 783.813 37.97H784.813ZM831.773 1.71999C845.549 1.71999 856.771 5.37268 864.537 11.5598C872.294 17.7399 876.633 26.4692 876.633 36.71H877.633C877.633 26.1608 873.153 17.1451 865.16 10.7777C857.176 4.4173 845.718 0.719989 831.773 0.719989V1.71999ZM876.633 36.71C876.633 56.0985 860.766 68.7724 839.509 70.2312L839.578 71.2288C861.161 69.7476 877.633 56.8015 877.633 36.71H876.633ZM839.046 70.6802L838.206 79.0802L839.201 79.1798L840.041 70.7797L839.046 70.6802ZM838.566 79.6108C845.853 81.6926 855.045 86.2855 862.576 91.306L863.131 90.474C855.542 85.4145 846.254 80.7674 838.841 78.6492L838.566 79.6108ZM862.572 91.3035L867.822 94.8735L868.385 94.0465L863.135 90.4765L862.572 91.3035ZM868.512 94.7487C874.639 86.086 878.23 77.844 880.973 68.5617L880.014 68.2783C877.296 77.476 873.748 85.614 867.695 94.1713L868.512 94.7487ZM880.334 68.894L912.884 79.814L913.202 78.866L880.652 67.946L880.334 68.894ZM912.57 79.1795C908.421 91.4181 898.057 100.72 886.713 102.577L886.874 103.563C898.63 101.64 909.266 92.0419 913.517 79.5005L912.57 79.1795ZM886.325 102.896L884.225 108.566L885.162 108.914L887.262 103.244L886.325 102.896ZM884.33 109.083C897.927 123.517 905.213 138.122 906.877 152.059L907.87 151.941C906.174 137.738 898.76 122.943 885.057 108.397L884.33 109.083ZM907.373 151.5H869.993V152.5H907.373V151.5ZM870.483 151.896C869.003 144.922 865.84 136.489 864.366 132.91L863.441 133.29C864.907 136.851 868.044 145.218 869.504 152.104L870.483 151.896ZM863.903 132.6H857.603V133.6H863.903V132.6ZM857.14 132.913C851.159 147.761 833.776 155.7 814.343 155.7V156.7C833.971 156.7 851.868 148.679 858.067 133.287L857.14 132.913ZM814.343 155.7C800.789 155.7 789.523 151.739 781.653 144.749C773.789 137.764 769.273 127.719 769.273 115.46H768.273C768.273 127.981 772.893 138.306 780.989 145.496C789.079 152.681 800.598 156.7 814.343 156.7V155.7ZM817.623 38.39C817.623 43.4163 820.043 50.2782 830.23 57.282L830.797 56.458C820.824 49.6018 818.623 43.0237 818.623 38.39H817.623ZM830.794 57.2841C834.372 54.8637 837.726 52.3129 840.187 49.4242C842.654 46.5277 844.243 43.267 844.243 39.44H843.243C843.243 42.963 841.788 46.0023 839.425 48.7758C837.056 51.5571 833.795 54.0463 830.233 56.4559L830.794 57.2841ZM844.243 39.44C844.243 35.4366 842.887 32.2488 840.483 30.0661C838.086 27.8892 834.7 26.76 830.723 26.76V27.76C834.517 27.76 837.641 28.8358 839.811 30.8064C841.975 32.7712 843.243 35.6734 843.243 39.44H844.243ZM830.723 26.76C823.59 26.76 817.623 31.5368 817.623 38.39H818.623C818.623 32.2232 823.997 27.76 830.723 27.76V26.76ZM805.233 109.79C805.233 113.882 806.526 117.9 809.388 120.898C812.256 123.902 816.649 125.83 822.743 125.83V124.83C816.868 124.83 812.756 122.978 810.111 120.207C807.461 117.43 806.233 113.678 806.233 109.79H805.233ZM822.743 125.83C831.737 125.83 839.221 121.753 845.179 114.518L844.407 113.882C838.606 120.927 831.39 124.83 822.743 124.83V125.83ZM845.142 113.842L820.152 89.482L819.454 90.198L844.444 114.558L845.142 113.842ZM819.499 89.4437C811.343 95.7171 805.233 100.689 805.233 109.79H806.233C806.233 101.251 811.884 96.5629 820.108 90.2363L819.499 89.4437ZM982.099 152H981.599V152.5H982.099V152ZM982.099 4.99999V4.49999H981.599V4.99999H982.099ZM1086.68 4.99999H1087.18V4.49999H1086.68V4.99999ZM1086.68 37.55V38.05H1087.18V37.55H1086.68ZM1018.85 37.55V37.05H1018.35V37.55H1018.85ZM1018.85 70.52H1018.35V71.02H1018.85V70.52ZM1084.37 70.52H1084.87V70.02H1084.37V70.52ZM1084.37 101.6V102.1H1084.87V101.6H1084.37ZM1018.85 101.6V101.1H1018.35V101.6H1018.85ZM1018.85 152V152.5H1019.35V152H1018.85ZM982.599 152V4.99999H981.599V152H982.599ZM982.099 5.49999H1086.68V4.49999H982.099V5.49999ZM1086.18 4.99999V37.55H1087.18V4.99999H1086.18ZM1086.68 37.05H1018.85V38.05H1086.68V37.05ZM1018.35 37.55V70.52H1019.35V37.55H1018.35ZM1018.85 71.02H1084.37V70.02H1018.85V71.02ZM1083.87 70.52V101.6H1084.87V70.52H1083.87ZM1084.37 101.1H1018.85V102.1H1084.37V101.1ZM1018.35 101.6V152H1019.35V101.6H1018.35ZM1018.85 151.5H982.099V152.5H1018.85V151.5ZM1105.61 152H1105.11V152.5H1105.61V152ZM1105.61 4.99999V4.49999H1105.11V4.99999H1105.61ZM1142.36 4.99999H1142.86V4.49999H1142.36V4.99999ZM1142.36 152V152.5H1142.86V152H1142.36ZM1106.11 152V4.99999H1105.11V152H1106.11ZM1105.61 5.49999H1142.36V4.49999H1105.61V5.49999ZM1141.86 4.99999V152H1142.86V4.99999H1141.86ZM1142.36 151.5H1105.61V152.5H1142.36V151.5ZM1157.36 4.99999V4.49999H1156.64L1156.89 5.1776L1157.36 4.99999ZM1196.84 4.99999L1197.31 4.84145L1197.2 4.49999H1196.84V4.99999ZM1220.36 75.35L1220.83 75.1919L1220.83 75.1915L1220.36 75.35ZM1228.55 114.2L1228.05 114.242L1228.09 114.7H1228.55V114.2ZM1241.15 114.2V114.7H1241.61L1241.65 114.244L1241.15 114.2ZM1249.34 75.35L1248.87 75.1927L1248.86 75.1963L1249.34 75.35ZM1272.65 4.99999V4.49999H1272.29L1272.18 4.84273L1272.65 4.99999ZM1312.34 4.99999L1312.81 5.17701L1313.06 4.49999H1312.34V4.99999ZM1256.69 152V152.5H1257.04L1257.16 152.177L1256.69 152ZM1213.22 152L1212.75 152.178L1212.88 152.5H1213.22V152ZM1157.36 5.49999H1196.84V4.49999H1157.36V5.49999ZM1196.37 5.15853L1219.89 75.5085L1220.83 75.1915L1197.31 4.84145L1196.37 5.15853ZM1219.89 75.5081C1225.33 91.8446 1227.21 104.405 1228.05 114.242L1229.05 114.158C1228.21 104.255 1226.31 91.6154 1220.83 75.1919L1219.89 75.5081ZM1228.55 114.7H1241.15V113.7H1228.55V114.7ZM1241.65 114.244C1242.69 102.315 1245.42 89.1224 1249.82 75.5037L1248.86 75.1963C1244.44 88.8776 1241.71 102.145 1240.65 114.156L1241.65 114.244ZM1249.82 75.5073L1273.13 5.15725L1272.18 4.84273L1248.87 75.1927L1249.82 75.5073ZM1272.65 5.49999H1312.34V4.49999H1272.65V5.49999ZM1311.87 4.82296L1256.22 151.823L1257.16 152.177L1312.81 5.17701L1311.87 4.82296ZM1256.69 151.5H1213.22V152.5H1256.69V151.5ZM1213.69 151.822L1157.83 4.82238L1156.89 5.1776L1212.75 152.178L1213.69 151.822ZM1361.74 92.57V92.07H1361.24V92.57H1361.74ZM1361.74 119.45H1361.24V119.95H1361.74V119.45ZM1432.72 119.45H1433.22V118.95H1432.72V119.45ZM1432.72 152V152.5H1433.22V152H1432.72ZM1324.99 152H1324.49V152.5H1324.99V152ZM1324.99 4.99999V4.49999H1324.49V4.99999H1324.99ZM1432.51 4.99999H1433.01V4.49999H1432.51V4.99999ZM1432.51 37.55V38.05H1433.01V37.55H1432.51ZM1361.74 37.55V37.05H1361.24V37.55H1361.74ZM1361.74 62.54H1361.24V63.04H1361.74V62.54ZM1426 62.54H1426.5V62.04H1426V62.54ZM1426 92.57V93.07H1426.5V92.57H1426ZM1361.24 92.57V119.45H1362.24V92.57H1361.24ZM1361.74 119.95H1432.72V118.95H1361.74V119.95ZM1432.22 119.45V152H1433.22V119.45H1432.22ZM1432.72 151.5H1324.99V152.5H1432.72V151.5ZM1325.49 152V4.99999H1324.49V152H1325.49ZM1324.99 5.49999H1432.51V4.49999H1324.99V5.49999ZM1432.01 4.99999V37.55H1433.01V4.99999H1432.01ZM1432.51 37.05H1361.74V38.05H1432.51V37.05ZM1361.24 37.55V62.54H1362.24V37.55H1361.24ZM1361.74 63.04H1426V62.04H1361.74V63.04ZM1425.5 62.54V92.57H1426.5V62.54H1425.5ZM1426 92.07H1361.74V93.07H1426V92.07ZM1507.56 152H1507.06V152.5H1507.56V152ZM1507.56 4.99999V4.49999H1507.06V4.99999H1507.56ZM1544.31 4.99999H1544.81V4.49999H1544.31V4.99999ZM1544.31 152V152.5H1544.81V152H1544.31ZM1508.06 152V4.99999H1507.06V152H1508.06ZM1507.56 5.49999H1544.31V4.49999H1507.56V5.49999ZM1543.81 4.99999V152H1544.81V4.99999H1543.81ZM1544.31 151.5H1507.56V152.5H1544.31V151.5ZM1682.16 122.6L1682.63 122.41L1682.63 122.409L1682.16 122.6ZM1688.04 136.88L1687.58 137.07L1687.59 137.083L1688.04 136.88ZM1696.44 148.85H1696.94V148.562L1696.69 148.417L1696.44 148.85ZM1696.44 152V152.5H1696.94V152H1696.44ZM1655.28 152L1654.96 152.382L1655.1 152.5H1655.28V152ZM1650.87 144.86L1651.36 144.728L1651.35 144.7L1651.34 144.674L1650.87 144.86ZM1641.84 122.39L1641.38 122.573L1641.38 122.576L1641.84 122.39ZM1608.24 103.28V102.78H1607.74V103.28H1608.24ZM1608.24 152V152.5H1608.74V152H1608.24ZM1571.49 152H1570.99V152.5H1571.49V152ZM1571.49 4.99999V4.49999H1570.99V4.99999H1571.49ZM1649.19 86.9L1649.16 86.4011L1648.69 86.4318V86.9H1649.19ZM1649.19 97.4H1648.69V97.8427L1649.13 97.8963L1649.19 97.4ZM1608.24 71.36H1607.74V71.86H1608.24V71.36ZM1608.24 36.92V36.42H1607.74V36.92H1608.24ZM1681.7 122.79L1687.58 137.07L1688.51 136.69L1682.63 122.41L1681.7 122.79ZM1687.59 137.083C1690.09 142.723 1692.04 146.878 1696.19 149.283L1696.69 148.417C1692.87 146.202 1691.03 142.377 1688.5 136.677L1687.59 137.083ZM1695.94 148.85V152H1696.94V148.85H1695.94ZM1696.44 151.5H1655.28V152.5H1696.44V151.5ZM1655.61 151.618C1652.98 149.395 1651.97 146.98 1651.36 144.728L1650.39 144.992C1651.04 147.36 1652.13 149.985 1654.96 152.382L1655.61 151.618ZM1651.34 144.674L1642.31 122.204L1641.38 122.576L1650.41 145.046L1651.34 144.674ZM1642.31 122.207C1639.37 114.759 1636.92 109.871 1633.48 106.867C1630.01 103.835 1625.61 102.78 1618.95 102.78V103.78C1625.52 103.78 1629.63 104.825 1632.83 107.62C1636.06 110.444 1638.44 115.111 1641.38 122.573L1642.31 122.207ZM1618.95 102.78H1608.24V103.78H1618.95V102.78ZM1607.74 103.28V152H1608.74V103.28H1607.74ZM1608.24 151.5H1571.49V152.5H1608.24V151.5ZM1571.99 152V4.99999H1570.99V152H1571.99ZM1571.49 5.49999H1649.4V4.49999H1571.49V5.49999ZM1649.4 5.49999C1663.49 5.49999 1674.49 9.30837 1681.96 16.106C1689.42 22.8984 1693.42 32.729 1693.42 44.9H1694.42C1694.42 32.501 1690.34 22.3816 1682.63 15.3664C1674.93 8.35661 1663.67 4.49999 1649.4 4.49999V5.49999ZM1693.42 44.9C1693.42 58.4484 1689.47 68.325 1682.01 75.0577C1674.54 81.8034 1663.49 85.4598 1649.16 86.4011L1649.23 87.3989C1663.67 86.4502 1674.98 82.7566 1682.68 75.7998C1690.4 68.83 1694.42 58.6516 1694.42 44.9H1693.42ZM1648.69 86.9V97.4H1649.69V86.9H1648.69ZM1649.13 97.8963C1657.75 98.9475 1663.72 100.043 1668.62 103.404C1673.52 106.759 1677.41 112.423 1681.7 122.791L1682.63 122.409C1678.31 111.987 1674.33 106.101 1669.19 102.579C1664.06 99.0622 1657.85 97.9525 1649.25 96.9037L1649.13 97.8963ZM1608.24 71.86H1640.58V70.86H1608.24V71.86ZM1640.58 71.86C1645.73 71.86 1650.02 70.2497 1653.02 67.1675C1656.02 64.0865 1657.67 59.5921 1657.67 53.93H1656.67C1656.67 59.3979 1655.08 63.6185 1652.3 66.47C1649.53 69.3203 1645.52 70.86 1640.58 70.86V71.86ZM1657.67 53.93C1657.67 48.1829 1656.24 43.7832 1653.33 40.8223C1650.42 37.8596 1646.13 36.42 1640.58 36.42V37.42C1645.96 37.42 1649.96 38.8153 1652.62 41.5227C1655.28 44.2318 1656.67 48.3371 1656.67 53.93H1657.67ZM1640.58 36.42H1608.24V37.42H1640.58V36.42ZM1607.74 36.92V71.36H1608.74V36.92H1607.74ZM1704.76 78.5C1704.76 34.0443 1737.3 1.50999 1781.33 1.50999V0.509991C1736.74 0.509991 1703.76 33.4957 1703.76 78.5H1704.76ZM1781.33 1.50999C1825.15 1.50999 1857.69 34.0434 1857.69 78.5H1858.69C1858.69 33.4966 1825.71 0.509991 1781.33 0.509991V1.50999ZM1857.69 78.5C1857.69 122.957 1825.15 155.49 1781.33 155.49V156.49C1825.71 156.49 1858.69 123.503 1858.69 78.5H1857.69ZM1781.33 155.49C1737.3 155.49 1704.76 122.956 1704.76 78.5H1703.76C1703.76 123.504 1736.74 156.49 1781.33 156.49V155.49ZM1740.93 78.5C1740.93 91.935 1745 103.243 1752.11 111.199C1759.22 119.16 1769.33 123.73 1781.33 123.73V122.73C1769.6 122.73 1759.76 118.27 1752.86 110.533C1745.94 102.792 1741.93 91.735 1741.93 78.5H1740.93ZM1781.33 123.73C1794.17 123.73 1804.24 118.842 1811.09 110.716C1817.93 102.6 1821.52 91.2943 1821.52 78.5H1820.52C1820.52 91.1157 1816.98 102.175 1810.32 110.072C1803.68 117.958 1793.9 122.73 1781.33 122.73V123.73ZM1821.52 78.5C1821.52 65.3895 1817.82 54.0824 1810.93 46.0445C1804.03 37.9978 1793.96 33.27 1781.33 33.27V34.27C1793.69 34.27 1803.47 38.8872 1810.17 46.6955C1816.87 54.5126 1820.52 65.5704 1820.52 78.5H1821.52ZM1781.33 33.27C1768.71 33.27 1758.59 37.8362 1751.63 45.8049C1744.68 53.7658 1740.93 65.0752 1740.93 78.5H1741.93C1741.93 65.2548 1745.63 54.1992 1752.39 46.4626C1759.13 38.7338 1768.96 34.27 1781.33 34.27V33.27ZM1877.47 152H1876.97V152.5H1877.47V152ZM1877.47 4.99999V4.49999H1876.97V4.99999H1877.47ZM1917.79 4.99999L1918.21 4.73411L1918.07 4.49999H1917.79V4.99999ZM1974.49 95.3L1974.07 95.5659L1974.21 95.8H1974.49V95.3ZM1974.91 95.3V95.8H1975.41V95.3H1974.91ZM1974.91 4.99999V4.49999H1974.41V4.99999H1974.91ZM2011.66 4.99999H2012.16V4.49999H2011.66V4.99999ZM2011.66 152V152.5H2012.16V152H2011.66ZM1971.34 152L1970.92 152.27L1971.07 152.5H1971.34V152ZM1914.64 63.59L1915.06 63.3201L1914.91 63.09H1914.64V63.59ZM1914.22 63.59V63.09H1913.72V63.59H1914.22ZM1914.22 152V152.5H1914.72V152H1914.22ZM1877.97 152V4.99999H1876.97V152H1877.97ZM1877.47 5.49999H1917.79V4.49999H1877.47V5.49999ZM1917.37 5.26587L1974.07 95.5659L1974.91 95.0341L1918.21 4.73411L1917.37 5.26587ZM1974.49 95.8H1974.91V94.8H1974.49V95.8ZM1975.41 95.3V4.99999H1974.41V95.3H1975.41ZM1974.91 5.49999H2011.66V4.49999H1974.91V5.49999ZM2011.16 4.99999V152H2012.16V4.99999H2011.16ZM2011.66 151.5H1971.34V152.5H2011.66V151.5ZM1971.76 151.73L1915.06 63.3201L1914.22 63.8599L1970.92 152.27L1971.76 151.73ZM1914.64 63.09H1914.22V64.09H1914.64V63.09ZM1913.72 63.59V152H1914.72V63.59H1913.72ZM1914.22 151.5H1877.47V152.5H1914.22V151.5ZM2162.38 1.00999L2162.37 1.50994L2162.37 1.50995L2162.38 1.00999ZM2230 49.94L2230.14 50.4216L2230.59 50.2938L2230.49 49.8296L2230 49.94ZM2195.35 59.6L2194.87 59.7488L2195.02 60.2119L2195.49 60.0816L2195.35 59.6ZM2198.71 100.55L2199.2 100.647L2199.21 100.599V100.55H2198.71ZM2198.71 99.5H2199.21V99H2198.71V99.5ZM2161.12 99.5H2160.62V100H2161.12V99.5ZM2161.12 72.83V72.33H2160.62V72.83H2161.12ZM2229.16 72.83H2229.66V72.33H2229.16V72.83ZM2229.16 152V152.5H2229.66V152H2229.16ZM2198.5 152H2198V152.5H2198.5V152ZM2198.5 150.95L2198.01 150.848L2198 150.898V150.95H2198.5ZM2205.64 132.68L2206.1 132.879L2206.29 132.441L2205.86 132.231L2205.64 132.68ZM2194.51 127.22L2194.73 126.771L2194.26 126.541L2194.05 127.02L2194.51 127.22ZM2085.18 80.6C2085.18 55.9383 2093.64 36.0166 2107.5 22.3396C2121.36 8.66127 2140.65 1.19668 2162.37 1.50994L2162.39 0.510043C2140.43 0.193298 2120.87 7.7437 2106.8 21.6279C2092.73 35.5134 2084.18 55.7017 2084.18 80.6H2085.18ZM2162.37 1.50995C2196.63 1.92768 2223.06 21.5467 2229.51 50.0503L2230.49 49.8296C2223.92 20.7933 2197.01 0.932314 2162.39 0.510028L2162.37 1.50995ZM2229.87 49.4584L2195.22 59.1184L2195.49 60.0816L2230.14 50.4216L2229.87 49.4584ZM2195.83 59.4512C2193.29 51.2919 2189.14 44.739 2183.35 40.2268C2177.55 35.7122 2170.14 33.27 2161.12 33.27V34.27C2169.95 34.27 2177.14 36.6578 2182.73 41.0157C2188.33 45.376 2192.38 51.7381 2194.87 59.7488L2195.83 59.4512ZM2161.12 33.27C2148.59 33.27 2138.68 38.0536 2131.91 46.2081C2125.15 54.3519 2121.56 65.8148 2121.56 79.13H2122.56C2122.56 65.9852 2126.11 54.7681 2132.68 46.8468C2139.25 38.9364 2148.87 34.27 2161.12 34.27V33.27ZM2121.56 79.13C2121.56 92.8704 2125.42 104.392 2132.61 112.485C2139.8 120.585 2150.29 125.2 2163.43 125.2V124.2C2150.54 124.2 2140.34 119.68 2133.35 111.82C2126.37 103.953 2122.56 92.6896 2122.56 79.13H2121.56ZM2163.43 125.2C2183.14 125.2 2196.41 114.797 2199.2 100.647L2198.22 100.453C2195.55 114.023 2182.78 124.2 2163.43 124.2V125.2ZM2199.21 100.55V99.5H2198.21V100.55H2199.21ZM2198.71 99H2161.12V100H2198.71V99ZM2161.62 99.5V72.83H2160.62V99.5H2161.62ZM2161.12 73.33H2229.16V72.33H2161.12V73.33ZM2228.66 72.83V152H2229.66V72.83H2228.66ZM2229.16 151.5H2198.5V152.5H2229.16V151.5ZM2199 152V150.95H2198V152H2199ZM2198.99 151.052C2199.51 148.581 2200.59 145.625 2201.9 142.48C2203.21 139.331 2204.73 136.046 2206.1 132.879L2205.18 132.481C2203.82 135.614 2202.29 138.944 2200.98 142.095C2199.67 145.25 2198.55 148.279 2198.01 150.848L2198.99 151.052ZM2205.86 132.231L2194.73 126.771L2194.29 127.669L2205.42 133.129L2205.86 132.231ZM2194.05 127.02C2190.51 135.148 2185.47 142.154 2178.45 147.13C2171.43 152.102 2162.4 155.07 2150.83 155.07V156.07C2162.58 156.07 2171.82 153.053 2179.02 147.945C2186.23 142.841 2191.37 135.672 2194.97 127.42L2194.05 127.02ZM2150.83 155.07C2129.45 155.07 2113.06 146.577 2102 133.046C2090.93 119.504 2085.18 100.881 2085.18 80.6H2084.18C2084.18 101.059 2089.98 119.921 2101.23 133.679C2112.48 147.448 2129.16 156.07 2150.83 156.07V155.07ZM2248.63 78.5C2248.63 34.0443 2281.17 1.50999 2325.2 1.50999V0.509991C2280.61 0.509991 2247.63 33.4957 2247.63 78.5H2248.63ZM2325.2 1.50999C2369.02 1.50999 2401.56 34.0434 2401.56 78.5H2402.56C2402.56 33.4966 2369.58 0.509991 2325.2 0.509991V1.50999ZM2401.56 78.5C2401.56 122.957 2369.02 155.49 2325.2 155.49V156.49C2369.58 156.49 2402.56 123.503 2402.56 78.5H2401.56ZM2325.2 155.49C2281.17 155.49 2248.63 122.956 2248.63 78.5H2247.63C2247.63 123.504 2280.61 156.49 2325.2 156.49V155.49ZM2284.8 78.5C2284.8 91.935 2288.87 103.243 2295.98 111.199C2303.09 119.16 2313.2 123.73 2325.2 123.73V122.73C2313.47 122.73 2303.63 118.27 2296.72 110.533C2289.81 102.792 2285.8 91.735 2285.8 78.5H2284.8ZM2325.2 123.73C2338.04 123.73 2348.11 118.842 2354.95 110.716C2361.79 102.6 2365.39 91.2943 2365.39 78.5H2364.39C2364.39 91.1157 2360.84 102.175 2354.19 110.072C2347.54 117.958 2337.77 122.73 2325.2 122.73V123.73ZM2365.39 78.5C2365.39 65.3895 2361.69 54.0824 2354.79 46.0445C2347.89 37.9978 2337.83 33.27 2325.2 33.27V34.27C2337.56 34.27 2347.34 38.8872 2354.03 46.6955C2360.74 54.5126 2364.39 65.5704 2364.39 78.5H2365.39ZM2325.2 33.27C2312.57 33.27 2302.46 37.8362 2295.5 45.8049C2288.55 53.7658 2284.8 65.0752 2284.8 78.5H2285.8C2285.8 65.2548 2289.5 54.1992 2296.25 46.4626C2303 38.7338 2312.83 34.27 2325.2 34.27V33.27ZM2421.34 152H2420.84V152.5H2421.34V152ZM2421.34 4.99999V4.49999H2420.84V4.99999H2421.34ZM2458.09 4.99999H2458.59V4.49999H2458.09V4.99999ZM2458.09 119.24H2457.59V119.74H2458.09V119.24ZM2524.45 119.24H2524.95V118.74H2524.45V119.24ZM2524.45 152V152.5H2524.95V152H2524.45ZM2421.84 152V4.99999H2420.84V152H2421.84ZM2421.34 5.49999H2458.09V4.49999H2421.34V5.49999ZM2457.59 4.99999V119.24H2458.59V4.99999H2457.59ZM2458.09 119.74H2524.45V118.74H2458.09V119.74ZM2523.95 119.24V152H2524.95V119.24H2523.95ZM2524.45 151.5H2421.34V152.5H2524.45V151.5ZM2539.67 152H2539.17V152.5H2539.67V152ZM2539.67 4.99999V4.49999H2539.17V4.99999H2539.67ZM2644.25 4.99999H2644.75V4.49999H2644.25V4.99999ZM2644.25 37.55V38.05H2644.75V37.55H2644.25ZM2576.42 37.55V37.05H2575.92V37.55H2576.42ZM2576.42 70.52H2575.92V71.02H2576.42V70.52ZM2641.94 70.52H2642.44V70.02H2641.94V70.52ZM2641.94 101.6V102.1H2642.44V101.6H2641.94ZM2576.42 101.6V101.1H2575.92V101.6H2576.42ZM2576.42 152V152.5H2576.92V152H2576.42ZM2540.17 152V4.99999H2539.17V152H2540.17ZM2539.67 5.49999H2644.25V4.49999H2539.67V5.49999ZM2643.75 4.99999V37.55H2644.75V4.99999H2643.75ZM2644.25 37.05H2576.42V38.05H2644.25V37.05ZM2575.92 37.55V70.52H2576.92V37.55H2575.92ZM2576.42 71.02H2641.94V70.02H2576.42V71.02ZM2641.44 70.52V101.6H2642.44V70.52H2641.44ZM2641.94 101.1H2576.42V102.1H2641.94V101.1ZM2575.92 101.6V152H2576.92V101.6H2575.92ZM2576.42 151.5H2539.67V152.5H2576.42V151.5Z" fill="#8982FF"/>
</svg>
