<svg width="2270" height="157" viewBox="0 0 2270 157" fill="none" xmlns="http://www.w3.org/2000/svg">
<path opacity="0.2" d="M0.390001 152H-0.109999V152.5H0.390001V152ZM0.390001 4.99999V4.49999H-0.109999V4.99999H0.390001ZM37.14 4.99999H37.64V4.49999H37.14V4.99999ZM37.14 119.24H36.64V119.74H37.14V119.24ZM103.5 119.24H104V118.74H103.5V119.24ZM103.5 152V152.5H104V152H103.5ZM0.890001 152V4.99999H-0.109999V152H0.890001ZM0.390001 5.49999H37.14V4.49999H0.390001V5.49999ZM36.64 4.99999V119.24H37.64V4.99999H36.64ZM37.14 119.74H103.5V118.74H37.14V119.74ZM103 119.24V152H104V119.24H103ZM103.5 151.5H0.390001V152.5H103.5V151.5ZM115.839 4.99999V4.49999H115.339V4.99999H115.839ZM152.589 4.99999H153.089V4.49999H152.589V4.99999ZM204.459 4.99999V4.49999H203.959V4.99999H204.459ZM241.209 4.99999H241.709V4.49999H241.209V4.99999ZM116.339 95.3V4.99999H115.339V95.3H116.339ZM115.839 5.49999H152.589V4.49999H115.839V5.49999ZM152.089 4.99999V92.57H153.089V4.99999H152.089ZM152.089 92.57C152.089 103.127 154.304 110.933 158.773 116.102C163.255 121.286 169.926 123.73 178.629 123.73V122.73C170.113 122.73 163.763 120.344 159.53 115.448C155.284 110.537 153.089 103.013 153.089 92.57H152.089ZM178.629 123.73C187.336 123.73 193.954 121.231 198.383 116.02C202.797 110.825 204.959 103.021 204.959 92.57H203.959C203.959 102.909 201.816 110.435 197.621 115.372C193.439 120.294 187.143 122.73 178.629 122.73V123.73ZM204.959 92.57V4.99999H203.959V92.57H204.959ZM204.459 5.49999H241.209V4.49999H204.459V5.49999ZM240.709 4.99999V95.3H241.709V4.99999H240.709ZM240.709 95.3C240.709 114.625 234.966 129.654 224.377 139.854C213.786 150.056 198.28 155.49 178.629 155.49V156.49C198.459 156.49 214.243 151.004 225.071 140.574C235.902 130.141 241.709 114.825 241.709 95.3H240.709ZM178.629 155.49C158.979 155.49 143.42 150.056 132.775 139.853C122.134 129.653 116.339 114.624 116.339 95.3H115.339C115.339 114.826 121.199 130.142 132.083 140.575C142.964 151.004 158.8 156.49 178.629 156.49V155.49ZM337.796 1.00999L337.792 1.50997L337.793 1.50998L337.796 1.00999ZM406.046 52.04L406.178 52.5222L406.632 52.3976L406.535 51.9368L406.046 52.04ZM371.606 61.49L371.123 61.6206L371.254 62.1049L371.738 61.9722L371.606 61.49ZM372.446 92.57L372.566 92.0846L372.068 91.9617L371.958 92.4621L372.446 92.57ZM407.306 101.18L407.798 101.268L407.88 100.807L407.426 100.695L407.306 101.18ZM337.796 155.99L337.793 155.49L337.792 155.49L337.796 155.99ZM260.806 78.5C260.806 37.1615 289.595 1.09269 337.792 1.50997L337.8 0.51001C288.978 0.087307 259.806 36.6785 259.806 78.5H260.806ZM337.793 1.50998C372.038 1.71879 399.103 21.5405 405.557 52.1432L406.535 51.9368C399.969 20.7995 372.434 0.721187 337.799 0.510001L337.793 1.50998ZM405.914 51.5578L371.474 61.0078L371.738 61.9722L406.178 52.5222L405.914 51.5578ZM372.089 61.3594C369.652 52.3545 365.351 45.325 359.425 40.547C353.497 35.7671 345.979 33.27 337.166 33.27V34.27C345.783 34.27 353.07 36.7079 358.797 41.3255C364.526 45.945 368.73 52.7755 371.123 61.6206L372.089 61.3594ZM337.166 33.27C325.27 33.27 315.209 37.8409 308.127 45.8014C301.05 53.7573 296.976 65.065 296.976 78.5H297.976C297.976 65.265 301.987 54.2077 308.875 46.4661C315.758 38.7291 325.542 34.27 337.166 34.27V33.27ZM296.976 78.5C296.976 91.935 301.05 103.243 308.127 111.199C315.209 119.159 325.27 123.73 337.166 123.73V122.73C325.542 122.73 315.758 118.271 308.875 110.534C301.987 102.792 297.976 91.735 297.976 78.5H296.976ZM337.166 123.73C346.299 123.73 354.137 121.02 360.251 115.76C366.361 110.504 370.711 102.734 372.934 92.6779L371.958 92.4621C369.771 102.356 365.511 109.916 359.599 115.002C353.69 120.085 346.093 122.73 337.166 122.73V123.73ZM372.326 93.0554L407.186 101.665L407.426 100.695L372.566 92.0846L372.326 93.0554ZM406.814 101.092C400.772 135.049 373.08 155.281 337.793 155.49L337.799 156.49C373.492 156.279 401.66 135.771 407.798 101.268L406.814 101.092ZM337.792 155.49C289.595 155.907 260.806 119.839 260.806 78.5H259.806C259.806 120.321 288.978 156.913 337.8 156.49L337.792 155.49ZM534.751 122.6L535.214 122.41L535.213 122.409L534.751 122.6ZM540.631 136.88L540.169 137.07L540.175 137.083L540.631 136.88ZM549.031 148.85H549.531V148.562L549.282 148.417L549.031 148.85ZM549.031 152V152.5H549.531V152H549.031ZM507.871 152L507.548 152.382L507.688 152.5H507.871V152ZM503.461 144.86L503.944 144.728L503.936 144.7L503.925 144.674L503.461 144.86ZM494.431 122.39L493.966 122.573L493.967 122.576L494.431 122.39ZM460.831 103.28V102.78H460.331V103.28H460.831ZM460.831 152V152.5H461.331V152H460.831ZM424.081 152H423.581V152.5H424.081V152ZM424.081 4.99999V4.49999H423.581V4.99999H424.081ZM501.781 86.9L501.749 86.4011L501.281 86.4318V86.9H501.781ZM501.781 97.4H501.281V97.8427L501.721 97.8963L501.781 97.4ZM460.831 71.36H460.331V71.86H460.831V71.36ZM460.831 36.92V36.42H460.331V36.92H460.831ZM534.289 122.79L540.169 137.07L541.094 136.69L535.214 122.41L534.289 122.79ZM540.175 137.083C542.681 142.723 544.627 146.878 548.781 149.283L549.282 148.417C545.456 146.202 543.622 142.377 541.088 136.677L540.175 137.083ZM548.531 148.85V152H549.531V148.85H548.531ZM549.031 151.5H507.871V152.5H549.031V151.5ZM508.194 151.618C505.567 149.395 504.558 146.98 503.944 144.728L502.979 144.992C503.625 147.36 504.715 149.985 507.548 152.382L508.194 151.618ZM503.925 144.674L494.895 122.204L493.967 122.576L502.997 145.046L503.925 144.674ZM494.897 122.207C491.96 114.759 489.508 109.871 486.072 106.867C482.603 103.835 478.202 102.78 471.541 102.78V103.78C478.11 103.78 482.215 104.825 485.414 107.62C488.645 110.444 491.023 115.111 493.966 122.573L494.897 122.207ZM471.541 102.78H460.831V103.78H471.541V102.78ZM460.331 103.28V152H461.331V103.28H460.331ZM460.831 151.5H424.081V152.5H460.831V151.5ZM424.581 152V4.99999H423.581V152H424.581ZM424.081 5.49999H501.991V4.49999H424.081V5.49999ZM501.991 5.49999C516.08 5.49999 527.076 9.30837 534.546 16.106C542.01 22.8984 546.011 32.729 546.011 44.9H547.011C547.011 32.501 542.928 22.3816 535.219 15.3664C527.516 8.35661 516.253 4.49999 501.991 4.49999V5.49999ZM546.011 44.9C546.011 58.4484 542.055 68.325 534.6 75.0577C527.131 81.8034 516.076 85.4598 501.749 86.4011L501.814 87.3989C516.257 86.4502 527.567 82.7566 535.27 75.7998C542.988 68.83 547.011 58.6516 547.011 44.9H546.011ZM501.281 86.9V97.4H502.281V86.9H501.281ZM501.721 97.8963C510.34 98.9475 516.312 100.043 521.212 103.404C526.104 106.759 529.995 112.423 534.289 122.791L535.213 122.409C530.897 111.987 526.914 106.101 521.778 102.579C516.651 99.0622 510.443 97.9525 501.842 96.9037L501.721 97.8963ZM460.831 71.86H493.171V70.86H460.831V71.86ZM493.171 71.86C498.317 71.86 502.604 70.2497 505.605 67.1675C508.604 64.0865 510.261 59.5921 510.261 53.93H509.261C509.261 59.3979 507.664 63.6185 504.888 66.47C502.113 69.3203 498.106 70.86 493.171 70.86V71.86ZM510.261 53.93C510.261 48.1829 508.824 43.7832 505.918 40.8223C503.01 37.8596 498.713 36.42 493.171 36.42V37.42C498.55 37.42 502.547 38.8153 505.205 41.5227C507.863 44.2318 509.261 48.3371 509.261 53.93H510.261ZM493.171 36.42H460.831V37.42H493.171V36.42ZM460.331 36.92V71.36H461.331V36.92H460.331ZM704.22 152V152.5H704.941L704.688 151.825L704.22 152ZM666.21 152L665.737 152.164L665.854 152.5H666.21V152ZM658.65 130.16L659.122 129.996L659.006 129.66H658.65V130.16ZM597.96 130.16V129.66H597.604L597.487 129.996L597.96 130.16ZM590.4 152V152.5H590.756L590.872 152.164L590.4 152ZM552.18 152L551.711 151.825L551.459 152.5H552.18V152ZM607.2 4.99999V4.49999H606.853L606.731 4.82472L607.2 4.99999ZM649.2 4.99999L649.668 4.82472L649.547 4.49999H649.2V4.99999ZM614.76 81.65L615.232 81.8152L615.233 81.8105L614.76 81.65ZM608.88 98.45L608.408 98.2848L608.175 98.95H608.88V98.45ZM647.73 98.45V98.95H648.435L648.202 98.2848L647.73 98.45ZM641.85 81.65L641.376 81.8105L641.378 81.8152L641.85 81.65ZM634.71 42.8L635.208 42.7608L635.172 42.3H634.71V42.8ZM621.9 42.8V42.3H621.438L621.401 42.7608L621.9 42.8ZM704.22 151.5H666.21V152.5H704.22V151.5ZM666.682 151.836L659.122 129.996L658.177 130.324L665.737 152.164L666.682 151.836ZM658.65 129.66H597.96V130.66H658.65V129.66ZM597.487 129.996L589.927 151.836L590.872 152.164L598.432 130.324L597.487 129.996ZM590.4 151.5H552.18V152.5H590.4V151.5ZM552.648 152.175L607.668 5.17526L606.731 4.82472L551.711 151.825L552.648 152.175ZM607.2 5.49999H649.2V4.49999H607.2V5.49999ZM648.731 5.17526L703.751 152.175L704.688 151.825L649.668 4.82472L648.731 5.17526ZM614.288 81.4848L608.408 98.2848L609.352 98.6152L615.232 81.8152L614.288 81.4848ZM608.88 98.95H647.73V97.95H608.88V98.95ZM648.202 98.2848L642.322 81.4848L641.378 81.8152L647.258 98.6152L648.202 98.2848ZM642.323 81.4895C638.141 69.1504 636.676 61.424 635.208 42.7608L634.211 42.8392C635.683 61.556 637.159 69.3695 641.376 81.8105L642.323 81.4895ZM634.71 42.3H621.9V43.3H634.71V42.3ZM621.401 42.7608C619.933 61.424 618.469 69.1504 614.286 81.4895L615.233 81.8105C619.451 69.3695 620.926 61.556 622.398 42.8392L621.401 42.7608ZM799.643 70.1L799.905 70.5262L800.427 70.2057L800.008 69.7583L799.643 70.1ZM839.543 70.73L839.509 70.2312L839.088 70.2601L839.046 70.6802L839.543 70.73ZM838.703 79.13L838.206 79.0802L838.164 79.496L838.566 79.6108L838.703 79.13ZM862.853 90.89L863.135 90.4765L863.131 90.474L862.853 90.89ZM868.103 94.46L867.822 94.8735L868.228 95.1495L868.512 94.7487L868.103 94.46ZM880.493 68.42L880.652 67.946L880.161 67.781L880.014 68.2783L880.493 68.42ZM913.043 79.34L913.517 79.5005L913.678 79.0255L913.202 78.866L913.043 79.34ZM886.793 103.07L886.713 102.577L886.426 102.624L886.325 102.896L886.793 103.07ZM884.693 108.74L884.225 108.566L884.117 108.857L884.33 109.083L884.693 108.74ZM907.373 152V152.5H907.937L907.87 151.941L907.373 152ZM869.993 152L869.504 152.104L869.588 152.5H869.993V152ZM863.903 133.1L864.366 132.91L864.238 132.6H863.903V133.1ZM857.603 133.1V132.6H857.266L857.14 132.913L857.603 133.1ZM830.513 56.87L830.23 57.282L830.511 57.4752L830.794 57.2841L830.513 56.87ZM844.793 114.2L845.179 114.518L845.472 114.163L845.142 113.842L844.793 114.2ZM819.803 89.84L820.152 89.482L819.842 89.1794L819.499 89.4437L819.803 89.84ZM769.273 115.46C769.273 93.0565 784.187 80.1665 799.905 70.5262L799.382 69.6738C783.6 79.3535 768.273 92.5035 768.273 115.46H769.273ZM800.008 69.7583C790.804 59.9264 784.813 49.9642 784.813 37.97H783.813C783.813 50.3358 790.003 60.5336 799.278 70.4417L800.008 69.7583ZM784.813 37.97C784.813 27.3165 789.514 18.2718 797.72 11.8781C805.934 5.47761 817.683 1.71999 831.773 1.71999V0.719989C817.514 0.719989 805.533 4.52237 797.105 11.0893C788.668 17.6632 783.813 26.9934 783.813 37.97H784.813ZM831.773 1.71999C845.549 1.71999 856.771 5.37268 864.537 11.5598C872.294 17.7399 876.633 26.4692 876.633 36.71H877.633C877.633 26.1608 873.153 17.1451 865.16 10.7777C857.176 4.4173 845.718 0.719989 831.773 0.719989V1.71999ZM876.633 36.71C876.633 56.0985 860.766 68.7724 839.509 70.2312L839.578 71.2288C861.161 69.7476 877.633 56.8015 877.633 36.71H876.633ZM839.046 70.6802L838.206 79.0802L839.201 79.1798L840.041 70.7797L839.046 70.6802ZM838.566 79.6108C845.853 81.6926 855.045 86.2855 862.576 91.306L863.131 90.474C855.542 85.4145 846.254 80.7674 838.841 78.6492L838.566 79.6108ZM862.572 91.3035L867.822 94.8735L868.385 94.0465L863.135 90.4765L862.572 91.3035ZM868.512 94.7487C874.639 86.086 878.23 77.844 880.973 68.5617L880.014 68.2783C877.296 77.476 873.748 85.614 867.695 94.1713L868.512 94.7487ZM880.334 68.894L912.884 79.814L913.202 78.866L880.652 67.946L880.334 68.894ZM912.57 79.1795C908.421 91.4181 898.057 100.72 886.713 102.577L886.874 103.563C898.63 101.64 909.266 92.0419 913.517 79.5005L912.57 79.1795ZM886.325 102.896L884.225 108.566L885.162 108.914L887.262 103.244L886.325 102.896ZM884.33 109.083C897.927 123.517 905.213 138.122 906.877 152.059L907.87 151.941C906.174 137.738 898.76 122.943 885.057 108.397L884.33 109.083ZM907.373 151.5H869.993V152.5H907.373V151.5ZM870.483 151.896C869.003 144.922 865.84 136.489 864.366 132.91L863.441 133.29C864.907 136.851 868.044 145.218 869.504 152.104L870.483 151.896ZM863.903 132.6H857.603V133.6H863.903V132.6ZM857.14 132.913C851.159 147.761 833.776 155.7 814.343 155.7V156.7C833.971 156.7 851.868 148.679 858.067 133.287L857.14 132.913ZM814.343 155.7C800.789 155.7 789.523 151.739 781.653 144.749C773.789 137.764 769.273 127.719 769.273 115.46H768.273C768.273 127.981 772.893 138.306 780.989 145.496C789.079 152.681 800.598 156.7 814.343 156.7V155.7ZM817.623 38.39C817.623 43.4163 820.043 50.2782 830.23 57.282L830.797 56.458C820.824 49.6018 818.623 43.0237 818.623 38.39H817.623ZM830.794 57.2841C834.372 54.8637 837.726 52.3129 840.187 49.4242C842.654 46.5277 844.243 43.267 844.243 39.44H843.243C843.243 42.963 841.788 46.0023 839.425 48.7758C837.056 51.5571 833.795 54.0463 830.233 56.4559L830.794 57.2841ZM844.243 39.44C844.243 35.4366 842.887 32.2488 840.483 30.0661C838.086 27.8892 834.7 26.76 830.723 26.76V27.76C834.517 27.76 837.641 28.8358 839.811 30.8064C841.975 32.7712 843.243 35.6734 843.243 39.44H844.243ZM830.723 26.76C823.59 26.76 817.623 31.5368 817.623 38.39H818.623C818.623 32.2232 823.997 27.76 830.723 27.76V26.76ZM805.233 109.79C805.233 113.882 806.526 117.9 809.388 120.898C812.256 123.902 816.649 125.83 822.743 125.83V124.83C816.868 124.83 812.756 122.978 810.111 120.207C807.461 117.43 806.233 113.678 806.233 109.79H805.233ZM822.743 125.83C831.737 125.83 839.221 121.753 845.179 114.518L844.407 113.882C838.606 120.927 831.39 124.83 822.743 124.83V125.83ZM845.142 113.842L820.152 89.482L819.454 90.198L844.444 114.558L845.142 113.842ZM819.499 89.4437C811.343 95.7171 805.233 100.689 805.233 109.79H806.233C806.233 101.251 811.884 96.5629 820.108 90.2363L819.499 89.4437ZM982.099 4.99999V4.49999H981.599V4.99999H982.099ZM1018.85 106.01V105.51H1018.35V106.01H1018.85ZM1018.85 152V152.5H1019.35V152H1018.85ZM982.099 152H981.599V152.5H982.099V152ZM1018.85 74.09H1018.35V74.59H1018.85V74.09ZM1018.85 36.92V36.42H1018.35V36.92H1018.85ZM982.099 5.49999H1054.34V4.49999H982.099V5.49999ZM1054.34 5.49999C1068.93 5.49999 1081.45 10.1889 1090.32 18.773C1099.19 27.3546 1104.45 39.8706 1104.45 55.61H1105.45C1105.45 39.6394 1100.1 26.8504 1091.02 18.0545C1081.93 9.26106 1069.15 4.49999 1054.34 4.49999V5.49999ZM1104.45 55.61C1104.45 71.4549 1099.19 83.9172 1090.32 92.4191C1081.45 100.924 1068.93 105.51 1054.34 105.51V106.51C1069.14 106.51 1081.93 101.856 1091.02 93.1409C1100.11 84.4228 1105.45 71.685 1105.45 55.61H1104.45ZM1054.34 105.51H1018.85V106.51H1054.34V105.51ZM1018.35 106.01V152H1019.35V106.01H1018.35ZM1018.85 151.5H982.099V152.5H1018.85V151.5ZM982.599 152V4.99999H981.599V152H982.599ZM1018.85 74.59H1050.98V73.59H1018.85V74.59ZM1050.98 74.59C1055.72 74.59 1060.1 72.919 1063.31 69.6353C1066.51 66.3503 1068.49 61.4921 1068.49 55.19H1067.49C1067.49 61.2779 1065.58 65.8697 1062.59 68.9372C1059.6 72.006 1055.48 73.59 1050.98 73.59V74.59ZM1068.49 55.19C1068.49 48.7056 1066.84 43.9931 1063.83 40.9025C1060.82 37.8099 1056.53 36.42 1051.4 36.42V37.42C1056.35 37.42 1060.35 38.7601 1063.12 41.6C1065.88 44.4419 1067.49 48.8644 1067.49 55.19H1068.49ZM1051.4 36.42H1018.85V37.42H1051.4V36.42ZM1018.35 36.92V74.09H1019.35V36.92H1018.35ZM1121.95 4.99999V4.49999H1121.45V4.99999H1121.95ZM1158.7 4.99999H1159.2V4.49999H1158.7V4.99999ZM1210.57 4.99999V4.49999H1210.07V4.99999H1210.57ZM1247.32 4.99999H1247.82V4.49999H1247.32V4.99999ZM1122.45 95.3V4.99999H1121.45V95.3H1122.45ZM1121.95 5.49999H1158.7V4.49999H1121.95V5.49999ZM1158.2 4.99999V92.57H1159.2V4.99999H1158.2ZM1158.2 92.57C1158.2 103.127 1160.42 110.933 1164.89 116.102C1169.37 121.286 1176.04 123.73 1184.74 123.73V122.73C1176.23 122.73 1169.88 120.344 1165.64 115.448C1161.4 110.537 1159.2 103.013 1159.2 92.57H1158.2ZM1184.74 123.73C1193.45 123.73 1200.07 121.231 1204.5 116.02C1208.91 110.825 1211.07 103.021 1211.07 92.57H1210.07C1210.07 102.909 1207.93 110.435 1203.73 115.372C1199.55 120.294 1193.26 122.73 1184.74 122.73V123.73ZM1211.07 92.57V4.99999H1210.07V92.57H1211.07ZM1210.57 5.49999H1247.32V4.49999H1210.57V5.49999ZM1246.82 4.99999V95.3H1247.82V4.99999H1246.82ZM1246.82 95.3C1246.82 114.625 1241.08 129.654 1230.49 139.854C1219.9 150.056 1204.39 155.49 1184.74 155.49V156.49C1204.57 156.49 1220.36 151.004 1231.18 140.574C1242.02 130.141 1247.82 114.825 1247.82 95.3H1246.82ZM1184.74 155.49C1165.09 155.49 1149.53 150.056 1138.89 139.853C1128.25 129.653 1122.45 114.624 1122.45 95.3H1121.45C1121.45 114.826 1127.31 130.142 1138.2 140.575C1149.08 151.004 1164.91 156.49 1184.74 156.49V155.49ZM1261.59 4.99999V4.49999H1261.09V4.99999H1261.59ZM1389.69 4.99999H1390.19V4.49999H1389.69V4.99999ZM1389.69 37.55V38.05H1390.19V37.55H1389.69ZM1343.91 37.55V37.05H1343.41V37.55H1343.91ZM1343.91 152V152.5H1344.41V152H1343.91ZM1307.16 152H1306.66V152.5H1307.16V152ZM1307.16 37.55H1307.66V37.05H1307.16V37.55ZM1261.59 37.55H1261.09V38.05H1261.59V37.55ZM1261.59 5.49999H1389.69V4.49999H1261.59V5.49999ZM1389.19 4.99999V37.55H1390.19V4.99999H1389.19ZM1389.69 37.05H1343.91V38.05H1389.69V37.05ZM1343.41 37.55V152H1344.41V37.55H1343.41ZM1343.91 151.5H1307.16V152.5H1343.91V151.5ZM1307.66 152V37.55H1306.66V152H1307.66ZM1307.16 37.05H1261.59V38.05H1307.16V37.05ZM1262.09 37.55V4.99999H1261.09V37.55H1262.09ZM1400.43 4.99999V4.49999H1399.93V4.99999H1400.43ZM1528.53 4.99999H1529.03V4.49999H1528.53V4.99999ZM1528.53 37.55V38.05H1529.03V37.55H1528.53ZM1482.75 37.55V37.05H1482.25V37.55H1482.75ZM1482.75 152V152.5H1483.25V152H1482.75ZM1446 152H1445.5V152.5H1446V152ZM1446 37.55H1446.5V37.05H1446V37.55ZM1400.43 37.55H1399.93V38.05H1400.43V37.55ZM1400.43 5.49999H1528.53V4.49999H1400.43V5.49999ZM1528.03 4.99999V37.55H1529.03V4.99999H1528.03ZM1528.53 37.05H1482.75V38.05H1528.53V37.05ZM1482.25 37.55V152H1483.25V37.55H1482.25ZM1482.75 151.5H1446V152.5H1482.75V151.5ZM1446.5 152V37.55H1445.5V152H1446.5ZM1446 37.05H1400.43V38.05H1446V37.05ZM1400.93 37.55V4.99999H1399.93V37.55H1400.93ZM1536.07 106.85L1535.97 106.359L1535.54 106.442L1535.57 106.882L1536.07 106.85ZM1568.83 100.55L1569.33 100.511L1569.28 99.9533L1568.73 100.059L1568.83 100.55ZM1593.4 92.78L1593.47 92.2857L1593.47 92.2856L1593.4 92.78ZM1660.6 44.9L1660.71 45.3874L1661.13 45.2904L1661.1 44.8562L1660.6 44.9ZM1626.58 52.67L1626.09 52.76L1626.18 53.2737L1626.69 53.1574L1626.58 52.67ZM1616.92 62.54L1617 62.0467L1616.99 62.046L1616.92 62.54ZM1536.16 107.341L1568.92 101.041L1568.73 100.059L1535.97 106.359L1536.16 107.341ZM1568.33 100.589C1568.97 108.81 1572.55 115.192 1578.32 119.509C1584.07 123.817 1591.96 126.04 1601.17 126.04V125.04C1592.11 125.04 1584.45 122.853 1578.92 118.709C1573.4 114.573 1569.95 108.46 1569.33 100.511L1568.33 100.589ZM1601.17 126.04C1607.95 126.04 1613.62 124.665 1617.62 121.964C1621.64 119.248 1623.93 115.21 1623.93 110H1622.93C1622.93 114.87 1620.81 118.602 1617.06 121.136C1613.28 123.685 1607.83 125.04 1601.17 125.04V126.04ZM1623.93 110C1623.93 107.631 1623.51 105.534 1622.48 103.671C1621.45 101.808 1619.83 100.22 1617.49 98.8335C1612.83 96.0754 1605.23 94.0707 1593.47 92.2857L1593.32 93.2743C1605.08 95.0593 1612.5 97.0446 1616.98 99.694C1619.2 101.011 1620.68 102.481 1621.61 104.155C1622.53 105.83 1622.93 107.749 1622.93 110H1623.93ZM1593.47 92.2856C1573.98 89.3512 1560.86 84.2268 1552.62 76.8157C1544.41 69.4266 1540.98 59.7078 1540.98 47.42H1539.98C1539.98 59.9122 1543.48 69.9334 1551.96 77.5593C1560.41 85.1632 1573.76 90.3288 1593.32 93.2744L1593.47 92.2856ZM1540.98 47.42C1540.98 32.7611 1546.74 21.3608 1556.77 13.6119C1566.81 5.8509 1581.19 1.71999 1598.44 1.71999V0.719989C1581.04 0.719989 1566.43 4.88408 1556.16 12.8206C1545.87 20.7692 1539.98 32.4688 1539.98 47.42H1540.98ZM1598.44 1.71999C1633.37 1.71999 1657.82 19.0595 1660.1 44.9438L1661.1 44.8562C1658.75 18.2404 1633.64 0.719989 1598.44 0.719989V1.71999ZM1660.49 44.4125L1626.47 52.1825L1626.69 53.1574L1660.71 45.3874L1660.49 44.4125ZM1627.07 52.5799C1625.69 45.0265 1622.43 39.4439 1617.48 35.7577C1612.54 32.0774 1605.96 30.33 1598.02 30.33V31.33C1605.82 31.33 1612.16 33.0476 1616.88 36.5598C1621.59 40.0661 1624.74 45.4035 1626.09 52.76L1627.07 52.5799ZM1598.02 30.33C1591.04 30.33 1585.73 31.6504 1582.15 34.0642C1578.54 36.495 1576.73 40.0116 1576.73 44.27H1577.73C1577.73 40.3384 1579.38 37.135 1582.7 34.8933C1586.05 32.6346 1591.14 31.33 1598.02 31.33V30.33ZM1576.73 44.27C1576.73 47.298 1577.47 49.7509 1579.08 51.7765C1580.68 53.7912 1583.09 55.3359 1586.34 56.6259C1592.81 59.1979 1602.8 60.8329 1616.84 63.034L1616.99 62.046C1602.9 59.8371 1593.04 58.2171 1586.7 55.6966C1583.54 54.4404 1581.31 52.9794 1579.86 51.1551C1578.43 49.3416 1577.73 47.122 1577.73 44.27H1576.73ZM1616.84 63.0333C1632.63 65.648 1643.37 70.8128 1650.17 78.2597C1656.97 85.6997 1659.89 95.4861 1659.89 107.48H1660.89C1660.89 95.3239 1657.93 85.2653 1650.91 77.5853C1643.91 69.9122 1632.92 64.682 1617 62.0467L1616.84 63.0333ZM1659.89 107.48C1659.89 122.867 1653.61 134.846 1642.89 142.992C1632.16 151.15 1616.95 155.49 1599.07 155.49V156.49C1617.1 156.49 1632.54 152.115 1643.5 143.788C1654.46 135.449 1660.89 123.173 1660.89 107.48H1659.89ZM1599.07 155.49C1579.72 155.49 1564.57 150.576 1554.02 142.056C1543.48 133.542 1537.5 121.392 1536.57 106.818L1535.57 106.882C1536.52 121.708 1542.62 134.128 1553.39 142.834C1564.16 151.534 1579.56 156.49 1599.07 156.49V155.49ZM1679.16 152H1678.66V152.5H1679.16V152ZM1679.16 4.99999V4.49999H1678.66V4.99999H1679.16ZM1715.91 4.99999H1716.41V4.49999H1715.91V4.99999ZM1715.91 60.02H1715.41V60.52H1715.91V60.02ZM1767.78 60.02V60.52H1768.28V60.02H1767.78ZM1767.78 4.99999V4.49999H1767.28V4.99999H1767.78ZM1804.74 4.99999H1805.24V4.49999H1804.74V4.99999ZM1804.74 152V152.5H1805.24V152H1804.74ZM1767.78 152H1767.28V152.5H1767.78V152ZM1767.78 94.25H1768.28V93.75H1767.78V94.25ZM1715.91 94.25V93.75H1715.41V94.25H1715.91ZM1715.91 152V152.5H1716.41V152H1715.91ZM1679.66 152V4.99999H1678.66V152H1679.66ZM1679.16 5.49999H1715.91V4.49999H1679.16V5.49999ZM1715.41 4.99999V60.02H1716.41V4.99999H1715.41ZM1715.91 60.52H1767.78V59.52H1715.91V60.52ZM1768.28 60.02V4.99999H1767.28V60.02H1768.28ZM1767.78 5.49999H1804.74V4.49999H1767.78V5.49999ZM1804.24 4.99999V152H1805.24V4.99999H1804.24ZM1804.74 151.5H1767.78V152.5H1804.74V151.5ZM1768.28 152V94.25H1767.28V152H1768.28ZM1767.78 93.75H1715.91V94.75H1767.78V93.75ZM1715.41 94.25V152H1716.41V94.25H1715.41ZM1715.91 151.5H1679.16V152.5H1715.91V151.5ZM1969.55 152V152.5H1970.27L1970.02 151.825L1969.55 152ZM1931.54 152L1931.07 152.164L1931.19 152.5H1931.54V152ZM1923.98 130.16L1924.45 129.996L1924.34 129.66H1923.98V130.16ZM1863.29 130.16V129.66H1862.94L1862.82 129.996L1863.29 130.16ZM1855.73 152V152.5H1856.09L1856.2 152.164L1855.73 152ZM1817.51 152L1817.04 151.825L1816.79 152.5H1817.51V152ZM1872.53 4.99999V4.49999H1872.19L1872.06 4.82472L1872.53 4.99999ZM1914.53 4.99999L1915 4.82472L1914.88 4.49999H1914.53V4.99999ZM1880.09 81.65L1880.56 81.8152L1880.57 81.8105L1880.09 81.65ZM1874.21 98.45L1873.74 98.2848L1873.51 98.95H1874.21V98.45ZM1913.06 98.45V98.95H1913.77L1913.53 98.2848L1913.06 98.45ZM1907.18 81.65L1906.71 81.8105L1906.71 81.8152L1907.18 81.65ZM1900.04 42.8L1900.54 42.7608L1900.5 42.3H1900.04V42.8ZM1887.23 42.8V42.3H1886.77L1886.73 42.7608L1887.23 42.8ZM1969.55 151.5H1931.54V152.5H1969.55V151.5ZM1932.01 151.836L1924.45 129.996L1923.51 130.324L1931.07 152.164L1932.01 151.836ZM1923.98 129.66H1863.29V130.66H1923.98V129.66ZM1862.82 129.996L1855.26 151.836L1856.2 152.164L1863.76 130.324L1862.82 129.996ZM1855.73 151.5H1817.51V152.5H1855.73V151.5ZM1817.98 152.175L1873 5.17526L1872.06 4.82472L1817.04 151.825L1817.98 152.175ZM1872.53 5.49999H1914.53V4.49999H1872.53V5.49999ZM1914.06 5.17526L1969.08 152.175L1970.02 151.825L1915 4.82472L1914.06 5.17526ZM1879.62 81.4848L1873.74 98.2848L1874.68 98.6152L1880.56 81.8152L1879.62 81.4848ZM1874.21 98.95H1913.06V97.95H1874.21V98.95ZM1913.53 98.2848L1907.65 81.4848L1906.71 81.8152L1912.59 98.6152L1913.53 98.2848ZM1907.66 81.4895C1903.47 69.1504 1902.01 61.424 1900.54 42.7608L1899.54 42.8392C1901.02 61.556 1902.49 69.3695 1906.71 81.8105L1907.66 81.4895ZM1900.04 42.3H1887.23V43.3H1900.04V42.3ZM1886.73 42.7608C1885.27 61.424 1883.8 69.1504 1879.62 81.4895L1880.57 81.8105C1884.78 69.3695 1886.26 61.556 1887.73 42.8392L1886.73 42.7608ZM2048.76 1.00999L2048.76 1.50997L2048.76 1.50998L2048.76 1.00999ZM2117.01 52.04L2117.15 52.5222L2117.6 52.3976L2117.5 51.9368L2117.01 52.04ZM2082.57 61.49L2082.09 61.6206L2082.22 62.1049L2082.71 61.9722L2082.57 61.49ZM2083.41 92.57L2083.53 92.0846L2083.04 91.9617L2082.92 92.4621L2083.41 92.57ZM2118.27 101.18L2118.77 101.268L2118.85 100.807L2118.39 100.695L2118.27 101.18ZM2048.76 155.99L2048.76 155.49L2048.76 155.49L2048.76 155.99ZM1971.77 78.5C1971.77 37.1615 2000.56 1.09269 2048.76 1.50997L2048.77 0.51001C1999.94 0.087307 1970.77 36.6785 1970.77 78.5H1971.77ZM2048.76 1.50998C2083 1.71879 2110.07 21.5405 2116.52 52.1432L2117.5 51.9368C2110.94 20.7995 2083.4 0.721187 2048.77 0.510001L2048.76 1.50998ZM2116.88 51.5578L2082.44 61.0078L2082.71 61.9722L2117.15 52.5222L2116.88 51.5578ZM2083.06 61.3594C2080.62 52.3545 2076.32 45.325 2070.39 40.547C2064.46 35.7671 2056.95 33.27 2048.13 33.27V34.27C2056.75 34.27 2064.04 36.7079 2069.76 41.3255C2075.49 45.945 2079.7 52.7755 2082.09 61.6206L2083.06 61.3594ZM2048.13 33.27C2036.24 33.27 2026.18 37.8409 2019.09 45.8014C2012.02 53.7573 2007.94 65.065 2007.94 78.5H2008.94C2008.94 65.265 2012.95 54.2077 2019.84 46.4661C2026.72 38.7291 2036.51 34.27 2048.13 34.27V33.27ZM2007.94 78.5C2007.94 91.935 2012.02 103.243 2019.09 111.199C2026.18 119.159 2036.24 123.73 2048.13 123.73V122.73C2036.51 122.73 2026.72 118.271 2019.84 110.534C2012.95 102.792 2008.94 91.735 2008.94 78.5H2007.94ZM2048.13 123.73C2057.27 123.73 2065.1 121.02 2071.22 115.76C2077.33 110.504 2081.68 102.734 2083.9 92.6779L2082.92 92.4621C2080.74 102.356 2076.48 109.916 2070.57 115.002C2064.66 120.085 2057.06 122.73 2048.13 122.73V123.73ZM2083.29 93.0554L2118.15 101.665L2118.39 100.695L2083.53 92.0846L2083.29 93.0554ZM2117.78 101.092C2111.74 135.049 2084.05 155.281 2048.76 155.49L2048.77 156.49C2084.46 156.279 2112.63 135.771 2118.77 101.268L2117.78 101.092ZM2048.76 155.49C2000.56 155.907 1971.77 119.839 1971.77 78.5H1970.77C1970.77 120.321 1999.94 156.913 2048.77 156.49L2048.76 155.49ZM2135.05 152H2134.55V152.5H2135.05V152ZM2135.05 4.99999V4.49999H2134.55V4.99999H2135.05ZM2171.8 4.99999H2172.3V4.49999H2171.8V4.99999ZM2159.41 63.17L2159.03 62.8462L2158.72 63.2066L2159.06 63.5325L2159.41 63.17ZM2167.81 71.15L2167.46 71.5125L2167.85 71.8749L2168.19 71.4754L2167.81 71.15ZM2224.51 4.99999V4.49999H2224.28L2224.13 4.67459L2224.51 4.99999ZM2268.4 4.99999L2268.78 5.32726L2269.49 4.49999H2268.4V4.99999ZM2214.22 67.58L2213.84 67.2527L2213.59 67.5375L2213.8 67.853L2214.22 67.58ZM2269.24 152V152.5H2270.16L2269.66 151.727L2269.24 152ZM2225.35 152L2224.93 152.266L2225.07 152.5H2225.35V152ZM2188.6 93.62L2189.02 93.3536L2188.87 93.12H2188.6V93.62ZM2188.18 93.62V93.12H2187.93L2187.78 93.3125L2188.18 93.62ZM2171.8 114.62L2171.4 114.312L2171.3 114.448V114.62H2171.8ZM2171.8 152V152.5H2172.3V152H2171.8ZM2135.55 152V4.99999H2134.55V152H2135.55ZM2135.05 5.49999H2171.8V4.49999H2135.05V5.49999ZM2171.3 4.99999V24.53H2172.3V4.99999H2171.3ZM2171.3 24.53C2171.3 33.7649 2170.88 40.2106 2169.14 45.9093C2167.41 51.5949 2164.36 56.575 2159.03 62.8462L2159.79 63.4938C2165.17 57.165 2168.31 52.0651 2170.1 46.2007C2171.88 40.3494 2172.3 33.7751 2172.3 24.53H2171.3ZM2159.06 63.5325L2167.46 71.5125L2168.15 70.7875L2159.75 62.8075L2159.06 63.5325ZM2168.19 71.4754L2224.89 5.32539L2224.13 4.67459L2167.43 70.8246L2168.19 71.4754ZM2224.51 5.49999H2268.4V4.49999H2224.51V5.49999ZM2268.02 4.67272L2213.84 67.2527L2214.6 67.9073L2268.78 5.32726L2268.02 4.67272ZM2213.8 67.853L2268.82 152.273L2269.66 151.727L2214.64 67.307L2213.8 67.853ZM2269.24 151.5H2225.35V152.5H2269.24V151.5ZM2225.77 151.734L2189.02 93.3536L2188.18 93.8864L2224.93 152.266L2225.77 151.734ZM2188.6 93.12H2188.18V94.12H2188.6V93.12ZM2187.78 93.3125L2171.4 114.312L2172.19 114.928L2188.57 93.9275L2187.78 93.3125ZM2171.3 114.62V152H2172.3V114.62H2171.3ZM2171.8 151.5H2135.05V152.5H2171.8V151.5Z" fill="#8982FF"/>
</svg>
