<svg width="2424" height="157" viewBox="0 0 2424 157" fill="none" xmlns="http://www.w3.org/2000/svg">
<path opacity="0.5" d="M0.390001 152H-0.109999V152.5H0.390001V152ZM0.390001 4.99999V4.49999H-0.109999V4.99999H0.390001ZM37.14 4.99999H37.64V4.49999H37.14V4.99999ZM37.14 119.24H36.64V119.74H37.14V119.24ZM103.5 119.24H104V118.74H103.5V119.24ZM103.5 152V152.5H104V152H103.5ZM0.890001 152V4.99999H-0.109999V152H0.890001ZM0.390001 5.49999H37.14V4.49999H0.390001V5.49999ZM36.64 4.99999V119.24H37.64V4.99999H36.64ZM37.14 119.74H103.5V118.74H37.14V119.74ZM103 119.24V152H104V119.24H103ZM103.5 151.5H0.390001V152.5H103.5V151.5ZM115.839 4.99999V4.49999H115.339V4.99999H115.839ZM152.589 4.99999H153.089V4.49999H152.589V4.99999ZM204.459 4.99999V4.49999H203.959V4.99999H204.459ZM241.209 4.99999H241.709V4.49999H241.209V4.99999ZM116.339 95.3V4.99999H115.339V95.3H116.339ZM115.839 5.49999H152.589V4.49999H115.839V5.49999ZM152.089 4.99999V92.57H153.089V4.99999H152.089ZM152.089 92.57C152.089 103.127 154.304 110.933 158.773 116.102C163.255 121.286 169.926 123.73 178.629 123.73V122.73C170.113 122.73 163.763 120.344 159.53 115.448C155.284 110.537 153.089 103.013 153.089 92.57H152.089ZM178.629 123.73C187.336 123.73 193.954 121.231 198.383 116.02C202.797 110.825 204.959 103.021 204.959 92.57H203.959C203.959 102.909 201.816 110.435 197.621 115.372C193.439 120.294 187.143 122.73 178.629 122.73V123.73ZM204.959 92.57V4.99999H203.959V92.57H204.959ZM204.459 5.49999H241.209V4.49999H204.459V5.49999ZM240.709 4.99999V95.3H241.709V4.99999H240.709ZM240.709 95.3C240.709 114.625 234.966 129.654 224.377 139.854C213.786 150.056 198.28 155.49 178.629 155.49V156.49C198.459 156.49 214.243 151.004 225.071 140.574C235.902 130.141 241.709 114.825 241.709 95.3H240.709ZM178.629 155.49C158.979 155.49 143.42 150.056 132.775 139.853C122.134 129.653 116.339 114.624 116.339 95.3H115.339C115.339 114.826 121.199 130.142 132.083 140.575C142.964 151.004 158.8 156.49 178.629 156.49V155.49ZM337.796 1.00999L337.792 1.50997L337.793 1.50998L337.796 1.00999ZM406.046 52.04L406.178 52.5222L406.632 52.3976L406.535 51.9368L406.046 52.04ZM371.606 61.49L371.123 61.6206L371.254 62.1049L371.738 61.9722L371.606 61.49ZM372.446 92.57L372.566 92.0846L372.068 91.9617L371.958 92.4621L372.446 92.57ZM407.306 101.18L407.798 101.268L407.88 100.807L407.426 100.695L407.306 101.18ZM337.796 155.99L337.793 155.49L337.792 155.49L337.796 155.99ZM260.806 78.5C260.806 37.1615 289.595 1.09269 337.792 1.50997L337.8 0.51001C288.978 0.087307 259.806 36.6785 259.806 78.5H260.806ZM337.793 1.50998C372.038 1.71879 399.103 21.5405 405.557 52.1432L406.535 51.9368C399.969 20.7995 372.434 0.721187 337.799 0.510001L337.793 1.50998ZM405.914 51.5578L371.474 61.0078L371.738 61.9722L406.178 52.5222L405.914 51.5578ZM372.089 61.3594C369.652 52.3545 365.351 45.325 359.425 40.547C353.497 35.7671 345.979 33.27 337.166 33.27V34.27C345.783 34.27 353.07 36.7079 358.797 41.3255C364.526 45.945 368.73 52.7755 371.123 61.6206L372.089 61.3594ZM337.166 33.27C325.27 33.27 315.209 37.8409 308.127 45.8014C301.05 53.7573 296.976 65.065 296.976 78.5H297.976C297.976 65.265 301.987 54.2077 308.875 46.4661C315.758 38.7291 325.542 34.27 337.166 34.27V33.27ZM296.976 78.5C296.976 91.935 301.05 103.243 308.127 111.199C315.209 119.159 325.27 123.73 337.166 123.73V122.73C325.542 122.73 315.758 118.271 308.875 110.534C301.987 102.792 297.976 91.735 297.976 78.5H296.976ZM337.166 123.73C346.299 123.73 354.137 121.02 360.251 115.76C366.361 110.504 370.711 102.734 372.934 92.6779L371.958 92.4621C369.771 102.356 365.511 109.916 359.599 115.002C353.69 120.085 346.093 122.73 337.166 122.73V123.73ZM372.326 93.0554L407.186 101.665L407.426 100.695L372.566 92.0846L372.326 93.0554ZM406.814 101.092C400.772 135.049 373.08 155.281 337.793 155.49L337.799 156.49C373.492 156.279 401.66 135.771 407.798 101.268L406.814 101.092ZM337.792 155.49C289.595 155.907 260.806 119.839 260.806 78.5H259.806C259.806 120.321 288.978 156.913 337.8 156.49L337.792 155.49ZM534.751 122.6L535.214 122.41L535.213 122.409L534.751 122.6ZM540.631 136.88L540.169 137.07L540.175 137.083L540.631 136.88ZM549.031 148.85H549.531V148.562L549.282 148.417L549.031 148.85ZM549.031 152V152.5H549.531V152H549.031ZM507.871 152L507.548 152.382L507.688 152.5H507.871V152ZM503.461 144.86L503.944 144.728L503.936 144.7L503.925 144.674L503.461 144.86ZM494.431 122.39L493.966 122.573L493.967 122.576L494.431 122.39ZM460.831 103.28V102.78H460.331V103.28H460.831ZM460.831 152V152.5H461.331V152H460.831ZM424.081 152H423.581V152.5H424.081V152ZM424.081 4.99999V4.49999H423.581V4.99999H424.081ZM501.781 86.9L501.749 86.4011L501.281 86.4318V86.9H501.781ZM501.781 97.4H501.281V97.8427L501.721 97.8963L501.781 97.4ZM460.831 71.36H460.331V71.86H460.831V71.36ZM460.831 36.92V36.42H460.331V36.92H460.831ZM534.289 122.79L540.169 137.07L541.094 136.69L535.214 122.41L534.289 122.79ZM540.175 137.083C542.681 142.723 544.627 146.878 548.781 149.283L549.282 148.417C545.456 146.202 543.622 142.377 541.088 136.677L540.175 137.083ZM548.531 148.85V152H549.531V148.85H548.531ZM549.031 151.5H507.871V152.5H549.031V151.5ZM508.194 151.618C505.567 149.395 504.558 146.98 503.944 144.728L502.979 144.992C503.625 147.36 504.715 149.985 507.548 152.382L508.194 151.618ZM503.925 144.674L494.895 122.204L493.967 122.576L502.997 145.046L503.925 144.674ZM494.897 122.207C491.96 114.759 489.508 109.871 486.072 106.867C482.603 103.835 478.202 102.78 471.541 102.78V103.78C478.11 103.78 482.215 104.825 485.414 107.62C488.645 110.444 491.023 115.111 493.966 122.573L494.897 122.207ZM471.541 102.78H460.831V103.78H471.541V102.78ZM460.331 103.28V152H461.331V103.28H460.331ZM460.831 151.5H424.081V152.5H460.831V151.5ZM424.581 152V4.99999H423.581V152H424.581ZM424.081 5.49999H501.991V4.49999H424.081V5.49999ZM501.991 5.49999C516.08 5.49999 527.076 9.30837 534.546 16.106C542.01 22.8984 546.011 32.729 546.011 44.9H547.011C547.011 32.501 542.928 22.3816 535.219 15.3664C527.516 8.35661 516.253 4.49999 501.991 4.49999V5.49999ZM546.011 44.9C546.011 58.4484 542.055 68.325 534.6 75.0577C527.131 81.8034 516.076 85.4598 501.749 86.4011L501.814 87.3989C516.257 86.4502 527.567 82.7566 535.27 75.7998C542.988 68.83 547.011 58.6516 547.011 44.9H546.011ZM501.281 86.9V97.4H502.281V86.9H501.281ZM501.721 97.8963C510.34 98.9475 516.312 100.043 521.212 103.404C526.104 106.759 529.995 112.423 534.289 122.791L535.213 122.409C530.897 111.987 526.914 106.101 521.778 102.579C516.651 99.0622 510.443 97.9525 501.842 96.9037L501.721 97.8963ZM460.831 71.86H493.171V70.86H460.831V71.86ZM493.171 71.86C498.317 71.86 502.604 70.2497 505.605 67.1675C508.604 64.0865 510.261 59.5921 510.261 53.93H509.261C509.261 59.3979 507.664 63.6185 504.888 66.47C502.113 69.3203 498.106 70.86 493.171 70.86V71.86ZM510.261 53.93C510.261 48.1829 508.824 43.7832 505.918 40.8223C503.01 37.8596 498.713 36.42 493.171 36.42V37.42C498.55 37.42 502.547 38.8153 505.205 41.5227C507.863 44.2318 509.261 48.3371 509.261 53.93H510.261ZM493.171 36.42H460.831V37.42H493.171V36.42ZM460.331 36.92V71.36H461.331V36.92H460.331ZM704.22 152V152.5H704.941L704.688 151.825L704.22 152ZM666.21 152L665.737 152.164L665.854 152.5H666.21V152ZM658.65 130.16L659.122 129.996L659.006 129.66H658.65V130.16ZM597.96 130.16V129.66H597.604L597.487 129.996L597.96 130.16ZM590.4 152V152.5H590.756L590.872 152.164L590.4 152ZM552.18 152L551.711 151.825L551.459 152.5H552.18V152ZM607.2 4.99999V4.49999H606.853L606.731 4.82472L607.2 4.99999ZM649.2 4.99999L649.668 4.82472L649.547 4.49999H649.2V4.99999ZM614.76 81.65L615.232 81.8152L615.233 81.8105L614.76 81.65ZM608.88 98.45L608.408 98.2848L608.175 98.95H608.88V98.45ZM647.73 98.45V98.95H648.435L648.202 98.2848L647.73 98.45ZM641.85 81.65L641.376 81.8105L641.378 81.8152L641.85 81.65ZM634.71 42.8L635.208 42.7608L635.172 42.3H634.71V42.8ZM621.9 42.8V42.3H621.438L621.401 42.7608L621.9 42.8ZM704.22 151.5H666.21V152.5H704.22V151.5ZM666.682 151.836L659.122 129.996L658.177 130.324L665.737 152.164L666.682 151.836ZM658.65 129.66H597.96V130.66H658.65V129.66ZM597.487 129.996L589.927 151.836L590.872 152.164L598.432 130.324L597.487 129.996ZM590.4 151.5H552.18V152.5H590.4V151.5ZM552.648 152.175L607.668 5.17526L606.731 4.82472L551.711 151.825L552.648 152.175ZM607.2 5.49999H649.2V4.49999H607.2V5.49999ZM648.731 5.17526L703.751 152.175L704.688 151.825L649.668 4.82472L648.731 5.17526ZM614.288 81.4848L608.408 98.2848L609.352 98.6152L615.232 81.8152L614.288 81.4848ZM608.88 98.95H647.73V97.95H608.88V98.95ZM648.202 98.2848L642.322 81.4848L641.378 81.8152L647.258 98.6152L648.202 98.2848ZM642.323 81.4895C638.141 69.1504 636.676 61.424 635.208 42.7608L634.211 42.8392C635.683 61.556 637.159 69.3695 641.376 81.8105L642.323 81.4895ZM634.71 42.3H621.9V43.3H634.71V42.3ZM621.401 42.7608C619.933 61.424 618.469 69.1504 614.286 81.4895L615.233 81.8105C619.451 69.3695 620.926 61.556 622.398 42.8392L621.401 42.7608ZM799.643 70.1L799.905 70.5262L800.427 70.2057L800.008 69.7583L799.643 70.1ZM839.543 70.73L839.509 70.2312L839.088 70.2601L839.046 70.6802L839.543 70.73ZM838.703 79.13L838.206 79.0802L838.164 79.496L838.566 79.6108L838.703 79.13ZM862.853 90.89L863.135 90.4765L863.131 90.474L862.853 90.89ZM868.103 94.46L867.822 94.8735L868.228 95.1495L868.512 94.7487L868.103 94.46ZM880.493 68.42L880.652 67.946L880.161 67.781L880.014 68.2783L880.493 68.42ZM913.043 79.34L913.517 79.5005L913.678 79.0255L913.202 78.866L913.043 79.34ZM886.793 103.07L886.713 102.577L886.426 102.624L886.325 102.896L886.793 103.07ZM884.693 108.74L884.225 108.566L884.117 108.857L884.33 109.083L884.693 108.74ZM907.373 152V152.5H907.937L907.87 151.941L907.373 152ZM869.993 152L869.504 152.104L869.588 152.5H869.993V152ZM863.903 133.1L864.366 132.91L864.238 132.6H863.903V133.1ZM857.603 133.1V132.6H857.266L857.14 132.913L857.603 133.1ZM830.513 56.87L830.23 57.282L830.511 57.4752L830.794 57.2841L830.513 56.87ZM844.793 114.2L845.179 114.518L845.472 114.163L845.142 113.842L844.793 114.2ZM819.803 89.84L820.152 89.482L819.842 89.1794L819.499 89.4437L819.803 89.84ZM769.273 115.46C769.273 93.0565 784.187 80.1665 799.905 70.5262L799.382 69.6738C783.6 79.3535 768.273 92.5035 768.273 115.46H769.273ZM800.008 69.7583C790.804 59.9264 784.813 49.9642 784.813 37.97H783.813C783.813 50.3358 790.003 60.5336 799.278 70.4417L800.008 69.7583ZM784.813 37.97C784.813 27.3165 789.514 18.2718 797.72 11.8781C805.934 5.47761 817.683 1.71999 831.773 1.71999V0.719989C817.514 0.719989 805.533 4.52237 797.105 11.0893C788.668 17.6632 783.813 26.9934 783.813 37.97H784.813ZM831.773 1.71999C845.549 1.71999 856.771 5.37268 864.537 11.5598C872.294 17.7399 876.633 26.4692 876.633 36.71H877.633C877.633 26.1608 873.153 17.1451 865.16 10.7777C857.176 4.4173 845.718 0.719989 831.773 0.719989V1.71999ZM876.633 36.71C876.633 56.0985 860.766 68.7724 839.509 70.2312L839.578 71.2288C861.161 69.7476 877.633 56.8015 877.633 36.71H876.633ZM839.046 70.6802L838.206 79.0802L839.201 79.1798L840.041 70.7797L839.046 70.6802ZM838.566 79.6108C845.853 81.6926 855.045 86.2855 862.576 91.306L863.131 90.474C855.542 85.4145 846.254 80.7674 838.841 78.6492L838.566 79.6108ZM862.572 91.3035L867.822 94.8735L868.385 94.0465L863.135 90.4765L862.572 91.3035ZM868.512 94.7487C874.639 86.086 878.23 77.844 880.973 68.5617L880.014 68.2783C877.296 77.476 873.748 85.614 867.695 94.1713L868.512 94.7487ZM880.334 68.894L912.884 79.814L913.202 78.866L880.652 67.946L880.334 68.894ZM912.57 79.1795C908.421 91.4181 898.057 100.72 886.713 102.577L886.874 103.563C898.63 101.64 909.266 92.0419 913.517 79.5005L912.57 79.1795ZM886.325 102.896L884.225 108.566L885.162 108.914L887.262 103.244L886.325 102.896ZM884.33 109.083C897.927 123.517 905.213 138.122 906.877 152.059L907.87 151.941C906.174 137.738 898.76 122.943 885.057 108.397L884.33 109.083ZM907.373 151.5H869.993V152.5H907.373V151.5ZM870.483 151.896C869.003 144.922 865.84 136.489 864.366 132.91L863.441 133.29C864.907 136.851 868.044 145.218 869.504 152.104L870.483 151.896ZM863.903 132.6H857.603V133.6H863.903V132.6ZM857.14 132.913C851.159 147.761 833.776 155.7 814.343 155.7V156.7C833.971 156.7 851.868 148.679 858.067 133.287L857.14 132.913ZM814.343 155.7C800.789 155.7 789.523 151.739 781.653 144.749C773.789 137.764 769.273 127.719 769.273 115.46H768.273C768.273 127.981 772.893 138.306 780.989 145.496C789.079 152.681 800.598 156.7 814.343 156.7V155.7ZM817.623 38.39C817.623 43.4163 820.043 50.2782 830.23 57.282L830.797 56.458C820.824 49.6018 818.623 43.0237 818.623 38.39H817.623ZM830.794 57.2841C834.372 54.8637 837.726 52.3129 840.187 49.4242C842.654 46.5277 844.243 43.267 844.243 39.44H843.243C843.243 42.963 841.788 46.0023 839.425 48.7758C837.056 51.5571 833.795 54.0463 830.233 56.4559L830.794 57.2841ZM844.243 39.44C844.243 35.4366 842.887 32.2488 840.483 30.0661C838.086 27.8892 834.7 26.76 830.723 26.76V27.76C834.517 27.76 837.641 28.8358 839.811 30.8064C841.975 32.7712 843.243 35.6734 843.243 39.44H844.243ZM830.723 26.76C823.59 26.76 817.623 31.5368 817.623 38.39H818.623C818.623 32.2232 823.997 27.76 830.723 27.76V26.76ZM805.233 109.79C805.233 113.882 806.526 117.9 809.388 120.898C812.256 123.902 816.649 125.83 822.743 125.83V124.83C816.868 124.83 812.756 122.978 810.111 120.207C807.461 117.43 806.233 113.678 806.233 109.79H805.233ZM822.743 125.83C831.737 125.83 839.221 121.753 845.179 114.518L844.407 113.882C838.606 120.927 831.39 124.83 822.743 124.83V125.83ZM845.142 113.842L820.152 89.482L819.454 90.198L844.444 114.558L845.142 113.842ZM819.499 89.4437C811.343 95.7171 805.233 100.689 805.233 109.79H806.233C806.233 101.251 811.884 96.5629 820.108 90.2363L819.499 89.4437ZM972.019 4.99999V4.49999H971.519V4.99999H972.019ZM1100.12 4.99999H1100.62V4.49999H1100.12V4.99999ZM1100.12 37.55V38.05H1100.62V37.55H1100.12ZM1054.34 37.55V37.05H1053.84V37.55H1054.34ZM1054.34 152V152.5H1054.84V152H1054.34ZM1017.59 152H1017.09V152.5H1017.59V152ZM1017.59 37.55H1018.09V37.05H1017.59V37.55ZM972.019 37.55H971.519V38.05H972.019V37.55ZM972.019 5.49999H1100.12V4.49999H972.019V5.49999ZM1099.62 4.99999V37.55H1100.62V4.99999H1099.62ZM1100.12 37.05H1054.34V38.05H1100.12V37.05ZM1053.84 37.55V152H1054.84V37.55H1053.84ZM1054.34 151.5H1017.59V152.5H1054.34V151.5ZM1018.09 152V37.55H1017.09V152H1018.09ZM1017.59 37.05H972.019V38.05H1017.59V37.05ZM972.519 37.55V4.99999H971.519V37.55H972.519ZM1107.57 78.5C1107.57 34.0443 1140.11 1.50999 1184.14 1.50999V0.509991C1139.56 0.509991 1106.57 33.4957 1106.57 78.5H1107.57ZM1184.14 1.50999C1227.96 1.50999 1260.5 34.0434 1260.5 78.5H1261.5C1261.5 33.4966 1228.52 0.509991 1184.14 0.509991V1.50999ZM1260.5 78.5C1260.5 122.957 1227.96 155.49 1184.14 155.49V156.49C1228.52 156.49 1261.5 123.503 1261.5 78.5H1260.5ZM1184.14 155.49C1140.11 155.49 1107.57 122.956 1107.57 78.5H1106.57C1106.57 123.504 1139.56 156.49 1184.14 156.49V155.49ZM1143.74 78.5C1143.74 91.935 1147.82 103.243 1154.92 111.199C1162.03 119.16 1172.14 123.73 1184.14 123.73V122.73C1172.41 122.73 1162.58 118.27 1155.67 110.533C1148.75 102.792 1144.74 91.735 1144.74 78.5H1143.74ZM1184.14 123.73C1196.99 123.73 1207.05 118.842 1213.9 110.716C1220.74 102.6 1224.33 91.2943 1224.33 78.5H1223.33C1223.33 91.1157 1219.79 102.175 1213.13 110.072C1206.49 117.958 1196.71 122.73 1184.14 122.73V123.73ZM1224.33 78.5C1224.33 65.3895 1220.63 54.0824 1213.74 46.0445C1206.84 37.9978 1196.77 33.27 1184.14 33.27V34.27C1196.5 34.27 1206.28 38.8872 1212.98 46.6955C1219.68 54.5126 1223.33 65.5704 1223.33 78.5H1224.33ZM1184.14 33.27C1171.52 33.27 1161.4 37.8362 1154.45 45.8049C1147.5 53.7658 1143.74 65.0752 1143.74 78.5H1144.74C1144.74 65.2548 1148.45 54.1992 1155.2 46.4626C1161.95 38.7338 1171.78 34.27 1184.14 34.27V33.27ZM1279.86 4.99999V4.49999H1279.36V4.99999H1279.86ZM1316.61 4.99999H1317.11V4.49999H1316.61V4.99999ZM1368.48 4.99999V4.49999H1367.98V4.99999H1368.48ZM1405.23 4.99999H1405.73V4.49999H1405.23V4.99999ZM1280.36 95.3V4.99999H1279.36V95.3H1280.36ZM1279.86 5.49999H1316.61V4.49999H1279.86V5.49999ZM1316.11 4.99999V92.57H1317.11V4.99999H1316.11ZM1316.11 92.57C1316.11 103.127 1318.33 110.933 1322.8 116.102C1327.28 121.286 1333.95 123.73 1342.65 123.73V122.73C1334.14 122.73 1327.79 120.344 1323.55 115.448C1319.31 110.537 1317.11 103.013 1317.11 92.57H1316.11ZM1342.65 123.73C1351.36 123.73 1357.98 121.231 1362.41 116.02C1366.82 110.825 1368.98 103.021 1368.98 92.57H1367.98C1367.98 102.909 1365.84 110.435 1361.64 115.372C1357.46 120.294 1351.17 122.73 1342.65 122.73V123.73ZM1368.98 92.57V4.99999H1367.98V92.57H1368.98ZM1368.48 5.49999H1405.23V4.49999H1368.48V5.49999ZM1404.73 4.99999V95.3H1405.73V4.99999H1404.73ZM1404.73 95.3C1404.73 114.625 1398.99 129.654 1388.4 139.854C1377.81 150.056 1362.3 155.49 1342.65 155.49V156.49C1362.48 156.49 1378.27 151.004 1389.09 140.574C1399.93 130.141 1405.73 114.825 1405.73 95.3H1404.73ZM1342.65 155.49C1323 155.49 1307.44 150.056 1296.8 139.853C1286.16 129.653 1280.36 114.624 1280.36 95.3H1279.36C1279.36 114.826 1285.22 130.142 1296.11 140.575C1306.99 151.004 1322.82 156.49 1342.65 156.49V155.49ZM1501.82 1.00999L1501.82 1.50997L1501.82 1.50998L1501.82 1.00999ZM1570.07 52.04L1570.2 52.5222L1570.66 52.3976L1570.56 51.9368L1570.07 52.04ZM1535.63 61.49L1535.15 61.6206L1535.28 62.1049L1535.76 61.9722L1535.63 61.49ZM1536.47 92.57L1536.59 92.0846L1536.09 91.9617L1535.98 92.4621L1536.47 92.57ZM1571.33 101.18L1571.82 101.268L1571.9 100.807L1571.45 100.695L1571.33 101.18ZM1501.82 155.99L1501.82 155.49L1501.82 155.49L1501.82 155.99ZM1424.83 78.5C1424.83 37.1615 1453.62 1.09269 1501.82 1.50997L1501.82 0.51001C1453 0.087307 1423.83 36.6785 1423.83 78.5H1424.83ZM1501.82 1.50998C1536.06 1.71879 1563.13 21.5405 1569.58 52.1432L1570.56 51.9368C1563.99 20.7995 1536.46 0.721187 1501.82 0.510001L1501.82 1.50998ZM1569.94 51.5578L1535.5 61.0078L1535.76 61.9722L1570.2 52.5222L1569.94 51.5578ZM1536.11 61.3594C1533.68 52.3545 1529.37 45.325 1523.45 40.547C1517.52 35.7671 1510 33.27 1501.19 33.27V34.27C1509.81 34.27 1517.09 36.7079 1522.82 41.3255C1528.55 45.945 1532.75 52.7755 1535.15 61.6206L1536.11 61.3594ZM1501.19 33.27C1489.29 33.27 1479.23 37.8409 1472.15 45.8014C1465.07 53.7573 1461 65.065 1461 78.5H1462C1462 65.265 1466.01 54.2077 1472.9 46.4661C1479.78 38.7291 1489.57 34.27 1501.19 34.27V33.27ZM1461 78.5C1461 91.935 1465.07 103.243 1472.15 111.199C1479.23 119.159 1489.29 123.73 1501.19 123.73V122.73C1489.57 122.73 1479.78 118.271 1472.9 110.534C1466.01 102.792 1462 91.735 1462 78.5H1461ZM1501.19 123.73C1510.32 123.73 1518.16 121.02 1524.27 115.76C1530.38 110.504 1534.73 102.734 1536.96 92.6779L1535.98 92.4621C1533.79 102.356 1529.53 109.916 1523.62 115.002C1517.71 120.085 1510.12 122.73 1501.19 122.73V123.73ZM1536.35 93.0554L1571.21 101.665L1571.45 100.695L1536.59 92.0846L1536.35 93.0554ZM1570.84 101.092C1564.8 135.049 1537.1 155.281 1501.82 155.49L1501.82 156.49C1537.52 156.279 1565.68 135.771 1571.82 101.268L1570.84 101.092ZM1501.82 155.49C1453.62 155.907 1424.83 119.839 1424.83 78.5H1423.83C1423.83 120.321 1453 156.913 1501.82 156.49L1501.82 155.49ZM1588.1 152H1587.6V152.5H1588.1V152ZM1588.1 4.99999V4.49999H1587.6V4.99999H1588.1ZM1624.85 4.99999H1625.35V4.49999H1624.85V4.99999ZM1624.85 60.02H1624.35V60.52H1624.85V60.02ZM1676.72 60.02V60.52H1677.22V60.02H1676.72ZM1676.72 4.99999V4.49999H1676.22V4.99999H1676.72ZM1713.68 4.99999H1714.18V4.49999H1713.68V4.99999ZM1713.68 152V152.5H1714.18V152H1713.68ZM1676.72 152H1676.22V152.5H1676.72V152ZM1676.72 94.25H1677.22V93.75H1676.72V94.25ZM1624.85 94.25V93.75H1624.35V94.25H1624.85ZM1624.85 152V152.5H1625.35V152H1624.85ZM1588.6 152V4.99999H1587.6V152H1588.6ZM1588.1 5.49999H1624.85V4.49999H1588.1V5.49999ZM1624.35 4.99999V60.02H1625.35V4.99999H1624.35ZM1624.85 60.52H1676.72V59.52H1624.85V60.52ZM1677.22 60.02V4.99999H1676.22V60.02H1677.22ZM1676.72 5.49999H1713.68V4.49999H1676.72V5.49999ZM1713.18 4.99999V152H1714.18V4.99999H1713.18ZM1713.68 151.5H1676.72V152.5H1713.68V151.5ZM1677.22 152V94.25H1676.22V152H1677.22ZM1676.72 93.75H1624.85V94.75H1676.72V93.75ZM1624.35 94.25V152H1625.35V94.25H1624.35ZM1624.85 151.5H1588.1V152.5H1624.85V151.5ZM1728.35 4.99999V4.49999H1727.85V4.99999H1728.35ZM1856.45 4.99999H1856.95V4.49999H1856.45V4.99999ZM1856.45 37.55V38.05H1856.95V37.55H1856.45ZM1810.67 37.55V37.05H1810.17V37.55H1810.67ZM1810.67 152V152.5H1811.17V152H1810.67ZM1773.92 152H1773.42V152.5H1773.92V152ZM1773.92 37.55H1774.42V37.05H1773.92V37.55ZM1728.35 37.55H1727.85V38.05H1728.35V37.55ZM1728.35 5.49999H1856.45V4.49999H1728.35V5.49999ZM1855.95 4.99999V37.55H1856.95V4.99999H1855.95ZM1856.45 37.05H1810.67V38.05H1856.45V37.05ZM1810.17 37.55V152H1811.17V37.55H1810.17ZM1810.67 151.5H1773.92V152.5H1810.67V151.5ZM1774.42 152V37.55H1773.42V152H1774.42ZM1773.92 37.05H1728.35V38.05H1773.92V37.05ZM1728.85 37.55V4.99999H1727.85V37.55H1728.85ZM1870.49 4.99999V4.49999H1869.99V4.99999H1870.49ZM1907.24 4.99999H1907.74V4.49999H1907.24V4.99999ZM1959.11 4.99999V4.49999H1958.61V4.99999H1959.11ZM1995.86 4.99999H1996.36V4.49999H1995.86V4.99999ZM1870.99 95.3V4.99999H1869.99V95.3H1870.99ZM1870.49 5.49999H1907.24V4.49999H1870.49V5.49999ZM1906.74 4.99999V92.57H1907.74V4.99999H1906.74ZM1906.74 92.57C1906.74 103.127 1908.95 110.933 1913.42 116.102C1917.9 121.286 1924.57 123.73 1933.28 123.73V122.73C1924.76 122.73 1918.41 120.344 1914.18 115.448C1909.93 110.537 1907.74 103.013 1907.74 92.57H1906.74ZM1933.28 123.73C1941.98 123.73 1948.6 121.231 1953.03 116.02C1957.45 110.825 1959.61 103.021 1959.61 92.57H1958.61C1958.61 102.909 1956.46 110.435 1952.27 115.372C1948.09 120.294 1941.79 122.73 1933.28 122.73V123.73ZM1959.61 92.57V4.99999H1958.61V92.57H1959.61ZM1959.11 5.49999H1995.86V4.49999H1959.11V5.49999ZM1995.36 4.99999V95.3H1996.36V4.99999H1995.36ZM1995.36 95.3C1995.36 114.625 1989.61 129.654 1979.03 139.854C1968.43 150.056 1952.93 155.49 1933.28 155.49V156.49C1953.11 156.49 1968.89 151.004 1979.72 140.574C1990.55 130.141 1996.36 114.825 1996.36 95.3H1995.36ZM1933.28 155.49C1913.63 155.49 1898.07 150.056 1887.42 139.853C1876.78 129.653 1870.99 114.624 1870.99 95.3H1869.99C1869.99 114.826 1875.85 130.142 1886.73 140.575C1897.61 151.004 1913.45 156.49 1933.28 156.49V155.49ZM2020.2 152H2019.7V152.5H2020.2V152ZM2020.2 4.99999V4.49999H2019.7V4.99999H2020.2ZM2060.52 4.99999L2060.95 4.73411L2060.8 4.49999H2060.52V4.99999ZM2117.22 95.3L2116.8 95.5659L2116.95 95.8H2117.22V95.3ZM2117.64 95.3V95.8H2118.14V95.3H2117.64ZM2117.64 4.99999V4.49999H2117.14V4.99999H2117.64ZM2154.39 4.99999H2154.89V4.49999H2154.39V4.99999ZM2154.39 152V152.5H2154.89V152H2154.39ZM2114.07 152L2113.65 152.27L2113.8 152.5H2114.07V152ZM2057.37 63.59L2057.8 63.3201L2057.65 63.09H2057.37V63.59ZM2056.95 63.59V63.09H2056.45V63.59H2056.95ZM2056.95 152V152.5H2057.45V152H2056.95ZM2020.7 152V4.99999H2019.7V152H2020.7ZM2020.2 5.49999H2060.52V4.49999H2020.2V5.49999ZM2060.1 5.26587L2116.8 95.5659L2117.65 95.0341L2060.95 4.73411L2060.1 5.26587ZM2117.22 95.8H2117.64V94.8H2117.22V95.8ZM2118.14 95.3V4.99999H2117.14V95.3H2118.14ZM2117.64 5.49999H2154.39V4.49999H2117.64V5.49999ZM2153.89 4.99999V152H2154.89V4.99999H2153.89ZM2154.39 151.5H2114.07V152.5H2154.39V151.5ZM2114.5 151.73L2057.8 63.3201L2056.95 63.8599L2113.65 152.27L2114.5 151.73ZM2057.37 63.09H2056.95V64.09H2057.37V63.09ZM2056.45 63.59V152H2057.45V63.59H2056.45ZM2056.95 151.5H2020.2V152.5H2056.95V151.5ZM2215.89 92.57V92.07H2215.39V92.57H2215.89ZM2215.89 119.45H2215.39V119.95H2215.89V119.45ZM2286.87 119.45H2287.37V118.95H2286.87V119.45ZM2286.87 152V152.5H2287.37V152H2286.87ZM2179.14 152H2178.64V152.5H2179.14V152ZM2179.14 4.99999V4.49999H2178.64V4.99999H2179.14ZM2286.66 4.99999H2287.16V4.49999H2286.66V4.99999ZM2286.66 37.55V38.05H2287.16V37.55H2286.66ZM2215.89 37.55V37.05H2215.39V37.55H2215.89ZM2215.89 62.54H2215.39V63.04H2215.89V62.54ZM2280.15 62.54H2280.65V62.04H2280.15V62.54ZM2280.15 92.57V93.07H2280.65V92.57H2280.15ZM2215.39 92.57V119.45H2216.39V92.57H2215.39ZM2215.89 119.95H2286.87V118.95H2215.89V119.95ZM2286.37 119.45V152H2287.37V119.45H2286.37ZM2286.87 151.5H2179.14V152.5H2286.87V151.5ZM2179.64 152V4.99999H2178.64V152H2179.64ZM2179.14 5.49999H2286.66V4.49999H2179.14V5.49999ZM2286.16 4.99999V37.55H2287.16V4.99999H2286.16ZM2286.66 37.05H2215.89V38.05H2286.66V37.05ZM2215.39 37.55V62.54H2216.39V37.55H2215.39ZM2215.89 63.04H2280.15V62.04H2215.89V63.04ZM2279.65 62.54V92.57H2280.65V62.54H2279.65ZM2280.15 92.07H2215.89V93.07H2280.15V92.07ZM2299.37 106.85L2299.27 106.359L2298.84 106.442L2298.87 106.882L2299.37 106.85ZM2332.13 100.55L2332.63 100.511L2332.58 99.9533L2332.03 100.059L2332.13 100.55ZM2356.7 92.78L2356.77 92.2857L2356.77 92.2856L2356.7 92.78ZM2423.9 44.9L2424.01 45.3874L2424.43 45.2904L2424.4 44.8562L2423.9 44.9ZM2389.88 52.67L2389.39 52.76L2389.48 53.2737L2389.99 53.1574L2389.88 52.67ZM2380.22 62.54L2380.3 62.0467L2380.3 62.046L2380.22 62.54ZM2299.46 107.341L2332.22 101.041L2332.03 100.059L2299.27 106.359L2299.46 107.341ZM2331.63 100.589C2332.27 108.81 2335.85 115.192 2341.62 119.509C2347.37 123.817 2355.26 126.04 2364.47 126.04V125.04C2355.41 125.04 2347.75 122.853 2342.22 118.709C2336.7 114.573 2333.25 108.46 2332.63 100.511L2331.63 100.589ZM2364.47 126.04C2371.25 126.04 2376.92 124.665 2380.92 121.964C2384.94 119.248 2387.23 115.21 2387.23 110H2386.23C2386.23 114.87 2384.11 118.602 2380.36 121.136C2376.59 123.685 2371.13 125.04 2364.47 125.04V126.04ZM2387.23 110C2387.23 107.631 2386.81 105.534 2385.78 103.671C2384.75 101.808 2383.13 100.22 2380.79 98.8335C2376.13 96.0754 2368.53 94.0707 2356.77 92.2857L2356.62 93.2743C2368.38 95.0593 2375.8 97.0446 2380.28 99.694C2382.5 101.011 2383.98 102.481 2384.91 104.155C2385.83 105.83 2386.23 107.749 2386.23 110H2387.23ZM2356.77 92.2856C2337.28 89.3512 2324.17 84.2268 2315.93 76.8157C2307.71 69.4266 2304.28 59.7078 2304.28 47.42H2303.28C2303.28 59.9122 2306.78 69.9334 2315.26 77.5593C2323.71 85.1632 2337.06 90.3288 2356.62 93.2744L2356.77 92.2856ZM2304.28 47.42C2304.28 32.7611 2310.04 21.3608 2320.07 13.6119C2330.12 5.8509 2344.49 1.71999 2361.74 1.71999V0.719989C2344.34 0.719989 2329.73 4.88408 2319.46 12.8206C2309.17 20.7692 2303.28 32.4688 2303.28 47.42H2304.28ZM2361.74 1.71999C2396.67 1.71999 2421.12 19.0595 2423.4 44.9438L2424.4 44.8562C2422.05 18.2404 2396.94 0.719989 2361.74 0.719989V1.71999ZM2423.79 44.4125L2389.77 52.1825L2389.99 53.1574L2424.01 45.3874L2423.79 44.4125ZM2390.37 52.5799C2388.99 45.0265 2385.73 39.4439 2380.78 35.7577C2375.84 32.0774 2369.26 30.33 2361.32 30.33V31.33C2369.12 31.33 2375.47 33.0476 2380.18 36.5598C2384.89 40.0661 2388.04 45.4035 2389.39 52.76L2390.37 52.5799ZM2361.32 30.33C2354.34 30.33 2349.03 31.6504 2345.45 34.0642C2341.84 36.495 2340.03 40.0116 2340.03 44.27H2341.03C2341.03 40.3384 2342.68 37.135 2346.01 34.8933C2349.36 32.6346 2354.44 31.33 2361.32 31.33V30.33ZM2340.03 44.27C2340.03 47.298 2340.77 49.7509 2342.38 51.7765C2343.98 53.7912 2346.39 55.3359 2349.64 56.6259C2356.11 59.1979 2366.1 60.8329 2380.14 63.034L2380.3 62.046C2366.2 59.8371 2356.35 58.2171 2350.01 55.6966C2346.85 54.4404 2344.61 52.9794 2343.16 51.1551C2341.73 49.3416 2341.03 47.122 2341.03 44.27H2340.03ZM2380.14 63.0333C2395.93 65.648 2406.67 70.8128 2413.48 78.2597C2420.27 85.6997 2423.19 95.4861 2423.19 107.48H2424.19C2424.19 95.3239 2421.23 85.2653 2414.21 77.5853C2407.21 69.9122 2396.22 64.682 2380.3 62.0467L2380.14 63.0333ZM2423.19 107.48C2423.19 122.867 2416.91 134.846 2406.19 142.992C2395.46 151.15 2380.25 155.49 2362.37 155.49V156.49C2380.4 156.49 2395.84 152.115 2406.8 143.788C2417.77 135.449 2424.19 123.173 2424.19 107.48H2423.19ZM2362.37 155.49C2343.02 155.49 2327.87 150.576 2317.32 142.056C2306.78 133.542 2300.8 121.392 2299.87 106.818L2298.87 106.882C2299.82 121.708 2305.92 134.128 2316.69 142.834C2327.46 151.534 2342.86 156.49 2362.37 156.49V155.49Z" fill="#8982FF"/>
</svg>
