<svg width="2197" height="157" viewBox="0 0 2197 157" fill="none" xmlns="http://www.w3.org/2000/svg">
<path opacity="0.1" d="M0.390001 152H-0.109999V152.5H0.390001V152ZM0.390001 4.99999V4.49999H-0.109999V4.99999H0.390001ZM37.14 4.99999H37.64V4.49999H37.14V4.99999ZM37.14 119.24H36.64V119.74H37.14V119.24ZM103.5 119.24H104V118.74H103.5V119.24ZM103.5 152V152.5H104V152H103.5ZM0.890001 152V4.99999H-0.109999V152H0.890001ZM0.390001 5.49999H37.14V4.49999H0.390001V5.49999ZM36.64 4.99999V119.24H37.64V4.99999H36.64ZM37.14 119.74H103.5V118.74H37.14V119.74ZM103 119.24V152H104V119.24H103ZM103.5 151.5H0.390001V152.5H103.5V151.5ZM115.839 4.99999V4.49999H115.339V4.99999H115.839ZM152.589 4.99999H153.089V4.49999H152.589V4.99999ZM204.459 4.99999V4.49999H203.959V4.99999H204.459ZM241.209 4.99999H241.709V4.49999H241.209V4.99999ZM116.339 95.3V4.99999H115.339V95.3H116.339ZM115.839 5.49999H152.589V4.49999H115.839V5.49999ZM152.089 4.99999V92.57H153.089V4.99999H152.089ZM152.089 92.57C152.089 103.127 154.304 110.933 158.773 116.102C163.255 121.286 169.926 123.73 178.629 123.73V122.73C170.113 122.73 163.763 120.344 159.53 115.448C155.284 110.537 153.089 103.013 153.089 92.57H152.089ZM178.629 123.73C187.336 123.73 193.954 121.231 198.383 116.02C202.797 110.825 204.959 103.021 204.959 92.57H203.959C203.959 102.909 201.816 110.435 197.621 115.372C193.439 120.294 187.143 122.73 178.629 122.73V123.73ZM204.959 92.57V4.99999H203.959V92.57H204.959ZM204.459 5.49999H241.209V4.49999H204.459V5.49999ZM240.709 4.99999V95.3H241.709V4.99999H240.709ZM240.709 95.3C240.709 114.625 234.966 129.654 224.377 139.854C213.786 150.056 198.28 155.49 178.629 155.49V156.49C198.459 156.49 214.243 151.004 225.071 140.574C235.902 130.141 241.709 114.825 241.709 95.3H240.709ZM178.629 155.49C158.979 155.49 143.42 150.056 132.775 139.853C122.134 129.653 116.339 114.624 116.339 95.3H115.339C115.339 114.826 121.199 130.142 132.083 140.575C142.964 151.004 158.8 156.49 178.629 156.49V155.49ZM337.796 1.00999L337.792 1.50997L337.793 1.50998L337.796 1.00999ZM406.046 52.04L406.178 52.5222L406.632 52.3976L406.535 51.9368L406.046 52.04ZM371.606 61.49L371.123 61.6206L371.254 62.1049L371.738 61.9722L371.606 61.49ZM372.446 92.57L372.566 92.0846L372.068 91.9617L371.958 92.4621L372.446 92.57ZM407.306 101.18L407.798 101.268L407.88 100.807L407.426 100.695L407.306 101.18ZM337.796 155.99L337.793 155.49L337.792 155.49L337.796 155.99ZM260.806 78.5C260.806 37.1615 289.595 1.09269 337.792 1.50997L337.8 0.51001C288.978 0.087307 259.806 36.6785 259.806 78.5H260.806ZM337.793 1.50998C372.038 1.71879 399.103 21.5405 405.557 52.1432L406.535 51.9368C399.969 20.7995 372.434 0.721187 337.799 0.510001L337.793 1.50998ZM405.914 51.5578L371.474 61.0078L371.738 61.9722L406.178 52.5222L405.914 51.5578ZM372.089 61.3594C369.652 52.3545 365.351 45.325 359.425 40.547C353.497 35.7671 345.979 33.27 337.166 33.27V34.27C345.783 34.27 353.07 36.7079 358.797 41.3255C364.526 45.945 368.73 52.7755 371.123 61.6206L372.089 61.3594ZM337.166 33.27C325.27 33.27 315.209 37.8409 308.127 45.8014C301.05 53.7573 296.976 65.065 296.976 78.5H297.976C297.976 65.265 301.987 54.2077 308.875 46.4661C315.758 38.7291 325.542 34.27 337.166 34.27V33.27ZM296.976 78.5C296.976 91.935 301.05 103.243 308.127 111.199C315.209 119.159 325.27 123.73 337.166 123.73V122.73C325.542 122.73 315.758 118.271 308.875 110.534C301.987 102.792 297.976 91.735 297.976 78.5H296.976ZM337.166 123.73C346.299 123.73 354.137 121.02 360.251 115.76C366.361 110.504 370.711 102.734 372.934 92.6779L371.958 92.4621C369.771 102.356 365.511 109.916 359.599 115.002C353.69 120.085 346.093 122.73 337.166 122.73V123.73ZM372.326 93.0554L407.186 101.665L407.426 100.695L372.566 92.0846L372.326 93.0554ZM406.814 101.092C400.772 135.049 373.08 155.281 337.793 155.49L337.799 156.49C373.492 156.279 401.66 135.771 407.798 101.268L406.814 101.092ZM337.792 155.49C289.595 155.907 260.806 119.839 260.806 78.5H259.806C259.806 120.321 288.978 156.913 337.8 156.49L337.792 155.49ZM534.751 122.6L535.214 122.41L535.213 122.409L534.751 122.6ZM540.631 136.88L540.169 137.07L540.175 137.083L540.631 136.88ZM549.031 148.85H549.531V148.562L549.282 148.417L549.031 148.85ZM549.031 152V152.5H549.531V152H549.031ZM507.871 152L507.548 152.382L507.688 152.5H507.871V152ZM503.461 144.86L503.944 144.728L503.936 144.7L503.925 144.674L503.461 144.86ZM494.431 122.39L493.966 122.573L493.967 122.576L494.431 122.39ZM460.831 103.28V102.78H460.331V103.28H460.831ZM460.831 152V152.5H461.331V152H460.831ZM424.081 152H423.581V152.5H424.081V152ZM424.081 4.99999V4.49999H423.581V4.99999H424.081ZM501.781 86.9L501.749 86.4011L501.281 86.4318V86.9H501.781ZM501.781 97.4H501.281V97.8427L501.721 97.8963L501.781 97.4ZM460.831 71.36H460.331V71.86H460.831V71.36ZM460.831 36.92V36.42H460.331V36.92H460.831ZM534.289 122.79L540.169 137.07L541.094 136.69L535.214 122.41L534.289 122.79ZM540.175 137.083C542.681 142.723 544.627 146.878 548.781 149.283L549.282 148.417C545.456 146.202 543.622 142.377 541.088 136.677L540.175 137.083ZM548.531 148.85V152H549.531V148.85H548.531ZM549.031 151.5H507.871V152.5H549.031V151.5ZM508.194 151.618C505.567 149.395 504.558 146.98 503.944 144.728L502.979 144.992C503.625 147.36 504.715 149.985 507.548 152.382L508.194 151.618ZM503.925 144.674L494.895 122.204L493.967 122.576L502.997 145.046L503.925 144.674ZM494.897 122.207C491.96 114.759 489.508 109.871 486.072 106.867C482.603 103.835 478.202 102.78 471.541 102.78V103.78C478.11 103.78 482.215 104.825 485.414 107.62C488.645 110.444 491.023 115.111 493.966 122.573L494.897 122.207ZM471.541 102.78H460.831V103.78H471.541V102.78ZM460.331 103.28V152H461.331V103.28H460.331ZM460.831 151.5H424.081V152.5H460.831V151.5ZM424.581 152V4.99999H423.581V152H424.581ZM424.081 5.49999H501.991V4.49999H424.081V5.49999ZM501.991 5.49999C516.08 5.49999 527.076 9.30837 534.546 16.106C542.01 22.8984 546.011 32.729 546.011 44.9H547.011C547.011 32.501 542.928 22.3816 535.219 15.3664C527.516 8.35661 516.253 4.49999 501.991 4.49999V5.49999ZM546.011 44.9C546.011 58.4484 542.055 68.325 534.6 75.0577C527.131 81.8034 516.076 85.4598 501.749 86.4011L501.814 87.3989C516.257 86.4502 527.567 82.7566 535.27 75.7998C542.988 68.83 547.011 58.6516 547.011 44.9H546.011ZM501.281 86.9V97.4H502.281V86.9H501.281ZM501.721 97.8963C510.34 98.9475 516.312 100.043 521.212 103.404C526.104 106.759 529.995 112.423 534.289 122.791L535.213 122.409C530.897 111.987 526.914 106.101 521.778 102.579C516.651 99.0622 510.443 97.9525 501.842 96.9037L501.721 97.8963ZM460.831 71.86H493.171V70.86H460.831V71.86ZM493.171 71.86C498.317 71.86 502.604 70.2497 505.605 67.1675C508.604 64.0865 510.261 59.5921 510.261 53.93H509.261C509.261 59.3979 507.664 63.6185 504.888 66.47C502.113 69.3203 498.106 70.86 493.171 70.86V71.86ZM510.261 53.93C510.261 48.1829 508.824 43.7832 505.918 40.8223C503.01 37.8596 498.713 36.42 493.171 36.42V37.42C498.55 37.42 502.547 38.8153 505.205 41.5227C507.863 44.2318 509.261 48.3371 509.261 53.93H510.261ZM493.171 36.42H460.831V37.42H493.171V36.42ZM460.331 36.92V71.36H461.331V36.92H460.331ZM704.22 152V152.5H704.941L704.688 151.825L704.22 152ZM666.21 152L665.737 152.164L665.854 152.5H666.21V152ZM658.65 130.16L659.122 129.996L659.006 129.66H658.65V130.16ZM597.96 130.16V129.66H597.604L597.487 129.996L597.96 130.16ZM590.4 152V152.5H590.756L590.872 152.164L590.4 152ZM552.18 152L551.711 151.825L551.459 152.5H552.18V152ZM607.2 4.99999V4.49999H606.853L606.731 4.82472L607.2 4.99999ZM649.2 4.99999L649.668 4.82472L649.547 4.49999H649.2V4.99999ZM614.76 81.65L615.232 81.8152L615.233 81.8105L614.76 81.65ZM608.88 98.45L608.408 98.2848L608.175 98.95H608.88V98.45ZM647.73 98.45V98.95H648.435L648.202 98.2848L647.73 98.45ZM641.85 81.65L641.376 81.8105L641.378 81.8152L641.85 81.65ZM634.71 42.8L635.208 42.7608L635.172 42.3H634.71V42.8ZM621.9 42.8V42.3H621.438L621.401 42.7608L621.9 42.8ZM704.22 151.5H666.21V152.5H704.22V151.5ZM666.682 151.836L659.122 129.996L658.177 130.324L665.737 152.164L666.682 151.836ZM658.65 129.66H597.96V130.66H658.65V129.66ZM597.487 129.996L589.927 151.836L590.872 152.164L598.432 130.324L597.487 129.996ZM590.4 151.5H552.18V152.5H590.4V151.5ZM552.648 152.175L607.668 5.17526L606.731 4.82472L551.711 151.825L552.648 152.175ZM607.2 5.49999H649.2V4.49999H607.2V5.49999ZM648.731 5.17526L703.751 152.175L704.688 151.825L649.668 4.82472L648.731 5.17526ZM614.288 81.4848L608.408 98.2848L609.352 98.6152L615.232 81.8152L614.288 81.4848ZM608.88 98.95H647.73V97.95H608.88V98.95ZM648.202 98.2848L642.322 81.4848L641.378 81.8152L647.258 98.6152L648.202 98.2848ZM642.323 81.4895C638.141 69.1504 636.676 61.424 635.208 42.7608L634.211 42.8392C635.683 61.556 637.159 69.3695 641.376 81.8105L642.323 81.4895ZM634.71 42.3H621.9V43.3H634.71V42.3ZM621.401 42.7608C619.933 61.424 618.469 69.1504 614.286 81.4895L615.233 81.8105C619.451 69.3695 620.926 61.556 622.398 42.8392L621.401 42.7608ZM799.643 70.1L799.905 70.5262L800.427 70.2057L800.008 69.7583L799.643 70.1ZM839.543 70.73L839.509 70.2312L839.088 70.2601L839.046 70.6802L839.543 70.73ZM838.703 79.13L838.206 79.0802L838.164 79.496L838.566 79.6108L838.703 79.13ZM862.853 90.89L863.135 90.4765L863.131 90.474L862.853 90.89ZM868.103 94.46L867.822 94.8735L868.228 95.1495L868.512 94.7487L868.103 94.46ZM880.493 68.42L880.652 67.946L880.161 67.781L880.014 68.2783L880.493 68.42ZM913.043 79.34L913.517 79.5005L913.678 79.0255L913.202 78.866L913.043 79.34ZM886.793 103.07L886.713 102.577L886.426 102.624L886.325 102.896L886.793 103.07ZM884.693 108.74L884.225 108.566L884.117 108.857L884.33 109.083L884.693 108.74ZM907.373 152V152.5H907.937L907.87 151.941L907.373 152ZM869.993 152L869.504 152.104L869.588 152.5H869.993V152ZM863.903 133.1L864.366 132.91L864.238 132.6H863.903V133.1ZM857.603 133.1V132.6H857.266L857.14 132.913L857.603 133.1ZM830.513 56.87L830.23 57.282L830.511 57.4752L830.794 57.2841L830.513 56.87ZM844.793 114.2L845.179 114.518L845.472 114.163L845.142 113.842L844.793 114.2ZM819.803 89.84L820.152 89.482L819.842 89.1794L819.499 89.4437L819.803 89.84ZM769.273 115.46C769.273 93.0565 784.187 80.1665 799.905 70.5262L799.382 69.6738C783.6 79.3535 768.273 92.5035 768.273 115.46H769.273ZM800.008 69.7583C790.804 59.9264 784.813 49.9642 784.813 37.97H783.813C783.813 50.3358 790.003 60.5336 799.278 70.4417L800.008 69.7583ZM784.813 37.97C784.813 27.3165 789.514 18.2718 797.72 11.8781C805.934 5.47761 817.683 1.71999 831.773 1.71999V0.719989C817.514 0.719989 805.533 4.52237 797.105 11.0893C788.668 17.6632 783.813 26.9934 783.813 37.97H784.813ZM831.773 1.71999C845.549 1.71999 856.771 5.37268 864.537 11.5598C872.294 17.7399 876.633 26.4692 876.633 36.71H877.633C877.633 26.1608 873.153 17.1451 865.16 10.7777C857.176 4.4173 845.718 0.719989 831.773 0.719989V1.71999ZM876.633 36.71C876.633 56.0985 860.766 68.7724 839.509 70.2312L839.578 71.2288C861.161 69.7476 877.633 56.8015 877.633 36.71H876.633ZM839.046 70.6802L838.206 79.0802L839.201 79.1798L840.041 70.7797L839.046 70.6802ZM838.566 79.6108C845.853 81.6926 855.045 86.2855 862.576 91.306L863.131 90.474C855.542 85.4145 846.254 80.7674 838.841 78.6492L838.566 79.6108ZM862.572 91.3035L867.822 94.8735L868.385 94.0465L863.135 90.4765L862.572 91.3035ZM868.512 94.7487C874.639 86.086 878.23 77.844 880.973 68.5617L880.014 68.2783C877.296 77.476 873.748 85.614 867.695 94.1713L868.512 94.7487ZM880.334 68.894L912.884 79.814L913.202 78.866L880.652 67.946L880.334 68.894ZM912.57 79.1795C908.421 91.4181 898.057 100.72 886.713 102.577L886.874 103.563C898.63 101.64 909.266 92.0419 913.517 79.5005L912.57 79.1795ZM886.325 102.896L884.225 108.566L885.162 108.914L887.262 103.244L886.325 102.896ZM884.33 109.083C897.927 123.517 905.213 138.122 906.877 152.059L907.87 151.941C906.174 137.738 898.76 122.943 885.057 108.397L884.33 109.083ZM907.373 151.5H869.993V152.5H907.373V151.5ZM870.483 151.896C869.003 144.922 865.84 136.489 864.366 132.91L863.441 133.29C864.907 136.851 868.044 145.218 869.504 152.104L870.483 151.896ZM863.903 132.6H857.603V133.6H863.903V132.6ZM857.14 132.913C851.159 147.761 833.776 155.7 814.343 155.7V156.7C833.971 156.7 851.868 148.679 858.067 133.287L857.14 132.913ZM814.343 155.7C800.789 155.7 789.523 151.739 781.653 144.749C773.789 137.764 769.273 127.719 769.273 115.46H768.273C768.273 127.981 772.893 138.306 780.989 145.496C789.079 152.681 800.598 156.7 814.343 156.7V155.7ZM817.623 38.39C817.623 43.4163 820.043 50.2782 830.23 57.282L830.797 56.458C820.824 49.6018 818.623 43.0237 818.623 38.39H817.623ZM830.794 57.2841C834.372 54.8637 837.726 52.3129 840.187 49.4242C842.654 46.5277 844.243 43.267 844.243 39.44H843.243C843.243 42.963 841.788 46.0023 839.425 48.7758C837.056 51.5571 833.795 54.0463 830.233 56.4559L830.794 57.2841ZM844.243 39.44C844.243 35.4366 842.887 32.2488 840.483 30.0661C838.086 27.8892 834.7 26.76 830.723 26.76V27.76C834.517 27.76 837.641 28.8358 839.811 30.8064C841.975 32.7712 843.243 35.6734 843.243 39.44H844.243ZM830.723 26.76C823.59 26.76 817.623 31.5368 817.623 38.39H818.623C818.623 32.2232 823.997 27.76 830.723 27.76V26.76ZM805.233 109.79C805.233 113.882 806.526 117.9 809.388 120.898C812.256 123.902 816.649 125.83 822.743 125.83V124.83C816.868 124.83 812.756 122.978 810.111 120.207C807.461 117.43 806.233 113.678 806.233 109.79H805.233ZM822.743 125.83C831.737 125.83 839.221 121.753 845.179 114.518L844.407 113.882C838.606 120.927 831.39 124.83 822.743 124.83V125.83ZM845.142 113.842L820.152 89.482L819.454 90.198L844.444 114.558L845.142 113.842ZM819.499 89.4437C811.343 95.7171 805.233 100.689 805.233 109.79H806.233C806.233 101.251 811.884 96.5629 820.108 90.2363L819.499 89.4437ZM972.019 4.99999V4.49999H971.519V4.99999H972.019ZM1100.12 4.99999H1100.62V4.49999H1100.12V4.99999ZM1100.12 37.55V38.05H1100.62V37.55H1100.12ZM1054.34 37.55V37.05H1053.84V37.55H1054.34ZM1054.34 152V152.5H1054.84V152H1054.34ZM1017.59 152H1017.09V152.5H1017.59V152ZM1017.59 37.55H1018.09V37.05H1017.59V37.55ZM972.019 37.55H971.519V38.05H972.019V37.55ZM972.019 5.49999H1100.12V4.49999H972.019V5.49999ZM1099.62 4.99999V37.55H1100.62V4.99999H1099.62ZM1100.12 37.05H1054.34V38.05H1100.12V37.05ZM1053.84 37.55V152H1054.84V37.55H1053.84ZM1054.34 151.5H1017.59V152.5H1054.34V151.5ZM1018.09 152V37.55H1017.09V152H1018.09ZM1017.59 37.05H972.019V38.05H1017.59V37.05ZM972.519 37.55V4.99999H971.519V37.55H972.519ZM1151.33 92.57V92.07H1150.83V92.57H1151.33ZM1151.33 119.45H1150.83V119.95H1151.33V119.45ZM1222.31 119.45H1222.81V118.95H1222.31V119.45ZM1222.31 152V152.5H1222.81V152H1222.31ZM1114.58 152H1114.08V152.5H1114.58V152ZM1114.58 4.99999V4.49999H1114.08V4.99999H1114.58ZM1222.1 4.99999H1222.6V4.49999H1222.1V4.99999ZM1222.1 37.55V38.05H1222.6V37.55H1222.1ZM1151.33 37.55V37.05H1150.83V37.55H1151.33ZM1151.33 62.54H1150.83V63.04H1151.33V62.54ZM1215.59 62.54H1216.09V62.04H1215.59V62.54ZM1215.59 92.57V93.07H1216.09V92.57H1215.59ZM1150.83 92.57V119.45H1151.83V92.57H1150.83ZM1151.33 119.95H1222.31V118.95H1151.33V119.95ZM1221.81 119.45V152H1222.81V119.45H1221.81ZM1222.31 151.5H1114.58V152.5H1222.31V151.5ZM1115.08 152V4.99999H1114.08V152H1115.08ZM1114.58 5.49999H1222.1V4.49999H1114.58V5.49999ZM1221.6 4.99999V37.55H1222.6V4.99999H1221.6ZM1222.1 37.05H1151.33V38.05H1222.1V37.05ZM1150.83 37.55V62.54H1151.83V37.55H1150.83ZM1151.33 63.04H1215.59V62.04H1151.33V63.04ZM1215.09 62.54V92.57H1216.09V62.54H1215.09ZM1215.59 92.07H1151.33V93.07H1215.59V92.07ZM1241.32 152H1240.82V152.5H1241.32V152ZM1241.32 4.99999V4.49999H1240.82V4.99999H1241.32ZM1281.64 4.99999L1282.06 4.73411L1281.91 4.49999H1281.64V4.99999ZM1338.34 95.3L1337.91 95.5659L1338.06 95.8H1338.34V95.3ZM1338.76 95.3V95.8H1339.26V95.3H1338.76ZM1338.76 4.99999V4.49999H1338.26V4.99999H1338.76ZM1375.51 4.99999H1376.01V4.49999H1375.51V4.99999ZM1375.51 152V152.5H1376.01V152H1375.51ZM1335.19 152L1334.77 152.27L1334.91 152.5H1335.19V152ZM1278.49 63.59L1278.91 63.3201L1278.76 63.09H1278.49V63.59ZM1278.07 63.59V63.09H1277.57V63.59H1278.07ZM1278.07 152V152.5H1278.57V152H1278.07ZM1241.82 152V4.99999H1240.82V152H1241.82ZM1241.32 5.49999H1281.64V4.49999H1241.32V5.49999ZM1281.21 5.26587L1337.91 95.5659L1338.76 95.0341L1282.06 4.73411L1281.21 5.26587ZM1338.34 95.8H1338.76V94.8H1338.34V95.8ZM1339.26 95.3V4.99999H1338.26V95.3H1339.26ZM1338.76 5.49999H1375.51V4.49999H1338.76V5.49999ZM1375.01 4.99999V152H1376.01V4.99999H1375.01ZM1375.51 151.5H1335.19V152.5H1375.51V151.5ZM1335.61 151.73L1278.91 63.3201L1278.07 63.8599L1334.77 152.27L1335.61 151.73ZM1278.49 63.09H1278.07V64.09H1278.49V63.09ZM1277.57 63.59V152H1278.57V63.59H1277.57ZM1278.07 151.5H1241.32V152.5H1278.07V151.5ZM1400.25 152H1399.75V152.5H1400.25V152ZM1400.25 4.99999V4.49999H1399.75V4.99999H1400.25ZM1440.57 4.99999L1441 4.73411L1440.85 4.49999H1440.57V4.99999ZM1497.27 95.3L1496.85 95.5659L1497 95.8H1497.27V95.3ZM1497.69 95.3V95.8H1498.19V95.3H1497.69ZM1497.69 4.99999V4.49999H1497.19V4.99999H1497.69ZM1534.44 4.99999H1534.94V4.49999H1534.44V4.99999ZM1534.44 152V152.5H1534.94V152H1534.44ZM1494.12 152L1493.7 152.27L1493.85 152.5H1494.12V152ZM1437.42 63.59L1437.84 63.3201L1437.7 63.09H1437.42V63.59ZM1437 63.59V63.09H1436.5V63.59H1437ZM1437 152V152.5H1437.5V152H1437ZM1400.75 152V4.99999H1399.75V152H1400.75ZM1400.25 5.49999H1440.57V4.49999H1400.25V5.49999ZM1440.15 5.26587L1496.85 95.5659L1497.7 95.0341L1441 4.73411L1440.15 5.26587ZM1497.27 95.8H1497.69V94.8H1497.27V95.8ZM1498.19 95.3V4.99999H1497.19V95.3H1498.19ZM1497.69 5.49999H1534.44V4.49999H1497.69V5.49999ZM1533.94 4.99999V152H1534.94V4.99999H1533.94ZM1534.44 151.5H1494.12V152.5H1534.44V151.5ZM1494.54 151.73L1437.84 63.3201L1437 63.8599L1493.7 152.27L1494.54 151.73ZM1437.42 63.09H1437V64.09H1437.42V63.09ZM1436.5 63.59V152H1437.5V63.59H1436.5ZM1437 151.5H1400.25V152.5H1437V151.5ZM1561.5 152H1561V152.5H1561.5V152ZM1561.5 4.99999V4.49999H1561V4.99999H1561.5ZM1598.25 4.99999H1598.75V4.49999H1598.25V4.99999ZM1598.25 152V152.5H1598.75V152H1598.25ZM1562 152V4.99999H1561V152H1562ZM1561.5 5.49999H1598.25V4.49999H1561.5V5.49999ZM1597.75 4.99999V152H1598.75V4.99999H1597.75ZM1598.25 151.5H1561.5V152.5H1598.25V151.5ZM1618.92 106.85L1618.82 106.359L1618.39 106.442L1618.42 106.882L1618.92 106.85ZM1651.68 100.55L1652.18 100.511L1652.13 99.9533L1651.58 100.059L1651.68 100.55ZM1676.25 92.78L1676.32 92.2857L1676.32 92.2856L1676.25 92.78ZM1743.45 44.9L1743.56 45.3874L1743.99 45.2904L1743.95 44.8562L1743.45 44.9ZM1709.43 52.67L1708.94 52.76L1709.03 53.2737L1709.54 53.1574L1709.43 52.67ZM1699.77 62.54L1699.85 62.0467L1699.85 62.046L1699.77 62.54ZM1619.01 107.341L1651.77 101.041L1651.58 100.059L1618.82 106.359L1619.01 107.341ZM1651.18 100.589C1651.82 108.81 1655.41 115.192 1661.17 119.509C1666.92 123.817 1674.81 126.04 1684.02 126.04V125.04C1674.96 125.04 1667.3 122.853 1661.77 118.709C1656.25 114.573 1652.8 108.46 1652.18 100.511L1651.18 100.589ZM1684.02 126.04C1690.8 126.04 1696.47 124.665 1700.47 121.964C1704.49 119.248 1706.78 115.21 1706.78 110H1705.78C1705.78 114.87 1703.66 118.602 1699.91 121.136C1696.14 123.685 1690.68 125.04 1684.02 125.04V126.04ZM1706.78 110C1706.78 107.631 1706.36 105.534 1705.33 103.671C1704.3 101.808 1702.68 100.22 1700.34 98.8335C1695.68 96.0754 1688.08 94.0707 1676.32 92.2857L1676.17 93.2743C1687.93 95.0593 1695.35 97.0446 1699.83 99.694C1702.05 101.011 1703.53 102.481 1704.46 104.155C1705.38 105.83 1705.78 107.749 1705.78 110H1706.78ZM1676.32 92.2856C1656.83 89.3512 1643.72 84.2268 1635.48 76.8157C1627.26 69.4266 1623.83 59.7078 1623.83 47.42H1622.83C1622.83 59.9122 1626.33 69.9334 1634.81 77.5593C1643.26 85.1632 1656.61 90.3288 1676.17 93.2744L1676.32 92.2856ZM1623.83 47.42C1623.83 32.7611 1629.59 21.3608 1639.62 13.6119C1649.67 5.8509 1664.04 1.71999 1681.29 1.71999V0.719989C1663.89 0.719989 1649.28 4.88408 1639.01 12.8206C1628.72 20.7692 1622.83 32.4688 1622.83 47.42H1623.83ZM1681.29 1.71999C1716.22 1.71999 1740.67 19.0595 1742.95 44.9438L1743.95 44.8562C1741.6 18.2404 1716.49 0.719989 1681.29 0.719989V1.71999ZM1743.34 44.4125L1709.32 52.1825L1709.54 53.1574L1743.56 45.3874L1743.34 44.4125ZM1709.92 52.5799C1708.54 45.0265 1705.28 39.4439 1700.33 35.7577C1695.39 32.0774 1688.81 30.33 1680.87 30.33V31.33C1688.68 31.33 1695.02 33.0476 1699.73 36.5598C1704.44 40.0661 1707.59 45.4035 1708.94 52.76L1709.92 52.5799ZM1680.87 30.33C1673.89 30.33 1668.58 31.6504 1665 34.0642C1661.39 36.495 1659.58 40.0116 1659.58 44.27H1660.58C1660.58 40.3384 1662.23 37.135 1665.56 34.8933C1668.91 32.6346 1673.99 31.33 1680.87 31.33V30.33ZM1659.58 44.27C1659.58 47.298 1660.33 49.7509 1661.93 51.7765C1663.53 53.7912 1665.94 55.3359 1669.19 56.6259C1675.66 59.1979 1685.65 60.8329 1699.69 63.034L1699.85 62.046C1685.75 59.8371 1675.9 58.2171 1669.56 55.6966C1666.4 54.4404 1664.16 52.9794 1662.72 51.1551C1661.28 49.3416 1660.58 47.122 1660.58 44.27H1659.58ZM1699.69 63.0333C1715.48 65.648 1726.23 70.8128 1733.03 78.2597C1739.82 85.6997 1742.74 95.4861 1742.74 107.48H1743.74C1743.74 95.3239 1740.78 85.2653 1733.76 77.5853C1726.76 69.9122 1715.77 64.682 1699.85 62.0467L1699.69 63.0333ZM1742.74 107.48C1742.74 122.867 1736.46 134.846 1725.74 142.992C1715.01 151.15 1699.8 155.49 1681.92 155.49V156.49C1699.95 156.49 1715.4 152.115 1726.35 143.788C1737.32 135.449 1743.74 123.173 1743.74 107.48H1742.74ZM1681.92 155.49C1662.58 155.49 1647.42 150.576 1636.87 142.056C1626.33 133.542 1620.35 121.392 1619.42 106.818L1618.42 106.882C1619.37 121.708 1625.47 134.128 1636.24 142.834C1647.01 151.534 1662.41 156.49 1681.92 156.49V155.49ZM1757.26 78.5C1757.26 34.0443 1789.8 1.50999 1833.83 1.50999V0.509991C1789.24 0.509991 1756.26 33.4957 1756.26 78.5H1757.26ZM1833.83 1.50999C1877.65 1.50999 1910.19 34.0434 1910.19 78.5H1911.19C1911.19 33.4966 1878.21 0.509991 1833.83 0.509991V1.50999ZM1910.19 78.5C1910.19 122.957 1877.65 155.49 1833.83 155.49V156.49C1878.21 156.49 1911.19 123.503 1911.19 78.5H1910.19ZM1833.83 155.49C1789.8 155.49 1757.26 122.956 1757.26 78.5H1756.26C1756.26 123.504 1789.24 156.49 1833.83 156.49V155.49ZM1793.43 78.5C1793.43 91.935 1797.5 103.243 1804.61 111.199C1811.72 119.16 1821.83 123.73 1833.83 123.73V122.73C1822.1 122.73 1812.26 118.27 1805.36 110.533C1798.44 102.792 1794.43 91.735 1794.43 78.5H1793.43ZM1833.83 123.73C1846.67 123.73 1856.74 118.842 1863.59 110.716C1870.43 102.6 1874.02 91.2943 1874.02 78.5H1873.02C1873.02 91.1157 1869.48 102.175 1862.82 110.072C1856.18 117.958 1846.4 122.73 1833.83 122.73V123.73ZM1874.02 78.5C1874.02 65.3895 1870.32 54.0824 1863.43 46.0445C1856.53 37.9978 1846.46 33.27 1833.83 33.27V34.27C1846.19 34.27 1855.97 38.8872 1862.67 46.6955C1869.37 54.5126 1873.02 65.5704 1873.02 78.5H1874.02ZM1833.83 33.27C1821.21 33.27 1811.09 37.8362 1804.13 45.8049C1797.18 53.7658 1793.43 65.0752 1793.43 78.5H1794.43C1794.43 65.2548 1798.13 54.1992 1804.89 46.4626C1811.63 38.7338 1821.46 34.27 1833.83 34.27V33.27ZM1929.97 152H1929.47V152.5H1929.97V152ZM1929.97 4.99999V4.49999H1929.47V4.99999H1929.97ZM1970.29 4.99999L1970.71 4.73411L1970.57 4.49999H1970.29V4.99999ZM2026.99 95.3L2026.57 95.5659L2026.71 95.8H2026.99V95.3ZM2027.41 95.3V95.8H2027.91V95.3H2027.41ZM2027.41 4.99999V4.49999H2026.91V4.99999H2027.41ZM2064.16 4.99999H2064.66V4.49999H2064.16V4.99999ZM2064.16 152V152.5H2064.66V152H2064.16ZM2023.84 152L2023.42 152.27L2023.57 152.5H2023.84V152ZM1967.14 63.59L1967.56 63.3201L1967.41 63.09H1967.14V63.59ZM1966.72 63.59V63.09H1966.22V63.59H1966.72ZM1966.72 152V152.5H1967.22V152H1966.72ZM1930.47 152V4.99999H1929.47V152H1930.47ZM1929.97 5.49999H1970.29V4.49999H1929.97V5.49999ZM1969.87 5.26587L2026.57 95.5659L2027.41 95.0341L1970.71 4.73411L1969.87 5.26587ZM2026.99 95.8H2027.41V94.8H2026.99V95.8ZM2027.91 95.3V4.99999H2026.91V95.3H2027.91ZM2027.41 5.49999H2064.16V4.49999H2027.41V5.49999ZM2063.66 4.99999V152H2064.66V4.99999H2063.66ZM2064.16 151.5H2023.84V152.5H2064.16V151.5ZM2024.26 151.73L1967.56 63.3201L1966.72 63.8599L2023.42 152.27L2024.26 151.73ZM1967.14 63.09H1966.72V64.09H1967.14V63.09ZM1966.22 63.59V152H1967.22V63.59H1966.22ZM1966.72 151.5H1929.97V152.5H1966.72V151.5ZM2125.66 92.57V92.07H2125.16V92.57H2125.66ZM2125.66 119.45H2125.16V119.95H2125.66V119.45ZM2196.64 119.45H2197.14V118.95H2196.64V119.45ZM2196.64 152V152.5H2197.14V152H2196.64ZM2088.91 152H2088.41V152.5H2088.91V152ZM2088.91 4.99999V4.49999H2088.41V4.99999H2088.91ZM2196.43 4.99999H2196.93V4.49999H2196.43V4.99999ZM2196.43 37.55V38.05H2196.93V37.55H2196.43ZM2125.66 37.55V37.05H2125.16V37.55H2125.66ZM2125.66 62.54H2125.16V63.04H2125.66V62.54ZM2189.92 62.54H2190.42V62.04H2189.92V62.54ZM2189.92 92.57V93.07H2190.42V92.57H2189.92ZM2125.16 92.57V119.45H2126.16V92.57H2125.16ZM2125.66 119.95H2196.64V118.95H2125.66V119.95ZM2196.14 119.45V152H2197.14V119.45H2196.14ZM2196.64 151.5H2088.91V152.5H2196.64V151.5ZM2089.41 152V4.99999H2088.41V152H2089.41ZM2088.91 5.49999H2196.43V4.49999H2088.91V5.49999ZM2195.93 4.99999V37.55H2196.93V4.99999H2195.93ZM2196.43 37.05H2125.66V38.05H2196.43V37.05ZM2125.16 37.55V62.54H2126.16V37.55H2125.16ZM2125.66 63.04H2189.92V62.04H2125.66V63.04ZM2189.42 62.54V92.57H2190.42V62.54H2189.42ZM2189.92 92.07H2125.66V93.07H2189.92V92.07Z" fill="#DDDF36"/>
</svg>
