<svg width="1547" height="157" viewBox="0 0 1547 157" fill="none" xmlns="http://www.w3.org/2000/svg">
<path opacity="0.1" d="M0.362657 152H-0.137343V152.5H0.362657V152ZM0.362657 4.99999V4.49999H-0.137343V4.99999H0.362657ZM37.1127 4.99999H37.6127V4.49999H37.1127V4.99999ZM37.1127 119.24H36.6127V119.74H37.1127V119.24ZM103.473 119.24H103.973V118.74H103.473V119.24ZM103.473 152V152.5H103.973V152H103.473ZM0.862657 152V4.99999H-0.137343V152H0.862657ZM0.362657 5.49999H37.1127V4.49999H0.362657V5.49999ZM36.6127 4.99999V119.24H37.6127V4.99999H36.6127ZM37.1127 119.74H103.473V118.74H37.1127V119.74ZM102.973 119.24V152H103.973V119.24H102.973ZM103.473 151.5H0.362657V152.5H103.473V151.5ZM115.812 4.99999V4.49999H115.312V4.99999H115.812ZM152.562 4.99999H153.062V4.49999H152.562V4.99999ZM204.432 4.99999V4.49999H203.932V4.99999H204.432ZM241.182 4.99999H241.682V4.49999H241.182V4.99999ZM116.312 95.3V4.99999H115.312V95.3H116.312ZM115.812 5.49999H152.562V4.49999H115.812V5.49999ZM152.062 4.99999V92.57H153.062V4.99999H152.062ZM152.062 92.57C152.062 103.127 154.277 110.933 158.746 116.102C163.228 121.286 169.898 123.73 178.602 123.73V122.73C170.085 122.73 163.736 120.344 159.503 115.448C155.257 110.537 153.062 103.013 153.062 92.57H152.062ZM178.602 123.73C187.308 123.73 193.927 121.231 198.355 116.02C202.77 110.825 204.932 103.021 204.932 92.57H203.932C203.932 102.909 201.789 110.435 197.593 115.372C193.412 120.294 187.115 122.73 178.602 122.73V123.73ZM204.932 92.57V4.99999H203.932V92.57H204.932ZM204.432 5.49999H241.182V4.49999H204.432V5.49999ZM240.682 4.99999V95.3H241.682V4.99999H240.682ZM240.682 95.3C240.682 114.625 234.939 129.654 224.35 139.854C213.758 150.056 198.252 155.49 178.602 155.49V156.49C198.431 156.49 214.215 151.004 225.044 140.574C235.875 130.141 241.682 114.825 241.682 95.3H240.682ZM178.602 155.49C158.951 155.49 143.392 150.056 132.748 139.853C122.107 129.653 116.312 114.624 116.312 95.3H115.312C115.312 114.826 121.172 130.142 132.056 140.575C142.936 151.004 158.772 156.49 178.602 156.49V155.49ZM337.769 1.00999L337.764 1.50997L337.766 1.50998L337.769 1.00999ZM406.019 52.04L406.151 52.5222L406.605 52.3976L406.508 51.9368L406.019 52.04ZM371.579 61.49L371.096 61.6206L371.227 62.1049L371.711 61.9722L371.579 61.49ZM372.419 92.57L372.539 92.0846L372.041 91.9617L371.93 92.4621L372.419 92.57ZM407.279 101.18L407.771 101.268L407.853 100.807L407.399 100.695L407.279 101.18ZM337.769 155.99L337.766 155.49L337.764 155.49L337.769 155.99ZM260.779 78.5C260.779 37.1615 289.567 1.09269 337.764 1.50997L337.773 0.51001C288.95 0.087307 259.779 36.6785 259.779 78.5H260.779ZM337.766 1.50998C372.011 1.71879 399.076 21.5405 405.529 52.1432L406.508 51.9368C399.942 20.7995 372.407 0.721187 337.772 0.510001L337.766 1.50998ZM405.886 51.5578L371.446 61.0078L371.711 61.9722L406.151 52.5222L405.886 51.5578ZM372.061 61.3594C369.625 52.3545 365.323 45.325 359.398 40.547C353.469 35.7671 345.952 33.27 337.139 33.27V34.27C345.756 34.27 353.043 36.7079 358.77 41.3255C364.499 45.945 368.703 52.7755 371.096 61.6206L372.061 61.3594ZM337.139 33.27C325.243 33.27 315.182 37.8409 308.1 45.8014C301.022 53.7573 296.949 65.065 296.949 78.5H297.949C297.949 65.265 301.96 54.2077 308.847 46.4661C315.73 38.7291 325.514 34.27 337.139 34.27V33.27ZM296.949 78.5C296.949 91.935 301.022 103.243 308.1 111.199C315.182 119.159 325.243 123.73 337.139 123.73V122.73C325.514 122.73 315.73 118.271 308.847 110.534C301.96 102.792 297.949 91.735 297.949 78.5H296.949ZM337.139 123.73C346.272 123.73 354.11 121.02 360.224 115.76C366.334 110.504 370.684 102.734 372.907 92.6779L371.93 92.4621C369.743 102.356 365.483 109.916 359.571 115.002C353.663 120.085 346.066 122.73 337.139 122.73V123.73ZM372.299 93.0554L407.159 101.665L407.399 100.695L372.539 92.0846L372.299 93.0554ZM406.786 101.092C400.745 135.049 373.053 155.281 337.766 155.49L337.772 156.49C373.464 156.279 401.632 135.771 407.771 101.268L406.786 101.092ZM337.764 155.49C289.567 155.907 260.779 119.839 260.779 78.5H259.779C259.779 120.321 288.95 156.913 337.773 156.49L337.764 155.49ZM534.724 122.6L535.186 122.41L535.186 122.409L534.724 122.6ZM540.604 136.88L540.142 137.07L540.147 137.083L540.604 136.88ZM549.004 148.85H549.504V148.562L549.255 148.417L549.004 148.85ZM549.004 152V152.5H549.504V152H549.004ZM507.844 152L507.521 152.382L507.661 152.5H507.844V152ZM503.434 144.86L503.916 144.728L503.909 144.7L503.898 144.674L503.434 144.86ZM494.404 122.39L493.939 122.573L493.94 122.576L494.404 122.39ZM460.804 103.28V102.78H460.304V103.28H460.804ZM460.804 152V152.5H461.304V152H460.804ZM424.054 152H423.554V152.5H424.054V152ZM424.054 4.99999V4.49999H423.554V4.99999H424.054ZM501.754 86.9L501.721 86.4011L501.254 86.4318V86.9H501.754ZM501.754 97.4H501.254V97.8427L501.694 97.8963L501.754 97.4ZM460.804 71.36H460.304V71.86H460.804V71.36ZM460.804 36.92V36.42H460.304V36.92H460.804ZM534.262 122.79L540.142 137.07L541.066 136.69L535.186 122.41L534.262 122.79ZM540.147 137.083C542.654 142.723 544.6 146.878 548.754 149.283L549.255 148.417C545.428 146.202 543.594 142.377 541.061 136.677L540.147 137.083ZM548.504 148.85V152H549.504V148.85H548.504ZM549.004 151.5H507.844V152.5H549.004V151.5ZM508.167 151.618C505.54 149.395 504.53 146.98 503.916 144.728L502.952 144.992C503.598 147.36 504.688 149.985 507.521 152.382L508.167 151.618ZM503.898 144.674L494.868 122.204L493.94 122.576L502.97 145.046L503.898 144.674ZM494.869 122.207C491.932 114.759 489.481 109.871 486.044 106.867C482.576 103.835 478.175 102.78 471.514 102.78V103.78C478.083 103.78 482.188 104.825 485.386 107.62C488.617 110.444 490.996 115.111 493.939 122.573L494.869 122.207ZM471.514 102.78H460.804V103.78H471.514V102.78ZM460.304 103.28V152H461.304V103.28H460.304ZM460.804 151.5H424.054V152.5H460.804V151.5ZM424.554 152V4.99999H423.554V152H424.554ZM424.054 5.49999H501.964V4.49999H424.054V5.49999ZM501.964 5.49999C516.052 5.49999 527.049 9.30837 534.519 16.106C541.983 22.8984 545.984 32.729 545.984 44.9H546.984C546.984 32.501 542.901 22.3816 535.192 15.3664C527.489 8.35661 516.226 4.49999 501.964 4.49999V5.49999ZM545.984 44.9C545.984 58.4484 542.028 68.325 534.573 75.0577C527.103 81.8034 516.049 85.4598 501.721 86.4011L501.787 87.3989C516.229 86.4502 527.54 82.7566 535.243 75.7998C542.96 68.83 546.984 58.6516 546.984 44.9H545.984ZM501.254 86.9V97.4H502.254V86.9H501.254ZM501.694 97.8963C510.313 98.9475 516.285 100.043 521.185 103.404C526.077 106.759 529.968 112.423 534.262 122.791L535.186 122.409C530.87 111.987 526.886 106.101 521.751 102.579C516.623 99.0622 510.415 97.9525 501.815 96.9037L501.694 97.8963ZM460.804 71.86H493.144V70.86H460.804V71.86ZM493.144 71.86C498.29 71.86 502.577 70.2497 505.577 67.1675C508.577 64.0865 510.234 59.5921 510.234 53.93H509.234C509.234 59.3979 507.637 63.6185 504.861 66.47C502.086 69.3203 498.079 70.86 493.144 70.86V71.86ZM510.234 53.93C510.234 48.1829 508.797 43.7832 505.891 40.8223C502.983 37.8596 498.686 36.42 493.144 36.42V37.42C498.522 37.42 502.52 38.8153 505.177 41.5227C507.836 44.2318 509.234 48.3371 509.234 53.93H510.234ZM493.144 36.42H460.804V37.42H493.144V36.42ZM460.304 36.92V71.36H461.304V36.92H460.304ZM704.192 152V152.5H704.913L704.661 151.825L704.192 152ZM666.182 152L665.71 152.164L665.826 152.5H666.182V152ZM658.622 130.16L659.095 129.996L658.978 129.66H658.622V130.16ZM597.932 130.16V129.66H597.576L597.46 129.996L597.932 130.16ZM590.372 152V152.5H590.728L590.845 152.164L590.372 152ZM552.152 152L551.684 151.825L551.431 152.5H552.152V152ZM607.172 4.99999V4.49999H606.826L606.704 4.82472L607.172 4.99999ZM649.172 4.99999L649.641 4.82472L649.519 4.49999H649.172V4.99999ZM614.732 81.65L615.204 81.8152L615.206 81.8105L614.732 81.65ZM608.852 98.45L608.38 98.2848L608.148 98.95H608.852V98.45ZM647.702 98.45V98.95H648.407L648.174 98.2848L647.702 98.45ZM641.822 81.65L641.349 81.8105L641.35 81.8152L641.822 81.65ZM634.682 42.8L635.181 42.7608L635.145 42.3H634.682V42.8ZM621.872 42.8V42.3H621.41L621.374 42.7608L621.872 42.8ZM704.192 151.5H666.182V152.5H704.192V151.5ZM666.655 151.836L659.095 129.996L658.15 130.324L665.71 152.164L666.655 151.836ZM658.622 129.66H597.932V130.66H658.622V129.66ZM597.46 129.996L589.9 151.836L590.845 152.164L598.405 130.324L597.46 129.996ZM590.372 151.5H552.152V152.5H590.372V151.5ZM552.621 152.175L607.641 5.17526L606.704 4.82472L551.684 151.825L552.621 152.175ZM607.172 5.49999H649.172V4.49999H607.172V5.49999ZM648.704 5.17526L703.724 152.175L704.661 151.825L649.641 4.82472L648.704 5.17526ZM614.26 81.4848L608.38 98.2848L609.324 98.6152L615.204 81.8152L614.26 81.4848ZM608.852 98.95H647.702V97.95H608.852V98.95ZM648.174 98.2848L642.294 81.4848L641.35 81.8152L647.23 98.6152L648.174 98.2848ZM642.296 81.4895C638.113 69.1504 636.649 61.424 635.181 42.7608L634.184 42.8392C635.656 61.556 637.132 69.3695 641.349 81.8105L642.296 81.4895ZM634.682 42.3H621.872V43.3H634.682V42.3ZM621.374 42.7608C619.906 61.424 618.442 69.1504 614.259 81.4895L615.206 81.8105C619.423 69.3695 620.899 61.556 622.371 42.8392L621.374 42.7608ZM799.616 70.1L799.878 70.5262L800.4 70.2057L799.981 69.7583L799.616 70.1ZM839.516 70.73L839.482 70.2312L839.061 70.2601L839.019 70.6802L839.516 70.73ZM838.676 79.13L838.179 79.0802L838.137 79.496L838.539 79.6108L838.676 79.13ZM862.826 90.89L863.107 90.4765L863.103 90.474L862.826 90.89ZM868.076 94.46L867.795 94.8735L868.201 95.1495L868.484 94.7487L868.076 94.46ZM880.466 68.42L880.625 67.946L880.134 67.781L879.987 68.2783L880.466 68.42ZM913.016 79.34L913.49 79.5005L913.651 79.0255L913.175 78.866L913.016 79.34ZM886.766 103.07L886.685 102.577L886.398 102.624L886.297 102.896L886.766 103.07ZM884.666 108.74L884.197 108.566L884.09 108.857L884.302 109.083L884.666 108.74ZM907.346 152V152.5H907.909L907.843 151.941L907.346 152ZM869.966 152L869.477 152.104L869.561 152.5H869.966V152ZM863.876 133.1L864.338 132.91L864.211 132.6H863.876V133.1ZM857.576 133.1V132.6H857.238L857.112 132.913L857.576 133.1ZM830.486 56.87L830.203 57.282L830.484 57.4752L830.766 57.2841L830.486 56.87ZM844.766 114.2L845.152 114.518L845.444 114.163L845.115 113.842L844.766 114.2ZM819.776 89.84L820.125 89.482L819.815 89.1794L819.471 89.4437L819.776 89.84ZM769.246 115.46C769.246 93.0565 784.16 80.1665 799.878 70.5262L799.355 69.6738C783.573 79.3535 768.246 92.5035 768.246 115.46H769.246ZM799.981 69.7583C790.777 59.9264 784.786 49.9642 784.786 37.97H783.786C783.786 50.3358 789.975 60.5336 799.251 70.4417L799.981 69.7583ZM784.786 37.97C784.786 27.3165 789.487 18.2718 797.692 11.8781C805.907 5.47761 817.656 1.71999 831.746 1.71999V0.719989C817.486 0.719989 805.506 4.52237 797.078 11.0893C788.641 17.6632 783.786 26.9934 783.786 37.97H784.786ZM831.746 1.71999C845.522 1.71999 856.743 5.37268 864.51 11.5598C872.267 17.7399 876.606 26.4692 876.606 36.71H877.606C877.606 26.1608 873.125 17.1451 865.133 10.7777C857.149 4.4173 845.69 0.719989 831.746 0.719989V1.71999ZM876.606 36.71C876.606 56.0985 860.738 68.7724 839.482 70.2312L839.55 71.2288C861.134 69.7476 877.606 56.8015 877.606 36.71H876.606ZM839.019 70.6802L838.179 79.0802L839.174 79.1798L840.014 70.7797L839.019 70.6802ZM838.539 79.6108C845.825 81.6926 855.018 86.2855 862.549 91.306L863.103 90.474C855.514 85.4145 846.227 80.7674 838.813 78.6492L838.539 79.6108ZM862.545 91.3035L867.795 94.8735L868.357 94.0465L863.107 90.4765L862.545 91.3035ZM868.484 94.7487C874.612 86.086 878.203 77.844 880.946 68.5617L879.987 68.2783C877.269 77.476 873.721 85.614 867.668 94.1713L868.484 94.7487ZM880.307 68.894L912.857 79.814L913.175 78.866L880.625 67.946L880.307 68.894ZM912.543 79.1795C908.394 91.4181 898.03 100.72 886.685 102.577L886.847 103.563C898.603 101.64 909.238 92.0419 913.49 79.5005L912.543 79.1795ZM886.297 102.896L884.197 108.566L885.135 108.914L887.235 103.244L886.297 102.896ZM884.302 109.083C897.9 123.517 905.186 138.122 906.85 152.059L907.843 151.941C906.147 137.738 898.733 122.943 885.03 108.397L884.302 109.083ZM907.346 151.5H869.966V152.5H907.346V151.5ZM870.455 151.896C868.976 144.922 865.812 136.489 864.338 132.91L863.414 133.29C864.88 136.851 868.016 145.218 869.477 152.104L870.455 151.896ZM863.876 132.6H857.576V133.6H863.876V132.6ZM857.112 132.913C851.132 147.761 833.749 155.7 814.316 155.7V156.7C833.943 156.7 851.84 148.679 858.04 133.287L857.112 132.913ZM814.316 155.7C800.762 155.7 789.496 151.739 781.626 144.749C773.761 137.764 769.246 127.719 769.246 115.46H768.246C768.246 127.981 772.866 138.306 780.962 145.496C789.051 152.681 800.571 156.7 814.316 156.7V155.7ZM817.596 38.39C817.596 43.4163 820.015 50.2782 830.203 57.282L830.769 56.458C820.797 49.6018 818.596 43.0237 818.596 38.39H817.596ZM830.766 57.2841C834.344 54.8637 837.699 52.3129 840.159 49.4242C842.627 46.5277 844.216 43.267 844.216 39.44H843.216C843.216 42.963 841.761 46.0023 839.398 48.7758C837.029 51.5571 833.768 54.0463 830.206 56.4559L830.766 57.2841ZM844.216 39.44C844.216 35.4366 842.86 32.2488 840.456 30.0661C838.059 27.8892 834.673 26.76 830.696 26.76V27.76C834.489 27.76 837.614 28.8358 839.784 30.8064C841.948 32.7712 843.216 35.6734 843.216 39.44H844.216ZM830.696 26.76C823.562 26.76 817.596 31.5368 817.596 38.39H818.596C818.596 32.2232 823.97 27.76 830.696 27.76V26.76ZM805.206 109.79C805.206 113.882 806.499 117.9 809.361 120.898C812.228 123.902 816.621 125.83 822.716 125.83V124.83C816.841 124.83 812.729 122.978 810.084 120.207C807.433 117.43 806.206 113.678 806.206 109.79H805.206ZM822.716 125.83C831.71 125.83 839.194 121.753 845.152 114.518L844.38 113.882C838.579 120.927 831.362 124.83 822.716 124.83V125.83ZM845.115 113.842L820.125 89.482L819.427 90.198L844.417 114.558L845.115 113.842ZM819.471 89.4437C811.316 95.7171 805.206 100.689 805.206 109.79H806.206C806.206 101.251 811.856 96.5629 820.081 90.2363L819.471 89.4437ZM982.072 4.99999V4.49999H981.572V4.99999H982.072ZM982.072 152H981.572V152.5H982.072V152ZM1018.82 119.45H1018.32V119.95H1018.82V119.45ZM1018.82 37.55V37.05H1018.32V37.55H1018.82ZM982.072 5.49999H1045.07V4.49999H982.072V5.49999ZM1045.07 5.49999C1065.01 5.49999 1081.67 12.0231 1093.35 24.3747C1105.03 36.729 1111.77 54.9695 1111.77 78.5H1112.77C1112.77 54.7805 1105.97 36.271 1094.08 23.6878C1082.18 11.1019 1065.24 4.49999 1045.07 4.49999V5.49999ZM1111.77 78.5C1111.77 102.353 1105.34 120.59 1093.74 132.862C1082.15 145.129 1065.34 151.5 1044.44 151.5V152.5C1065.54 152.5 1082.65 146.061 1094.47 133.548C1106.29 121.04 1112.77 102.527 1112.77 78.5H1111.77ZM1044.44 151.5H982.072V152.5H1044.44V151.5ZM982.572 152V4.99999H981.572V152H982.572ZM1018.82 119.95H1041.92V118.95H1018.82V119.95ZM1041.92 119.95C1051.65 119.95 1060.21 117.73 1066.33 111.37C1072.44 105.017 1076.02 94.6266 1076.02 78.5H1075.02C1075.02 94.5034 1071.46 104.588 1065.61 110.677C1059.75 116.76 1051.51 118.95 1041.92 118.95V119.95ZM1076.02 78.5C1076.02 64.4788 1073.12 54.1044 1067.37 47.2304C1061.61 40.339 1053.05 37.05 1041.92 37.05V38.05C1052.85 38.05 1061.08 41.271 1066.61 47.8721C1072.14 54.4906 1075.02 64.5912 1075.02 78.5H1076.02ZM1041.92 37.05H1018.82V38.05H1041.92V37.05ZM1018.32 37.55V119.45H1019.32V37.55H1018.32ZM1131.36 4.99999V4.49999H1130.86V4.99999H1131.36ZM1168.11 4.99999H1168.61V4.49999H1168.11V4.99999ZM1219.98 4.99999V4.49999H1219.48V4.99999H1219.98ZM1256.73 4.99999H1257.23V4.49999H1256.73V4.99999ZM1131.86 95.3V4.99999H1130.86V95.3H1131.86ZM1131.36 5.49999H1168.11V4.49999H1131.36V5.49999ZM1167.61 4.99999V92.57H1168.61V4.99999H1167.61ZM1167.61 92.57C1167.61 103.127 1169.82 110.933 1174.29 116.102C1178.77 121.286 1185.45 123.73 1194.15 123.73V122.73C1185.63 122.73 1179.28 120.344 1175.05 115.448C1170.8 110.537 1168.61 103.013 1168.61 92.57H1167.61ZM1194.15 123.73C1202.86 123.73 1209.47 121.231 1213.9 116.02C1218.32 110.825 1220.48 103.021 1220.48 92.57H1219.48C1219.48 102.909 1217.34 110.435 1213.14 115.372C1208.96 120.294 1202.66 122.73 1194.15 122.73V123.73ZM1220.48 92.57V4.99999H1219.48V92.57H1220.48ZM1219.98 5.49999H1256.73V4.49999H1219.98V5.49999ZM1256.23 4.99999V95.3H1257.23V4.99999H1256.23ZM1256.23 95.3C1256.23 114.625 1250.49 129.654 1239.9 139.854C1229.31 150.056 1213.8 155.49 1194.15 155.49V156.49C1213.98 156.49 1229.76 151.004 1240.59 140.574C1251.42 130.141 1257.23 114.825 1257.23 95.3H1256.23ZM1194.15 155.49C1174.5 155.49 1158.94 150.056 1148.29 139.853C1137.65 129.653 1131.86 114.624 1131.86 95.3H1130.86C1130.86 114.826 1136.72 130.142 1147.6 140.575C1158.48 151.004 1174.32 156.49 1194.15 156.49V155.49ZM1281.08 4.99999V4.49999H1280.58V4.99999H1281.08ZM1317.83 106.01V105.51H1317.33V106.01H1317.83ZM1317.83 152V152.5H1318.33V152H1317.83ZM1281.08 152H1280.58V152.5H1281.08V152ZM1317.83 74.09H1317.33V74.59H1317.83V74.09ZM1317.83 36.92V36.42H1317.33V36.92H1317.83ZM1281.08 5.49999H1353.32V4.49999H1281.08V5.49999ZM1353.32 5.49999C1367.91 5.49999 1380.43 10.1889 1389.3 18.773C1398.16 27.3546 1403.43 39.8706 1403.43 55.61H1404.43C1404.43 39.6394 1399.08 26.8504 1389.99 18.0545C1380.91 9.26106 1368.12 4.49999 1353.32 4.49999V5.49999ZM1403.43 55.61C1403.43 71.4549 1398.16 83.9172 1389.3 92.4191C1380.43 100.924 1367.91 105.51 1353.32 105.51V106.51C1368.12 106.51 1380.9 101.856 1389.99 93.1409C1399.08 84.4228 1404.43 71.685 1404.43 55.61H1403.43ZM1353.32 105.51H1317.83V106.51H1353.32V105.51ZM1317.33 106.01V152H1318.33V106.01H1317.33ZM1317.83 151.5H1281.08V152.5H1317.83V151.5ZM1281.58 152V4.99999H1280.58V152H1281.58ZM1317.83 74.59H1349.96V73.59H1317.83V74.59ZM1349.96 74.59C1354.69 74.59 1359.08 72.919 1362.28 69.6353C1365.49 66.3503 1367.47 61.4921 1367.47 55.19H1366.47C1366.47 61.2779 1364.56 65.8697 1361.57 68.9372C1358.57 72.006 1354.46 73.59 1349.96 73.59V74.59ZM1367.47 55.19C1367.47 48.7056 1365.82 43.9931 1362.81 40.9025C1359.8 37.8099 1355.5 36.42 1350.38 36.42V37.42C1355.33 37.42 1359.33 38.7601 1362.09 41.6C1364.86 44.4419 1366.47 48.8644 1366.47 55.19H1367.47ZM1350.38 36.42H1317.83V37.42H1350.38V36.42ZM1317.33 36.92V74.09H1318.33V36.92H1317.33ZM1532.02 122.6L1532.48 122.41L1532.48 122.409L1532.02 122.6ZM1537.9 136.88L1537.44 137.07L1537.44 137.083L1537.9 136.88ZM1546.3 148.85H1546.8V148.562L1546.55 148.417L1546.3 148.85ZM1546.3 152V152.5H1546.8V152H1546.3ZM1505.14 152L1504.82 152.382L1504.96 152.5H1505.14V152ZM1500.73 144.86L1501.21 144.728L1501.2 144.7L1501.19 144.674L1500.73 144.86ZM1491.7 122.39L1491.23 122.573L1491.24 122.576L1491.7 122.39ZM1458.1 103.28V102.78H1457.6V103.28H1458.1ZM1458.1 152V152.5H1458.6V152H1458.1ZM1421.35 152H1420.85V152.5H1421.35V152ZM1421.35 4.99999V4.49999H1420.85V4.99999H1421.35ZM1499.05 86.9L1499.02 86.4011L1498.55 86.4318V86.9H1499.05ZM1499.05 97.4H1498.55V97.8427L1498.99 97.8963L1499.05 97.4ZM1458.1 71.36H1457.6V71.86H1458.1V71.36ZM1458.1 36.92V36.42H1457.6V36.92H1458.1ZM1531.56 122.79L1537.44 137.07L1538.36 136.69L1532.48 122.41L1531.56 122.79ZM1537.44 137.083C1539.95 142.723 1541.89 146.878 1546.05 149.283L1546.55 148.417C1542.72 146.202 1540.89 142.377 1538.36 136.677L1537.44 137.083ZM1545.8 148.85V152H1546.8V148.85H1545.8ZM1546.3 151.5H1505.14V152.5H1546.3V151.5ZM1505.46 151.618C1502.83 149.395 1501.83 146.98 1501.21 144.728L1500.25 144.992C1500.89 147.36 1501.98 149.985 1504.82 152.382L1505.46 151.618ZM1501.19 144.674L1492.16 122.204L1491.24 122.576L1500.27 145.046L1501.19 144.674ZM1492.16 122.207C1489.23 114.759 1486.78 109.871 1483.34 106.867C1479.87 103.835 1475.47 102.78 1468.81 102.78V103.78C1475.38 103.78 1479.48 104.825 1482.68 107.62C1485.91 110.444 1488.29 115.111 1491.23 122.573L1492.16 122.207ZM1468.81 102.78H1458.1V103.78H1468.81V102.78ZM1457.6 103.28V152H1458.6V103.28H1457.6ZM1458.1 151.5H1421.35V152.5H1458.1V151.5ZM1421.85 152V4.99999H1420.85V152H1421.85ZM1421.35 5.49999H1499.26V4.49999H1421.35V5.49999ZM1499.26 5.49999C1513.35 5.49999 1524.34 9.30837 1531.81 16.106C1539.28 22.8984 1543.28 32.729 1543.28 44.9H1544.28C1544.28 32.501 1540.2 22.3816 1532.49 15.3664C1524.78 8.35661 1513.52 4.49999 1499.26 4.49999V5.49999ZM1543.28 44.9C1543.28 58.4484 1539.32 68.325 1531.87 75.0577C1524.4 81.8034 1513.34 85.4598 1499.02 86.4011L1499.08 87.3989C1513.52 86.4502 1524.83 82.7566 1532.54 75.7998C1540.26 68.83 1544.28 58.6516 1544.28 44.9H1543.28ZM1498.55 86.9V97.4H1499.55V86.9H1498.55ZM1498.99 97.8963C1507.61 98.9475 1513.58 100.043 1518.48 103.404C1523.37 106.759 1527.26 112.423 1531.56 122.791L1532.48 122.409C1528.16 111.987 1524.18 106.101 1519.05 102.579C1513.92 99.0622 1507.71 97.9525 1499.11 96.9037L1498.99 97.8963ZM1458.1 71.86H1490.44V70.86H1458.1V71.86ZM1490.44 71.86C1495.58 71.86 1499.87 70.2497 1502.87 67.1675C1505.87 64.0865 1507.53 59.5921 1507.53 53.93H1506.53C1506.53 59.3979 1504.93 63.6185 1502.16 66.47C1499.38 69.3203 1495.37 70.86 1490.44 70.86V71.86ZM1507.53 53.93C1507.53 48.1829 1506.09 43.7832 1503.19 40.8223C1500.28 37.8596 1495.98 36.42 1490.44 36.42V37.42C1495.82 37.42 1499.81 38.8153 1502.47 41.5227C1505.13 44.2318 1506.53 48.3371 1506.53 53.93H1507.53ZM1490.44 36.42H1458.1V37.42H1490.44V36.42ZM1457.6 36.92V71.36H1458.6V36.92H1457.6Z" fill="#A1C8FF"/>
</svg>
