<svg width="65" height="66" viewBox="0 0 65 66" fill="none" xmlns="http://www.w3.org/2000/svg">
<path d="M33 4C17.0968 4 4 17.0968 4 33C4 48.9032 17.0968 62 33 62C48.9032 62 62 48.9032 62 33C62 17.0968 48.9032 4 33 4ZM33 60.129C18.0323 60.129 5.87097 47.9677 5.87097 33C5.87097 18.0323 18.0323 5.87097 33 5.87097C47.9677 5.87097 60.129 18.0323 60.129 33C60.129 47.9677 47.9677 60.129 33 60.129Z" fill="#E2CB71" stroke="#E2CB71"/>
<path d="M39.2 38.3608C39.2 33.5462 33.2353 29.7137 33.2353 29.0907C33.2353 28.5678 33.5174 29.2258 34.293 29.1656C35.0595 29.1054 35.8512 27.9595 36.5638 27.9595C38.0954 27.9595 37.8679 29.3077 39.1713 29.3077C40.0519 29.3077 40.4355 28.3515 40.7869 27.9245C41.2293 27.3897 42.4641 27.6123 41.7795 26.1129C41.4162 25.3156 39.9952 22.636 37.3282 21.5328C36.1116 21.0295 37.2365 19.6281 33.3837 19.6281C33.0519 19.1157 33.11 17.2579 33.3613 16C29.8949 16.5831 29.505 19.7828 29.2803 20.4289C28.3507 20.9777 27.0739 22.0872 26.1436 23.0168C23.8091 25.352 22.9572 29.1726 24.3803 32.9162C24.8437 34.1335 25.9 35.9108 25.9 38.3608M41.0284 43.3798C43.2936 45.4728 44.4136 48.1608 42.203 48.1608H22.1998C19.9899 48.1608 21.1008 45.4728 23.3618 43.3798M42.7 41.1608C42.7 42.32 41.6549 43.2608 40.3669 43.2608H24.0331C22.7451 43.2608 21.7 42.32 21.7 41.1608C21.7 40.0016 22.7451 39.0608 24.0331 39.0608H40.3662C41.6549 39.0608 42.7 40.0016 42.7 41.1608Z" stroke="#E2CB71" stroke-width="2.5" stroke-miterlimit="10" stroke-linecap="round" stroke-linejoin="round"/>
</svg>
