<svg width="101" height="100" viewBox="0 0 101 100" fill="none" xmlns="http://www.w3.org/2000/svg">
<circle cx="50.6641" cy="50" r="50" fill="#D7AC5B" fill-opacity="0.45"/>
<circle cx="32.5157" cy="57.5752" r="7.12505" fill="#D7AC5B"/>
<rect x="36.7969" y="24.3252" width="25.1752" height="12.3501" fill="#D7AC5B"/>
<rect x="58.6406" y="50.4502" width="19.4751" height="24.7002" fill="#D7AC5B"/>
<path d="M32.3377 75.2423C27.888 75.2423 23.9198 73.0027 21.6016 69.4697C22.736 74.3561 27.1065 78.0004 32.3377 78.0004C37.569 78.0004 41.9393 74.3561 43.0739 69.4697C40.7554 73.0028 36.7874 75.2423 32.3377 75.2423Z" fill="#001035"/>
<path d="M32.3305 70.6419C27.844 70.6419 23.891 68.3306 21.5859 64.8398C22.7105 69.741 27.0894 73.4 32.3305 73.4C37.5715 73.4 41.9506 69.7409 43.075 64.8398C40.77 68.3307 36.8169 70.6419 32.3305 70.6419Z" fill="#001035"/>
<path d="M32.3513 47.0713C26.2803 47.0713 21.3359 52.0156 21.3359 58.0866C21.3359 64.1576 26.2803 69.1019 32.3513 69.1019C38.4222 69.1019 43.3666 64.1576 43.3666 58.0866C43.3666 52.0156 38.4222 47.0713 32.3513 47.0713ZM32.9771 62.0922V63.5943H31.3499V62.1548C30.5988 62.0922 29.8478 61.8419 29.3471 61.4664L29.1593 61.3412L29.7226 59.7139L30.0981 59.9643C30.5988 60.2772 31.2872 60.5276 31.9132 60.5276C32.6642 60.5276 33.2275 60.1521 33.2275 59.5262C33.2275 59.1507 33.0398 58.7125 31.8506 58.2118C30.5989 57.7111 29.3472 57.0227 29.3472 55.458C29.3472 54.2062 30.1608 53.2675 31.4751 52.8919V51.4524H33.1024V52.8293C33.7282 52.8919 34.2289 53.0797 34.7296 53.33L34.98 53.5178L34.3541 55.1451L33.9786 54.9573C33.7282 54.8321 33.2276 54.5192 32.4139 54.5192C31.6002 54.5192 31.2873 54.9573 31.2873 55.3328C31.2873 55.771 31.4751 56.0213 32.7894 56.5846C33.916 57.0227 35.1677 57.7737 35.1677 59.4636C35.1677 60.7153 34.2914 61.7793 32.9771 62.0922Z" fill="#001035"/>
<path d="M62.6746 21H36.9325C35.9166 21 35.0938 21.8228 35.0938 22.8387V37.5485C35.0938 38.5644 35.9166 39.3872 36.9325 39.3872H62.6746C63.6905 39.3872 64.5133 38.5644 64.5133 37.5485V22.8387C64.5133 21.8228 63.6905 21 62.6746 21ZM40.6099 34.7904H38.7712V32.9517H40.6099V34.7904ZM44.2874 34.7904H42.4486V32.9517H44.2874V34.7904ZM45.2067 29.2743C45.2067 29.7818 44.7949 30.1936 44.2874 30.1936H40.6099C40.1023 30.1936 39.6906 29.7818 39.6906 29.2743V27.4355C39.6906 26.9279 40.1024 26.5162 40.6099 26.5162H44.2874C44.7949 26.5162 45.2067 26.928 45.2067 27.4355V29.2743ZM47.9648 34.7904H46.1261V32.9517H47.9648V34.7904ZM52.5616 34.7904H50.7229V32.9517H52.5616V34.7904ZM56.2391 34.7904H54.4003V32.9517H56.2391V34.7904ZM59.9165 34.7904H58.0778V32.9517H59.9165V34.7904Z" fill="#001035"/>
<path d="M77.39 46.7422H59.0028C57.9869 46.7422 57.1641 47.565 57.1641 48.5809V76.1617C57.1641 77.1777 57.9869 78.0005 59.0028 78.0005H77.39C78.4059 78.0005 79.2287 77.1777 79.2287 76.1617V48.5809C79.2287 47.565 78.4059 46.7422 77.39 46.7422ZM76.4706 73.4037H59.9221V51.339H76.4706V73.4037Z" fill="#001035"/>
<path d="M68.1855 55.9355C64.6313 55.9355 61.75 58.8168 61.75 62.3711C61.75 65.9253 64.6313 68.8066 68.1855 68.8066C71.7398 68.8066 74.6211 65.9253 74.6211 62.3711C74.6211 58.8168 71.7398 55.9355 68.1855 55.9355ZM67.2662 65.5097L64.7774 63.0209L66.0773 61.7209L67.2662 62.9097L70.2935 59.8824L71.5935 61.1823L67.2662 65.5097Z" fill="#001035"/>
<path d="M28.3429 44.3532L26.5547 43.9238C26.6916 43.3502 26.8544 42.7691 27.0364 42.1973L28.7887 42.7555C28.6196 43.2858 28.4697 43.8227 28.3429 44.3532ZM29.3532 41.2008L27.6487 40.5093C27.8713 39.9613 28.1195 39.4116 28.3869 38.8738L30.0335 39.6911C29.7872 40.1876 29.5581 40.6959 29.3532 41.2008ZM30.8278 38.2358L29.2475 37.2971C29.5518 36.7832 29.8799 36.2766 30.223 35.7884L31.728 36.8456C31.4126 37.2951 31.1101 37.7623 30.8278 38.2358L30.8278 38.2358ZM32.7282 35.5255L31.3058 34.3598C31.6791 33.9038 32.0791 33.4516 32.4945 33.0156L33.8249 34.2834C33.4416 34.6871 33.0729 35.1045 32.7282 35.5255Z" fill="#D7AC5B"/>
<path d="M49.7995 73.403C49.6212 73.403 49.4419 73.4011 49.2644 73.3975L49.3021 71.5587C49.9466 71.5725 50.5984 71.5587 51.2383 71.5183L51.3551 73.3534C50.8403 73.3856 50.3217 73.403 49.7995 73.403ZM47.1738 73.2615C46.476 73.1853 45.7783 73.0776 45.1016 72.9416L45.4628 71.1387C46.087 71.2638 46.7296 71.363 47.3732 71.4329L47.1738 73.2615ZM53.4392 73.1282L53.1607 71.3105C53.797 71.213 54.4359 71.0862 55.0565 70.9336L55.4951 72.7199C54.8211 72.8863 54.1287 73.0234 53.4392 73.1282Z" fill="#D7AC5B"/>
<path d="M71.264 44.3778C71.1389 43.8528 70.9928 43.3251 70.83 42.8129L72.5823 42.2567C72.7579 42.8129 72.9159 43.3839 73.0521 43.9529L71.264 44.3778ZM70.2803 41.2841C70.0799 40.7849 69.8574 40.2856 69.6193 39.8003L71.2696 38.9903C71.5279 39.517 71.7687 40.0577 71.9857 40.5982L70.2803 41.2841ZM68.8516 38.3688C68.5823 37.9091 68.2889 37.4475 67.9802 36.9989L69.4935 35.9554C69.8281 36.4417 70.1462 36.9411 70.4385 37.4402L68.8516 38.3688ZM67.0091 35.6952C66.6689 35.2723 66.315 34.8631 65.9453 34.4659L67.2922 33.2129C67.6894 33.6404 68.0763 34.0882 68.4423 34.5423L67.0091 35.6952Z" fill="#D7AC5B"/>
</svg>
