<svg width="65" height="66" viewBox="0 0 65 66" fill="none" xmlns="http://www.w3.org/2000/svg">
<path d="M33 4C17.0968 4 4 17.0968 4 33C4 48.9032 17.0968 62 33 62C48.9032 62 62 48.9032 62 33C62 17.0968 48.9032 4 33 4ZM33 60.129C18.0323 60.129 5.87097 47.9677 5.87097 33C5.87097 18.0323 18.0323 5.87097 33 5.87097C47.9677 5.87097 60.129 18.0323 60.129 33C60.129 47.9677 47.9677 60.129 33 60.129Z" fill="#FB441C" stroke="#FB441C"/>
<path d="M45.9197 15.4131L44.61 16.7228C44.2358 16.5357 43.8616 16.3486 43.4875 16.3486C41.9907 16.3486 40.8681 17.4711 40.8681 18.9679C40.8681 19.3421 41.0552 19.7163 41.2423 20.0905L38.4358 22.897H19.5391L32.0745 37.6776V47.2195H27.0229V49.0905H38.81V47.2195H33.9455V37.6776L46.481 22.897H41.0552L42.552 21.4002C42.9262 21.5873 43.1133 21.5873 43.4875 21.5873C44.9842 21.5873 46.1068 20.4647 46.1068 18.9679C46.1068 18.5937 46.1068 18.4066 45.9197 18.0324L47.2294 16.7228L45.9197 15.4131ZM42.3649 24.955L33.01 35.9937L23.6552 24.955H36.5649L33.7584 27.7615L35.0681 29.0711L39.3713 24.7679L42.3649 24.955Z" fill="#FB441C" stroke="#FB441C"/>
</svg>
