<svg width="101" height="100" viewBox="0 0 101 100" fill="none" xmlns="http://www.w3.org/2000/svg">
<circle cx="50.5" cy="50" r="50" fill="#63AEF7" fill-opacity="0.45"/>
<rect x="24.0156" y="37.4199" width="52.835" height="24.7209" fill="#63AEF7"/>
<path fill-rule="evenodd" clip-rule="evenodd" d="M70.4658 43.4407C69.6835 42.6489 69.138 41.6181 68.9463 40.4653H31.9204C31.7281 41.6179 31.1832 42.6496 30.4009 43.4407C29.6186 44.2319 28.6002 44.784 27.4612 44.9786V54.5827C28.6 54.7773 29.6186 55.3288 30.4009 56.1206C31.1832 56.9124 31.7281 57.9432 31.9204 59.096H68.9453C69.1376 57.9434 69.6824 56.9124 70.4647 56.1206C71.247 55.3288 72.2654 54.7773 73.4044 54.5827V44.9786C72.2656 44.784 71.2463 44.2325 70.4647 43.4407H70.4658ZM38.2311 50.7038H31.3398C30.8363 50.7038 30.4278 50.2904 30.4278 49.7808C30.4278 49.2711 30.8363 48.8577 31.3398 48.8577H38.2311C38.7346 48.8577 39.1431 49.2711 39.1431 49.7808C39.1431 50.2904 38.7346 50.7038 38.2311 50.7038ZM56.3207 55.739C54.814 57.264 52.733 58.2073 50.4342 58.2073C48.1353 58.2073 46.0542 57.264 44.5477 55.739C43.0411 54.2139 42.109 52.1077 42.109 49.781C42.109 47.4542 43.0409 45.3478 44.5477 43.823C46.0544 42.2981 48.1353 41.3547 50.4342 41.3547C52.733 41.3547 54.8142 42.2979 56.3207 43.823C57.8273 45.348 58.7594 47.4542 58.7594 49.781C58.7594 52.1077 57.8275 54.2141 56.3207 55.739ZM69.5286 50.7038H62.6373C62.1338 50.7038 61.7253 50.2904 61.7253 49.7808C61.7253 49.2711 62.1338 48.8577 62.6373 48.8577H69.5286C70.0321 48.8577 70.4406 49.2711 70.4406 49.7808C70.4406 50.2904 70.0321 50.7038 69.5286 50.7038ZM76.7068 34.707H24.1616C22.8465 34.707 21.7734 35.7932 21.7734 37.1242V62.4359C21.7734 63.7669 22.8465 64.8531 24.1616 64.8531H76.7062C78.0213 64.8531 79.0944 63.7669 79.0944 62.4359V37.1253C79.0944 35.7942 78.0213 34.7081 76.7062 34.7081L76.7068 34.707ZM75.2306 55.4283C75.2306 55.9379 74.8221 56.3514 74.3186 56.3514C73.318 56.3514 72.412 56.7621 71.7562 57.4254C71.1003 58.0892 70.6951 59.0056 70.6951 60.0189C70.6951 60.5285 70.2866 60.9419 69.7831 60.9419L31.0855 60.9422C30.582 60.9422 30.1735 60.5287 30.1735 60.0191C30.1735 59.0064 29.7677 58.0894 29.1124 57.4256C28.4566 56.7618 27.5512 56.3516 26.55 56.3516C26.0465 56.3516 25.638 55.9382 25.638 55.4285V44.1325C25.638 43.6229 26.0465 43.2094 26.55 43.2094C27.5506 43.2094 28.4566 42.7987 29.1124 42.1355C29.7683 41.4717 30.1735 40.5553 30.1735 39.542C30.1735 39.0324 30.582 38.6189 31.0855 38.6189H69.782C70.2855 38.6189 70.694 39.0324 70.694 39.542C70.694 40.5547 71.0998 41.4717 71.7551 42.1355C72.411 42.7993 73.3163 43.2094 74.3175 43.2094C74.821 43.2094 75.2295 43.6229 75.2295 44.1325V55.4285L75.2306 55.4283Z" fill="#001035"/>
<path d="M50.4269 42.751C46.5533 42.751 43.3984 45.9058 43.3984 49.7795C43.3984 53.6532 46.5533 56.808 50.4269 56.808C54.3006 56.808 57.4554 53.6532 57.4554 49.7795C57.4554 45.9058 54.3006 42.751 50.4269 42.751ZM50.8263 52.3353V53.2937H49.788V52.3753C49.3088 52.3353 48.8296 52.1756 48.5101 51.936L48.3903 51.8561L48.7497 50.8178L48.9893 50.9776C49.3088 51.1772 49.748 51.337 50.1474 51.337C50.6266 51.337 50.9861 51.0974 50.9861 50.698C50.9861 50.4584 50.8663 50.1788 50.1075 49.8594C49.3088 49.5399 48.5101 49.1006 48.5101 48.1022C48.5101 47.3036 49.0293 46.7046 49.8679 46.4649V45.5464H50.9062V46.425C51.3055 46.4649 51.625 46.5847 51.9445 46.7445L52.1042 46.8643L51.7049 47.9026L51.4653 47.7828C51.3055 47.7029 50.9861 47.5032 50.4669 47.5032C49.9477 47.5032 49.7481 47.7828 49.7481 48.0224C49.7481 48.3019 49.8679 48.4617 50.7065 48.8211C51.4253 49.1006 52.224 49.5798 52.224 50.6581C52.224 51.4568 51.6649 52.1356 50.8263 52.3353Z" fill="#001035"/>
<path fill-rule="evenodd" clip-rule="evenodd" d="M25.6753 21.471V27.241H36.5958V29.0501C36.5958 29.3188 36.7449 29.549 36.989 29.6555C37.233 29.7619 37.5006 29.7148 37.6941 29.5303L42.1134 25.3153C42.384 25.0567 42.5225 24.7323 42.5225 24.3559C42.5225 23.9795 42.384 23.655 42.1134 23.3964L37.6941 19.1815C37.5006 18.997 37.233 18.9492 36.989 19.0563C36.7449 19.1628 36.5958 19.393 36.5958 19.6617V21.4708L25.6753 21.471ZM75.1795 72.3195V78.0895H64.259V79.8986C64.259 80.1673 64.11 80.3975 63.8659 80.504C63.6218 80.6104 63.3543 80.5633 63.1607 80.3788L58.7415 76.1638C58.4708 75.9052 58.3324 75.5808 58.3324 75.2044C58.3324 74.828 58.4708 74.5035 58.7415 74.245L63.1607 70.03C63.3543 69.8455 63.6218 69.7977 63.8659 69.9048C64.11 70.0113 64.259 70.2415 64.259 70.5102V72.3193L75.1795 72.3195ZM81.6935 72.9787V77.4305C81.6935 77.7935 81.4008 78.0897 81.0422 78.0897H78.553V72.3197H81.0422C81.4008 72.3197 81.6935 72.6158 81.6935 72.9787ZM19.1641 22.1305V26.5823C19.1641 26.9453 19.4568 27.2415 19.8154 27.2415H22.3046V21.4715H19.8154C19.4568 21.4715 19.1641 21.7675 19.1641 22.1305Z" fill="#63AEF7"/>
</svg>
