<svg width="60" height="60" viewBox="0 0 60 60" fill="none" xmlns="http://www.w3.org/2000/svg">
<path d="M52.1263 44.2629C47.7807 44.2629 44.2578 47.7859 44.2578 52.1314C44.2578 56.4771 47.7808 60 52.1263 60C56.472 60 59.9948 56.477 59.9948 52.1314C59.9948 47.7858 56.4719 44.2629 52.1263 44.2629ZM48.1917 55.0804C47.6487 55.0804 47.2082 54.6403 47.2082 54.0969C47.2082 53.5535 47.6487 53.1134 48.1917 53.1134C48.7351 53.1134 49.1752 53.5535 49.1752 54.0969C49.1752 54.6403 48.7351 55.0804 48.1917 55.0804ZM48.1917 50.6546C47.6487 50.6546 47.2082 50.2145 47.2082 49.6711C47.2082 49.1277 47.6487 48.6876 48.1917 48.6876C48.7351 48.6876 49.1752 49.1277 49.1752 49.6711C49.1752 50.2145 48.7351 50.6546 48.1917 50.6546ZM52.1257 58.0306C51.5827 58.0306 51.1422 57.5905 51.1422 57.0471C51.1422 56.5037 51.5827 56.0636 52.1257 56.0636C52.6691 56.0636 53.1092 56.5037 53.1092 57.0471C53.1092 57.5905 52.6691 58.0306 52.1257 58.0306ZM52.1257 53.1131C51.5827 53.1131 51.1422 52.673 51.1422 52.1296C51.1422 51.5862 51.5827 51.1461 52.1257 51.1461C52.6691 51.1461 53.1092 51.5862 53.1092 52.1296C53.1092 52.673 52.6691 53.1131 52.1257 53.1131ZM52.1257 48.1956C51.5827 48.1956 51.1422 47.7555 51.1422 47.2121C51.1422 46.6687 51.5827 46.2286 52.1257 46.2286C52.6691 46.2286 53.1092 46.6687 53.1092 47.2121C53.1092 47.7555 52.6691 48.1956 52.1257 48.1956ZM56.0597 55.0801C55.5167 55.0801 55.0762 54.64 55.0762 54.0966C55.0762 53.5532 55.5167 53.1131 56.0597 53.1131C56.603 53.1131 57.0432 53.5532 57.0432 54.0966C57.0432 54.64 56.6031 55.0801 56.0597 55.0801ZM56.0597 50.6544C55.5167 50.6544 55.0762 50.2143 55.0762 49.6709C55.0762 49.1275 55.5167 48.6874 56.0597 48.6874C56.603 48.6874 57.0432 49.1275 57.0432 49.6709C57.0432 50.2143 56.6031 50.6544 56.0597 50.6544Z" fill="#A1C8FF"/>
<path d="M15.8558 44.0888L13.761 41.9939L1.20312 54.1038L5.90467 58.8053L18.0172 46.2527L15.8809 44.1165C15.8727 44.1077 15.8637 44.0982 15.8559 44.089L15.8558 44.0888Z" fill="#A1C8FF"/>
<path d="M1.57618e-05 56.0498C-0.00244298 56.569 0.28277 57.1189 0.84829 57.6838L2.32354 59.1591C3.06648 59.902 3.92871 60.4306 5.18449 59.4766L0.51925 54.8114C0.180151 55.2331 0.00206144 55.6486 1.57618e-05 56.0498Z" fill="#A1C8FF"/>
<path d="M55.7129 18.0589C55.7104 18.0564 55.708 18.0539 55.7059 18.0519L47.5154 9.69138C47.51 9.68543 47.5045 9.68011 47.4992 9.67375L41.9459 4.29205C40.4524 2.77112 38.7033 1.97205 36.8789 1.97205C35.0594 1.97737 33.263 2.79776 31.8226 4.28119L17.5564 18.5474C14.2406 21.6844 14.8651 27.1581 17.1321 30.7213C18.1151 32.2675 19.2908 35.4687 16.3723 39.7805L20.2094 43.6176C21.959 42.3818 23.6723 41.804 25.5685 41.804C27.0983 41.804 28.702 42.7363 29.6599 43.294L29.7494 43.3452C34.0002 45.8124 39.0363 44.8201 41.4512 42.437L55.7096 28.1786C57.2207 26.7103 58.0194 24.9615 58.0243 23.1157C58.0298 21.297 57.2301 19.5484 55.7131 18.0594L55.7129 18.0589Z" fill="#A1C8FF"/>
<path d="M59.9932 23.1574C60.0002 20.6997 59.0043 18.3653 57.1902 16.5839C57.1888 16.5829 57.1877 16.5815 57.1867 16.5804L50.3012 9.69439C50.2924 9.68558 50.284 9.67677 50.2762 9.66734L43.4153 2.80646C41.6372 0.994775 39.3117 0 36.8634 0H36.8384C34.3997 0.00696631 32.0944 1.00175 30.3473 2.8009L16.0816 17.0671C13.1257 19.9193 11.9421 26.3241 15.1718 31.7105C16.5213 33.9606 16.1809 36.4618 14.1592 39.1436C13.8873 39.5041 13.4884 40.4527 14.0742 40.9228C14.0879 40.934 14.1016 40.9463 14.1139 40.9586L16.5737 43.4184C16.5825 43.4272 16.5909 43.436 16.5987 43.4454L19.0333 45.8806C19.0368 45.8841 19.0396 45.888 19.0431 45.8915C19.0431 45.8915 19.0431 45.8919 19.0435 45.8919C19.0523 45.9013 19.0607 45.9101 19.0691 45.9204C19.5388 46.506 20.4878 46.1073 20.8482 45.8354C22.4583 44.6222 24.0038 44.0145 25.4682 44.0145C26.4429 44.0145 27.3826 44.2839 28.2821 44.8234C33.669 48.0521 40.0736 46.868 42.9191 43.92L57.1864 29.6532C58.992 27.901 59.987 25.5955 59.9933 23.1569L59.9932 23.1574ZM42.1439 43.1347C40.3002 44.9546 37.753 45.7375 35.2248 45.7375C33.0744 45.7375 30.9367 45.1716 29.2561 44.1958L29.1662 44.1438C28.2937 43.6363 26.8336 42.787 25.5688 42.787C24.4382 42.787 22.6778 42.9808 20.4557 44.6552C20.261 44.8023 19.985 44.7841 19.8119 44.6099L15.3862 40.1842C15.2155 40.0135 15.194 39.7451 15.3345 39.5498C18.0725 35.7359 17.3725 32.9307 16.3029 31.2491C13.8249 27.354 13.1823 21.3318 16.8713 17.842L31.1223 3.59103C32.7442 1.9205 34.7899 0.994175 36.878 0.988248C38.9739 0.988248 40.9655 1.88918 42.64 3.59454L48.211 8.99356C48.2223 9.00482 48.2342 9.01712 48.2444 9.02941L56.4056 17.36C58.1144 19.0383 59.0143 21.0295 59.0084 23.1184C59.0031 25.2044 58.0765 27.2501 56.4007 28.8788L42.1439 43.1347Z" fill="#A1C8FF"/>
</svg>
