<svg width="100" height="100" viewBox="0 0 100 100" fill="none" xmlns="http://www.w3.org/2000/svg">
<circle cx="50" cy="50" r="50" fill="#FB441C" fill-opacity="0.45"/>
<path d="M21.0025 43.8303C25.3318 42.8279 29.363 41.9501 27.4115 38.2512C21.4698 27.0107 25.8361 21 32.1098 21C38.5075 21 42.7666 27.2414 36.8098 38.2512C34.7989 41.9706 38.982 42.8429 43.2188 43.8303C47.5464 44.8328 47.2128 44.2674 47.2128 48.422H17.0032C17.007 44.2672 16.6733 44.8327 21.0027 43.8303H21.0025Z" fill="#001035"/>
<path d="M57.94 43.8303C62.2693 42.8279 66.3005 41.9501 64.349 38.2512C58.4073 27.0107 62.7736 21 69.0473 21C75.445 21 79.7041 27.2414 73.7473 38.2512C71.7364 41.9706 75.9195 42.8429 80.1563 43.8303C84.4839 44.8328 84.1503 44.2674 84.1503 48.422H53.9407C53.9445 44.2672 53.6108 44.8327 57.9402 43.8303H57.94Z" fill="#001035"/>
<path d="M38.354 77.4085C42.6834 76.406 46.7146 75.5283 44.7631 71.8293C38.8214 60.5889 43.1877 54.5781 49.4613 54.5781C55.8591 54.5781 60.1182 60.8196 54.1614 71.8293C52.1504 75.5487 56.3335 76.421 60.5704 77.4085C64.898 78.4109 64.5644 77.8455 64.5644 82.0001H34.3548C34.3585 77.8453 34.0249 78.4108 38.3543 77.4085H38.354Z" fill="#001035"/>
<path d="M40.2213 27.314C42.968 26.1315 45.9952 25.4766 49.1754 25.4766C53.2461 25.4766 57.0662 26.5497 60.3681 28.4285M71.7571 50.1004C70.986 59.1094 64.9449 66.6138 56.7305 69.5171M26.5938 50.1004C27.3736 59.2114 33.5434 66.7835 41.9002 69.614" stroke="#FB441C" stroke-width="2" stroke-dasharray="2.2 2"/>
</svg>
