<svg width="100" height="100" viewBox="0 0 100 100" fill="none" xmlns="http://www.w3.org/2000/svg">
<circle cx="50" cy="50" r="50" fill="#6F58FF" fill-opacity="0.4"/>
<circle cx="31.5157" cy="57.5752" r="7.12505" fill="#8E69FF"/>
<rect x="35.7969" y="24.3252" width="25.1752" height="12.3501" fill="#8E69FF"/>
<rect x="57.6406" y="50.4502" width="19.4751" height="24.7002" fill="#8E69FF"/>
<path d="M31.3377 75.2423C26.888 75.2423 22.9198 73.0027 20.6016 69.4697C21.736 74.3561 26.1065 78.0004 31.3377 78.0004C36.569 78.0004 40.9393 74.3561 42.0739 69.4697C39.7554 73.0028 35.7874 75.2423 31.3377 75.2423Z" fill="#001035"/>
<path d="M31.3305 70.6419C26.844 70.6419 22.891 68.3306 20.5859 64.8398C21.7105 69.741 26.0894 73.4 31.3305 73.4C36.5715 73.4 40.9506 69.7409 42.075 64.8398C39.77 68.3307 35.8169 70.6419 31.3305 70.6419Z" fill="#001035"/>
<path d="M31.3513 47.0713C25.2803 47.0713 20.3359 52.0156 20.3359 58.0866C20.3359 64.1576 25.2803 69.1019 31.3513 69.1019C37.4222 69.1019 42.3666 64.1576 42.3666 58.0866C42.3666 52.0156 37.4222 47.0713 31.3513 47.0713ZM31.9771 62.0922V63.5943H30.3499V62.1548C29.5988 62.0922 28.8478 61.8419 28.3471 61.4664L28.1593 61.3412L28.7226 59.7139L29.0981 59.9643C29.5988 60.2772 30.2872 60.5276 30.9132 60.5276C31.6642 60.5276 32.2275 60.1521 32.2275 59.5262C32.2275 59.1507 32.0398 58.7125 30.8506 58.2118C29.5989 57.7111 28.3471 57.0227 28.3471 55.458C28.3471 54.2062 29.1608 53.2675 30.4751 52.8919V51.4524H32.1024V52.8293C32.7282 52.8919 33.2289 53.0797 33.7296 53.33L33.98 53.5178L33.3541 55.1451L32.9786 54.9573C32.7282 54.8321 32.2276 54.5192 31.4139 54.5192C30.6002 54.5192 30.2873 54.9573 30.2873 55.3328C30.2873 55.771 30.4751 56.0213 31.7894 56.5846C32.916 57.0227 34.1677 57.7737 34.1677 59.4636C34.1677 60.7153 33.2914 61.7793 31.9771 62.0922Z" fill="#001035"/>
<path d="M61.6746 21H35.9325C34.9166 21 34.0938 21.8228 34.0938 22.8387V37.5485C34.0938 38.5644 34.9166 39.3872 35.9325 39.3872H61.6746C62.6905 39.3872 63.5133 38.5644 63.5133 37.5485V22.8387C63.5133 21.8228 62.6905 21 61.6746 21ZM39.6099 34.7904H37.7712V32.9517H39.6099V34.7904ZM43.2874 34.7904H41.4486V32.9517H43.2874V34.7904ZM44.2067 29.2743C44.2067 29.7818 43.7949 30.1936 43.2874 30.1936H39.6099C39.1023 30.1936 38.6906 29.7818 38.6906 29.2743V27.4355C38.6906 26.9279 39.1024 26.5162 39.6099 26.5162H43.2874C43.7949 26.5162 44.2067 26.928 44.2067 27.4355V29.2743ZM46.9648 34.7904H45.1261V32.9517H46.9648V34.7904ZM51.5616 34.7904H49.7229V32.9517H51.5616V34.7904ZM55.2391 34.7904H53.4003V32.9517H55.2391V34.7904ZM58.9165 34.7904H57.0778V32.9517H58.9165V34.7904Z" fill="#001035"/>
<path d="M76.39 46.7422H58.0028C56.9869 46.7422 56.1641 47.565 56.1641 48.5809V76.1617C56.1641 77.1777 56.9869 78.0005 58.0028 78.0005H76.39C77.4059 78.0005 78.2287 77.1777 78.2287 76.1617V48.5809C78.2287 47.565 77.4059 46.7422 76.39 46.7422ZM75.4706 73.4037H58.9221V51.339H75.4706V73.4037Z" fill="#001035"/>
<path d="M67.1855 55.9355C63.6313 55.9355 60.75 58.8168 60.75 62.3711C60.75 65.9253 63.6313 68.8066 67.1855 68.8066C70.7398 68.8066 73.6211 65.9253 73.6211 62.3711C73.6211 58.8168 70.7398 55.9355 67.1855 55.9355ZM66.2662 65.5097L63.7774 63.0209L65.0773 61.7209L66.2662 62.9097L69.2935 59.8824L70.5935 61.1823L66.2662 65.5097Z" fill="#001035"/>
<path d="M27.3429 44.3532L25.5547 43.9238C25.6916 43.3502 25.8544 42.7691 26.0364 42.1973L27.7887 42.7555C27.6196 43.2858 27.4697 43.8227 27.3429 44.3532ZM28.3532 41.2008L26.6487 40.5093C26.8713 39.9613 27.1195 39.4116 27.3869 38.8738L29.0335 39.6911C28.7872 40.1876 28.5581 40.6959 28.3532 41.2008ZM29.8278 38.2358L28.2475 37.2971C28.5518 36.7832 28.8799 36.2766 29.223 35.7884L30.728 36.8456C30.4126 37.2951 30.1101 37.7623 29.8278 38.2358L29.8278 38.2358ZM31.7282 35.5255L30.3058 34.3598C30.6791 33.9038 31.0791 33.4516 31.4945 33.0156L32.8249 34.2834C32.4416 34.6871 32.0729 35.1045 31.7282 35.5255Z" fill="#8E69FF"/>
<path d="M48.7995 73.403C48.6212 73.403 48.4419 73.4011 48.2644 73.3975L48.3021 71.5587C48.9466 71.5725 49.5984 71.5587 50.2383 71.5183L50.3551 73.3534C49.8403 73.3856 49.3217 73.403 48.7995 73.403ZM46.1738 73.2615C45.476 73.1853 44.7783 73.0776 44.1016 72.9416L44.4628 71.1387C45.087 71.2638 45.7296 71.363 46.3732 71.4329L46.1738 73.2615ZM52.4392 73.1282L52.1607 71.3105C52.797 71.213 53.4359 71.0862 54.0565 70.9336L54.4951 72.7199C53.8211 72.8863 53.1287 73.0234 52.4392 73.1282Z" fill="#8E69FF"/>
<path d="M70.264 44.3778C70.1389 43.8528 69.9928 43.3251 69.83 42.8129L71.5823 42.2567C71.7579 42.8129 71.9159 43.3839 72.0521 43.9529L70.264 44.3778ZM69.2803 41.2841C69.0799 40.7849 68.8574 40.2856 68.6193 39.8003L70.2696 38.9903C70.5279 39.517 70.7687 40.0577 70.9857 40.5982L69.2803 41.2841ZM67.8516 38.3688C67.5823 37.9091 67.2889 37.4475 66.9802 36.9989L68.4935 35.9554C68.8281 36.4417 69.1462 36.9411 69.4385 37.4402L67.8516 38.3688ZM66.0091 35.6952C65.6689 35.2723 65.315 34.8631 64.9453 34.4659L66.2922 33.2129C66.6894 33.6404 67.0763 34.0882 67.4423 34.5423L66.0091 35.6952Z" fill="#8E69FF"/>
</svg>
