<svg width="65" height="65" viewBox="0 0 65 65" fill="none" xmlns="http://www.w3.org/2000/svg">
<path d="M11.566 26.1144C11.489 25.6894 11.4121 25.2644 11.35 24.8334C11.265 24.2394 11.2019 23.6474 11.15 23.0564C9.06891 22.7715 7.12396 21.4375 5.41797 19.1465C5.1418 20.4125 5.00176 21.7045 5 23.0004C5.00332 23.8965 5.07226 24.7912 5.20605 25.6773C7.3166 25.9371 9.43964 26.083 11.566 26.1144L11.566 26.1144Z" fill="#9A25C3"/>
<path d="M5.63281 27.7422C6.14646 29.6373 6.97326 31.4334 8.07891 33.0562C8.81755 32.1033 9.8043 31.3718 10.9308 30.9422C11.4863 30.7394 12.0541 30.5724 12.6308 30.4422C12.3898 29.6832 12.1689 28.9101 11.9779 28.1201C9.8578 28.1039 7.73981 27.9777 5.63291 27.7422L5.63281 27.7422Z" fill="#9A25C3"/>
<path d="M24.1777 16.3541C24.0047 16.533 23.8476 16.6951 23.7047 16.8371C23.4767 17.0641 23.2367 17.3182 22.9797 17.5891C21.0377 19.6391 18.1687 22.6581 13.1797 23.0771C13.2277 23.5671 13.2607 24.056 13.3307 24.5491C13.4066 25.0751 13.4947 25.5958 13.5947 26.111C24.1497 25.919 34.0077 22.9729 40.3107 18.12C39.4034 14.9237 37.6296 12.0405 35.1857 9.79004C30.9304 10.7982 27.0877 13.0896 24.1777 16.354L24.1777 16.3541Z" fill="#9A25C3"/>
<path d="M11.0285 21.0165C10.8361 16.4374 11.7018 11.8755 13.5584 7.68555C10.1532 9.76719 7.54393 12.9305 6.14844 16.6695C7.26053 18.5146 8.91543 20.5256 11.0285 21.0166V21.0165Z" fill="#9A25C3"/>
<path d="M13.0426 21.0802C17.2606 20.7081 19.7076 18.1341 21.5286 16.2132C21.7985 15.9282 22.0516 15.6622 22.2905 15.4231C22.4264 15.2872 22.5754 15.1321 22.7405 14.9622L22.7407 14.962C25.5846 11.8202 29.2182 9.49749 33.2637 8.235C30.8732 6.5598 28.1087 5.49575 25.2117 5.13615C22.3148 4.77639 19.3742 5.13225 16.6467 6.1721C14.0004 10.6768 12.7463 15.8641 13.0426 21.0801L13.0426 21.0802Z" fill="#9A25C3"/>
<path d="M14.6429 30.1581C17.6285 30.0958 20.5754 30.8419 23.1719 32.3171C23.4998 32.478 23.8069 32.629 24.094 32.762C24.2129 32.812 24.369 32.886 24.5359 32.962L24.61 32.997H37.9299V32.9972C39.934 30.0489 41.0026 26.5652 40.9959 23.0002C40.9891 22.0894 40.9129 21.1804 40.768 20.2812C34.208 24.9812 24.441 27.8442 14.0391 28.1032C14.218 28.8001 14.4209 29.486 14.6429 30.1581Z" fill="#9A25C3"/>
<path d="M11.6266 32.8185C10.6883 33.1945 9.89236 33.8566 9.35156 34.7105C10.8943 36.5116 12.7756 37.9927 14.8885 39.0695L15.3885 37.0695C15.4096 36.9836 15.4466 36.9054 15.4716 36.8215V36.8217C14.6321 35.3916 13.9097 33.8961 13.3114 32.3496C12.739 32.4635 12.1757 32.6201 11.6265 32.8186L11.6266 32.8185Z" fill="#9A25C3"/>
<path d="M19.9455 33.0512C18.491 32.4481 16.934 32.1307 15.3594 32.1162C15.7271 33.0192 16.1404 33.9029 16.5975 34.7643C17.4651 33.8012 18.6569 33.1912 19.9455 33.0512Z" fill="#9A25C3"/>
<path d="M30 41C30 41.2652 30.1053 41.5195 30.293 41.707C30.4805 41.8947 30.7348 42 31 42H43C43.2652 42 43.5195 41.8947 43.707 41.707C43.8947 41.5195 44 41.2652 44 41V35H30L30 41ZM33 37H41C41.3572 37 41.6873 37.1906 41.866 37.5C42.0447 37.8094 42.0447 38.1906 41.866 38.5C41.6873 38.8094 41.3572 39 41 39H33C32.6428 39 32.3127 38.8094 32.134 38.5C31.9553 38.1906 31.9553 37.8094 32.134 37.5C32.3127 37.1906 32.6428 37 33 37Z" fill="#9A25C3"/>
<path d="M46 50C46 50.5523 45.5523 51 45 51C44.4477 51 44 50.5523 44 50C44 49.4477 44.4477 49 45 49C45.5523 49 46 49.4477 46 50Z" fill="#9A25C3"/>
<path d="M30.9958 44.0001C30.2001 44.0001 29.437 43.6841 28.8745 43.1214C28.3118 42.5589 27.9958 41.7958 27.9958 41.0001V35.0002H20.5379C19.7939 35.0031 19.0724 35.2562 18.4892 35.7183C17.9062 36.1806 17.4955 36.8253 17.3228 37.5491L13.1369 54.4211C12.682 56.1764 13.1642 58.0422 14.4125 59.3574C15.6607 60.6727 17.4988 61.2518 19.2754 60.8893C21.0521 60.5268 22.5166 59.274 23.1498 57.575L24.2357 54.8751H24.2359C24.4535 54.3288 24.9199 53.9198 25.4898 53.7751C26.0745 53.6274 26.6949 53.7663 27.1609 54.1491C27.7917 54.6463 28.5822 54.8967 29.3843 54.854C30.1865 54.811 30.9455 54.4776 31.5199 53.9161C32.0865 53.3376 32.8601 53.0079 33.6699 53.0001H40.2809C41.0942 53.0079 41.8707 53.3401 42.4379 53.9231C43.0178 54.4862 43.784 54.8175 44.5914 54.8544C45.399 54.8911 46.192 54.6309 46.8209 54.1231C47.165 53.8434 47.5945 53.6899 48.0379 53.6882C48.1961 53.6878 48.3537 53.7077 48.5068 53.7472C49.0738 53.8933 49.5365 54.3023 49.751 54.8472L50.8391 57.5551H50.8389C51.2117 58.5565 51.8791 59.4215 52.7529 60.0364C53.6268 60.6512 54.6664 60.9872 55.735 61C56.2461 60.9996 56.7543 60.9233 57.243 60.7731C58.54 60.3702 59.6348 59.4877 60.3037 58.3055C60.9727 57.1232 61.1654 55.7305 60.843 54.411L56.6738 37.55C56.4988 36.8271 56.0873 36.1838 55.5047 35.7217C54.9219 35.2596 54.2016 35.0057 53.4578 35H45.9958V41C45.9958 41.7957 45.6798 42.5588 45.1171 43.1213C44.5546 43.684 43.7915 44 42.9958 44L30.9958 44.0001ZM23.9959 43.0001H22.9959V44.0001C22.9959 44.3574 22.8052 44.6874 22.4959 44.8661C22.1865 45.0448 21.8053 45.0448 21.4959 44.8661C21.1865 44.6874 20.9959 44.3573 20.9959 44.0001V43.0001H19.9959C19.6386 43.0001 19.3086 42.8095 19.1299 42.5001C18.9512 42.1908 18.9512 41.8095 19.1299 41.5001C19.3086 41.1908 19.6387 41.0001 19.9959 41.0001H20.9959V40.0001C20.9959 39.6429 21.1865 39.3128 21.4959 39.1341C21.8052 38.9554 22.1865 38.9554 22.4959 39.1341C22.8052 39.3129 22.9959 39.6429 22.9959 40.0001V41.0001H23.9959C24.3531 41.0001 24.6832 41.1908 24.8619 41.5001C25.0406 41.8095 25.0406 42.1907 24.8619 42.5001C24.6831 42.8095 24.3531 43.0001 23.9959 43.0001ZM28.9958 53.0001C28.2001 53.0001 27.437 52.6841 26.8746 52.1214C26.3119 51.5589 25.9959 50.7958 25.9959 50.0001C25.9959 49.2044 26.3119 48.4413 26.8746 47.8788C27.437 47.3161 28.2001 47.0001 28.9958 47.0001C29.7915 47.0001 30.5546 47.3161 31.1171 47.8788C31.6798 48.4413 31.9958 49.2044 31.9958 50.0001C31.9958 50.7958 31.6798 51.5589 31.1171 52.1214C30.5546 52.6841 29.7915 53.0001 28.9958 53.0001ZM37.9958 51.0001H35.9958C35.6386 51.0001 35.3085 50.8095 35.1298 50.5001C34.9511 50.1907 34.9511 49.8095 35.1298 49.5001C35.3085 49.1907 35.6386 49.0001 35.9958 49.0001H37.9958C38.353 49.0001 38.6831 49.1907 38.8618 49.5001C39.0405 49.8095 39.0405 50.1907 38.8618 50.5001C38.6831 50.8095 38.353 51.0001 37.9958 51.0001ZM52.4958 47.0001H51.4958C51.1386 47.0001 50.8085 46.8095 50.6298 46.5001C50.4511 46.1908 50.4511 45.8095 50.6298 45.5001C50.8085 45.1908 51.1386 45.0001 51.4958 45.0001H52.4958C52.853 45.0001 53.1831 45.1908 53.3618 45.5001C53.5405 45.8095 53.5405 46.1907 53.3618 46.5001C53.1831 46.8095 52.853 47.0001 52.4958 47.0001ZM54.9958 42.0001C55.353 42.0001 55.6831 42.1908 55.8618 42.5001C56.0405 42.8095 56.0405 43.1907 55.8618 43.5001C55.6831 43.8095 55.353 44.0001 54.9958 44.0001H53.9958C53.6386 44.0001 53.3085 43.8095 53.1298 43.5001C52.9511 43.1908 52.9511 42.8095 53.1298 42.5001C53.3085 42.1908 53.6386 42.0001 53.9958 42.0001H54.9958ZM51.4958 39.0001H52.4958C52.853 39.0001 53.1831 39.1908 53.3618 39.5001C53.5405 39.8095 53.5405 40.1907 53.3618 40.5001C53.1831 40.8095 52.853 41.0001 52.4958 41.0001H51.4958C51.1386 41.0001 50.8085 40.8095 50.6298 40.5001C50.4511 40.1908 50.4511 39.8095 50.6298 39.5001C50.8085 39.1908 51.1386 39.0001 51.4958 39.0001ZM48.9958 42.0001H49.9958C50.353 42.0001 50.6831 42.1908 50.8618 42.5001C51.0405 42.8095 51.0405 43.1907 50.8618 43.5001C50.6831 43.8095 50.353 44.0001 49.9958 44.0001H48.9958C48.6386 44.0001 48.3085 43.8095 48.1298 43.5001C47.9511 43.1908 47.9511 42.8095 48.1298 42.5001C48.3085 42.1908 48.6386 42.0001 48.9958 42.0001ZM47.9958 50.0001C47.9958 50.7958 47.6798 51.5589 47.1171 52.1214C46.5546 52.6841 45.7915 53.0001 44.9958 53.0001C44.2001 53.0001 43.437 52.6841 42.8745 52.1214C42.3118 51.5589 41.9958 50.7958 41.9958 50.0001C41.9958 49.2044 42.3118 48.4413 42.8745 47.8788C43.437 47.3161 44.2001 47.0001 44.9958 47.0001C45.7915 47.0001 46.5546 47.3161 47.1171 47.8788C47.6798 48.4413 47.9958 49.2044 47.9958 50.0001Z" fill="#9A25C3"/>
<path d="M30 50C30 50.5523 29.5523 51 29 51C28.4477 51 28 50.5523 28 50C28 49.4477 28.4477 49 29 49C29.5523 49 30 49.4477 30 50Z" fill="#9A25C3"/>
</svg>
