<svg width="65" height="66" viewBox="0 0 65 66" fill="none" xmlns="http://www.w3.org/2000/svg">
<path d="M11.566 26.6142C11.489 26.1892 11.4121 25.7642 11.35 25.3331C11.265 24.7392 11.2019 24.1472 11.15 23.5562C9.06891 23.2712 7.12396 21.9372 5.41797 19.6462C5.1418 20.9122 5.00176 22.2042 5 23.5001C5.00332 24.3962 5.07226 25.2909 5.20605 26.1771C7.3166 26.4368 9.43964 26.5827 11.566 26.6142L11.566 26.6142Z" fill="#63AEF7"/>
<path d="M5.63281 28.2422C6.14646 30.1373 6.97326 31.9334 8.07891 33.5562C8.81755 32.6033 9.8043 31.8718 10.9308 31.4422C11.4863 31.2394 12.0541 31.0724 12.6308 30.9422C12.3898 30.1832 12.1689 29.4101 11.9779 28.6201C9.8578 28.6039 7.73981 28.4777 5.63291 28.2422L5.63281 28.2422Z" fill="#63AEF7"/>
<path d="M24.1777 16.8544C24.0047 17.0333 23.8476 17.1954 23.7047 17.3374C23.4767 17.5643 23.2367 17.8184 22.9797 18.0893C21.0377 20.1393 18.1687 23.1583 13.1797 23.5773C13.2277 24.0673 13.2607 24.5562 13.3307 25.0493C13.4066 25.5753 13.4947 26.096 13.5947 26.6112C24.1497 26.4193 34.0077 23.4731 40.3107 18.6203C39.4034 15.424 37.6296 12.5408 35.1857 10.2903C30.9304 11.2985 27.0877 13.5899 24.1777 16.8543L24.1777 16.8544Z" fill="#63AEF7"/>
<path d="M11.0285 21.516C10.8361 16.9369 11.7018 12.375 13.5584 8.18506C10.1532 10.2667 7.54393 13.43 6.14844 17.169C7.26053 19.0141 8.91543 21.0251 11.0285 21.5161V21.516Z" fill="#63AEF7"/>
<path d="M13.0426 21.5802C17.2606 21.2081 19.7076 18.6341 21.5286 16.7132C21.7985 16.4282 22.0516 16.1622 22.2905 15.9231C22.4264 15.7872 22.5755 15.6321 22.7405 15.4622L22.7407 15.462C25.5846 12.3202 29.2182 9.99749 33.2637 8.735C30.8732 7.0598 28.1087 5.99575 25.2117 5.63615C22.3148 5.27639 19.3742 5.63225 16.6467 6.6721C14.0004 11.1768 12.7463 16.3641 13.0426 21.5801L13.0426 21.5802Z" fill="#63AEF7"/>
<path d="M14.6429 30.6579C17.6285 30.5955 20.5754 31.3417 23.1719 32.8169C23.4998 32.9778 23.8069 33.1288 24.094 33.2618C24.2129 33.3118 24.369 33.3858 24.5359 33.4618L24.61 33.4967H37.9299V33.4969C39.934 30.5487 41.0026 27.0649 40.9959 23.4999C40.9891 22.5892 40.9129 21.6802 40.768 20.781C34.208 25.481 24.441 28.344 14.0391 28.603C14.218 29.2999 14.4209 29.9858 14.6429 30.6579Z" fill="#63AEF7"/>
<path d="M11.6266 33.318C10.6883 33.694 9.89236 34.3561 9.35156 35.21C10.8943 37.0112 12.7756 38.4923 14.8885 39.569L15.3885 37.569C15.4096 37.4831 15.4466 37.405 15.4716 37.321V37.3212C14.6321 35.8911 13.9097 34.3956 13.3114 32.8491C12.739 32.963 12.1757 33.1196 11.6265 33.3181L11.6266 33.318Z" fill="#63AEF7"/>
<path d="M19.9455 33.5514C18.491 32.9483 16.934 32.6309 15.3594 32.6165C15.7271 33.5194 16.1404 34.4032 16.5975 35.2645C17.4651 34.3014 18.6569 33.6915 19.9455 33.5514Z" fill="#63AEF7"/>
<path d="M30 41.5C30 41.7652 30.1053 42.0195 30.293 42.207C30.4805 42.3947 30.7348 42.5 31 42.5H43C43.2652 42.5 43.5195 42.3947 43.707 42.207C43.8947 42.0195 44 41.7652 44 41.5V35.5H30L30 41.5ZM33 37.5H41C41.3572 37.5 41.6873 37.6906 41.866 38C42.0447 38.3094 42.0447 38.6906 41.866 39C41.6873 39.3094 41.3572 39.5 41 39.5H33C32.6428 39.5 32.3127 39.3094 32.134 39C31.9553 38.6906 31.9553 38.3094 32.134 38C32.3127 37.6906 32.6428 37.5 33 37.5Z" fill="#63AEF7"/>
<path d="M46 50.5C46 51.0523 45.5523 51.5 45 51.5C44.4477 51.5 44 51.0523 44 50.5C44 49.9477 44.4477 49.5 45 49.5C45.5523 49.5 46 49.9477 46 50.5Z" fill="#63AEF7"/>
<path d="M30.9958 44.4996C30.2001 44.4996 29.437 44.1836 28.8745 43.6209C28.3118 43.0584 27.9958 42.2953 27.9958 41.4997V35.4997H20.5379C19.7939 35.5026 19.0724 35.7557 18.4892 36.2178C17.9062 36.6801 17.4955 37.3249 17.3228 38.0487L13.1369 54.9206C12.682 56.6759 13.1642 58.5417 14.4125 59.857C15.6607 61.1722 17.4988 61.7513 19.2754 61.3888C21.0521 61.0263 22.5166 59.7736 23.1498 58.0746L24.2357 55.3746H24.2359C24.4535 54.8283 24.9199 54.4193 25.4898 54.2746C26.0745 54.1269 26.6949 54.2658 27.1609 54.6486C27.7917 55.1459 28.5822 55.3962 29.3843 55.3535C30.1865 55.3105 30.9455 54.9771 31.5199 54.4156C32.0865 53.8371 32.8601 53.5074 33.6699 53.4996H40.2809C41.0942 53.5074 41.8707 53.8396 42.4379 54.4226C43.0178 54.9857 43.784 55.317 44.5914 55.3539C45.399 55.3906 46.192 55.1305 46.8209 54.6226C47.165 54.343 47.5945 54.1894 48.0379 54.1877C48.1961 54.1873 48.3537 54.2072 48.5068 54.2467C49.0738 54.3928 49.5365 54.8018 49.751 55.3467L50.8391 58.0547H50.8389C51.2117 59.056 51.8791 59.9211 52.7529 60.5359C53.6268 61.1507 54.6664 61.4867 55.735 61.4996C56.2461 61.4992 56.7543 61.4228 57.243 61.2726C58.54 60.8697 59.6348 59.9872 60.3037 58.805C60.9727 57.6228 61.1654 56.23 60.843 54.9105L56.6738 38.0495C56.4988 37.3267 56.0873 36.6833 55.5047 36.2212C54.9219 35.7591 54.2016 35.5052 53.4578 35.4995H45.9958V41.4995C45.9958 42.2952 45.6798 43.0583 45.1171 43.6208C44.5546 44.1835 43.7915 44.4995 42.9958 44.4995L30.9958 44.4996ZM23.9959 43.4996H22.9959V44.4996C22.9959 44.8569 22.8052 45.1869 22.4959 45.3656C22.1865 45.5444 21.8053 45.5444 21.4959 45.3656C21.1865 45.1869 20.9959 44.8568 20.9959 44.4996V43.4996H19.9959C19.6386 43.4996 19.3086 43.309 19.1299 42.9996C18.9512 42.6903 18.9512 42.309 19.1299 41.9997C19.3086 41.6903 19.6387 41.4997 19.9959 41.4997H20.9959V40.4997C20.9959 40.1424 21.1865 39.8124 21.4959 39.6337C21.8052 39.4549 22.1865 39.4549 22.4959 39.6337C22.8052 39.8124 22.9959 40.1425 22.9959 40.4997V41.4997H23.9959C24.3531 41.4997 24.6832 41.6903 24.8619 41.9997C25.0406 42.309 25.0406 42.6902 24.8619 42.9996C24.6831 43.309 24.3531 43.4996 23.9959 43.4996ZM28.9958 53.4996C28.2001 53.4996 27.437 53.1836 26.8746 52.6209C26.3119 52.0584 25.9959 51.2953 25.9959 50.4996C25.9959 49.7039 26.3119 48.9408 26.8746 48.3783C27.437 47.8156 28.2001 47.4996 28.9958 47.4996C29.7915 47.4996 30.5546 47.8156 31.1171 48.3783C31.6798 48.9408 31.9958 49.7039 31.9958 50.4996C31.9958 51.2953 31.6798 52.0584 31.1171 52.6209C30.5546 53.1836 29.7915 53.4996 28.9958 53.4996ZM37.9958 51.4996H35.9958C35.6386 51.4996 35.3085 51.309 35.1298 50.9996C34.9511 50.6903 34.9511 50.309 35.1298 49.9996C35.3085 49.6903 35.6386 49.4996 35.9958 49.4996H37.9958C38.353 49.4996 38.6831 49.6903 38.8618 49.9996C39.0405 50.309 39.0405 50.6902 38.8618 50.9996C38.6831 51.309 38.353 51.4996 37.9958 51.4996ZM52.4958 47.4996H51.4958C51.1386 47.4996 50.8085 47.309 50.6298 46.9996C50.4511 46.6903 50.4511 46.309 50.6298 45.9996C50.8085 45.6903 51.1386 45.4996 51.4958 45.4996H52.4958C52.853 45.4996 53.1831 45.6903 53.3618 45.9996C53.5405 46.309 53.5405 46.6902 53.3618 46.9996C53.1831 47.309 52.853 47.4996 52.4958 47.4996ZM54.9958 42.4996C55.353 42.4996 55.6831 42.6903 55.8618 42.9996C56.0405 43.309 56.0405 43.6902 55.8618 43.9996C55.6831 44.309 55.353 44.4996 54.9958 44.4996H53.9958C53.6386 44.4996 53.3085 44.309 53.1298 43.9996C52.9511 43.6903 52.9511 43.309 53.1298 42.9996C53.3085 42.6903 53.6386 42.4996 53.9958 42.4996H54.9958ZM51.4958 39.4997H52.4958C52.853 39.4997 53.1831 39.6903 53.3618 39.9997C53.5405 40.309 53.5405 40.6903 53.3618 40.9997C53.1831 41.309 52.853 41.4997 52.4958 41.4997H51.4958C51.1386 41.4997 50.8085 41.309 50.6298 40.9997C50.4511 40.6903 50.4511 40.3091 50.6298 39.9997C50.8085 39.6903 51.1386 39.4997 51.4958 39.4997ZM48.9958 42.4996H49.9958C50.353 42.4996 50.6831 42.6903 50.8618 42.9996C51.0405 43.309 51.0405 43.6902 50.8618 43.9996C50.6831 44.309 50.353 44.4996 49.9958 44.4996H48.9958C48.6386 44.4996 48.3085 44.309 48.1298 43.9996C47.9511 43.6903 47.9511 43.309 48.1298 42.9996C48.3085 42.6903 48.6386 42.4996 48.9958 42.4996ZM47.9958 50.4996C47.9958 51.2953 47.6798 52.0584 47.1171 52.6209C46.5546 53.1836 45.7915 53.4996 44.9958 53.4996C44.2001 53.4996 43.437 53.1836 42.8745 52.6209C42.3118 52.0584 41.9958 51.2953 41.9958 50.4996C41.9958 49.7039 42.3118 48.9408 42.8745 48.3783C43.437 47.8156 44.2001 47.4996 44.9958 47.4996C45.7915 47.4996 46.5546 47.8156 47.1171 48.3783C47.6798 48.9408 47.9958 49.7039 47.9958 50.4996Z" fill="#63AEF7"/>
<path d="M30 50.5C30 51.0523 29.5523 51.5 29 51.5C28.4477 51.5 28 51.0523 28 50.5C28 49.9477 28.4477 49.5 29 49.5C29.5523 49.5 30 49.9477 30 50.5Z" fill="#63AEF7"/>
</svg>
