<svg width="350" height="60" viewBox="0 0 350 60" fill="none" xmlns="http://www.w3.org/2000/svg">
<path fill-rule="evenodd" clip-rule="evenodd" d="M199.491 0C199.645 0.483 199.932 0.966 199.934 1.449C199.962 9.58125 199.955 17.7117 199.955 25.844V26.7977L200.112 26.8363C200.294 26.4565 200.484 26.0803 200.662 25.6988C203.282 20.125 208.283 17.7677 214.067 18.2875C220.066 18.8265 223.296 22.9495 224.534 28.6632C225.496 33.1135 225.094 37.6233 225.103 42.1138C225.111 45.7398 224.957 49.364 224.968 52.9882C224.971 53.6112 225.318 54.3392 225.725 54.8292C226.516 55.776 227.484 56.5705 228.336 57.4683C228.559 57.7045 228.788 58.1508 228.706 58.3923C228.63 58.6163 228.137 58.8158 227.827 58.8158C221.515 58.8403 215.203 58.8403 208.892 58.8158C208.582 58.814 208.098 58.6057 208.014 58.373C207.928 58.142 208.177 57.701 208.395 57.4595C209.253 56.5197 210.205 55.664 211.02 54.6928C211.379 54.2675 211.68 53.6428 211.691 53.1003C211.803 47.0908 211.918 41.0795 211.879 35.07C211.867 33.2168 211.554 31.3198 211.078 29.5225C209.863 24.955 204.957 24.2532 202.192 27.3752C200.799 28.9467 199.969 30.7177 199.962 32.8212C199.943 39.5412 199.934 46.2612 199.988 52.9812C199.995 53.6007 200.361 54.3217 200.774 54.8152C201.565 55.7637 202.524 56.5653 203.376 57.4648C203.6 57.7028 203.682 58.0738 203.831 58.3818C203.488 58.534 203.149 58.8105 202.806 58.8158C199.568 58.849 196.327 58.835 193.088 58.835C190.116 58.835 187.143 58.8525 184.172 58.8158C183.799 58.8105 183.43 58.534 183.059 58.3835C183.223 58.044 183.321 57.6415 183.566 57.379C184.27 56.6177 185.001 55.874 185.787 55.1985C186.627 54.4757 186.883 53.592 186.876 52.521C186.851 48.2877 186.865 44.0545 186.865 39.8212C186.865 29.4385 186.853 19.0557 186.881 8.67475C186.884 7.37975 186.574 6.34025 185.533 5.4985C184.705 4.82825 183.972 4.032 183.241 3.24975C183.043 3.03625 182.893 2.65125 182.936 2.38C182.966 2.205 183.375 2.00375 183.636 1.9705C186.247 1.6345 188.864 1.3405 191.476 1.01675C194.084 0.69125 196.688 0.3395 199.292 0L199.491 0ZM137.821 21.7648V23.009C137.821 30.94 137.809 38.8692 137.837 46.8003C137.839 47.831 137.935 48.888 138.182 49.8855C138.911 52.8098 141.605 53.8772 144.17 52.3145C144.653 52.0205 145.084 51.6373 145.565 51.338C145.796 51.1963 146.09 51.1542 146.354 51.0667C146.389 51.3677 146.527 51.7038 146.442 51.9645C145.409 55.1075 143.414 57.379 140.306 58.555C137.349 59.675 134.313 59.78 131.269 58.954C127.472 57.9215 125.575 55.2037 124.957 51.4552C124.802 50.4272 124.73 49.3885 124.742 48.349C124.724 39.914 124.733 31.479 124.733 23.044V21.8225H111.209C111.192 22.2075 111.165 22.5365 111.165 22.8637C111.163 30.9627 111.141 39.06 111.19 47.159C111.197 48.3105 111.372 49.5267 111.774 50.5942C112.647 52.9042 114.942 53.6778 117.11 52.5228C117.724 52.1973 118.263 51.7283 118.86 51.3678C119.117 51.2138 119.441 51.1735 119.735 51.0807C119.745 51.3887 119.845 51.7283 119.754 52.0013C118.664 55.2983 116.517 57.582 113.223 58.7055C110.46 59.6581 107.473 59.7527 104.655 58.9768C100.916 57.9758 98.9677 55.3245 98.3097 51.6145C98.1508 50.6551 98.0753 49.6837 98.084 48.7112C98.0683 40.1765 98.0752 31.6418 98.0752 23.107V21.7648C96.4652 21.7648 94.9113 21.7683 93.3573 21.7648C92.1848 21.7613 92.1147 21.679 92.1077 20.3893C92.1042 18.9507 92.1393 18.9017 93.3188 18.8947C94.6208 18.8877 95.9245 18.879 97.2265 18.8965C98.3902 18.914 99.2932 18.529 100.103 17.6067C103.257 14.0052 106.482 10.4633 109.701 6.9195C109.963 6.63075 110.39 6.4925 110.74 6.28425C110.88 6.692 111.143 7.09975 111.144 7.50925C111.179 10.9025 111.163 14.2958 111.163 17.6908V18.697C111.349 18.7985 111.405 18.8545 111.463 18.8545C115.803 18.8598 120.143 18.8545 124.483 18.8598C125.435 18.8615 126.08 18.3592 126.688 17.6802C129.85 14.1312 133.037 10.6015 136.215 7.06475C136.349 6.916 136.456 6.71475 136.622 6.62725C136.892 6.482 137.221 6.3 137.482 6.3525C137.637 6.38225 137.799 6.83025 137.806 7.09275C137.837 8.43675 137.821 9.78075 137.821 11.1265C137.821 13.377 137.851 15.6292 137.804 17.8798C137.788 18.6568 137.993 18.928 138.807 18.9123C141.379 18.8598 143.95 18.8895 146.52 18.8947C147.698 18.8982 147.74 18.9595 147.733 20.3945C147.726 21.665 147.64 21.763 146.466 21.763C143.631 21.7665 140.796 21.7648 137.821 21.7648ZM322.355 0C322.485 0.46025 322.724 0.92225 322.726 1.3825C322.747 12.8432 322.744 24.3022 322.744 35.7612V37.0685C323.642 36.4122 324.412 35.8575 325.173 35.2905C328.417 32.8703 331.664 30.4517 334.903 28.0245C336.075 27.1442 336.093 26.9885 335.218 25.7635C333.893 23.9103 332.553 22.0675 331.249 20.1985C331.063 19.9325 330.885 19.4635 330.998 19.243C331.107 19.026 331.595 18.9087 331.919 18.907C337.23 18.8895 342.54 18.886 347.851 18.9105C348.198 18.9105 348.546 19.1503 348.892 19.2798C348.686 19.6228 348.555 20.062 348.262 20.2913C344.127 23.5288 339.967 26.7383 335.818 29.9565C334.616 30.8875 334.604 30.919 335.269 32.2385C338.718 39.0845 342.095 45.9708 345.679 52.7485C346.561 54.418 348.129 55.7165 349.347 57.2128C349.636 57.568 349.786 58.037 350 58.4535C349.58 58.5813 349.16 58.8158 348.74 58.8193C344.164 58.8455 339.588 58.814 335.013 58.8543C334.138 58.8613 333.715 58.5445 333.354 57.7622C330.65 51.8998 327.903 46.0548 325.157 40.2115C324.975 39.8265 324.763 39.3662 324.431 39.1685C324.076 38.9532 323.54 38.9112 323.123 38.9935C322.945 39.0285 322.761 39.5745 322.76 39.8877C322.735 44.2907 322.714 48.6938 322.777 53.095C322.786 53.6865 323.148 54.3725 323.547 54.8362C324.356 55.7707 325.323 56.5635 326.177 57.4612C326.399 57.6905 326.615 58.1455 326.529 58.3888C326.452 58.6145 325.962 58.8158 325.654 58.8158C319.375 58.8403 313.094 58.8403 306.815 58.8193C306.495 58.8175 306.176 58.5777 305.856 58.4482C305.994 58.1052 306.049 57.6853 306.285 57.4333C307.129 56.5233 308.079 55.7165 308.887 54.7802C309.243 54.3637 309.545 53.732 309.547 53.1983C309.582 38.0765 309.584 22.953 309.542 7.83125C309.54 7.21 309.167 6.48725 308.754 5.99375C307.965 5.0435 307.004 4.24025 306.154 3.34075C305.93 3.10275 305.674 2.66875 305.751 2.43075C305.828 2.19275 306.294 1.981 306.609 1.94075C309.717 1.5435 312.832 1.19875 315.941 0.81375C317.949 0.5635 319.949 0.27125 321.954 0L322.355 0ZM92.358 52.3845C92.9618 55.608 89.5545 58.9365 85.127 59.402C80.451 59.8973 75.4285 57.4613 75.2657 50.7798C75.1222 51.0703 74.977 51.3625 74.8353 51.6548C73.0153 55.3963 70.3045 58.1123 66.1622 59.0853C59.1535 60.7303 53.5343 57.2687 51.8298 50.1392C51.327 47.9854 51.0531 45.7846 51.0125 43.5733C50.9057 38.7363 50.9985 33.8958 51.023 29.057C51.0405 26.068 51.1122 23.0773 51.093 20.0883C51.086 19.1608 51.3835 18.865 52.3022 18.8755C55.9107 18.9193 59.5175 18.9123 63.126 18.879C64.001 18.872 64.2495 19.1502 64.2442 20.0497C64.1987 27.846 64.1322 35.644 64.253 43.4385C64.2845 45.4423 64.8218 47.4775 65.38 49.4235C65.8525 51.0738 67.1125 52.066 68.887 52.3215C70.1435 52.5018 71.2215 52.15 72.0983 51.2925C74.0933 49.336 75.425 47.103 75.3882 44.1315C75.3077 37.8805 75.3498 31.6295 75.3778 25.3785C75.383 24.3285 75.0715 23.506 74.3277 22.7763C73.4502 21.9017 72.6039 20.9963 71.7902 20.062C71.6187 19.866 71.4577 19.4897 71.533 19.2902C71.6065 19.096 71.9932 18.9122 72.2417 18.9105C77.4182 18.8895 82.5965 18.9 87.7748 18.893C88.5448 18.8895 88.6095 19.3725 88.6095 19.964C88.6007 22.0465 88.606 24.1325 88.606 26.215V42.6493C88.606 45.4668 88.5938 48.2877 88.6148 51.1052C88.6218 51.9382 88.5815 52.8728 89.4827 53.3138C90.412 53.7688 91.1348 53.1755 91.8365 52.6435C91.9625 52.549 92.12 52.5 92.358 52.3845ZM268.751 52.6522C268.555 53.403 268.453 54.1958 268.149 54.8975C266.772 58.072 263.459 59.7433 259.224 59.472C255.661 59.2428 252.583 56.987 251.776 53.7565C251.431 52.3845 251.461 50.904 251.444 49.469C251.4 46.1475 251.429 42.826 251.429 39.424C248.867 38.115 244.317 38.9183 242.585 42.6318C241.297 45.3933 241.377 48.2457 242.389 51.044C243.306 53.585 245.807 54.348 248.101 52.934C248.376 52.7642 248.643 52.5875 249.102 52.297C249.102 52.815 249.165 53.1632 249.091 53.48C248.439 56.2537 246.795 58.1963 244.041 58.9243C239.589 60.102 235.557 59.3128 232.344 55.7848C228.337 51.3888 227.964 41.0025 236.848 37.177C241.659 35.1067 246.514 35.252 251.228 37.6845C251.314 37.7283 251.41 37.751 251.648 37.8332C251.708 35.4392 251.836 33.1117 251.797 30.786C251.762 28.749 251.739 26.6735 251.347 24.6908C250.707 21.4673 248.428 19.9605 245.182 20.3682C244.753 20.4207 244.242 20.8583 244.004 21.2608C242.037 24.57 240.135 27.9195 238.187 31.241C237.986 31.5805 237.617 31.8185 237.324 32.1037C237.039 31.7782 236.651 31.4965 236.481 31.1168C235.179 28.182 233.94 25.2157 232.626 22.2862C232.244 21.4305 232.503 21.063 233.299 20.8075C238.507 19.1398 243.817 18.0705 249.307 18.2122C252.45 18.2927 255.559 18.669 258.403 20.195C262.041 22.148 263.721 25.4083 264.414 29.323C265.202 33.7715 264.626 38.2253 264.465 42.679C264.367 45.3279 264.287 47.9775 264.225 50.6275C264.229 51.0627 264.296 51.495 264.427 51.9103C264.885 53.5203 266.103 53.9718 267.502 53.0688C267.799 52.8763 268.093 52.6698 268.387 52.4685L268.751 52.6522ZM164.745 59.4965C159.775 59.3618 155.243 58.7003 150.813 57.3353C149.966 57.0728 149.672 56.7508 150.015 55.8285C151.198 52.626 152.294 49.3938 153.456 46.1843C153.589 45.8168 153.93 45.5228 154.173 45.1955C154.469 45.4668 154.856 45.6873 155.046 46.0215C156.789 49.1138 158.573 52.1885 160.186 55.349C160.951 56.8435 161.914 57.533 163.576 57.295C164.955 57.0973 166.385 57.141 167.729 56.8138C169.727 56.329 171.248 55.146 171.607 52.955C171.971 50.7273 171.105 48.9387 169.209 47.8275C167.057 46.5675 164.794 45.4895 162.566 44.359C160.664 43.393 158.681 42.574 156.844 41.4943C149.693 37.2908 149.501 28.8715 152.875 24.1482C155.08 21.0612 158.256 19.5422 161.842 18.7617C166.187 17.815 170.536 18.1667 174.863 18.8737C176.699 19.1747 178.5 19.6822 180.32 20.0777C181.137 20.2562 181.328 20.6745 181.02 21.4567C179.82 24.507 178.657 27.5747 177.457 30.625C177.334 30.9312 176.991 31.409 176.825 31.3792C176.501 31.3267 176.136 31.0222 175.95 30.723C174.078 27.7068 172.233 24.6734 170.417 21.623C169.913 20.7742 169.263 20.3525 168.299 20.433C167.107 20.531 165.886 20.517 164.729 20.783C161.325 21.5723 159.838 25.3155 161.899 28.182C162.745 29.3545 164.008 30.3695 165.295 31.045C168.121 32.5325 171.126 33.6752 173.976 35.1225C175.807 36.05 177.642 37.0877 179.209 38.3985C182.005 40.7417 182.709 43.981 182.346 47.509C181.704 53.7915 177.135 57.2635 171.43 58.6617C170.397 58.9155 169.342 59.1168 168.287 59.2393C166.997 59.3898 165.693 59.4318 164.745 59.4965ZM269.637 39.424C269.584 34.6587 270.482 30.4115 273.003 26.6315C275.943 22.2303 280.219 19.8467 285.262 18.7915C291.541 17.479 297.658 18.459 303.686 20.3455C304.388 20.566 304.469 20.972 304.211 21.5722C302.825 24.8377 301.446 28.1068 300.039 31.3635C299.924 31.6313 299.575 32.0232 299.397 31.9935C299.106 31.9427 298.777 31.6435 298.62 31.36C296.796 28.083 295.004 24.7882 293.244 21.476C292.789 20.6115 292.227 20.279 291.267 20.3385C288.701 20.5012 286.87 21.7437 285.679 23.996C284.576 26.0767 284.147 28.3535 283.915 30.6548C283.512 34.6465 283.505 38.6382 284.475 42.5617C285.304 45.9095 286.738 48.9055 289.921 50.6328C292.761 52.1728 295.696 52.3022 298.485 50.575C299.976 49.6527 301.255 48.3893 302.659 47.3148C302.962 47.082 303.38 46.9997 303.744 46.851C303.8 47.2447 303.989 47.6752 303.893 48.0305C302.395 53.592 298.76 57.0903 293.353 58.7195C285.397 61.117 276.623 57.8165 272.5 50.911C270.344 47.3042 269.54 43.3335 269.637 39.424ZM47.9937 19.362C47.6857 14.5758 46.0163 10.416 42.3325 7.266C40.6134 5.80051 38.652 4.64574 36.5365 3.8535C36.5173 3.843 36.309 3.766 36.309 3.766L36.0517 3.6715L35.8243 3.58925L35.7158 3.55075C33.2551 2.65345 30.6576 2.18926 28.0385 2.17875L26.061 2.16825H26.1012H25.921L25.9245 2.17H25.872C21.427 2.142 16.982 2.1385 12.537 2.1455L0.9835 2.17C0.658 2.17 0.336 2.38 0.01225 2.49025C0.15575 2.8315 0.217 3.25325 0.4585 3.49825C1.6765 4.74075 2.9225 5.95875 4.2 7.14C4.858 7.749 5.215 8.4315 5.215 9.3345C5.20975 23.415 5.22375 37.4955 5.17475 51.576C5.173 52.2585 4.781 53.0757 4.312 53.5955C3.1045 54.9377 1.7395 56.133 0.4725 57.4227C0.2275 57.6695 0.15225 58.0825 0 58.4202C0.3465 58.5585 0.693 58.8158 1.0395 58.8175C9.35725 58.8385 17.6733 58.8403 25.991 58.8175C26.334 58.8158 26.6752 58.5375 27.0165 58.3905C26.8345 58.0703 26.7225 57.6573 26.4565 57.4455C24.6698 56.0368 22.883 54.6245 21.0263 53.3102C20.0638 52.6277 19.7488 51.8035 19.754 50.6677C19.7593 49.2152 19.7575 47.7627 19.7593 46.3102H19.7628C19.789 34.2212 19.7803 22.1322 19.7803 10.0432C19.7803 8.4455 19.782 8.4455 21.3395 8.45075C22.6958 8.45425 22.7395 8.5015 22.743 9.926C22.743 10.2585 22.778 10.5927 22.736 10.92C22.6572 11.5447 22.946 11.8492 23.478 12.1275C26.8118 13.8582 30.1332 15.61 33.4582 17.36C35.2432 18.298 37.0335 19.2255 38.8133 20.1687C39.1808 20.3612 39.452 20.7427 39.767 21.0367C39.452 21.3342 39.1825 21.7157 38.8167 21.9117C36.8252 22.9792 32.8143 25.1843 32.8055 25.2228C29.778 26.8363 26.7522 28.448 23.7317 30.0703C23.4097 30.2453 22.9758 30.6285 22.9705 30.9208C22.9303 33.019 22.9302 35.1208 22.9337 37.2698L22.8918 37.3205L22.9337 37.3433L22.9355 39.984C26.6822 40.103 30.2732 40.0225 33.817 39.1738C37.6005 38.2673 41.0393 36.6993 43.7045 33.7418C47.3795 29.6608 48.335 24.6943 47.9937 19.362Z" fill="white"/>
</svg>
