<svg width="65" height="65" viewBox="0 0 65 65" fill="none" xmlns="http://www.w3.org/2000/svg">
<path d="M13.9622 9.48047C13.6652 9.4805 13.3803 9.59851 13.1703 9.80854C12.9602 10.0186 12.8422 10.3034 12.8422 10.6005V31.8805C12.8422 32.1775 12.9602 32.4624 13.1703 32.6724C13.3803 32.8824 13.6652 33.0004 13.9622 33.0005H16.2022C16.3506 33.0026 16.498 32.9751 16.6357 32.9198C16.7734 32.8645 16.8988 32.7823 17.0044 32.6781C17.1101 32.5739 17.1941 32.4497 17.2514 32.3128C17.3086 32.1758 17.3381 32.0289 17.3381 31.8805C17.3381 31.732 17.3086 31.5851 17.2514 31.4482C17.1941 31.3112 17.1101 31.1871 17.0044 31.0828C16.8988 30.9786 16.7734 30.8965 16.6357 30.8411C16.498 30.7858 16.3506 30.7584 16.2022 30.7605H15.0822V11.7205H50.9222V30.7605H49.8022C49.6538 30.7584 49.5064 30.7858 49.3687 30.8411C49.231 30.8965 49.1056 30.9786 48.9999 31.0828C48.8942 31.1871 48.8103 31.3112 48.753 31.4482C48.6957 31.5851 48.6662 31.732 48.6662 31.8805C48.6662 32.0289 48.6957 32.1758 48.753 32.3128C48.8103 32.4497 48.8942 32.5739 48.9999 32.6781C49.1056 32.7823 49.231 32.8645 49.3687 32.9198C49.5064 32.9751 49.6538 33.0026 49.8022 33.0005H52.0422C52.3392 33.0004 52.6241 32.8824 52.8341 32.6724C53.0441 32.4624 53.1622 32.1775 53.1622 31.8805V10.6005C53.1622 10.3034 53.0441 10.0186 52.8341 9.80854C52.6241 9.59851 52.3392 9.4805 52.0422 9.48047H13.9622ZM24.0422 27.4005C22.854 27.4005 21.7145 27.8725 20.8743 28.7126C20.0342 29.5528 19.5622 30.6923 19.5622 31.8805C19.5622 33.0686 20.0342 34.2081 20.8743 35.0483C21.7145 35.8885 22.854 36.3605 24.0422 36.3605C25.2304 36.3605 26.3699 35.8885 27.21 35.0483C28.0502 34.2081 28.5222 33.0686 28.5222 31.8805C28.5222 30.6923 28.0502 29.5528 27.21 28.7126C26.3699 27.8725 25.2304 27.4005 24.0422 27.4005ZM41.9622 27.4005C40.774 27.4005 39.6345 27.8725 38.7944 28.7126C37.9542 29.5528 37.4822 30.6923 37.4822 31.8805C37.4822 33.0686 37.9542 34.2081 38.7944 35.0483C39.6345 35.8885 40.774 36.3605 41.9622 36.3605C43.1504 36.3605 44.2899 35.8885 45.13 35.0483C45.9702 34.2081 46.4422 33.0686 46.4422 31.8805C46.4422 30.6923 45.9702 29.5528 45.13 28.7126C44.2899 27.8725 43.1504 27.4005 41.9622 27.4005ZM20.6822 37.4805C20.1222 37.4805 19.6738 37.5916 19.1138 37.7036C20.6818 38.9356 21.8022 40.8405 21.8022 43.0805C21.8022 44.3125 21.4653 45.4325 20.9053 46.4405H27.1791C26.6191 45.4325 26.2822 44.3125 26.2822 43.0805C26.2822 40.9525 27.2906 38.9356 28.9706 37.7036C28.4106 37.5916 27.9622 37.4805 27.4022 37.4805H20.6822ZM38.6022 37.4805C38.0422 37.4805 37.5938 37.5916 37.0338 37.7036C38.6018 38.9356 39.7222 40.8405 39.7222 43.0805C39.7222 44.3125 39.3853 45.4325 38.8253 46.4405H45.0991C44.5391 45.4325 44.2022 44.3125 44.2022 43.0805C44.2022 40.9525 45.2111 38.9356 46.7791 37.7036C46.3311 37.5916 45.8822 37.4805 45.3222 37.4805H38.6022ZM15.0822 38.6005C12.6182 38.6005 10.6022 40.6165 10.6022 43.0805C10.6022 45.5445 12.6182 47.5605 15.0822 47.5605C16.2022 47.5605 17.2098 47.1125 17.9938 46.4405C18.8898 45.6565 19.5622 44.4245 19.5622 43.0805C19.5622 41.4005 18.5546 39.9445 17.2106 39.1605C16.5386 38.8245 15.8662 38.6005 15.0822 38.6005ZM33.0022 38.6005C32.2182 38.6005 31.5458 38.8245 30.8738 39.1605C29.5298 39.9445 28.5222 41.4005 28.5222 43.0805C28.5222 44.4245 29.0826 45.6565 30.0906 46.4405C30.8746 47.1125 31.8822 47.5605 33.0022 47.5605C34.1222 47.5605 35.1298 47.1125 35.9138 46.4405C36.8098 45.6565 37.4822 44.4245 37.4822 43.0805C37.4822 41.4005 36.4746 39.9445 35.1306 39.1605C34.4586 38.8245 33.7862 38.6005 33.0022 38.6005ZM50.9222 38.6005C50.1382 38.6005 49.4658 38.8245 48.7938 39.1605C47.4498 39.9445 46.4422 41.4005 46.4422 43.0805C46.4422 44.4245 47.0026 45.6565 48.0106 46.4405C48.7946 47.1125 49.8022 47.5605 50.9222 47.5605C53.3862 47.5605 55.4022 45.5445 55.4022 43.0805C55.4022 40.6165 53.3862 38.6005 50.9222 38.6005ZM11.3853 48.6805C9.03331 48.9045 7.24219 50.8085 7.24219 53.1605V56.5205C7.24219 57.0805 7.80219 57.6405 8.36219 57.6405H21.8022C22.4742 57.6405 22.9222 57.0805 22.9222 56.5205V53.1605C22.9222 50.8085 21.1311 48.9045 18.7791 48.6805H18.4422H11.7222H11.3853ZM29.3053 48.6805C26.9533 48.9045 25.1622 50.8085 25.1622 53.1605V56.5205C25.1622 57.0805 25.7222 57.6405 26.2822 57.6405H39.7222C40.2822 57.6405 40.8422 57.0805 40.8422 56.5205V53.1605C40.8422 50.8085 39.0511 48.9045 36.6991 48.6805H36.3622H29.6422H29.3053ZM47.2253 48.6805C44.8733 48.9045 43.0822 50.8085 43.0822 53.1605V56.5205C43.0822 57.0805 43.6422 57.6405 44.2022 57.6405H57.6422C58.2022 57.6405 58.7622 57.0805 58.7622 56.5205V53.1605C58.7622 50.8085 56.9711 48.9045 54.6191 48.6805H54.2822H47.5622H47.2253Z" fill="#D7AC5B"/>
</svg>
