<svg width="101" height="100" viewBox="0 0 101 100" fill="none" xmlns="http://www.w3.org/2000/svg">
<circle cx="50.3359" cy="50" r="50" fill="#FB441C" fill-opacity="0.45"/>
<circle cx="32.1875" cy="57.5752" r="7.12505" fill="#FB441C"/>
<rect x="36.4688" y="24.3252" width="25.1752" height="12.3501" fill="#FB441C"/>
<rect x="58.3125" y="50.4502" width="19.4751" height="24.7002" fill="#FB441C"/>
<path d="M32.0096 75.2423C27.5599 75.2423 23.5917 73.0027 21.2734 69.4697C22.4079 74.3561 26.7783 78.0004 32.0096 78.0004C37.2409 78.0004 41.6112 74.3561 42.7458 69.4697C40.4273 73.0028 36.4593 75.2423 32.0096 75.2423Z" fill="#001035"/>
<path d="M32.0023 70.6419C27.5158 70.6419 23.5628 68.3306 21.2578 64.8398C22.3823 69.741 26.7612 73.4 32.0023 73.4C37.2434 73.4 41.6225 69.7409 42.7468 64.8398C40.4419 68.3307 36.4888 70.6419 32.0023 70.6419Z" fill="#001035"/>
<path d="M32.0231 47.0713C25.9522 47.0713 21.0078 52.0156 21.0078 58.0866C21.0078 64.1576 25.9522 69.1019 32.0231 69.1019C38.0941 69.1019 43.0385 64.1576 43.0385 58.0866C43.0385 52.0156 38.0941 47.0713 32.0231 47.0713ZM32.649 62.0922V63.5943H31.0217V62.1548C30.2707 62.0922 29.5197 61.8419 29.019 61.4664L28.8312 61.3412L29.3945 59.7139L29.77 59.9643C30.2707 60.2772 30.9591 60.5276 31.5851 60.5276C32.3361 60.5276 32.8994 60.1521 32.8994 59.5262C32.8994 59.1507 32.7117 58.7125 31.5225 58.2118C30.2708 57.7111 29.019 57.0227 29.019 55.458C29.019 54.2062 29.8327 53.2675 31.147 52.8919V51.4524H32.7743V52.8293C33.4001 52.8919 33.9008 53.0797 34.4015 53.33L34.6519 53.5178L34.026 55.1451L33.6505 54.9573C33.4001 54.8321 32.8994 54.5192 32.0858 54.5192C31.2721 54.5192 30.9592 54.9573 30.9592 55.3328C30.9592 55.771 31.147 56.0213 32.4613 56.5846C33.5879 57.0227 34.8396 57.7737 34.8396 59.4636C34.8396 60.7153 33.9633 61.7793 32.649 62.0922Z" fill="#001035"/>
<path d="M62.3465 21H36.6043C35.5884 21 34.7656 21.8228 34.7656 22.8387V37.5485C34.7656 38.5644 35.5884 39.3872 36.6043 39.3872H62.3465C63.3624 39.3872 64.1852 38.5644 64.1852 37.5485V22.8387C64.1852 21.8228 63.3624 21 62.3465 21ZM40.2818 34.7904H38.4431V32.9517H40.2818V34.7904ZM43.9592 34.7904H42.1205V32.9517H43.9592V34.7904ZM44.8786 29.2743C44.8786 29.7818 44.4668 30.1936 43.9592 30.1936H40.2818C39.7742 30.1936 39.3624 29.7818 39.3624 29.2743V27.4355C39.3624 26.9279 39.7742 26.5162 40.2818 26.5162H43.9592C44.4668 26.5162 44.8786 26.928 44.8786 27.4355V29.2743ZM47.6367 34.7904H45.798V32.9517H47.6367V34.7904ZM52.2335 34.7904H50.3948V32.9517H52.2335V34.7904ZM55.9109 34.7904H54.0722V32.9517H55.9109V34.7904ZM59.5884 34.7904H57.7497V32.9517H59.5884V34.7904Z" fill="#001035"/>
<path d="M77.0619 46.7422H58.6747C57.6588 46.7422 56.8359 47.565 56.8359 48.5809V76.1617C56.8359 77.1777 57.6588 78.0005 58.6747 78.0005H77.0619C78.0778 78.0005 78.9006 77.1777 78.9006 76.1617V48.5809C78.9006 47.565 78.0778 46.7422 77.0619 46.7422ZM76.1425 73.4037H59.594V51.339H76.1425V73.4037Z" fill="#001035"/>
<path d="M67.8574 55.9355C64.3031 55.9355 61.4219 58.8168 61.4219 62.3711C61.4219 65.9253 64.3031 68.8066 67.8574 68.8066C71.4117 68.8066 74.2929 65.9253 74.2929 62.3711C74.2929 58.8168 71.4117 55.9355 67.8574 55.9355ZM66.938 65.5097L64.4492 63.0209L65.7492 61.7209L66.938 62.9097L69.9654 59.8824L71.2654 61.1823L66.938 65.5097Z" fill="#001035"/>
<path d="M28.0147 44.3532L26.2266 43.9238C26.3635 43.3502 26.5263 42.7691 26.7083 42.1973L28.4606 42.7555C28.2915 43.2858 28.1415 43.8227 28.0147 44.3532ZM29.025 41.2008L27.3206 40.5093C27.5431 39.9613 27.7914 39.4116 28.0588 38.8738L29.7054 39.6911C29.4591 40.1876 29.23 40.6959 29.025 41.2008ZM30.4997 38.2358L28.9193 37.2971C29.2237 36.7832 29.5518 36.2766 29.8948 35.7884L31.3999 36.8456C31.0844 37.2951 30.782 37.7623 30.4997 38.2358L30.4997 38.2358ZM32.4001 35.5255L30.9777 34.3598C31.351 33.9038 31.751 33.4516 32.1664 33.0156L33.4968 34.2834C33.1135 34.6871 32.7448 35.1045 32.4001 35.5255Z" fill="#FB441C"/>
<path d="M49.4714 73.403C49.2931 73.403 49.1138 73.4011 48.9363 73.3975L48.974 71.5587C49.6185 71.5725 50.2703 71.5587 50.9102 71.5183L51.027 73.3534C50.5122 73.3856 49.9935 73.403 49.4714 73.403ZM46.8457 73.2615C46.1479 73.1853 45.4501 73.0776 44.7734 72.9416L45.1347 71.1387C45.7589 71.2638 46.4015 71.363 47.045 71.4329L46.8457 73.2615ZM53.111 73.1282L52.8325 71.3105C53.4688 71.213 54.1078 71.0862 54.7283 70.9336L55.167 72.7199C54.493 72.8863 53.8006 73.0234 53.111 73.1282Z" fill="#FB441C"/>
<path d="M70.9359 44.3778C70.8108 43.8528 70.6646 43.3251 70.5018 42.8129L72.2542 42.2567C72.4298 42.8129 72.5878 43.3839 72.724 43.9529L70.9359 44.3778ZM69.9522 41.2841C69.7518 40.7849 69.5293 40.2856 69.2912 39.8003L70.9414 38.9903C71.1998 39.517 71.4406 40.0577 71.6576 40.5982L69.9522 41.2841ZM68.5235 38.3688C68.2542 37.9091 67.9607 37.4475 67.652 36.9989L69.1653 35.9554C69.4999 36.4417 69.8181 36.9411 70.1103 37.4402L68.5235 38.3688ZM66.681 35.6952C66.3408 35.2723 65.9868 34.8631 65.6172 34.4659L66.9641 33.2129C67.3613 33.6404 67.7482 34.0882 68.1142 34.5423L66.681 35.6952Z" fill="#FB441C"/>
</svg>
