<svg width="101" height="100" viewBox="0 0 101 100" fill="none" xmlns="http://www.w3.org/2000/svg">
<circle cx="50.5" cy="50" r="50" fill="#BFF300" fill-opacity="0.25"/>
<g clip-path="url(#clip0_7641_10370)">
<path d="M36.2519 57.0749L36.336 56.7614L36.0838 56.557L18.8905 42.62L18.8662 42.6003L18.8397 42.5838C18.6944 42.4935 18.5819 42.3591 18.5183 42.2003C18.4564 42.0454 18.4443 41.8751 18.4836 41.7131C18.5334 41.5619 18.6272 41.4288 18.753 41.331C18.8821 41.2306 19.0387 41.172 19.202 41.1631L41.3441 39.9909L41.6682 39.9737L41.7845 39.6707L49.7094 19.0141C49.808 18.8747 49.9346 18.7572 50.0814 18.6691C50.2342 18.5774 50.4051 18.52 50.5822 18.5007C50.7273 18.5076 50.868 18.5538 50.9892 18.6346C51.1145 18.7181 51.2137 18.8352 51.2756 18.9724L59.2164 39.6707L59.3327 39.9737L59.6568 39.9909L81.7989 41.1631C81.9622 41.172 82.1188 41.2306 82.2479 41.331C82.3744 41.4293 82.4685 41.5633 82.5181 41.7154C82.5602 41.8788 82.559 42.0504 82.5145 42.2134C82.471 42.3729 82.3876 42.5185 82.2722 42.6367L65.151 56.5574L64.8995 56.7619L64.9835 57.0749L70.7146 78.4363L70.7145 78.4363L70.7165 78.4432C70.7625 78.6054 70.7563 78.778 70.6986 78.9364C70.641 79.0949 70.5349 79.2312 70.3955 79.3259L70.3829 79.3345L70.3709 79.3437C70.2533 79.4346 70.1088 79.4839 69.9601 79.4839C69.8114 79.4839 69.667 79.4346 69.5493 79.3437L69.5321 79.3304L69.5137 79.3187L50.8356 67.3355L50.5652 67.162L50.2951 67.3358L31.669 79.319L31.6029 79.3615L31.553 79.4223C31.5313 79.4488 31.5035 79.4698 31.472 79.4835C31.4426 79.4963 31.4107 79.5024 31.3787 79.5013C31.1906 79.4815 31.0089 79.4225 30.8453 79.3281C30.718 79.2214 30.6209 79.0829 30.5641 78.9265C30.5053 78.7648 30.4917 78.5902 30.5248 78.4215L36.2519 57.0749Z" fill="#001035" stroke="#BFF300"/>
<path d="M27.6562 38.1114C28.1108 37.2896 28.6108 36.4938 29.1542 35.7278C32.7489 30.5603 38.0851 26.861 44.1852 25.3076" stroke="#BFF300" stroke-width="2" stroke-dasharray="2.2 2"/>
<path d="M30.3588 67.3653C26.5055 62.6842 24.401 56.8082 24.4063 50.7451" stroke="#BFF300" stroke-width="2" stroke-dasharray="2.2 2"/>
<path d="M59.1907 75.5068C53.6292 77.4262 47.5849 77.4262 42.0234 75.5068" stroke="#BFF300" stroke-width="2" stroke-dasharray="2.2 2"/>
<path d="M76.8174 50.7451C76.8194 57.2046 74.4298 63.436 70.1094 68.238" stroke="#BFF300" stroke-width="2" stroke-dasharray="2.2 2"/>
<path d="M56.125 25.125C59.7422 25.9075 63.1531 27.4457 66.1341 29.6388C69.1151 31.8319 71.5988 34.6303 73.4225 37.8506" stroke="#BFF300" stroke-width="2" stroke-dasharray="2.2 2"/>
</g>
<defs>
<clipPath id="clip0_7641_10370">
<rect width="65.087" height="62" fill="white" transform="translate(18 18)"/>
</clipPath>
</defs>
</svg>
