<svg width="101" height="100" viewBox="0 0 101 100" fill="none" xmlns="http://www.w3.org/2000/svg">
<circle cx="50.6641" cy="50" r="50" fill="#6F58FF" fill-opacity="0.4"/>
<path d="M22.0025 43.8303C26.3318 42.8279 30.363 41.9501 28.4115 38.2512C22.4698 27.0107 26.8361 21 33.1098 21C39.5075 21 43.7666 27.2414 37.8098 38.2512C35.7989 41.9706 39.982 42.8429 44.2188 43.8303C48.5464 44.8328 48.2128 44.2674 48.2128 48.422H18.0032C18.007 44.2672 17.6733 44.8327 22.0027 43.8303H22.0025Z" fill="#001035"/>
<path d="M58.94 43.8303C63.2693 42.8279 67.3005 41.9501 65.349 38.2512C59.4073 27.0107 63.7736 21 70.0473 21C76.445 21 80.7041 27.2414 74.7473 38.2512C72.7364 41.9706 76.9195 42.8429 81.1563 43.8303C85.4839 44.8328 85.1503 44.2674 85.1503 48.422H54.9407C54.9445 44.2672 54.6108 44.8327 58.9402 43.8303H58.94Z" fill="#001035"/>
<path d="M39.354 77.4085C43.6834 76.406 47.7146 75.5283 45.7631 71.8293C39.8214 60.5889 44.1877 54.5781 50.4613 54.5781C56.8591 54.5781 61.1182 60.8196 55.1614 71.8293C53.1504 75.5487 57.3335 76.421 61.5704 77.4085C65.898 78.4109 65.5644 77.8455 65.5644 82.0001H35.3548C35.3585 77.8453 35.0249 78.4108 39.3543 77.4085H39.354Z" fill="#001035"/>
<path d="M41.2213 27.314C43.968 26.1315 46.9952 25.4766 50.1754 25.4766C54.2461 25.4766 58.0662 26.5497 61.3681 28.4285M72.7571 50.1004C71.986 59.1094 65.9449 66.6138 57.7305 69.5171M27.5938 50.1004C28.3736 59.2114 34.5434 66.7835 42.9002 69.614" stroke="#8E69FF" stroke-width="2" stroke-dasharray="2.2 2"/>
</svg>
