<svg width="101" height="100" viewBox="0 0 101 100" fill="none" xmlns="http://www.w3.org/2000/svg">
<circle cx="50.5" cy="50" r="50" fill="#E83643" fill-opacity="0.35"/>
<path d="M21.5025 43.8303C25.8318 42.8279 29.863 41.9501 27.9115 38.2512C21.9698 27.0107 26.3361 21 32.6098 21C39.0075 21 43.2666 27.2414 37.3098 38.2512C35.2989 41.9706 39.482 42.8429 43.7188 43.8303C48.0464 44.8328 47.7128 44.2674 47.7128 48.422H17.5032C17.507 44.2672 17.1733 44.8327 21.5027 43.8303H21.5025Z" fill="#001035"/>
<path d="M58.44 43.8303C62.7693 42.8279 66.8005 41.9501 64.849 38.2512C58.9073 27.0107 63.2736 21 69.5473 21C75.945 21 80.2041 27.2414 74.2473 38.2512C72.2364 41.9706 76.4195 42.8429 80.6563 43.8303C84.9839 44.8328 84.6503 44.2674 84.6503 48.422H54.4407C54.4445 44.2672 54.1108 44.8327 58.4402 43.8303H58.44Z" fill="#001035"/>
<path d="M38.854 77.4085C43.1834 76.406 47.2146 75.5283 45.2631 71.8293C39.3214 60.5889 43.6877 54.5781 49.9613 54.5781C56.3591 54.5781 60.6182 60.8196 54.6614 71.8293C52.6504 75.5487 56.8335 76.421 61.0704 77.4085C65.398 78.4109 65.0644 77.8455 65.0644 82.0001H34.8548C34.8585 77.8453 34.5249 78.4108 38.8543 77.4085H38.854Z" fill="#001035"/>
<path d="M40.7213 27.314C43.468 26.1315 46.4952 25.4766 49.6754 25.4766C53.7461 25.4766 57.5662 26.5497 60.8681 28.4285M72.2571 50.1004C71.486 59.1094 65.4449 66.6138 57.2305 69.5171M27.0938 50.1004C27.8736 59.2114 34.0434 66.7835 42.4002 69.614" stroke="#E83643" stroke-width="2" stroke-dasharray="2.2 2"/>
</svg>
