<svg width="100" height="100" viewBox="0 0 100 100" fill="none" xmlns="http://www.w3.org/2000/svg">
<circle cx="50" cy="50" r="49.7222" fill="#63AEF7" fill-opacity="0.45" stroke="#63AEF7" stroke-width="0.555556"/>
<path d="M32.1094 21.3379C29.0854 21.338 26.5686 22.7785 25.4951 25.5332C24.4467 28.2237 24.7408 32.2528 27.4414 37.5742L27.71 38.0938C28.2209 39.0622 28.3703 39.9021 28.168 40.6328C27.9657 41.3632 27.4326 41.9106 26.7402 42.3389C26.0491 42.7663 25.1658 43.0961 24.2002 43.3799C23.7162 43.5221 23.2052 43.6541 22.6807 43.7822L21.0791 44.1592C19.9772 44.4143 19.2115 44.5613 18.6387 44.7129C18.0636 44.8651 17.7876 44.9997 17.6309 45.1719C17.4827 45.3347 17.3942 45.5849 17.3584 46.1152C17.3265 46.5883 17.3374 47.21 17.3398 48.084H46.877C46.8802 47.2099 46.8918 46.5884 46.8604 46.1152C46.8251 45.5846 46.7368 45.3336 46.5889 45.1709C46.4325 44.999 46.1566 44.8651 45.582 44.7129C45.2957 44.6371 44.9612 44.5622 44.5605 44.4746L43.1426 44.1592C42.0875 43.9133 41.0203 43.6716 40.0527 43.3896C39.0872 43.1083 38.1963 42.78 37.4961 42.3535C36.7952 41.9266 36.2498 41.3791 36.042 40.6455C35.8599 40.0023 35.9539 39.2747 36.333 38.4502L36.5127 38.0908C39.468 32.6287 39.8476 28.4237 38.7773 25.6172C37.7154 22.8326 35.1921 21.3379 32.1094 21.3379Z" fill="#001035" stroke="#63AEF7" stroke-width="0.675695"/>
<path d="M69.0469 21.3379C66.0229 21.338 63.5061 22.7785 62.4326 25.5332C61.3842 28.2237 61.6783 32.2528 64.3789 37.5742L64.6475 38.0938C65.1584 39.0622 65.3078 39.9021 65.1055 40.6328C64.9032 41.3632 64.3701 41.9106 63.6777 42.3389C62.9866 42.7663 62.1033 43.0961 61.1377 43.3799C60.6537 43.5221 60.1427 43.6541 59.6182 43.7822L58.0166 44.1592C56.9147 44.4143 56.149 44.5613 55.5762 44.7129C55.0011 44.8651 54.7251 44.9997 54.5684 45.1719C54.4202 45.3347 54.3317 45.5849 54.2959 46.1152C54.264 46.5883 54.2749 47.21 54.2773 48.084H83.8145C83.8177 47.2099 83.8293 46.5884 83.7979 46.1152C83.7626 45.5846 83.6743 45.3336 83.5264 45.1709C83.37 44.999 83.0941 44.8651 82.5195 44.7129C82.2332 44.6371 81.8987 44.5622 81.498 44.4746L80.0801 44.1592C79.025 43.9133 77.9578 43.6716 76.9902 43.3896C76.0247 43.1083 75.1338 42.78 74.4336 42.3535C73.7327 41.9266 73.1873 41.3791 72.9795 40.6455C72.7974 40.0023 72.8914 39.2747 73.2705 38.4502L73.4502 38.0908C76.4055 32.6287 76.7851 28.4237 75.7148 25.6172C74.6529 22.8326 72.1296 21.3379 69.0469 21.3379Z" fill="#001035" stroke="#63AEF7" stroke-width="0.675695"/>
<path d="M49.4609 54.9163C46.437 54.9164 43.9202 56.3568 42.8467 59.1116C41.7983 61.802 42.0924 65.8312 44.793 71.1526L45.0615 71.6721C45.5725 72.6406 45.7219 73.4804 45.5195 74.2112C45.3172 74.9416 44.7841 75.489 44.0918 75.9172C43.4007 76.3447 42.5174 76.6744 41.5518 76.9583C41.0678 77.1005 40.5568 77.2325 40.0322 77.3606L38.4307 77.7375C37.3288 77.9927 36.5631 78.1397 35.9902 78.2913C35.4152 78.4435 35.1392 78.5781 34.9824 78.7502C34.8342 78.9131 34.7458 79.1633 34.71 79.6936C34.678 80.1667 34.689 80.7884 34.6914 81.6624H64.2285C64.2317 80.7883 64.2433 80.1668 64.2119 79.6936C64.1767 79.1629 64.0884 78.912 63.9404 78.7493C63.784 78.5773 63.5082 78.4434 62.9336 78.2913C62.6473 78.2154 62.3128 78.1405 61.9121 78.053L60.4941 77.7375C59.4391 77.4916 58.3719 77.25 57.4043 76.968C56.4387 76.6866 55.5479 76.3583 54.8477 75.9319C54.1468 75.505 53.6013 74.9575 53.3936 74.2239C53.2115 73.5806 53.3055 72.853 53.6846 72.0286L53.8643 71.6692C56.8195 66.2071 57.1992 62.0021 56.1289 59.1956C55.067 56.411 52.5436 54.9163 49.4609 54.9163Z" fill="#001035" stroke="#63AEF7" stroke-width="0.675695"/>
<path d="M40.2291 27.3142C42.9758 26.1318 46.003 25.4768 49.1832 25.4768C53.2539 25.4768 57.074 26.5499 60.3759 28.4287M71.7649 50.1007C70.9938 59.1096 64.9527 66.614 56.7383 69.5174M26.6016 50.1007C27.3814 59.2116 33.5512 66.7837 41.908 69.6142" stroke="#63AEF7" stroke-width="2" stroke-dasharray="2.2 2"/>
</svg>
