<svg fill="none" height="20" viewBox="0 0 140 20" width="140" xmlns="http://www.w3.org/2000/svg">
<g clip-path="url(#clip0_1043_2675)">
<path d="M14.5551 3.44671C14.5341 3.61473 14.4673 3.68787 14.3108 3.68787H9.07285V19.7114C9.07285 19.8814 9.00603 20 8.80751 20H5.61589C5.46318 20 5.39446 19.9031 5.39446 19.7114V3.68787H0.221429C0.0878079 3.68787 0 3.59101 0 3.42299V1.59252C0 1.39879 0.0439037 1.35135 0.244335 1.35135H14.7155C14.8052 1.35135 14.9159 1.39879 14.9159 1.51938C14.9159 1.5431 14.9159 1.56682 14.9159 1.56682L14.5551 3.44671Z" fill="white"></path>
<path d="M19.8992 20C15.7801 20 13.3457 17.6248 13.3457 12.946C13.3457 7.85637 15.9366 5.67567 19.8992 5.67567C23.8618 5.67567 26.4298 7.80875 26.4298 12.946C26.4298 17.601 24.0183 20 19.8992 20ZM19.8992 7.85637C17.7967 7.85637 17.0431 9.2136 17.0431 12.9222C17.0431 16.4363 17.8616 17.7459 19.8992 17.7459C21.9807 17.7459 22.7324 16.3887 22.7324 12.9222C22.7324 9.18979 21.9807 7.85637 19.8992 7.85637Z" fill="white"></path>
<path d="M41.3686 19.3711C39.7622 19.6131 37.4712 20 35.6904 20C31.7058 20 29.5703 18.5954 29.5703 14.2566V6.18798C29.5703 6.01737 29.6367 5.94595 29.7922 5.94595H33.003C33.1585 5.94595 33.223 6.04316 33.223 6.16418V14.451C33.223 16.7781 34.0802 17.5538 36.1057 17.5538C36.6785 17.5538 37.2285 17.5042 37.7557 17.407C37.8866 17.3832 37.9529 17.286 37.9529 17.165V6.16418C37.9529 6.01737 38.0193 5.94595 38.1957 5.94595H41.3875C41.5184 5.94595 41.6075 6.01935 41.6075 6.18798V19.0318C41.6113 19.2501 41.545 19.3235 41.3686 19.3711Z" fill="white"></path>
<path d="M55.2364 19.735C54.1605 19.8082 52.9976 20 51.7704 20C47.3381 20 44.7476 18.0424 44.7476 12.6816C44.7476 7.27144 47.5347 5.67567 51.6172 5.67567C52.7801 5.67567 53.9203 5.822 54.8639 5.91692C55.0397 5.94065 55.104 5.99008 55.104 6.18189L54.8847 7.82511C54.8412 7.99517 54.7977 8.06636 54.6218 8.06636L52.47 8.04263C49.7282 8.04263 48.4764 9.1302 48.4764 12.5828C48.4764 15.8692 49.4427 17.4867 52.2072 17.4867H55.2364C55.433 17.4867 55.4765 17.5342 55.4765 17.7042V19.4681C55.4765 19.6381 55.433 19.6876 55.2364 19.735Z" fill="white"></path>
<path d="M70.3923 19.7581C70.3923 19.9266 70.3489 20 70.1958 20H66.9728C66.8197 20 66.7536 19.9266 66.7536 19.7581V11.4742C66.7536 9.05125 65.9205 8.30177 63.7724 8.30177H61.9303C61.7981 8.30177 61.732 8.39893 61.732 8.56944C61.732 8.56944 61.732 19.4924 61.732 19.7581C61.732 19.9266 61.6677 20 61.5147 20H58.2916C58.1367 20 58.0933 19.9266 58.0933 19.7581C58.0933 14.1648 58.0933 0.749479 58.0933 0.483791C58.0933 0.315257 58.1594 0.265688 58.2916 0.241895L61.492 0C61.6451 0 61.732 0.0475855 61.732 0.241895V6.00178C61.732 6.12273 61.7754 6.19609 61.9303 6.19609C61.953 6.19609 61.9738 6.19609 61.9965 6.19609C61.9965 6.19609 63.8366 5.97799 64.7359 5.97799C68.5295 5.97799 70.3923 7.72281 70.3923 11.7914V19.7581Z" fill="white"></path>
<path d="M84.5824 3.41372C84.5593 3.57878 84.4936 3.65063 84.3354 3.65063H79.0386V19.7165C79.0386 19.8835 78.9711 20 78.7704 20H75.5461C75.3898 20 75.3222 19.9048 75.3222 19.7165V3.65063H70.091C69.956 3.65063 69.8691 3.55548 69.8691 3.38847V1.59021C69.8691 1.3999 69.9135 1.35135 70.1161 1.35135H84.5843C84.6731 1.35135 84.785 1.3999 84.785 1.51836C84.785 1.54166 84.785 1.56497 84.785 1.56497L84.5824 3.41372Z" fill="white"></path>
<path d="M95.2694 19.3711C93.6635 19.6131 91.3751 20 89.5929 20C85.6114 20 83.4766 18.5954 83.4766 14.2566V6.18798C83.4766 6.01737 83.5429 5.94595 83.6965 5.94595H86.9101C87.0637 5.94595 87.1301 6.04316 87.1301 6.16418V14.451C87.1301 16.7781 87.987 17.5538 90.0119 17.5538C90.5845 17.5538 91.1343 17.5042 91.6633 17.407C91.796 17.3832 91.8623 17.286 91.8623 17.165V6.16418C91.8623 6.01737 91.9287 5.94595 92.105 5.94595H95.294C95.4248 5.94595 95.5139 6.01935 95.5139 6.18798V19.0318C95.512 19.2501 95.4457 19.3235 95.2694 19.3711Z" fill="white"></path>
<path d="M111.538 20H108.311C108.158 20 108.092 19.9265 108.092 19.7576V11.4333C108.092 9.20019 107.322 8.3022 105.302 8.3022H103.281C103.149 8.3022 103.084 8.35186 103.084 8.54656V19.7576C103.084 19.9265 103.041 20 102.865 20H99.659C99.5038 20 99.4395 19.9265 99.4395 19.7576V6.89361C99.4395 6.69891 99.5038 6.60156 99.6363 6.60156C101.459 6.3115 103.896 5.94595 105.896 5.94595C110.026 5.94595 111.738 7.79161 111.738 11.8684V19.7556C111.737 19.9265 111.693 20 111.538 20Z" fill="white"></path>
<path d="M127.217 13.9847H119.066C118.932 13.9847 118.866 14.0085 118.866 14.2022C118.866 16.763 120.158 17.5599 122.764 17.5599C123.587 17.5599 124.727 17.463 125.817 17.3424C125.841 17.3424 125.862 17.3424 125.885 17.3424C125.973 17.3424 126.04 17.3661 126.04 17.5362C126.04 17.5362 126.04 17.5599 126.04 17.5856L125.817 19.4443C125.773 19.6381 125.706 19.6381 125.572 19.6856C124.457 19.8794 122.518 20 121.693 20C117.73 20 114.878 18.4299 114.878 12.826C114.878 7.99517 117.306 5.67567 121.225 5.67567C126.08 5.67567 127.439 8.45393 127.439 13.7198C127.439 13.9116 127.351 13.9847 127.217 13.9847ZM121.202 7.96946C119.175 7.96946 118.753 9.61269 118.753 11.5683C118.753 11.7859 118.797 11.8353 118.955 11.8353H123.386C123.541 11.8353 123.632 11.8096 123.632 11.594C123.632 9.58896 123.275 7.96946 121.202 7.96946Z" fill="white"></path>
<path d="M133.999 20C132.625 20 131.253 19.8316 130.3 19.6652C130.123 19.6182 130.056 19.5458 130.056 19.4029V17.6567C130.056 17.5137 130.121 17.4413 130.321 17.4413C130.898 17.4903 132.337 17.6097 133.49 17.6097C135.215 17.6097 136.301 17.2514 136.301 15.9828C136.301 13.1364 130.077 13.9273 130.077 9.5969C130.077 6.77589 132.648 5.67567 135.637 5.67567C136.944 5.67567 138.361 5.89102 139.424 6.12986C139.557 6.15335 139.689 6.22578 139.689 6.36869L139.424 7.97203C139.401 8.09145 139.357 8.16193 139.246 8.16193C139.246 8.16193 139.223 8.16193 139.202 8.16193C138.448 8.11494 137.143 7.99552 136.368 7.99552C134.818 7.99552 133.797 8.21087 133.797 9.4305C133.797 11.9422 140 11.0554 140 15.5287C140 18.3007 138.007 20 133.999 20Z" fill="white"></path>
</g>
<defs>
<clipPath>
<rect fill="white" height="20" width="140"></rect>
</clipPath>
</defs>
</svg>