<svg width="65" height="66" viewBox="0 0 65 66" fill="none" xmlns="http://www.w3.org/2000/svg">
<path d="M20.2902 5.87988C12.3459 5.87988 5.88281 12.343 5.88281 20.2873C5.88281 28.2315 12.3459 34.6946 20.2902 34.6946C28.2345 34.6946 34.6976 28.2315 34.6976 20.2873C34.6983 12.343 28.2345 5.87988 20.2902 5.87988ZM30.0353 15.1524H26.1642C25.9207 13.5685 25.5645 12.1065 25.1053 10.8427C25.0336 10.645 24.9601 10.4576 24.8854 10.2751C27.0906 11.2912 28.9041 13.0142 30.0351 15.1524H30.0353ZM18.6239 12.1042C19.3852 9.95509 20.1668 9.45429 20.2903 9.44451C20.4138 9.45411 21.1949 9.95432 21.9561 12.1034C22.2761 13.0069 22.5353 14.0361 22.7306 15.1524H17.8508C18.0448 14.0369 18.3039 13.0069 18.6239 12.1041V12.1042ZM9.62231 23.0469C9.39386 22.1645 9.27219 21.24 9.27219 20.2872C9.27219 19.6936 9.31984 19.1109 9.41081 18.5424H14.081C14.0533 19.1174 14.0382 19.6996 14.0382 20.2872C14.0382 21.2244 14.075 22.147 14.1448 23.0469H9.62231ZM11.1525 26.4369H14.5908C14.8192 27.6321 15.1151 28.7433 15.4748 29.7325C15.5466 29.9302 15.62 30.1176 15.6948 30.3001C13.85 29.4498 12.279 28.1052 11.1525 26.4369ZM15.4748 10.8425C15.0157 12.1063 14.6588 13.5677 14.416 15.1523H10.5449C11.6761 13.0139 13.4902 11.291 15.6947 10.2749C15.6201 10.4576 15.5465 10.645 15.4747 10.8427L15.4748 10.8425ZM21.9553 28.4706C21.1935 30.6211 20.4114 31.1205 20.2895 31.1295C20.167 31.1205 19.3843 30.6203 18.6231 28.4693C18.4031 27.8474 18.2121 27.1639 18.05 26.4358H22.5284C22.367 27.1652 22.1759 27.8487 21.9553 28.4706V28.4706ZM23.0352 23.0465H17.5441C17.4676 22.1546 17.4277 21.23 17.4277 20.2868C17.4277 19.6968 17.4433 19.1141 17.4735 18.542H23.1054C23.1355 19.114 23.1511 19.6973 23.1511 20.2868C23.1513 21.23 23.1116 22.1546 23.0349 23.0465H23.0352ZM24.8849 30.2994C24.9591 30.1174 25.0325 29.9293 25.1048 29.7318C25.464 28.7428 25.7599 27.632 25.9889 26.4362H29.4272C28.3009 28.1051 26.7296 29.4496 24.8849 30.2994ZM26.435 23.0465C26.5049 22.1474 26.5416 21.224 26.5416 20.2868C26.5416 19.6987 26.5266 19.1165 26.4989 18.542H31.1691C31.26 19.1104 31.3077 19.6932 31.3077 20.2868C31.3077 21.2396 31.186 22.1642 30.9576 23.0465H26.435ZM51.7736 48.7187C51.9303 50.0103 51.5801 51.1932 50.7616 52.1394C49.9836 53.0385 48.786 53.6834 47.4102 53.9745V54.391C47.4102 55.327 46.6514 56.0856 45.7155 56.0856C44.7795 56.0856 44.0209 55.3268 44.0209 54.391V53.945C41.8477 53.4182 40.192 51.8989 39.6714 49.8117C39.4449 48.9036 39.9975 47.9837 40.9064 47.7572C41.8139 47.5306 42.7349 48.0832 42.9609 48.9921C43.2965 50.3379 44.7328 50.7815 45.8549 50.7573C46.8451 50.7338 47.787 50.3982 48.1987 49.9227C48.3319 49.769 48.4609 49.5539 48.4096 49.1277C48.3614 48.7288 48.2481 47.7947 45.4546 47.3366C40.9447 46.5959 40.152 44.0321 40.0812 42.5695C39.9655 40.19 41.5385 38.1891 44.0216 37.5113V37.0346C44.0216 36.0986 44.7804 35.34 45.7162 35.34C46.6522 35.34 47.4108 36.0988 47.4108 37.0346V37.4962C49.0134 37.9162 50.5141 38.9794 51.3162 40.8904C51.6784 41.7534 51.2729 42.7472 50.4097 43.1094C49.546 43.4716 48.5529 43.0661 48.1908 42.2029C47.5344 40.6395 45.9085 40.5516 45.0514 40.7463C44.6651 40.8337 43.4091 41.2128 43.4669 42.4048C43.4826 42.7272 43.5242 43.5836 46.0036 43.9909C49.5214 44.5682 51.4629 46.1587 51.7734 48.7188L51.7736 48.7187ZM45.7154 31.3042C37.7712 31.3042 31.3081 37.7673 31.3081 45.7115C31.3081 53.6568 37.7712 60.1199 45.7154 60.1199C53.6597 60.1199 60.1228 53.6568 60.1228 45.7125C60.1228 37.7678 53.6597 31.3042 45.7154 31.3042ZM45.7154 56.7299C39.6404 56.7299 34.698 51.7875 34.698 45.7125C34.698 39.6375 39.6404 34.6951 45.7154 34.6951C51.7904 34.6951 56.7329 39.6375 56.7329 45.7125C56.7329 51.7875 51.7904 56.7299 45.7154 56.7299ZM30.4696 50.1289C30.4696 51.065 29.7108 51.8236 28.775 51.8236L21.2126 51.8238C17.3338 51.8238 14.1781 48.6682 14.1781 44.7893V43.2753L12.8745 44.8675C12.5394 45.2767 12.0524 45.4888 11.5617 45.4888C11.1839 45.4888 10.8042 45.3634 10.489 45.1055C9.76464 44.5124 9.65837 43.4446 10.2515 42.72L14.5617 37.4555C14.8836 37.0626 15.3652 36.8342 15.8731 36.8342C16.3812 36.8342 16.8626 37.0626 17.1845 37.4555L21.4942 42.72C22.0873 43.4444 21.9805 44.5124 21.2561 45.1055C20.5318 45.6986 19.4637 45.5918 18.8707 44.8675L17.5678 43.2758V44.7896C17.5678 46.799 19.2029 48.434 21.2121 48.434H28.774C29.7112 48.4336 30.4698 49.1924 30.4698 50.1288L30.4696 50.1289ZM36.614 15.8703C36.614 14.9343 37.3728 14.1757 38.3087 14.1757H44.7925C48.6713 14.1757 51.827 17.3312 51.827 21.2101V23.4858L53.1299 21.8941C53.723 21.1698 54.7908 21.063 55.5154 21.6561C56.2397 22.2492 56.3465 23.317 55.7534 24.0416L51.4437 29.3061C51.1218 29.6997 50.6403 29.9274 50.1323 29.9274C49.6242 29.9274 49.1428 29.6995 48.8209 29.3061L44.5107 24.0416C43.9176 23.3173 44.0244 22.2492 44.7482 21.6561C45.4725 21.063 46.5406 21.1698 47.1337 21.8936L48.4373 23.4858V21.2095C48.4373 19.2001 46.8022 17.5652 44.793 17.5652L38.3096 17.565C37.373 17.5656 36.6142 16.8067 36.6142 15.8704L36.614 15.8703Z" fill="#E2CB71"/>
</svg>
