<svg width="56" height="56" viewBox="0 0 56 56" fill="none" xmlns="http://www.w3.org/2000/svg">
<path d="M15.2902 0.879883C7.34593 0.879883 0.882812 7.343 0.882812 15.2873C0.882812 23.2315 7.34593 29.6946 15.2902 29.6946C23.2345 29.6946 29.6976 23.2315 29.6976 15.2873C29.6983 7.343 23.2345 0.879883 15.2902 0.879883ZM25.0353 10.1524H21.1642C20.9207 8.56851 20.5645 7.10646 20.1053 5.84272C20.0336 5.64496 19.9601 5.45757 19.8854 5.27509C22.0906 6.29116 23.9041 8.01424 25.0351 10.1524H25.0353ZM13.6239 7.1042C14.3852 4.95509 15.1668 4.45429 15.2903 4.44451C15.4138 4.45411 16.1949 4.95432 16.9561 7.10342C17.2761 8.00686 17.5353 9.03614 17.7306 10.1524H12.8508C13.0448 9.03686 13.3039 8.00686 13.6239 7.10415V7.1042ZM4.62231 18.0469C4.39386 17.1645 4.27219 16.24 4.27219 15.2872C4.27219 14.6936 4.31984 14.1109 4.41081 13.5424H9.08098C9.0533 14.1174 9.03823 14.6996 9.03823 15.2872C9.03823 16.2244 9.07496 17.147 9.14483 18.0469H4.62231ZM6.15253 21.4369H9.59079C9.81924 22.6321 10.1151 23.7433 10.4748 24.7325C10.5466 24.9302 10.62 25.1176 10.6948 25.3001C8.85005 24.4498 7.27896 23.1052 6.15253 21.4369ZM10.4748 5.84253C10.0157 7.10627 9.65877 8.56774 9.41601 10.1523H5.54494C6.67609 8.01385 8.49015 6.29097 10.6947 5.2749C10.6201 5.45759 10.5465 5.64498 10.4747 5.84272L10.4748 5.84253ZM16.9553 23.4706C16.1935 25.6211 15.4114 26.1205 15.2895 26.1295C15.167 26.1205 14.3843 25.6203 13.6231 23.4693C13.4031 22.8474 13.2121 22.1639 13.05 21.4358H17.5284C17.367 22.1652 17.1759 22.8487 16.9553 23.4706V23.4706ZM18.0352 18.0465H12.5441C12.4676 17.1546 12.4277 16.23 12.4277 15.2868C12.4277 14.6968 12.4433 14.1141 12.4735 13.542H18.1054C18.1355 14.114 18.1511 14.6973 18.1511 15.2868C18.1513 16.23 18.1116 17.1546 18.0349 18.0465H18.0352ZM19.8849 25.2994C19.9591 25.1174 20.0325 24.9293 20.1048 24.7318C20.464 23.7428 20.7599 22.632 20.9889 21.4362H24.4272C23.3009 23.1051 21.7296 24.4496 19.8849 25.2994ZM21.435 18.0465C21.5049 17.1474 21.5416 16.224 21.5416 15.2868C21.5416 14.6987 21.5266 14.1165 21.4989 13.542H26.1691C26.26 14.1104 26.3077 14.6932 26.3077 15.2868C26.3077 16.2396 26.186 17.1642 25.9576 18.0465H21.435ZM46.7736 43.7187C46.9303 45.0103 46.5801 46.1932 45.7616 47.1394C44.9836 48.0385 43.786 48.6834 42.4102 48.9745V49.391C42.4102 50.327 41.6514 51.0856 40.7155 51.0856C39.7795 51.0856 39.0209 50.3268 39.0209 49.391V48.945C36.8477 48.4182 35.192 46.8989 34.6714 44.8117C34.4449 43.9036 34.9975 42.9837 35.9064 42.7572C36.8139 42.5306 37.7349 43.0832 37.9609 43.9921C38.2965 45.3379 39.7328 45.7815 40.8549 45.7573C41.8451 45.7338 42.787 45.3982 43.1987 44.9227C43.3319 44.769 43.4609 44.5539 43.4096 44.1277C43.3614 43.7288 43.2481 42.7947 40.4546 42.3366C35.9447 41.5959 35.152 39.0321 35.0812 37.5695C34.9655 35.19 36.5385 33.1891 39.0216 32.5113V32.0346C39.0216 31.0986 39.7804 30.34 40.7162 30.34C41.6522 30.34 42.4108 31.0988 42.4108 32.0346V32.4962C44.0134 32.9162 45.5141 33.9794 46.3162 35.8904C46.6784 36.7534 46.2729 37.7472 45.4097 38.1094C44.546 38.4716 43.5529 38.0661 43.1908 37.2029C42.5344 35.6395 40.9085 35.5516 40.0514 35.7463C39.6651 35.8337 38.4091 36.2128 38.4669 37.4048C38.4826 37.7272 38.5242 38.5836 41.0036 38.9909C44.5214 39.5682 46.4629 41.1587 46.7734 43.7188L46.7736 43.7187ZM40.7154 26.3042C32.7712 26.3042 26.3081 32.7673 26.3081 40.7115C26.3081 48.6568 32.7712 55.1199 40.7154 55.1199C48.6597 55.1199 55.1228 48.6568 55.1228 40.7125C55.1228 32.7678 48.6597 26.3042 40.7154 26.3042ZM40.7154 51.7299C34.6404 51.7299 29.698 46.7875 29.698 40.7125C29.698 34.6375 34.6404 29.6951 40.7154 29.6951C46.7904 29.6951 51.7329 34.6375 51.7329 40.7125C51.7329 46.7875 46.7904 51.7299 40.7154 51.7299ZM25.4696 45.1289C25.4696 46.065 24.7108 46.8236 23.775 46.8236L16.2126 46.8238C12.3338 46.8238 9.17812 43.6682 9.17812 39.7893V38.2753L7.87445 39.8675C7.5394 40.2767 7.05235 40.4888 6.56173 40.4888C6.18392 40.4888 5.80423 40.3634 5.48896 40.1055C4.76464 39.5124 4.65837 38.4446 5.25147 37.72L9.56172 32.4555C9.88359 32.0626 10.3652 31.8342 10.8731 31.8342C11.3812 31.8342 11.8626 32.0626 12.1845 32.4555L16.4942 37.72C17.0873 38.4444 16.9805 39.5124 16.2561 40.1055C15.5318 40.6986 14.4637 40.5918 13.8707 39.8675L12.5678 38.2758V39.7896C12.5678 41.799 14.2029 43.434 16.2121 43.434H23.774C24.7112 43.4336 25.4698 44.1924 25.4698 45.1288L25.4696 45.1289ZM31.614 10.8703C31.614 9.93428 32.3728 9.17567 33.3087 9.17567H39.7925C43.6713 9.17567 46.827 12.3312 46.827 16.2101V18.4858L48.1299 16.8941C48.723 16.1698 49.7908 16.063 50.5154 16.6561C51.2397 17.2492 51.3465 18.317 50.7534 19.0416L46.4437 24.3061C46.1218 24.6997 45.6403 24.9274 45.1323 24.9274C44.6242 24.9274 44.1428 24.6995 43.8209 24.3061L39.5107 19.0416C38.9176 18.3173 39.0244 17.2492 39.7482 16.6561C40.4725 16.063 41.5406 16.1698 42.1337 16.8936L43.4373 18.4858V16.2095C43.4373 14.2001 41.8022 12.5652 39.793 12.5652L33.3096 12.565C32.373 12.5656 31.6142 11.8067 31.6142 10.8704L31.614 10.8703Z" fill="#BFF300"/>
</svg>
