<svg width="65" height="65" viewBox="0 0 65 65" fill="none" xmlns="http://www.w3.org/2000/svg">
<path d="M20.2902 5.37988C12.3459 5.37988 5.88281 11.843 5.88281 19.7873C5.88281 27.7315 12.3459 34.1946 20.2902 34.1946C28.2345 34.1946 34.6976 27.7315 34.6976 19.7873C34.6983 11.843 28.2345 5.37988 20.2902 5.37988ZM30.0353 14.6524H26.1642C25.9207 13.0685 25.5645 11.6065 25.1053 10.3427C25.0336 10.145 24.9601 9.95757 24.8854 9.77509C27.0906 10.7912 28.9041 12.5142 30.0351 14.6524H30.0353ZM18.6239 11.6042C19.3852 9.45509 20.1668 8.95429 20.2903 8.94451C20.4138 8.95411 21.1949 9.45432 21.9561 11.6034C22.2761 12.5069 22.5353 13.5361 22.7306 14.6524H17.8508C18.0448 13.5369 18.3039 12.5069 18.6239 11.6041V11.6042ZM9.62231 22.5469C9.39386 21.6645 9.27219 20.74 9.27219 19.7872C9.27219 19.1936 9.31984 18.6109 9.41081 18.0424H14.081C14.0533 18.6174 14.0382 19.1996 14.0382 19.7872C14.0382 20.7244 14.075 21.647 14.1448 22.5469H9.62231ZM11.1525 25.9369H14.5908C14.8192 27.1321 15.1151 28.2433 15.4748 29.2325C15.5466 29.4302 15.62 29.6176 15.6948 29.8001C13.85 28.9498 12.279 27.6052 11.1525 25.9369ZM15.4748 10.3425C15.0157 11.6063 14.6588 13.0677 14.416 14.6523H10.5449C11.6761 12.5139 13.4902 10.791 15.6947 9.7749C15.6201 9.95759 15.5465 10.145 15.4747 10.3427L15.4748 10.3425ZM21.9553 27.9706C21.1935 30.1211 20.4114 30.6205 20.2895 30.6295C20.167 30.6205 19.3843 30.1203 18.6231 27.9693C18.4031 27.3474 18.2121 26.6639 18.05 25.9358H22.5284C22.367 26.6652 22.1759 27.3487 21.9553 27.9706V27.9706ZM23.0352 22.5465H17.5441C17.4676 21.6546 17.4277 20.73 17.4277 19.7868C17.4277 19.1968 17.4433 18.6141 17.4735 18.042H23.1054C23.1355 18.614 23.1511 19.1973 23.1511 19.7868C23.1513 20.73 23.1116 21.6546 23.0349 22.5465H23.0352ZM24.8849 29.7994C24.9591 29.6174 25.0325 29.4293 25.1048 29.2318C25.464 28.2428 25.7599 27.132 25.9889 25.9362H29.4272C28.3009 27.6051 26.7296 28.9496 24.8849 29.7994ZM26.435 22.5465C26.5049 21.6474 26.5416 20.724 26.5416 19.7868C26.5416 19.1987 26.5266 18.6165 26.4989 18.042H31.1691C31.26 18.6104 31.3077 19.1932 31.3077 19.7868C31.3077 20.7396 31.186 21.6642 30.9576 22.5465H26.435ZM51.7736 48.2187C51.9303 49.5103 51.5801 50.6932 50.7616 51.6394C49.9836 52.5385 48.786 53.1834 47.4102 53.4745V53.891C47.4102 54.827 46.6514 55.5856 45.7155 55.5856C44.7795 55.5856 44.0209 54.8268 44.0209 53.891V53.445C41.8477 52.9182 40.192 51.3989 39.6714 49.3117C39.4449 48.4036 39.9975 47.4837 40.9064 47.2572C41.8139 47.0306 42.7349 47.5832 42.9609 48.4921C43.2965 49.8379 44.7328 50.2815 45.8549 50.2573C46.8451 50.2338 47.787 49.8982 48.1987 49.4227C48.3319 49.269 48.4609 49.0539 48.4096 48.6277C48.3614 48.2288 48.2481 47.2947 45.4546 46.8366C40.9447 46.0959 40.152 43.5321 40.0812 42.0695C39.9655 39.69 41.5385 37.6891 44.0216 37.0113V36.5346C44.0216 35.5986 44.7804 34.84 45.7162 34.84C46.6522 34.84 47.4108 35.5988 47.4108 36.5346V36.9962C49.0134 37.4162 50.5141 38.4794 51.3162 40.3904C51.6784 41.2534 51.2729 42.2472 50.4097 42.6094C49.546 42.9716 48.5529 42.5661 48.1908 41.7029C47.5344 40.1395 45.9085 40.0516 45.0514 40.2463C44.6651 40.3337 43.4091 40.7128 43.4669 41.9048C43.4826 42.2272 43.5242 43.0836 46.0036 43.4909C49.5214 44.0682 51.4629 45.6587 51.7734 48.2188L51.7736 48.2187ZM45.7154 30.8042C37.7712 30.8042 31.3081 37.2673 31.3081 45.2115C31.3081 53.1568 37.7712 59.6199 45.7154 59.6199C53.6597 59.6199 60.1228 53.1568 60.1228 45.2125C60.1228 37.2678 53.6597 30.8042 45.7154 30.8042ZM45.7154 56.2299C39.6404 56.2299 34.698 51.2875 34.698 45.2125C34.698 39.1375 39.6404 34.1951 45.7154 34.1951C51.7904 34.1951 56.7329 39.1375 56.7329 45.2125C56.7329 51.2875 51.7904 56.2299 45.7154 56.2299ZM30.4696 49.6289C30.4696 50.565 29.7108 51.3236 28.775 51.3236L21.2126 51.3238C17.3338 51.3238 14.1781 48.1682 14.1781 44.2893V42.7753L12.8745 44.3675C12.5394 44.7767 12.0524 44.9888 11.5617 44.9888C11.1839 44.9888 10.8042 44.8634 10.489 44.6055C9.76464 44.0124 9.65837 42.9446 10.2515 42.22L14.5617 36.9555C14.8836 36.5626 15.3652 36.3342 15.8731 36.3342C16.3812 36.3342 16.8626 36.5626 17.1845 36.9555L21.4942 42.22C22.0873 42.9444 21.9805 44.0124 21.2561 44.6055C20.5318 45.1986 19.4637 45.0918 18.8707 44.3675L17.5678 42.7758V44.2896C17.5678 46.299 19.2029 47.934 21.2121 47.934H28.774C29.7112 47.9336 30.4698 48.6924 30.4698 49.6288L30.4696 49.6289ZM36.614 15.3703C36.614 14.4343 37.3728 13.6757 38.3087 13.6757H44.7925C48.6713 13.6757 51.827 16.8312 51.827 20.7101V22.9858L53.1299 21.3941C53.723 20.6698 54.7908 20.563 55.5154 21.1561C56.2397 21.7492 56.3465 22.817 55.7534 23.5416L51.4437 28.8061C51.1218 29.1997 50.6403 29.4274 50.1323 29.4274C49.6242 29.4274 49.1428 29.1995 48.8209 28.8061L44.5107 23.5416C43.9176 22.8173 44.0244 21.7492 44.7482 21.1561C45.4725 20.563 46.5406 20.6698 47.1337 21.3936L48.4373 22.9858V20.7095C48.4373 18.7001 46.8022 17.0652 44.793 17.0652L38.3096 17.065C37.373 17.0656 36.6142 16.3067 36.6142 15.3704L36.614 15.3703Z" fill="#D7AC5B"/>
</svg>
