<svg width="103" height="20" viewBox="0 0 103 20" fill="none" xmlns="http://www.w3.org/2000/svg">
<path d="M13.5471 19.4847V15.2572H6.56477C5.99295 15.5452 5.41415 15.9022 4.82839 16.3283C4.24262 16.7543 3.78497 17.1232 3.45545 17.435L2.52915 16.5477C3.08821 16.045 3.54262 15.5853 3.89238 15.1686C4.24214 14.752 4.55415 14.2757 4.82839 13.7398V0.515391H0V19.4847H13.5471Z" fill="white"/>
<path d="M26.0291 19.9995C31.2161 19.9995 34.2511 17.1812 34.2511 12.1679V0.515358H29.4227V11.8156C29.4227 14.4984 28.2915 15.7721 26.0291 15.7721C23.7666 15.7721 22.6078 14.5255 22.6078 11.8156V0.515358H17.7794V12.1679C17.7794 17.1812 20.842 19.9995 26.0291 19.9995Z" fill="white"/>
<path d="M48.5828 19.9995C53.2457 19.9724 56.9152 17.3438 57.7154 12.9267L53.1353 11.8156C52.5559 14.39 50.8729 15.7721 48.5001 15.7721C45.4099 15.7721 43.2854 13.4416 43.2854 10C43.2854 6.55843 45.4099 4.22791 48.5001 4.22791C50.7901 4.22791 52.3904 5.50157 53.0249 7.80498L57.5498 6.58552C56.6945 2.60197 53.1077 0.0275643 48.5828 0.000465315C42.2094 -0.0537327 38.4019 4.6344 38.4019 10C38.4019 15.3656 42.2094 20.0537 48.5828 19.9995Z" fill="white"/>
<path d="M72.7875 0.515391C76.5122 0.515391 78.6367 2.49362 78.6367 5.6642C78.6367 9.18707 76.5398 10.8401 72.7599 11.084V12.439C75.0223 12.7099 75.9604 13.008 77.0916 15.6908L77.8642 17.5336C78.1952 18.2652 78.4436 18.7801 78.9678 19.0782V19.4847H73.56C73.2013 19.1866 73.0634 18.8614 72.9806 18.5633L71.7942 15.6637C71.0216 13.7397 70.525 13.1977 68.7868 13.1977H67.3797V19.4847H62.5513V0.515391H72.7875ZM71.6286 4.63444H67.3797V9.07867H71.6286C72.953 9.07867 73.8083 8.2657 73.8083 6.82946C73.8083 5.36611 73.0634 4.63444 71.6286 4.63444Z" fill="white"/>
<path d="M95.6885 0.515332L103 19.4846H97.7853L94.7228 10.4065C94.1434 8.64503 93.7847 6.93779 93.6467 5.39315H91.9913C91.8809 6.6668 91.6326 8.29274 90.9153 10.4065L87.8251 19.4846H82.638L89.9772 0.515332H95.6885Z" fill="white"/>
</svg>
