<svg width="292" height="70" viewBox="0 0 292 70" fill="none" xmlns="http://www.w3.org/2000/svg">
<mask id="path-1-inside-1_11_1333" fill="white">
<path d="M111.191 68.9465V60.3038H97.0849C95.9297 60.8926 94.7603 61.6225 93.5769 62.4935C92.3935 63.3645 91.4689 64.1186 90.8032 64.756L88.9318 62.942C90.0612 61.9144 90.9793 60.9746 91.6859 60.1227C92.3925 59.2708 93.0229 58.2971 93.5769 57.2015V30.1654H83.8221V68.9465H111.191Z"/>
<path d="M136.409 69.9991C146.888 69.9991 153.02 64.2373 153.02 53.988V30.1653H143.265V53.2678C143.265 58.7525 140.98 61.3564 136.409 61.3564C131.838 61.3564 129.497 58.8079 129.497 53.2678V30.1653H119.742V53.988C119.742 64.2373 125.929 69.9991 136.409 69.9991Z"/>
<path d="M181.974 69.999C191.395 69.9436 198.808 64.5697 200.425 55.5392L191.172 53.2678C190.001 58.5309 186.601 61.3564 181.807 61.3564C175.564 61.3564 171.272 56.5919 171.272 49.5559C171.272 42.5198 175.564 37.7553 181.807 37.7553C186.434 37.7553 189.667 40.3592 190.949 45.0683L200.09 42.5752C198.362 34.4312 191.116 29.1681 181.974 29.1127C169.098 29.0018 161.406 38.5863 161.406 49.5559C161.406 60.5254 169.098 70.1099 181.974 69.999Z"/>
<path d="M230.875 30.1654C238.4 30.1654 242.692 34.2097 242.692 40.6917C242.692 47.8939 238.456 51.2734 230.819 51.772V54.5421C235.39 55.0961 237.285 55.7055 239.571 61.1903L241.131 64.9576C241.8 66.4534 242.302 67.5061 243.361 68.1155V68.9465H232.436C231.711 68.3371 231.432 67.6723 231.265 67.0629L228.868 61.1349C227.308 57.2014 226.304 56.0933 222.792 56.0933H219.95V68.9465H210.195V30.1654H230.875ZM228.534 38.5864H219.95V47.6723H228.534C231.209 47.6723 232.937 46.0102 232.937 43.0739C232.937 40.0823 231.432 38.5864 228.534 38.5864Z"/>
<path d="M277.142 30.1652L291.914 68.9464H281.378L275.191 50.3868C274.021 46.7857 273.296 43.2954 273.017 40.1375H269.673C269.45 42.7414 268.948 46.0655 267.499 50.3868L261.256 68.9464H250.776L265.603 30.1652H277.142Z"/>
<path d="M83.8275 0.571887H94.551C98.9609 0.571887 102.07 3.36754 102.07 8.06933C102.07 12.8347 98.9609 15.5668 94.551 15.5668H88.8085V22.8101H83.8275V0.571887ZM88.8085 11.2462H94.1068C95.7883 11.2462 97.0574 10.1343 97.0574 8.03756C97.0574 5.87728 95.9469 4.89245 94.1385 4.89245H88.8085V11.2462Z"/>
<path d="M104.226 11.691C104.226 4.92422 109.143 4.69929e-05 115.774 4.69929e-05C122.405 4.69929e-05 127.322 4.92422 127.322 11.691C127.322 18.4577 122.405 23.3819 115.774 23.3819C109.143 23.3819 104.226 18.4577 104.226 11.691ZM109.27 11.691C109.27 16.0115 111.935 18.966 115.774 18.966C119.867 18.966 122.278 15.8527 122.278 11.691C122.278 7.43395 119.803 4.41591 115.774 4.41591C111.777 4.41591 109.27 7.37042 109.27 11.691Z"/>
<path d="M133.29 22.8101L128.246 0.571887H133.386L135.099 9.27655C135.606 11.9134 135.511 14.9632 135.48 16.8693H137.351C137.51 14.5502 137.891 12.1993 138.684 9.5307L141.412 0.571887H145.41L148.202 9.72131C148.932 12.104 149.312 14.4866 149.534 16.8693H151.374C151.343 14.8996 151.216 11.8816 151.692 9.43539L153.468 0.571887H158.576L153.564 22.8101H148.011L145.315 13.883C144.458 10.9285 144.046 8.06933 144.046 6.0679H142.745C142.745 8.03756 142.364 10.7061 141.444 13.9148L138.779 22.8101H133.29Z"/>
<path d="M165.893 13.5653V18.3942H176.934V22.8101H160.912V0.571887H176.902V4.98775H165.893V9.46716H175.951V13.5653H165.893Z"/>
<path d="M196.335 18.2036L197.287 20.4909C197.668 21.3805 197.985 22.0158 198.588 22.3653V22.8101H193.004C192.592 22.4606 192.401 22.0476 192.274 21.6029L190.878 18.1718C189.927 15.7892 189.229 15.122 187.103 15.122H185.041V22.8101H180.06V0.571887H191.481C195.764 0.571887 198.175 2.89101 198.175 6.63973C198.175 10.7061 195.764 12.6758 191.576 12.93V14.3913C194.019 14.709 195.066 15.1855 196.335 18.2036ZM185.041 10.8015H190.339C192.116 10.8015 193.226 9.72131 193.226 7.81518C193.226 5.87728 192.243 4.89245 190.307 4.89245H185.041V10.8015Z"/>
<path d="M206.171 13.5653V18.3942H217.212V22.8101H201.19V0.571887H217.18V4.98775H206.171V9.46716H216.228V13.5653H206.171Z"/>
<path d="M220.337 0.571887H229.696C235.756 0.571887 239.785 4.54299 239.785 11.691C239.785 18.9343 235.915 22.8101 229.601 22.8101H220.337V0.571887ZM225.318 18.3942H229.284C232.552 18.3942 234.804 16.774 234.804 11.691C234.804 7.1798 232.901 4.98775 229.284 4.98775H225.318V18.3942Z"/>
<path d="M264.678 10.452V11.691C267.629 11.9769 269.405 13.883 269.405 16.9011C269.405 20.7133 266.423 22.8101 261.823 22.8101H251.258V0.571887H262.616C266.518 0.571887 268.707 2.63686 268.707 5.78198C268.707 8.29171 267.343 10.039 264.678 10.452ZM261.093 4.86068H256.144V9.37185H261.093C263.028 9.37185 263.758 8.6094 263.758 7.0845C263.758 5.6549 263.028 4.86068 261.093 4.86068ZM256.144 18.5213H261.537C263.694 18.5213 264.488 17.6635 264.488 15.8845C264.488 14.1054 263.631 13.2477 261.537 13.2477H256.144V18.5213Z"/>
<path d="M278.58 14.3596L270.141 0.571887H275.915L277.691 3.93938C278.516 5.59136 279.976 8.29171 280.166 10.5791H282.07C282.26 8.32348 283.402 6.06789 284.481 3.90761L286.226 0.571887H292L283.593 14.3596V22.8101H278.58V14.3596Z"/>
<path fill-rule="evenodd" clip-rule="evenodd" d="M69.9062 35C69.9062 54.33 54.2572 70 34.9531 70C15.649 70 0 54.33 0 35C0 15.67 15.649 0 34.9531 0C54.2572 0 69.9062 15.67 69.9062 35ZM31.6946 63.0061L37.3878 45.8987H17.8544L29.4339 7.34859C16.5269 9.91733 6.79801 21.321 6.79801 35C6.79801 49.4669 17.6799 61.3888 31.6946 63.0061ZM35.0433 63.1927L54.723 32.9169H39.1218C39.1218 32.9169 36.6492 33.1574 32.0549 36.5032L30.8019 34.8303C34.9786 32.321 36.8522 29.6156 36.8522 29.6156L43.2063 8.03778C54.7289 11.57 63.1082 22.3051 63.1082 35C63.1082 50.5404 50.5514 63.1441 35.0433 63.1927Z"/>
</mask>
<path d="M111.191 68.9465V60.3038H97.0849C95.9297 60.8926 94.7603 61.6225 93.5769 62.4935C92.3935 63.3645 91.4689 64.1186 90.8032 64.756L88.9318 62.942C90.0612 61.9144 90.9793 60.9746 91.6859 60.1227C92.3925 59.2708 93.0229 58.2971 93.5769 57.2015V30.1654H83.8221V68.9465H111.191Z" fill="#414141"/>
<path d="M136.409 69.9991C146.888 69.9991 153.02 64.2373 153.02 53.988V30.1653H143.265V53.2678C143.265 58.7525 140.98 61.3564 136.409 61.3564C131.838 61.3564 129.497 58.8079 129.497 53.2678V30.1653H119.742V53.988C119.742 64.2373 125.929 69.9991 136.409 69.9991Z" fill="#414141"/>
<path d="M181.974 69.999C191.395 69.9436 198.808 64.5697 200.425 55.5392L191.172 53.2678C190.001 58.5309 186.601 61.3564 181.807 61.3564C175.564 61.3564 171.272 56.5919 171.272 49.5559C171.272 42.5198 175.564 37.7553 181.807 37.7553C186.434 37.7553 189.667 40.3592 190.949 45.0683L200.09 42.5752C198.362 34.4312 191.116 29.1681 181.974 29.1127C169.098 29.0018 161.406 38.5863 161.406 49.5559C161.406 60.5254 169.098 70.1099 181.974 69.999Z" fill="#414141"/>
<path d="M230.875 30.1654C238.4 30.1654 242.692 34.2097 242.692 40.6917C242.692 47.8939 238.456 51.2734 230.819 51.772V54.5421C235.39 55.0961 237.285 55.7055 239.571 61.1903L241.131 64.9576C241.8 66.4534 242.302 67.5061 243.361 68.1155V68.9465H232.436C231.711 68.3371 231.432 67.6723 231.265 67.0629L228.868 61.1349C227.308 57.2014 226.304 56.0933 222.792 56.0933H219.95V68.9465H210.195V30.1654H230.875ZM228.534 38.5864H219.95V47.6723H228.534C231.209 47.6723 232.937 46.0102 232.937 43.0739C232.937 40.0823 231.432 38.5864 228.534 38.5864Z" fill="#414141"/>
<path d="M277.142 30.1652L291.914 68.9464H281.378L275.191 50.3868C274.021 46.7857 273.296 43.2954 273.017 40.1375H269.673C269.45 42.7414 268.948 46.0655 267.499 50.3868L261.256 68.9464H250.776L265.603 30.1652H277.142Z" fill="#414141"/>
<path d="M83.8275 0.571887H94.551C98.9609 0.571887 102.07 3.36754 102.07 8.06933C102.07 12.8347 98.9609 15.5668 94.551 15.5668H88.8085V22.8101H83.8275V0.571887ZM88.8085 11.2462H94.1068C95.7883 11.2462 97.0574 10.1343 97.0574 8.03756C97.0574 5.87728 95.9469 4.89245 94.1385 4.89245H88.8085V11.2462Z" fill="#414141"/>
<path d="M104.226 11.691C104.226 4.92422 109.143 4.69929e-05 115.774 4.69929e-05C122.405 4.69929e-05 127.322 4.92422 127.322 11.691C127.322 18.4577 122.405 23.3819 115.774 23.3819C109.143 23.3819 104.226 18.4577 104.226 11.691ZM109.27 11.691C109.27 16.0115 111.935 18.966 115.774 18.966C119.867 18.966 122.278 15.8527 122.278 11.691C122.278 7.43395 119.803 4.41591 115.774 4.41591C111.777 4.41591 109.27 7.37042 109.27 11.691Z" fill="#414141"/>
<path d="M133.29 22.8101L128.246 0.571887H133.386L135.099 9.27655C135.606 11.9134 135.511 14.9632 135.48 16.8693H137.351C137.51 14.5502 137.891 12.1993 138.684 9.5307L141.412 0.571887H145.41L148.202 9.72131C148.932 12.104 149.312 14.4866 149.534 16.8693H151.374C151.343 14.8996 151.216 11.8816 151.692 9.43539L153.468 0.571887H158.576L153.564 22.8101H148.011L145.315 13.883C144.458 10.9285 144.046 8.06933 144.046 6.0679H142.745C142.745 8.03756 142.364 10.7061 141.444 13.9148L138.779 22.8101H133.29Z" fill="#414141"/>
<path d="M165.893 13.5653V18.3942H176.934V22.8101H160.912V0.571887H176.902V4.98775H165.893V9.46716H175.951V13.5653H165.893Z" fill="#414141"/>
<path d="M196.335 18.2036L197.287 20.4909C197.668 21.3805 197.985 22.0158 198.588 22.3653V22.8101H193.004C192.592 22.4606 192.401 22.0476 192.274 21.6029L190.878 18.1718C189.927 15.7892 189.229 15.122 187.103 15.122H185.041V22.8101H180.06V0.571887H191.481C195.764 0.571887 198.175 2.89101 198.175 6.63973C198.175 10.7061 195.764 12.6758 191.576 12.93V14.3913C194.019 14.709 195.066 15.1855 196.335 18.2036ZM185.041 10.8015H190.339C192.116 10.8015 193.226 9.72131 193.226 7.81518C193.226 5.87728 192.243 4.89245 190.307 4.89245H185.041V10.8015Z" fill="#414141"/>
<path d="M206.171 13.5653V18.3942H217.212V22.8101H201.19V0.571887H217.18V4.98775H206.171V9.46716H216.228V13.5653H206.171Z" fill="#414141"/>
<path d="M220.337 0.571887H229.696C235.756 0.571887 239.785 4.54299 239.785 11.691C239.785 18.9343 235.915 22.8101 229.601 22.8101H220.337V0.571887ZM225.318 18.3942H229.284C232.552 18.3942 234.804 16.774 234.804 11.691C234.804 7.1798 232.901 4.98775 229.284 4.98775H225.318V18.3942Z" fill="#414141"/>
<path d="M264.678 10.452V11.691C267.629 11.9769 269.405 13.883 269.405 16.9011C269.405 20.7133 266.423 22.8101 261.823 22.8101H251.258V0.571887H262.616C266.518 0.571887 268.707 2.63686 268.707 5.78198C268.707 8.29171 267.343 10.039 264.678 10.452ZM261.093 4.86068H256.144V9.37185H261.093C263.028 9.37185 263.758 8.6094 263.758 7.0845C263.758 5.6549 263.028 4.86068 261.093 4.86068ZM256.144 18.5213H261.537C263.694 18.5213 264.488 17.6635 264.488 15.8845C264.488 14.1054 263.631 13.2477 261.537 13.2477H256.144V18.5213Z" fill="#414141"/>
<path d="M278.58 14.3596L270.141 0.571887H275.915L277.691 3.93938C278.516 5.59136 279.976 8.29171 280.166 10.5791H282.07C282.26 8.32348 283.402 6.06789 284.481 3.90761L286.226 0.571887H292L283.593 14.3596V22.8101H278.58V14.3596Z" fill="#414141"/>
<path fill-rule="evenodd" clip-rule="evenodd" d="M69.9062 35C69.9062 54.33 54.2572 70 34.9531 70C15.649 70 0 54.33 0 35C0 15.67 15.649 0 34.9531 0C54.2572 0 69.9062 15.67 69.9062 35ZM31.6946 63.0061L37.3878 45.8987H17.8544L29.4339 7.34859C16.5269 9.91733 6.79801 21.321 6.79801 35C6.79801 49.4669 17.6799 61.3888 31.6946 63.0061ZM35.0433 63.1927L54.723 32.9169H39.1218C39.1218 32.9169 36.6492 33.1574 32.0549 36.5032L30.8019 34.8303C34.9786 32.321 36.8522 29.6156 36.8522 29.6156L43.2063 8.03778C54.7289 11.57 63.1082 22.3051 63.1082 35C63.1082 50.5404 50.5514 63.1441 35.0433 63.1927Z" fill="#414141"/>
<path d="M111.191 68.9465V60.3038H97.0849C95.9297 60.8926 94.7603 61.6225 93.5769 62.4935C92.3935 63.3645 91.4689 64.1186 90.8032 64.756L88.9318 62.942C90.0612 61.9144 90.9793 60.9746 91.6859 60.1227C92.3925 59.2708 93.0229 58.2971 93.5769 57.2015V30.1654H83.8221V68.9465H111.191Z" stroke="url(#paint0_linear_11_1333)" stroke-width="2" mask="url(#path-1-inside-1_11_1333)"/>
<path d="M136.409 69.9991C146.888 69.9991 153.02 64.2373 153.02 53.988V30.1653H143.265V53.2678C143.265 58.7525 140.98 61.3564 136.409 61.3564C131.838 61.3564 129.497 58.8079 129.497 53.2678V30.1653H119.742V53.988C119.742 64.2373 125.929 69.9991 136.409 69.9991Z" stroke="url(#paint1_linear_11_1333)" stroke-width="2" mask="url(#path-1-inside-1_11_1333)"/>
<path d="M181.974 69.999C191.395 69.9436 198.808 64.5697 200.425 55.5392L191.172 53.2678C190.001 58.5309 186.601 61.3564 181.807 61.3564C175.564 61.3564 171.272 56.5919 171.272 49.5559C171.272 42.5198 175.564 37.7553 181.807 37.7553C186.434 37.7553 189.667 40.3592 190.949 45.0683L200.09 42.5752C198.362 34.4312 191.116 29.1681 181.974 29.1127C169.098 29.0018 161.406 38.5863 161.406 49.5559C161.406 60.5254 169.098 70.1099 181.974 69.999Z" stroke="url(#paint2_linear_11_1333)" stroke-width="2" mask="url(#path-1-inside-1_11_1333)"/>
<path d="M230.875 30.1654C238.4 30.1654 242.692 34.2097 242.692 40.6917C242.692 47.8939 238.456 51.2734 230.819 51.772V54.5421C235.39 55.0961 237.285 55.7055 239.571 61.1903L241.131 64.9576C241.8 66.4534 242.302 67.5061 243.361 68.1155V68.9465H232.436C231.711 68.3371 231.432 67.6723 231.265 67.0629L228.868 61.1349C227.308 57.2014 226.304 56.0933 222.792 56.0933H219.95V68.9465H210.195V30.1654H230.875ZM228.534 38.5864H219.95V47.6723H228.534C231.209 47.6723 232.937 46.0102 232.937 43.0739C232.937 40.0823 231.432 38.5864 228.534 38.5864Z" stroke="url(#paint3_linear_11_1333)" stroke-width="2" mask="url(#path-1-inside-1_11_1333)"/>
<path d="M277.142 30.1652L291.914 68.9464H281.378L275.191 50.3868C274.021 46.7857 273.296 43.2954 273.017 40.1375H269.673C269.45 42.7414 268.948 46.0655 267.499 50.3868L261.256 68.9464H250.776L265.603 30.1652H277.142Z" stroke="url(#paint4_linear_11_1333)" stroke-width="2" mask="url(#path-1-inside-1_11_1333)"/>
<path d="M83.8275 0.571887H94.551C98.9609 0.571887 102.07 3.36754 102.07 8.06933C102.07 12.8347 98.9609 15.5668 94.551 15.5668H88.8085V22.8101H83.8275V0.571887ZM88.8085 11.2462H94.1068C95.7883 11.2462 97.0574 10.1343 97.0574 8.03756C97.0574 5.87728 95.9469 4.89245 94.1385 4.89245H88.8085V11.2462Z" stroke="url(#paint5_linear_11_1333)" stroke-width="2" mask="url(#path-1-inside-1_11_1333)"/>
<path d="M104.226 11.691C104.226 4.92422 109.143 4.69929e-05 115.774 4.69929e-05C122.405 4.69929e-05 127.322 4.92422 127.322 11.691C127.322 18.4577 122.405 23.3819 115.774 23.3819C109.143 23.3819 104.226 18.4577 104.226 11.691ZM109.27 11.691C109.27 16.0115 111.935 18.966 115.774 18.966C119.867 18.966 122.278 15.8527 122.278 11.691C122.278 7.43395 119.803 4.41591 115.774 4.41591C111.777 4.41591 109.27 7.37042 109.27 11.691Z" stroke="url(#paint6_linear_11_1333)" stroke-width="2" mask="url(#path-1-inside-1_11_1333)"/>
<path d="M133.29 22.8101L128.246 0.571887H133.386L135.099 9.27655C135.606 11.9134 135.511 14.9632 135.48 16.8693H137.351C137.51 14.5502 137.891 12.1993 138.684 9.5307L141.412 0.571887H145.41L148.202 9.72131C148.932 12.104 149.312 14.4866 149.534 16.8693H151.374C151.343 14.8996 151.216 11.8816 151.692 9.43539L153.468 0.571887H158.576L153.564 22.8101H148.011L145.315 13.883C144.458 10.9285 144.046 8.06933 144.046 6.0679H142.745C142.745 8.03756 142.364 10.7061 141.444 13.9148L138.779 22.8101H133.29Z" stroke="url(#paint7_linear_11_1333)" stroke-width="2" mask="url(#path-1-inside-1_11_1333)"/>
<path d="M165.893 13.5653V18.3942H176.934V22.8101H160.912V0.571887H176.902V4.98775H165.893V9.46716H175.951V13.5653H165.893Z" stroke="url(#paint8_linear_11_1333)" stroke-width="2" mask="url(#path-1-inside-1_11_1333)"/>
<path d="M196.335 18.2036L197.287 20.4909C197.668 21.3805 197.985 22.0158 198.588 22.3653V22.8101H193.004C192.592 22.4606 192.401 22.0476 192.274 21.6029L190.878 18.1718C189.927 15.7892 189.229 15.122 187.103 15.122H185.041V22.8101H180.06V0.571887H191.481C195.764 0.571887 198.175 2.89101 198.175 6.63973C198.175 10.7061 195.764 12.6758 191.576 12.93V14.3913C194.019 14.709 195.066 15.1855 196.335 18.2036ZM185.041 10.8015H190.339C192.116 10.8015 193.226 9.72131 193.226 7.81518C193.226 5.87728 192.243 4.89245 190.307 4.89245H185.041V10.8015Z" stroke="url(#paint9_linear_11_1333)" stroke-width="2" mask="url(#path-1-inside-1_11_1333)"/>
<path d="M206.171 13.5653V18.3942H217.212V22.8101H201.19V0.571887H217.18V4.98775H206.171V9.46716H216.228V13.5653H206.171Z" stroke="url(#paint10_linear_11_1333)" stroke-width="2" mask="url(#path-1-inside-1_11_1333)"/>
<path d="M220.337 0.571887H229.696C235.756 0.571887 239.785 4.54299 239.785 11.691C239.785 18.9343 235.915 22.8101 229.601 22.8101H220.337V0.571887ZM225.318 18.3942H229.284C232.552 18.3942 234.804 16.774 234.804 11.691C234.804 7.1798 232.901 4.98775 229.284 4.98775H225.318V18.3942Z" stroke="url(#paint11_linear_11_1333)" stroke-width="2" mask="url(#path-1-inside-1_11_1333)"/>
<path d="M264.678 10.452V11.691C267.629 11.9769 269.405 13.883 269.405 16.9011C269.405 20.7133 266.423 22.8101 261.823 22.8101H251.258V0.571887H262.616C266.518 0.571887 268.707 2.63686 268.707 5.78198C268.707 8.29171 267.343 10.039 264.678 10.452ZM261.093 4.86068H256.144V9.37185H261.093C263.028 9.37185 263.758 8.6094 263.758 7.0845C263.758 5.6549 263.028 4.86068 261.093 4.86068ZM256.144 18.5213H261.537C263.694 18.5213 264.488 17.6635 264.488 15.8845C264.488 14.1054 263.631 13.2477 261.537 13.2477H256.144V18.5213Z" stroke="url(#paint12_linear_11_1333)" stroke-width="2" mask="url(#path-1-inside-1_11_1333)"/>
<path d="M278.58 14.3596L270.141 0.571887H275.915L277.691 3.93938C278.516 5.59136 279.976 8.29171 280.166 10.5791H282.07C282.26 8.32348 283.402 6.06789 284.481 3.90761L286.226 0.571887H292L283.593 14.3596V22.8101H278.58V14.3596Z" stroke="url(#paint13_linear_11_1333)" stroke-width="2" mask="url(#path-1-inside-1_11_1333)"/>
<path fill-rule="evenodd" clip-rule="evenodd" d="M69.9062 35C69.9062 54.33 54.2572 70 34.9531 70C15.649 70 0 54.33 0 35C0 15.67 15.649 0 34.9531 0C54.2572 0 69.9062 15.67 69.9062 35ZM31.6946 63.0061L37.3878 45.8987H17.8544L29.4339 7.34859C16.5269 9.91733 6.79801 21.321 6.79801 35C6.79801 49.4669 17.6799 61.3888 31.6946 63.0061ZM35.0433 63.1927L54.723 32.9169H39.1218C39.1218 32.9169 36.6492 33.1574 32.0549 36.5032L30.8019 34.8303C34.9786 32.321 36.8522 29.6156 36.8522 29.6156L43.2063 8.03778C54.7289 11.57 63.1082 22.3051 63.1082 35C63.1082 50.5404 50.5514 63.1441 35.0433 63.1927Z" stroke="url(#paint14_linear_11_1333)" stroke-width="2" mask="url(#path-1-inside-1_11_1333)"/>
<defs>
<linearGradient id="paint0_linear_11_1333" x1="146" y1="0" x2="146" y2="59.7917" gradientUnits="userSpaceOnUse">
<stop stop-color="white" stop-opacity="0.53"/>
<stop offset="1" stop-color="white" stop-opacity="0"/>
</linearGradient>
<linearGradient id="paint1_linear_11_1333" x1="146" y1="0" x2="146" y2="59.7917" gradientUnits="userSpaceOnUse">
<stop stop-color="white" stop-opacity="0.53"/>
<stop offset="1" stop-color="white" stop-opacity="0"/>
</linearGradient>
<linearGradient id="paint2_linear_11_1333" x1="146" y1="0" x2="146" y2="59.7917" gradientUnits="userSpaceOnUse">
<stop stop-color="white" stop-opacity="0.53"/>
<stop offset="1" stop-color="white" stop-opacity="0"/>
</linearGradient>
<linearGradient id="paint3_linear_11_1333" x1="146" y1="0" x2="146" y2="59.7917" gradientUnits="userSpaceOnUse">
<stop stop-color="white" stop-opacity="0.53"/>
<stop offset="1" stop-color="white" stop-opacity="0"/>
</linearGradient>
<linearGradient id="paint4_linear_11_1333" x1="146" y1="0" x2="146" y2="59.7917" gradientUnits="userSpaceOnUse">
<stop stop-color="white" stop-opacity="0.53"/>
<stop offset="1" stop-color="white" stop-opacity="0"/>
</linearGradient>
<linearGradient id="paint5_linear_11_1333" x1="146" y1="0" x2="146" y2="59.7917" gradientUnits="userSpaceOnUse">
<stop stop-color="white" stop-opacity="0.53"/>
<stop offset="1" stop-color="white" stop-opacity="0"/>
</linearGradient>
<linearGradient id="paint6_linear_11_1333" x1="146" y1="0" x2="146" y2="59.7917" gradientUnits="userSpaceOnUse">
<stop stop-color="white" stop-opacity="0.53"/>
<stop offset="1" stop-color="white" stop-opacity="0"/>
</linearGradient>
<linearGradient id="paint7_linear_11_1333" x1="146" y1="0" x2="146" y2="59.7917" gradientUnits="userSpaceOnUse">
<stop stop-color="white" stop-opacity="0.53"/>
<stop offset="1" stop-color="white" stop-opacity="0"/>
</linearGradient>
<linearGradient id="paint8_linear_11_1333" x1="146" y1="0" x2="146" y2="59.7917" gradientUnits="userSpaceOnUse">
<stop stop-color="white" stop-opacity="0.53"/>
<stop offset="1" stop-color="white" stop-opacity="0"/>
</linearGradient>
<linearGradient id="paint9_linear_11_1333" x1="146" y1="0" x2="146" y2="59.7917" gradientUnits="userSpaceOnUse">
<stop stop-color="white" stop-opacity="0.53"/>
<stop offset="1" stop-color="white" stop-opacity="0"/>
</linearGradient>
<linearGradient id="paint10_linear_11_1333" x1="146" y1="0" x2="146" y2="59.7917" gradientUnits="userSpaceOnUse">
<stop stop-color="white" stop-opacity="0.53"/>
<stop offset="1" stop-color="white" stop-opacity="0"/>
</linearGradient>
<linearGradient id="paint11_linear_11_1333" x1="146" y1="0" x2="146" y2="59.7917" gradientUnits="userSpaceOnUse">
<stop stop-color="white" stop-opacity="0.53"/>
<stop offset="1" stop-color="white" stop-opacity="0"/>
</linearGradient>
<linearGradient id="paint12_linear_11_1333" x1="146" y1="0" x2="146" y2="59.7917" gradientUnits="userSpaceOnUse">
<stop stop-color="white" stop-opacity="0.53"/>
<stop offset="1" stop-color="white" stop-opacity="0"/>
</linearGradient>
<linearGradient id="paint13_linear_11_1333" x1="146" y1="0" x2="146" y2="59.7917" gradientUnits="userSpaceOnUse">
<stop stop-color="white" stop-opacity="0.53"/>
<stop offset="1" stop-color="white" stop-opacity="0"/>
</linearGradient>
<linearGradient id="paint14_linear_11_1333" x1="146" y1="0" x2="146" y2="59.7917" gradientUnits="userSpaceOnUse">
<stop stop-color="white" stop-opacity="0.53"/>
<stop offset="1" stop-color="white" stop-opacity="0"/>
</linearGradient>
</defs>
</svg>
