<svg width="16" height="30" viewBox="0 0 16 30" fill="none" xmlns="http://www.w3.org/2000/svg">
<path d="M15.3333 14.8854C15.3067 14.5137 15.1564 14.1617 14.9062 13.8855L2.90664 0.552572C2.50847 0.109647 1.90423 -0.0871911 1.32157 0.0362149C0.738916 0.159621 0.266365 0.58452 0.0819511 1.15083C-0.102462 1.71715 0.0292827 2.33883 0.427553 2.78166L11.4272 15L0.427553 27.2183C0.0292827 27.6612 -0.102462 28.2829 0.0819511 28.8492C0.266365 29.4155 0.738916 29.8404 1.32157 29.9638C1.90423 30.0872 2.50847 29.8904 2.90664 29.4474L14.9062 16.1145C15.2092 15.7796 15.3634 15.3361 15.3333 14.8854Z" fill="white"/>
</svg>
