<svg width="215" height="315" viewBox="0 0 215 315" fill="none" xmlns="http://www.w3.org/2000/svg">
<g clip-path="url(#clip0_6285_5554)">
<path d="M56.3 160.4L56.6578 162.368L58.3 162.069V160.4H56.3ZM56.3 146.6H58.3V145.016L56.7581 144.653L56.3 146.6ZM158.6 146.6L158.142 144.653L156.6 145.016V146.6H158.6ZM158.6 160.4H156.6V162.069L158.242 162.368L158.6 160.4ZM13.6 206.6C13.6 194.681 17.9634 184.842 25.4608 177.38C32.9866 169.89 43.7607 164.713 56.6578 162.368L55.9422 158.432C42.4394 160.887 30.8634 166.36 22.6392 174.545C14.3866 182.758 9.6 193.619 9.6 206.6H13.6ZM58.3 160.4V146.6H54.3V160.4H58.3ZM56.7581 144.653C46.7464 142.297 37.9931 138.444 31.7561 132.278C25.5761 126.168 21.7 117.625 21.7 105.5H17.7C17.7 118.575 21.9239 128.182 28.9439 135.122C35.9069 142.006 45.4536 146.103 55.8419 148.547L56.7581 144.653ZM21.7 105.5C21.7 88.8587 29.9112 74.9736 44.7287 65.1679C59.6042 55.3238 81.157 49.6 107.6 49.6V45.6C80.643 45.6 58.2458 51.4262 42.5213 61.8321C26.7388 72.2764 17.7 87.3413 17.7 105.5H21.7ZM107.6 49.6C133.891 49.6 155.369 55.323 170.207 65.1666C184.988 74.9723 193.2 88.858 193.2 105.5H197.2C197.2 87.3419 188.162 72.2777 172.418 61.8334C156.731 51.427 134.409 45.6 107.6 45.6V49.6ZM193.2 105.5C193.2 117.625 189.324 126.168 183.144 132.278C176.907 138.444 168.154 142.297 158.142 144.653L159.058 148.547C169.446 146.103 178.993 142.006 185.956 135.122C192.976 128.182 197.2 118.575 197.2 105.5H193.2ZM156.6 146.6V160.4H160.6V146.6H156.6ZM158.242 162.368C171.139 164.713 181.913 169.89 189.439 177.38C196.937 184.842 201.3 194.681 201.3 206.6H205.3C205.3 193.619 200.513 182.758 192.261 174.545C184.037 166.36 172.461 160.887 158.958 158.432L158.242 162.368ZM201.3 206.6C201.3 226.423 192.313 241.323 176.216 251.366C160.009 261.477 136.507 266.7 107.6 266.7V270.7C136.893 270.7 161.241 265.423 178.334 254.759C195.537 244.027 205.3 227.877 205.3 206.6H201.3ZM107.6 266.7C78.5412 266.7 54.9641 261.476 38.7194 251.365C22.5861 241.322 13.6 226.422 13.6 206.6H9.6C9.6 227.878 19.3639 244.028 36.6056 254.76C53.7359 265.424 78.1588 270.7 107.6 270.7V266.7ZM69.3 113.3C69.3 121.169 72.8557 127.988 79.5069 132.773C86.1007 137.518 95.6295 140.2 107.6 140.2V136.2C96.1706 136.2 87.5493 133.632 81.8431 129.527C76.1943 125.462 73.3 119.831 73.3 113.3H69.3ZM107.6 140.2C119.425 140.2 128.88 137.516 135.435 132.77C142.046 127.985 145.6 121.168 145.6 113.3H141.6C141.6 119.832 138.704 125.465 133.09 129.53C127.42 133.634 118.875 136.2 107.6 136.2V140.2ZM145.6 113.3C145.6 104.272 141.924 97.4041 135.147 92.8859C128.492 88.4495 119.037 86.4 107.6 86.4V90.4C118.663 90.4 127.208 92.4005 132.928 96.2141C138.526 99.9459 141.6 105.528 141.6 113.3H145.6ZM107.6 86.4C96.0175 86.4 86.4877 88.4481 79.7952 92.8828C72.9772 97.4008 69.3 104.271 69.3 113.3H73.3C73.3 105.529 76.3728 99.9492 82.0048 96.2172C87.7624 92.4019 96.3825 90.4 107.6 90.4V86.4ZM61.5 197.3C61.5 206.868 65.1271 214.863 72.919 220.382C80.5996 225.823 92.1042 228.7 107.6 228.7V224.7C92.4958 224.7 81.9504 221.877 75.231 217.118C68.6229 212.437 65.5 205.732 65.5 197.3H61.5ZM107.6 228.7C122.949 228.7 134.38 225.821 142.023 220.379C149.774 214.86 153.4 206.867 153.4 197.3H149.4C149.4 205.733 146.276 212.44 139.702 217.121C133.02 221.879 122.551 224.7 107.6 224.7V228.7ZM153.4 197.3C153.4 187.957 149.414 180.065 141.557 174.585C133.785 169.165 122.378 166.2 107.6 166.2V170.2C121.922 170.2 132.415 173.085 139.268 177.865C146.036 182.585 149.4 189.243 149.4 197.3H153.4ZM107.6 166.2C92.6758 166.2 81.194 169.163 73.3848 174.582C65.487 180.062 61.5 187.956 61.5 197.3H65.5C65.5 189.244 68.863 182.588 75.6652 177.868C82.556 173.087 93.1242 170.2 107.6 170.2V166.2Z" fill="#42409D"/>
</g>
<defs>
<clipPath id="clip0_6285_5554">
<rect width="215" height="315" fill="white"/>
</clipPath>
</defs>
</svg>
