<svg width="230" height="280" viewBox="0 0 230 280" fill="none" xmlns="http://www.w3.org/2000/svg">
<g clip-path="url(#clip0_3274_17546)">
<path d="M198.2 243V244H199.2V243H198.2ZM198.2 200.4H199.2V199.4H198.2V200.4ZM104.6 219.9L103.702 220.34L104.115 221.182L104.981 220.824L104.6 219.9ZM96.8 204L96.3591 203.102L95.462 203.543L95.9022 204.44L96.8 204ZM141.2 178.5L140.648 177.666L140.639 177.672L141.2 178.5ZM33.2 104.7H32.2V105.607L33.1023 105.695L33.2 104.7ZM82.1 109.5L82.0023 110.495L83.1 110.603V109.5H82.1ZM118.1 143.1L118.677 143.917L118.678 143.916L118.1 143.1ZM32.3 203.7L31.7231 202.883L31.3 203.182V203.7H32.3ZM32.3 243H31.3V244H32.3V243ZM199.2 243V200.4H197.2V243H199.2ZM198.2 199.4H185.9V201.4H198.2V199.4ZM185.9 199.4C150.579 199.4 123.112 211.178 104.219 218.976L104.981 220.824C123.888 213.022 151.021 201.4 185.9 201.4V199.4ZM105.498 219.46L97.6978 203.56L95.9022 204.44L103.702 220.34L105.498 219.46ZM97.2409 204.898C114.383 196.477 132.423 185.653 141.761 179.328L140.639 177.672C131.377 183.947 113.417 194.723 96.3591 203.102L97.2409 204.898ZM141.752 179.334C163.541 164.908 177.4 152.593 185.798 139.825C194.221 127.019 197.1 113.837 197.1 97.8H195.1C195.1 113.563 192.279 126.331 184.127 138.725C175.95 151.157 162.359 163.292 140.648 177.666L141.752 179.334ZM197.1 97.8C197.1 76.3836 189.042 58.5541 174.976 46.0891C160.921 33.6339 140.944 26.6 117.2 26.6V28.6C140.556 28.6 160.029 35.516 173.649 47.5859C187.258 59.6459 195.1 76.9164 195.1 97.8H197.1ZM117.2 26.6C89.7167 26.6 68.4441 34.3038 54.0364 47.9874C39.6232 61.6761 32.2 81.2354 32.2 104.7H34.2C34.2 81.6646 41.4768 62.6739 55.4136 49.4376C69.3559 36.1962 90.0833 28.6 117.2 28.6V26.6ZM33.1023 105.695L82.0023 110.495L82.1977 108.505L33.2977 103.705L33.1023 105.695ZM83.1 109.5C83.1 96.3081 86.4346 86.7571 92.1384 80.5119C97.8307 74.2791 106.01 71.2 116 71.2V69.2C105.59 69.2 96.8193 72.4209 90.6616 79.1631C84.5154 85.8928 81.1 95.9919 81.1 109.5H83.1ZM116 71.2C124.329 71.2 131.249 73.8982 136.09 78.9541C140.934 84.0135 143.8 91.543 143.8 101.4H145.8C145.8 91.1569 142.816 83.0865 137.535 77.5709C132.251 72.0518 124.771 69.2 116 69.2V71.2ZM143.8 101.4C143.8 107.149 143.065 113.194 139.458 119.862C135.841 126.548 129.292 133.941 117.522 142.284L118.678 143.916C130.608 135.459 137.409 127.852 141.217 120.813C145.035 113.756 145.8 107.351 145.8 101.4H143.8ZM117.523 142.283L31.7231 202.883L32.8769 204.517L118.677 143.917L117.523 142.283ZM31.3 203.7V243H33.3V203.7H31.3ZM32.3 244H198.2V242H32.3V244Z" fill="#F84722"/>
</g>
<defs>
<clipPath id="clip0_3274_17546">
<rect width="230" height="280" fill="white"/>
</clipPath>
</defs>
</svg>
