<svg width="230" height="280" viewBox="0 0 230 280" fill="none" xmlns="http://www.w3.org/2000/svg">
<g clip-path="url(#clip0_3440_17557)">
<path d="M179.3 243V244H180.3V243H179.3ZM179.3 203.7V202.7H178.3V203.7H179.3ZM213.5 203.7V204.7H214.5V203.7H213.5ZM213.5 161.7H214.5V160.7H213.5V161.7ZM179.3 161.7H178.3V162.7H179.3V161.7ZM179.3 33H180.3V32H179.3V33ZM121.1 33V32H120.621L120.321 32.3727L121.1 33ZM16.7 162.6L15.9212 161.973L15.7 162.247V162.6H16.7ZM16.7 203.7H15.7V204.7H16.7V203.7ZM127.7 203.7H128.7V202.7H127.7V203.7ZM127.7 243H126.7V244H127.7V243ZM131.3 74.1L131.992 73.378L131.189 72.6083L130.509 73.4886L131.3 74.1ZM145.7 87.9L146.39 88.6241L147.148 87.9022L146.392 87.178L145.7 87.9ZM127.7 161.7V162.7H128.7V161.7H127.7ZM71.3 173.7L70.5712 174.385L71.2401 175.097L71.9675 174.445L71.3 173.7ZM62 163.8L61.2087 163.189L60.6874 163.863L61.2712 164.485L62 163.8ZM180.3 243V203.7H178.3V243H180.3ZM179.3 204.7H213.5V202.7H179.3V204.7ZM214.5 203.7V161.7H212.5V203.7H214.5ZM213.5 160.7H179.3V162.7H213.5V160.7ZM180.3 161.7V33H178.3V161.7H180.3ZM179.3 32H121.1V34H179.3V32ZM120.321 32.3727L15.9212 161.973L17.4788 163.227L121.879 33.6273L120.321 32.3727ZM15.7 162.6V203.7H17.7V162.6H15.7ZM16.7 204.7H127.7V202.7H16.7V204.7ZM126.7 203.7V243H128.7V203.7H126.7ZM127.7 244H179.3V242H127.7V244ZM130.608 74.822L145.008 88.622L146.392 87.178L131.992 73.378L130.608 74.822ZM145.01 87.1759C138.619 93.2631 134.025 99.7612 131.039 107.724C128.058 115.673 126.7 125.028 126.7 136.8H128.7C128.7 125.172 130.042 116.077 132.911 108.426C135.775 100.789 140.181 94.5369 146.39 88.6241L145.01 87.1759ZM126.7 136.8V161.7H128.7V136.8H126.7ZM127.7 160.7H113.3V162.7H127.7V160.7ZM113.3 160.7C105.119 160.7 96.7045 161.76 89.2231 163.811C81.7566 165.857 75.1423 168.912 70.6325 172.955L71.9675 174.445C76.1577 170.688 82.4434 167.743 89.7519 165.739C97.0455 163.74 105.281 162.7 113.3 162.7V160.7ZM72.0289 173.015L62.7288 163.115L61.2712 164.485L70.5712 174.385L72.0289 173.015ZM62.7913 164.411L132.091 74.7114L130.509 73.4886L61.2087 163.189L62.7913 164.411Z" fill="#F84722"/>
</g>
<defs>
<clipPath id="clip0_3440_17557">
<rect width="230" height="280" fill="white"/>
</clipPath>
</defs>
</svg>
