<svg width="215" height="315" viewBox="0 0 215 315" fill="none" xmlns="http://www.w3.org/2000/svg">
<g clip-path="url(#clip0_6276_5545)">
<path d="M150 164.2H148V166.093L149.89 166.197L150 164.2ZM150 149.5L149.608 147.539L148 147.86V149.5H150ZM21.9 116.8L19.9059 116.647L19.7743 118.357L21.4447 118.747L21.9 116.8ZM68.1 127.6L67.6447 129.547L69.8389 130.06L70.0878 127.821L68.1 127.6ZM84.9 139.3V137.3H82.9V139.3H84.9ZM84.9 175.9H82.9V177.9H84.9V175.9ZM63.3 190L65.2815 189.729L64.9786 187.515L62.8119 188.06L63.3 190ZM18 201.4L17.5119 199.46L15.8792 199.871L16.0057 201.55L18 201.4ZM107.4 273C135.414 273 157.92 266.796 173.481 255.598C189.109 244.353 197.6 228.152 197.6 208.6H193.6C193.6 226.848 185.741 241.847 171.144 252.352C156.48 262.904 134.886 269 107.4 269V273ZM197.6 208.6C197.6 195.491 192.829 184.239 184.431 176.078C176.047 167.93 164.165 162.975 150.11 162.203L149.89 166.197C163.135 166.925 174.053 171.57 181.644 178.947C189.221 186.311 193.6 196.508 193.6 208.6H197.6ZM152 164.2V149.5H148V164.2H152ZM150.392 151.461C162.677 149.004 173.134 143.981 180.536 136.342C187.97 128.671 192.2 118.487 192.2 106H188.2C188.2 117.513 184.33 126.679 177.664 133.558C170.966 140.469 161.323 145.196 149.608 147.539L150.392 151.461ZM192.2 106C192.2 89.1772 185.084 74.4798 171.109 64.0473C157.192 53.6583 136.623 47.6 109.8 47.6V51.6C136.077 51.6 155.708 57.5417 168.716 67.2527C181.666 76.9202 188.2 90.4228 188.2 106H192.2ZM109.8 47.6C86.073 47.6 64.4851 53.758 48.3605 65.4955C32.1962 77.2619 21.6028 94.5864 19.9059 116.647L23.8941 116.953C25.4972 96.1136 35.4538 79.8381 50.7145 68.7295C66.0149 57.592 86.727 51.6 109.8 51.6V47.6ZM21.4447 118.747L67.6447 129.547L68.5553 125.652L22.3553 114.852L21.4447 118.747ZM70.0878 127.821C71.251 117.352 74.9336 108.763 81.1813 102.796C87.4104 96.8473 96.4024 93.3 108.6 93.3V89.3C95.5977 89.3 85.5397 93.1027 78.4187 99.9036C71.3164 106.687 67.349 116.248 66.1122 127.379L70.0878 127.821ZM108.6 93.3C117.933 93.3 124.923 95.4186 129.542 99.155C134.097 102.839 136.6 108.3 136.6 115.6H140.6C140.6 107.3 137.703 100.611 132.058 96.045C126.477 91.5314 118.467 89.3 108.6 89.3V93.3ZM136.6 115.6C136.6 121.795 134.786 127.077 130.265 130.867C125.675 134.715 117.972 137.3 105.6 137.3V141.3C118.428 141.3 127.225 138.635 132.835 133.933C138.514 129.172 140.6 122.605 140.6 115.6H136.6ZM105.6 137.3H84.9V141.3H105.6V137.3ZM82.9 139.3V175.9H86.9V139.3H82.9ZM84.9 177.9H108.9V173.9H84.9V177.9ZM108.9 177.9C118.65 177.9 126.985 179.462 132.822 183.076C138.507 186.595 142 192.161 142 200.8H146C146 190.839 141.843 183.955 134.928 179.674C128.165 175.488 118.95 173.9 108.9 173.9V177.9ZM142 200.8C142 209.284 139.062 215.471 133.605 219.606C128.054 223.812 119.63 226.1 108.3 226.1V230.1C120.07 230.1 129.496 227.738 136.02 222.794C142.639 217.779 146 210.316 146 200.8H142ZM108.3 226.1C96.6894 226.1 86.91 223.744 79.5896 218.149C72.3125 212.586 67.1797 203.6 65.2815 189.729L61.3185 190.271C63.3203 204.9 68.8375 214.964 77.1604 221.326C85.44 227.656 96.2106 230.1 108.3 230.1V226.1ZM62.8119 188.06L17.5119 199.46L18.4881 203.34L63.7881 191.94L62.8119 188.06ZM16.0057 201.55C17.6876 223.875 25.9001 241.838 41.1939 254.181C56.4453 266.491 78.4768 273 107.4 273V269C79.0232 269 58.0047 262.609 43.7061 251.069C29.4499 239.562 21.6124 222.725 19.9943 201.25L16.0057 201.55Z" fill="#42409D"/>
</g>
<defs>
<clipPath id="clip0_6276_5545">
<rect width="215" height="315" fill="white"/>
</clipPath>
</defs>
</svg>
