<svg width="230" height="280" viewBox="0 0 230 280" fill="none" xmlns="http://www.w3.org/2000/svg">
<path d="M157 141.2H156V142.147L156.945 142.198L157 141.2ZM157 126.5L156.804 125.519L156 125.68V126.5H157ZM28.9 93.8L27.9029 93.7233L27.8372 94.5785L28.6724 94.7737L28.9 93.8ZM75.1 104.6L74.8724 105.574L75.9695 105.83L76.0939 104.71L75.1 104.6ZM91.9 116.3V115.3H90.9V116.3H91.9ZM91.9 152.9H90.9V153.9H91.9V152.9ZM70.3 167L71.2908 166.864L71.1393 165.758L70.056 166.03L70.3 167ZM25 178.4L24.756 177.43L23.9396 177.636L24.0028 178.475L25 178.4ZM114.4 249C142.282 249 164.56 242.823 179.897 231.787C195.267 220.726 203.6 204.826 203.6 185.6H201.6C201.6 204.174 193.583 219.474 178.728 230.163C163.84 240.877 142.018 247 114.4 247V249ZM203.6 185.6C203.6 172.746 198.927 161.757 190.734 153.795C182.548 145.84 170.908 140.963 157.055 140.201L156.945 142.198C170.392 142.937 181.552 147.66 189.341 155.23C197.123 162.793 201.6 173.254 201.6 185.6H203.6ZM158 141.2V126.5H156V141.2H158ZM157.196 127.481C169.339 125.052 179.592 120.103 186.818 112.646C194.06 105.173 198.2 95.2437 198.2 83H196.2C196.2 94.7563 192.24 104.177 185.382 111.254C178.508 118.347 168.661 123.148 156.804 125.519L157.196 127.481ZM198.2 83C198.2 66.4886 191.229 52.0899 177.511 41.8487C163.821 31.6291 143.486 25.6 116.8 25.6V27.6C143.214 27.6 163.079 33.5708 176.314 43.4513C189.521 53.3101 196.2 67.1114 196.2 83H198.2ZM116.8 25.6C93.2365 25.6 71.8676 31.7165 55.949 43.304C40.0106 54.9059 29.5764 71.9682 27.9029 93.7233L29.8971 93.8767C31.5236 72.7318 41.6394 56.194 57.126 44.921C72.6324 33.6335 93.5635 27.6 116.8 27.6V25.6ZM28.6724 94.7737L74.8724 105.574L75.3276 103.626L29.1276 92.8262L28.6724 94.7737ZM76.0939 104.71C77.2755 94.0759 81.0293 85.2441 87.4907 79.0732C93.9427 72.9111 103.201 69.3 115.6 69.3V67.3C102.799 67.3 93.0073 71.0388 86.1093 77.6268C79.2207 84.2058 75.3245 93.5241 74.1061 104.49L76.0939 104.71ZM115.6 69.3C125.067 69.3 132.311 71.4468 137.171 75.3775C141.999 79.2821 144.6 85.0498 144.6 92.6H146.6C146.6 84.5502 143.801 78.1679 138.429 73.8225C133.089 69.5032 125.333 67.3 115.6 67.3V69.3ZM144.6 92.6C144.6 98.9973 142.718 104.601 137.908 108.634C133.063 112.695 125.086 115.3 112.6 115.3V117.3C125.314 117.3 133.837 114.655 139.192 110.166C144.582 105.649 146.6 99.4027 146.6 92.6H144.6ZM112.6 115.3H91.9V117.3H112.6V115.3ZM90.9 116.3V152.9H92.9V116.3H90.9ZM91.9 153.9H115.9V151.9H91.9V153.9ZM115.9 153.9C125.725 153.9 134.28 155.469 140.349 159.225C146.341 162.935 150 168.831 150 177.8H152C152 168.169 148.009 161.615 141.401 157.525C134.87 153.481 125.875 151.9 115.9 151.9V153.9ZM150 177.8C150 186.542 146.956 193.048 141.209 197.403C135.415 201.793 126.74 204.1 115.3 204.1V206.1C126.96 206.1 136.135 203.757 142.416 198.997C148.744 194.202 152 187.058 152 177.8H150ZM115.3 204.1C103.57 204.1 93.5425 201.722 85.9823 195.943C78.4438 190.18 73.2149 180.925 71.2908 166.864L69.3092 167.136C71.2851 181.575 76.7062 191.37 84.7677 197.532C92.8075 203.678 103.33 206.1 115.3 206.1V204.1ZM70.056 166.03L24.756 177.43L25.244 179.37L70.544 167.97L70.056 166.03ZM24.0028 178.475C25.6688 200.587 33.7875 218.269 48.8219 230.403C63.8351 242.52 85.6134 249 114.4 249V247C85.8866 247 64.6149 240.58 50.0781 228.847C35.5625 217.131 27.6312 200.013 25.9972 178.325L24.0028 178.475Z" fill="#F84722"/>
</svg>
