<svg width="230" height="280" viewBox="0 0 230 280" fill="none" xmlns="http://www.w3.org/2000/svg">
<path d="M90.4 135.2L90.2129 136.182L91.0155 136.335L91.3253 135.579L90.4 135.2ZM77.8 132.8L76.8002 132.78L76.7836 133.624L77.6129 133.782L77.8 132.8ZM158.2 92.9L157.251 93.2162L157.534 94.065L158.409 93.8779L158.2 92.9ZM210.1 81.8L210.309 82.7779L211.266 82.5733L211.082 81.6125L210.1 81.8ZM80.8 160.4L80.0023 159.797L79.7929 160.074L79.8002 160.421L80.8 160.4ZM122.8 248.7C151.467 248.7 174.368 241.156 190.12 227.877C205.889 214.584 214.4 195.619 214.4 173H212.4C212.4 195.081 204.111 213.466 188.83 226.348C173.532 239.244 151.133 246.7 122.8 246.7V248.7ZM214.4 173C214.4 151.036 207.502 133.805 195.345 122.068C183.192 110.336 165.896 104.2 145.3 104.2V106.2C165.504 106.2 182.258 112.214 193.955 123.507C205.648 134.795 212.4 151.464 212.4 173H214.4ZM145.3 104.2C118.646 104.2 97.1789 116.023 89.4747 134.821L91.3253 135.579C98.6211 117.777 119.154 106.2 145.3 106.2V104.2ZM90.5871 134.218L77.9871 131.818L77.6129 133.782L90.2129 136.182L90.5871 134.218ZM78.7998 132.82C79.2472 110.001 84.6149 94.3533 92.8569 84.4263C101.076 74.5265 112.25 70.2 124.6 70.2V68.2C111.75 68.2 99.9738 72.7234 91.3181 83.1487C82.6851 93.5467 77.2528 109.699 76.8002 132.78L78.7998 132.82ZM124.6 70.2C139.803 70.2 152.298 78.3558 157.251 93.2162L159.149 92.5838C153.902 76.8442 140.597 68.2 124.6 68.2V70.2ZM158.409 93.8779L210.309 82.7779L209.891 80.8221L157.991 91.9221L158.409 93.8779ZM211.082 81.6125C204.66 47.97 170.182 25.6 126.7 25.6V27.6C169.618 27.6 202.94 49.6299 209.118 81.9875L211.082 81.6125ZM126.7 25.6C96.6181 25.6 71.2876 35.7341 53.4825 54.7541C35.683 73.768 25.5 101.559 25.5 136.7H27.5C27.5 101.941 37.567 74.682 54.9425 56.1209C72.3124 37.5659 97.0819 27.6 126.7 27.6V25.6ZM25.5 136.7C25.5 171.042 33.6322 199.052 49.921 218.492C66.2331 237.96 90.6126 248.7 122.8 248.7V246.7C91.0874 246.7 67.3169 236.14 51.454 217.208C35.5678 198.248 27.5 170.758 27.5 136.7H25.5ZM124.3 204.1C111.155 204.1 100.711 200.117 93.4766 192.737C86.2373 185.353 82.096 174.447 81.7998 160.379L79.8002 160.421C80.104 174.853 84.3627 186.297 92.0484 194.138C99.7391 201.983 110.745 206.1 124.3 206.1V204.1ZM81.5977 161.003C90.6807 148.99 106.864 141.3 125.2 141.3V139.3C106.336 139.3 89.5193 147.21 80.0023 159.797L81.5977 161.003ZM125.2 141.3C136.904 141.3 145.789 144.116 151.735 149.233C157.658 154.331 160.8 161.828 160.8 171.5H162.8C162.8 161.372 159.492 153.269 153.04 147.717C146.611 142.184 137.196 139.3 125.2 139.3V141.3ZM160.8 171.5C160.8 181.599 157.222 189.715 150.935 195.316C144.634 200.928 135.517 204.1 124.3 204.1V206.1C135.883 206.1 145.516 202.822 152.265 196.809C159.028 190.785 162.8 182.101 162.8 171.5H160.8Z" fill="#F84722"/>
</svg>
