<svg width="215" height="315" viewBox="0 0 215 315" fill="none" xmlns="http://www.w3.org/2000/svg">
<g clip-path="url(#clip0_6285_5541)">
<path d="M171.3 265V267H173.3V265H171.3ZM119.7 265H117.7V267H119.7V265ZM119.7 225.7H121.7V223.7H119.7V225.7ZM8.7 225.7H6.7V227.7H8.7V225.7ZM8.7 184.6L7.14249 183.345L6.7 183.895V184.6H8.7ZM113.1 55V53H112.143L111.542 53.7453L113.1 55ZM171.3 55H173.3V53H171.3V55ZM171.3 183.7H169.3V185.7H171.3V183.7ZM205.5 183.7H207.5V181.7H205.5V183.7ZM205.5 225.7V227.7H207.5V225.7H205.5ZM171.3 225.7V223.7H169.3V225.7H171.3ZM123.3 96.1L124.684 94.656L123.078 93.1166L121.717 94.8772L123.3 96.1ZM54 185.8L52.4173 184.577L51.3749 185.927L52.5423 187.169L54 185.8ZM63.3 195.7L61.8423 197.069L63.1802 198.494L64.6351 197.189L63.3 195.7ZM119.7 183.7V185.7H121.7V183.7H119.7ZM137.7 109.9L139.079 111.348L140.595 109.904L139.084 108.456L137.7 109.9ZM171.3 263H119.7V267H171.3V263ZM121.7 265V225.7H117.7V265H121.7ZM119.7 223.7H8.7V227.7H119.7V223.7ZM10.7 225.7V184.6H6.7V225.7H10.7ZM10.2575 185.855L114.658 56.2546L111.542 53.7453L7.14249 183.345L10.2575 185.855ZM113.1 57H171.3V53H113.1V57ZM169.3 55V183.7H173.3V55H169.3ZM171.3 185.7H205.5V181.7H171.3V185.7ZM203.5 183.7V225.7H207.5V183.7H203.5ZM205.5 223.7H171.3V227.7H205.5V223.7ZM169.3 225.7V265H173.3V225.7H169.3ZM121.717 94.8772L52.4173 184.577L55.5827 187.023L124.883 97.3227L121.717 94.8772ZM52.5423 187.169L61.8423 197.069L64.7577 194.331L55.4577 184.431L52.5423 187.169ZM64.6351 197.189C68.6654 193.576 74.7869 190.685 82.0162 188.704C89.2159 186.73 97.3618 185.7 105.3 185.7V181.7C97.0382 181.7 88.5341 182.77 80.9588 184.846C73.4131 186.915 66.6346 190.024 61.9649 194.211L64.6351 197.189ZM105.3 185.7H119.7V181.7H105.3V185.7ZM121.7 183.7V158.8H117.7V183.7H121.7ZM121.7 158.8C121.7 147.245 123.035 138.278 125.848 130.777C128.651 123.303 132.962 117.174 139.079 111.348L136.321 108.452C129.838 114.626 125.149 121.247 122.102 129.373C119.065 137.472 117.7 146.955 117.7 158.8H121.7ZM139.084 108.456L124.684 94.656L121.916 97.544L136.316 111.344L139.084 108.456Z" fill="#42409D"/>
</g>
<defs>
<clipPath id="clip0_6285_5541">
<rect width="215" height="315" fill="white"/>
</clipPath>
</defs>
</svg>
