<svg width="215" height="315" viewBox="0 0 215 315" fill="none" xmlns="http://www.w3.org/2000/svg">
<g clip-path="url(#clip0_6285_5551)">
<path d="M26.4 97.3H24.4V99.3H26.4V97.3ZM26.4 55V53H24.4V55H26.4ZM187.2 55H189.2V53H187.2V55ZM187.2 94L189.01 94.851L189.2 94.4467V94H187.2ZM106.8 265V267H108.07L108.61 265.851L106.8 265ZM47.1 265H45.1V267H47.1V265ZM47.1 262.9L45.3057 262.016L45.1 262.434V262.9H47.1ZM105.6 144.1L103.807 143.214L103.806 143.216L105.6 144.1ZM147.9 88.3L149.229 89.7948L150.596 88.5795L149.507 87.1095L147.9 88.3ZM135.9 72.1L137.507 70.9095L136.153 69.0812L134.513 70.6589L135.9 72.1ZM60 95.3H26.4V99.3H60V95.3ZM28.4 97.3V55H24.4V97.3H28.4ZM26.4 57H187.2V53H26.4V57ZM185.2 55V94H189.2V55H185.2ZM185.39 93.149L104.99 264.149L108.61 265.851L189.01 94.851L185.39 93.149ZM106.8 263H47.1V267H106.8V263ZM49.1 265V262.9H45.1V265H49.1ZM48.8943 263.784L107.394 144.984L103.806 143.216L45.3057 262.016L48.8943 263.784ZM107.393 144.986C119.28 120.916 130.522 106.423 149.229 89.7948L146.571 86.8052C127.478 103.777 115.92 118.684 103.807 143.214L107.393 144.986ZM149.507 87.1095L137.507 70.9095L134.293 73.2905L146.293 89.4904L149.507 87.1095ZM134.513 70.6589C119.052 85.5362 99.1834 95.3 60 95.3V99.3C100.017 99.3 120.948 89.2638 137.287 73.5411L134.513 70.6589Z" fill="#42409D"/>
</g>
<defs>
<clipPath id="clip0_6285_5551">
<rect width="215" height="315" fill="white"/>
</clipPath>
</defs>
</svg>
