<svg width="215" height="315" viewBox="0 0 215 315" fill="none" xmlns="http://www.w3.org/2000/svg">
<g clip-path="url(#clip0_6285_5545)">
<path d="M15.3 204.5L14.8209 202.558L13.1424 202.972L13.3093 204.693L15.3 204.5ZM61.5 193.1L63.4789 192.81L63.1599 190.63L61.0209 191.158L61.5 193.1ZM65.7 178.4L65.1524 180.324L66.3787 180.673L67.2127 179.708L65.7 178.4ZM24.6 166.7L22.616 166.447L22.3988 168.153L24.0524 168.624L24.6 166.7ZM38.7 56V54H36.9386L36.716 55.7473L38.7 56ZM178.2 56H180.2V54H178.2V56ZM178.2 98V100H180.2V98H178.2ZM81.9 98V96H80.09L79.9099 97.801L81.9 98ZM81.6 101L83.5846 101.248L83.5876 101.224L83.5901 101.199L81.6 101ZM62.1 136.4L60.7525 134.922L59.0136 136.508L60.8586 137.968L62.1 136.4ZM76.5 147.8L75.2586 149.368L76.9755 150.727L78.1739 148.894L76.5 147.8ZM15.7791 206.442L61.9791 195.042L61.0209 191.158L14.8209 202.558L15.7791 206.442ZM59.5211 193.39C61.3872 206.141 66.9496 215.647 75.421 221.931C83.8525 228.186 94.9637 231.1 107.7 231.1V227.1C95.5363 227.1 85.3475 224.314 77.804 218.719C70.3004 213.153 65.2128 204.659 63.4789 192.81L59.5211 193.39ZM107.7 231.1C121.377 231.1 131.755 227.564 138.725 221.077C145.714 214.572 149 205.36 149 194.6H145C145 204.54 141.986 212.578 136 218.148C129.995 223.736 120.723 227.1 107.7 227.1V231.1ZM149 194.6C149 183.383 145.559 174.308 138.626 168.064C131.726 161.849 121.654 158.7 108.9 158.7V162.7C121.046 162.7 130.024 165.701 135.949 171.036C141.841 176.342 145 184.217 145 194.6H149ZM108.9 158.7C90.7377 158.7 74.2384 165.47 64.1873 177.092L67.2127 179.708C76.3616 169.13 91.6623 162.7 108.9 162.7V158.7ZM66.2476 176.476L25.1476 164.776L24.0524 168.624L65.1524 180.324L66.2476 176.476ZM26.584 166.953L40.684 56.2527L36.716 55.7473L22.616 166.447L26.584 166.953ZM38.7 58H178.2V54H38.7V58ZM176.2 56V98H180.2V56H176.2ZM178.2 96H81.9V100H178.2V96ZM79.9099 97.801L79.6099 100.801L83.5901 101.199L83.8901 98.199L79.9099 97.801ZM79.6154 100.752C78.1834 112.208 70.6571 125.891 60.7525 134.922L63.4475 137.878C73.9429 128.309 82.0166 113.792 83.5846 101.248L79.6154 100.752ZM60.8586 137.968L75.2586 149.368L77.7414 146.232L63.3414 134.832L60.8586 137.968ZM78.1739 148.894C87.9418 133.955 105.552 125.2 126.6 125.2V121.2C104.448 121.2 85.4582 130.445 74.8261 146.705L78.1739 148.894ZM126.6 125.2C148.357 125.2 165.815 132.247 177.829 144.37C189.848 156.497 196.6 173.884 196.6 194.9H200.6C200.6 173.016 193.552 154.553 180.671 141.555C167.785 128.553 149.243 121.2 126.6 121.2V125.2ZM196.6 194.9C196.6 219.112 187.673 237.722 172.355 250.318C156.986 262.955 134.983 269.7 108.6 269.7V273.7C135.617 273.7 158.614 266.795 174.895 253.407C191.227 239.978 200.6 220.188 200.6 194.9H196.6ZM108.6 269.7C56.412 269.7 21.0555 243.113 17.2907 204.307L13.3093 204.693C17.3445 246.287 55.188 273.7 108.6 273.7V269.7Z" fill="#42409D"/>
</g>
<defs>
<clipPath id="clip0_6285_5545">
<rect width="215" height="315" fill="white"/>
</clipPath>
</defs>
</svg>
