<svg width="215" height="315" viewBox="0 0 215 315" fill="none" xmlns="http://www.w3.org/2000/svg">
<g clip-path="url(#clip0_6285_5557)">
<path d="M16.5 213.5L16.0817 211.544L14.1621 211.955L14.5368 213.882L16.5 213.5ZM68.4 202.4L70.2974 201.768L69.7315 200.07L67.9817 200.444L68.4 202.4ZM148.8 162.5L150.8 162.539L150.833 160.851L149.174 160.535L148.8 162.5ZM136.2 160.1L136.574 158.135L134.969 157.83L134.349 159.342L136.2 160.1ZM145.8 134.9L147.395 136.106L147.814 135.552L147.8 134.858L145.8 134.9ZM103.8 49.6C135.423 49.6 158.888 60.1441 174.489 78.8437C190.138 97.6006 198.1 124.832 198.1 158.6H202.1C202.1 124.268 194.012 95.9994 177.561 76.2812C161.062 56.5059 136.377 45.6 103.8 45.6V49.6ZM198.1 158.6C198.1 193.168 188.091 220.161 170.927 238.496C153.775 256.818 129.286 266.7 99.9 266.7V270.7C130.214 270.7 155.825 260.482 173.848 241.229C191.859 221.989 202.1 193.932 202.1 158.6H198.1ZM99.9 266.7C56.3953 266.7 24.5192 244.263 18.4632 213.118L14.5368 213.882C21.0808 247.537 55.2047 270.7 99.9 270.7V266.7ZM16.9183 215.456L68.8183 204.356L67.9817 200.444L16.0817 211.544L16.9183 215.456ZM66.5026 203.032C71.8987 219.221 85.917 228.1 102 228.1V224.1C87.483 224.1 75.1013 216.179 70.2974 201.768L66.5026 203.032ZM102 228.1C115.246 228.1 127.327 223.481 136.167 212.787C144.958 202.151 150.345 185.746 150.8 162.539L146.8 162.461C146.355 185.154 141.092 200.549 133.083 210.238C125.123 219.869 114.254 224.1 102 224.1V228.1ZM149.174 160.535L136.574 158.135L135.826 162.065L148.426 164.465L149.174 160.535ZM134.349 159.342C127.256 176.649 107.485 188.1 81.3 188.1V192.1C108.515 192.1 130.144 180.151 138.051 160.858L134.349 159.342ZM81.3 188.1C61.293 188.1 44.8099 182.148 33.3391 171.074C21.8795 160.01 15.2 143.621 15.2 122.3H11.2C11.2 144.479 18.1705 161.99 30.5609 173.951C42.9401 185.902 60.507 192.1 81.3 192.1V188.1ZM15.2 122.3C15.2 100.488 23.3779 82.392 38.4141 69.7166C53.4857 57.0113 75.6344 49.6 103.8 49.6V45.6C74.9656 45.6 51.8143 53.1886 35.8359 66.6583C19.8221 80.1579 11.2 99.4121 11.2 122.3H15.2ZM102.6 88.2C90.834 88.2 80.8747 91.5308 73.8282 97.7366C66.7537 103.967 62.8 112.936 62.8 123.8H66.8C66.8 113.964 70.3463 106.133 76.4718 100.738C82.6253 95.3192 91.5661 92.2 102.6 92.2V88.2ZM62.8 123.8C62.8 134.157 66.1918 142.561 72.9079 148.341C79.5784 154.082 89.258 157 101.4 157V153C89.842 153 81.2216 150.218 75.5171 145.309C69.8582 140.439 66.8 133.243 66.8 123.8H62.8ZM101.4 157C120.834 157 137.665 148.976 147.395 136.106L144.205 133.694C135.335 145.424 119.766 153 101.4 153V157ZM147.8 134.858C147.492 120.244 143.175 108.533 135.307 100.466C127.428 92.388 116.217 88.2 102.6 88.2V92.2C115.383 92.2 125.472 96.112 132.443 103.259C139.425 110.417 143.508 121.056 143.8 134.942L147.8 134.858Z" fill="#42409D"/>
</g>
<defs>
<clipPath id="clip0_6285_5557">
<rect width="215" height="315" fill="white"/>
</clipPath>
</defs>
</svg>
