<svg width="215" height="315" viewBox="0 0 215 315" fill="none" xmlns="http://www.w3.org/2000/svg">
<g clip-path="url(#clip0_6276_5542)">
<path d="M192.2 265V267H194.2V265H192.2ZM192.2 222.4H194.2V220.4H192.2V222.4ZM98.6 241.9L96.8044 242.781L97.6301 244.464L99.363 243.749L98.6 241.9ZM90.8 226L89.9182 224.205L88.124 225.086L89.0044 226.881L90.8 226ZM135.2 200.5L134.096 198.832L134.087 198.838L134.078 198.844L135.2 200.5ZM27.2 126.7H25.2V128.513L27.0046 128.69L27.2 126.7ZM76.1 131.5L75.9046 133.49L78.1 133.706V131.5H76.1ZM112.1 165.1L113.254 166.734L113.257 166.732L112.1 165.1ZM26.3 225.7L25.1462 224.066L24.3 224.664V225.7H26.3ZM26.3 265H24.3V267H26.3V265ZM194.2 265V222.4H190.2V265H194.2ZM192.2 220.4H179.9V224.4H192.2V220.4ZM179.9 220.4C144.358 220.4 116.723 232.257 97.837 240.051L99.363 243.749C118.277 235.943 145.242 224.4 179.9 224.4V220.4ZM100.396 241.019L92.5956 225.119L89.0044 226.881L96.8044 242.781L100.396 241.019ZM91.6818 227.795C108.867 219.353 126.947 208.506 136.322 202.156L134.078 198.844C124.853 205.094 106.933 215.847 89.9182 224.205L91.6818 227.795ZM136.304 202.168C158.133 187.716 172.124 175.311 180.633 162.374C189.192 149.362 192.1 135.974 192.1 119.8H188.1C188.1 135.426 185.308 147.988 177.292 160.176C169.226 172.439 155.767 184.484 134.096 198.832L136.304 202.168ZM192.1 119.8C192.1 98.1172 183.934 80.0082 169.639 67.3407C155.367 54.6929 135.138 47.6 111.2 47.6V51.6C134.362 51.6 153.583 58.4571 166.986 70.3343C180.366 82.1918 188.1 99.1828 188.1 119.8H192.1ZM111.2 47.6C83.5334 47.6 61.9882 55.3576 47.3477 69.2623C32.6963 83.1772 25.2 103.021 25.2 126.7H29.2C29.2 103.879 36.4037 85.1727 50.1023 72.1627C63.8118 59.1423 84.2666 51.6 111.2 51.6V47.6ZM27.0046 128.69L75.9046 133.49L76.2954 129.51L27.3954 124.71L27.0046 128.69ZM78.1 131.5C78.1 118.466 81.3942 109.189 86.8768 103.186C92.3365 97.2082 100.22 94.2 110 94.2V90.2C99.3805 90.2 90.3135 93.4917 83.9232 100.489C77.5558 107.461 74.1 117.834 74.1 131.5H78.1ZM110 94.2C118.108 94.2 124.749 96.8213 129.368 101.646C133.994 106.477 136.8 113.736 136.8 123.4H140.8C140.8 112.964 137.756 104.623 132.257 98.8793C126.751 93.1286 118.992 90.2 110 90.2V94.2ZM136.8 123.4C136.8 129.048 136.081 134.912 132.578 141.386C129.057 147.895 122.634 155.182 110.943 163.468L113.257 166.732C125.266 158.218 132.193 150.505 136.097 143.289C140.019 136.038 140.8 129.452 140.8 123.4H136.8ZM110.946 163.466L25.1462 224.066L27.4538 227.334L113.254 166.734L110.946 163.466ZM24.3 225.7V265H28.3V225.7H24.3ZM26.3 267H192.2V263H26.3V267Z" fill="#42409D"/>
</g>
<defs>
<clipPath id="clip0_6276_5542">
<rect width="215" height="315" fill="white"/>
</clipPath>
</defs>
</svg>
