<svg width="230" height="280" viewBox="0 0 230 280" fill="none" xmlns="http://www.w3.org/2000/svg">
<g clip-path="url(#clip0_3274_17549)">
<path d="M165.8 243V244H166.8V243H165.8ZM165.8 33H166.8V32H165.8V33ZM131.6 33V32H131.095L130.795 32.4068L131.6 33ZM62.6 69.3L62.4356 68.3136L61.6 68.4529V69.3H62.6ZM62.6 113.1H61.6V114.183L62.6791 114.097L62.6 113.1ZM123.5 84L124.198 83.284L123.491 82.5947L122.793 83.2929L123.5 84ZM135.5 95.7L136.207 96.4071L136.923 95.691L136.198 94.984L135.5 95.7ZM113.9 243H112.9V244H113.9V243ZM166.8 243V33H164.8V243H166.8ZM165.8 32H131.6V34H165.8V32ZM130.795 32.4068C118.402 49.2261 91.0821 63.5392 62.4356 68.3136L62.7644 70.2864C91.7179 65.4608 119.598 50.9739 132.405 33.5932L130.795 32.4068ZM61.6 69.3V113.1H63.6V69.3H61.6ZM62.6791 114.097C81.7954 112.58 104.225 104.69 124.207 84.7071L122.793 83.2929C103.175 102.91 81.2046 110.62 62.5209 112.103L62.6791 114.097ZM122.802 84.716L134.802 96.416L136.198 94.984L124.198 83.284L122.802 84.716ZM134.793 94.9929C118.043 111.743 112.9 130.938 112.9 155.7H114.9C114.9 131.262 119.957 112.657 136.207 96.4071L134.793 94.9929ZM112.9 155.7V243H114.9V155.7H112.9ZM113.9 244H165.8V242H113.9V244Z" fill="#F84722"/>
</g>
<defs>
<clipPath id="clip0_3274_17549">
<rect width="230" height="280" fill="white"/>
</clipPath>
</defs>
</svg>
