<svg width="230" height="280" viewBox="0 0 230 280" fill="none" xmlns="http://www.w3.org/2000/svg">
<g clip-path="url(#clip0_3440_17561)">
<path d="M167.6 140.4H166.6V141.235L167.421 141.384L167.6 140.4ZM167.6 126.6L167.371 125.627L166.6 125.808V126.6H167.6ZM65.3 126.6H66.3V125.808L65.529 125.627L65.3 126.6ZM65.3 140.4L65.4789 141.384L66.3 141.235V140.4H65.3ZM19.6 186.6C19.6 207.514 29.1694 223.351 46.134 233.911C63.0429 244.437 87.2544 249.7 116.6 249.7V247.7C87.4456 247.7 63.6571 242.463 47.191 232.214C30.7806 221.999 21.6 206.786 21.6 186.6H19.6ZM116.6 249.7C145.796 249.7 169.933 244.436 186.804 233.911C203.731 223.351 213.3 207.514 213.3 186.6H211.3C211.3 206.786 202.119 221.999 185.746 232.214C169.317 242.464 145.604 247.7 116.6 247.7V249.7ZM213.3 186.6C213.3 173.884 208.619 163.279 200.555 155.254C192.506 147.242 181.13 141.844 167.779 139.416L167.421 141.384C180.47 143.756 191.444 149.008 199.145 156.671C206.831 164.321 211.3 174.416 211.3 186.6H213.3ZM168.6 140.4V126.6H166.6V140.4H168.6ZM167.829 127.573C178.123 125.151 187.472 121.116 194.253 114.411C201.063 107.679 205.2 98.3377 205.2 85.5H203.2C203.2 97.8623 199.237 106.671 192.847 112.989C186.428 119.334 177.477 123.249 167.371 125.627L167.829 127.573ZM205.2 85.5C205.2 67.721 196.368 52.9513 180.865 42.6667C165.391 32.401 143.279 26.6 116.6 26.6V28.6C143.021 28.6 164.709 34.349 179.76 44.3333C194.782 54.2987 203.2 68.479 203.2 85.5H205.2ZM116.6 26.6C89.7715 26.6 67.5854 32.4006 52.0731 42.6661C36.5319 52.9507 27.7 67.7206 27.7 85.5H29.7C29.7 68.4793 38.1181 54.2993 53.1769 44.3339C68.2646 34.3494 90.0285 28.6 116.6 28.6V26.6ZM27.7 85.5C27.7 98.3377 31.837 107.679 38.6469 114.411C45.4284 121.116 54.7768 125.151 65.071 127.573L65.529 125.627C55.4232 123.249 46.4716 119.334 40.0531 112.989C33.663 106.671 29.7 97.8623 29.7 85.5H27.7ZM64.3 126.6V140.4H66.3V126.6H64.3ZM65.1211 139.416C51.7697 141.844 40.3942 147.242 32.3446 155.254C24.2808 163.279 19.6 173.884 19.6 186.6H21.6C21.6 174.416 26.0692 164.321 33.7554 156.671C41.4558 149.008 52.4303 143.756 65.4789 141.384L65.1211 139.416ZM81.3 93.3C81.3 85.2144 84.5239 79.3121 90.4524 75.3836C96.4437 71.4135 105.291 69.4 116.6 69.4V67.4C105.109 67.4 95.8063 69.4365 89.3476 73.7164C82.8261 78.0379 79.3 84.5856 79.3 93.3H81.3ZM116.6 69.4C127.757 69.4 136.529 71.4127 142.483 75.382C148.375 79.3104 151.6 85.2138 151.6 93.3H153.6C153.6 84.5862 150.075 78.0395 143.592 73.7179C137.171 69.4373 127.943 67.4 116.6 67.4V69.4ZM151.6 93.3C151.6 100.166 148.54 106.095 142.676 110.34C136.785 114.605 128.012 117.2 116.6 117.2V119.2C128.288 119.2 137.515 116.545 143.849 111.96C150.21 107.355 153.6 100.834 153.6 93.3H151.6ZM116.6 117.2C105.035 117.2 96.1872 114.604 90.259 110.338C84.3596 106.094 81.3 100.165 81.3 93.3H79.3C79.3 100.835 82.6904 107.356 89.091 111.962C95.4629 116.546 104.765 119.2 116.6 119.2V117.2ZM73.5 177.3C73.5 168.922 77.019 161.957 84.0951 157.047C91.2155 152.106 102.012 149.2 116.6 149.2V147.2C101.788 147.2 90.5345 150.144 82.9549 155.403C75.331 160.693 71.5 168.278 71.5 177.3H73.5ZM116.6 149.2C131.036 149.2 141.757 152.105 148.84 157.045C155.88 161.955 159.4 168.922 159.4 177.3H161.4C161.4 168.278 157.57 160.695 149.985 155.405C142.443 150.145 131.264 147.2 116.6 147.2V149.2ZM159.4 177.3C159.4 186.017 156.151 193.045 149.282 197.935C142.36 202.864 131.65 205.7 116.6 205.7V207.7C131.85 207.7 143.04 204.836 150.443 199.565C157.9 194.255 161.4 186.583 161.4 177.3H159.4ZM116.6 205.7C101.398 205.7 90.6127 202.864 83.653 197.934C76.7489 193.044 73.5 186.016 73.5 177.3H71.5C71.5 186.584 75.0011 194.256 82.497 199.566C89.9373 204.836 101.202 207.7 116.6 207.7V205.7Z" fill="#F84722"/>
</g>
<defs>
<clipPath id="clip0_3440_17561">
<rect width="230" height="280" fill="white"/>
</clipPath>
</defs>
</svg>
