<svg width="230" height="280" viewBox="0 0 230 280" fill="none" xmlns="http://www.w3.org/2000/svg">
<path d="M149.2 139.1L149.387 138.118L148.585 137.965L148.275 138.721L149.2 139.1ZM161.8 141.5L162.8 141.52L162.816 140.676L161.987 140.518L161.8 141.5ZM81.4 181.4L82.3487 181.084L82.0658 180.235L81.1909 180.422L81.4 181.4ZM29.5 192.5L29.2909 191.522L28.331 191.727L28.5184 192.691L29.5 192.5ZM158.8 113.9L159.598 114.503L159.807 114.226L159.8 113.879L158.8 113.9ZM116.8 25.6C88.1328 25.6 65.2322 33.1443 49.4805 46.4229C33.711 59.7165 25.2 78.681 25.2 101.3H27.2C27.2 79.2189 35.489 60.8335 50.7695 47.9521C66.0678 35.0557 88.4672 27.6 116.8 27.6V25.6ZM25.2 101.3C25.2 123.264 32.0978 140.495 44.2554 152.232C56.4075 163.964 73.7035 170.1 94.3 170.1V168.1C74.0965 168.1 57.3425 162.086 45.6446 150.793C33.9522 139.505 27.2 122.836 27.2 101.3H25.2ZM94.3 170.1C121.258 170.1 142.422 158.275 150.125 139.479L148.275 138.721C140.978 156.525 120.742 168.1 94.3 168.1V170.1ZM149.013 140.082L161.613 142.482L161.987 140.518L149.387 138.118L149.013 140.082ZM160.8 141.48C160.353 164.302 155.059 179.95 146.854 189.875C138.674 199.772 127.502 204.1 115 204.1V206.1C127.998 206.1 139.776 201.578 148.396 191.15C156.991 180.75 162.347 164.598 162.8 141.52L160.8 141.48ZM115 204.1C100.091 204.1 87.3007 195.94 82.3487 181.084L80.4513 181.716C85.6994 197.46 99.3085 206.1 115 206.1V204.1ZM81.1909 180.422L29.2909 191.522L29.7091 193.478L81.6091 182.378L81.1909 180.422ZM28.5184 192.691C34.9404 225.718 68.5024 248.7 112.9 248.7V246.7C69.0977 246.7 36.6596 224.082 30.4816 192.309L28.5184 192.691ZM112.9 248.7C142.982 248.7 168.312 238.566 186.118 219.546C203.917 200.532 214.1 172.741 214.1 137.6H212.1C212.1 172.359 202.033 199.618 184.657 218.179C167.288 236.734 142.518 246.7 112.9 246.7V248.7ZM214.1 137.6C214.1 103.409 206.043 75.3997 189.793 55.9219C173.518 36.4154 149.138 25.6 116.8 25.6V27.6C148.662 27.6 172.432 38.2345 188.257 57.2031C204.107 76.2003 212.1 103.691 212.1 137.6H214.1ZM115.6 70.2C128.592 70.2 138.961 74.181 146.159 81.5607C153.363 88.9461 157.504 99.8528 157.8 113.921L159.8 113.879C159.496 99.4472 155.237 88.0039 147.591 80.1643C139.939 72.319 129.008 68.2 115.6 68.2V70.2ZM158.002 113.297C148.918 125.312 133.033 133 114.4 133V135C133.567 135 150.082 127.088 159.598 114.503L158.002 113.297ZM114.4 133C102.696 133 93.8108 130.184 87.8648 125.067C81.9416 119.969 78.8 112.472 78.8 102.8H76.8C76.8 112.928 80.1084 121.031 86.5602 126.583C92.9892 132.116 102.404 135 114.4 135V133ZM78.8 102.8C78.8 92.7071 82.4481 84.5915 88.8109 78.9879C95.1876 73.3721 104.383 70.2 115.6 70.2V68.2C104.017 68.2 94.3124 71.4779 87.4891 77.487C80.6519 83.5084 76.8 92.1929 76.8 102.8H78.8Z" fill="#F84722"/>
</svg>
