<svg width="400" height="490" viewBox="0 0 400 490" fill="none" xmlns="http://www.w3.org/2000/svg">
<path fill-rule="evenodd" clip-rule="evenodd" d="M306 460H197.364V280.569C197.364 230.734 207.582 192.065 240.666 158.319L218.43 136.602C178.141 176.446 133.086 192.226 94.6465 195.282L93 195.413V103.207L94.2749 102.994C152.631 93.2514 208.352 64.0396 233.67 29.6217L234.127 29H306V460ZM218.42 134.457L242.832 158.3C242.833 158.3 242.832 158.3 242.832 158.3C242.472 158.661 242.114 159.023 241.758 159.386C209.043 192.753 198.89 230.978 198.89 280.569V458.472H304.474V30.5284H234.898C209.265 65.3752 153.116 94.7199 94.5258 104.501V193.758C95.0332 193.718 95.5418 193.675 96.0516 193.63C134.167 190.278 178.671 174.274 218.42 134.457Z" fill="#42409D"/>
<path d="M242.832 158.3C242.832 158.3 242.833 158.3 242.832 158.3ZM242.832 158.3C242.472 158.661 242.114 159.023 241.758 159.386C209.043 192.753 198.89 230.978 198.89 280.569V458.472H304.474V30.5284H234.898C209.265 65.3752 153.116 94.7199 94.5258 104.501V193.758C95.0332 193.718 95.5418 193.675 96.0516 193.63C134.167 190.278 178.671 174.274 218.42 134.457L242.832 158.3ZM306 460H197.364V280.569C197.364 230.734 207.582 192.065 240.666 158.319L218.43 136.602C178.141 176.446 133.086 192.226 94.6465 195.282L93 195.413V103.207L94.2749 102.994C152.631 93.2514 208.352 64.0396 233.67 29.6217L234.127 29H306V460Z" stroke="#42409D" stroke-width="2"/>
</svg>
