<svg width="230" height="280" viewBox="0 0 230 280" fill="none" xmlns="http://www.w3.org/2000/svg">
<g clip-path="url(#clip0_3440_17567)">
<path d="M125.9 50.1L126.704 49.5048L126.026 48.5906L125.207 49.3794L125.9 50.1ZM137.9 66.3L138.564 67.0474L139.248 66.4397L138.704 65.7048L137.9 66.3ZM95.6 122.1L94.7034 121.657L94.7029 121.658L95.6 122.1ZM37.1 240.9L36.2029 240.458L36.1 240.667V240.9H37.1ZM37.1 243H36.1V244H37.1V243ZM96.8 243V244H97.4348L97.705 243.425L96.8 243ZM177.2 72L178.105 72.4255L178.2 72.2233V72H177.2ZM177.2 33H178.2V32H177.2V33ZM16.4 33V32H15.4V33H16.4ZM16.4 75.3H15.4V76.3H16.4V75.3ZM50 76.3C89.8083 76.3 110.474 66.3319 126.593 50.8206L125.207 49.3794C109.526 64.4681 89.3917 74.3 50 74.3V76.3ZM125.096 50.6952L137.096 66.8952L138.704 65.7048L126.704 49.5048L125.096 50.6952ZM137.236 65.5526C118.239 82.4386 106.76 97.2422 94.7034 121.657L96.4966 122.543C108.44 98.3577 119.761 83.7613 138.564 67.0474L137.236 65.5526ZM94.7029 121.658L36.2029 240.458L37.9971 241.342L96.4971 122.542L94.7029 121.658ZM36.1 240.9V243H38.1V240.9H36.1ZM37.1 244H96.8V242H37.1V244ZM97.705 243.425L178.105 72.4255L176.295 71.5745L95.895 242.575L97.705 243.425ZM178.2 72V33H176.2V72H178.2ZM177.2 32H16.4V34H177.2V32ZM15.4 33V75.3H17.4V33H15.4ZM16.4 76.3H50V74.3H16.4V76.3Z" fill="#F84722"/>
</g>
<defs>
<clipPath id="clip0_3440_17567">
<rect width="230" height="280" fill="white"/>
</clipPath>
</defs>
</svg>
