<svg width="215" height="315" viewBox="0 0 215 315" fill="none" xmlns="http://www.w3.org/2000/svg">
<g clip-path="url(#clip0_6285_5548)">
<path d="M198.1 105.8L198.518 107.756L200.431 107.347L200.065 105.425L198.1 105.8ZM146.2 116.9L144.303 117.532L144.868 119.23L146.618 118.856L146.2 116.9ZM65.8 156.8L63.8004 156.761L63.7673 158.449L65.4258 158.765L65.8 156.8ZM78.4 159.2L78.0258 161.165L79.631 161.47L80.2506 159.958L78.4 159.2ZM68.8 184.4L67.2047 183.194L66.7858 183.748L66.8004 184.442L68.8 184.4ZM110.8 269.7C79.3248 269.7 55.8588 259.229 40.2205 240.566C24.5357 221.846 16.5 194.616 16.5 160.7H12.5C12.5 195.184 20.6643 223.454 37.1545 243.134C53.6912 262.871 78.3752 273.7 110.8 273.7V269.7ZM16.5 160.7C16.5 126.132 26.509 99.139 43.6726 80.8043C60.8248 62.4818 85.3137 52.6 114.7 52.6V48.6C84.3863 48.6 58.7752 58.8182 40.7524 78.0707C22.741 97.311 12.5 125.368 12.5 160.7H16.5ZM114.7 52.6C157.337 52.6 190.081 74.4599 196.135 106.175L200.065 105.425C193.519 71.1401 158.463 48.6 114.7 48.6V52.6ZM197.682 103.844L145.782 114.944L146.618 118.856L198.518 107.756L197.682 103.844ZM148.097 116.268C142.704 100.088 128.993 91.2 112.6 91.2V95.2C127.407 95.2 139.496 103.112 144.303 117.532L148.097 116.268ZM112.6 91.2C99.4994 91.2 87.4225 95.8219 78.5487 106.51C69.7202 117.143 64.2555 133.548 63.8004 156.761L67.7996 156.839C68.2445 134.152 73.5798 118.757 81.6263 109.065C89.6275 99.4281 100.501 95.2 112.6 95.2V91.2ZM65.4258 158.765L78.0258 161.165L78.7742 157.235L66.1742 154.835L65.4258 158.765ZM80.2506 159.958C87.3423 142.655 107.409 131.2 133.3 131.2V127.2C106.391 127.2 84.4577 139.145 76.5494 158.442L80.2506 159.958ZM133.3 131.2C153.307 131.2 169.79 137.152 181.261 148.226C192.721 159.29 199.4 175.679 199.4 197H203.4C203.4 174.821 196.43 157.31 184.039 145.349C171.66 133.398 154.093 127.2 133.3 127.2V131.2ZM199.4 197C199.4 218.812 191.222 236.908 176.186 249.583C161.114 262.289 138.966 269.7 110.8 269.7V273.7C139.634 273.7 162.786 266.111 178.764 252.642C194.778 239.142 203.4 219.888 203.4 197H199.4ZM112.3 231.1C124.067 231.1 133.956 227.769 140.93 221.556C147.93 215.32 151.8 206.351 151.8 195.5H147.8C147.8 205.349 144.32 213.18 138.27 218.569C132.194 223.981 123.333 227.1 112.3 227.1V231.1ZM151.8 195.5C151.8 185.143 148.408 176.739 141.692 170.959C135.022 165.218 125.342 162.3 113.2 162.3V166.3C124.758 166.3 133.378 169.082 139.083 173.991C144.742 178.861 147.8 186.057 147.8 195.5H151.8ZM113.2 162.3C94.0719 162.3 76.9385 170.32 67.2047 183.194L70.3953 185.606C79.2615 173.88 95.1281 166.3 113.2 166.3V162.3ZM66.8004 184.442C67.1081 199.056 71.4254 210.77 79.3343 218.838C87.2532 226.916 98.5393 231.1 112.3 231.1V227.1C99.3607 227.1 89.1968 223.184 82.1907 216.037C75.1746 208.88 71.0919 198.244 70.7996 184.358L66.8004 184.442Z" fill="#42409D"/>
</g>
<defs>
<clipPath id="clip0_6285_5548">
<rect width="215" height="315" fill="white"/>
</clipPath>
</defs>
</svg>
