<svg width="230" height="280" viewBox="0 0 230 280" fill="none" xmlns="http://www.w3.org/2000/svg">
<g clip-path="url(#clip0_3440_17551)">
<path d="M32.3 181.5L32.0604 180.529L31.2212 180.736L31.3047 181.597L32.3 181.5ZM93.5 124.8L92.8793 125.584L93.7378 126.264L94.337 125.347L93.5 124.8ZM79.1 113.4L78.4262 112.661L77.5568 113.454L78.4793 114.184L79.1 113.4ZM98.6 78L99.5923 78.124L99.5938 78.1118L99.595 78.0995L98.6 78ZM98.9 75V74H97.995L97.905 74.9005L98.9 75ZM195.2 75V76H196.2V75H195.2ZM195.2 33H196.2V32H195.2V33ZM55.7 33V32H54.8193L54.708 32.8736L55.7 33ZM41.6 143.7L40.608 143.574L40.4994 144.426L41.3262 144.662L41.6 143.7ZM82.7 155.4L82.4262 156.362L83.0393 156.536L83.4564 156.054L82.7 155.4ZM78.5 170.1L79.4895 169.955L79.33 168.865L78.2604 169.129L78.5 170.1ZM31.3047 181.597C35.2723 222.493 72.494 249.7 125.6 249.7V247.7C73.106 247.7 37.1277 220.907 33.2953 181.403L31.3047 181.597ZM125.6 249.7C152.459 249.7 175.207 242.835 191.26 229.635C207.339 216.414 216.6 196.919 216.6 171.9H214.6C214.6 196.381 205.561 215.286 189.99 228.09C174.393 240.915 152.141 247.7 125.6 247.7V249.7ZM216.6 171.9C216.6 150.233 209.626 132.039 196.96 119.259C184.293 106.477 166.021 99.2 143.6 99.2V101.2C165.579 101.2 183.307 108.323 195.54 120.666C207.774 133.011 214.6 150.667 214.6 171.9H216.6ZM143.6 99.2C121.724 99.2 103.079 108.322 92.663 124.253L94.337 125.347C104.321 110.078 122.276 101.2 143.6 101.2V99.2ZM94.1207 124.016L79.7207 112.616L78.4793 114.184L92.8793 125.584L94.1207 124.016ZM79.7738 114.139C90.1214 104.704 98.0583 90.3959 99.5923 78.124L97.6077 77.876C96.1417 89.6041 88.4786 103.496 78.4262 112.661L79.7738 114.139ZM99.595 78.0995L99.895 75.0995L97.905 74.9005L97.605 77.9005L99.595 78.0995ZM98.9 76H195.2V74H98.9V76ZM196.2 75V33H194.2V75H196.2ZM195.2 32H55.7V34H195.2V32ZM54.708 32.8736L40.608 143.574L42.592 143.826L56.692 33.1263L54.708 32.8736ZM41.3262 144.662L82.4262 156.362L82.9738 154.438L41.8738 142.738L41.3262 144.662ZM83.4564 156.054C92.8308 145.215 108.431 138.7 125.9 138.7V136.7C107.969 136.7 91.7692 143.385 81.9436 154.746L83.4564 156.054ZM125.9 138.7C138.198 138.7 147.45 141.738 153.618 147.293C159.77 152.834 163 161.009 163 171.6H165C165 160.591 161.63 151.816 154.957 145.807C148.3 139.812 138.502 136.7 125.9 136.7V138.7ZM163 171.6C163 181.745 159.918 190.076 153.681 195.88C147.435 201.693 137.887 205.1 124.7 205.1V207.1C138.213 207.1 148.315 203.607 155.044 197.345C161.782 191.074 165 182.155 165 171.6H163ZM124.7 205.1C112.393 205.1 101.974 202.282 94.2083 196.522C86.4627 190.776 81.2564 182.029 79.4895 169.955L77.5105 170.245C79.3436 182.771 84.7873 192.024 93.0167 198.128C101.226 204.218 112.107 207.1 124.7 207.1V205.1ZM78.2604 169.129L32.0604 180.529L32.5396 182.471L78.7396 171.071L78.2604 169.129Z" fill="#F84722"/>
</g>
<defs>
<clipPath id="clip0_3440_17551">
<rect width="230" height="280" fill="white"/>
</clipPath>
</defs>
</svg>
