<svg width="551" height="166" viewBox="0 0 551 166" fill="none" xmlns="http://www.w3.org/2000/svg">
<path d="M275.926 6.63386C249.626 6.63386 228.231 28.0302 228.231 54.3299C228.231 80.6295 249.626 102.027 275.926 102.027C302.226 102.027 323.622 80.6295 323.622 54.3299C323.622 28.0302 302.226 6.63386 275.926 6.63386ZM275.926 107.831C246.426 107.831 222.425 83.8314 222.425 54.3299C222.425 24.8298 246.426 0.829102 275.926 0.829102C305.426 0.829102 329.428 24.8298 329.428 54.3299C329.428 83.8314 305.426 107.831 275.926 107.831Z" fill="white"/>
<path d="M294.213 42.2526C294.213 42.2526 293.721 42.1861 288.335 42.6273V44.843C288.335 44.843 291.622 51.5413 291.622 56.2861C291.622 61.0323 292.012 74.4909 292.012 74.4909C292.012 74.4909 291.949 75.7993 292.273 76.8403C292.482 77.5058 293.405 78.7083 293.816 79.4841C293.985 79.8033 294.441 79.8033 294.61 79.4841C295.021 78.7083 295.945 77.5058 296.154 76.8403C296.478 75.7993 296.415 74.4909 296.415 74.4909C296.415 74.4909 296.804 61.0323 296.804 56.2861C296.804 51.5413 300.091 44.843 300.091 44.843V42.6273C294.705 42.1861 294.213 42.2526 294.213 42.2526Z" fill="white"/>
<path d="M283.877 37.1131H263.352L262.854 46.7225C263.66 46.4865 264.618 46.3207 265.731 46.2257C266.843 46.1308 267.848 46.0825 268.749 46.0825C271.21 46.0825 273.496 46.4383 275.604 47.1484C277.71 47.8584 279.545 48.8885 281.107 50.2385C282.67 51.587 283.888 53.2453 284.765 55.209C285.641 57.1756 286.079 60.6923 286.079 63.2492C286.079 66.0434 285.593 68.5404 284.622 70.7414C283.651 72.944 282.338 74.8031 280.681 76.3175C279.023 77.8334 277.081 78.9934 274.857 79.7978C272.631 80.6021 270.264 81.0053 267.756 81.0053C263.54 81.0053 259.989 80.0213 257.102 78.0576C254.214 76.0925 252.42 72.4625 251.095 69.0532L258.522 67.4701C259.233 69.4586 260.415 70.7414 262.074 71.9497C263.731 73.1565 265.695 73.7607 267.968 73.7607C269.247 73.7607 270.453 73.5481 271.59 73.1222C272.726 72.6949 273.72 72.0812 274.573 71.2754C275.425 70.4711 276.414 69.463 276.911 68.2562C277.408 67.0494 277.658 65.6891 277.658 64.1733C277.658 62.2315 277.325 59.3635 276.662 58.0865C275.999 56.8081 274.823 55.7773 273.757 54.9964C272.691 54.2147 271.494 53.6712 270.169 53.3637C268.844 53.0561 267.495 52.9013 266.121 52.9013C265.174 52.9013 264.169 52.9729 263.103 53.1146C262.038 53.2563 260.996 53.4587 259.978 53.718C258.959 53.9788 257.966 54.2747 256.995 54.6056C256.024 54.938 255.16 55.2923 254.403 55.6714L255.255 29.4434H283.837L283.877 37.1131Z" fill="white"/>
<path d="M298.891 34.0228C298.891 36.6052 296.798 38.6989 294.215 38.6989C291.633 38.6989 289.539 36.6052 289.539 34.0228C289.539 31.4404 291.633 29.3467 294.215 29.3467C296.798 29.3467 298.891 31.4404 298.891 34.0228Z" fill="white"/>
<path d="M0.922363 126.636H23.1997V132.801H7.19465V142.533H19.6852V148.59H7.19465V165.027H0.922363V126.636Z" fill="white"/>
<path d="M41.1582 126.637H47.4305V165.028H41.1582V126.637Z" fill="white"/>
<path d="M64.2461 126.637H71.1678L82.0358 151.185L92.9587 126.637H99.8263L82.0358 165.46L64.2461 126.637Z" fill="white"/>
<path d="M116.637 126.636H139.401V132.801H122.909V142.533H136.158V148.59H122.909V158.864H139.401V165.027H116.637V126.636Z" fill="white"/>
<path d="M179.755 126.637H186.028V165.028H179.755V126.637Z" fill="white"/>
<path d="M218.849 143.237C223.174 143.237 225.283 141.127 225.283 137.883C225.283 134.586 223.174 132.422 218.849 132.422H213.278V143.237H218.849ZM216.902 148.699H213.278V165.028H207.007V126.637H219.443C226.581 126.637 231.664 131.234 231.664 137.668C231.664 142.643 228.636 146.59 223.769 148.104L235.989 165.028H228.473L216.902 148.699Z" fill="white"/>
<path d="M281.315 145.833C281.315 138.155 275.637 132.152 268.066 132.152C260.496 132.152 254.818 138.155 254.818 145.833C254.818 153.51 260.496 159.513 268.066 159.513C275.637 159.513 281.315 153.51 281.315 145.833ZM248.438 145.833C248.438 134.748 257.197 126.204 268.066 126.204C278.989 126.204 287.695 134.748 287.695 145.833C287.695 156.918 278.989 165.461 268.066 165.461C257.197 165.461 248.438 156.918 248.438 145.833Z" fill="white"/>
<path d="M312.728 140.533V165.029H306.456V126.204L332.681 151.132V126.636H338.954V165.461L312.728 140.533Z" fill="white"/>
<path d="M378.973 145.833C378.973 134.748 387.734 126.204 398.602 126.204C404.063 126.204 409.092 128.096 412.607 131.773L408.551 136.208C406.172 133.666 402.386 132.152 398.602 132.152C391.031 132.152 385.353 138.155 385.353 145.833C385.353 153.51 391.031 159.513 398.602 159.513C401.413 159.513 404.279 158.81 406.442 157.459V148.59H395.898L398.656 142.534H412.715V160.54C409.145 163.622 404.008 165.461 398.602 165.461C387.734 165.461 378.973 156.918 378.973 145.833Z" fill="white"/>
<path d="M463.75 145.833C463.75 138.155 458.072 132.152 450.502 132.152C442.931 132.152 437.253 138.155 437.253 145.833C437.253 153.51 442.931 159.513 450.502 159.513C458.072 159.513 463.75 153.51 463.75 145.833ZM430.873 145.833C430.873 134.748 439.634 126.204 450.502 126.204C461.424 126.204 470.131 134.748 470.131 145.833C470.131 156.918 461.424 165.461 450.502 165.461C439.634 165.461 430.873 156.918 430.873 145.833Z" fill="white"/>
<path d="M488.909 126.636H495.181V158.81H511.348V165.027H488.909V126.636Z" fill="white"/>
<path d="M528.646 126.636H550.923V132.801H534.918V142.533H547.408V148.59H534.918V165.027H528.646V126.636Z" fill="white"/>
<path d="M0.931152 126.636H23.2085V132.801H7.20344V142.533H19.694V148.59H7.20344V165.027H0.931152V126.636Z" fill="white"/>
<path d="M41.1675 126.637H47.4398V165.028H41.1675V126.637Z" fill="white"/>
<path d="M64.2549 126.637H71.1766L82.0446 151.185L92.9675 126.637H99.8351L82.0446 165.46L64.2549 126.637Z" fill="white"/>
<path d="M116.646 126.636H139.41V132.801H122.918V142.533H136.167V148.59H122.918V158.864H139.41V165.027H116.646V126.636Z" fill="white"/>
<path d="M179.764 126.637H186.037V165.028H179.764V126.637Z" fill="white"/>
<path d="M218.858 143.237C223.183 143.237 225.292 141.127 225.292 137.883C225.292 134.586 223.183 132.422 218.858 132.422H213.288V143.237H218.858ZM216.911 148.699H213.288V165.028H207.016V126.637H219.453C226.591 126.637 231.673 131.234 231.673 137.668C231.673 142.643 228.645 146.59 223.778 148.104L235.998 165.028H228.483L216.911 148.699Z" fill="white"/>
<path d="M281.323 145.833C281.323 138.155 275.646 132.152 268.075 132.152C260.505 132.152 254.826 138.155 254.826 145.833C254.826 153.51 260.505 159.513 268.075 159.513C275.646 159.513 281.323 153.51 281.323 145.833ZM248.447 145.833C248.447 134.748 257.206 126.204 268.075 126.204C278.998 126.204 287.704 134.748 287.704 145.833C287.704 156.918 278.998 165.461 268.075 165.461C257.206 165.461 248.447 156.918 248.447 145.833Z" fill="white"/>
<path d="M312.728 140.533V165.029H306.456V126.204L332.681 151.132V126.636H338.954V165.461L312.728 140.533Z" fill="white"/>
<path d="M378.973 145.833C378.973 134.748 387.734 126.204 398.602 126.204C404.063 126.204 409.092 128.096 412.607 131.773L408.551 136.208C406.172 133.666 402.386 132.152 398.602 132.152C391.031 132.152 385.353 138.155 385.353 145.833C385.353 153.51 391.031 159.513 398.602 159.513C401.413 159.513 404.279 158.81 406.442 157.459V148.59H395.898L398.656 142.534H412.715V160.54C409.145 163.622 404.008 165.461 398.602 165.461C387.734 165.461 378.973 156.918 378.973 145.833Z" fill="white"/>
<path d="M463.759 145.833C463.759 138.155 458.081 132.152 450.51 132.152C442.94 132.152 437.262 138.155 437.262 145.833C437.262 153.51 442.94 159.513 450.51 159.513C458.081 159.513 463.759 153.51 463.759 145.833ZM430.882 145.833C430.882 134.748 439.642 126.204 450.51 126.204C461.433 126.204 470.14 134.748 470.14 145.833C470.14 156.918 461.433 165.461 450.51 165.461C439.642 165.461 430.882 156.918 430.882 145.833Z" fill="white"/>
<path d="M488.917 126.636H495.19V158.81H511.357V165.027H488.917V126.636Z" fill="white"/>
<path d="M528.646 126.636H550.923V132.801H534.918V142.533H547.408V148.59H534.918V165.027H528.646V126.636Z" fill="white"/>
<path d="M0.931152 126.636H23.2085V132.801H7.20344V142.533H19.694V148.59H7.20344V165.027H0.931152V126.636Z" fill="white"/>
<path d="M41.1675 126.637H47.4398V165.028H41.1675V126.637Z" fill="white"/>
<path d="M64.2549 126.637H71.1766L82.0446 151.185L92.9675 126.637H99.8351L82.0446 165.46L64.2549 126.637Z" fill="white"/>
<path d="M116.646 126.636H139.41V132.801H122.918V142.533H136.167V148.59H122.918V158.864H139.41V165.027H116.646V126.636Z" fill="white"/>
<path d="M179.764 126.637H186.037V165.028H179.764V126.637Z" fill="white"/>
<path d="M218.858 143.237C223.183 143.237 225.292 141.127 225.292 137.883C225.292 134.586 223.183 132.422 218.858 132.422H213.288V143.237H218.858ZM216.911 148.699H213.288V165.028H207.016V126.637H219.453C226.591 126.637 231.673 131.234 231.673 137.668C231.673 142.643 228.645 146.59 223.778 148.104L235.998 165.028H228.483L216.911 148.699Z" fill="white"/>
<path d="M281.323 145.833C281.323 138.155 275.646 132.152 268.075 132.152C260.505 132.152 254.826 138.155 254.826 145.833C254.826 153.51 260.505 159.513 268.075 159.513C275.646 159.513 281.323 153.51 281.323 145.833ZM248.447 145.833C248.447 134.748 257.206 126.204 268.075 126.204C278.998 126.204 287.704 134.748 287.704 145.833C287.704 156.918 278.998 165.461 268.075 165.461C257.206 165.461 248.447 156.918 248.447 145.833Z" fill="white"/>
<path d="M312.728 140.533V165.029H306.456V126.204L332.681 151.132V126.636H338.954V165.461L312.728 140.533Z" fill="white"/>
<path d="M378.973 145.833C378.973 134.748 387.734 126.204 398.602 126.204C404.063 126.204 409.092 128.096 412.607 131.773L408.551 136.208C406.172 133.666 402.386 132.152 398.602 132.152C391.031 132.152 385.353 138.155 385.353 145.833C385.353 153.51 391.031 159.513 398.602 159.513C401.413 159.513 404.279 158.81 406.442 157.459V148.59H395.898L398.656 142.534H412.715V160.54C409.145 163.622 404.008 165.461 398.602 165.461C387.734 165.461 378.973 156.918 378.973 145.833Z" fill="white"/>
<path d="M463.759 145.833C463.759 138.155 458.081 132.152 450.51 132.152C442.94 132.152 437.262 138.155 437.262 145.833C437.262 153.51 442.94 159.513 450.51 159.513C458.081 159.513 463.759 153.51 463.759 145.833ZM430.882 145.833C430.882 134.748 439.642 126.204 450.51 126.204C461.433 126.204 470.14 134.748 470.14 145.833C470.14 156.918 461.433 165.461 450.51 165.461C439.642 165.461 430.882 156.918 430.882 145.833Z" fill="white"/>
<path d="M488.917 126.636H495.19V158.81H511.357V165.027H488.917V126.636Z" fill="white"/>
<path d="M528.646 126.636H550.923V132.801H534.918V142.533H547.408V148.59H534.918V165.027H528.646V126.636Z" fill="white"/>
</svg>
