<svg width="24" height="24" viewBox="0 0 24 24" fill="none" xmlns="http://www.w3.org/2000/svg">
<g clip-path="url(#clip0_4642_18032)">
<path d="M12 24C18.6274 24 24 18.6274 24 12C24 5.37258 18.6274 0 12 0C5.37258 0 0 5.37258 0 12C0 18.6274 5.37258 24 12 24Z" fill="#0EF169"/>
<path d="M8.93359 17.4142L15.1039 23.5845C20.2144 22.2218 23.9998 17.5656 23.9998 12.0009C23.9998 11.8874 23.9998 11.7738 23.9998 11.6602L19.1544 7.19336L8.93359 17.4142Z" fill="#00762F"/>
<path d="M12.3025 14.6863C12.8325 15.2162 12.8325 16.1247 12.3025 16.6547L11.2048 17.7525C10.6748 18.2825 9.76627 18.2825 9.2363 17.7525L4.42873 12.9071C3.89876 12.3771 3.89876 11.4686 4.42873 10.9386L5.52652 9.84084C6.05649 9.31087 6.965 9.31087 7.49497 9.84084L12.3025 14.6863Z" fill="white"/>
<path d="M16.5048 6.3213C17.0348 5.79134 17.9433 5.79134 18.4733 6.3213L19.5711 7.4191C20.1011 7.94906 20.1011 8.85758 19.5711 9.38755L11.243 17.6778C10.7131 18.2077 9.80453 18.2077 9.27456 17.6778L8.17677 16.58C7.6468 16.05 7.6468 15.1415 8.17677 14.6115L16.5048 6.3213Z" fill="white"/>
</g>
<defs>
<clipPath id="clip0_4642_18032">
<rect width="24" height="24" fill="white"/>
</clipPath>
</defs>
</svg>
