<svg width="24" height="24" viewBox="0 0 24 24" fill="none" xmlns="http://www.w3.org/2000/svg">
<path d="M12 24C18.6274 24 24 18.6274 24 12C24 5.37258 18.6274 0 12 0C5.37258 0 0 5.37258 0 12C0 18.6274 5.37258 24 12 24Z" fill="#FA4919"/>
<path d="M23.9998 12.0968L20.8226 8.91964L19.3638 9.87345L12.0002 2.50977L10.3573 11.6107L3.17773 8.91964L9.63378 15.3757L6.54763 19.2911L11.2324 23.9758C11.4862 23.9918 11.7423 23.9999 12.0002 23.9999C18.5953 23.9999 23.9477 18.6796 23.9998 12.0968Z" fill="#791A00"/>
<path d="M12.0002 2.50977L14.7265 8.0338L20.8226 8.91964L16.4114 13.2195L17.4527 19.291L12.0002 16.4244L6.54762 19.291L7.58895 13.2195L3.17773 8.91964L9.27387 8.0338L12.0002 2.50977Z" fill="white"/>
<path d="M12 16.4262V16.4244L17.4525 19.291L16.4112 13.2195L20.8224 8.91964L14.7263 8.0338L12 2.50977V16.4262Z" fill="white"/>
<path d="M12 2.50977V11.2118L20.8224 8.91964L14.7263 8.0338L12 2.50977Z" fill="white"/>
<path d="M17.452 19.2902L11.9994 11.2109L6.54688 19.2902L11.9994 16.4236L17.452 19.2902Z" fill="white"/>
<path d="M17.4525 19.2902L12 11.2109V11.2158V16.4253V16.4236L17.4525 19.2902Z" fill="white"/>
<path d="M9.27387 8.0338L3.17773 8.91964L12.0002 11.2118V2.50977" fill="white"/>
</svg>
