<svg width="179" height="59" viewBox="0 0 179 59" fill="none" xmlns="http://www.w3.org/2000/svg">
<path d="M0 10.991C0 5.38467 4.54482 0.839844 10.1511 0.839844H168.513C174.12 0.839844 178.664 5.38467 178.664 10.991V48.7405C178.664 54.3469 174.12 58.8917 168.513 58.8917H10.1512C4.54483 58.8917 0 54.3469 0 48.7405V10.991Z" fill="#2B2B2B"/>
<path d="M33.8067 17.299C35.1875 15.7748 35.9601 13.6824 35.838 11.5485C33.928 11.5485 31.7134 12.6655 30.3114 14.3118C29.2139 15.6731 28.0358 17.807 28.4624 19.9401C30.4335 20.1844 32.5675 18.9452 33.8067 17.299Z" fill="white"/>
<path d="M42.4379 24.0618C42.0532 24.2912 38.4223 26.4572 38.4223 31.0763C38.4313 31.3629 38.4606 31.6348 38.494 31.9027H38.4924C39.094 36.712 43.322 38.4315 43.3986 38.4315C43.3842 38.4497 43.3525 38.5437 43.2996 38.7006C43.0546 39.4264 42.3549 41.4992 40.8184 43.6536C39.3358 45.9105 37.6896 48.1861 35.1901 48.1861C34.044 48.1861 33.2521 47.8364 32.4318 47.4742C31.5506 47.0851 30.6367 46.6815 29.2157 46.6815C27.6443 46.6815 26.674 47.1095 25.7684 47.5089C24.976 47.8584 24.2331 48.1861 23.1802 48.1861C20.6807 48.1861 18.9132 45.7884 17.3491 43.5526C15.3601 40.6876 13.674 36.2268 13.5461 31.9027C13.545 31.8586 13.5415 31.814 13.5381 31.7695C13.5344 31.7212 13.5307 31.6729 13.5298 31.6251C13.4883 29.2884 13.9361 26.9916 15.0735 25.0409C16.6783 22.3174 19.5441 20.4685 22.673 20.4074C24.0417 20.3614 25.3244 20.9043 26.4455 21.3788C27.2883 21.7356 28.0398 22.0537 28.6677 22.0537C29.2389 22.0537 30.0126 21.7804 30.9295 21.4565C32.2631 20.9855 33.8998 20.4074 35.6574 20.4074C36.9373 20.4082 40.3519 20.7941 42.4655 24.0451C42.4602 24.0485 42.4509 24.054 42.4379 24.0618Z" fill="white"/>
<path d="M56.4099 22.2569V12.7856H59.0254C60.6678 12.7856 61.9117 13.1643 62.7571 13.9216C63.6069 14.679 64.0319 15.8392 64.0319 17.4024C64.0319 18.9259 63.5717 20.1169 62.6515 20.9756C61.7312 21.8298 60.4873 22.2569 58.9197 22.2569H56.4099ZM57.5195 13.7895V21.253H58.9329C60.1747 21.253 61.1412 20.9359 61.8325 20.3019C62.5238 19.6678 62.8694 18.7101 62.8694 17.4288C62.8694 16.1563 62.5502 15.2316 61.9117 14.6548C61.2733 14.078 60.3023 13.7895 58.999 13.7895H57.5195Z" fill="white"/>
<path d="M68.5165 22.4154C67.4642 22.4154 66.6408 22.1028 66.0463 21.4775C65.4519 20.8479 65.1547 20.0069 65.1547 18.9545C65.1547 17.8669 65.4849 16.9929 66.1454 16.3324C66.8059 15.6675 67.6315 15.3351 68.6222 15.3351C69.6349 15.3351 70.4363 15.6587 71.0263 16.306C71.6208 16.9488 71.918 17.7965 71.918 18.8488C71.918 19.866 71.612 20.7158 70.9999 21.3983C70.3923 22.0764 69.5645 22.4154 68.5165 22.4154ZM68.576 21.4775C69.2585 21.4775 69.8001 21.2508 70.2007 20.7972C70.6058 20.3393 70.8084 19.703 70.8084 18.8885C70.8084 18.1135 70.6058 17.486 70.2007 17.0061C69.8001 16.5217 69.2585 16.2796 68.576 16.2796C67.8935 16.2796 67.3365 16.5239 66.9049 17.0127C66.4778 17.497 66.2643 18.1311 66.2643 18.9149C66.2643 19.7383 66.4778 20.3723 66.9049 20.8171C67.3365 21.2574 67.8935 21.4775 68.576 21.4775Z" fill="white"/>
<path d="M82.0762 15.4936L80.0485 22.2569H78.9257L77.5321 17.4156C77.4969 17.2879 77.4726 17.2042 77.4594 17.1646C77.4506 17.1206 77.4374 17.0479 77.4198 16.9466H77.3934C77.3714 17.0479 77.3516 17.1228 77.3339 17.1712C77.3207 17.2196 77.2965 17.2967 77.2613 17.4024L75.7488 22.2569H74.6392L72.5917 15.4936H73.7277L75.1279 20.4934C75.15 20.5683 75.1676 20.6387 75.1808 20.7048C75.194 20.7708 75.2094 20.8523 75.227 20.9492H75.2666C75.2887 20.8479 75.3085 20.7664 75.3261 20.7048C75.3437 20.6387 75.3657 20.5639 75.3921 20.4802L76.9509 15.4936H77.968L79.3682 20.5066C79.3858 20.5683 79.4034 20.6365 79.4211 20.7114C79.4387 20.7818 79.4585 20.8611 79.4805 20.9492H79.5201C79.5421 20.8611 79.5576 20.7928 79.5664 20.7444C79.5796 20.6916 79.6016 20.6123 79.6324 20.5066L81.0062 15.4936H82.0762Z" fill="white"/>
<path d="M88.8263 22.2569H87.7431V18.2412C87.7431 17.5763 87.6154 17.0831 87.36 16.7617C87.1046 16.4359 86.7238 16.273 86.2174 16.273C85.645 16.273 85.1804 16.4755 84.8238 16.8806C84.4715 17.2813 84.2954 17.7877 84.2954 18.3997V22.2569H83.2122V15.4936H84.2954V16.4579H84.3218C84.5772 16.0836 84.8898 15.804 85.2597 15.6191C85.6296 15.4297 86.0567 15.3351 86.541 15.3351C87.2808 15.3351 87.8466 15.575 88.2385 16.055C88.6304 16.5305 88.8263 17.2196 88.8263 18.1223V22.2569Z" fill="white"/>
<path d="M90.7417 22.2569V12.244H91.8249V22.2569H90.7417Z" fill="white"/>
<path d="M96.7851 22.4154C95.7327 22.4154 94.9093 22.1028 94.3149 21.4775C93.7205 20.8479 93.4232 20.0069 93.4232 18.9545C93.4232 17.8669 93.7535 16.9929 94.414 16.3324C95.0744 15.6675 95.9 15.3351 96.8908 15.3351C97.9035 15.3351 98.7049 15.6587 99.2949 16.306C99.8894 16.9488 100.187 17.7965 100.187 18.8488C100.187 19.866 99.8805 20.7158 99.2685 21.3983C98.6609 22.0764 97.8331 22.4154 96.7851 22.4154ZM96.8445 21.4775C97.527 21.4775 98.0686 21.2508 98.4693 20.7972C98.8744 20.3393 99.077 19.703 99.077 18.8885C99.077 18.1135 98.8744 17.486 98.4693 17.0061C98.0686 16.5217 97.527 16.2796 96.8445 16.2796C96.162 16.2796 95.605 16.5239 95.1735 17.0127C94.7464 17.497 94.5329 18.1311 94.5329 18.9149C94.5329 19.7383 94.7464 20.3723 95.1735 20.8171C95.605 21.2574 96.162 21.4775 96.8445 21.4775Z" fill="white"/>
<path d="M106.573 22.2569H105.49V21.3587H105.464C105.235 21.6977 104.944 21.9597 104.592 22.1446C104.244 22.3252 103.859 22.4154 103.436 22.4154C102.762 22.4154 102.234 22.2349 101.851 21.8738C101.472 21.5128 101.283 21.0614 101.283 20.5198C101.283 19.8858 101.481 19.3948 101.877 19.047C102.274 18.6947 102.828 18.4768 103.542 18.3931L105.49 18.1685V17.7392C105.49 17.2505 105.363 16.885 105.107 16.6428C104.856 16.3962 104.511 16.273 104.07 16.273C103.652 16.273 103.306 16.3676 103.033 16.557C102.76 16.7419 102.551 17.0017 102.406 17.3363L101.461 16.9466C101.681 16.4359 102.021 16.0396 102.478 15.7578C102.941 15.476 103.491 15.3351 104.13 15.3351C104.918 15.3351 105.521 15.5464 105.939 15.9691C106.362 16.3874 106.573 16.9753 106.573 17.7326V22.2569ZM105.49 19.5093V19.047L103.614 19.2583C103.196 19.3068 102.888 19.4278 102.69 19.6216C102.492 19.8109 102.393 20.0641 102.393 20.3811C102.393 20.729 102.507 21.0086 102.736 21.2199C102.965 21.4269 103.264 21.5304 103.634 21.5304C104.189 21.5304 104.636 21.341 104.975 20.9624C105.319 20.5793 105.49 20.0949 105.49 19.5093Z" fill="white"/>
<path d="M113.251 21.2662C113 21.6405 112.678 21.9267 112.287 22.1248C111.899 22.3185 111.468 22.4154 110.992 22.4154C110.045 22.4154 109.312 22.1138 108.793 21.5106C108.277 20.9029 108.02 20.0773 108.02 19.0338C108.02 17.8889 108.313 16.9863 108.898 16.3258C109.484 15.6653 110.248 15.3351 111.19 15.3351C111.648 15.3351 112.053 15.4187 112.405 15.5861C112.762 15.7534 113.044 15.9823 113.251 16.273H113.277V12.244H114.36V22.2569H113.277V21.2662H113.251ZM109.129 18.9809C109.129 19.7471 109.306 20.3547 109.658 20.8038C110.015 21.253 110.505 21.4775 111.131 21.4775C111.791 21.4775 112.313 21.2618 112.696 20.8303C113.084 20.3988 113.277 19.855 113.277 19.1989V18.2016C113.277 17.6644 113.09 17.2086 112.716 16.8344C112.346 16.4601 111.866 16.273 111.276 16.273C110.62 16.273 110.098 16.5041 109.711 16.9665C109.323 17.4288 109.129 18.1003 109.129 18.9809Z" fill="white"/>
<path d="M122.491 22.4154C121.439 22.4154 120.615 22.1028 120.021 21.4775C119.426 20.8479 119.129 20.0069 119.129 18.9545C119.129 17.8669 119.459 16.9929 120.12 16.3324C120.78 15.6675 121.606 15.3351 122.597 15.3351C123.609 15.3351 124.411 15.6587 125.001 16.306C125.595 16.9488 125.892 17.7965 125.892 18.8488C125.892 19.866 125.586 20.7158 124.974 21.3983C124.367 22.0764 123.539 22.4154 122.491 22.4154ZM122.55 21.4775C123.233 21.4775 123.775 21.2508 124.175 20.7972C124.58 20.3393 124.783 19.703 124.783 18.8885C124.783 18.1135 124.58 17.486 124.175 17.0061C123.775 16.5217 123.233 16.2796 122.55 16.2796C121.868 16.2796 121.311 16.5239 120.879 17.0127C120.452 17.497 120.239 18.1311 120.239 18.9149C120.239 19.7383 120.452 20.3723 120.879 20.8171C121.311 21.2574 121.868 21.4775 122.55 21.4775Z" fill="white"/>
<path d="M133.105 22.2569H132.022V18.2412C132.022 17.5763 131.894 17.0831 131.639 16.7617C131.383 16.4359 131.002 16.273 130.496 16.273C129.924 16.273 129.459 16.4755 129.102 16.8806C128.75 17.2813 128.574 17.7877 128.574 18.3997V22.2569H127.491V15.4936H128.574V16.4579H128.6C128.856 16.0836 129.168 15.804 129.538 15.6191C129.908 15.4297 130.335 15.3351 130.82 15.3351C131.559 15.3351 132.125 15.575 132.517 16.055C132.909 16.5305 133.105 17.2196 133.105 18.1223V22.2569Z" fill="white"/>
<path d="M141.704 21.8276C141.506 22.0257 141.288 22.171 141.051 22.2635C140.813 22.356 140.533 22.4022 140.212 22.4022C139.679 22.4022 139.267 22.2547 138.977 21.9597C138.686 21.6603 138.541 21.2332 138.541 20.6784V16.4183H137.378V15.4936H138.541V13.8952L139.624 13.7037V15.4936H141.434V16.4183H139.624V20.5859C139.624 20.9073 139.686 21.1407 139.809 21.286C139.932 21.4313 140.126 21.504 140.39 21.504C140.522 21.504 140.648 21.4775 140.766 21.4247C140.89 21.3719 141.017 21.2706 141.15 21.1209L141.704 21.8276Z" fill="white"/>
<path d="M148.639 22.2569H147.556V18.2412C147.556 17.5763 147.429 17.0831 147.173 16.7617C146.922 16.4359 146.541 16.273 146.031 16.273C145.458 16.273 144.994 16.4755 144.637 16.8806C144.285 17.2813 144.109 17.7899 144.109 18.4063V22.2569H143.025V12.244H144.109V16.4579H144.135C144.39 16.0836 144.703 15.804 145.073 15.6191C145.443 15.4297 145.87 15.3351 146.354 15.3351C147.094 15.3351 147.66 15.5728 148.052 16.0484C148.443 16.5239 148.639 17.2152 148.639 18.1223V22.2569Z" fill="white"/>
<path d="M156.096 19.0668H151.215C151.215 19.9034 151.413 20.5154 151.81 20.9029C152.21 21.286 152.686 21.4775 153.236 21.4775C153.65 21.4775 154.014 21.3829 154.326 21.1935C154.643 20.9998 154.905 20.7136 155.112 20.3349L155.997 20.784C155.759 21.2684 155.401 21.6625 154.921 21.9663C154.445 22.2657 153.859 22.4154 153.164 22.4154C152.265 22.4154 151.528 22.1182 150.951 21.5238C150.379 20.9293 150.092 20.0553 150.092 18.9017C150.092 17.8757 150.383 17.0259 150.964 16.3522C151.546 15.6741 152.29 15.3351 153.197 15.3351C154.117 15.3351 154.83 15.6147 155.337 16.1739C155.843 16.7287 156.096 17.5036 156.096 18.4988V19.0668ZM154.987 18.1619C154.987 17.5763 154.826 17.1162 154.504 16.7815C154.183 16.4425 153.741 16.273 153.177 16.273C152.631 16.273 152.184 16.4535 151.836 16.8145C151.493 17.1756 151.288 17.6247 151.222 18.1619H154.987Z" fill="white"/>
<path d="M55.4434 48.1829L62.4973 29.2403H66.0375L73.0386 48.1829H69.6569L68.0189 43.6917H60.3838L58.8118 48.1829H55.4434ZM61.2292 41.0233H67.1603L64.5712 33.507C64.5007 33.3133 64.4391 33.1416 64.3863 32.9919C64.3422 32.8334 64.2894 32.6396 64.2278 32.4107H64.1617C64.0913 32.622 64.034 32.8069 63.99 32.9655C63.9459 33.124 63.8887 33.3045 63.8183 33.507L61.2292 41.0233Z" fill="white"/>
<path d="M76.62 46.7695H76.5671V54.4047H73.4893V34.6563H76.5671V36.5849H76.62C77.1571 35.8363 77.8088 35.2771 78.575 34.9073C79.3499 34.5286 80.2174 34.3393 81.1773 34.3393C82.9738 34.3393 84.374 34.9337 85.3779 36.1226C86.3819 37.3114 86.8838 38.967 86.8838 41.0894C86.8838 43.3086 86.3202 45.1007 85.193 46.4657C84.0746 47.8219 82.5775 48.5 80.7017 48.5C79.8299 48.5 79.0505 48.3547 78.3636 48.064C77.6855 47.7734 77.1043 47.3419 76.62 46.7695ZM76.5275 40.8384V42.5028C76.5275 43.4979 76.8577 44.3301 77.5182 44.9994C78.1875 45.6687 79.0285 46.0033 80.0412 46.0033C81.1861 46.0033 82.0843 45.5674 82.736 44.6956C83.3965 43.8238 83.7267 42.6481 83.7267 41.1686C83.7267 39.7332 83.4229 38.6544 82.8153 37.9323C82.2164 37.2013 81.3886 36.8359 80.3319 36.8359C79.2134 36.8359 78.2976 37.2101 77.5843 37.9587C76.8797 38.7072 76.5275 39.6671 76.5275 40.8384Z" fill="white"/>
<path d="M91.2446 46.7695H91.1917V54.4047H88.1139V34.6563H91.1917V36.5849H91.2446C91.7818 35.8363 92.4334 35.2771 93.1996 34.9073C93.9746 34.5286 94.842 34.3393 95.8019 34.3393C97.5984 34.3393 98.9986 34.9337 100.003 36.1226C101.006 37.3114 101.508 38.967 101.508 41.0894C101.508 43.3086 100.945 45.1007 99.8176 46.4657C98.6992 47.8219 97.2021 48.5 95.3263 48.5C94.4545 48.5 93.6751 48.3547 92.9882 48.064C92.3102 47.7734 91.7289 47.3419 91.2446 46.7695ZM91.1521 40.8384V42.5028C91.1521 43.4979 91.4823 44.3301 92.1428 44.9994C92.8121 45.6687 93.6531 46.0033 94.6659 46.0033C95.8107 46.0033 96.709 45.5674 97.3606 44.6956C98.0211 43.8238 98.3513 42.6481 98.3513 41.1686C98.3513 39.7332 98.0475 38.6544 97.4399 37.9323C96.841 37.2013 96.0132 36.8359 94.9565 36.8359C93.8381 36.8359 92.9222 37.2101 92.2089 37.9587C91.5044 38.7072 91.1521 39.6671 91.1521 40.8384Z" fill="white"/>
<path d="M106.888 44.6031L109.622 43.2293C110.019 44.0835 110.556 44.722 111.234 45.1447C111.921 45.5674 112.722 45.7788 113.638 45.7788C114.73 45.7788 115.571 45.541 116.161 45.0655C116.76 44.5899 117.059 43.925 117.059 43.0708C117.059 42.243 116.764 41.5825 116.174 41.0894C115.584 40.5962 114.677 40.2043 113.453 39.9137C111.463 39.447 110.023 38.7865 109.134 37.9323C108.244 37.0692 107.799 35.9112 107.799 34.4581C107.799 32.7233 108.403 31.3715 109.609 30.4028C110.824 29.4253 112.321 28.9365 114.1 28.9365C115.439 28.9365 116.619 29.2315 117.641 29.8216C118.662 30.4028 119.481 31.2702 120.098 32.4239L117.442 33.7184C117.037 32.9699 116.557 32.4327 116.003 32.1068C115.448 31.781 114.774 31.6181 113.981 31.6181C112.995 31.6181 112.229 31.8426 111.683 32.2918C111.137 32.7321 110.864 33.3221 110.864 34.0619C110.864 34.8016 111.115 35.3828 111.617 35.8055C112.119 36.2282 113.022 36.5893 114.325 36.8887C116.333 37.3378 117.799 38.0291 118.724 38.9626C119.657 39.8961 120.124 41.151 120.124 42.7274C120.124 44.4094 119.565 45.792 118.446 46.8752C117.328 47.9584 115.734 48.5 113.664 48.5C112.07 48.5 110.679 48.1609 109.49 47.4828C108.31 46.8047 107.443 45.8448 106.888 44.6031Z" fill="white"/>
<path d="M128.527 47.2715C128.122 47.6589 127.651 47.9584 127.113 48.1697C126.576 48.3811 125.973 48.4867 125.304 48.4867C124.018 48.4867 123.045 48.1653 122.384 47.5224C121.733 46.8708 121.407 45.9197 121.407 44.6692V37.0604H119.135V34.6563H121.407V31.3407L124.472 30.7991V34.6563H127.919V37.0604H124.472V44.5635C124.472 45.1007 124.577 45.497 124.789 45.7524C125.009 46.0077 125.339 46.1354 125.779 46.1354C126.008 46.1354 126.233 46.0914 126.453 46.0033C126.673 45.9153 126.906 45.7436 127.153 45.4882L128.527 47.2715Z" fill="white"/>
<path d="M135.397 48.5C133.257 48.5 131.558 47.8703 130.299 46.611C129.039 45.3517 128.41 43.6564 128.41 41.5253C128.418 39.3677 129.088 37.6329 130.417 36.3207C131.747 34.9997 133.473 34.3393 135.596 34.3393C137.727 34.3393 139.409 34.9865 140.642 36.2811C141.875 37.5756 142.491 39.2488 142.491 41.3007C142.491 43.3966 141.839 45.1227 140.536 46.4789C139.241 47.8263 137.529 48.5 135.397 48.5ZM135.516 46.0033C136.732 46.0033 137.674 45.5894 138.343 44.7616C139.012 43.925 139.347 42.7978 139.347 41.38C139.347 40.015 139.008 38.9186 138.33 38.0908C137.661 37.2542 136.723 36.8359 135.516 36.8359C134.31 36.8359 133.346 37.2674 132.623 38.1304C131.901 38.9846 131.54 40.0942 131.54 41.4592C131.54 42.8771 131.897 43.9911 132.61 44.8013C133.324 45.6026 134.292 46.0033 135.516 46.0033Z" fill="white"/>
<path d="M151.435 37.4171C151.189 37.3202 150.934 37.2454 150.669 37.1925C150.414 37.1309 150.141 37.1001 149.85 37.1001C148.943 37.1001 148.208 37.5052 147.644 38.3153C147.081 39.1255 146.799 40.1823 146.799 41.4857V48.1829H143.721V34.6563H146.799V37.1001H146.852C147.169 36.237 147.636 35.5766 148.252 35.1186C148.868 34.6519 149.582 34.4185 150.392 34.4185C150.735 34.4185 151.052 34.4449 151.343 34.4978C151.634 34.5506 151.946 34.6519 152.281 34.8016L151.435 37.4171Z" fill="white"/>
<path d="M164.132 42.1726H154.792C154.819 43.4759 155.171 44.4578 155.849 45.1183C156.536 45.77 157.377 46.0958 158.372 46.0958C159.077 46.0958 159.702 45.9329 160.248 45.6071C160.794 45.2724 161.256 44.7793 161.635 44.1276L163.999 45.4089C163.383 46.3952 162.595 47.157 161.635 47.6942C160.684 48.2314 159.561 48.5 158.266 48.5C156.276 48.5 154.682 47.9011 153.485 46.7035C152.287 45.5058 151.688 43.7841 151.688 41.5385C151.688 39.3985 152.3 37.6637 153.524 36.3339C154.757 35.0041 156.298 34.3393 158.148 34.3393C160.05 34.3393 161.52 34.9073 162.56 36.0433C163.608 37.1793 164.132 38.8261 164.132 40.9837V42.1726ZM161.159 39.9798C161.159 38.923 160.895 38.104 160.367 37.5228C159.838 36.9415 159.116 36.6509 158.2 36.6509C157.24 36.6509 156.461 36.9724 155.862 37.6152C155.263 38.2493 154.902 39.0375 154.779 39.9798H161.159Z" fill="white"/>
</svg>
