<svg width="144" height="40.5" xmlns="http://www.w3.org/2000/svg">
 <g>
  <title>DUPR Logo</title>
  <path fill="#fff"  id="d"  d="m0.024,0.001l15.183,0a18.487,18.487 0 0 1 10.654,3.387a19.484,19.484 0 0 1 8.7,14.56a18.3,18.3 0 0 1 -2.228,10.707a19.863,19.863 0 0 1 -8.084,8.178a17.7,17.7 0 0 1 -8.525,2.359c-5.092,0.048 -10.183,0 -15.3,0l-0.424,0l0.024,-39.191zm9.792,31.031c1.414,0 2.784,0.085 4.137,0a10.707,10.707 0 0 0 10.33,-10.211c0.3,-4.537 -1.022,-8.36 -5.03,-10.949c-2.887,-1.863 -6.12,-1.857 -9.467,-1.7l0.031,22.865l-0.001,-0.005z" />
  <path fill="#fff" id="u" d="m59.598,0.001l9.215,0c0.373,0 0.551,0.121 0.514,0.5l0,0.22q0,11.727 -0.037,23.448a19.685,19.685 0 0 1 -2.013,8.98a12.072,12.072 0 0 1 -8.248,6.323a26.661,26.661 0 0 1 -14.975,-0.357c-4.81,-1.6 -7.5,-5.113 -8.488,-9.887a34.156,34.156 0 0 1 -0.661,-6.553c-0.08,-7.3 0,-14.613 0,-21.923a5.628,5.628 0 0 1 0.031,-0.688l9.792,0l0,20.777c0,1.64 0.1,3.286 0.233,4.919a7.143,7.143 0 0 0 1.462,3.818a5.723,5.723 0 0 0 3.945,2.2a10.481,10.481 0 0 0 4.9,-0.308a5.5,5.5 0 0 0 3.757,-4.236a25.431,25.431 0 0 0 0.523,-5.233c0.062,-7.013 0,-14.032 0,-21.052l0.05,-0.948z" />
  <path fill="#fff" id="p"  d="m79.506,26.011l0,13.138l-9.724,0l0,-39.094c0.214,0 0.428,-0.042 0.612,-0.042l16.3,0a16.319,16.319 0 0 1 5.673,1.011a10.43,10.43 0 0 1 6.5,6.654a16.343,16.343 0 0 1 0.154,10.2c-1.285,4.234 -4.284,6.7 -8.568,7.646a23.846,23.846 0 0 1 -4.149,0.442c-1.977,0.073 -3.959,0 -5.942,0l-0.856,0.045zm0.037,-18.218l0,10.385c1.836,0 3.672,0.115 5.508,-0.031a4.439,4.439 0 0 0 4.284,-4.107c0.545,-3.412 -1.15,-5.879 -4.48,-6.242a50.2,50.2 0 0 0 -5.312,-0.031l0,0.026z" />
  <path fill="#fff" id="r" d="m100.063,0.001l16.3,0a13.146,13.146 0 0 1 8.488,2.722a10.659,10.659 0 0 1 3.651,5.678a13.5,13.5 0 0 1 -0.19,8a9.346,9.346 0 0 1 -6.121,5.982c-0.667,0.236 -1.346,0.423 -2.16,0.678l12.49,16.108c-0.367,0 -0.575,0.042 -0.783,0.042l-10.648,0a1.1,1.1 0 0 1 -1.071,-0.562c-2.607,-4.029 -5.244,-8.039 -7.864,-12.062a39.575,39.575 0 0 0 -2.27,-3.254l0,15.817c-0.294,0 -0.508,0.055 -0.716,0.055l-8.371,0c-0.569,0 -0.753,-0.139 -0.753,-0.726l0,-37.813a2.81,2.81 0 0 1 0.018,-0.665zm9.791,17.808c2.026,0.036 4.008,0.187 5.9,-0.575a4.474,4.474 0 0 0 3.06,-3.744c0.22,-1.875 -0.043,-3.629 -1.683,-4.839c-2.185,-1.615 -4.737,-1.325 -7.264,-1.356l-0.013,10.514z" />
  <path  fill="#fff" id="Path_16" stroke="null" d="m135.34362,6.28046l0,-2.30583l1.48165,0a3.84889,3.71503 0 0 1 0.56821,0.04184a1.54823,1.49438 0 0 1 0.51092,0.15691a0.96454,0.931 0 0 1 0.3623,0.33176a1.124,1.08492 0 0 1 0.13934,0.57982a1.30825,1.26275 0 0 1 -0.15481,0.67098a0.95526,0.92204 0 0 1 -0.41957,0.35716a1.76033,1.69911 0 0 1 -0.59916,0.14047q-0.33751,0.0254 -0.71684,0.0254l-1.172,0.0015l-0.00003,0l-0.00001,-0.00001zm-1.11937,-3.2174l0,7.25223l1.11937,0l0,-3.11878l1.18594,0l1.96005,3.11878l1.20297,0l-2.05914,-3.20096a2.38581,2.30284 0 0 0 1.35005,-0.53947a1.87026,1.80521 0 0 0 0.54342,-1.43461a2.0127,1.94269 0 0 0 -0.6193,-1.55864a2.85803,2.75863 0 0 0 -1.90276,-0.51407l-2.78063,-0.00449l0.00003,0l0,0.00001zm-2.68464,3.59698a5.88326,5.67865 0 0 1 0.38706,-2.07271a5.31042,5.12573 0 0 1 1.06983,-1.66624a5.0209,4.84628 0 0 1 1.61325,-1.11183a4.83666,4.66845 0 0 1 2.0127,-0.40647a4.74067,4.5758 0 0 1 1.99256,0.40647a5.04721,4.87168 0 0 1 1.6055,1.11183a5.31042,5.12573 0 0 1 1.06983,1.66624a5.88326,5.67865 0 0 1 0.38706,2.07271a6.04892,5.83855 0 0 1 -0.38706,2.11455a5.39092,5.20344 0 0 1 -1.06363,1.69014a4.98529,4.81191 0 0 1 -1.6055,1.11929a4.74067,4.5758 0 0 1 -1.99256,0.40647a4.83666,4.66845 0 0 1 -2.0127,-0.40647a4.95432,4.78202 0 0 1 -1.61946,-1.11929a5.39092,5.20344 0 0 1 -1.06983,-1.68267a6.04892,5.83855 0 0 1 -0.38706,-2.12203l0,0.00001l0.00001,0zm-1.11937,0a6.57223,6.34366 0 0 0 0.49388,2.48068a6.47777,6.25249 0 0 0 1.34232,1.97408a6.0582,5.84751 0 0 0 1.97708,1.3016a6.03809,5.82809 0 0 0 2.39665,0.46475a5.9839,5.77578 0 0 0 2.38736,-0.46475a5.99009,5.78177 0 0 0 1.96005,-1.3016a6.5552,6.32722 0 0 0 1.33457,-1.97408a6.57223,6.34366 0 0 0 0.49388,-2.48068a6.41895,6.19571 0 0 0 -0.49388,-2.43883a6.47777,6.25249 0 0 0 -1.33457,-1.95764a6.16968,5.9551 0 0 0 -1.96005,-1.3016a5.8941,5.68912 0 0 0 -2.38736,-0.47223a5.95293,5.7459 0 0 0 -2.39665,0.47223a6.2409,6.02385 0 0 0 -1.97708,1.3016a6.40346,6.18076 0 0 0 -1.34232,1.95764a6.41895,6.19571 0 0 0 -0.49388,2.43883z" />
 </g>
</svg>