<svg width="203" height="59" viewBox="0 0 203 59" fill="none" xmlns="http://www.w3.org/2000/svg">
<path d="M0.703125 11.0991C0.703125 5.49282 5.24795 0.947998 10.8543 0.947998H192.306C197.912 0.947998 202.457 5.49282 202.457 11.0991V48.8487C202.457 54.455 197.912 58.9998 192.306 58.9998H10.8543C5.24795 58.9998 0.703125 54.455 0.703125 48.8487V11.0991Z" fill="#2B2B2B"/>
<path fill-rule="evenodd" clip-rule="evenodd" d="M15.3584 10.7452C14.9158 11.2202 14.6621 11.9518 14.6621 12.9028V46.7158C14.6621 47.6667 14.9158 48.3983 15.3751 48.8566L15.495 48.9579L34.4411 30.0118V29.586L15.4783 10.6439L15.3584 10.7452Z" fill="url(#paint0_linear_6223_5649)"/>
<path fill-rule="evenodd" clip-rule="evenodd" d="M40.7431 36.3519L34.4238 30.0306V29.5881L40.7451 23.2668L40.8818 23.3514L48.3585 27.6007C50.4994 28.8073 50.4994 30.7957 48.3585 32.019L40.8818 36.2683C40.8798 36.2673 40.7431 36.3519 40.7431 36.3519Z" fill="url(#paint1_linear_6223_5649)"/>
<path fill-rule="evenodd" clip-rule="evenodd" d="M40.8814 36.2671L34.4254 29.8092L15.3594 48.8752C16.0556 49.6236 17.2278 49.7082 18.5377 48.9765L40.8814 36.2671Z" fill="url(#paint2_linear_6223_5649)"/>
<path fill-rule="evenodd" clip-rule="evenodd" d="M40.8814 23.3533L18.5377 10.6607C17.2298 9.91229 16.0556 10.0136 15.3594 10.7619L34.4234 29.8093L40.8814 23.3533Z" fill="url(#paint3_linear_6223_5649)"/>
<path d="M67.5484 23.6095C67.028 24.0061 66.4233 24.3233 65.7343 24.5612C65.0453 24.7991 64.3118 24.9181 63.5336 24.9181C61.9921 24.9181 60.7554 24.4274 59.8235 23.446C58.8917 22.4646 58.4258 21.1659 58.4258 19.5501C58.4258 17.8648 58.8892 16.5018 59.8161 15.4609C60.748 14.42 61.9896 13.8995 63.541 13.8995C64.4778 13.8995 65.2833 14.0904 65.9574 14.472C66.6315 14.8537 67.1445 15.389 67.4964 16.078L66.396 16.5835C66.1234 16.0879 65.7442 15.7112 65.2585 15.4534C64.7727 15.1907 64.2002 15.0594 63.541 15.0594C62.396 15.0594 61.4741 15.4658 60.7752 16.2787C60.0813 17.0866 59.7343 18.1449 59.7343 19.4534C59.7343 20.7967 60.0838 21.8524 60.7827 22.6207C61.4865 23.384 62.4183 23.7657 63.5782 23.7657C64.0887 23.7657 64.5794 23.6988 65.0503 23.5649C65.5212 23.4311 65.9375 23.2328 66.2994 22.9701V20.3679H63.7492V19.2378H67.5484V23.6095Z" fill="white"/>
<path d="M75.5261 24.7396H69.8756V14.078H75.2882V15.2081H71.1246V18.7545H74.9759V19.8772H71.1246V23.6095H75.5261V24.7396Z" fill="white"/>
<path d="M83.645 15.2081H80.567V24.7396H79.3179V15.2081H76.2473V14.078H83.645V15.2081Z" fill="white"/>
<path d="M90.0837 24.7396H88.8346V14.078H90.0837V24.7396Z" fill="white"/>
<path d="M98.961 15.2081H95.8829V24.7396H94.6338V15.2081H91.5632V14.078H98.961V15.2081Z" fill="white"/>
<path d="M108.507 24.9181C107.001 24.9181 105.781 24.4224 104.849 23.4311C103.918 22.4348 103.452 21.1362 103.452 19.5352C103.452 17.8351 103.932 16.472 104.894 15.446C105.861 14.415 107.124 13.8995 108.686 13.8995C110.153 13.8995 111.338 14.3902 112.24 15.3716C113.142 16.3531 113.593 17.6542 113.593 19.275C113.593 20.9553 113.124 22.3159 112.188 23.3568C111.251 24.3976 110.024 24.9181 108.507 24.9181ZM108.507 23.7657C109.638 23.7657 110.55 23.3667 111.243 22.5687C111.937 21.7706 112.284 20.7297 112.284 19.446C112.284 18.1226 111.945 17.0619 111.266 16.2638C110.587 15.4609 109.697 15.0594 108.597 15.0594C107.452 15.0594 106.525 15.4584 105.816 16.2564C105.112 17.0495 104.76 18.1052 104.76 19.4237C104.76 20.7174 105.105 21.7657 105.794 22.5687C106.488 23.3667 107.392 23.7657 108.507 23.7657Z" fill="white"/>
<path d="M124.136 24.7396H122.604L117.117 16.2415C117.038 16.1226 116.981 16.0383 116.946 15.9887C116.911 15.9342 116.864 15.8599 116.805 15.7657H116.76C116.77 15.8648 116.778 16.021 116.782 16.2341C116.787 16.4423 116.79 16.7099 116.79 17.0371V24.7396H115.541V14.078H117.162L122.5 22.4423C122.594 22.591 122.666 22.7099 122.716 22.7991C122.765 22.8834 122.822 22.9825 122.887 23.0965H122.916C122.906 22.9478 122.899 22.7471 122.894 22.4943C122.889 22.2415 122.887 21.9392 122.887 21.5872V14.078H124.136V24.7396Z" fill="white"/>
<path d="M75.3872 45.9257C74.4637 46.6095 73.3936 47.1646 72.1769 47.5909C70.9603 48.0082 69.6948 48.2169 68.3805 48.2169C65.441 48.2169 63.1098 47.3511 61.387 45.6194C59.6642 43.8876 58.8027 41.5565 58.8027 38.6259C58.8027 35.6154 59.6642 33.1732 61.387 31.2994C63.1098 29.4167 65.3477 28.4754 68.1007 28.4754C69.8946 28.4754 71.4043 28.8306 72.6298 29.541C73.8553 30.2426 74.7834 31.2017 75.4139 32.4184L72.763 33.6972C72.2924 32.8713 71.6752 32.2585 70.9114 31.8589C70.1477 31.4593 69.2641 31.2594 68.2606 31.2594C66.4578 31.2594 64.9881 31.9033 63.8514 33.191C62.7235 34.4787 62.1596 36.2104 62.1596 38.3861C62.1596 40.6151 62.7235 42.3469 63.8514 43.5813C64.9881 44.8157 66.4845 45.4329 68.3405 45.4329C69.0598 45.4329 69.757 45.3441 70.4319 45.1665C71.1068 44.98 71.7018 44.7091 72.2169 44.3539V40.3976H67.9808V37.6668H75.3872V45.9257Z" fill="white"/>
<path d="M83.5013 48.2169C81.3433 48.2169 79.6293 47.582 78.3594 46.312C77.0895 45.0421 76.4545 43.3326 76.4545 41.1835C76.4634 39.0078 77.1383 37.2583 78.4793 35.9351C79.8203 34.603 81.5609 33.9369 83.7011 33.9369C85.8502 33.9369 87.5464 34.5897 88.7897 35.8951C90.033 37.2006 90.6546 38.8879 90.6546 40.957C90.6546 43.0706 89.9974 44.8112 88.6831 46.1788C87.3777 47.5376 85.6504 48.2169 83.5013 48.2169ZM83.6212 45.6993C84.8467 45.6993 85.7969 45.2819 86.4718 44.4471C87.1468 43.6035 87.4842 42.4668 87.4842 41.037C87.4842 39.6605 87.1423 38.5548 86.4585 37.7201C85.7836 36.8764 84.8378 36.4546 83.6212 36.4546C82.4045 36.4546 81.4321 36.8897 80.7039 37.76C79.9757 38.6215 79.6116 39.7404 79.6116 41.1169C79.6116 42.5467 79.9712 43.6701 80.6906 44.4871C81.4099 45.2952 82.3868 45.6993 83.6212 45.6993Z" fill="white"/>
<path d="M98.0626 48.2169C95.9046 48.2169 94.1907 47.582 92.9207 46.312C91.6508 45.0421 91.0159 43.3326 91.0159 41.1835C91.0247 39.0078 91.6997 37.2583 93.0406 35.9351C94.3816 34.603 96.1222 33.9369 98.2624 33.9369C100.412 33.9369 102.108 34.5897 103.351 35.8951C104.594 37.2006 105.216 38.8879 105.216 40.957C105.216 43.0706 104.559 44.8112 103.244 46.1788C101.939 47.5376 100.212 48.2169 98.0626 48.2169ZM98.1825 45.6993C99.408 45.6993 100.358 45.2819 101.033 44.4471C101.708 43.6035 102.046 42.4668 102.046 41.037C102.046 39.6605 101.704 38.5548 101.02 37.7201C100.345 36.8764 99.3991 36.4546 98.1825 36.4546C96.9659 36.4546 95.9934 36.8897 95.2652 37.76C94.537 38.6215 94.1729 39.7404 94.1729 41.1169C94.1729 42.5467 94.5326 43.6701 95.2519 44.4871C95.9712 45.2952 96.9481 45.6993 98.1825 45.6993Z" fill="white"/>
<path d="M119.098 47.1113C119.098 49.4114 118.472 51.1875 117.22 52.4397C115.976 53.6918 114.249 54.3179 112.038 54.3179C110.626 54.3179 109.396 54.0648 108.348 53.5586C107.3 53.0613 106.421 52.3464 105.71 51.414L107.962 49.7355C108.477 50.4548 109.058 50.9921 109.707 51.3473C110.364 51.7026 111.154 51.8802 112.078 51.8802C113.312 51.8802 114.271 51.525 114.955 50.8145C115.648 50.1041 115.994 49.0473 115.994 47.6441V46.0723H115.941C115.444 46.7738 114.835 47.3067 114.116 47.6708C113.405 48.0349 112.522 48.2169 111.465 48.2169C109.689 48.2169 108.264 47.6219 107.189 46.4319C106.114 45.2331 105.577 43.5635 105.577 41.4233C105.577 39.0788 106.19 37.245 107.415 35.9218C108.65 34.5985 110.195 33.9369 112.051 33.9369C112.859 33.9369 113.605 34.0879 114.289 34.3898C114.973 34.6918 115.523 35.1269 115.941 35.6953H115.994V34.2566H119.098V47.1113ZM116.021 41.5565V39.9713C116.021 38.9944 115.692 38.1641 115.035 37.4803C114.378 36.7965 113.53 36.4546 112.491 36.4546C111.336 36.4546 110.422 36.872 109.747 37.7068C109.072 38.5415 108.734 39.7315 108.734 41.2768C108.734 42.6532 109.045 43.7367 109.667 44.527C110.297 45.3085 111.168 45.6993 112.278 45.6993C113.388 45.6993 114.289 45.3174 114.982 44.5537C115.674 43.79 116.021 42.7909 116.021 41.5565Z" fill="white"/>
<path d="M121.204 47.8972V27.7028H124.308V47.8972H121.204Z" fill="white"/>
<path d="M138.11 41.8362H128.692C128.719 43.1506 129.074 44.1407 129.758 44.8068C130.451 45.464 131.299 45.7925 132.302 45.7925C133.013 45.7925 133.643 45.6282 134.194 45.2997C134.744 44.9622 135.211 44.4649 135.592 43.8077L137.977 45.0998C137.355 46.0945 136.56 46.8626 135.592 47.4044C134.633 47.9461 133.501 48.2169 132.196 48.2169C130.189 48.2169 128.581 47.6131 127.373 46.4053C126.166 45.1975 125.562 43.4614 125.562 41.1968C125.562 39.0388 126.179 37.2894 127.413 35.9484C128.657 34.6074 130.211 33.9369 132.076 33.9369C133.994 33.9369 135.477 34.5097 136.525 35.6553C137.582 36.8009 138.11 38.4616 138.11 40.6373V41.8362ZM135.113 39.625C135.113 38.5593 134.846 37.7334 134.314 37.1473C133.781 36.5612 133.053 36.2681 132.129 36.2681C131.161 36.2681 130.375 36.5922 129.771 37.2405C129.167 37.8799 128.803 38.6747 128.679 39.625H135.113Z" fill="white"/>
<path d="M147.571 41.2501V47.8972H144.401V28.7951H150.289C152.482 28.7951 154.165 29.3101 155.337 30.3403C156.518 31.3616 157.109 32.8357 157.109 34.7628C157.109 36.7254 156.452 38.2973 155.137 39.4784C153.823 40.6595 152.051 41.2501 149.822 41.2501H147.571ZM147.571 31.3926V38.6392H149.676C150.999 38.6392 152.011 38.3151 152.713 37.6668C153.423 37.0096 153.779 36.086 153.779 34.896C153.779 33.7504 153.446 32.8801 152.78 32.2851C152.122 31.6901 151.145 31.3926 149.849 31.3926H147.571Z" fill="white"/>
<path d="M158.109 47.8972V27.7028H161.213V47.8972H158.109Z" fill="white"/>
<path d="M173.763 47.8972H170.766V46.2055H170.713C170.233 46.8626 169.647 47.3644 168.954 47.7107C168.262 48.0482 167.489 48.2169 166.636 48.2169C165.375 48.2169 164.341 47.8573 163.533 47.1379C162.733 46.4186 162.334 45.4773 162.334 44.3139C162.334 43.0618 162.733 42.0582 163.533 41.3034C164.341 40.5397 165.495 40.0734 166.996 39.9047L170.779 39.4784V38.8257C170.779 37.982 170.544 37.3515 170.073 36.9341C169.603 36.5079 168.985 36.2947 168.222 36.2947C167.467 36.2947 166.832 36.4635 166.317 36.8009C165.802 37.1384 165.375 37.6224 165.038 38.2529L162.72 37.0673C163.182 36.1526 163.91 35.4022 164.905 34.8161C165.899 34.23 167.08 33.9369 168.448 33.9369C170.171 33.9369 171.485 34.3898 172.391 35.2957C173.306 36.1926 173.763 37.4981 173.763 39.212V47.8972ZM170.779 42.3557V41.6098L167.489 41.9694C166.734 42.0494 166.184 42.2581 165.837 42.5955C165.491 42.933 165.318 43.3859 165.318 43.9543C165.318 44.5315 165.513 45.0022 165.904 45.3663C166.303 45.7215 166.819 45.8991 167.449 45.8991C168.444 45.8991 169.247 45.5661 169.86 44.9C170.473 44.2251 170.779 43.377 170.779 42.3557Z" fill="white"/>
<path d="M188.045 34.2566L181.704 50.6147C181.233 51.8313 180.598 52.7505 179.799 53.3721C179.009 54.0026 178.045 54.3179 176.908 54.3179C176.358 54.3179 175.838 54.2557 175.35 54.1314C174.87 54.016 174.413 53.8295 173.978 53.5719L175.323 51.3873C175.599 51.5472 175.847 51.6582 176.069 51.7203C176.291 51.7914 176.522 51.8269 176.762 51.8269C177.179 51.8269 177.535 51.7203 177.828 51.5072C178.13 51.3029 178.4 50.9255 178.64 50.3749L179.639 48.0571L174.284 34.2566H177.668L180.798 43.3015C180.896 43.5768 180.971 43.821 181.025 44.0342C181.078 44.2473 181.14 44.5093 181.211 44.8201H181.278C181.34 44.5093 181.402 44.2518 181.464 44.0475C181.535 43.8432 181.615 43.6035 181.704 43.3282L184.861 34.2566H188.045Z" fill="white"/>
<defs>
<linearGradient id="paint0_linear_6223_5649" x1="45.7284" y1="-0.46709" x2="4.84222" y2="10.4348" gradientUnits="userSpaceOnUse">
<stop stop-color="#047ED6"/>
<stop offset="1" stop-color="#50E6FF"/>
</linearGradient>
<linearGradient id="paint1_linear_6223_5649" x1="51.1469" y1="29.8079" x2="29.9501" y2="29.8079" gradientUnits="userSpaceOnUse">
<stop stop-color="#FFDA1C"/>
<stop offset="1" stop-color="#FEB705"/>
</linearGradient>
<linearGradient id="paint2_linear_6223_5649" x1="37.3653" y1="33.3185" x2="13.0054" y2="74.3248" gradientUnits="userSpaceOnUse">
<stop stop-color="#D9414F"/>
<stop offset="1" stop-color="#8C193F"/>
</linearGradient>
<linearGradient id="paint3_linear_6223_5649" x1="10.5567" y1="-0.506155" x2="21.4238" y2="17.8097" gradientUnits="userSpaceOnUse">
<stop stop-color="#33C481"/>
<stop offset="1" stop-color="#61E3A7"/>
</linearGradient>
</defs>
</svg>
