<svg width="184" height="47" viewBox="0 0 184 47" fill="none" xmlns="http://www.w3.org/2000/svg">
<path d="M76.083 46.1931V41.073H67.7071C67.0211 41.4218 66.3268 41.8542 65.6241 42.3702C64.9215 42.8862 64.3725 43.333 63.9772 43.7106L62.866 42.6359C63.5366 42.0271 64.0817 41.4704 64.5013 40.9657C64.9209 40.461 65.2952 39.8842 65.6241 39.2351V23.2183H59.832V46.1931H76.083Z" fill="white"/>
<path d="M91.0544 46.8167C97.2768 46.8167 100.918 43.4033 100.918 37.3314V23.2183H95.1255V36.9047C95.1255 40.154 93.7685 41.6966 91.0544 41.6966C88.3404 41.6966 86.9503 40.1868 86.9503 36.9047V23.2183H81.1582V37.3314C81.1582 43.4033 84.8321 46.8167 91.0544 46.8167Z" fill="white"/>
<path d="M118.111 46.8166C123.705 46.7838 128.107 43.6001 129.067 38.2503L123.572 36.9046C122.877 40.0226 120.858 41.6965 118.012 41.6965C114.305 41.6965 111.757 38.8739 111.757 34.7056C111.757 30.5373 114.305 27.7147 118.012 27.7147C120.759 27.7147 122.679 29.2573 123.44 32.0471L128.868 30.5701C127.842 25.7454 123.539 22.6274 118.111 22.5946C110.466 22.5289 105.898 28.207 105.898 34.7056C105.898 41.2042 110.466 46.8823 118.111 46.8166Z" fill="white"/>
<path d="M147.148 23.2183C151.616 23.2183 154.165 25.6142 154.165 29.4543C154.165 33.7211 151.65 35.7231 147.115 36.0185V37.6596C149.829 37.9878 150.955 38.3488 152.312 41.5981L153.238 43.83C153.635 44.7162 153.933 45.3398 154.562 45.7008V46.1931H148.075C147.645 45.8321 147.479 45.4382 147.38 45.0772L145.957 41.5653C145.03 39.235 144.434 38.5786 142.349 38.5786H140.661V46.1931H134.869V23.2183H147.148ZM145.758 28.2071H140.661V33.5898H145.758C147.347 33.5898 148.373 32.6051 148.373 30.8656C148.373 29.0933 147.479 28.2071 145.758 28.2071Z" fill="white"/>
<path d="M174.62 23.2183L183.391 46.1931H177.135L173.462 35.198C172.767 33.0646 172.336 30.9969 172.171 29.1261H170.185C170.053 30.6687 169.755 32.638 168.894 35.198L165.187 46.1931H158.965L167.769 23.2183H174.62Z" fill="white"/>
<path d="M59.8379 0.511202H66.2051C68.8236 0.511202 70.6697 2.16894 70.6697 4.95694C70.6697 7.78263 68.8236 9.40268 66.2051 9.40268H62.7954V13.6977H59.8379V0.511202ZM62.7954 6.84073H65.9414C66.9398 6.84073 67.6933 6.1814 67.6933 4.9381C67.6933 3.65713 67.034 3.07315 65.9602 3.07315H62.7954V6.84073Z" fill="#AA9CFF"/>
<path d="M71.9496 7.10446C71.9496 3.09199 74.8695 0.172119 78.8066 0.172119C82.7437 0.172119 85.6636 3.09199 85.6636 7.10446C85.6636 11.1169 82.7437 14.0368 78.8066 14.0368C74.8695 14.0368 71.9496 11.1169 71.9496 7.10446ZM74.9448 7.10446C74.9448 9.66641 76.5272 11.4183 78.8066 11.4183C81.2367 11.4183 82.6684 9.57222 82.6684 7.10446C82.6684 4.58018 81.199 2.79059 78.8066 2.79059C76.433 2.79059 74.9448 4.54251 74.9448 7.10446Z" fill="#AA9CFF"/>
<path d="M89.2072 13.6977L86.2119 0.511202H89.2637L90.2809 5.67278C90.5823 7.23633 90.5258 9.04476 90.507 10.175H91.6184C91.7126 8.79987 91.9387 7.40587 92.4096 5.82348L94.0297 0.511202H96.4032L98.061 5.93651C98.4942 7.34935 98.7203 8.76219 98.8522 10.175H99.9448C99.9259 9.00709 99.8506 7.21749 100.133 5.76697L101.188 0.511202H104.221L101.245 13.6977H97.9479L96.3467 8.40427C95.8381 6.65235 95.5932 4.95694 95.5932 3.77016H94.8209C94.8209 4.9381 94.5948 6.52049 94.0485 8.42311L92.4661 13.6977H89.2072Z" fill="#AA9CFF"/>
<path d="M108.566 8.2159V11.0793H115.121V13.6977H105.608V0.511202H115.102V3.12967H108.566V5.78581H114.537V8.2159H108.566Z" fill="#AA9CFF"/>
<path d="M126.641 10.9662L127.206 12.3226C127.432 12.85 127.62 13.2268 127.978 13.434V13.6977H124.663C124.418 13.4905 124.305 13.2456 124.23 12.9819L123.401 10.9474C122.836 9.53455 122.421 9.13895 121.159 9.13895H119.935V13.6977H116.977V0.511202H123.759C126.302 0.511202 127.733 1.88637 127.733 4.10924C127.733 6.52049 126.302 7.68844 123.815 7.83914V8.70568C125.266 8.89406 125.887 9.17663 126.641 10.9662ZM119.935 6.577H123.08C124.135 6.577 124.795 5.93651 124.795 4.80624C124.795 3.65713 124.211 3.07315 123.062 3.07315H119.935V6.577Z" fill="#AA9CFF"/>
<path d="M132.481 8.2159V11.0793H139.036V13.6977H129.523V0.511202H139.018V3.12967H132.481V5.78581H138.452V8.2159H132.481Z" fill="#AA9CFF"/>
<path d="M140.892 0.511202H146.449C150.047 0.511202 152.44 2.86594 152.44 7.10446C152.44 11.3995 150.142 13.6977 146.393 13.6977H140.892V0.511202ZM143.85 11.0793H146.205C148.145 11.0793 149.482 10.1185 149.482 7.10446C149.482 4.42948 148.352 3.12967 146.205 3.12967H143.85V11.0793Z" fill="#AA9CFF"/>
<path d="M167.22 6.36978V7.10446C168.972 7.274 170.027 8.40427 170.027 10.1939C170.027 12.4544 168.256 13.6977 165.525 13.6977H159.252V0.511202H165.996C168.313 0.511202 169.613 1.73566 169.613 3.60061C169.613 5.08881 168.803 6.12489 167.22 6.36978ZM165.092 3.05432H162.153V5.7293H165.092C166.241 5.7293 166.674 5.27719 166.674 4.37297C166.674 3.52526 166.241 3.05432 165.092 3.05432ZM162.153 11.1546H165.355C166.636 11.1546 167.107 10.646 167.107 9.59106C167.107 8.53614 166.599 8.02752 165.355 8.02752H162.153V11.1546Z" fill="#AA9CFF"/>
<path d="M175.475 8.68684L170.464 0.511202H173.892L174.947 2.50802C175.437 3.48759 176.303 5.08881 176.417 6.44514H177.547C177.66 5.10765 178.338 3.77016 178.978 2.48918L180.015 0.511202H183.443L178.451 8.68684V13.6977H175.475V8.68684Z" fill="#AA9CFF"/>
<path fill-rule="evenodd" clip-rule="evenodd" d="M18.7865 46.33C18.734 46.1338 18.7294 45.9227 18.7813 45.7141L22.9692 28.8992H11.6855C11.277 28.8992 10.8949 28.6983 10.6639 28.3622C10.433 28.0261 10.3831 27.5981 10.5304 27.2181L18.723 0C8.30734 2.55503 0.580078 11.9537 0.580078 23.1573C0.580078 34.3835 8.33877 43.7977 18.7865 46.33ZM20.9745 46.7526C22.1004 46.9157 23.2518 47.0002 24.423 47.0002C37.591 47.0002 48.2659 36.3253 48.2659 23.1573C48.2659 12.8145 41.6803 4.00979 32.4736 0.70776L27.5854 17.9134H37.2798C37.7327 17.9134 38.1495 18.16 38.3666 18.5565C38.5838 18.9529 38.5666 19.436 38.3218 19.8161L21.0253 46.6795C21.0091 46.7046 20.9922 46.729 20.9745 46.7526Z" fill="url(#paint0_linear_6223_5554)"/>
<defs>
<linearGradient id="paint0_linear_6223_5554" x1="18.7751" y1="0.0157101" x2="43.9204" y2="53.5911" gradientUnits="userSpaceOnUse">
<stop offset="0.148924" stop-color="#3CED74"/>
<stop offset="1" stop-color="#00A033"/>
</linearGradient>
</defs>
</svg>
