<svg width="85" height="85" viewBox="0 0 85 85" fill="none" xmlns="http://www.w3.org/2000/svg">
<path d="M42.4719 6.77755C42.0216 6.78459 41.5925 6.96999 41.2787 7.29307C40.965 7.61614 40.7923 8.05049 40.7984 8.50079V18.7008C40.7953 18.9261 40.8369 19.1497 40.9209 19.3588C41.0049 19.5678 41.1296 19.7581 41.2878 19.9185C41.4459 20.0789 41.6344 20.2063 41.8423 20.2933C42.0501 20.3802 42.2731 20.425 42.4984 20.425C42.7237 20.425 42.9468 20.3802 43.1546 20.2933C43.3624 20.2063 43.5509 20.0789 43.7091 19.9185C43.8673 19.7581 43.992 19.5678 44.076 19.3588C44.16 19.1497 44.2016 18.9261 44.1984 18.7008V8.50079C44.2016 8.27335 44.159 8.0476 44.0733 7.8369C43.9876 7.6262 43.8605 7.43484 43.6995 7.27416C43.5385 7.11347 43.3469 6.98672 43.136 6.90142C42.9251 6.81612 42.6993 6.774 42.4719 6.77755ZM27.1984 8.47755C26.9179 8.47627 26.6414 8.54443 26.3936 8.67597C26.1457 8.8075 25.9343 8.99832 25.7782 9.2314C25.622 9.46449 25.526 9.73259 25.4986 10.0118C25.4712 10.291 25.5134 10.5727 25.6213 10.8317L29.0213 19.3317C29.0974 19.548 29.2164 19.7467 29.3713 19.9159C29.5262 20.085 29.7137 20.2211 29.9225 20.3159C30.1313 20.4107 30.3572 20.4622 30.5865 20.4675C30.8157 20.4727 31.0437 20.4315 31.2566 20.3463C31.4696 20.2611 31.6631 20.1338 31.8255 19.9718C31.9879 19.8099 32.1159 19.6168 32.2018 19.4042C32.2876 19.1915 32.3296 18.9637 32.3251 18.7344C32.3206 18.5051 32.2697 18.2791 32.1756 18.0699L28.7756 9.56993C28.6532 9.25025 28.4372 8.97494 28.1558 8.78003C27.8744 8.58513 27.5407 8.4797 27.1984 8.47755ZM57.7486 8.48087C57.4153 8.49256 57.0927 8.60205 56.8212 8.7957C56.5496 8.98935 56.341 9.2586 56.2213 9.56993L52.8213 18.0699C52.7272 18.2791 52.6763 18.5051 52.6718 18.7344C52.6673 18.9637 52.7093 19.1915 52.7951 19.4042C52.881 19.6168 53.0089 19.8099 53.1714 19.9718C53.3338 20.1338 53.5273 20.2611 53.7402 20.3463C53.9532 20.4315 54.1811 20.4727 54.4104 20.4675C54.6397 20.4622 54.8655 20.4107 55.0744 20.3159C55.2832 20.2211 55.4707 20.085 55.6256 19.9159C55.7805 19.7467 55.8995 19.548 55.9756 19.3317L59.3756 10.8317C59.4846 10.5689 59.5259 10.283 59.4958 10.0001C59.4657 9.71726 59.3651 9.44646 59.2032 9.21255C59.0413 8.97864 58.8233 8.78909 58.5692 8.66126C58.3151 8.53343 58.0329 8.4714 57.7486 8.48087ZM15.2984 18.7008C12.502 18.7008 10.1984 21.0043 10.1984 23.8008V26.208C9.61701 25.9751 9.15863 25.5008 8.49844 25.5008C5.70199 25.5008 3.39844 27.8043 3.39844 30.6008V51.0008C3.39844 53.7972 5.70199 56.1008 8.49844 56.1008C9.15863 56.1008 9.61701 55.6265 10.1984 55.3936V57.8008C10.1984 60.5972 12.502 62.9008 15.2984 62.9008C18.0949 62.9008 20.3984 60.5972 20.3984 57.8008V45.9008H23.7984V47.1193C23.7984 49.5039 24.6754 52.1238 26.3219 54.4074C27.6833 56.2956 29.7496 57.7653 32.1988 58.6342L30.6051 76.3481C30.585 76.5705 30.6089 76.7946 30.6755 77.0078C30.742 77.2209 30.8499 77.4189 30.993 77.5903C31.136 77.7618 31.3115 77.9034 31.5092 78.007C31.707 78.1107 31.9233 78.1743 32.1457 78.1944C32.3681 78.2144 32.5922 78.1905 32.8054 78.1239C33.0185 78.0573 33.2165 77.9494 33.3879 77.8063C33.5593 77.6632 33.7009 77.4878 33.8045 77.29C33.9081 77.0922 33.9718 76.8759 33.9918 76.6535L35.6918 57.741C35.7298 57.3213 35.6106 56.9023 35.3572 56.5655C35.1038 56.2287 34.7344 55.998 34.3205 55.9182C32.0737 55.4834 30.3153 54.1351 29.0777 52.4186C27.8402 50.7021 27.1984 48.6176 27.1984 47.1193V45.9008H32.2984V35.7008V32.3008C32.2984 31.3402 33.0379 30.6008 33.9984 30.6008C34.959 30.6008 35.6984 31.3402 35.6984 32.3008C35.7048 32.7475 35.8866 33.1738 36.2048 33.4874C36.5229 33.8011 36.9517 33.9769 37.3984 33.9769C37.8452 33.9769 38.274 33.8011 38.5921 33.4874C38.9102 33.1738 39.0921 32.7475 39.0984 32.3008V30.6008C39.0984 29.6402 39.8379 28.9008 40.7984 28.9008C41.759 28.9008 42.4984 29.6402 42.4984 30.6008V32.3008C42.5048 32.7475 42.6866 33.1738 43.0048 33.4874C43.3229 33.8011 43.7517 33.9769 44.1984 33.9769C44.6452 33.9769 45.074 33.8011 45.3921 33.4874C45.7102 33.1738 45.8921 32.7475 45.8984 32.3008C45.8984 31.3402 46.6379 30.6008 47.5984 30.6008C48.559 30.6008 49.2984 31.3402 49.2984 32.3008V34.0008C49.3048 34.4475 49.4866 34.8738 49.8048 35.1874C50.1229 35.5011 50.5517 35.6769 50.9984 35.6769C51.4452 35.6769 51.874 35.5011 52.1921 35.1874C52.5102 34.8738 52.6921 34.4475 52.6984 34.0008C52.6984 33.0402 53.4379 32.3008 54.3984 32.3008C55.359 32.3008 56.0984 33.0402 56.0984 34.0008V40.8008V42.5008V49.7922C56.0984 52.4779 54.4313 54.7333 52.0809 55.6526C51.7382 55.7862 51.4481 56.0274 51.2541 56.3399C51.0602 56.6524 50.9728 57.0194 51.0051 57.3858L52.7051 76.6502C52.7212 76.8753 52.782 77.0949 52.8838 77.2962C52.9857 77.4975 53.1266 77.6766 53.2983 77.8229C53.4701 77.9692 53.6692 78.0799 53.8842 78.1485C54.0991 78.217 54.3256 78.2421 54.5503 78.2223C54.7751 78.2025 54.9936 78.1381 55.1933 78.033C55.3929 77.9278 55.5696 77.784 55.7131 77.6098C55.8565 77.4357 55.9639 77.2347 56.0289 77.0187C56.094 76.8026 56.1153 76.5758 56.0918 76.3514L54.4648 57.9137C57.3537 56.2324 59.4984 53.363 59.4984 49.7922V45.9008H64.5984V57.8008C64.5984 60.5972 66.902 62.9008 69.6984 62.9008C72.4949 62.9008 74.7984 60.5972 74.7984 57.8008V55.3936C75.3799 55.6265 75.8382 56.1008 76.4984 56.1008C79.2949 56.1008 81.5984 53.7972 81.5984 51.0008V30.6008C81.5984 27.8043 79.2949 25.5008 76.4984 25.5008C75.8382 25.5008 75.3799 25.9751 74.7984 26.208V23.8008C74.7984 21.0043 72.4949 18.7008 69.6984 18.7008C66.902 18.7008 64.5984 21.0043 64.5984 23.8008V35.7008H59.4984V34.0008C59.4984 31.2043 57.1949 28.9008 54.3984 28.9008C53.3663 28.9008 52.549 29.4732 51.7422 30.0098C50.8676 28.4424 49.5047 27.2008 47.5984 27.2008C46.5663 27.2008 45.749 27.7732 44.9422 28.3098C44.0676 26.7424 42.7047 25.5008 40.7984 25.5008C38.8921 25.5008 37.5293 26.7424 36.6547 28.3098C35.8479 27.7732 35.0305 27.2008 33.9984 27.2008C31.202 27.2008 28.8984 29.5043 28.8984 32.3008V35.7008H20.3984V23.8008C20.3984 21.0043 18.0949 18.7008 15.2984 18.7008ZM15.2984 22.1008C16.259 22.1008 16.9984 22.8402 16.9984 23.8008V35.7008V45.9008V57.8008C16.9984 58.7613 16.259 59.5008 15.2984 59.5008C14.3379 59.5008 13.5984 58.7613 13.5984 57.8008V51.0008V30.6008V23.8008C13.5984 22.8402 14.3379 22.1008 15.2984 22.1008ZM69.6984 22.1008C70.659 22.1008 71.3984 22.8402 71.3984 23.8008V30.6008V51.0008V57.8008C71.3984 58.7613 70.659 59.5008 69.6984 59.5008C68.7379 59.5008 67.9984 58.7613 67.9984 57.8008V23.8008C67.9984 22.8402 68.7379 22.1008 69.6984 22.1008ZM8.49844 28.9008C9.45899 28.9008 10.1984 29.6402 10.1984 30.6008V51.0008C10.1984 51.9613 9.45899 52.7008 8.49844 52.7008C7.53789 52.7008 6.79844 51.9613 6.79844 51.0008V30.6008C6.79844 29.6402 7.53789 28.9008 8.49844 28.9008ZM76.4984 28.9008C77.459 28.9008 78.1984 29.6402 78.1984 30.6008V51.0008C78.1984 51.9613 77.459 52.7008 76.4984 52.7008C75.5379 52.7008 74.7984 51.9613 74.7984 51.0008V30.6008C74.7984 29.6402 75.5379 28.9008 76.4984 28.9008ZM20.3984 39.1008H28.8984V42.5008H20.3984V39.1008ZM59.4984 39.1008H64.5984V42.5008H59.4984V40.8008V39.1008Z" fill="#7A96AC"/>
</svg>
