<svg width="74" height="74" viewBox="0 0 74 74" fill="none" xmlns="http://www.w3.org/2000/svg">
<path d="M37 5.91992C18.2456 5.91992 2.95996 19.0607 2.95996 35.5141C2.95996 45.059 8.18621 53.3724 16.2222 58.801C16.2106 59.119 16.2337 59.6393 15.8175 61.1887C15.2971 63.1138 14.245 65.8195 12.1175 68.872L10.6028 71.0399H13.2506C22.4081 71.0399 27.7095 65.0679 28.5304 64.1082C31.2592 64.7499 34.0631 65.0968 37 65.0968C55.7486 65.0968 71.04 51.956 71.04 35.5084C71.04 19.0607 55.7543 5.91992 37 5.91992ZM37 8.87992C54.1356 8.87992 68.08 20.824 68.08 35.5141C68.08 50.1985 54.1356 62.1426 37 62.1426C34.3811 62.1426 31.8315 61.842 29.2068 61.2291L27.4493 60.8187L26.2815 62.183C25.2698 63.3682 21.8646 66.8485 16.2568 67.8255C17.3321 65.8946 18.1415 63.929 18.6676 61.9576C19.0839 60.4313 19.159 59.6277 19.1764 58.9224L19.2457 57.2748L17.8756 56.3498C10.279 51.2102 5.91996 43.6137 5.91996 35.5141C5.91996 20.824 19.8643 8.87992 37 8.87992ZM36.8901 19.2399C36.2773 19.2399 35.7281 19.6157 35.5026 20.188L32.1437 28.912L22.8012 29.4149C22.1884 29.4496 21.6623 29.8601 21.4715 30.4382C21.2865 31.0163 21.4715 31.658 21.9456 32.0454L29.2068 37.9423L26.8018 46.9784C26.64 47.568 26.8654 48.1982 27.3568 48.5566C27.854 48.9151 28.5189 48.9382 29.0334 48.6029L36.8843 43.5212L44.7411 48.6029C45.2498 48.9382 45.9204 48.9151 46.4118 48.5566C46.909 48.1982 47.1287 47.568 46.9726 46.9784L44.5618 37.9423L51.8231 32.0454C52.2971 31.658 52.4879 31.0163 52.2971 30.4382C52.1121 29.8601 51.5803 29.4496 50.9732 29.4149L41.6307 28.912L38.2661 20.188C38.0464 19.6157 37.5029 19.2399 36.8901 19.2399ZM36.8843 24.8362L39.2142 30.8718C39.4223 31.4152 39.9311 31.7852 40.515 31.8199L46.9842 32.1668L41.9545 36.2484C41.5036 36.6184 41.307 37.2138 41.4573 37.7804L43.1281 44.0299L37.6937 40.5149C37.2023 40.197 36.5721 40.197 36.0807 40.5149L30.6464 44.0299L32.3114 37.7804C32.4617 37.2138 32.2709 36.6184 31.82 36.2484L26.7903 32.1668L33.2537 31.8199C33.8376 31.7852 34.3464 31.4152 34.5545 30.8718L36.8843 24.8362Z" fill="#6D5132"/>
</svg>
