<svg width="84" height="84" viewBox="0 0 84 84" fill="none" xmlns="http://www.w3.org/2000/svg">
<path d="M32.1153 27.2344C31.2097 27.2344 30.4747 27.9694 30.4747 28.875C30.4747 29.7806 31.2097 30.5156 32.1153 30.5156C33.0209 30.5156 33.7559 29.7806 33.7559 28.875C33.7559 27.9694 33.0209 27.2344 32.1153 27.2344Z" fill="#7A96AC"/>
<path d="M78.0529 0H64.9279C64.2696 0 63.6751 0.393259 63.4178 0.999143L54.9904 20.836H40.3303C39.5359 11.6959 31.8882 4.44545 22.4763 4.38409C22.4666 4.38376 22.4568 4.38392 22.4472 4.38359C22.4433 4.38359 22.4395 4.38294 22.4356 4.38294C22.4335 4.38294 22.4315 4.38327 22.4295 4.38327C22.4044 4.38277 22.3795 4.38212 22.3536 4.38212C12.3977 4.38212 4.30666 12.4512 4.30666 22.429V22.4814C4.33537 32.3891 12.3382 40.4244 22.2518 40.4741C22.2584 40.4741 22.2648 40.4751 22.2715 40.4751C22.2765 40.4751 22.2812 40.4745 22.2861 40.4743C22.3094 40.4745 22.3326 40.4745 22.356 40.4745C24.5482 40.4745 26.7429 40.0845 28.8967 39.3162L43.5997 56.4939V74.9188L34.4865 80.9942C33.8849 81.3952 33.6168 82.1428 33.8263 82.8347C34.0358 83.5267 34.6737 84 35.3966 84H55.0841C55.807 84 56.4448 83.5267 56.6543 82.8347C56.8637 82.1428 56.5958 81.3953 55.9942 80.9942L46.881 74.9188V56.6901L46.9182 56.6425L75.2486 23.5435C76.158 22.481 75.4008 20.836 74.0022 20.836H58.5557L66.0136 3.28126H78.0529C78.9588 3.28126 79.6935 2.54675 79.6935 1.64063C79.6935 0.734509 78.9588 0 78.0529 0ZM37.0323 20.836H26.348L33.8937 13.2203C35.6518 15.415 36.734 18.0389 37.0323 20.836ZM24.0762 7.7669C26.8308 8.08469 29.4134 9.16307 31.575 10.8987L24.0762 18.4669V7.7669ZM20.795 7.74606V18.5501L13.1383 10.8934C15.3423 9.12517 17.9813 8.03924 20.795 7.74606ZM10.8183 13.2141L18.4402 20.836H7.67487C7.97346 18.0362 9.05726 15.4101 10.8183 13.2141ZM7.68586 24.1172H15.8874L17.0209 25.4416L10.8183 31.6439C9.07744 29.4729 7.99856 26.8799 7.68586 24.1172ZM20.6309 29.6658V37.0917C17.8807 36.7747 15.3005 35.6978 13.1386 33.9641L19.1609 27.9419L20.6311 29.6596C20.6312 29.6617 20.6309 29.6637 20.6309 29.6658ZM23.9122 37.1138V33.4928L26.58 36.6096C25.6934 36.8541 24.8027 37.0231 23.9122 37.1138ZM49.6656 80.7189H40.8151L45.2403 77.7689L49.6656 80.7189ZM45.3224 53.4607L30.654 36.3232C30.6448 36.312 30.6353 36.3014 30.6259 36.2904L20.2065 24.1172C32.4651 24.1172 41.1205 24.1172 53.5965 24.1172L52.2722 27.2344H38.678C37.772 27.2344 37.0374 27.9689 37.0374 28.8751C37.0374 29.7812 37.772 30.5157 38.678 30.5157H50.8783L46.0866 41.795C45.7323 42.6289 46.1212 43.5923 46.9551 43.9465C47.7817 44.2981 48.7493 43.919 49.1066 43.0781L54.4433 30.5157H64.9615L45.3224 53.4607ZM70.4381 24.1172L67.7701 27.2344H55.8375L57.1618 24.1172H70.4381Z" fill="#7A96AC"/>
</svg>
