<svg width="74" height="74" viewBox="0 0 74 74" fill="none" xmlns="http://www.w3.org/2000/svg">
<g clip-path="url(#clip0_7972_9876)">
<path d="M41.9026 -0.0465434C41.4632 0.0112691 41.0701 0.265645 40.8388 0.647207C40.0526 1.78611 37.7285 2.85564 35.3351 2.95971C32.9416 3.06377 30.7794 2.32377 29.8313 0.739707C29.5307 0.19627 28.9179 -0.0985747 28.3051 -0.000293403C27.5015 0.121113 26.9465 0.861113 27.0563 1.66471C27.3627 4.43971 26.6343 6.24346 25.8538 7.44596C25.0734 8.64846 24.3738 9.11096 24.3738 9.11096C23.8824 9.37111 23.576 9.88564 23.5818 10.4406C23.5876 10.9956 23.9055 11.4986 24.4085 11.7472C24.9057 11.9958 25.5012 11.938 25.9463 11.6085C25.9463 11.6085 27.2644 10.7471 28.3513 9.06471C29.0451 7.99518 29.5596 6.42268 29.8313 4.62471C31.5079 5.59596 33.5313 6.00064 35.4738 5.91971C37.5782 5.83299 39.4744 5.09877 41.1163 4.02346C41.5268 5.22596 42.1396 6.32439 43.0588 7.12221C44.5793 8.44033 46.6548 9.04158 48.9326 8.87971C49.7477 8.82768 50.3721 8.12236 50.3201 7.30721C50.268 6.49205 49.5627 5.86768 48.7476 5.91971C47.0941 6.03533 45.8512 5.59596 45.0013 4.85596C44.1515 4.11596 43.6138 3.02908 43.5676 1.43346C43.5734 1.00564 43.3884 0.600957 43.0704 0.317676C42.7524 0.0343941 42.3246 -0.0985747 41.9026 -0.0465434ZM57.9051 7.86221C57.8588 7.87377 57.8126 7.89111 57.7663 7.90846L35.4738 14.1522C34.7685 14.3546 34.3118 15.0425 34.4101 15.771L16.5576 10.776C16.3784 10.7239 16.1876 10.7124 16.0026 10.7297C15.4649 10.7933 15.0024 11.146 14.8001 11.6547C14.8001 11.6547 10.2155 23.7549 8.55632 29.6922C7.18617 34.6005 6.93757 39.7458 8.14007 44.076C9.20961 47.9436 11.5799 51.21 15.3088 52.771L12.3951 63.2697C11.2504 63.0211 10.1577 62.8245 9.15757 62.761C7.74695 62.6685 6.48086 62.7436 5.36507 62.9922C3.13351 63.4952 1.40492 64.7728 0.878824 66.646C0.670699 67.4264 1.12164 68.2242 1.89632 68.4497L21.5063 73.9535C21.8879 74.0691 22.2984 74.0228 22.6452 73.832C22.9921 73.6413 23.2465 73.3175 23.3563 72.936C23.8766 71.0628 23.0152 69.0625 21.3676 67.4785C19.9627 66.1256 17.8873 64.9636 15.2163 64.056L18.1763 53.5572C18.7602 53.6497 19.321 53.7422 19.8876 53.7422C23.7841 53.7422 27.224 51.7072 29.9238 48.701C32.6237 45.6947 34.6818 41.6536 35.8901 37.3235C36.3873 35.5486 36.9654 33.1494 37.5088 30.6635C37.8268 32.0567 38.139 33.4385 38.4338 34.5022C39.6421 38.8266 41.7002 42.8272 44.4001 45.8335C47.0999 48.8397 50.5398 50.8747 54.4363 50.8747C55.0144 50.8747 55.5984 50.788 56.1938 50.6897L59.0613 61.1885C56.4135 62.0961 54.3554 63.2697 52.9563 64.611C51.3087 66.195 50.4935 68.1953 51.0138 70.0685C51.2393 70.8431 52.0371 71.2941 52.8176 71.086L72.4276 65.6285C72.8091 65.5186 73.1329 65.2642 73.3237 64.9174C73.5144 64.5705 73.5607 64.16 73.4451 63.7785C72.9248 61.8995 71.1904 60.6277 68.9588 60.1247C67.843 59.8761 66.5769 59.801 65.1663 59.8935C64.1662 59.957 63.0735 60.1536 61.9288 60.4022L59.0151 49.9035C62.744 48.3425 65.1143 45.0761 66.1838 41.2085C67.3863 36.8783 67.1377 31.7792 65.7676 26.871C64.1084 20.9336 59.5238 8.83346 59.5238 8.83346C59.2984 8.22064 58.6971 7.82174 58.0438 7.86221C57.9976 7.86221 57.9513 7.86221 57.9051 7.86221ZM57.2576 11.146C57.6796 12.2733 59.703 17.6614 61.3276 22.5235H39.1738C39.4571 21.055 39.9138 18.6847 39.9138 18.6847C40.0352 17.9389 39.5785 17.2221 38.8501 17.0197L37.5551 16.6497C37.5493 16.6324 37.5609 16.6208 37.5551 16.6035L57.2576 11.146ZM17.1126 14.0135L36.7226 19.471C36.5665 20.2861 35.9768 23.4253 35.2426 26.9635H12.5338C14.2277 21.7488 16.6443 15.268 17.1126 14.0135ZM39.3588 25.4835H62.2526C62.478 26.2119 62.7266 27.0386 62.9001 27.6572C64.1488 32.1377 64.3685 36.7916 63.3626 40.4222C62.3566 44.0528 60.3274 46.6197 56.8413 47.591C56.0204 47.8222 55.2052 47.9147 54.4363 47.9147C51.563 47.9147 48.8863 46.4174 46.5738 43.8447C44.2613 41.2721 42.4055 37.6183 41.3013 33.6697C40.729 31.6174 40.0121 28.5302 39.3588 25.4835ZM11.6088 29.9235H34.5951C34.0632 32.3631 33.5198 34.7624 33.0226 36.5372C31.9184 40.4916 30.0626 44.1396 27.7501 46.7122C25.4376 49.2849 22.7609 50.7822 19.8876 50.7822C19.1187 50.7822 18.3498 50.6435 17.5288 50.4122C14.0427 49.441 12.0135 46.8741 11.0076 43.2435C10.0016 39.6128 10.1751 35.0052 11.4238 30.5247C11.4701 30.3513 11.5568 30.1027 11.6088 29.9235ZM65.3513 62.8535C66.5249 62.7783 67.5309 62.865 68.3113 63.0385C68.7449 63.1367 68.9415 63.2755 69.2363 63.4085L54.4363 67.571C54.6213 67.305 54.7196 67.0449 55.0376 66.7385C56.1938 65.6285 58.2346 64.4433 61.2813 63.5935C62.8018 63.1714 64.1777 62.9286 65.3513 62.8535ZM7.35382 65.721C7.85101 65.6863 8.38289 65.6805 8.97257 65.721C10.1462 65.7961 11.5221 66.0331 13.0426 66.461C16.0893 67.3108 18.1763 68.496 19.3326 69.606C19.6563 69.9181 19.7488 70.1667 19.9338 70.4385L5.08757 66.276C5.38242 66.143 5.57898 66.0042 6.01257 65.906C6.39992 65.8192 6.85664 65.7556 7.35382 65.721Z" fill="#7A96AC"/>
</g>
<defs>
<clipPath id="clip0_7972_9876">
<rect width="74" height="74" fill="white"/>
</clipPath>
</defs>
</svg>
