<svg width="84" height="84" viewBox="0 0 84 84" fill="none" xmlns="http://www.w3.org/2000/svg">
<path d="M84.0004 72.192C84.0004 71.8642 83.8788 71.5396 83.6454 71.2904C83.5238 71.1594 83.5986 71.2283 81.3757 69.5612C79.7319 68.3281 78.7507 66.3657 78.7507 64.3114C78.7507 63.5866 78.1631 62.999 77.4383 62.999H76.9999C74.4968 56.9422 73.0522 51.0146 72.342 44.6214C74.442 44.5403 76.1259 42.8074 76.1259 40.6879C76.1259 38.6527 74.5455 36.7506 72.0474 36.7506C73.7525 35.0819 74.8135 32.7573 74.8135 30.1885C74.8135 25.1228 70.6923 21.0016 65.6265 21.0016C60.5608 21.0016 56.4396 25.1228 56.4396 30.1885C56.4396 32.7573 57.5005 35.0819 59.2057 36.7506C56.7127 36.7506 55.1272 38.6494 55.1272 40.6879C55.1272 42.8074 56.811 44.5402 58.911 44.6214C58.284 50.2638 57.0986 55.5651 54.9863 61.1462C51.5728 53.4278 50.9791 47.7475 50.0501 41.7086C53.3974 40.3401 53.2821 35.5591 49.8775 34.3515V31.501H51.1899C51.9147 31.501 52.5023 30.9133 52.5023 30.1885C52.5023 29.4638 51.9147 28.8761 51.1899 28.8761H50.5846L53.3736 22.6006C54.5312 19.996 52.6218 17.0644 49.7756 17.0644H45.9401V13.1271H47.2525C49.4234 13.1271 51.1898 11.3608 51.1898 9.18985C51.1898 7.01895 49.4234 5.2526 47.2525 5.2526H45.9401V3.94018C45.9401 1.76928 44.1737 0.00292969 42.0028 0.00292969C39.8319 0.00292969 38.0656 1.76928 38.0656 3.94018V5.2526H36.7532C34.5823 5.2526 32.8159 7.01895 32.8159 9.18985C32.8159 11.3608 34.5823 13.1271 36.7532 13.1271H38.0656V17.0644H34.23C31.3801 17.0644 29.476 19.9996 30.6321 22.6006L33.4211 28.8761H32.8158C32.091 28.8761 31.5033 29.4638 31.5033 30.1885C31.5033 30.9133 32.091 31.501 32.8158 31.501H34.1282V34.3515C30.7213 35.5599 30.6114 40.3412 33.9556 41.7086C32.8699 48.7657 32.3238 53.6748 29.0194 61.1462C26.91 55.573 25.7221 50.271 25.0946 44.6214C27.1947 44.5403 28.8785 42.8074 28.8785 40.6879C28.8785 38.6527 27.2982 36.7506 24.8 36.7506C26.5052 35.0819 27.5661 32.7573 27.5661 30.1885C27.5661 25.1228 23.4449 21.0016 18.3792 21.0016C13.3134 21.0016 9.19223 25.1228 9.19223 30.1885C9.19223 32.7573 10.2532 35.0819 11.9583 36.7506C9.46538 36.7506 7.87981 38.6494 7.87981 40.6879C7.87981 42.8074 9.56364 44.5402 11.6637 44.6214C10.9543 51.0048 9.51328 56.9318 7.00574 62.999H6.56739C5.84261 62.999 5.25498 63.5866 5.25498 64.3114C5.25498 65.3249 5.0153 66.3391 4.56169 67.245C3.70189 68.9644 2.56714 69.6083 0.530272 71.136C0.381312 71.2466 0.24154 71.4085 0.147538 71.5942C-0.0422707 71.9648 0.0053044 71.9943 0.0053044 74.8107C0.0053044 76.9817 1.77165 78.748 3.94256 78.748H19.6916V80.0604C19.6916 82.2313 21.4579 83.9977 23.6288 83.9977H60.3765C62.5474 83.9977 64.3138 82.2313 64.3138 80.0604V78.748H80.0628C82.2337 78.748 84.0001 76.9817 84.0001 74.8107C84.0004 73.2888 84.0004 73.7216 84.0004 72.192ZM78.8851 70.8735H59.7644C59.3058 69.6295 59.0646 68.3017 59.0646 66.9362C59.0646 66.2115 58.477 65.6238 57.7522 65.6238H76.2215C76.5117 67.6105 77.4519 69.4649 78.8851 70.8735ZM24.1272 76.1232C26.0645 73.9055 27.2358 71.1719 27.5062 68.2487H56.5001C56.7703 71.1719 57.9418 73.9055 59.8791 76.1232C55.7107 76.1232 28.3488 76.1232 24.1272 76.1232ZM59.0644 30.1885C59.0644 26.5702 62.0082 23.6265 65.6265 23.6265C69.2449 23.6265 72.1886 26.5702 72.1886 30.1885C72.1886 33.8069 69.2449 36.7506 65.6265 36.7506C62.0082 36.7506 59.0644 33.8069 59.0644 30.1885ZM57.752 40.6879C57.752 39.9642 58.3408 39.3755 59.0644 39.3755H72.1886C72.9122 39.3755 73.501 39.9642 73.501 40.6879C73.501 41.4115 72.9122 42.0003 72.1886 42.0003C69.5305 42.0003 61.6963 42.0003 59.0644 42.0003C58.3408 42.0003 57.752 41.4115 57.752 40.6879ZM61.5516 44.6251H69.7017C70.4027 50.9431 71.6884 56.7251 74.1666 62.999H57.0868C59.5714 56.7089 60.8523 50.9256 61.5516 44.6251ZM36.7533 31.501H47.2527V34.1258H36.7533V31.501ZM39.3782 10.5023H36.7533C36.0297 10.5023 35.4409 9.91349 35.4409 9.18985C35.4409 8.46622 36.0297 7.87744 36.7533 7.87744H39.3782C40.103 7.87744 40.6906 7.2898 40.6906 6.56502V3.94018C40.6906 3.21655 41.2794 2.62777 42.003 2.62777C42.7266 2.62777 43.3154 3.21655 43.3154 3.94018V6.56502C43.3154 7.2898 43.9031 7.87744 44.6278 7.87744H47.2527C47.9763 7.87744 48.5651 8.46622 48.5651 9.18985C48.5651 9.91349 47.9763 10.5023 47.2527 10.5023H44.6278C43.9031 10.5023 43.3154 11.0899 43.3154 11.8147V17.0644H40.6906V11.8147C40.6906 11.0899 40.103 10.5023 39.3782 10.5023ZM34.2304 19.6892H49.776C50.7268 19.6892 51.362 20.6642 50.9753 21.5346L47.7123 28.8761H36.294L33.031 21.5346C32.645 20.6656 33.2777 19.6892 34.2304 19.6892ZM35.4409 36.7506H48.5651C49.2887 36.7506 49.8775 37.3394 49.8775 38.063C49.8775 38.7867 49.2887 39.3755 48.5651 39.3755H35.4409C34.7173 39.3755 34.1285 38.7867 34.1285 38.063C34.1285 37.3394 34.7173 36.7506 35.4409 36.7506ZM36.567 42.0003H47.4392C48.5479 49.207 49.3119 56.2079 54.2269 65.6238H29.7793C29.9424 65.3113 30.0971 64.998 30.1406 64.9145C34.7729 55.7421 35.5093 48.8756 36.567 42.0003ZM11.8174 30.1885C11.8174 26.5702 14.7611 23.6265 18.3795 23.6265C21.9978 23.6265 24.9416 26.5702 24.9416 30.1885C24.9416 33.8069 21.9978 36.7506 18.3795 36.7506C14.7611 36.7506 11.8174 33.8069 11.8174 30.1885ZM10.505 40.6879C10.505 39.9642 11.0938 39.3755 11.8174 39.3755H24.9416C25.6652 39.3755 26.254 39.9642 26.254 40.6879C26.254 41.4115 25.6652 42.0003 24.9416 42.0003C22.2834 42.0003 14.4493 42.0003 11.8174 42.0003C11.0938 42.0003 10.505 41.4115 10.505 40.6879ZM14.3046 44.6251H22.4547C23.1557 50.9431 24.4414 56.7251 26.9195 62.999H9.83974C12.3243 56.7089 13.6052 50.9256 14.3046 44.6251ZM7.78499 65.6238H26.254C25.5292 65.6238 24.9416 66.2115 24.9416 66.9362C24.9416 68.3017 24.7004 69.6295 24.2417 70.8735H5.12045C6.52966 69.4899 7.4874 67.673 7.78499 65.6238ZM2.63047 74.8107V73.4983H22.8542C22.1478 74.4922 21.6131 74.9705 20.4605 76.1232H3.94289C3.21925 76.1232 2.63047 75.5344 2.63047 74.8107ZM61.6893 80.0604C61.6893 80.7841 61.1005 81.3728 60.3769 81.3728H23.6292C22.9055 81.3728 22.3167 80.7841 22.3167 80.0604V78.748H61.6893V80.0604ZM81.3755 74.8107C81.3755 75.5344 80.7868 76.1232 80.0631 76.1232H63.5455C62.3671 74.9448 61.8471 74.4764 61.1518 73.4983H81.3755V74.8107Z" fill="#7A96AC"/>
</svg>
