<svg width="74" height="74" viewBox="0 0 74 74" fill="none" xmlns="http://www.w3.org/2000/svg">
<g clip-path="url(#clip0_7959_9312)">
<path d="M32.3779 5.91992C26.9255 6.04276 22.9386 7.71162 20.5321 10.8773C17.6816 14.6262 17.1485 20.3728 18.9393 27.9667C18.3281 28.7526 17.7783 30.0077 17.9218 31.7245C18.3584 34.9273 19.5752 36.2415 20.5668 36.7802C21.0374 39.3244 22.3716 42.217 23.68 43.5934V48.8544C22.7239 51.0122 19.4878 52.3435 16.0661 53.754C10.2275 56.156 2.95996 59.1496 2.95996 68.0799V69.5599H44.7208L45.4955 66.5999H6.01246C6.77318 60.7791 12.0637 58.6005 17.1934 56.4885C20.2918 55.2128 23.2572 53.9863 25.0964 51.9907C25.5475 52.3911 26.0702 52.7358 26.6284 53.0227C28.2245 53.8429 30.2765 54.3148 32.56 54.3148C34.861 54.3148 36.9202 53.7989 38.506 52.962C39.4544 52.4614 40.3123 51.8281 40.8532 51.0195C41.4315 50.7049 42.0708 50.503 42.7494 50.4847L42.8477 50.4789C42.2261 49.9801 41.73 49.4409 41.4429 48.8341V43.579C42.6935 42.2233 43.9426 39.396 44.4029 36.8178C45.4566 36.2998 46.7574 34.9824 47.0593 31.6465C47.1985 29.98 46.7417 28.7541 46.1112 27.9638C47.3677 23.9264 48.4701 17.0088 45.8106 12.6117C44.5481 10.5264 42.6239 9.2156 40.0843 8.70648C38.6531 6.90532 35.9653 5.91992 32.3807 5.91992H32.3779ZM32.4125 8.87992C35.2112 8.87992 37.2275 9.58394 37.9423 10.8109L38.3036 11.4295L39.0147 11.5277C40.9861 11.806 42.3771 12.6622 43.2755 14.1466C45.42 17.6912 44.2913 24.3241 43.0067 27.9176L42.5384 29.1403L43.712 29.7271C43.8437 29.8203 44.1997 30.3324 44.1109 31.3921C43.9126 33.5795 43.2169 34.1636 43.0674 34.1902H41.7232L41.5961 35.5286C41.3282 38.3347 39.76 41.2339 39.2257 41.6365L38.48 42.0614V49.1348C38.48 49.1183 38.2024 49.774 37.1243 50.343C36.0461 50.9121 34.4029 51.3548 32.56 51.3548C30.6994 51.3548 29.0491 50.941 27.9812 50.3922C26.9133 49.8434 26.64 49.2619 26.64 49.1348V42.9199L26.6631 42.0759L25.9173 41.648C25.3771 41.2588 23.6457 38.3258 23.3793 35.5286L23.3591 34.2018H22.0121C21.8019 34.1204 21.1413 33.418 20.8645 31.4008C20.7609 30.1605 21.3906 29.6462 21.3906 29.6462L22.2636 29.0652L22.0063 28.0505C20.214 20.9702 20.5096 15.7954 22.8879 12.6666C24.7231 10.2572 27.9385 8.98056 32.4125 8.87992ZM57.8125 42.787C57.2205 42.787 56.6285 43.231 56.3325 43.527L52.7799 52.8521L42.865 53.4447C42.273 53.4447 41.6805 53.8875 41.5325 54.4795C41.3845 55.0715 41.533 55.811 42.125 56.107L49.6725 62.3247L47.1547 71.9447C47.0067 72.5367 47.3033 73.2761 47.7473 73.5721C48.0433 73.7201 48.3387 73.867 48.6347 73.867C48.9322 73.867 49.2305 73.7201 49.525 73.5721L57.8125 68.2447L66.0999 73.7195C66.5439 74.1635 67.2833 74.0155 67.7273 73.7195C68.3193 73.2755 68.4679 72.6841 68.3199 72.0921L65.805 62.4721L73.4999 56.2573C73.9439 55.8133 74.093 55.219 73.945 54.627C73.797 54.035 73.2045 53.5921 72.6125 53.5921L62.6947 52.9995L59.145 43.6773C58.997 43.2333 58.4045 42.787 57.8125 42.787ZM57.8125 48.4121L60.1799 55.0721C60.4759 55.5161 60.9205 55.9595 61.5125 55.9595L68.6176 56.4047L63.1399 60.8447C62.6959 61.1407 62.5496 61.7327 62.6976 62.3247L64.4725 69.1321L58.5525 65.2847C58.4045 65.1367 58.1085 64.987 57.8125 64.987C57.515 64.987 57.221 65.1373 56.925 65.1373L51.005 68.9847L52.7799 62.1773C52.9279 61.7333 52.7816 60.9933 52.3376 60.6973L46.8599 56.2573L53.965 55.9595C54.557 55.8115 55.0016 55.5167 55.2976 54.9247L57.8125 48.4121Z" fill="#6D5132"/>
</g>
<defs>
<clipPath id="clip0_7959_9312">
<rect width="74" height="74" fill="white"/>
</clipPath>
</defs>
</svg>
