<svg width="74" height="74" viewBox="0 0 74 74" fill="none" xmlns="http://www.w3.org/2000/svg">
<path d="M46.6199 2.34766L45.5735 3.39406L40.8271 8.14047L46.6199 13.9333L52.4127 8.14047L46.6199 2.34766ZM28.1199 5.92047C27.7274 5.92051 27.351 6.07645 27.0734 6.35399C26.7959 6.63154 26.64 7.00796 26.6399 7.40047V14.8005C26.64 15.193 26.7959 15.5694 27.0734 15.8469C27.351 16.1245 27.7274 16.2804 28.1199 16.2805H29.5999C31.3692 16.2805 31.754 16.8125 32.1321 17.6622C32.5103 18.5119 32.5599 19.7888 32.5599 20.7205C32.5599 21.9287 32.4134 23.1991 32.2073 24.4205C30.9063 23.9622 29.6579 23.6886 28.5015 23.6805C27.1946 23.6711 25.895 24.038 24.9662 24.9668C24.57 25.363 24.3045 25.8363 24.0991 26.337L24.073 26.3283L9.39694 63.5311C8.77093 65.1179 10.2913 66.7097 11.9052 66.1572L50.5107 52.9394L50.502 52.9134C51.0502 52.7065 51.5654 52.4221 51.9936 51.9941C53.1006 50.8871 53.4008 49.2913 53.2366 47.6958C53.133 46.6899 52.8417 45.6275 52.4214 44.5248C53.5899 44.454 54.8327 44.4005 56.2399 44.4005C58.3497 44.4005 60.3459 44.6556 61.6425 45.1058C62.2908 45.3309 62.7476 45.6065 62.9693 45.8169C63.191 46.0272 63.2034 46.0882 63.2034 46.2505V47.3605C63.2035 47.753 63.3594 48.1294 63.637 48.4069C63.9145 48.6845 64.2909 48.8404 64.6834 48.8405H71.0399C71.238 48.8405 71.434 48.8009 71.6165 48.7238C71.7989 48.6467 71.964 48.5338 72.102 48.3917C72.24 48.2497 72.3481 48.0814 72.4199 47.8968C72.4917 47.7122 72.5257 47.5151 72.5199 47.3171C72.5199 47.3171 72.4763 45.4933 72.4766 45.4729V45.47C72.5037 42.1102 70.3874 39.5063 67.7764 37.9052C65.1654 36.3042 61.9966 35.5205 59.1681 35.5205C54.4871 35.5205 51.0051 36.7348 48.6752 37.937C47.9405 36.9392 47.1309 35.9337 46.247 34.9337C46.7749 34.7652 47.3106 34.6084 47.8282 34.4683C48.8709 34.186 49.8565 33.9546 50.6234 33.7832C51.3904 33.6118 51.8137 33.5383 52.1988 33.4305C53.3936 33.0957 55.0245 32.6864 56.4856 31.7106C57.9468 30.7349 59.1999 28.9798 59.1999 26.6405C59.1999 26.0001 58.8894 25.6438 58.6854 25.1605H59.1999C62.3639 25.1605 65.1199 22.6057 65.1199 19.2405V17.2055C65.1199 17.2055 65.131 17.0038 65.2702 16.7777C65.4094 16.5515 65.5208 16.2805 66.5999 16.2805H68.0799C68.4724 16.2804 68.8489 16.1245 69.1264 15.8469C69.4039 15.5694 69.5599 15.193 69.5599 14.8005V8.88336C69.5599 8.49085 69.4039 8.11443 69.1264 7.83688C68.8489 7.55934 68.4724 7.4034 68.0799 7.40336H65.6807C61.7471 7.40004 59.3174 9.22092 58.0177 10.953C57.054 12.2368 56.7571 13.8233 56.529 15.1849C56.4289 15.7821 56.449 15.8466 56.4047 16.2805H56.2399C53.691 16.2805 51.6938 17.2044 50.4789 18.6623C49.264 20.1203 48.8399 21.9538 48.8399 23.6805V25.6895C46.4142 26.4892 43.6362 27.7878 41.2463 30.0485C39.8374 28.8505 38.4372 27.7799 37.0635 26.8862C38.5804 24.2114 39.9599 20.6026 39.9599 16.2805C39.9599 13.7316 39.1151 11.1578 37.3468 9.18687C35.5785 7.21597 32.8688 5.92047 29.4901 5.92047H29.4872H29.467H28.1199ZM46.6199 6.53328L48.2271 8.14047L46.6199 9.74766L45.0127 8.14047L46.6199 6.53328ZM15.5399 8.26766L14.4935 9.31406L9.74711 14.0605L15.5399 19.8533L21.3327 14.0605L15.5399 8.26766ZM29.5999 8.9007C32.1812 8.93024 33.9446 9.82713 35.1441 11.1641C36.3636 12.5232 36.9999 14.3894 36.9999 16.2805C36.9999 19.3619 36.1026 21.8759 35.0574 24.0418C35.2235 22.9075 35.5199 21.9044 35.5199 20.7205C35.5199 19.7888 35.5696 18.1042 34.8377 16.4597C34.1059 14.8152 32.2707 13.3205 29.5999 13.3205V8.9007ZM65.6778 10.3634H65.6807H66.5999V13.3205C64.7191 13.3205 63.3504 14.252 62.7496 15.2283C62.1488 16.2046 62.1599 17.2055 62.1599 17.2055V19.2405C62.1599 21.0552 60.8459 22.2005 59.1999 22.2005H56.2399C55.9703 22.2005 55.7058 22.2742 55.4749 22.4136C55.2441 22.553 55.0557 22.7528 54.9302 22.9914C54.8046 23.23 54.7466 23.4984 54.7625 23.7676C54.7783 24.0368 54.8674 24.2965 55.0201 24.5188C55.0201 24.5188 55.1355 24.665 55.1444 24.6748C55.1533 24.6848 55.159 24.6918 55.1646 24.698C55.1759 24.7103 55.1888 24.7231 55.2051 24.7413C55.2377 24.7779 55.2844 24.8323 55.3409 24.9003C55.4539 25.0364 55.6039 25.2294 55.7485 25.4495C56.0378 25.8898 56.2399 26.4421 56.2399 26.6405C56.2399 28.0573 55.7377 28.6489 54.8409 29.2478C53.944 29.8468 52.6142 30.2404 51.401 30.5804C51.4502 30.5666 50.7671 30.7186 49.9759 30.8955C49.1847 31.0723 48.1606 31.3134 47.0564 31.6123C45.3609 32.0714 43.6734 32.8082 42.1077 33.5924C44.5862 30.5085 47.9893 28.8312 50.7188 28.0655C51.0298 27.9785 51.3038 27.7921 51.499 27.5348C51.6942 27.2775 51.7999 26.9634 51.7999 26.6405V23.6805C51.7999 22.4471 52.1159 21.3207 52.7509 20.5586C53.386 19.7965 54.3488 19.2405 56.2399 19.2405H57.7199C58.0988 19.2402 58.4631 19.0947 58.7379 18.8339C59.0127 18.5731 59.177 18.2168 59.197 17.8385C59.197 17.8385 59.2508 16.8533 59.4485 15.6734C59.6462 14.4935 60.0893 13.118 60.3822 12.7279H60.3851C61.3056 11.5005 62.5737 10.3607 65.6778 10.3634ZM15.5399 12.4533L17.1471 14.0605L15.5399 15.6677L13.9327 14.0605L15.5399 12.4533ZM67.3399 25.1605L63.6399 28.8605L67.3399 32.5605L71.037 28.8605L67.3399 25.1605ZM9.61992 26.6405L5.91992 30.3405L9.61992 34.0405L13.317 30.3405L9.61992 26.6405ZM28.4784 26.6405C29.2542 26.6459 30.3259 26.9294 31.5569 27.4267C31.1337 29.0426 30.7259 30.2341 30.6001 30.6151C30.4986 30.9229 30.5009 31.2555 30.6067 31.5618C30.7125 31.8681 30.916 32.1313 31.1858 32.3108C31.4556 32.4904 31.7769 32.5764 32.1003 32.5557C32.4237 32.535 32.7314 32.4087 32.9762 32.1963C33.1837 32.0155 33.5473 31.6765 34.2076 30.9244C34.5603 30.5226 34.9717 30.0142 35.4043 29.4328C36.6645 30.2237 37.9797 31.1825 39.2951 32.2801C39.1035 32.5418 38.9035 32.7885 38.7227 33.0692L35.757 37.6798C35.5733 37.9674 35.4946 38.3097 35.5343 38.6487C35.574 38.9877 35.7297 39.3025 35.9749 39.5399C36.2201 39.7773 36.5398 39.9226 36.8799 39.9513C37.22 39.9801 37.5596 39.8903 37.8411 39.6974L42.2927 36.6247C42.5538 36.4444 42.8955 36.2579 43.2812 36.0726C44.3428 37.2159 45.3098 38.3685 46.1545 39.5009C45.6814 39.8646 45.3116 40.186 45.2411 40.2553L45.2382 40.2582L41.8793 43.5766C41.6375 43.8157 41.4854 44.1306 41.4485 44.4686C41.4116 44.8066 41.4921 45.147 41.6766 45.4325C41.8611 45.7181 42.1383 45.9314 42.4616 46.0367C42.7849 46.142 43.1345 46.1327 43.4518 46.0105C43.4518 46.0105 45.3945 45.273 49.3342 44.7965C49.8772 46.0358 50.2061 47.1457 50.2939 47.9993C50.4031 49.0607 50.1924 49.6097 49.9008 49.9013C49.7868 50.0152 49.6235 50.1104 49.418 50.1846L49.2677 50.2366C49.0051 50.3052 48.6731 50.338 48.2329 50.3118C47.3092 50.2567 46.0381 49.9101 44.5994 49.2567C41.7219 47.95 38.1827 45.451 34.8464 42.114C31.51 38.7769 29.0106 35.2386 27.7037 32.361C27.0502 30.9222 26.7037 29.6481 26.6486 28.7246C26.6212 28.2656 26.6575 27.9187 26.7324 27.6522C26.7411 27.6212 26.7544 27.6001 26.7642 27.5713C26.8394 27.349 26.9392 27.1795 27.0591 27.0596C27.3025 26.8162 27.7014 26.635 28.4784 26.6405ZM24.6916 32.8264C24.7944 33.0789 24.8899 33.3294 25.0067 33.5866C26.5184 36.9151 29.205 40.6575 32.7536 44.2068C36.3023 47.7562 40.0452 50.4421 43.3737 51.9537C43.5079 52.0146 43.637 52.0613 43.7698 52.1184L12.9123 62.6837L24.6916 32.8264ZM59.1681 38.4805C61.422 38.4805 64.1863 39.1756 66.2299 40.4287C68.2735 41.6819 69.5338 43.3071 69.5166 45.444C69.5153 45.5579 69.522 45.6999 69.5252 45.8805H65.9987C65.8842 45.0383 65.5792 44.2117 65.0072 43.6691C64.3395 43.0359 63.5184 42.6257 62.6109 42.3105C60.7957 41.6803 58.5701 41.4405 56.2399 41.4405C52.4309 41.4405 49.825 41.8307 47.5652 42.2007C47.9046 41.8765 51.5547 38.4805 59.1681 38.4805ZM56.9799 55.6277L55.9335 56.6741L51.1871 61.4205L56.9799 67.2133L62.7727 61.4205L56.9799 55.6277ZM56.9799 59.8133L58.5871 61.4205L56.9799 63.0277L55.3727 61.4205L56.9799 59.8133Z" fill="#7A96AC"/>
</svg>
