<svg width="84" height="84" viewBox="0 0 84 84" fill="none" xmlns="http://www.w3.org/2000/svg">
<g clip-path="url(#clip0_7953_280)">
<path d="M1.40724 43.4072C2.18017 43.4072 2.80747 42.7813 2.80747 42.007C2.80747 20.3888 20.3958 2.80047 42.014 2.80047C50.8733 2.80047 59.3461 5.76196 66.2408 11.2019H58.8168C58.0439 11.2019 57.4166 11.8278 57.4166 12.6021C57.4166 13.3764 58.0439 14.0023 58.8168 14.0023H69.8996C69.9921 14.0107 70.0789 14.0121 70.1699 14.0023H71.4175V1.40023C71.4175 0.625904 70.7902 0 70.0173 0C69.2443 0 68.617 0.625904 68.617 1.40023V9.53559C61.1174 3.37176 51.789 0 42.014 0C18.8513 0 0.00700378 18.8443 0.00700378 42.007C0.00700378 42.7813 0.634308 43.4072 1.40724 43.4072Z" fill="#6D5132"/>
<path d="M42.014 11.2021C25.0278 11.2021 11.2089 25.0211 11.2089 42.0073C11.2089 58.9935 25.0278 72.8124 42.014 72.8124C59.0002 72.8124 72.8191 58.9935 72.8191 42.0073C72.8191 25.0211 59.0002 11.2021 42.014 11.2021ZM42.014 70.012C26.5722 70.012 14.0093 57.4491 14.0093 42.0073C14.0093 26.5655 26.5722 14.0026 42.014 14.0026C57.4558 14.0026 70.0187 26.5655 70.0187 42.0073C70.0187 57.4491 57.4558 70.012 42.014 70.012Z" fill="#6D5132"/>
<path d="M42.014 21.0033C42.7869 21.0033 43.4142 20.3774 43.4142 19.603V16.8026C43.4142 16.0282 42.7869 15.4023 42.014 15.4023C41.2411 15.4023 40.6138 16.0282 40.6138 16.8026V19.603C40.6138 20.3774 41.2411 21.0033 42.014 21.0033Z" fill="#6D5132"/>
<path d="M42.014 63.0107C41.2411 63.0107 40.6138 63.6366 40.6138 64.411V67.2114C40.6138 67.9858 41.2411 68.6117 42.014 68.6117C42.7869 68.6117 43.4142 67.9858 43.4142 67.2114V64.411C43.4142 63.6366 42.7869 63.0107 42.014 63.0107Z" fill="#6D5132"/>
<path d="M64.4177 43.4069H67.2182C67.9911 43.4069 68.6184 42.781 68.6184 42.0067C68.6184 41.2323 67.9911 40.6064 67.2182 40.6064H64.4177C63.6448 40.6064 63.0175 41.2323 63.0175 42.0067C63.0175 42.781 63.6448 43.4069 64.4177 43.4069Z" fill="#6D5132"/>
<path d="M19.6103 40.6064H16.8098C16.0369 40.6064 15.4096 41.2323 15.4096 42.0067C15.4096 42.781 16.0369 43.4069 16.8098 43.4069H19.6103C20.3832 43.4069 21.0105 42.781 21.0105 42.0067C21.0105 41.2323 20.3832 40.6064 19.6103 40.6064Z" fill="#6D5132"/>
<path d="M43.4142 35.2047V28.0047C43.4142 27.2304 42.7869 26.6045 42.014 26.6045C41.2411 26.6045 40.6138 27.2304 40.6138 28.0047V35.2047C38.2054 35.8306 36.4131 38.0038 36.4131 40.6068C36.4131 41.643 36.7141 42.6008 37.207 43.4339L25.6215 55.0194C25.074 55.5669 25.074 56.4519 25.6215 56.9994C25.8945 57.2724 26.253 57.4096 26.6114 57.4096C26.9699 57.4096 27.3284 57.2724 27.6014 56.9994L39.1869 45.4138C40.0201 45.9067 40.9778 46.2078 42.014 46.2078C45.1029 46.2078 47.6149 43.6957 47.6149 40.6068C47.6149 38.0038 45.8226 35.8306 43.4142 35.2047ZM42.014 43.4073C40.4696 43.4073 39.2135 42.1513 39.2135 40.6068C39.2135 39.0624 40.4696 37.8064 42.014 37.8064C43.5585 37.8064 44.8145 39.0624 44.8145 40.6068C44.8145 42.1513 43.5585 43.4073 42.014 43.4073Z" fill="#6D5132"/>
<path d="M16.6544 73.7367C16.1923 74.3514 16.3183 75.2336 16.9484 75.6956C17.1865 75.8777 17.4805 75.9617 17.7746 75.9617C18.2086 75.9617 18.6287 75.7796 18.9088 75.4016C19.3568 74.7869 19.2308 73.9047 18.6147 73.4427C17.9986 72.9806 17.1179 73.1066 16.6544 73.7367Z" fill="#6D5132"/>
<path d="M10.1307 64.7891C9.68262 64.1744 8.80047 64.019 8.17037 64.4685C7.54026 64.9305 7.40024 65.7987 7.84832 66.4274C8.12836 66.8069 8.54843 67.0155 8.99651 67.0155C9.27655 67.0155 9.5566 66.9315 9.80864 66.7509C10.4373 66.3014 10.5788 65.4192 10.1307 64.7891Z" fill="#6D5132"/>
<path d="M10.6754 67.8412C10.1013 68.3579 10.0453 69.2414 10.5634 69.8141C10.8294 70.1362 11.2215 70.2916 11.6135 70.2916C11.9356 70.2916 12.2716 70.1796 12.5377 69.9415C13.1118 69.4234 13.1678 68.5413 12.6497 67.9672C12.147 67.3791 11.2649 67.3371 10.6754 67.8412Z" fill="#6D5132"/>
<path d="M15.4936 70.8518C14.9335 70.3337 14.0373 70.3757 13.5193 70.9372C12.9872 71.5099 13.0292 72.3935 13.6033 72.9256C13.8693 73.1636 14.2054 73.2896 14.5414 73.2896C14.9195 73.2896 15.2975 73.1356 15.5776 72.8416C16.0957 72.2675 16.0677 71.3853 15.4936 70.8672C15.4936 70.8518 15.4936 70.8518 15.4936 70.8518Z" fill="#6D5132"/>
<path d="M7.94632 61.3861C7.93232 61.3861 7.93232 61.3861 7.93232 61.3861C7.55426 60.714 6.70011 60.476 6.028 60.8681C5.35589 61.2475 5.11785 62.1003 5.50991 62.7724C5.76196 63.219 6.23804 63.4725 6.72812 63.4725C6.95215 63.4725 7.2042 63.4165 7.41423 63.2905C8.08634 62.9124 8.32438 62.0569 7.94632 61.3861Z" fill="#6D5132"/>
<path d="M82.5368 44.9753C82.5648 44.9753 82.5788 44.9753 82.5928 44.9753C83.3489 44.9753 83.965 44.3718 83.993 43.6311C84.021 42.8456 83.4189 42.2015 82.6488 42.1749C81.8786 42.1455 81.2205 42.749 81.1925 43.5191C81.1645 44.2892 81.7652 44.9473 82.5368 44.9753Z" fill="#6D5132"/>
<path d="M1.7713 47.5941C2.54143 47.5086 3.10152 46.8225 3.01751 46.0524C2.9335 45.2823 2.24738 44.7222 1.47725 44.8062C0.707125 44.8762 0.147031 45.5763 0.231045 46.3324C0.301057 47.0606 0.91716 47.5927 1.61728 47.5927C1.67329 47.5941 1.71529 47.5941 1.7713 47.5941Z" fill="#6D5132"/>
<path d="M2.55543 51.7101C3.31156 51.5561 3.80164 50.814 3.63361 50.0579C3.47959 49.3017 2.73746 48.8103 1.98134 48.9783C1.22521 49.1323 0.735131 49.8758 0.903159 50.632C1.02918 51.2901 1.61728 51.7381 2.26139 51.7381C2.358 51.7381 2.45742 51.7381 2.55543 51.7101Z" fill="#6D5132"/>
<path d="M6.11202 57.7598C5.80397 57.0596 4.97783 56.7376 4.26372 57.0456C3.5636 57.3537 3.24155 58.1798 3.5496 58.8925C3.78764 59.4106 4.29172 59.7341 4.83781 59.7341C5.01984 59.7341 5.21587 59.6921 5.3979 59.6067C6.09662 59.3 6.41867 58.4739 6.11202 57.7598Z" fill="#6D5132"/>
<path d="M4.66839 53.9792C4.44435 53.2371 3.64622 52.831 2.9181 53.069C2.17597 53.3071 1.7699 54.0912 2.00794 54.8347C2.20398 55.4228 2.75007 55.7995 3.33817 55.7995C3.47819 55.7995 3.63221 55.7855 3.77224 55.7435C4.50176 55.5054 4.90783 54.7059 4.66839 53.9792Z" fill="#6D5132"/>
<path d="M41.2579 81.1995C40.4878 81.1841 39.8436 81.8016 39.8296 82.5703C39.8156 83.3559 40.4317 83.9846 41.2019 84C41.2159 84 41.2299 84 41.2299 84C42 84 42.6161 83.3965 42.6301 82.6277C42.6427 81.8576 42.028 81.2135 41.2579 81.1995Z" fill="#6D5132"/>
<path d="M73.0012 66.0073C72.5251 66.6094 72.6371 67.4929 73.2392 67.9676C73.5052 68.1636 73.7993 68.2616 74.1073 68.2616C74.5134 68.2616 74.9335 68.0796 75.2135 67.7141C75.6896 67.112 75.5776 66.2299 74.9615 65.7552C74.3454 65.2805 73.4772 65.3912 73.0012 66.0073Z" fill="#6D5132"/>
<path d="M64.1783 74.3246C63.5482 74.7586 63.3802 75.6394 63.8282 76.2709C64.0943 76.663 64.5283 76.873 64.9764 76.873C65.2565 76.873 65.5225 76.803 65.7746 76.6349C66.4047 76.2009 66.5727 75.3201 66.1246 74.6886C65.6905 74.0445 64.8238 73.8905 64.1783 74.3246Z" fill="#6D5132"/>
<path d="M67.4002 71.8582C66.8121 72.3622 66.7421 73.2444 67.2462 73.8325C67.5263 74.1545 67.9183 74.324 68.3104 74.324C68.6324 74.324 68.9545 74.2119 69.2205 73.9879C69.8086 73.4838 69.8786 72.6017 69.3746 72.0136C68.8691 71.4255 67.9883 71.3555 67.4002 71.8582Z" fill="#6D5132"/>
<path d="M77.2425 62.2253C76.5844 61.8193 75.7162 62.0293 75.3102 62.6734C74.9041 63.3315 75.1001 64.1997 75.7582 64.6057C75.9963 64.7472 76.2483 64.8158 76.5003 64.8158C76.9624 64.8158 77.4245 64.5917 77.6905 64.1563C78.098 63.501 77.902 62.6314 77.2425 62.2253Z" fill="#6D5132"/>
<path d="M70.3547 69.0732C69.8086 69.6319 69.8366 70.514 70.3967 71.0475C70.6628 71.3121 71.0128 71.4382 71.3629 71.4382C71.727 71.4382 72.105 71.2981 72.3711 71.0041C72.9032 70.444 72.8891 69.5619 72.3291 69.0298C71.769 68.4977 70.8854 68.5131 70.3547 69.0732Z" fill="#6D5132"/>
<path d="M82.4093 46.36C81.6532 46.2493 80.9391 46.7954 80.8271 47.5516C80.7151 48.3217 81.2471 49.0218 82.0173 49.1338C82.0873 49.1478 82.1573 49.1478 82.2133 49.1478C82.8994 49.1478 83.5015 48.6451 83.5995 47.945C83.7129 47.1875 83.1809 46.472 82.4093 46.36Z" fill="#6D5132"/>
<path d="M81.7526 50.5055C80.9965 50.3235 80.2404 50.7855 80.0443 51.5277C79.8623 52.2838 80.3244 53.0399 81.0665 53.236C81.1785 53.2654 81.2905 53.278 81.4026 53.278C82.0327 53.278 82.6068 52.8439 82.7608 52.2138C82.9568 51.4591 82.4934 50.7029 81.7526 50.5055Z" fill="#6D5132"/>
<path d="M21.9893 75.6969C21.3172 75.3062 20.463 75.5149 20.0709 76.1884C19.6649 76.8465 19.8889 77.7146 20.547 78.1067C20.7711 78.2467 21.0231 78.3027 21.2611 78.3027C21.7372 78.3027 22.1993 78.0647 22.4653 77.6166C22.8714 76.9571 22.6488 76.103 21.9893 75.6969Z" fill="#6D5132"/>
<path d="M80.659 54.5671C79.9309 54.3024 79.1188 54.6791 78.8668 55.4072C78.6007 56.1367 78.9648 56.9349 79.6929 57.1995C79.8469 57.2555 80.0149 57.2849 80.169 57.2849C80.7431 57.2849 81.2892 56.9349 81.4852 56.3608C81.7526 55.6298 81.3872 54.8331 80.659 54.5671Z" fill="#6D5132"/>
<path d="M79.1482 58.4878C78.4621 58.1531 77.6079 58.4318 77.2719 59.1319C76.9358 59.832 77.2299 60.6736 77.916 61.0082C78.112 61.1062 78.3221 61.1497 78.5321 61.1497C79.0502 61.1497 79.5543 60.8556 79.7923 60.3641C80.1284 59.6626 79.8483 58.8239 79.1482 58.4878Z" fill="#6D5132"/>
<path d="M37.2112 80.9196C36.4411 80.8216 35.755 81.3663 35.6569 82.1378C35.5589 82.9079 36.105 83.6081 36.8751 83.6907V83.7061C36.9312 83.7061 36.9872 83.7061 37.0432 83.7061C37.7433 83.7061 38.3454 83.188 38.4294 82.4725C38.5274 81.7037 37.9799 81.0162 37.2112 80.9196Z" fill="#6D5132"/>
<path d="M29.3279 79.1136C28.5998 78.8602 27.8016 79.2396 27.5496 79.9817C27.2976 80.7099 27.6896 81.508 28.4177 81.76C28.5718 81.802 28.7258 81.83 28.8798 81.83C29.4539 81.83 30 81.466 30.196 80.8919C30.4481 80.1498 30.056 79.3516 29.3279 79.1136Z" fill="#6D5132"/>
<path d="M33.2205 80.219C32.4644 80.051 31.7223 80.5131 31.5403 81.2692C31.3722 82.0253 31.8483 82.7814 32.5904 82.9495C32.7025 82.9775 32.8005 82.9775 32.9125 82.9775C33.5426 82.9775 34.1307 82.5434 34.2707 81.8993C34.4514 81.1432 33.9767 80.387 33.2205 80.219Z" fill="#6D5132"/>
<path d="M25.5753 77.6005C24.8611 77.2644 24.035 77.5711 23.713 78.2712C23.3909 78.9713 23.685 79.8129 24.3851 80.1335C24.5811 80.2189 24.7771 80.2595 24.9732 80.2595C25.5053 80.2595 26.0093 79.9655 26.2474 79.4488C26.5694 78.7487 26.2754 77.9211 25.5753 77.6005Z" fill="#6D5132"/>
<path d="M49.3232 80.5277C48.5671 80.6678 48.063 81.4099 48.203 82.166C48.3291 82.8381 48.9312 83.3016 49.5893 83.3016C49.6733 83.3016 49.7573 83.3016 49.8413 83.2862C50.5974 83.1336 51.1015 82.4041 50.9615 81.6479C50.8215 80.8778 50.0793 80.3877 49.3232 80.5277Z" fill="#6D5132"/>
<path d="M53.2579 79.575C52.5158 79.7836 52.0957 80.5692 52.3197 81.3099C52.5018 81.9134 53.0618 82.3054 53.6639 82.3054C53.79 82.3054 53.93 82.29 54.07 82.2494C54.8121 82.0254 55.2322 81.2399 55.0082 80.4991C54.7827 79.771 54 79.351 53.2579 79.575Z" fill="#6D5132"/>
<path d="M57.0805 78.203C56.3664 78.4971 56.0303 79.3232 56.3244 80.0388C56.5484 80.5708 57.0665 80.8915 57.6126 80.8915C57.7946 80.8915 57.9767 80.8635 58.1587 80.7949C58.8728 80.4854 59.2089 79.6733 58.9148 78.9592C58.6054 78.2451 57.7946 77.909 57.0805 78.203Z" fill="#6D5132"/>
<path d="M45.3032 81.0721C44.533 81.1435 43.9589 81.8143 44.0289 82.5844C44.085 83.3139 44.7011 83.8726 45.4292 83.8726C45.4572 83.8726 45.4992 83.8726 45.5412 83.8726V83.8586C46.3113 83.8026 46.8854 83.1305 46.8154 82.3603C46.7594 81.5916 46.0747 81.0161 45.3032 81.0721Z" fill="#6D5132"/>
<path d="M60.7337 76.4532C60.0476 76.8172 59.7956 77.6714 60.1736 78.3449C60.4257 78.821 60.9018 79.0856 61.4058 79.0856C61.6299 79.0856 61.8539 79.0296 62.064 78.9036C62.7501 78.5395 63.0021 77.6854 62.624 77.0133C62.2614 76.3272 61.4058 76.0751 60.7337 76.4532Z" fill="#6D5132"/>
</g>
<defs>
<clipPath id="clip0_7953_280">
<rect width="84" height="84" fill="white"/>
</clipPath>
</defs>
</svg>
