<svg width="74" height="74" viewBox="0 0 74 74" fill="none" xmlns="http://www.w3.org/2000/svg">
<path fill-rule="evenodd" clip-rule="evenodd" d="M33.7681 50.5129H2.43214C1.72321 50.5129 1.14844 49.9383 1.14844 49.2292V45.1185C1.14844 44.4095 1.72321 43.8348 2.43214 43.8348H5.26414V30.776C5.26414 30.0671 5.83892 29.4923 6.54784 29.4923H14.9679C15.677 29.4923 16.2516 30.0671 16.2516 30.776V43.8348H20.9022V22.3086C20.9022 21.5996 21.4769 21.0249 22.1859 21.0249H30.606C31.3151 21.0249 31.8897 21.5996 31.8897 22.3086V43.8348H33.7681V35.858C33.7681 33.8662 34.8913 32.1276 36.5365 31.2436V13.4706C36.5365 12.7617 37.1113 12.1869 37.8202 12.1869H46.244C46.9531 12.1869 47.5277 12.7617 47.5277 13.4706V30.624H52.1745V5.51905C52.1745 4.81013 52.7493 4.23535 53.4582 4.23535H61.8785C62.5874 4.23535 63.1622 4.81013 63.1622 5.51905V30.624H67.9145C70.7967 30.624 73.1484 32.9758 73.1484 35.858V55.645C73.1484 58.5277 70.7973 60.8728 67.9145 60.8728H65.8575V67.6331C65.8575 68.157 65.5391 68.6283 65.0531 68.8239C64.5672 69.0195 64.0111 68.9001 63.6481 68.5224L56.2999 60.8728H39.002C36.1193 60.8728 33.7681 58.5277 33.7681 55.645V50.5129ZM7.83154 43.8348H13.6842C13.6842 40.5434 13.6842 32.0597 13.6842 32.0597H7.83154V43.8348ZM23.4696 43.8348H29.3223C29.3223 39.1987 29.3223 23.5923 29.3223 23.5923H23.4696V43.8348ZM33.7681 46.4022H3.71584V47.9455H33.7681V46.4022ZM39.1039 30.624H44.9603V14.7543H39.1039V30.624ZM54.7419 30.624H60.5948C60.5948 25.5021 60.5948 6.80275 60.5948 6.80275H54.7419V30.624ZM36.3355 55.645C36.3355 57.1129 37.5341 58.3054 39.002 58.3054H56.8467C57.1961 58.3054 57.5305 58.4479 57.7724 58.6999L63.2901 64.4438V59.5891C63.2901 58.8802 63.8649 58.3054 64.5738 58.3054H67.9145C69.3824 58.3054 70.581 57.1129 70.581 55.645V35.858C70.581 34.3896 69.3829 33.1914 67.9145 33.1914H39.002C37.5336 33.1914 36.3355 34.3896 36.3355 35.858V55.645ZM52.6163 54.4924C50.7371 53.3556 47.9172 51.3317 45.9404 48.9636C44.4834 47.2184 43.4975 45.2768 43.4635 43.3614C43.412 40.4294 45.0399 38.3307 47.2318 37.5629C49.0635 36.9212 51.3644 37.1982 53.4568 38.8745C55.5491 37.2004 57.8503 36.9232 59.6824 37.564C61.8758 38.3314 63.5045 40.4291 63.4531 43.3612C63.419 45.2767 62.4331 47.2184 60.9762 48.9636C58.9995 51.3317 56.1794 53.3556 54.3005 54.4922C53.7683 54.8179 53.1486 54.8179 52.6163 54.4924ZM53.4582 51.994C55.129 50.9344 57.3851 49.2594 59.0053 47.3184C60.0571 46.0583 60.8615 44.6989 60.8861 43.316C60.9151 41.6583 60.0746 40.4212 58.8345 39.9875C57.5086 39.5236 55.8416 39.9779 54.3841 41.5016C54.1418 41.7549 53.8066 41.898 53.4562 41.898C53.1057 41.8978 52.7705 41.7545 52.5284 41.5012C51.0712 39.9764 49.4054 39.5217 48.0807 39.9859C46.8411 40.4201 46.0014 41.6579 46.0304 43.316C46.0552 44.6989 46.8594 46.0583 47.9114 47.3184C49.5316 49.2594 51.7875 50.9344 53.4582 51.994Z" fill="#6D5132"/>
</svg>
