<svg width="90" height="90" viewBox="0 0 90 90" fill="none" xmlns="http://www.w3.org/2000/svg">
<path d="M66.6004 7.19922C61.6306 7.19922 57.6004 11.2294 57.6004 16.1992C57.6004 21.169 61.6306 25.1992 66.6004 25.1992C71.5702 25.1992 75.6004 21.169 75.6004 16.1992C75.6004 11.2294 71.5702 7.19922 66.6004 7.19922ZM66.6004 10.7992C69.5776 10.7992 72.0004 13.222 72.0004 16.1992C72.0004 19.1764 69.5776 21.5992 66.6004 21.5992C63.6232 21.5992 61.2004 19.1764 61.2004 16.1992C61.2004 13.222 63.6232 10.7992 66.6004 10.7992ZM37.2941 14.8352C35.7567 14.7877 34.2313 15.2382 32.9488 16.1359L19.818 25.3293C17.4672 26.9727 16.6625 30.1488 17.9441 32.7156C18.6929 34.2114 20.0491 35.3159 21.6637 35.7461C23.2837 36.1727 25.006 35.8909 26.3992 34.9621L38.0078 27.2207L43.7348 29.5094L34.3094 39.9824C32.648 41.8256 31.837 44.2064 32.0242 46.6832C32.0638 47.216 32.1706 47.7313 32.2984 48.2371L16.348 73.7641C15.727 74.7559 15.4597 75.8688 15.4867 76.9668L10.3855 70.8461C9.74835 70.0829 8.61587 69.9787 7.84727 70.6141C7.08407 71.2513 6.98335 72.3873 7.61875 73.1523L14.1543 80.9992H5.40039V84.5992H28.8004C29.7958 84.5992 30.6004 83.7946 30.6004 82.7992C30.6004 81.8038 29.7958 80.9992 28.8004 80.9992H25.1898C25.395 80.8048 25.6041 80.616 25.7805 80.391L42.6203 58.9598L47.9219 63.3016L42.209 70.9164C40.9544 72.5886 40.6499 74.7554 41.3969 76.7102C42.1421 78.665 43.815 80.0773 45.8688 80.4895C46.2576 80.5669 46.6542 80.6055 47.043 80.6055C48.7422 80.6055 50.3978 79.8868 51.557 78.6016L61.2496 67.8297C62.8732 66.0261 63.6893 63.7012 63.5453 61.2766C63.4013 58.852 62.3137 56.6365 60.4867 55.0363L52.7137 48.2371L57.7059 39.9191L66.5828 44.848C67.9382 45.6022 69.4303 45.9871 70.9387 45.9871C71.7811 45.9871 72.6279 45.8679 73.4559 45.6285C75.7779 44.9553 77.6931 43.4142 78.8523 41.2902L84.6672 30.6309C85.9812 28.2279 85.2514 25.2682 82.9762 23.7508C80.611 22.1686 77.4551 22.7489 75.7973 25.0691L69.782 33.4891L58.6656 25.5473C58.6062 25.4843 58.5581 25.4151 58.4969 25.3539L54.4926 21.3461C52.419 19.2725 49.8132 17.7962 46.9656 17.0852L38.827 15.0496C38.3198 14.9214 37.8066 14.851 37.2941 14.8352ZM37.1816 18.4387C37.4383 18.4462 37.6964 18.4811 37.9516 18.5441L46.0938 20.5797C48.3078 21.1341 50.3292 22.2768 51.9438 23.8914L55.9516 27.8992C57.7084 29.656 58.0417 32.3669 56.7637 34.4945L48.8535 47.6746C48.4089 48.4198 48.5604 49.3821 49.2156 49.9563L58.1207 57.7469C59.2151 58.7045 59.8695 60.0331 59.9559 61.4875C60.0441 62.9419 59.5515 64.3379 58.5777 65.4215L48.8852 76.1934C48.3092 76.8342 47.4285 77.129 46.5789 76.9598C45.7329 76.7906 45.0691 76.2298 44.7613 75.4234C44.4535 74.617 44.5752 73.7644 45.0918 73.075L51.8418 64.0785C52.4196 63.3063 52.2865 62.219 51.5395 61.607L37.5824 50.1883C36.4268 49.2433 35.7306 47.8993 35.6172 46.4125C35.5038 44.9275 35.9911 43.5011 36.9883 42.3941L48.1363 30.0051C48.5305 29.5677 48.6862 28.9656 48.5512 28.3914C48.4162 27.8172 48.012 27.3454 47.4648 27.1258L38.4648 23.5258C38.2524 23.4394 38.0272 23.3992 37.8004 23.3992C37.4512 23.3992 37.1026 23.5018 36.802 23.7016L24.4023 31.9668C23.8605 32.3268 23.2236 32.4365 22.5918 32.2691C21.9618 32.1017 21.4543 31.6904 21.1645 31.109C20.6659 30.1082 20.969 28.9179 21.8816 28.2789L35.0125 19.0855C35.6538 18.6373 36.4118 18.4161 37.1816 18.4387ZM79.7734 26.5C80.1789 26.4257 80.6103 26.5021 80.9793 26.7496C81.6939 27.223 81.9224 28.154 81.5102 28.9082L75.6953 39.5676C75.0005 40.842 73.8524 41.7677 72.4574 42.1691C71.0642 42.5777 69.6008 42.4054 68.3336 41.7016L59.5621 36.8324L59.8539 36.3473C60.7161 34.9091 61.116 33.3083 61.116 31.7207L69.1563 37.4652C69.9663 38.0448 71.0886 37.8569 71.6664 37.0469L78.7258 27.1645C78.9868 26.8018 79.368 26.5743 79.7734 26.5ZM34.2496 51.918C34.5754 52.2888 34.9102 52.6523 35.3008 52.9727L39.8324 56.6781L22.9539 78.1691C22.5633 78.6623 22.0019 78.9575 21.3719 78.9953C20.7293 79.0223 20.1501 78.8036 19.7055 78.359C18.9873 77.6408 18.8596 76.537 19.3996 75.6766L34.2496 51.918Z" fill="#7A96AC"/>
</svg>
