<svg width="74" height="74" viewBox="0 0 74 74" fill="none" xmlns="http://www.w3.org/2000/svg">
<path d="M31.0799 2.95996C26.3104 2.95996 23.9111 6.61371 23.9111 6.61371C23.6857 6.96637 23.6221 7.39418 23.7319 7.79887C23.8475 8.19777 24.125 8.53887 24.495 8.72387L34.0399 13.4818V16.28H26.6399C24.7263 16.28 23.096 17.5287 22.4774 19.24H19.2399C13.5338 19.24 8.87988 23.8939 8.87988 29.6V32.56C8.87988 39.4512 12.3602 46.6257 15.7538 52.17C18.6329 56.8643 21.3789 60.2406 22.1999 61.2176V62.16C22.1999 64.0736 23.4486 65.7039 25.1599 66.3225V69.56C25.1599 70.3751 25.8247 71.04 26.6399 71.04H53.2799C54.095 71.04 54.7599 70.3751 54.7599 69.56V66.3225C56.4711 65.7039 57.7199 64.0736 57.7199 62.16V60.68H59.1999C61.6338 60.68 63.6399 58.6739 63.6399 56.24V41.7868C63.6399 40.1103 62.686 38.5667 61.1886 37.8151L57.7199 36.0865V28.12C57.7199 25.2178 56.633 22.3387 54.8235 20.1129C53.0082 17.8871 50.3835 16.28 47.3599 16.28H44.3999V14.9618L53.9447 10.2039C54.3147 10.0189 54.5922 9.67777 54.7078 9.27887C54.8177 8.87418 54.7541 8.44637 54.5286 8.09371C54.5286 8.09371 52.1294 4.43996 47.3599 4.43996C45.4463 4.43996 43.8738 5.33606 42.8968 6.49809C41.9197 7.66012 41.4399 9.04184 41.4399 10.36V16.28H36.9999V8.87996C36.9999 7.56184 36.52 6.18012 35.543 5.01809C34.566 3.85606 32.9935 2.95996 31.0799 2.95996ZM31.0799 5.91996C32.1263 5.91996 32.7738 6.32465 33.2768 6.9259C33.7797 7.52137 34.0399 8.35387 34.0399 8.87996V10.175L27.6343 6.98371C28.3858 6.44027 29.4958 5.91996 31.0799 5.91996ZM47.3599 7.39996C48.9439 7.39996 50.0539 7.92027 50.8055 8.46371L44.3999 11.655V10.36C44.3999 9.83387 44.66 9.00137 45.163 8.4059C45.666 7.80465 46.3135 7.39996 47.3599 7.39996ZM26.6399 19.24H35.2713C35.4332 19.2689 35.595 19.2689 35.7511 19.24H42.6713C42.8332 19.2689 42.995 19.2689 43.1511 19.24H47.3599C49.3313 19.24 51.1466 20.2921 52.5225 21.9861C53.9043 23.6742 54.7599 25.9809 54.7599 28.12V36.9537C54.7599 36.9653 54.7599 36.9826 54.7599 37V62.16C54.7599 62.9982 54.1182 63.64 53.2799 63.64H26.6399C25.8016 63.64 25.1599 62.9982 25.1599 62.16V60.7204C25.1599 60.7089 25.1599 60.6915 25.1599 60.68V20.72C25.1599 19.8817 25.8016 19.24 26.6399 19.24ZM19.2399 22.2H22.1999V56.0839C20.9511 54.494 20.2458 53.8292 18.286 50.6264C15.0196 45.3018 11.8399 38.4164 11.8399 32.56V29.6C11.8399 25.4953 15.1352 22.2 19.2399 22.2ZM57.7199 39.3934L59.8647 40.4687C60.3677 40.7173 60.6799 41.2261 60.6799 41.7868V56.24C60.6799 57.0782 60.0382 57.72 59.1999 57.72H57.7199V39.3934ZM28.1199 66.6H51.7999V68.08H28.1199V66.6Z" fill="#7A96AC"/>
</svg>
