<svg width="74" height="74" viewBox="0 0 74 74" fill="none" xmlns="http://www.w3.org/2000/svg">
<path d="M37.0001 2.95996C23.1193 2.95996 11.8401 14.2392 11.8401 28.12C11.8401 37.7226 17.2398 46.0823 25.1601 50.32C25.1138 50.32 25.0676 50.32 25.0213 50.32C24.9751 50.32 24.9288 50.32 24.8826 50.32C24.1773 50.4529 23.6685 51.0773 23.6801 51.8V54.76C23.6859 55.3901 24.0963 55.9509 24.6976 56.1475C29.4035 57.7142 32.5601 62.1022 32.5601 67.0625V68.08H14.0601C14.0138 68.08 13.9676 68.08 13.9213 68.08C13.8751 68.08 13.8288 68.08 13.7826 68.08C12.9674 68.1551 12.3662 68.8836 12.4413 69.6987C12.5165 70.5139 13.2449 71.1151 14.0601 71.04H59.9401C60.472 71.0457 60.9692 70.7682 61.2409 70.3057C61.5068 69.8432 61.5068 69.2767 61.2409 68.8142C60.9692 68.3517 60.472 68.0742 59.9401 68.08H41.4401V67.0625C41.4401 62.1022 44.5967 57.7142 49.3026 56.1475C49.9038 55.9509 50.3143 55.3901 50.3201 54.76V51.8C50.3201 50.9848 49.6552 50.32 48.8401 50.32C56.7604 46.0823 62.1601 37.7226 62.1601 28.12C62.1601 14.2392 50.8809 2.95996 37.0001 2.95996ZM37.0001 5.91996C49.2795 5.91996 59.2001 15.8406 59.2001 28.12C59.2001 40.3993 49.2795 50.32 37.0001 50.32C24.7207 50.32 14.8001 40.3993 14.8001 28.12C14.8001 15.8406 24.7207 5.91996 37.0001 5.91996ZM51.8001 28.12C50.9849 28.12 50.3201 28.7848 50.3201 29.6C50.3201 30.4151 50.9849 31.08 51.8001 31.08C52.6152 31.08 53.2801 30.4151 53.2801 29.6C53.2801 28.7848 52.6152 28.12 51.8001 28.12ZM47.3601 32.56C46.5449 32.56 45.8801 33.2248 45.8801 34.04C45.8801 34.8551 46.5449 35.52 47.3601 35.52C48.1752 35.52 48.8401 34.8551 48.8401 34.04C48.8401 33.2248 48.1752 32.56 47.3601 32.56ZM53.2801 34.04C52.4649 34.04 51.8001 34.7048 51.8001 35.52C51.8001 36.3351 52.4649 37 53.2801 37C54.0952 37 54.7601 36.3351 54.7601 35.52C54.7601 34.7048 54.0952 34.04 53.2801 34.04ZM42.9201 37C42.1049 37 41.4401 37.6648 41.4401 38.48C41.4401 39.2951 42.1049 39.96 42.9201 39.96C43.7352 39.96 44.4001 39.2951 44.4001 38.48C44.4001 37.6648 43.7352 37 42.9201 37ZM48.8401 38.48C48.0249 38.48 47.3601 39.1448 47.3601 39.96C47.3601 40.7751 48.0249 41.44 48.8401 41.44C49.6552 41.44 50.3201 40.7751 50.3201 39.96C50.3201 39.1448 49.6552 38.48 48.8401 38.48ZM38.4801 41.44C37.6649 41.44 37.0001 42.1048 37.0001 42.92C37.0001 43.7351 37.6649 44.4 38.4801 44.4C39.2952 44.4 39.9601 43.7351 39.9601 42.92C39.9601 42.1048 39.2952 41.44 38.4801 41.44ZM44.4001 42.92C43.5849 42.92 42.9201 43.5848 42.9201 44.4C42.9201 45.2151 43.5849 45.88 44.4001 45.88C45.2152 45.88 45.8801 45.2151 45.8801 44.4C45.8801 43.5848 45.2152 42.92 44.4001 42.92ZM26.6401 53.28H47.3601V53.8812C42.0587 56.1359 38.4801 61.2292 38.4801 67.0625V68.08H35.5201V67.0625C35.5201 61.2292 31.9415 56.1359 26.6401 53.8812V53.28Z" fill="#7A96AC"/>
</svg>
