<svg width="74" height="74" viewBox="0 0 74 74" fill="none" xmlns="http://www.w3.org/2000/svg">
<path d="M14.7999 10.3604C9.09647 10.3604 4.43994 15.0169 4.43994 20.7204C4.43994 26.4238 9.09647 31.0804 14.7999 31.0804C20.5034 31.0804 25.1599 26.4238 25.1599 20.7204C25.1599 15.0169 20.5034 10.3604 14.7999 10.3604ZM53.2799 10.3604V13.3204H64.7355L53.2279 25.9755L47.3599 20.1075L31.0799 36.3875L25.2004 30.508L4.91689 49.2335L6.92299 51.4072L25.1195 34.6127L31.0799 40.5732L47.3599 24.2932L53.332 30.2652L66.5999 15.6675V26.6404H69.5599V10.3604H53.2799ZM14.7999 13.3204C18.9029 13.3204 22.1999 16.6173 22.1999 20.7204C22.1999 24.8234 18.9029 28.1204 14.7999 28.1204C10.6969 28.1204 7.39994 24.8234 7.39994 20.7204C7.39994 16.6173 10.6969 13.3204 14.7999 13.3204ZM14.0455 16.6995L11.3659 19.3791H13.4587V24.7412H16.1412V16.6995H14.0455ZM57.7199 29.6004V65.1203H60.6799V29.6004H57.7199ZM66.5999 32.5604V65.1203H69.5599V32.5604H66.5999ZM39.9599 37.0003V65.1203H42.9199V37.0003H39.9599ZM48.8399 37.0003V65.1203H51.7999V37.0003H48.8399ZM22.1999 44.4003V65.1203H25.1599V44.4003H22.1999ZM31.0799 45.8803V65.1203H34.0399V45.8803H31.0799ZM13.3199 51.8003V65.1203H16.2799V51.8003H13.3199ZM4.43994 57.7203V65.1203H7.39994V57.7203H4.43994Z" fill="#6D5132"/>
</svg>
