<svg width="71" height="88" viewBox="0 0 71 88" fill="none" xmlns="http://www.w3.org/2000/svg">
<path d="M70.3694 7.66982C70.0159 7.46425 69.5795 7.46228 69.2239 7.6649L54.3446 16.1432C53.986 16.3474 53.7647 16.7284 53.7647 17.141V49.6288C51.2425 46.4724 47.9209 43.9818 44.1084 42.4683V22.0898C44.1084 21.6806 43.8907 21.3024 43.537 21.0969C43.1833 20.8913 42.7469 20.8893 42.3915 21.0919L27.512 29.5704C27.1536 29.7746 26.9322 30.1556 26.9322 30.5682V42.4683C23.1197 43.9818 19.798 46.4726 17.2758 49.629V35.5173C17.2758 35.1081 17.0581 34.73 16.7044 34.5244C16.3509 34.3188 15.9144 34.317 15.5589 34.5195L0.679605 42.9977C0.320964 43.202 0.0996441 43.5829 0.0996441 43.9956V81.4533C0.0996441 82.0876 0.613816 82.6018 1.24808 82.6018H16.1274C16.7617 82.6018 17.2758 82.0876 17.2758 81.4533V78.7264C21.5574 84.0846 28.1443 87.5238 35.5204 87.5238C42.8965 87.5238 49.4833 84.0846 53.7648 78.7264V81.4533C53.7648 82.0876 54.279 82.6018 54.9133 82.6018H69.7926C70.4268 82.6018 70.941 82.0876 70.941 81.4533V8.66273C70.9408 8.25355 70.7233 7.87539 70.3694 7.66982ZM29.2289 31.2356L41.8114 24.0659V41.6934C39.809 41.1325 37.6992 40.8314 35.5201 40.8314C33.3412 40.8314 31.2312 41.1325 29.2288 41.6934L29.2289 31.2356ZM14.9788 80.3049H2.39635V44.6628L14.9788 37.4933V53.0909C13.1905 56.391 12.174 60.1677 12.174 64.1775C12.174 68.1874 13.1905 71.9641 14.9788 75.2642V80.3049ZM35.5202 85.2269C23.9136 85.2269 14.4709 75.7841 14.4709 64.1775C14.4709 52.5709 23.9136 43.1283 35.5202 43.1283C47.1269 43.1283 56.5695 52.5709 56.5695 64.1775C56.5695 75.7841 47.1269 85.2269 35.5202 85.2269ZM68.644 80.3049H56.0615V75.2644C57.8498 71.9643 58.8663 68.1876 58.8663 64.1775C58.8663 60.1675 57.8498 56.391 56.0615 53.0909V17.8084L68.644 10.6389V80.3049ZM35.5202 46.2972C25.6609 46.2972 17.6397 54.3184 17.6397 64.1775C17.6397 74.037 25.6609 82.0581 35.5202 82.0581C45.3796 82.0581 53.4008 74.037 53.4008 64.1775C53.4008 54.3182 45.3796 46.2972 35.5202 46.2972ZM35.5202 79.7612C26.9275 79.7612 19.9366 72.7705 19.9366 64.1775C19.9366 55.5848 26.9275 48.5941 35.5202 48.5941C44.113 48.5941 51.1039 55.5848 51.1039 64.1775C51.1039 72.7705 44.113 79.7612 35.5202 79.7612ZM41.167 68.2684C41.167 70.7496 39.2448 72.8276 36.6912 73.3222L36.7217 74.5863C36.7369 75.2204 36.2354 75.7467 35.6013 75.7622C35.5918 75.7623 35.5824 75.7625 35.5731 75.7625C34.9516 75.7625 34.4406 75.2665 34.4255 74.6418L34.3941 73.3406C32.8703 73.0737 31.8973 72.2706 30.9685 71.3943C30.5072 70.9591 30.486 70.2323 30.9212 69.7708C31.3563 69.3094 32.0833 69.2884 32.5448 69.7235C33.6014 70.7202 34.2483 71.1369 35.5204 71.1369C37.3676 71.1369 38.8702 69.85 38.8702 68.2684C38.8702 66.6865 37.3674 65.3998 35.5204 65.3998C32.4067 65.3998 29.8735 63.0826 29.8735 60.2345C29.8735 57.7524 31.7973 55.6735 34.3526 55.18L34.3188 53.7684C34.3037 53.1345 34.8054 52.6082 35.4395 52.5929C36.072 52.5782 36.5999 53.0795 36.6152 53.7136L36.651 55.2092C38.0363 55.516 39.7275 56.3116 40.471 57.4429C40.8193 57.9729 40.672 58.6849 40.1419 59.0332C39.6118 59.3813 38.8996 59.2342 38.5515 58.7041C38.1653 58.1162 36.4656 57.3658 35.5204 57.3658C33.6732 57.3658 32.1704 58.6527 32.1704 60.2343C32.1704 61.8159 33.6732 63.1028 35.5204 63.1028C38.6338 63.1029 41.167 65.4202 41.167 68.2684ZM53.8075 5.61519L1.69092 33.7672C1.51734 33.8609 1.33047 33.9053 1.14607 33.9053C0.737714 33.9053 0.342324 33.6871 0.134621 33.3025C-0.166762 32.7446 0.0411053 32.0478 0.599246 31.7463L52.2722 3.83413L47.5362 2.74459C46.918 2.60235 46.5323 1.98597 46.6746 1.36778C46.8168 0.749593 47.433 0.364047 48.0512 0.505961L55.7538 2.278C56.0506 2.34641 56.3081 2.52967 56.4697 2.78791C56.6314 3.04598 56.6838 3.35786 56.6154 3.65465L54.8432 11.3574C54.701 11.9756 54.0846 12.3606 53.4666 12.2192C52.8484 12.077 52.4627 11.4606 52.6049 10.8424L53.8075 5.61519Z" fill="#6D5132"/>
</svg>
