<svg width="87" height="84" viewBox="0 0 87 84" fill="none" xmlns="http://www.w3.org/2000/svg">
<path d="M75.3013 34.3568C74.3479 32.5022 73.4648 30.7277 72.8244 29.4272C72.1901 28.1419 71.6707 26.8157 71.2896 25.8071C69.2822 20.4881 66.4704 18.1246 65.1019 17.2393V1.32313C65.1017 0.972277 64.9622 0.63585 64.7141 0.387758C64.466 0.139666 64.1296 0.000200317 63.7788 0H22.5878C22.2368 0 21.9003 0.139401 21.6522 0.387537C21.404 0.635672 21.2646 0.972216 21.2646 1.32313V17.1251C19.8984 18.0112 17.0843 20.3762 15.0769 25.693C14.6989 26.7038 14.1757 28.0277 13.5421 29.3138C12.9017 30.6158 12.0186 32.3888 11.0652 34.2434C7.56384 41.0448 4.72164 48.1657 2.57746 55.5088C0.26765 63.4521 0 65.4996 0 66.3456V82.5551C0.000200317 82.906 0.139666 83.2424 0.387758 83.4905C0.63585 83.7386 0.972277 83.8781 1.32313 83.8783H19.9286C20.2795 83.8781 20.6159 83.7386 20.864 83.4905C21.1121 83.2424 21.2516 82.906 21.2518 82.5551V71.1906H21.2646V74.3925C21.2646 74.7435 21.404 75.08 21.6522 75.3281C21.9003 75.5763 22.2368 75.7157 22.5878 75.7157H63.7788C64.1296 75.7155 64.466 75.576 64.7141 75.3279C64.9622 75.0798 65.1017 74.7434 65.1019 74.3925V71.3062H65.1147V82.6769C65.1149 83.0277 65.2544 83.3642 65.5025 83.6122C65.7506 83.8603 66.087 83.9998 66.4379 84H85.0426C85.3935 84 85.7301 83.8606 85.9782 83.6125C86.2264 83.3643 86.3658 83.0278 86.3658 82.6769V66.4643C86.3658 65.6145 86.0989 63.5663 83.789 55.6245C81.645 48.2806 78.8028 41.1589 75.3013 34.3568ZM62.4556 2.64626V49.5887L62.4443 49.5933C61.8781 49.7761 61.27 49.7843 60.6992 49.6166C60.1284 49.449 59.6212 49.1134 59.2438 48.6535L56.3889 45.2277C55.8757 44.612 55.2399 44.11 54.522 43.7538C53.804 43.3975 53.0197 43.1948 52.2191 43.1585C51.4184 43.1222 50.619 43.2532 49.8718 43.5431C49.1246 43.8329 48.446 44.2753 47.8792 44.8421C47.0634 45.656 46.5773 46.7428 46.5146 47.8936C46.452 49.0443 46.8171 50.1775 47.5398 51.0752L54.5599 59.8207C54.9301 60.2887 55.2564 60.7898 55.5345 61.3177H30.7685C31.0602 60.7471 31.4079 60.2068 31.8066 59.705L38.8267 50.9633C39.5493 50.0654 39.9144 48.9321 39.8517 47.7813C39.789 46.6305 39.3031 45.5435 38.4873 44.7294C37.9206 44.1626 37.242 43.7201 36.4948 43.4301C35.7476 43.1402 34.9481 43.0092 34.1474 43.0455C33.3467 43.0817 32.5624 43.2845 31.8444 43.6409C31.1265 43.9972 30.4907 44.4993 29.9776 45.115L27.1227 48.5408C26.7447 49 26.2374 49.3348 25.6667 49.5019C25.0959 49.6689 24.4881 49.6605 23.9222 49.4776L23.9109 49.4731V2.64626H62.4556ZM19.9143 68.6464C19.5659 68.6502 19.233 68.7912 18.988 69.0389C18.7429 69.2867 18.6055 69.6211 18.6055 69.9695V81.235H2.64626V66.3456C2.64626 65.7476 2.9676 63.6404 5.11863 56.2452C7.21569 49.065 9.99483 42.1018 13.4181 35.4509C14.3798 33.5811 15.2705 31.793 15.9131 30.4804C16.5936 29.093 17.1463 27.692 17.5493 26.6244C18.3399 24.3544 19.6046 22.2786 21.2593 20.535V35.9809C19.6948 39.5082 19.0019 43.3602 19.2391 47.2116C19.3112 48.0649 19.5835 48.8891 20.034 49.6173C20.4845 50.3455 21.1004 50.9571 21.8317 51.4026C21.8762 51.4307 21.9224 51.4559 21.97 51.4782C22.3374 51.6948 22.7276 51.87 23.1336 52.0006C24.1983 52.3458 25.3424 52.3616 26.4162 52.0459C27.49 51.7303 28.4435 51.0978 29.152 50.2314L32.0077 46.8056C32.2853 46.4723 32.6293 46.2005 33.0178 46.0076C33.4064 45.8147 33.8308 45.7049 34.2641 45.6852C34.6975 45.6655 35.1301 45.7363 35.5346 45.8932C35.939 46.05 36.3063 46.2894 36.613 46.5962C36.9677 46.949 37.1794 47.4206 37.2073 47.9202C37.2352 48.4198 37.0774 48.912 36.7642 49.3022L29.7433 58.0485C28.5288 59.5388 27.6981 61.3041 27.3238 63.1898C26.7265 66.3502 24.295 67.6733 22.3753 68.2328C22.2655 68.2497 22.1583 68.2804 22.0562 68.3243C21.3559 68.5082 20.6378 68.6162 19.9143 68.6464ZM62.4556 73.0671H23.9109V70.5116C25.3826 70.0257 26.7036 69.1674 27.7455 68.0201C28.7875 66.8728 29.515 65.4755 29.8574 63.964H56.4811C56.8071 65.5 57.5302 66.9236 58.5783 68.0928C59.6264 69.262 60.9628 70.1359 62.4541 70.6273L62.4556 73.0671ZM83.7195 81.3507H67.761V70.0852C67.7608 69.7368 67.6233 69.4025 67.3783 69.1548C67.1333 68.9072 66.8006 68.766 66.4522 68.7621C66.388 68.7621 60.0483 68.6335 59.0427 63.307C58.6682 61.4213 57.8375 59.6561 56.6233 58.1656L49.6031 49.4216C49.2899 49.0315 49.1321 48.5392 49.16 48.0396C49.1879 47.5401 49.3996 47.0685 49.7543 46.7156C50.0611 46.4089 50.4284 46.1694 50.8329 46.0126C51.2374 45.8557 51.6701 45.7849 52.1035 45.8046C52.5369 45.8243 52.9614 45.9341 53.35 46.127C53.7385 46.32 54.0826 46.5917 54.3603 46.9251L57.2153 50.3501C57.9237 51.2167 58.8771 51.8492 59.9509 52.1651C61.0247 52.4809 62.1689 52.4652 63.2336 52.1201C63.599 52.0021 63.9518 51.8481 64.2868 51.6604C64.3828 51.621 64.4737 51.5703 64.5575 51.5092C65.2832 51.0624 65.8938 50.4516 66.3403 49.7258C66.7868 49 67.0566 48.1795 67.1282 47.3303C67.3653 43.4787 66.6724 39.6264 65.1079 36.0988V20.6522C66.7613 22.3962 68.0247 24.4719 68.8142 26.7416C69.2164 27.8062 69.7661 29.2064 70.4496 30.5976C71.0961 31.9102 71.9867 33.6975 72.9447 35.5681C76.3695 42.2198 79.1499 49.184 81.2479 56.3654C83.3982 63.7591 83.7195 65.867 83.7195 66.4659V81.3507Z" fill="#7A96AC"/>
<path d="M47.8338 68.1182H38.5341C38.1832 68.1182 37.8466 68.2576 37.5985 68.5057C37.3503 68.7538 37.2109 69.0904 37.2109 69.4413C37.2109 69.7922 37.3503 70.1288 37.5985 70.3769C37.8466 70.625 38.1832 70.7644 38.5341 70.7644H47.8338C48.1847 70.7644 48.5213 70.625 48.7694 70.3769C49.0175 70.1288 49.1569 69.7922 49.1569 69.4413C49.1569 69.0904 49.0175 68.7538 48.7694 68.5057C48.5213 68.2576 48.1847 68.1182 47.8338 68.1182Z" fill="#7A96AC"/>
<path d="M49.3629 37.9961H36.9013C36.5503 37.9961 36.2138 38.1355 35.9657 38.3836C35.7175 38.6318 35.5781 38.9683 35.5781 39.3192C35.5781 39.6701 35.7175 40.0067 35.9657 40.2548C36.2138 40.503 36.5503 40.6424 36.9013 40.6424H49.3629C49.7138 40.6424 50.0504 40.503 50.2985 40.2548C50.5466 40.0067 50.686 39.6701 50.686 39.3192C50.686 38.9683 50.5466 38.6318 50.2985 38.3836C50.0504 38.1355 49.7138 37.9961 49.3629 37.9961Z" fill="#7A96AC"/>
<path d="M47.7014 29.6281C47.7014 28.7228 47.433 27.8378 46.93 27.0851C46.4271 26.3323 45.7122 25.7457 44.8758 25.3992C44.0394 25.0528 43.1191 24.9621 42.2312 25.1387C41.3433 25.3154 40.5277 25.7513 39.8875 26.3914C39.2474 27.0316 38.8114 27.8472 38.6348 28.7351C38.4582 29.623 38.5489 30.5433 38.8953 31.3797C39.2417 32.2161 39.8284 32.931 40.5812 33.4339C41.3339 33.9369 42.2189 34.2053 43.1242 34.2053C44.3378 34.2041 45.5013 33.7215 46.3595 32.8634C47.2176 32.0052 47.7002 30.8417 47.7014 29.6281ZM41.1939 29.6281C41.1939 29.2461 41.3072 28.8727 41.5194 28.5552C41.7316 28.2376 42.0332 27.9901 42.3861 27.844C42.739 27.6978 43.1273 27.6596 43.5019 27.7342C43.8765 27.8088 44.2206 27.9928 44.4906 28.2629C44.7606 28.533 44.9445 28.8772 45.0189 29.2518C45.0933 29.6264 45.055 30.0147 44.9087 30.3676C44.7625 30.7204 44.5148 31.0219 44.1972 31.234C43.8795 31.4461 43.5061 31.5592 43.1242 31.5591C42.6123 31.5583 42.1217 31.3546 41.7599 30.9926C41.398 30.6306 41.1945 30.1399 41.1939 29.6281Z" fill="#7A96AC"/>
<path d="M31.5263 17.2759H54.827C55.1779 17.2759 55.5145 17.1365 55.7626 16.8884C56.0107 16.6403 56.1501 16.3037 56.1501 15.9528V9.90419C56.1499 9.55333 56.0105 9.21691 55.7624 8.96881C55.5143 8.72072 55.1778 8.58126 54.827 8.58105H31.5263C31.1753 8.58105 30.8388 8.72046 30.5907 8.96859C30.3425 9.21673 30.2031 9.55327 30.2031 9.90419V15.9528C30.203 16.1266 30.2372 16.2987 30.3036 16.4593C30.3701 16.6198 30.4676 16.7657 30.5904 16.8886C30.7133 17.0115 30.8592 17.109 31.0198 17.1754C31.1804 17.2419 31.3525 17.276 31.5263 17.2759ZM40.6166 14.6297V11.2273H45.7367V14.6297H40.6166ZM53.5039 14.6297H48.383V11.2273H53.5039V14.6297ZM32.8494 11.2273H37.9703V14.6297H32.8494V11.2273Z" fill="#7A96AC"/>
</svg>
