<svg width="74" height="74" viewBox="0 0 74 74" fill="none" xmlns="http://www.w3.org/2000/svg">
<path d="M8.87996 4.44043C5.62512 4.44043 2.95996 7.10559 2.95996 10.3604C2.95996 13.6153 5.62512 16.2804 8.87996 16.2804C12.1348 16.2804 14.8 13.6153 14.8 10.3604C14.8 7.10559 12.1348 4.44043 8.87996 4.44043ZM8.87996 7.40043C10.5334 7.40043 11.84 8.70699 11.84 10.3604C11.84 12.0139 10.5334 13.3204 8.87996 13.3204C7.22652 13.3204 5.91996 12.0139 5.91996 10.3604C5.91996 8.70699 7.22652 7.40043 8.87996 7.40043ZM17.76 8.88043C16.9448 8.88043 16.28 9.54527 16.28 10.3604C16.28 11.1756 16.9448 11.8404 17.76 11.8404C18.5751 11.8404 19.24 11.1756 19.24 10.3604C19.24 9.54527 18.5751 8.88043 17.76 8.88043ZM23.68 8.88043C22.8648 8.88043 22.2 9.54527 22.2 10.3604C22.2 11.1756 22.8648 11.8404 23.68 11.8404C24.4951 11.8404 25.16 11.1756 25.16 10.3604C25.16 9.54527 24.4951 8.88043 23.68 8.88043ZM29.6 8.88043C28.7848 8.88043 28.12 9.54527 28.12 10.3604C28.12 11.1756 28.7848 11.8404 29.6 11.8404C30.4151 11.8404 31.08 11.1756 31.08 10.3604C31.08 9.54527 30.4151 8.88043 29.6 8.88043ZM35.52 8.88043C34.7048 8.88043 34.04 9.54527 34.04 10.3604C34.04 11.1756 34.7048 11.8404 35.52 11.8404C36.3351 11.8404 37 11.1756 37 10.3604C37 9.54527 36.3351 8.88043 35.52 8.88043ZM41.44 8.88043C40.6248 8.88043 39.96 9.54527 39.96 10.3604C39.96 11.1756 40.6248 11.8404 41.44 11.8404C42.2551 11.8404 42.92 11.1756 42.92 10.3604C42.92 9.54527 42.2551 8.88043 41.44 8.88043ZM47.36 8.88043C46.5448 8.88043 45.88 9.54527 45.88 10.3604C45.88 11.1756 46.5448 11.8404 47.36 11.8404C48.1751 11.8404 48.84 11.1756 48.84 10.3604C48.84 9.54527 48.1751 8.88043 47.36 8.88043ZM53.28 8.88043C52.4648 8.88043 51.8 9.54527 51.8 10.3604C51.8 11.1756 52.4648 11.8404 53.28 11.8404C54.0951 11.8404 54.76 11.1756 54.76 10.3604C54.76 9.54527 54.0951 8.88043 53.28 8.88043ZM59.2 8.88043C58.3848 8.88043 57.72 9.54527 57.72 10.3604C57.72 11.1756 58.3848 11.8404 59.2 11.8404C60.0151 11.8404 60.68 11.1756 60.68 10.3604C60.68 9.54527 60.0151 8.88043 59.2 8.88043ZM65.12 8.88043C64.3048 8.88043 63.64 9.54527 63.64 10.3604C63.64 11.1756 64.3048 11.8404 65.12 11.8404C65.9351 11.8404 66.6 11.1756 66.6 10.3604C66.6 9.54527 65.9351 8.88043 65.12 8.88043ZM65.12 14.8004C64.3048 14.8004 63.64 15.4653 63.64 16.2804C63.64 17.0956 64.3048 17.7604 65.12 17.7604C65.9351 17.7604 66.6 17.0956 66.6 16.2804C66.6 15.4653 65.9351 14.8004 65.12 14.8004ZM35.52 20.7204C30.6348 20.7204 26.64 24.7153 26.64 29.6004C26.64 31.0689 27.1834 32.6356 27.9061 34.422C28.6229 36.2084 29.5711 38.1509 30.5076 39.9546C32.3865 43.5679 34.2539 46.6493 34.2539 46.6493C34.5198 47.0945 34.9996 47.3604 35.52 47.3604C36.0403 47.3604 36.5201 47.0945 36.7861 46.6493C36.7861 46.6493 38.6534 43.5679 40.5323 39.9546C41.4689 38.1509 42.417 36.2084 43.1339 34.422C43.8565 32.6356 44.4 31.0689 44.4 29.6004C44.4 24.7153 40.4051 20.7204 35.52 20.7204ZM65.12 20.7204C64.3048 20.7204 63.64 21.3853 63.64 22.2004C63.64 23.0156 64.3048 23.6804 65.12 23.6804C65.9351 23.6804 66.6 23.0156 66.6 22.2004C66.6 21.3853 65.9351 20.7204 65.12 20.7204ZM35.52 23.6804C38.8037 23.6804 41.44 26.3167 41.44 29.6004C41.44 30.1728 41.0584 31.6701 40.3936 33.3178C39.7229 34.9596 38.8211 36.8386 37.9076 38.5903C36.7167 40.8796 36.2021 41.6832 35.52 42.8511C34.8378 41.6832 34.3232 40.8796 33.1323 38.5903C32.2189 36.8386 31.317 34.9596 30.6464 33.3178C29.9815 31.6701 29.6 30.1728 29.6 29.6004C29.6 26.3167 32.2362 23.6804 35.52 23.6804ZM65.12 25.1604C61.8651 25.1604 59.2 27.8256 59.2 31.0804C59.2 34.3353 61.8651 37.0004 65.12 37.0004C68.3748 37.0004 71.04 34.3353 71.04 31.0804C71.04 27.8256 68.3748 25.1604 65.12 25.1604ZM35.52 26.6404C33.8839 26.6404 32.56 27.9643 32.56 29.6004C32.56 31.2365 33.8839 32.5604 35.52 32.5604C37.1561 32.5604 38.48 31.2365 38.48 29.6004C38.48 27.9643 37.1561 26.6404 35.52 26.6404ZM65.12 28.1204C66.7734 28.1204 68.08 29.427 68.08 31.0804C68.08 32.7339 66.7734 34.0404 65.12 34.0404C63.4665 34.0404 62.16 32.7339 62.16 31.0804C62.16 29.427 63.4665 28.1204 65.12 28.1204ZM65.12 38.4804C64.3048 38.4804 63.64 39.1453 63.64 39.9604C63.64 40.7756 64.3048 41.4404 65.12 41.4404C65.9351 41.4404 66.6 40.7756 66.6 39.9604C66.6 39.1453 65.9351 38.4804 65.12 38.4804ZM5.91996 44.4004C5.10481 44.4004 4.43996 45.0653 4.43996 45.8804C4.43996 46.6956 5.10481 47.3604 5.91996 47.3604C6.73512 47.3604 7.39996 46.6956 7.39996 45.8804C7.39996 45.0653 6.73512 44.4004 5.91996 44.4004ZM11.84 44.4004C11.0248 44.4004 10.36 45.0653 10.36 45.8804C10.36 46.6956 11.0248 47.3604 11.84 47.3604C12.6551 47.3604 13.32 46.6956 13.32 45.8804C13.32 45.0653 12.6551 44.4004 11.84 44.4004ZM17.76 44.4004C16.9448 44.4004 16.28 45.0653 16.28 45.8804C16.28 46.6956 16.9448 47.3604 17.76 47.3604C18.5751 47.3604 19.24 46.6956 19.24 45.8804C19.24 45.0653 18.5751 44.4004 17.76 44.4004ZM23.68 44.4004C22.8648 44.4004 22.2 45.0653 22.2 45.8804C22.2 46.6956 22.8648 47.3604 23.68 47.3604C24.4951 47.3604 25.16 46.6956 25.16 45.8804C25.16 45.0653 24.4951 44.4004 23.68 44.4004ZM29.6 44.4004C28.7848 44.4004 28.12 45.0653 28.12 45.8804C28.12 46.6956 28.7848 47.3604 29.6 47.3604C30.4151 47.3604 31.08 46.6956 31.08 45.8804C31.08 45.0653 30.4151 44.4004 29.6 44.4004ZM41.44 44.4004C40.6248 44.4004 39.96 45.0653 39.96 45.8804C39.96 46.6956 40.6248 47.3604 41.44 47.3604C42.2551 47.3604 42.92 46.6956 42.92 45.8804C42.92 45.0653 42.2551 44.4004 41.44 44.4004ZM47.36 44.4004C46.5448 44.4004 45.88 45.0653 45.88 45.8804C45.88 46.6956 46.5448 47.3604 47.36 47.3604C48.1751 47.3604 48.84 46.6956 48.84 45.8804C48.84 45.0653 48.1751 44.4004 47.36 44.4004ZM53.28 44.4004C52.4648 44.4004 51.8 45.0653 51.8 45.8804C51.8 46.6956 52.4648 47.3604 53.28 47.3604C54.0951 47.3604 54.76 46.6956 54.76 45.8804C54.76 45.0653 54.0951 44.4004 53.28 44.4004ZM59.2 44.4004C58.3848 44.4004 57.72 45.0653 57.72 45.8804C57.72 46.6956 58.3848 47.3604 59.2 47.3604C60.0151 47.3604 60.68 46.6956 60.68 45.8804C60.68 45.0653 60.0151 44.4004 59.2 44.4004ZM65.12 44.4004C64.3048 44.4004 63.64 45.0653 63.64 45.8804C63.64 46.6956 64.3048 47.3604 65.12 47.3604C65.9351 47.3604 66.6 46.6956 66.6 45.8804C66.6 45.0653 65.9351 44.4004 65.12 44.4004ZM5.91996 50.3204C5.10481 50.3204 4.43996 50.9853 4.43996 51.8004C4.43996 52.6156 5.10481 53.2804 5.91996 53.2804C6.73512 53.2804 7.39996 52.6156 7.39996 51.8004C7.39996 50.9853 6.73512 50.3204 5.91996 50.3204ZM5.91996 56.2404C5.10481 56.2404 4.43996 56.9053 4.43996 57.7204C4.43996 58.5356 5.10481 59.2004 5.91996 59.2004C6.73512 59.2004 7.39996 58.5356 7.39996 57.7204C7.39996 56.9053 6.73512 56.2404 5.91996 56.2404ZM63.64 57.7204C60.3851 57.7204 57.72 60.3856 57.72 63.6404C57.72 66.8953 60.3851 69.5604 63.64 69.5604C66.8948 69.5604 69.56 66.8953 69.56 63.6404C69.56 60.3856 66.8948 57.7204 63.64 57.7204ZM63.64 60.6804C65.2934 60.6804 66.6 61.987 66.6 63.6404C66.6 65.2939 65.2934 66.6004 63.64 66.6004C61.9865 66.6004 60.68 65.2939 60.68 63.6404C60.68 61.987 61.9865 60.6804 63.64 60.6804ZM5.91996 62.1604C5.10481 62.1604 4.43996 62.8253 4.43996 63.6404C4.43996 64.4556 5.10481 65.1204 5.91996 65.1204C6.73512 65.1204 7.39996 64.4556 7.39996 63.6404C7.39996 62.8253 6.73512 62.1604 5.91996 62.1604ZM11.84 62.1604C11.0248 62.1604 10.36 62.8253 10.36 63.6404C10.36 64.4556 11.0248 65.1204 11.84 65.1204C12.6551 65.1204 13.32 64.4556 13.32 63.6404C13.32 62.8253 12.6551 62.1604 11.84 62.1604ZM17.76 62.1604C16.9448 62.1604 16.28 62.8253 16.28 63.6404C16.28 64.4556 16.9448 65.1204 17.76 65.1204C18.5751 65.1204 19.24 64.4556 19.24 63.6404C19.24 62.8253 18.5751 62.1604 17.76 62.1604ZM23.68 62.1604C22.8648 62.1604 22.2 62.8253 22.2 63.6404C22.2 64.4556 22.8648 65.1204 23.68 65.1204C24.4951 65.1204 25.16 64.4556 25.16 63.6404C25.16 62.8253 24.4951 62.1604 23.68 62.1604ZM29.6 62.1604C28.7848 62.1604 28.12 62.8253 28.12 63.6404C28.12 64.4556 28.7848 65.1204 29.6 65.1204C30.4151 65.1204 31.08 64.4556 31.08 63.6404C31.08 62.8253 30.4151 62.1604 29.6 62.1604ZM35.52 62.1604C34.7048 62.1604 34.04 62.8253 34.04 63.6404C34.04 64.4556 34.7048 65.1204 35.52 65.1204C36.3351 65.1204 37 64.4556 37 63.6404C37 62.8253 36.3351 62.1604 35.52 62.1604ZM41.44 62.1604C40.6248 62.1604 39.96 62.8253 39.96 63.6404C39.96 64.4556 40.6248 65.1204 41.44 65.1204C42.2551 65.1204 42.92 64.4556 42.92 63.6404C42.92 62.8253 42.2551 62.1604 41.44 62.1604ZM47.36 62.1604C46.5448 62.1604 45.88 62.8253 45.88 63.6404C45.88 64.4556 46.5448 65.1204 47.36 65.1204C48.1751 65.1204 48.84 64.4556 48.84 63.6404C48.84 62.8253 48.1751 62.1604 47.36 62.1604ZM53.28 62.1604C52.4648 62.1604 51.8 62.8253 51.8 63.6404C51.8 64.4556 52.4648 65.1204 53.28 65.1204C54.0951 65.1204 54.76 64.4556 54.76 63.6404C54.76 62.8253 54.0951 62.1604 53.28 62.1604Z" fill="#7A96AC"/>
</svg>
