<svg width="92" height="84" viewBox="0 0 92 84" fill="none" xmlns="http://www.w3.org/2000/svg">
<path fill-rule="evenodd" clip-rule="evenodd" d="M46.4689 63.1776H11.015C10.2129 63.1776 9.56258 62.5275 9.56258 61.7252V57.0743C9.56258 56.2722 10.2129 55.6219 11.015 55.6219H14.2191V40.847C14.2191 40.0449 14.8694 39.3946 15.6715 39.3946H25.1982C26.0004 39.3946 26.6506 40.0449 26.6506 40.847V55.6219H31.9122V31.2668C31.9122 30.4647 32.5625 29.8144 33.3646 29.8144H42.8913C43.6935 29.8144 44.3436 30.4647 44.3436 31.2668V55.6219H46.4689V46.5969C46.4689 44.3433 47.7397 42.3762 49.6011 41.376V21.2674C49.6011 20.4653 50.2514 19.815 51.0535 19.815H60.5843C61.3866 19.815 62.0367 20.4653 62.0367 21.2674V40.6751H67.2942V12.2709C67.2942 11.4688 67.9445 10.8185 68.7466 10.8185H78.2734C79.0755 10.8185 79.7258 11.4688 79.7258 12.2709V40.6751H85.1026C88.3636 40.6751 91.0244 43.3359 91.0244 46.5969V68.9841C91.0244 72.2456 88.3643 74.899 85.1026 74.899H82.7753V82.5476C82.7753 83.1404 82.4151 83.6736 81.8652 83.8949C81.3155 84.1162 80.6862 83.9812 80.2756 83.5538L71.9617 74.899H52.3906C49.1291 74.899 46.4689 72.2456 46.4689 68.9841V63.1776ZM17.1239 55.6219H23.7458C23.7458 51.8979 23.7458 42.2994 23.7458 42.2994H17.1239V55.6219ZM34.817 55.6219H41.4389C41.4389 50.3765 41.4389 32.7192 41.4389 32.7192H34.817V55.6219ZM46.4689 58.5267H12.4674V60.2728H46.4689V58.5267ZM52.5059 40.6751H59.1319V22.7198H52.5059V40.6751ZM70.199 40.6751H76.821C76.821 34.88 76.821 13.7233 76.821 13.7233H70.199V40.6751ZM49.3737 68.9841C49.3737 70.6449 50.7298 71.9942 52.3906 71.9942H72.5804C72.9756 71.9942 73.354 72.1554 73.6278 72.4404L79.8705 78.9392V73.4466C79.8705 72.6445 80.5208 71.9942 81.3229 71.9942H85.1026C86.7634 71.9942 88.1196 70.6449 88.1196 68.9841V46.5969C88.1196 44.9355 86.764 43.5799 85.1026 43.5799H52.3906C50.7293 43.5799 49.3737 44.9355 49.3737 46.5969V68.9841ZM67.794 67.68C65.6679 66.3939 62.4774 64.104 60.2408 61.4247C58.5924 59.4502 57.4769 57.2534 57.4384 55.0863V55.0861C57.3802 51.7688 59.222 49.3945 61.702 48.5258C63.7743 47.7998 66.3776 48.1132 68.745 50.0098C71.1122 48.1157 73.7158 47.802 75.7887 48.5271C78.2703 49.3953 80.1131 51.7687 80.055 55.0861V55.0863C80.0163 57.2534 78.9009 59.4502 77.2526 61.4247C75.0161 64.104 71.8253 66.3939 69.6996 67.6798C69.0974 68.0484 68.3962 68.0484 67.794 67.68ZM68.7466 64.8533C70.6369 63.6545 73.1895 61.7593 75.0226 59.5633C76.2127 58.1376 77.1228 56.5995 77.1505 55.0349C77.1834 53.1593 76.2325 51.7598 74.8294 51.269C73.3293 50.7442 71.4432 51.2581 69.7942 52.9821C69.52 53.2686 69.1408 53.4306 68.7443 53.4306C68.3478 53.4304 67.9685 53.2683 67.6945 52.9816C66.0459 51.2565 64.1612 50.742 62.6624 51.2672C61.2599 51.7585 60.3098 53.159 60.3427 55.0349C60.3707 56.5995 61.2806 58.1376 62.4708 59.5633C64.3039 61.7593 66.8563 63.6545 68.7466 64.8533ZM17.3354 0C26.3646 0 33.695 7.3306 33.695 16.3596C33.695 25.3888 26.3646 32.7192 17.3354 32.7192C8.30625 32.7192 0.97583 25.3888 0.97583 16.3596C0.97583 7.3306 8.30625 0 17.3354 0ZM17.3354 2.90479C9.90952 2.90479 3.88062 8.93369 3.88062 16.3596C3.88062 23.7855 9.90952 29.8144 17.3354 29.8144C24.7614 29.8144 30.7903 23.7855 30.7903 16.3596C30.7903 8.93369 24.7614 2.90479 17.3354 2.90479ZM12.6404 6.52126C13.7665 6.52126 14.8264 6.96042 15.6214 7.75543C16.4163 8.55044 16.8556 9.61849 16.8556 10.7365C16.8556 13.0634 14.9757 14.9515 12.6404 14.9515C10.3133 14.9515 8.42517 13.0717 8.42517 10.7365C8.42517 8.40937 10.3133 6.52126 12.6404 6.52126ZM12.6404 9.42605C11.9169 9.42605 11.33 10.013 11.33 10.7365C11.33 11.4625 11.9169 12.0467 12.6404 12.0467C13.3664 12.0467 13.9508 11.4598 13.9508 10.7365C13.9508 10.3888 13.8145 10.0566 13.5674 9.8093C13.3201 9.56221 12.9906 9.42605 12.6404 9.42605ZM21.9962 7.45188C22.464 6.80084 23.3721 6.65197 24.0232 7.11983C24.6742 7.5875 24.8231 8.49579 24.3554 9.14664L12.7778 25.2621C12.31 25.9131 11.4019 26.0618 10.7508 25.5941C10.0998 25.1264 9.95091 24.2182 10.4186 23.5671L21.9962 7.45188ZM22.0305 17.7677C23.1568 17.7677 24.2165 18.2069 25.0115 19.0019C25.8065 19.7969 26.2457 20.8568 26.2457 21.9829C26.2457 24.31 24.3576 26.1981 22.0305 26.1981C19.7036 26.1981 17.8153 24.31 17.8153 21.9829C17.8153 19.6558 19.7036 17.7677 22.0305 17.7677ZM22.0305 20.6725C21.3072 20.6725 20.7201 21.2594 20.7201 21.9829C20.7201 22.7064 21.3072 23.2933 22.0305 23.2933C22.754 23.2933 23.3409 22.7064 23.3409 21.9829C23.3409 21.6327 23.2048 21.303 22.9575 21.0559C22.7104 20.8087 22.3807 20.6725 22.0305 20.6725Z" fill="#7A96AC"/>
</svg>
