<svg width="84" height="84" viewBox="0 0 84 84" fill="none" xmlns="http://www.w3.org/2000/svg">
<path d="M41.9497 13.3777C27.2119 13.3777 15.2216 25.3677 15.2216 40.1054C15.2216 44.8204 16.4665 49.4558 18.821 53.5106C21.1054 57.444 24.3783 60.7537 28.2859 63.082C29.4955 63.8029 30.1615 64.9748 30.1615 66.382V72.5788C30.1615 74.7739 31.6413 76.6288 33.6552 77.2016V77.4511C33.6552 81.0169 36.5561 83.918 40.1219 83.918H43.777C47.3427 83.918 50.2437 81.0169 50.2437 77.4511V77.2016C52.2576 76.6288 53.7374 74.7741 53.7374 72.5788V66.382C53.7374 64.9748 54.4037 63.8028 55.613 63.082C59.5209 60.7538 62.794 57.444 65.0779 53.5106C67.4328 49.4558 68.6773 44.8204 68.6773 40.1054C68.6774 25.3677 56.6874 13.3777 41.9497 13.3777ZM43.7772 81.293H40.122C38.0036 81.293 36.2803 79.5695 36.2803 77.4511V77.3853H47.6189V77.4511C47.6189 79.5695 45.8955 81.293 43.7772 81.293ZM48.9314 74.7603H34.9678C33.7653 74.7603 32.7866 73.7817 32.7866 72.5789V71.339H51.1126V72.5789C51.1126 73.7817 50.1343 74.7603 48.9314 74.7603ZM54.2691 60.8272C52.2631 62.0228 51.1126 64.0475 51.1126 66.382V68.714H32.7866V66.382C32.7866 64.0475 31.6362 62.0228 29.6301 60.8272C22.3619 56.4966 17.8468 48.5566 17.8468 40.1054C17.8468 26.815 28.6595 16.0027 41.9498 16.0027C55.2402 16.0027 66.0526 26.815 66.0526 40.1054C66.0524 48.5566 61.5376 56.4966 54.2691 60.8272ZM68.4555 24.6012C68.093 23.9735 68.3081 23.1707 68.9358 22.8083L74.6437 19.5126C75.2718 19.1502 76.0745 19.3653 76.4366 19.993C76.7993 20.6207 76.5839 21.4234 75.9562 21.7859L70.2483 25.0815C70.0416 25.2008 69.816 25.2576 69.5934 25.2576C69.1396 25.2578 68.6986 25.0223 68.4555 24.6012ZM81.8726 39.9312C81.8726 40.656 81.285 41.2437 80.5601 41.2437H73.9688C73.2439 41.2437 72.6563 40.656 72.6563 39.9312C72.6563 39.2063 73.2439 38.6187 73.9688 38.6187H80.5601C81.285 38.6187 81.8726 39.2062 81.8726 39.9312ZM76.4364 59.8154C76.1936 60.2364 75.7523 60.4718 75.2985 60.4718C75.0759 60.4718 74.8503 60.415 74.6436 60.2958L68.9357 57.0001C68.308 56.6377 68.0929 55.8349 68.4553 55.2072C68.8177 54.5795 69.6205 54.3642 70.2482 54.7268L75.9561 58.0225C76.5839 58.3849 76.7992 59.1877 76.4364 59.8154ZM40.6372 7.98574V1.39453C40.6372 0.669703 41.2248 0.0820312 41.9497 0.0820312C42.6745 0.0820312 43.2622 0.669703 43.2622 1.39453V7.98574C43.2622 8.71057 42.6745 9.29824 41.9497 9.29824C41.2248 9.29824 40.6372 8.71057 40.6372 7.98574ZM21.5582 7.21005C21.1958 6.58235 21.4109 5.77959 22.0386 5.41718C22.6669 5.05477 23.4693 5.27002 23.8314 5.89755L27.1271 11.6056C27.4899 12.2333 27.2745 13.0361 26.6467 13.3985C26.44 13.5178 26.2144 13.5745 25.9918 13.5745C25.538 13.5745 25.0972 13.3391 24.8539 12.9181L21.5582 7.21005ZM7.46259 19.993C7.825 19.3651 8.62776 19.15 9.25547 19.5126L14.9637 22.8083C15.5914 23.1707 15.8068 23.9735 15.4441 24.6012C15.2013 25.0222 14.7599 25.2576 14.3061 25.2576C14.0835 25.2576 13.8579 25.2008 13.6512 25.0815L7.94297 21.7859C7.31526 21.4236 7.10018 20.6207 7.46259 19.993ZM10.0313 41.2168H3.43994C2.71511 41.2168 2.12744 40.6291 2.12744 39.9043C2.12744 39.1794 2.71511 38.5918 3.43994 38.5918H10.0313C10.7561 38.5918 11.3438 39.1794 11.3438 39.9043C11.3438 40.6291 10.7561 41.2168 10.0313 41.2168ZM15.4441 55.2072C15.8068 55.8349 15.5914 56.6377 14.9637 57.0001L9.25547 60.2958C9.04875 60.4152 8.82316 60.4718 8.60053 60.4718C8.14673 60.4718 7.70589 60.2364 7.46259 59.8154C7.10018 59.1877 7.31526 58.3849 7.94297 58.0225L13.6512 54.7268C14.2792 54.3639 15.082 54.5797 15.4441 55.2072ZM56.7724 11.6056L60.0681 5.89755C60.4302 5.26969 61.2329 5.0546 61.861 5.41718C62.4887 5.77959 62.7037 6.58235 62.3413 7.21005L59.0456 12.9181C58.8028 13.3391 58.3615 13.5745 57.9077 13.5745C57.6851 13.5745 57.4595 13.5178 57.2528 13.3985C56.6251 13.0361 56.41 12.2333 56.7724 11.6056ZM58.763 36.0849H55.9027C55.613 35.0997 55.2199 34.1511 54.7277 33.2489L56.7506 31.2262C57.2629 30.7136 57.2629 29.8827 56.7506 29.3701L52.7826 25.4021C52.5365 25.156 52.2026 25.0177 51.8546 25.0177C51.5063 25.0177 51.1728 25.156 50.9264 25.4021L48.9038 27.425C48.0018 26.9328 47.0533 26.5399 46.068 26.25V23.3896C46.068 22.6647 45.4803 22.0771 44.7555 22.0771H39.144C38.4192 22.0771 37.8315 22.6647 37.8315 23.3896V26.25C36.8462 26.5399 35.8977 26.9328 34.9957 27.425L32.9732 25.4023C32.4605 24.8898 31.6297 24.8896 31.117 25.4023L27.1489 29.3703C26.9025 29.6164 26.7644 29.9503 26.7644 30.2984C26.7644 30.6465 26.9025 30.9804 27.1489 31.2265L29.1718 33.2492C28.6793 34.1516 28.2866 35.0999 27.9965 36.0851H25.1362C24.4114 36.0851 23.8237 36.6727 23.8237 37.3976V43.009C23.8237 43.734 24.4114 44.3215 25.1362 44.3215H27.9965C28.2866 45.3067 28.6793 46.2551 29.1718 47.1573L27.1489 49.18C26.9028 49.4263 26.7644 49.76 26.7644 50.1081C26.7644 50.4563 26.9028 50.79 27.1489 51.0362L31.117 55.0042C31.6297 55.5166 32.4605 55.5166 32.9732 55.0042L34.9957 52.9815C35.8977 53.4737 36.8462 53.8668 37.8315 54.1565V57.0166C37.8315 57.7415 38.4192 58.3291 39.144 58.3291H44.7555C45.4803 58.3291 46.068 57.7415 46.068 57.0166V54.1565C47.0533 53.8666 48.0014 53.4737 48.9038 52.9815L50.9264 55.0042C51.439 55.5166 52.2699 55.5166 52.7826 55.0042L56.7506 51.0362C56.9967 50.79 57.1348 50.4563 57.1348 50.1081C57.1348 49.76 56.9967 49.4263 56.7506 49.18L54.7277 47.1573C55.2202 46.2548 55.613 45.3067 55.9027 44.3215H58.763C59.4878 44.3215 60.0755 43.734 60.0755 43.009V37.3976C60.0755 36.6726 59.4878 36.0849 58.763 36.0849ZM57.4505 41.6963H54.8835C54.2654 41.6963 53.7313 42.1276 53.6006 42.7319C53.299 44.1297 52.7524 45.4489 51.976 46.6533C51.6412 47.1727 51.7139 47.8556 52.1509 48.2926L53.9664 50.108L51.8545 52.2198L50.0391 50.4044C49.6017 49.9674 48.9189 49.8945 48.3998 50.2295C47.1959 51.0057 45.8767 51.5524 44.4787 51.8544C43.8743 51.9848 43.443 52.5192 43.443 53.1372V55.7041H40.4565V53.1372C40.4565 52.519 40.0252 51.9848 39.4208 51.8544C38.0228 51.5524 36.7034 51.0057 35.4997 50.2295C34.98 49.8945 34.2971 49.9674 33.8604 50.4044L32.0449 52.2199L29.9332 50.1081L31.7488 48.2928C32.1855 47.8557 32.2585 47.1729 31.9237 46.6535C31.1473 45.4493 30.6007 44.13 30.2988 42.732C30.1683 42.1278 29.6338 41.6965 29.0158 41.6965H26.4489V38.7101H29.0158C29.634 38.7101 30.1683 38.2787 30.2988 37.6745C30.6007 36.2765 31.1473 34.9571 31.9237 33.7529C32.2585 33.2335 32.1855 32.5507 31.7484 32.1136L29.9329 30.2982L32.0449 28.1864L33.8604 30.0019C34.2975 30.439 34.9803 30.512 35.4997 30.1768C36.7033 29.4008 38.0225 28.8542 39.4208 28.5523C40.0252 28.4219 40.4565 27.8875 40.4565 27.2693V24.7022H43.443V27.2693C43.443 27.8875 43.8743 28.4217 44.4787 28.5523C45.8767 28.8542 47.1961 29.4008 48.3995 30.177C48.9195 30.512 49.602 30.439 50.0391 30.0021L51.8546 28.1866L53.9663 30.2984L52.1508 32.1139C51.7137 32.551 51.641 33.2338 51.9759 33.7532C52.7519 34.957 53.2987 36.2764 53.6007 37.6747C53.7312 38.2789 54.2654 38.7102 54.8834 38.7102H57.4503V41.6963H57.4505ZM41.9497 31.5005C37.1512 31.5005 33.247 35.4045 33.247 40.2032C33.247 45.0019 37.1512 48.9057 41.9497 48.9057C46.7482 48.9057 50.652 45.0019 50.652 40.2032C50.652 35.4045 46.7482 31.5005 41.9497 31.5005ZM41.9497 46.2807C38.5985 46.2807 35.872 43.5545 35.872 40.2032C35.872 36.8519 38.5985 34.1255 41.9497 34.1255C45.3008 34.1255 48.027 36.8519 48.027 40.2032C48.027 43.5545 45.3008 46.2807 41.9497 46.2807Z" fill="#6D5132"/>
</svg>
