<svg width="74" height="74" viewBox="0 0 74 74" fill="none" xmlns="http://www.w3.org/2000/svg">
<g clip-path="url(#clip0_7968_9565)">
<path d="M48.8395 0.0927734C47.7758 0.0927734 46.7409 0.543712 45.9258 1.34152L45.8795 1.29527L37.1383 9.94402C36.9013 10.0886 36.7105 10.2967 36.5833 10.5453L1.15578 45.6953C1.15578 45.7126 1.15578 45.7242 1.15578 45.7415C-0.480313 47.3776 -0.480313 50.0254 1.15578 51.6615L5.78078 56.2403C6.30109 56.7664 7.13359 56.8242 7.72328 56.379C8.99516 55.3615 10.6544 54.6215 12.302 54.6215C16.2391 54.6215 19.2395 57.7665 19.2395 61.559C19.2395 63.2761 18.6152 64.837 17.5283 66.0453C17.0138 66.6407 17.0542 67.5368 17.6208 68.0803L22.1995 72.659C23.8356 74.2951 26.4834 74.2951 28.1195 72.659L63.177 37.6478C63.7552 37.509 64.1945 37.035 64.287 36.4453L72.5195 28.259C72.5773 28.2186 72.6063 28.1665 72.6583 28.1203C74.4389 26.6287 74.4331 23.9289 72.8433 22.339L68.2183 17.7603C67.698 17.2342 66.8655 17.1764 66.2758 17.6215C65.0097 18.6332 63.5991 19.2403 61.882 19.2403C57.945 19.2403 54.8983 16.0953 54.8983 12.3028C54.8983 10.5857 55.5053 9.12887 56.517 7.86277C56.9622 7.27309 56.9044 6.44059 56.3783 5.92027L51.7995 1.34152C50.9844 0.526368 49.9148 0.0927734 48.8395 0.0927734ZM48.8395 3.09902C49.1691 3.09902 49.4986 3.20309 49.7183 3.42277L53.5108 7.21527C52.6089 8.69527 51.9383 10.3892 51.9383 12.3028C51.9383 17.6851 56.3436 22.2003 61.882 22.2003C63.8014 22.2003 65.4433 21.5296 66.9233 20.6278L70.7158 24.4203C71.1552 24.8596 71.1898 25.5823 70.762 25.9003C70.6984 25.9407 70.6348 25.987 70.577 26.039L62.6683 33.9478C62.3677 33.6761 61.963 33.5431 61.5583 33.5778C61.0033 33.6298 60.5292 33.9882 60.3211 34.5086C60.1188 35.0231 60.217 35.6128 60.587 36.029L26.0383 70.5778C25.5989 71.0171 24.7202 71.0171 24.2808 70.5778L20.4883 66.7853C21.4942 65.2359 22.1995 63.4784 22.1995 61.559C22.1995 56.1767 17.8405 51.6615 12.302 51.6615C10.3191 51.6615 8.57891 52.4246 7.07578 53.3728L3.28328 49.5803C2.84391 49.1409 2.84391 48.2621 3.28328 47.8228L37.9245 13.3665C38.4969 13.9562 39.4392 13.962 40.0289 13.3896C40.6186 12.8173 40.6244 11.875 40.052 11.2853L47.9608 3.42277C48.1805 3.20309 48.51 3.09902 48.8395 3.09902ZM42.8733 14.9853L41.7633 15.7253L41.717 17.0665L42.0408 17.4828L44.0758 19.564L45.3708 19.9803L46.4345 19.194L46.4808 17.899L46.2033 17.4365L44.122 15.4015L42.8733 14.9853ZM49.0708 21.1828L48.007 21.969L47.9608 23.264L48.2383 23.7265L50.3195 25.8078L51.5683 26.224L52.6783 25.4378L52.7245 24.1428L52.447 23.6803L50.3658 21.599L49.0708 21.1828ZM55.3145 27.4265L54.2508 28.1665L54.2045 29.5078L54.482 29.924L56.5633 32.0053L57.812 32.4215L58.922 31.6815L58.9683 30.3403L58.6445 29.924L56.5633 27.8428L55.3145 27.4265ZM40.5608 28.1203L33.762 34.0403L25.622 30.3403L29.137 38.619L23.0783 45.279L31.9583 44.539L36.3983 52.4015L38.3408 43.6603L47.082 41.9028L39.3583 37.2778L40.5608 28.1203ZM36.722 35.5203L36.537 36.8615L36.2595 38.7578L37.8783 39.8215L39.0808 40.4228L37.7395 40.7003L35.797 41.1628L35.5195 42.7815L35.242 44.1228L34.502 42.9203L33.577 41.3015L31.6808 41.4403L30.3395 41.579L31.2183 40.7003L32.5595 39.2203L31.8195 37.4628L31.357 36.2603L32.5595 36.8615L34.317 37.6015L35.797 36.2603L36.722 35.5203Z" fill="#7A96AC"/>
</g>
<defs>
<clipPath id="clip0_7968_9565">
<rect width="74" height="74" fill="white"/>
</clipPath>
</defs>
</svg>
