<svg width="74" height="74" viewBox="0 0 74 74" fill="none" xmlns="http://www.w3.org/2000/svg">
<path d="M39.96 3.79297L38.85 4.99547L27.01 18.2692L24.79 20.7205H34.04V26.6405H7.39996V31.0805H2.95996V69.5605H66.6V65.1205H72.52V26.6405H45.88V20.7205H55.13L52.91 18.2692L41.07 4.99547L39.96 3.79297ZM39.96 8.23297L48.5162 17.7605H42.92V26.6405H37V17.7605H31.4037L39.96 8.23297ZM10.36 29.6005H13.7825C13.4645 30.1844 13.2275 30.7452 13.0425 31.173C12.8343 31.647 12.6089 31.9766 12.6725 31.913C12.7361 31.8494 12.4354 32.0517 11.9787 32.2367C11.5336 32.4159 10.967 32.6125 10.36 32.8842V29.6005ZM18.5925 29.6005H61.3275C62.634 29.6005 62.9636 30.0514 63.455 30.8955C63.6978 31.3175 63.9232 31.8494 64.1487 32.3755C64.3742 32.9016 64.5534 33.4277 65.12 33.9942C65.6807 34.555 66.282 34.7458 66.8312 34.9655C67.3804 35.1852 67.895 35.4048 68.3575 35.613C68.82 35.8211 69.2073 36.0466 69.375 36.2142C69.5426 36.3819 69.56 36.4223 69.56 36.6305V55.1305C69.56 55.3386 69.5426 55.3791 69.375 55.5467C69.2073 55.7144 68.82 55.9398 68.3575 56.148C67.895 56.3561 67.3804 56.5758 66.8312 56.7955C66.282 57.0152 65.6807 57.2059 65.12 57.7667V57.813C64.5823 58.368 64.3684 58.8709 64.1487 59.3855C63.9232 59.9116 63.6978 60.4434 63.455 60.8655C62.9636 61.7095 62.634 62.1605 61.3275 62.1605H18.5925C17.6096 62.1605 17.1934 61.9003 16.835 61.4205C16.7136 61.2586 16.5864 61.0736 16.465 60.8655C16.2221 60.4434 15.9967 59.9058 15.7712 59.3855C15.5457 58.8652 15.3665 58.3333 14.8 57.7667C14.2392 57.2059 13.6379 57.0152 13.0887 56.7955C12.5395 56.5758 12.025 56.3561 11.5625 56.148C11.1 55.9398 10.7126 55.7144 10.545 55.5467C10.3773 55.3791 10.36 55.3386 10.36 55.1305V36.6305C10.36 36.4223 10.3773 36.3819 10.545 36.2142C10.7126 36.0466 11.1 35.8211 11.5625 35.613C12.025 35.4048 12.5395 35.1852 13.0887 34.9655C13.6379 34.7458 14.2392 34.555 14.8 33.9942C15.3665 33.4277 15.5457 32.8958 15.7712 32.3755C15.9967 31.8552 16.2221 31.3175 16.465 30.8955C16.9564 30.0514 17.2859 29.6005 18.5925 29.6005ZM66.1375 29.6005H69.56V32.8842C68.9529 32.6125 68.3864 32.4159 67.9412 32.2367C67.4903 32.0517 67.1839 31.8494 67.2475 31.913C67.3111 31.9766 67.0856 31.647 66.8775 31.173C66.6925 30.7452 66.4554 30.1844 66.1375 29.6005ZM39.96 31.0805C32.5195 31.0805 26.64 37.8156 26.64 45.8805C26.64 53.9453 32.5195 60.6805 39.96 60.6805C47.4004 60.6805 53.28 53.9453 53.28 45.8805C53.28 37.8156 47.4004 31.0805 39.96 31.0805ZM5.91996 34.0405H7.39996V65.1205H63.64V66.6005H5.91996V34.0405ZM39.96 34.0405C45.5967 34.0405 50.32 39.2378 50.32 45.8805C50.32 52.5231 45.5967 57.7205 39.96 57.7205C34.3232 57.7205 29.6 52.5231 29.6 45.8805C29.6 39.2378 34.3232 34.0405 39.96 34.0405ZM18.5 41.4405C16.4765 41.4405 14.8 43.117 14.8 45.1405C14.8 47.1639 16.4765 48.8405 18.5 48.8405C20.5234 48.8405 22.2 47.1639 22.2 45.1405C22.2 43.117 20.5234 41.4405 18.5 41.4405ZM61.42 41.4405C59.3965 41.4405 57.72 43.117 57.72 45.1405C57.72 47.1639 59.3965 48.8405 61.42 48.8405C63.4434 48.8405 65.12 47.1639 65.12 45.1405C65.12 43.117 63.4434 41.4405 61.42 41.4405ZM18.5 44.4005C18.9278 44.4005 19.24 44.7127 19.24 45.1405C19.24 45.5683 18.9278 45.8805 18.5 45.8805C18.0721 45.8805 17.76 45.5683 17.76 45.1405C17.76 44.7127 18.0721 44.4005 18.5 44.4005ZM61.42 44.4005C61.8478 44.4005 62.16 44.7127 62.16 45.1405C62.16 45.5683 61.8478 45.8805 61.42 45.8805C60.9921 45.8805 60.68 45.5683 60.68 45.1405C60.68 44.7127 60.9921 44.4005 61.42 44.4005ZM10.36 58.8767C10.967 59.1484 11.5336 59.345 11.9787 59.5242C12.4354 59.7092 12.7361 59.9116 12.6725 59.848C12.6089 59.7844 12.8343 60.1139 13.0425 60.588C13.2275 61.0158 13.4645 61.5766 13.7825 62.1605H10.36V58.8767ZM69.56 58.8767V62.1605H66.1375C66.2762 61.9061 66.3976 61.6575 66.5075 61.4205C66.6404 61.1256 66.7734 60.825 66.8775 60.588C67.0856 60.1139 67.3111 59.7844 67.2475 59.848C67.1839 59.9116 67.4903 59.7092 67.9412 59.5242C68.3864 59.345 68.9529 59.1484 69.56 58.8767Z" fill="#6D5132"/>
</svg>
