<svg width="74" height="74" viewBox="0 0 74 74" fill="none" xmlns="http://www.w3.org/2000/svg">
<path d="M37 59.1998C29.1548 59.1998 23.68 58.4598 20.72 56.8295C20.1303 56.5346 19.6851 56.3901 19.3903 56.3901C10.5103 56.0895 6.07027 52.985 4.28965 51.0598C3.40512 50.1695 2.95996 49.1346 2.95996 47.805C2.95996 41.2895 3.25481 29.305 4.43996 24.7146C5.02965 22.3501 7.24965 20.7198 9.77027 20.7198C12.2851 20.7198 16.1297 18.3495 18.6503 16.1295C19.8297 15.245 21.1651 14.7998 22.4948 14.7998H51.6496C53.1296 14.7998 54.6096 15.3895 55.5 16.2798C57.4251 18.0546 61.5703 20.7198 64.2296 20.7198C66.7503 20.7198 68.9703 22.3501 69.56 24.7146C70.5948 28.7095 71.04 39.0695 71.04 47.6546C71.04 48.9901 70.5948 50.025 69.7103 50.9095C67.7851 52.8346 63.4896 55.945 54.6096 56.2398C54.02 56.2398 53.5748 56.3901 53.4303 56.5346C50.7651 58.3095 45.2903 59.1998 37 59.1998ZM19.3903 53.4301C20.1303 53.4301 21.0148 53.725 22.0497 54.1701C23.5297 54.9101 27.2296 56.2398 37 56.2398C47.36 56.2398 50.7651 54.7598 51.6496 54.1701C52.3896 53.5746 53.4303 53.2798 54.6096 53.2798C62.6051 52.985 66.4496 50.025 67.6348 48.8398C67.9296 48.545 68.08 48.0998 68.08 47.6546C68.08 39.5146 67.6348 29.1546 66.6 25.605C66.3051 24.5701 65.2703 23.8301 64.2296 23.8301C60.2348 23.8301 55.5 20.425 53.4303 18.4998C52.8348 17.9101 52.0948 17.9101 51.6496 17.9101H22.4948C21.9051 17.9101 21.1651 18.205 20.5697 18.6501C19.6851 19.3901 14.3548 23.6798 9.77027 23.6798C8.58512 23.6798 7.69481 24.4198 7.39996 25.4546C6.36512 29.1546 5.91996 39.5146 5.91996 47.805C5.91996 48.2501 6.07027 48.6895 6.36512 48.9901C7.55027 50.1695 11.3948 53.1295 19.3903 53.4301ZM11.84 26.6398H14.8V35.5198H11.84V26.6398ZM8.87996 32.5598V29.5998H17.76V32.5598H8.87996ZM62.9 26.6398C64.0851 26.6398 65.12 27.6746 65.12 28.8598C65.12 30.045 64.0851 31.0798 62.9 31.0798C61.7148 31.0798 60.68 30.045 60.68 28.8598C60.68 27.6746 61.7148 26.6398 62.9 26.6398ZM58.46 31.0798C59.6451 31.0798 60.68 32.1146 60.68 33.2998C60.68 34.485 59.6451 35.5198 58.46 35.5198C57.2748 35.5198 56.24 34.485 56.24 33.2998C56.24 32.1146 57.2748 31.0798 58.46 31.0798ZM17.6097 42.7695C17.9103 42.0295 17.6096 41.145 17.02 40.8501L12.58 38.6301C11.84 38.3295 10.9496 38.6301 10.6548 39.2198C10.36 39.9598 10.6548 40.8501 11.2503 41.145L15.6903 43.365C15.8348 43.5095 16.1296 43.5095 16.28 43.5095C16.8696 43.6598 17.3148 43.365 17.6097 42.7695ZM17.6097 48.6895C17.9103 47.9495 17.6096 47.065 17.02 46.7701L12.58 44.5501C11.84 44.2495 10.9496 44.5501 10.6548 45.1398C10.36 45.8798 10.6548 46.7701 11.2503 47.065L15.6903 49.285C15.8348 49.4295 16.1296 49.4295 16.28 49.4295C16.8696 49.5798 17.3148 49.285 17.6097 48.6895ZM48.84 48.8398H25.16C23.3851 48.8398 22.2 47.6546 22.2 45.8798V26.6398C22.2 24.865 23.3851 23.6798 25.16 23.6798H48.84C50.6148 23.6798 51.8 24.865 51.8 26.6398V45.8798C51.8 47.6546 50.6148 48.8398 48.84 48.8398ZM25.16 26.6398V45.8798H48.84V26.6398H25.16ZM57.2748 42.7695L63.1948 39.8095C63.4896 39.665 63.64 39.2198 63.4896 38.7746C63.3451 38.4798 62.9 38.3295 62.4548 38.4798L56.5348 41.4398C56.24 41.5901 56.0896 42.0295 56.24 42.4746C56.3903 42.7695 56.6851 42.9198 56.8296 42.9198C57.1303 42.9198 57.2748 42.9198 57.2748 42.7695ZM57.2748 45.7295L63.1948 42.7695C63.4896 42.625 63.64 42.1798 63.4896 41.7346C63.3451 41.4398 62.9 41.2895 62.4548 41.4398L56.5348 44.3998C56.24 44.5501 56.0896 44.9895 56.24 45.4346C56.3903 45.7295 56.6851 45.8798 56.8296 45.8798C57.1303 45.8798 57.2748 45.8798 57.2748 45.7295ZM57.2748 48.6895L63.1948 45.7295C63.4896 45.585 63.64 45.1398 63.4896 44.6946C63.3451 44.3998 62.9 44.2495 62.4548 44.3998L56.5348 47.3598C56.24 47.5101 56.0896 47.9495 56.24 48.3946C56.3903 48.6895 56.6851 48.8398 56.8296 48.8398C57.1303 48.8398 57.2748 48.8398 57.2748 48.6895Z" fill="#6D5132"/>
</svg>
