<svg width="74" height="74" viewBox="0 0 74 74" fill="none" xmlns="http://www.w3.org/2000/svg">
<path d="M31.7279 1.48805C29.7213 1.54797 27.7826 2.59304 26.678 4.41914L26.2878 5.06664C25.7305 5.98672 24.7485 6.5534 23.6746 6.57555H23.6718L22.9144 6.59289C19.6646 6.66057 17.0172 9.30604 16.9511 12.5562L16.9337 13.3136C16.9116 14.3875 16.3432 15.3715 15.4248 15.9267L14.7773 16.3198C11.9965 18.0032 11.0255 21.6197 12.592 24.4685H12.5949L12.9591 25.1334C13.4773 26.0742 13.4773 27.2103 12.9591 28.1512L12.5949 28.8131C11.0287 31.6615 11.9976 35.2786 14.7802 36.9618L15.4277 37.352C16.3478 37.9093 16.9145 38.8913 16.9366 39.9652V39.968L16.9539 40.7254C17.0087 43.3542 18.7615 45.5633 21.1453 46.3563L13.4563 63.0179C13.352 63.2435 13.3061 63.4917 13.323 63.7397C13.3398 63.9876 13.4189 64.2274 13.5528 64.4368C13.6867 64.6461 13.8712 64.8184 14.0893 64.9377C14.3073 65.057 14.5519 65.1195 14.8004 65.1194H24.4493L29.9242 71.9644C30.0834 72.1633 30.2914 72.3178 30.5278 72.4128C30.7643 72.5079 31.0213 72.5402 31.2739 72.5068C31.5266 72.4734 31.7663 72.3753 31.9699 72.222C32.1735 72.0687 32.3341 71.8655 32.4361 71.632L37.0467 61.0956L41.6572 71.632C41.7592 71.8655 41.9198 72.0687 42.1234 72.222C42.327 72.3753 42.5668 72.4734 42.8194 72.5068C43.0721 72.5402 43.3291 72.5079 43.5655 72.4128C43.802 72.3178 44.0099 72.1633 44.1692 71.9644L49.644 65.1194H59.2929C59.5415 65.1195 59.7861 65.057 60.0041 64.9377C60.2221 64.8184 60.4066 64.6461 60.5406 64.4368C60.6745 64.2274 60.7535 63.9876 60.7704 63.7397C60.7873 63.4917 60.7414 63.2435 60.6371 63.0179L52.9364 46.3303C55.2802 45.5149 56.9957 43.3255 57.0498 40.7254V40.7225L57.0671 39.968V39.9652C57.0893 38.8913 57.6577 37.9073 58.5761 37.352L59.2264 36.9589C62.0073 35.2756 62.9753 31.6619 61.4089 28.8131L61.406 28.8102L61.036 28.1425C60.5209 27.2028 60.5216 26.0694 61.0389 25.1305L61.406 24.4685V24.4656C62.9715 21.6185 62.0034 18.004 59.2236 16.3198L59.2207 16.317L58.5732 15.9267C57.6531 15.3697 57.0864 14.3875 57.0643 13.3136V13.3107L57.0469 12.5562V12.5534C56.9792 9.3035 54.3338 6.65613 51.0836 6.59L50.3262 6.57266C49.2523 6.55051 48.2683 5.9821 47.7131 5.06375L47.32 4.41625C45.6368 1.63363 42.0196 0.664728 39.1713 2.23094V2.23383L38.5064 2.59805C37.5656 3.11627 36.4295 3.11627 35.4886 2.59805L34.8267 2.23383C34.1146 1.84228 33.3552 1.60879 32.5893 1.52273C32.3021 1.49046 32.0146 1.47948 31.7279 1.48805ZM31.6528 4.43937C32.2381 4.39666 32.8447 4.5205 33.4016 4.82672L34.0607 5.19094C35.8874 6.19712 38.1105 6.19712 39.9373 5.19094L40.5993 4.82383V4.82672C42.0843 4.01013 43.9106 4.4981 44.7878 5.94828L45.1809 6.59578C46.2593 8.37802 48.18 9.48873 50.2626 9.53266L51.0228 9.55C52.7178 9.58449 54.0553 10.9191 54.0898 12.6141V12.617L54.1043 13.3743C54.1472 15.4587 55.2587 17.3793 57.0411 18.4589L57.6886 18.852C59.1379 19.7287 59.6276 21.5531 58.8131 23.0377L58.446 23.7025C57.4398 25.5293 57.4398 27.7495 58.446 29.5762L58.4489 29.5791V29.582L58.816 30.2382C59.6323 31.7228 59.1405 33.5496 57.6915 34.4267L57.044 34.8198C55.2599 35.8985 54.1501 37.82 54.1071 39.9045L54.0927 40.6618V40.6647C54.0582 42.3597 52.7207 43.6943 51.0257 43.7287L50.2655 43.7461C48.1822 43.79 46.2629 44.8985 45.1838 46.6801V46.683L44.7907 47.3305C43.9135 48.7806 42.0872 49.2686 40.6021 48.452V48.4549L39.9402 48.0878C38.1134 47.0816 35.8903 47.0816 34.0636 48.0878L33.4016 48.4549V48.452C31.917 49.2684 30.0902 48.7794 29.2131 47.3305L28.82 46.683C27.7416 44.9007 25.8209 43.79 23.7382 43.7461H23.7353L22.978 43.7287C21.283 43.6943 19.9455 42.3597 19.9111 40.6647V40.6618L19.8966 39.9045C19.8536 37.82 18.7421 35.8994 16.9597 34.8198L16.3122 34.4267C14.8621 33.5493 14.3712 31.7233 15.1878 30.2382L15.552 29.5791V29.5762C16.5568 27.75 16.5577 25.5284 15.552 23.7025L15.1849 23.0405H15.1878C14.3714 21.5559 14.8604 19.7291 16.3093 18.852L16.9568 18.4589C18.7391 17.3805 19.8498 15.4598 19.8937 13.3772V13.3743L19.9111 12.617C19.9455 10.922 21.2801 9.58449 22.9751 9.55H22.978L23.7353 9.53555C25.8198 9.49257 27.7404 8.38107 28.82 6.59867L29.2131 5.95117C29.6517 5.22608 30.3255 4.73903 31.0775 4.53766C31.2655 4.48731 31.4577 4.45361 31.6528 4.43937ZM49.8782 46.7726L56.9775 62.1594H48.9329C48.7109 62.1592 48.4917 62.2091 48.2916 62.3051C48.0914 62.4012 47.9154 62.5411 47.7767 62.7144L43.3858 68.2008L38.6625 57.3985L41.1543 51.704C43.5329 52.0755 46.0129 51.0281 47.3228 48.8625L47.716 48.215C48.1931 47.4273 48.9874 46.9223 49.8782 46.7726ZM24.2094 46.7841C25.0664 46.9524 25.8273 47.4533 26.2878 48.215L26.6809 48.8625C28.3642 51.6434 31.9808 52.6143 34.8296 51.0478V51.0449L35.4944 50.6807C36.3975 50.1833 37.4762 50.1769 38.3937 50.6345L30.7075 68.2008L26.3167 62.7144C26.1779 62.5411 26.0019 62.4012 25.8018 62.3051C25.6016 62.2091 25.3824 62.1592 25.1604 62.1594H17.1158L24.2094 46.7841Z" fill="#6D5132"/>
</svg>
