<svg width="84" height="85" viewBox="0 0 84 85" fill="none" xmlns="http://www.w3.org/2000/svg">
<path d="M70.1353 56.9247C67.008 56.9247 64.0444 58.0005 61.658 59.9785L57.7807 56.0601C57.8833 55.8686 57.9414 55.6493 57.9414 55.416V47.7298C57.9414 46.9807 57.3406 46.3735 56.5994 46.3735H48.9844C48.9669 46.3735 48.9496 46.3756 48.9322 46.3762V46.3735H40.7711C38.5038 46.3735 36.5881 44.4399 36.5881 42.1511C36.5881 39.8623 38.5038 37.9287 40.7711 37.9287H48.8326V37.9194C48.8826 37.9251 48.9332 37.9287 48.9846 37.9287H56.5995C57.3408 37.9287 57.9416 37.3215 57.9416 36.5724V28.8814C57.9416 28.6182 57.8662 28.3735 57.7378 28.1655L61.4575 24.4063C63.5515 26.1462 66.0882 27.1936 68.7916 27.4378V36.1761C66.0945 36.7957 64.0744 39.2384 64.0744 42.1511C64.0744 45.5277 66.7926 48.2746 70.1336 48.2746C73.4746 48.2746 76.1977 45.5277 76.1977 42.1511C76.1977 39.238 74.1754 36.795 71.4756 36.1759V27.4147C74.1374 27.1278 76.6274 26.0575 78.6818 24.3149C78.7308 24.2781 78.7762 24.2375 78.8194 24.1946C79.0767 23.9704 79.3292 23.739 79.5717 23.4938C82.125 20.9157 83.5312 17.4866 83.5312 13.838C83.5312 10.1894 82.1249 6.75978 79.5722 4.18257C77.021 1.60197 73.6278 0.180664 70.0173 0.180664C66.4068 0.180664 63.0136 1.60197 60.4634 4.18172C57.9097 6.75978 56.5033 10.1892 56.5033 13.838C56.5033 17.0309 57.5801 20.0555 59.5596 22.4885L54.5756 27.5253H48.9844C48.9764 27.5253 48.9687 27.5264 48.9606 27.5265V27.5253H40.7709C37.6077 27.5253 34.6807 28.5591 32.2968 30.3058L24.6254 22.5528C26.3423 20.4688 27.3924 17.9453 27.6645 15.2502L36.2293 15.2874C36.8764 17.9678 39.2712 19.9639 42.12 19.9639C45.4611 19.9639 48.1792 17.2148 48.1792 13.8355C48.1792 10.4562 45.461 7.71195 42.12 7.71195C39.2041 7.71195 36.7631 9.80105 36.1858 12.5747L27.6754 12.5376C27.3821 9.38001 26.0245 6.45103 23.7772 4.18206C21.224 1.6018 17.8303 0.180664 14.2213 0.180664C10.6123 0.180664 7.21922 1.60197 4.6689 4.18172C2.11556 6.75978 0.709184 10.1892 0.709184 13.838C0.709184 17.4868 2.11556 20.9161 4.66806 23.4933C4.91106 23.7392 5.16412 23.9711 5.42203 24.1956C5.4646 24.2378 5.50951 24.278 5.55778 24.3142C7.98358 26.3723 11.0162 27.4952 14.2213 27.4952C17.3508 27.4952 20.3176 26.4252 22.7157 24.4587L30.2745 32.0978C27.8133 34.7209 26.2987 38.2595 26.2987 42.1511C26.2987 46.0428 27.814 49.5804 30.276 52.2027L22.7115 59.8475C20.6335 58.1188 18.1224 57.0667 15.4443 56.803L15.448 48.1203C18.1456 47.5001 20.1657 45.0601 20.1657 42.1508C20.1657 38.7716 17.4455 36.0225 14.1016 36.0225C10.7578 36.0225 8.04257 38.7716 8.04257 42.1508C8.04257 45.0626 10.0647 47.5045 12.764 48.122L12.7603 56.8031C9.6405 57.111 6.7473 58.489 4.50215 60.7602C-0.792385 66.1109 -0.792385 74.817 4.50215 80.1678C4.74314 80.4115 4.99351 80.6401 5.24774 80.8616C5.29835 80.913 5.35265 80.9607 5.41147 81.0036C7.92023 83.1198 11.0114 84.1807 14.104 84.1807C17.1966 84.1807 20.2874 83.1199 22.796 81.0041C22.8553 80.9607 22.9104 80.9126 22.9614 80.8606C23.2153 80.6394 23.4652 80.411 23.7058 80.1678C26.2704 77.5758 27.6831 74.1294 27.6831 70.464C27.6831 67.2541 26.5998 64.2126 24.6086 61.7658L32.2988 53.9941C34.6823 55.7392 37.6086 56.772 40.7707 56.772H48.9605V56.7708C48.9685 56.7708 48.9762 56.772 48.9843 56.772H54.6894L59.7599 61.8963C58.0725 63.9755 57.0495 66.4886 56.7993 69.1672L48.0329 69.1298C47.4293 66.3918 45.0081 64.3383 42.1196 64.3383C38.776 64.3383 36.0555 67.0852 36.0555 70.4618C36.0555 73.8385 38.7758 76.5901 42.1196 76.5901C44.9912 76.5901 47.4009 74.5586 48.022 71.8423L56.8114 71.8799C57.1263 74.9608 58.4649 77.8158 60.662 80.0336C60.9023 80.2765 61.1525 80.5056 61.4072 80.7275C61.4515 80.7715 61.4982 80.8132 61.5487 80.851C63.9537 82.8877 66.9592 83.9989 70.1349 83.9989C73.3107 83.9989 76.3024 82.8927 78.7031 80.8642C78.7698 80.8161 78.8313 80.7621 78.8876 80.7031C79.1325 80.4885 79.3729 80.2677 79.6044 80.0336C82.1349 77.4788 83.5284 74.0801 83.5284 70.4637C83.5284 66.8473 82.1349 63.4473 79.6049 60.8906C77.0769 58.333 73.7137 56.9246 70.1349 56.9246L70.1353 56.9247ZM66.8295 12.4579C66.8295 10.6802 68.2605 9.23402 70.0193 9.23402C71.7781 9.23402 73.2046 10.6802 73.2046 12.4579C73.2046 14.2355 71.7758 15.6817 70.0193 15.6817C68.2628 15.6817 66.8295 14.2355 66.8295 12.4579ZM70.0193 18.3941C72.8391 18.3941 75.3212 20.1417 76.321 22.7359C74.4952 24.064 72.3117 24.7828 70.0171 24.7828C67.7225 24.7828 65.5397 24.0642 63.7137 22.7362C64.7154 20.1419 67.1992 18.3941 70.0193 18.3941ZM73.5135 42.1511C73.5135 44.0319 71.9972 45.5621 70.1334 45.5621C68.2697 45.5621 66.7581 44.0319 66.7581 42.1511C66.7581 40.2703 68.2722 38.7354 70.1334 38.7354C71.9946 38.7354 73.5135 40.2676 73.5135 42.1511ZM62.3611 6.09977C64.4052 4.032 67.1243 2.8932 70.0173 2.8932C72.9103 2.8932 75.6292 4.032 77.6743 6.10062C79.7204 8.16635 80.8472 10.9143 80.8472 13.838C80.8472 16.403 79.9796 18.8322 78.3854 20.7846C77.4462 18.974 75.9619 17.5317 74.1723 16.6488C75.2324 15.5742 75.889 14.0921 75.889 12.4577C75.889 9.1844 73.2561 6.52149 70.0198 6.52149C66.7836 6.52149 64.1459 9.18457 64.1459 12.4577C64.1459 14.0924 64.8032 15.5748 65.8647 16.6495C64.0749 17.5325 62.5901 18.9748 61.6502 20.7853C60.0555 18.8329 59.1876 16.4032 59.1876 13.8378C59.1876 10.9141 60.3144 8.16618 62.3613 6.0996L62.3611 6.09977ZM50.3265 30.2377H55.2575V35.2163H50.3265V30.2377ZM42.12 10.4245C43.981 10.4245 45.4953 11.9547 45.4953 13.8355C45.4953 15.7163 43.9812 17.2514 42.12 17.2514C40.2588 17.2514 38.7399 15.719 38.7399 13.8355C38.7399 11.952 40.2562 10.4245 42.12 10.4245ZM3.39307 13.838C3.39307 10.9143 4.51992 8.16652 6.56681 6.09977C8.61085 4.032 11.3293 2.8932 14.2213 2.8932C17.1133 2.8932 19.8331 4.03217 21.88 6.10062C23.926 8.16635 25.0529 10.9143 25.0529 13.838C25.0529 16.4037 24.1848 18.8336 22.5895 20.7862C21.6489 18.9757 20.1644 17.5332 18.3751 16.6501C19.4369 15.5755 20.0945 14.0927 20.0945 12.4577C20.0945 9.1844 17.4594 6.52149 14.2206 6.52149C10.9819 6.52149 8.34657 9.18457 8.34657 12.4577C8.34657 14.0926 9.00401 15.5752 10.0657 16.6498C8.27702 17.5327 6.79372 18.9747 5.85491 20.7846C4.26066 18.8322 3.39307 16.403 3.39307 13.838ZM11.0305 12.4579C11.0305 10.6802 12.4615 9.23402 14.2205 9.23402C15.9794 9.23402 17.4103 10.6802 17.4103 12.4579C17.4103 14.2355 15.9793 15.6817 14.2205 15.6817C12.4616 15.6817 11.0305 14.2355 11.0305 12.4579ZM7.91906 22.7361C8.91888 20.1419 11.4008 18.3941 14.2206 18.3941C17.0404 18.3941 19.522 20.1417 20.5255 22.7361C18.6987 24.064 16.5149 24.7828 14.2213 24.7828C11.9277 24.7828 9.74508 24.0642 7.91923 22.7359L7.91906 22.7361ZM10.7266 42.1513C10.7266 40.2678 12.2406 38.7355 14.1018 38.7355C15.963 38.7355 17.4818 40.2678 17.4818 42.1513C17.4818 44.0348 15.9655 45.5623 14.1018 45.5623C12.2381 45.5623 10.7266 44.0321 10.7266 42.1513ZM7.75801 79.4129C8.76386 76.7972 11.2631 75.035 14.1018 75.035C16.9405 75.035 19.4443 76.7974 20.4505 79.4131C18.5611 80.7832 16.3334 81.4703 14.1041 81.4702C11.8756 81.4698 9.64754 80.7827 7.75818 79.4129H7.75801ZM10.8882 69.0746C10.8882 67.2837 12.3299 65.8269 14.1018 65.8269C15.8737 65.8269 17.3203 67.2839 17.3203 69.0746C17.3203 70.8653 15.8765 72.3225 14.1018 72.3225C12.3271 72.3225 10.8882 70.8654 10.8882 69.0746ZM22.516 77.4628C21.5709 75.6356 20.0742 74.1804 18.269 73.2916C19.3404 72.2119 20.0042 70.7201 20.0042 69.0746C20.0042 65.7881 17.3563 63.1143 14.1016 63.1143C10.847 63.1143 8.20412 65.7881 8.20412 69.0746C8.20412 70.7199 8.86743 72.2117 9.9378 73.2912C8.13357 74.1799 6.6377 75.6346 5.69285 77.4615C2.16819 73.1405 2.40314 66.718 6.40057 62.678C8.45835 60.5962 11.1942 59.4498 14.1041 59.4498C17.0141 59.4498 19.7499 60.5962 21.8084 62.6784C23.8662 64.758 24.9996 67.523 24.9996 70.4642C24.9996 73.0482 24.1241 75.4958 22.5161 77.4625L22.516 77.4628ZM28.9826 42.1513C28.9826 35.5822 34.2709 30.2379 40.7709 30.2379H47.6424V35.2165H40.7709C36.9845 35.2165 33.9039 38.3274 33.9039 42.1513C33.9039 45.9752 36.9845 49.0861 40.7709 49.0861H47.6424V54.0598H40.7709C34.2709 54.0598 28.9826 48.7177 28.9826 42.1513ZM42.12 73.8779C40.2562 73.8779 38.7399 72.3457 38.7399 70.4622C38.7399 68.5787 40.2562 67.0512 42.12 67.0512C43.9837 67.0512 45.4953 68.5814 45.4953 70.4622C45.4953 72.343 43.9812 73.8779 42.12 73.8779ZM50.3265 49.0862H55.2575V54.0599H50.3265V49.0862ZM63.9096 79.2706C64.9033 76.7107 67.3535 74.9869 70.1336 74.9869C72.9137 74.9869 75.3671 76.7099 76.3614 79.2688C74.5577 80.5781 72.4014 81.2869 70.1355 81.2869C67.8695 81.2869 65.7145 80.579 63.9098 79.2706H63.9096ZM66.9912 69.0988C66.9912 67.345 68.4009 65.9181 70.1336 65.9181C71.8663 65.9181 73.2807 67.345 73.2807 69.0988C73.2807 70.8526 71.8688 72.2745 70.1336 72.2745C68.3984 72.2745 66.9912 70.8499 66.9912 69.0988ZM78.4232 77.3187C77.4931 75.5377 76.0316 74.1171 74.271 73.2433C75.3172 72.1785 75.9646 70.7137 75.9646 69.0988C75.9646 65.8492 73.3487 63.2058 70.1334 63.2058C66.9181 63.2058 64.307 65.8494 64.307 69.0988C64.307 70.7135 64.9539 72.1782 65.9991 73.2431C64.2381 74.1172 62.7764 75.5392 61.8467 77.3221C60.2764 75.3935 59.4224 72.9957 59.4224 70.464C59.4224 67.5722 60.5366 64.8533 62.5601 62.8084C64.5835 60.7635 67.2738 59.6374 70.1353 59.6374C72.9968 59.6374 75.6854 60.7634 77.707 62.8084C79.7302 64.8533 80.8447 67.572 80.8447 70.464C80.8447 72.9942 79.9917 75.3908 78.4232 77.3187Z" fill="#6D5132"/>
</svg>
