<svg width="84" height="84" viewBox="0 0 84 84" fill="none" xmlns="http://www.w3.org/2000/svg">
<g clip-path="url(#clip0_7953_332)">
<path d="M74.9003 68.6006C72.354 68.6083 70.1341 70.3346 69.4992 72.8004H63.6997V68.6006H60.8997V74.2002C60.901 74.9728 61.5269 75.599 62.2994 75.6005H69.4983C71.2696 81.8926 80.3281 80.7862 80.4994 74.2002C80.4959 71.1093 77.9912 68.6044 74.9003 68.6006ZM74.9003 77.0003C73.3545 76.9988 72.1017 75.746 72.1002 74.2002C72.2518 70.4855 77.5476 70.4855 77.7003 74.2002C77.6987 75.746 76.4461 76.9988 74.9003 77.0003Z" fill="#6D5132"/>
<path d="M32.9006 77.0003H25.7017C25.0667 74.5344 22.8468 72.8083 20.3006 72.8004C12.8712 73.1082 12.8735 83.6938 20.3006 84.0005C22.847 83.9928 25.0669 82.2663 25.7017 79.8003H34.3003C35.0729 79.799 35.6991 79.1731 35.7006 78.4005V68.6006H32.9006V77.0003ZM20.3006 81.2004C18.7548 81.1989 17.502 79.9462 17.5005 78.4004C17.6521 74.6857 22.9474 74.6857 23.1001 78.4004C23.099 79.9462 21.8464 81.1989 20.3006 81.2004Z" fill="#6D5132"/>
<path d="M48.3005 72.9984V68.6016H45.4989V72.9984C43.0327 73.6334 41.3065 75.8533 41.2988 78.3999C41.6065 85.8293 52.1922 85.8265 52.4988 78.3999C52.4913 75.8539 50.7658 73.634 48.3005 72.9984ZM46.9015 81.1999C45.3557 81.1984 44.1029 79.9457 44.1014 78.3999C44.255 74.6852 49.5488 74.6852 49.7016 78.3999C49.7001 79.9457 48.4473 81.1984 46.9015 81.1999Z" fill="#6D5132"/>
<path d="M72.1002 65.8003C75.9646 65.7959 79.096 62.6644 79.1004 58.8001V25.2001C79.0959 21.3359 75.9644 18.2046 72.1002 18.2002H21.7006C19.9554 18.2004 18.2741 18.856 16.9893 20.037C16.4189 20.5591 16.3797 21.4449 16.9017 22.0153C17.4238 22.5857 18.3096 22.625 18.88 22.1029C19.6486 21.3947 20.6553 21.0007 21.7006 20.9994H72.1002C74.4189 21.0017 76.2979 22.8807 76.3004 25.1993V33.6003H59.5002C54.861 33.6007 51.1006 37.3619 51.1009 42.0011C51.1014 46.6398 54.8615 50.3999 59.5002 50.4004H76.3004V58.8001C76.2979 61.1188 74.4189 62.9978 72.1002 63.0003H21.7006C19.9656 62.9981 18.4108 61.9286 17.7885 60.309C17.5155 59.5856 16.7078 59.2204 15.9845 59.4934C15.2611 59.7664 14.8959 60.5741 15.1689 61.2974C16.2053 64.005 18.8016 65.7949 21.7007 65.801L72.1002 65.8003ZM59.5002 47.6004C52.0708 47.2923 52.0736 36.7069 59.5002 36.4003H76.3004V47.6004H59.5002Z" fill="#6D5132"/>
<path d="M60.9005 37.7998C58.5824 37.8026 56.7038 39.6805 56.7003 41.9985C56.9312 47.5705 64.8706 47.5686 65.1003 41.9985C65.0969 39.6805 63.2184 37.8024 60.9005 37.7998ZM60.9005 43.3998C60.1271 43.3999 59.5 42.7732 59.4999 42C59.4997 41.2266 60.1264 40.5995 60.8997 40.5994C61.6731 40.5992 62.3001 41.2259 62.3003 41.9991V42C62.2994 42.7729 61.6734 43.3994 60.9005 43.4009V43.3998Z" fill="#6D5132"/>
<path d="M20.3006 15.4002C22.8469 15.3924 25.0666 13.6663 25.7017 11.2004H30.1006V15.4002H32.9006V9.80028C32.8991 9.02771 32.2731 8.40165 31.5003 8.4005H25.7009C23.9311 2.10788 14.8719 3.21481 14.7005 9.80028C14.7041 12.8915 17.2093 15.3968 20.3006 15.4002ZM20.3006 7.00023C21.8464 7.0017 23.099 8.25449 23.1003 9.80028C22.9487 13.515 17.6535 13.515 17.5007 9.80028C17.502 8.25449 18.7548 7.0017 20.3006 7.00023Z" fill="#6D5132"/>
<path d="M60.9005 6.99989H68.0994C68.7341 9.46591 70.9541 11.1923 73.5005 11.2001C80.9299 10.8923 80.9271 0.306633 73.5005 0C70.9542 0.00771094 68.7343 1.73398 68.0994 4.19984H59.5004C58.7278 4.20131 58.1017 4.82737 58.1006 5.60011V15.4001H60.9006V6.99989H60.9005ZM73.5003 2.80005C75.0461 2.80153 76.2989 4.05431 76.3004 5.60011C76.1468 9.31481 70.853 9.31481 70.7003 5.60011C70.7017 4.05431 71.9545 2.80153 73.5003 2.80005Z" fill="#6D5132"/>
<path d="M45.4989 11.0006V15.3994H48.299V11.0026C50.7648 10.3676 52.4909 8.14772 52.4988 5.60147C52.191 -1.82794 41.6054 -1.82564 41.2988 5.60147C41.3075 8.14723 43.0336 10.3662 45.4989 11.0006ZM46.9015 2.79961C48.4473 2.80108 49.7001 4.05387 49.7016 5.59966C49.55 9.31437 44.2542 9.31437 44.1014 5.59966C44.1029 4.05387 45.3557 2.80108 46.9015 2.79961Z" fill="#6D5132"/>
<path d="M16.1004 55.9998C16.3391 56.0001 16.5739 55.9394 16.7828 55.8236L23.1454 52.289C26.5532 50.4185 28.6801 46.8484 28.7022 42.9611V29.7111C28.7019 29.2208 28.4448 28.7665 28.0248 28.5136C19.8227 23.4786 10.1671 24.7872 4.17587 28.5136C3.75669 28.7669 3.50043 29.2212 3.50043 29.7111V42.9611C3.5229 46.8484 5.64965 50.4184 9.05722 52.289L15.4202 55.8236C15.6284 55.9389 15.8625 55.9996 16.1004 55.9998ZM6.30048 42.9606V30.5184C12.4028 27.1627 19.7979 27.1627 25.9002 30.5184V42.9617C25.8779 45.8323 24.3022 48.4657 21.7831 49.8422L16.1004 52.9987L10.4178 49.8422C7.89845 48.4655 6.32263 45.8318 6.30065 42.9609L6.30048 42.9606Z" fill="#6D5132"/>
<path d="M14.7007 44.7997C14.3292 44.7997 13.973 44.6522 13.7105 44.3895L10.9105 41.5895C10.3638 41.0428 10.3638 40.1564 10.9105 39.6097C11.4571 39.0631 12.3436 39.0631 12.8902 39.6097L14.4823 41.2018L19.1354 34.2231C19.5646 33.5796 20.4341 33.406 21.0774 33.8351C21.7209 34.2642 21.8945 35.1336 21.4654 35.7771L15.8653 44.1761C15.6055 44.5652 15.1686 44.7992 14.7007 44.7997Z" fill="#6D5132"/>
</g>
<defs>
<clipPath id="clip0_7953_332">
<rect width="84" height="84" fill="white"/>
</clipPath>
</defs>
</svg>
