<svg width="100" height="100" viewBox="0 0 100 100" fill="none" xmlns="http://www.w3.org/2000/svg">
<circle cx="50" cy="50" r="50" fill="#37358F"/>
<rect x="36.5078" y="30.1855" width="26.6786" height="38.8651" fill="#0EF169"/>
<path d="M66.3756 34.9883H64.5798L63.9972 29.7948C63.8516 28.3386 62.5896 27.2222 61.1335 27.2222H38.6604C37.2043 27.2222 35.9423 28.3386 35.7967 29.7948L35.2143 34.9883H33.4185C31.8166 34.9883 30.5547 36.2987 30.5547 37.8521V70.4695C30.5547 72.0713 31.8651 73.3333 33.4185 73.3333H66.3271C67.929 73.3333 69.1909 72.0228 69.1909 70.4695L69.1906 37.8521C69.2392 36.2988 67.9771 34.9883 66.3755 34.9883H66.3756ZM52.2511 31.4937C52.2511 30.9113 52.7364 30.4744 53.2703 30.4744L58.658 30.4742C59.2404 30.4742 59.6773 30.9596 59.6773 31.4935V32.9981C59.6773 33.5805 59.1919 34.0174 58.658 34.0174L53.3189 34.0175C52.7365 34.0175 52.2996 33.5322 52.2996 32.9983V31.4937H52.2511ZM47.9797 30.4742C48.9505 30.4742 49.7756 31.2508 49.7756 32.2701C49.7756 33.2408 48.999 34.0659 47.9797 34.0659C47.009 34.0659 46.1839 33.2893 46.1839 32.2701C46.1839 31.2995 47.009 30.4742 47.9797 30.4742ZM41.9125 30.4742C42.8833 30.4742 43.7083 31.2508 43.7083 32.2701C43.7083 33.2408 42.9318 34.0659 41.9125 34.0659C40.9417 34.0659 40.1167 33.2893 40.1167 32.2701C40.1167 31.2995 40.9417 30.4742 41.9125 30.4742ZM49.9213 66.7806C42.9803 66.7806 37.3014 61.1502 37.3014 54.1607C37.3014 47.2198 42.9318 41.5409 49.9213 41.5409C56.8622 41.5409 62.5411 47.1713 62.5411 54.1607C62.5411 61.1016 56.8622 66.7806 49.9213 66.7806Z" fill="#001035"/>
<path d="M49.9784 43.3608C43.9881 43.3608 39.1094 48.2395 39.1094 54.2299C39.1094 60.2202 43.9881 65.0989 49.9784 65.0989C55.9688 65.0989 60.8475 60.2202 60.8475 54.2299C60.8475 48.2395 55.9688 43.3608 49.9784 43.3608ZM50.596 58.1823V59.6644H48.9903V58.2441C48.2493 58.1823 47.5082 57.9353 47.0141 57.5648L46.8289 57.4413L47.3847 55.8356L47.7552 56.0826C48.2493 56.3914 48.9285 56.6384 49.5462 56.6384C50.2872 56.6384 50.8431 56.2679 50.8431 55.6503C50.8431 55.2798 50.6578 54.8475 49.4844 54.3534C48.2493 53.8594 47.0142 53.1801 47.0142 51.6362C47.0142 50.4011 47.8171 49.4747 49.1139 49.1041V47.6838H50.7196V49.0424C51.3371 49.1042 51.8312 49.2894 52.3252 49.5365L52.5722 49.7217L51.9547 51.3274L51.5841 51.1421C51.3371 51.0186 50.8431 50.7098 50.0402 50.7098C49.2374 50.7098 48.9286 51.1421 48.9286 51.5127C48.9286 51.945 49.1139 52.192 50.4107 52.7478C51.5224 53.1801 52.7575 53.9211 52.7575 55.5886C52.7575 56.8237 51.8928 57.8735 50.596 58.1823Z" fill="#001035"/>
<rect x="41.1016" y="46.9839" width="2.27219" height="23.2899" transform="rotate(-45 41.1016 46.9839)" fill="#0EF169"/>
</svg>
