<svg width="61" height="60" viewBox="0 0 61 60" fill="none" xmlns="http://www.w3.org/2000/svg">
<path d="M51.0545 31.9874C50.0376 31.0714 48.4451 31.2144 47.4774 32.1822L38.4894 41.1702H29.5532L27.766 39.383L34.6289 38.0104C35.6307 37.8102 36.4751 37.0524 36.6592 36.0471C36.9452 34.4868 35.7549 33.1277 34.2465 33.1277H21.7912C19.895 33.1277 18.0765 33.881 16.736 35.2214L9 42.9574L17.0426 51L20.0934 47.9492C20.4285 47.6141 20.8833 47.4255 21.3569 47.4255H37.9023C38.8504 47.4255 39.7592 47.0493 40.4294 46.3782L51.1528 35.6548C52.1724 34.6361 52.1394 32.9641 51.0545 31.9874ZM42.0638 9C39.7842 9 37.795 10.2234 36.7021 12.0454C35.6092 10.2234 33.62 9 31.3404 9C27.8857 9 25.0851 11.8006 25.0851 15.2553C25.0851 20.5991 36.7021 28.6596 36.7021 28.6596C36.7021 28.6596 48.3191 20.5571 48.3191 15.2553C48.3191 11.8006 45.5186 9 42.0638 9Z" stroke="#A68EFF" stroke-width="1.5" stroke-miterlimit="10" stroke-linecap="round" stroke-linejoin="round"/>
</svg>
