<svg width="100" height="100" viewBox="0 0 100 100" fill="none" xmlns="http://www.w3.org/2000/svg">
<circle cx="50" cy="50" r="50" fill="#37358F"/>
<rect x="35.5938" y="28.1372" width="30.2325" height="41.7497" fill="#0EF169"/>
<path d="M51.5411 44.4011C51.8258 44.0913 51.9785 43.6828 51.9668 43.2621C51.9548 42.8415 51.7795 42.4422 51.4779 42.1489C51.1761 41.8556 50.7719 41.6914 50.3513 41.6914C49.9307 41.6914 49.5265 41.8556 49.2247 42.1489C48.923 42.4421 48.7477 42.8415 48.7358 43.2621C48.7241 43.6828 48.8768 44.0913 49.1615 44.4011L48.4507 47.9559C48.3871 48.2732 48.4694 48.602 48.6743 48.8522C48.8795 49.1024 49.186 49.2473 49.5094 49.2471H51.1933C51.5166 49.2473 51.8231 49.1024 52.0283 48.8522C52.2333 48.602 52.3155 48.2732 52.2519 47.9559L51.5411 44.4011Z" fill="#001035"/>
<path d="M36.0447 73.8461H64.6604C66.0579 73.8444 67.3976 73.2887 68.386 72.3005C69.3741 71.3122 69.9299 69.9724 69.9316 68.5749V31.425C69.9299 30.0275 69.3741 28.6878 68.386 27.6994C67.3976 26.7113 66.0578 26.1555 64.6604 26.1538H36.0447C34.6471 26.1555 33.3074 26.7113 32.319 27.6994C31.3309 28.6878 30.7751 30.0276 30.7734 31.425V68.5749C30.7751 69.9724 31.3309 71.3122 32.319 72.3005C33.3074 73.2887 34.6472 73.8445 36.0447 73.8461ZM41.8178 40.6461C41.8187 39.9407 42.0726 39.259 42.533 38.7248C42.9936 38.1905 43.6303 37.8391 44.3279 37.7343V37.0566C44.6346 29.0842 56.1115 29.0103 56.3765 37.1179V37.7358C57.0741 37.8408 57.7109 38.1922 58.1715 38.7265C58.6319 39.2607 58.8859 39.9422 58.8867 40.6475V50.3169C58.8858 51.098 58.5752 51.8469 58.023 52.3991C57.4707 52.9514 56.7219 53.2619 55.9408 53.2628H44.7635C43.9824 53.262 43.2336 52.9513 42.6813 52.3991C42.1291 51.8469 41.8185 51.098 41.8176 50.3169L41.8178 40.6461ZM36.5465 60.0406C36.5465 59.2417 36.8639 58.4755 37.4289 57.9107C37.9937 57.3458 38.7598 57.0284 39.5587 57.0284H61.6478C62.4466 57.0284 63.2129 57.3457 63.7776 57.9107C64.3426 58.4755 64.6599 59.2417 64.6599 60.0406V62.5507C64.6599 63.3495 64.3426 64.1158 63.7776 64.6805C63.2128 65.2455 62.4466 65.5628 61.6478 65.5628H39.5587C38.7598 65.5628 37.9936 65.2455 37.4289 64.6805C36.8639 64.1157 36.5465 63.3495 36.5465 62.5507V60.0406Z" fill="#001035"/>
<path d="M42.5706 61.296C42.5706 61.8505 42.1211 62.3001 41.5665 62.3001C41.012 62.3001 40.5625 61.8506 40.5625 61.296C40.5625 60.7415 41.012 60.292 41.5665 60.292C42.1211 60.292 42.5706 60.7415 42.5706 61.296Z" fill="#001035"/>
<path d="M53.3634 62.3001C53.6297 62.3001 53.8851 62.1943 54.0734 62.006C54.2616 61.8178 54.3675 61.5623 54.3675 61.2961C54.3675 61.0298 54.2616 60.7744 54.0734 60.5861C53.8851 60.3978 53.6297 60.292 53.3634 60.292C53.0971 60.292 52.8417 60.3978 52.6535 60.5861C52.4652 60.7744 52.3594 61.0298 52.3594 61.2961C52.3594 61.5623 52.4652 61.8177 52.6535 62.006C52.8417 62.1943 53.0971 62.3001 53.3634 62.3001Z" fill="#001035"/>
<path d="M47.34 62.3001C47.6063 62.3001 47.8617 62.1943 48.05 62.006C48.2382 61.8178 48.3441 61.5623 48.3441 61.2961C48.3441 61.0298 48.2382 60.7744 48.05 60.5861C47.8617 60.3978 47.6063 60.292 47.34 60.292C47.0737 60.292 46.8183 60.3978 46.63 60.5861C46.4418 60.7744 46.3359 61.0298 46.3359 61.2961C46.3359 61.5623 46.4418 61.8177 46.63 62.006C46.8183 62.1943 47.0737 62.3001 47.34 62.3001Z" fill="#001035"/>
<path d="M60.1409 61.296C60.1409 61.8505 59.6914 62.3001 59.1369 62.3001C58.5823 62.3001 58.1328 61.8506 58.1328 61.296C58.1328 60.7415 58.5823 60.292 59.1369 60.292C59.6914 60.292 60.1409 60.7415 60.1409 61.296Z" fill="#001035"/>
<path d="M54.8724 37.0572C54.8724 35.4429 54.0113 33.9515 52.6133 33.1443C51.2154 32.3373 49.493 32.3373 48.0951 33.1443C46.6972 33.9515 45.8359 35.443 45.8359 37.0572V37.7008H54.8724L54.8724 37.0572Z" fill="#001035"/>
</svg>
