<svg width="100" height="100" viewBox="0 0 100 100" fill="none" xmlns="http://www.w3.org/2000/svg">
<circle cx="50" cy="50" r="50" fill="#37358F"/>
<ellipse cx="47.2635" cy="52.8326" rx="17.1463" ry="8.47227" fill="#0EF169"/>
<ellipse cx="63.6067" cy="37.7028" rx="10.4895" ry="10.2878" fill="#0EF169"/>
<path fill-rule="evenodd" clip-rule="evenodd" d="M76.9169 37.6296C76.9171 35.2613 76.2303 32.9436 74.94 30.9577C73.6497 28.9717 71.811 27.4028 69.6471 26.4405C67.483 25.4785 65.0865 25.1647 62.7474 25.5371C60.4085 25.9096 58.2281 26.9525 56.47 28.5392C54.7118 30.1259 53.4516 32.1884 52.8419 34.4771C52.2324 36.7656 52.2996 39.1821 53.0354 41.433H39.1703C36.1259 41.4366 33.2076 42.6474 31.0546 44.8001C28.9016 46.9528 27.6911 49.8714 27.6875 52.9158V72.6887C27.6875 73.1997 27.8904 73.6899 28.2517 74.0512C28.6132 74.4125 29.1032 74.6155 29.6142 74.6155C30.1252 74.6155 30.6153 74.4123 30.9766 74.0511L40.6279 64.3997H54.9239C57.2972 64.4003 59.6123 63.6653 61.5507 62.296C63.4892 60.9267 64.9557 58.9903 65.7483 56.7533C66.5408 54.5162 66.6208 52.0885 65.9768 49.804C68.9797 49.4787 71.7568 48.0562 73.7758 45.8096C75.7948 43.563 76.9132 40.6504 76.9169 37.6296ZM31.5412 60.5457H54.9237C56.6635 60.5468 58.3511 59.9527 59.7067 58.8626C61.0624 57.7726 62.0045 56.2517 62.377 54.5525C62.7495 52.8532 62.5298 51.0777 61.7542 49.5205C59.1418 48.8752 56.8142 47.3888 55.1299 45.2902C55.0614 45.2883 54.993 45.2864 54.9237 45.2864H39.1702C37.1476 45.2889 35.2087 46.0934 33.7785 47.5237C32.3483 48.9538 31.5436 50.8929 31.5412 52.9154V60.5457ZM57.7188 44.5842C59.5633 46.4287 62.0649 47.4649 64.6735 47.4649C67.2813 47.4619 69.7811 46.4247 71.6249 44.5809C73.4688 42.7372 74.5059 40.2371 74.5089 37.6295C74.5089 35.0209 73.4726 32.5193 71.6281 30.6748C69.7836 28.8305 67.2819 27.7942 64.6735 27.7942C62.0649 27.7942 59.5633 28.8305 57.7188 30.6748C55.8743 32.5193 54.838 35.021 54.838 37.6295C54.838 40.2381 55.8743 42.7396 57.7188 44.5842Z" fill="#001035"/>
<path fill-rule="evenodd" clip-rule="evenodd" d="M54.9237 60.5457H31.5412V52.9154C31.5436 50.8929 32.3483 48.9538 33.7785 47.5237C35.2087 46.0934 37.1476 45.2889 39.1702 45.2864H54.9237C54.993 45.2864 55.0614 45.2883 55.1299 45.2902C56.8142 47.3888 59.1418 48.8752 61.7542 49.5205C62.5298 51.0777 62.7495 52.8532 62.377 54.5525C62.0045 56.2517 61.0624 57.7726 59.7067 58.8626C58.3511 59.9527 56.6635 60.5468 54.9237 60.5457ZM40.9241 52.9166C40.9241 54.4972 39.643 55.7783 38.0625 55.7783C36.4821 55.7783 35.2008 54.4972 35.2008 52.9166C35.2008 51.3362 36.4821 50.0551 38.0625 50.0551C39.643 50.0551 40.9241 51.3362 40.9241 52.9166ZM47.0476 55.7783C48.628 55.7783 49.9093 54.4972 49.9093 52.9166C49.9093 51.3362 48.628 50.0551 47.0476 50.0551C45.4672 50.0551 44.1861 51.3362 44.1861 52.9166C44.1861 54.4972 45.4672 55.7783 47.0476 55.7783ZM58.8953 52.9166C58.8953 54.4972 57.6142 55.7783 56.0336 55.7783C54.4532 55.7783 53.1721 54.4972 53.1721 52.9166C53.1721 51.3362 54.4532 50.0551 56.0336 50.0551C57.6142 50.0551 58.8953 51.3362 58.8953 52.9166Z" fill="#001035"/>
<path fill-rule="evenodd" clip-rule="evenodd" d="M64.6735 47.4649C62.0649 47.4649 59.5633 46.4287 57.7188 44.5842C55.8743 42.7396 54.838 40.2381 54.838 37.6295C54.838 35.021 55.8743 32.5193 57.7188 30.6748C59.5633 28.8305 62.0649 27.7942 64.6735 27.7942C67.2819 27.7942 69.7836 28.8305 71.6281 30.6748C73.4726 32.5193 74.5089 35.0209 74.5089 37.6295C74.5059 40.2371 73.4688 42.7372 71.6249 44.5809C69.7811 46.4247 67.2813 47.4619 64.6735 47.4649ZM63.3984 31.7867V30.6228C65.5939 30.6254 67.6991 31.4989 69.2518 33.0514C70.8042 34.604 71.6776 36.7089 71.68 38.9045H70.5163C70.5142 37.0173 69.7636 35.2082 68.4292 33.8738C67.0947 32.5393 65.2855 31.7888 63.3984 31.7867ZM65.3721 40.072C65.5362 40.072 65.6935 40.1371 65.8095 40.2531L68.4095 42.853C68.5497 42.9937 68.614 43.193 68.5825 43.3891C68.5509 43.5852 68.4275 43.7541 68.2503 43.8439C66.8803 44.5428 65.3243 44.7899 63.8054 44.5499C62.2865 44.3098 60.8827 43.5947 59.7953 42.5074C58.7081 41.42 57.993 40.0162 57.7529 38.4972C57.5127 36.9784 57.7598 35.4225 58.4588 34.0527C58.5485 33.8756 58.7176 33.752 58.9136 33.7205C59.1097 33.6888 59.309 33.7531 59.4497 33.8933L62.0506 36.4942C62.1665 36.6101 62.2316 36.7674 62.2316 36.9314C62.2316 37.0955 62.1665 37.2528 62.0506 37.3688L60.3813 39.0378C60.872 40.3766 61.927 41.4315 63.2658 41.9223L64.9349 40.2531C65.0509 40.1371 65.2082 40.072 65.3721 40.072ZM65.7454 38.9043H66.9092C66.9081 37.9737 66.5379 37.0816 65.8799 36.4235C65.2219 35.7655 64.3298 35.3954 63.3992 35.3943V36.558C64.0212 36.5588 64.6176 36.8063 65.0574 37.2461C65.4972 37.6859 65.7447 38.2823 65.7454 38.9043ZM63.3984 34.1657V33.0019C64.9634 33.0037 66.4639 33.6261 67.5704 34.7327C68.6769 35.8393 69.2994 37.3397 69.3011 38.9046H68.1374C68.136 37.6482 67.6362 36.4436 66.7478 35.5553C65.8594 34.6668 64.6549 34.1671 63.3984 34.1657Z" fill="#001035"/>
</svg>
