<svg width="61" height="60" viewBox="0 0 61 60" fill="none" xmlns="http://www.w3.org/2000/svg">
<path d="M8 30H41M41 30C41 29.606 41.0776 29.2159 41.2284 28.8519C41.3791 28.488 41.6001 28.1573 41.8787 27.8787C42.1573 27.6001 42.488 27.3791 42.8519 27.2284C43.2159 27.0776 43.606 27 44 27C44.394 27 44.7841 27.0776 45.1481 27.2284C45.512 27.3791 45.8427 27.6001 46.1213 27.8787C46.3999 28.1573 46.6209 28.488 46.7716 28.8519C46.9224 29.2159 47 29.606 47 30M41 30C41 30.394 41.0776 30.7841 41.2284 31.1481C41.3791 31.512 41.6001 31.8427 41.8787 32.1213C42.1573 32.3999 42.488 32.6209 42.8519 32.7716C43.2159 32.9224 43.606 33 44 33C44.394 33 44.7841 32.9224 45.1481 32.7716C45.512 32.6209 45.8427 32.3999 46.1213 32.1213C46.3999 31.8427 46.6209 31.512 46.7716 31.1481C46.9224 30.7841 47 30.394 47 30M47 30H52M8 16H27M27 16C27 15.606 27.0776 15.2159 27.2284 14.8519C27.3791 14.488 27.6001 14.1573 27.8787 13.8787C28.1573 13.6001 28.488 13.3791 28.8519 13.2284C29.2159 13.0776 29.606 13 30 13C30.394 13 30.7841 13.0776 31.148 13.2284C31.512 13.3791 31.8427 13.6001 32.1213 13.8787C32.3999 14.1573 32.6209 14.488 32.7716 14.8519C32.9224 15.2159 33 15.606 33 16M27 16C27 16.394 27.0776 16.7841 27.2284 17.1481C27.3791 17.512 27.6001 17.8427 27.8787 18.1213C28.1573 18.3999 28.488 18.6209 28.8519 18.7716C29.2159 18.9224 29.606 19 30 19C30.394 19 30.7841 18.9224 31.148 18.7716C31.512 18.6209 31.8427 18.3999 32.1213 18.1213C32.3999 17.8427 32.6209 17.512 32.7716 17.1481C32.9224 16.7841 33 16.394 33 16M33 16H52M8 44H16M16 44C16 43.2044 16.3161 42.4413 16.8787 41.8787C17.4413 41.3161 18.2043 41 19 41C19.7956 41 20.5587 41.3161 21.1213 41.8787C21.6839 42.4413 22 43.2044 22 44M16 44C16 44.7956 16.3161 45.5587 16.8787 46.1213C17.4413 46.6839 18.2043 47 19 47C19.7956 47 20.5587 46.6839 21.1213 46.1213C21.6839 45.5587 22 44.7956 22 44M22 44H52" stroke="#A68EFF" stroke-width="1.5" stroke-miterlimit="10" stroke-linecap="round" stroke-linejoin="round"/>
</svg>
