<svg width="100" height="100" viewBox="0 0 100 100" fill="none" xmlns="http://www.w3.org/2000/svg">
<circle cx="50" cy="50" r="50" fill="#37358F"/>
<ellipse cx="49.4085" cy="49.9998" rx="17.1429" ry="17.1429" fill="#0EF169"/>
<path d="M50.0689 42.0356C45.7768 42.0356 42.2812 45.5312 42.2812 49.8233C42.2812 54.1154 45.7768 57.6109 50.0689 57.6109C54.361 57.6109 57.8565 54.1154 57.8565 49.8233C57.8565 45.5312 54.361 42.0356 50.0689 42.0356ZM50.5114 52.6552V53.7171H49.3609V52.6994C48.83 52.6552 48.299 52.4782 47.945 52.2127L47.8122 52.1242L48.2105 50.9738L48.476 51.1508C48.83 51.372 49.3167 51.549 49.7592 51.549C50.2902 51.549 50.6884 51.2835 50.6884 50.841C50.6884 50.5755 50.5557 50.2658 49.715 49.9118C48.83 49.5578 47.945 49.0711 47.945 47.9649C47.945 47.0799 48.5203 46.4162 49.4495 46.1507V45.133H50.5999V46.1065C51.0424 46.1507 51.3964 46.2835 51.7504 46.4605L51.9274 46.5932L51.4849 47.7437L51.2194 47.6109C51.0424 47.5224 50.6884 47.3012 50.1132 47.3012C49.5379 47.3012 49.3167 47.6109 49.3167 47.8764C49.3167 48.1862 49.4494 48.3631 50.3787 48.7614C51.1751 49.0711 52.0601 49.6021 52.0601 50.7968C52.0601 51.6817 51.4406 52.4339 50.5114 52.6552Z" fill="#001035"/>
<path d="M69.7524 32.9646C67.4073 33.3186 63.7347 33.4956 59.6639 32.0797C55.4603 30.6195 52.6286 28.0974 50.9913 26.2389L49.8851 25L48.8231 26.2389C46.7877 28.6283 44.177 30.531 41.3007 31.7257C36.8759 33.5841 32.7607 33.4071 30.1059 32.9646L28.3359 32.6549C28.3359 32.6549 28.5129 34.9115 28.5129 35.1771C29.3536 49.0712 31.3005 58.3186 34.1767 62.5664C39.1768 69.8675 45.8581 73.3186 49.398 74.7345L49.9732 75L50.5485 74.7345C55.5486 72.2123 60.0173 68.5842 63.4689 64.2476C68.469 57.9646 70.2833 43.0973 71.0795 36.7256L71.6548 32.6991L69.7524 32.9646ZM50.062 58.9824C45.0174 58.9824 40.9027 54.8674 40.9027 49.8232C40.9027 44.7791 45.0178 40.664 50.062 40.664C55.1061 40.664 59.2212 44.7791 59.2212 49.8232C59.2212 54.8674 55.1061 58.9824 50.062 58.9824Z" fill="#001035"/>
<path d="M60.9909 49.9997C60.9909 48.3664 60.6206 46.8216 59.9751 45.4275L61.7008 44.4326C62.509 46.1198 62.9766 48.0023 62.9766 50.0001C62.9766 51.9978 62.509 53.8803 61.6997 55.5691L59.9751 54.5722C60.6205 53.1803 60.9908 51.6354 60.9908 49.9999L60.9909 49.9997Z" fill="#0EF169"/>
<path d="M39.1482 50C39.1482 51.6353 39.5185 53.1802 40.1639 54.5722L38.4394 55.5692C37.6301 53.8803 37.1625 51.9967 37.1625 50.0002C37.1625 48.0036 37.6301 46.1199 38.4384 44.4331L40.1641 45.428C39.5186 46.8219 39.1482 48.3668 39.1482 50.0002V50Z" fill="#0EF169"/>
<path d="M51.0647 39.1289V37.1431C55.0721 37.4499 58.5678 39.5747 60.7188 42.7062L58.9851 43.7089C57.1852 41.1663 54.3325 39.4257 51.0649 39.1289L51.0647 39.1289Z" fill="#0EF169"/>
<path d="M58.9841 56.293L60.7188 57.2938C58.5682 60.4254 55.0721 62.5531 51.0647 62.857V60.8711C54.3322 60.5744 57.184 58.8338 58.9841 56.293L58.9841 56.293Z" fill="#0EF169"/>
<path d="M41.1577 43.7089L39.4241 42.7081C41.5738 39.5746 45.0696 37.4489 49.0781 37.1431V39.1289C45.8107 39.4256 42.9581 41.1663 41.158 43.709L41.1577 43.7089Z" fill="#0EF169"/>
<path d="M49.0781 60.871V62.8569C45.0707 62.552 41.575 60.4253 39.4241 57.2938L41.1587 56.293C42.9587 58.8336 45.8105 60.5743 49.078 60.8711L49.0781 60.871Z" fill="#0EF169"/>
</svg>
