<svg width="100" height="100" viewBox="0 0 100 100" fill="none" xmlns="http://www.w3.org/2000/svg">
<circle cx="50" cy="50" r="50" fill="#37358F"/>
<ellipse cx="50.0196" cy="42.7334" rx="17.1055" ry="17.1055" fill="#0EF169"/>
<mask id="mask0_6840_729" style="mask-type:luminance" maskUnits="userSpaceOnUse" x="30" y="23" width="40" height="54">
<path d="M69.2656 23.8467H30.7771V76.9236H69.2656V23.8467Z" fill="white"/>
</mask>
<g mask="url(#mask0_6840_729)">
<path d="M53.0963 67.0198C53.8491 64.8242 55.2269 62.896 57.0604 61.4727L61.5677 57.9736C66.1959 54.3807 69.0063 48.9316 69.25 43.0776C69.25 32.4567 60.64 23.8467 50.0191 23.8467C39.3982 23.8467 30.7882 32.4567 30.7882 43.0776C31.0321 48.9318 33.8425 54.3811 38.4704 57.9736L42.9778 61.4727C44.8113 62.8961 46.1891 64.8242 46.9419 67.0198L47.4722 68.5661C47.8454 69.6542 48.8684 70.3851 50.0191 70.3851C51.1694 70.3851 52.1928 69.6542 52.5656 68.5661L53.0963 67.0198ZM50.0194 76.9236C54.2677 76.9236 57.7115 76.407 57.7115 75.7697C57.7115 75.1323 54.2675 74.6157 50.0194 74.6157C45.7712 74.6157 42.3266 75.1323 42.3266 75.7697C42.3266 76.407 45.7708 76.9236 50.0194 76.9236ZM50.0194 58.0776C41.5224 58.0776 34.6345 51.1894 34.6345 42.6927C34.6345 34.1957 41.5227 27.3078 50.0194 27.3078C58.5161 27.3078 65.4042 34.1957 65.4042 42.6927C65.4042 51.1897 58.5163 58.0776 50.0194 58.0776ZM54.7775 37.5726H50.4916V42.1074H55.2634C55.2356 40.4901 55.0647 38.96 54.7775 37.5726ZM54.7775 47.6133C55.0647 46.2254 55.2356 44.6961 55.2634 43.078H50.4916V47.6133H54.7775ZM50.492 36.6006H54.5527C53.7143 33.3739 52.2265 31.1195 50.492 30.7697V36.6006ZM44.2769 47.6133C44.0061 46.2235 43.8552 44.698 43.8286 43.078H38.4822C38.5437 44.6961 38.9196 46.2254 39.5517 47.6133H44.2769ZM44.2769 37.5726H39.5503C38.9195 38.96 38.5453 40.4901 38.4806 42.1074H43.8288C43.8552 40.4881 44.0074 38.9614 44.2769 37.5726ZM44.4911 36.6006C45.0747 34.1978 46.0105 32.28 47.176 31.0935C44.1422 31.8825 41.5904 33.8965 40.0479 36.6006H44.4911ZM50.492 54.4163C52.2265 54.0654 53.7143 51.8115 54.5527 48.5857H50.492V54.4163ZM45.4862 36.6006H49.5464V30.7697C47.8114 31.1206 46.3233 33.375 45.4862 36.6006ZM44.7742 43.0783C44.8025 44.6964 44.9737 46.2256 45.2607 47.6136H49.5464V43.0783H44.7742ZM61.5575 43.0783H56.2098C56.1842 44.6983 56.032 46.2237 55.7626 47.6136H60.487C61.1185 46.2256 61.4938 44.6964 61.5575 43.0783ZM55.547 48.5854C54.9631 50.9885 54.0267 52.9062 52.861 54.0933C55.8957 53.3043 58.4466 51.2897 59.9898 48.5854H55.547ZM44.4906 48.5854H40.0472C41.5923 51.2889 44.1422 53.3043 47.1753 54.0933C46.0092 52.9065 45.074 50.9885 44.4904 48.5854H44.4906ZM55.547 36.6006H59.9901C58.4458 33.8968 55.8957 31.8819 52.8613 31.0935C54.0278 32.2801 54.9629 34.1978 55.5467 36.6006H55.547ZM45.2604 37.5726C44.9734 38.96 44.8022 40.4901 44.774 42.1074H49.5461V37.5726H45.2604ZM60.4872 37.5726H55.7629C56.0323 38.9614 56.184 40.4882 56.2101 42.1074H61.5578C61.4947 40.4901 61.1188 38.96 60.4872 37.5726ZM49.5461 48.5854H45.4859C46.323 51.8123 47.811 54.0661 49.5461 54.4165V48.5854Z" fill="#001035"/>
</g>
</svg>
