<svg width="100" height="100" viewBox="0 0 100 100" fill="none" xmlns="http://www.w3.org/2000/svg">
<circle cx="50" cy="50" r="50" fill="#37358F"/>
<path d="M34.5771 29.2167V33.9741H32.2836V26.9229H38.6797V29.2165L34.5771 29.2167Z" fill="#0EF169"/>
<path d="M65.23 29.217H61.1274V26.9233H67.5234V33.9746H65.23V29.217Z" fill="#0EF169"/>
<path d="M65.23 58.4287V53.9355H67.5234V60.7254H61.1274V58.4288L65.23 58.4287Z" fill="#0EF169"/>
<path d="M34.5771 58.4288H38.6797V60.7254H32.2836V53.9355H34.5771V58.4288Z" fill="#0EF169"/>
<path d="M32.3027 65.8262C39.1628 64.2432 45.5505 62.8572 42.4582 57.0162C33.0433 39.2664 39.9619 29.7749 49.9028 29.7749C60.0403 29.7749 66.7891 39.6307 57.3502 57.0162C54.1638 62.8895 60.7921 64.2669 67.5057 65.8262C74.363 67.4091 73.8343 66.5163 73.8343 73.0769H25.9657C25.9716 66.5161 25.4429 67.409 32.3031 65.8262H32.3027Z" fill="#001035"/>
<path d="M55.029 41.9268L53.3988 40.2686L48.1429 45.4963L46.2598 43.6132L44.6016 45.2715L48.1429 48.8129L55.029 41.9268Z" fill="#0EF169"/>
</svg>
