<svg width="61" height="60" viewBox="0 0 61 60" fill="none" xmlns="http://www.w3.org/2000/svg">
<path d="M9 29.0454C9 29.0454 10.9091 33.8181 15.6818 33.8181C20.4545 33.8181 22.3636 29.0454 22.3636 29.0454M9 29.0454L15.6818 12.8181L22.3636 29.0454M9 29.0454H22.3636M13.7705 11.2651C15.7989 11.7367 19.3126 10.4146 22.3557 11.1219C24.429 11.604 26.2846 13.0282 27.8978 14.0352M32.1961 15.1244C34.1119 14.9401 36.462 14.4476 38.583 14.9401C41.6251 15.6465 44.1967 18.0739 46.2251 18.5454M37.6364 35.7272C37.6364 35.7272 39.5454 40.5 44.3182 40.5C49.0909 40.5 51 35.7272 51 35.7272M37.6364 35.7272L44.3182 19.5L51 35.7272M37.6364 35.7272H51M38.5975 48.1364H21.4157C19.834 48.1364 18.552 49.4183 18.552 51H41.4611C41.4611 49.4183 40.1792 48.1364 38.5975 48.1364ZM28.0931 10.9091C28.0931 9.85527 28.9484 9 30.0022 9C31.056 9 31.9113 9.85527 31.9113 10.9091V48.1364H28.0931V10.9091Z" stroke="#A68EFF" stroke-width="1.5" stroke-miterlimit="10" stroke-linecap="round" stroke-linejoin="round"/>
</svg>
