<svg width="60" height="60" viewBox="0 0 60 60" fill="none" xmlns="http://www.w3.org/2000/svg">
<path d="M34.8384 39.8272C34.7076 38.3831 34.7578 37.3753 34.7578 36.0566C35.4118 35.7126 36.5835 33.525 36.7815 31.6778C37.2957 31.6357 38.1064 31.134 38.3438 29.1533C38.4719 28.09 37.9631 27.4915 37.6531 27.3034C38.4898 24.787 40.2278 17.0022 34.4389 16.1969C33.8432 15.1505 32.3176 14.6211 30.3351 14.6211C22.4034 14.7671 21.4466 20.6106 23.1854 27.3025C22.8764 27.4906 22.3675 28.0891 22.4947 29.1524C22.733 31.1331 23.5429 31.6348 24.0571 31.6769C24.2542 33.5241 25.4725 35.7117 26.1282 36.0557C26.1282 37.3753 26.1775 38.3831 26.0467 39.8263C24.4772 44.0474 13.8876 42.8623 13.3984 51H47.4401C46.9519 42.8623 36.4079 44.0474 34.8384 39.8272Z" stroke="#0EF169" stroke-width="1.5" stroke-miterlimit="10"/>
<path d="M11 40.25H17.88V33.37" stroke="#0EF169" stroke-width="1.5" stroke-miterlimit="10"/>
<path d="M44.1588 39.6579C47.3023 36.2958 49.2266 31.779 49.2266 26.8125C49.2266 16.4217 40.8048 8 30.4141 8C20.0233 8 11.6016 16.4217 11.6016 26.8125C11.6016 31.9304 13.6441 36.5699 16.9586 39.9616" stroke="#0EF169" stroke-width="1.5" stroke-miterlimit="10"/>
</svg>
