<svg width="100" height="100" viewBox="0 0 100 100" fill="none" xmlns="http://www.w3.org/2000/svg">
<circle cx="50" cy="50" r="50" fill="#37358F"/>
<rect x="33.5859" y="39.333" width="33.2308" height="33.2308" fill="#0EF169"/>
<path d="M54.4768 29.1156C54.2581 29.1089 54.0474 29.0313 53.8764 28.8944C53.7055 28.7577 53.5835 28.5692 53.5289 28.3572C53.3638 27.499 52.8971 26.7279 52.2135 26.1834C51.5299 25.6386 50.6741 25.3562 49.8006 25.387C48.921 25.3717 48.0644 25.6677 47.3822 26.2228C46.7 26.7778 46.236 27.5562 46.0721 28.4204C46.0152 28.6261 45.8908 28.8065 45.7189 28.9327C45.5469 29.0589 45.3372 29.1232 45.1242 29.1156H41.6484V35.435H58.0791V29.1156L54.4768 29.1156Z" fill="#001035"/>
<path d="M65.4111 32.9074H59.9767V36.1303C59.9767 36.6359 59.6608 37.331 59.1552 37.331H40.5132C40.0076 37.331 39.7548 36.6359 39.7548 36.1303V32.9074H34.3204C33.6009 32.8545 32.8921 33.1041 32.3643 33.5958C31.8367 34.0875 31.5378 34.7772 31.5398 35.4985V71.7086C31.5228 72.463 31.8063 73.193 32.3278 73.7383C32.8493 74.2834 33.566 74.5991 34.3204 74.6156H65.412C66.1664 74.5991 66.8831 74.2834 67.4046 73.7383C67.9261 73.193 68.2096 72.463 68.1926 71.7086V35.4985C68.1947 34.7771 67.8957 34.0875 67.3681 33.5958C66.8403 33.1041 66.1315 32.8546 65.412 32.9074H65.4111ZM44.7465 63.3673L39.8173 67.9804C39.6596 68.1689 39.4308 68.2834 39.1855 68.2963C38.9214 68.2858 38.6718 68.1725 38.4904 67.9804L35.8995 65.3262H35.8993C35.7338 65.1409 35.6477 64.898 35.6596 64.6498C35.6713 64.4015 35.7801 64.1678 35.9626 63.9991C36.1398 63.8255 36.3779 63.7282 36.626 63.7282C36.8741 63.7282 37.1125 63.8255 37.2896 63.9991L39.1854 66.0213L43.4827 61.9769C43.7367 61.8017 44.0601 61.761 44.3495 61.8681C44.639 61.9749 44.8584 62.2162 44.9374 62.5146C45.0165 62.8129 44.9451 63.131 44.7465 63.3673ZM44.7465 53.2561L39.8173 57.8693C39.6596 58.0577 39.4308 58.1722 39.1855 58.1852C38.9214 58.1747 38.6718 58.0614 38.4904 57.8693L35.8995 55.215H35.8993C35.7338 55.0298 35.6477 54.7868 35.6596 54.5385C35.6713 54.2903 35.7801 54.0567 35.9626 53.888C36.1398 53.7144 36.3779 53.617 36.626 53.617C36.8741 53.617 37.1125 53.7144 37.2896 53.888L39.1854 55.9102L43.4827 51.8658C43.7367 51.6904 44.0601 51.6499 44.3495 51.7567C44.639 51.8638 44.8584 52.1051 44.9374 52.4034C45.0165 52.7018 44.9451 53.0199 44.7465 53.256L44.7465 53.2561ZM44.7465 43.145L39.8173 47.7581C39.6596 47.9466 39.4308 48.0609 39.1855 48.074C38.9214 48.0635 38.6718 47.9502 38.4904 47.7581L35.8995 45.1039H35.8993C35.7338 44.9184 35.6477 44.6757 35.6596 44.4273C35.6713 44.1792 35.7801 43.9455 35.9626 43.7768C36.1398 43.603 36.3779 43.5058 36.626 43.5058C36.8741 43.5058 37.1125 43.603 37.2896 43.7768L39.1854 45.799L43.4827 41.7546C43.7367 41.5792 44.0601 41.5387 44.3495 41.6455C44.639 41.7526 44.8584 41.9939 44.9374 42.2923C45.0165 42.5906 44.9451 42.9087 44.7465 43.1448L44.7465 43.145ZM63.1362 67.0325H48.6017C48.263 67.0325 47.9499 66.8519 47.7808 66.5586C47.6115 66.2652 47.6115 65.9037 47.7808 65.6107C47.9499 65.3173 48.263 65.1367 48.6017 65.1367H63.1362C63.4747 65.1367 63.7878 65.3173 63.9571 65.6107C64.1265 65.9038 64.1265 66.2653 63.9571 66.5586C63.7878 66.8519 63.4747 67.0325 63.1362 67.0325ZM63.1362 56.9214H48.6017C48.263 56.9214 47.9499 56.7405 47.7808 56.4474C47.6115 56.1541 47.6115 55.7926 47.7808 55.4995C47.9499 55.2062 48.263 55.0256 48.6017 55.0256H63.1362C63.4747 55.0256 63.7878 55.2062 63.9571 55.4995C64.1265 55.7926 64.1265 56.1541 63.9571 56.4474C63.7878 56.7405 63.4747 56.9214 63.1362 56.9214ZM63.1362 46.8102H48.6017C48.263 46.8102 47.9499 46.6294 47.7808 46.3362C47.6115 46.0429 47.6115 45.6814 47.7808 45.3881C47.9499 45.095 48.263 44.9142 48.6017 44.9142H63.1362C63.4747 44.9142 63.7878 45.095 63.9571 45.3881C64.1265 45.6815 64.1265 46.0429 63.9571 46.3362C63.7878 46.6294 63.4747 46.8102 63.1362 46.8102Z" fill="#001035"/>
<circle cx="69.491" cy="35.0252" r="3.07692" fill="#001035"/>
<path d="M74.5243 36.3292C74.6467 35.8698 75.398 35.4757 75.398 34.9802C75.398 34.4849 74.6469 34.0923 74.528 33.6312C74.3953 33.1565 74.8492 32.4437 74.6037 32.0288C74.3623 31.6053 73.512 31.6397 73.168 31.2991C72.827 30.9565 72.8604 30.1095 72.4371 29.8676C72.0203 29.6258 71.3021 30.0751 70.8254 29.9465C70.3623 29.8266 69.9681 29.0771 69.469 29.0771C68.9725 29.0771 68.5786 29.8266 68.1155 29.9448C67.6357 30.075 66.9206 29.6235 66.5038 29.8659C66.077 30.1082 66.1136 30.9543 65.7694 31.2953C65.4289 31.6364 64.578 31.6035 64.3337 32.025C64.0918 32.4414 64.5422 33.1549 64.413 33.6311C64.2933 34.0906 63.5391 34.4849 63.5391 34.9802C63.5391 35.4755 64.2933 35.8682 64.4128 36.3292C64.5418 36.8049 64.0915 37.5168 64.3335 37.9337C64.5781 38.3566 65.4253 38.3222 65.7693 38.6628C65.9253 38.8197 66.001 39.0814 66.0803 39.3434V44.2566L69.4688 42.5702L72.8568 44.2566V39.3367C72.936 39.0776 73.0128 38.818 73.1678 38.6627C73.512 38.3216 74.3627 38.3565 74.6035 37.9335C74.8491 37.5186 74.3952 36.8048 74.5243 36.3291L74.5243 36.3292ZM69.4689 37.5102C68.0621 37.5102 66.9277 36.3803 66.9277 34.9802C66.9277 33.5802 68.0621 32.4503 69.4689 32.4503C70.8717 32.4503 72.0102 33.5802 72.0102 34.9802C72.0102 36.3803 70.8717 37.5102 69.4689 37.5102Z" fill="#0EF169"/>
</svg>
