<svg width="100" height="100" viewBox="0 0 100 100" fill="none" xmlns="http://www.w3.org/2000/svg">
<circle cx="50" cy="50" r="50" fill="#37358F"/>
<ellipse cx="34.0286" cy="57.5975" rx="6.45832" ry="6.45831" fill="#0EF169"/>
<rect x="37.8906" y="27.4595" width="22.8194" height="11.1944" fill="#0EF169"/>
<rect x="57.6953" y="51.1392" width="17.6527" height="22.3888" fill="#0EF169"/>
<path d="M33.8409 73.6113C29.8076 73.6113 26.2107 71.5813 24.1094 68.3789C25.1377 72.808 29.0991 76.1113 33.8409 76.1113C38.5827 76.1113 42.544 72.808 43.5724 68.3789C41.4709 71.5813 37.8742 73.6113 33.8409 73.6113Z" fill="#001035"/>
<path d="M33.8328 69.4427C29.7662 69.4427 26.1831 67.3477 24.0938 64.1836C25.113 68.6261 29.0822 71.9427 33.8328 71.9427C38.5835 71.9427 42.5528 68.626 43.5719 64.1836C41.4827 67.3478 37.8995 69.4427 33.8328 69.4427Z" fill="#001035"/>
<path d="M33.8674 48.0752C28.3645 48.0752 23.8828 52.5569 23.8828 58.0598C23.8828 63.5626 28.3645 68.0443 33.8674 68.0443C39.3703 68.0443 43.8519 63.5626 43.8519 58.0598C43.8519 52.5569 39.3703 48.0752 33.8674 48.0752ZM34.4347 61.6905V63.052H32.9597V61.7473C32.2789 61.6905 31.5982 61.4636 31.1443 61.1233L30.9741 61.0098L31.4847 59.5348L31.8251 59.7617C32.2789 60.0454 32.9029 60.2723 33.4703 60.2723C34.1511 60.2723 34.6617 59.9319 34.6617 59.3646C34.6617 59.0242 34.4915 58.6271 33.4136 58.1732C32.279 57.7194 31.1444 57.0954 31.1444 55.6771C31.1444 54.5425 31.8819 53.6916 33.0732 53.3511V52.0464H34.5482V53.2944C35.1155 53.3512 35.5693 53.5213 36.0232 53.7483L36.2501 53.9185L35.6828 55.3935L35.3424 55.2233C35.1155 55.1098 34.6617 54.8261 33.9241 54.8261C33.1866 54.8261 32.903 55.2233 32.903 55.5637C32.903 55.9608 33.0732 56.1877 34.2645 56.6983C35.2857 57.0954 36.4203 57.7761 36.4203 59.3079C36.4203 60.4425 35.626 61.4069 34.4347 61.6905Z" fill="#001035"/>
<path d="M61.3437 24.4448H38.0104C37.0896 24.4448 36.3438 25.1906 36.3438 26.1115V39.4448C36.3438 40.3656 37.0896 41.1114 38.0104 41.1114H61.3437C62.2645 41.1114 63.0103 40.3656 63.0103 39.4448V26.1115C63.0103 25.1906 62.2645 24.4448 61.3437 24.4448ZM41.3437 36.9448H39.6771V35.2781H41.3437V36.9448ZM44.6771 36.9448H43.0104V35.2781H44.6771V36.9448ZM45.5104 31.9448C45.5104 32.4049 45.1371 32.7781 44.6771 32.7781H41.3437C40.8836 32.7781 40.5104 32.4049 40.5104 31.9448V30.2781C40.5104 29.8181 40.8837 29.4448 41.3437 29.4448H44.6771C45.1371 29.4448 45.5104 29.8181 45.5104 30.2781V31.9448ZM48.0104 36.9448H46.3437V35.2781H48.0104V36.9448ZM52.177 36.9448H50.5104V35.2781H52.177V36.9448ZM55.5104 36.9448H53.8437V35.2781H55.5104V36.9448ZM58.8437 36.9448H57.177V35.2781H58.8437V36.9448Z" fill="#001035"/>
<path d="M74.6927 47.7783H58.026C57.1052 47.7783 56.3594 48.5241 56.3594 49.445V74.4449C56.3594 75.3658 57.1052 76.1116 58.026 76.1116H74.6927C75.6135 76.1116 76.3593 75.3658 76.3593 74.4449V49.445C76.3593 48.5241 75.6135 47.7783 74.6927 47.7783ZM73.8593 71.9449H58.8594V51.945H73.8593V71.9449Z" fill="#001035"/>
<path d="M66.3489 56.1118C63.1273 56.1118 60.5156 58.7235 60.5156 61.9451C60.5156 65.1668 63.1273 67.7785 66.3489 67.7785C69.5706 67.7785 72.1823 65.1668 72.1823 61.9451C72.1823 58.7235 69.5706 56.1118 66.3489 56.1118ZM65.5156 64.79L63.2597 62.5341L64.438 61.3558L65.5156 62.4334L68.2597 59.6893L69.438 60.8676L65.5156 64.79Z" fill="#001035"/>
<path d="M30.2224 45.6116L28.6016 45.2224C28.7257 44.7025 28.8733 44.1757 29.0382 43.6575L30.6265 44.1634C30.4732 44.6441 30.3373 45.1308 30.2224 45.6116ZM31.1382 42.7542L29.5932 42.1274C29.7949 41.6307 30.0199 41.1325 30.2623 40.645L31.7548 41.3858C31.5316 41.8358 31.3239 42.2965 31.1382 42.7542ZM32.4748 40.0667L31.0424 39.2158C31.3182 38.75 31.6156 38.2908 31.9266 37.8482L33.2908 38.8066C33.0049 39.214 32.7307 39.6374 32.4748 40.0666L32.4748 40.0667ZM34.1974 37.6099L32.9081 36.5534C33.2465 36.14 33.609 35.7301 33.9855 35.335L35.1915 36.4841C34.8441 36.85 34.5099 37.2283 34.1974 37.6099Z" fill="#0EF169"/>
<path d="M49.6958 71.9449C49.5342 71.9449 49.3717 71.9432 49.2108 71.9399L49.245 70.2732C49.8292 70.2857 50.42 70.2732 51 70.2366L51.1059 71.8999C50.6392 71.9291 50.1691 71.9449 49.6958 71.9449ZM47.3158 71.8166C46.6834 71.7475 46.0509 71.6499 45.4375 71.5267L45.7649 69.8925C46.3307 70.0058 46.9132 70.0958 47.4965 70.1591L47.3158 71.8166ZM52.9949 71.6958L52.7425 70.0482C53.3192 69.9598 53.8984 69.8449 54.4609 69.7065L54.8584 71.3257C54.2475 71.4765 53.6199 71.6008 52.9949 71.6958Z" fill="#0EF169"/>
<path d="M69.1491 45.6338C69.0357 45.1579 68.9033 44.6796 68.7557 44.2154L70.344 43.7112C70.5032 44.2154 70.6465 44.7329 70.7699 45.2487L69.1491 45.6338ZM68.2574 42.8296C68.0759 42.3772 67.8741 41.9246 67.6583 41.4846L69.1542 40.7504C69.3884 41.2278 69.6066 41.718 69.8033 42.2079L68.2574 42.8296ZM66.9625 40.1871C66.7184 39.7704 66.4524 39.352 66.1726 38.9454L67.5442 37.9996C67.8475 38.4404 68.1359 38.893 68.4008 39.3454L66.9625 40.1871ZM65.2923 37.7637C64.984 37.3803 64.6632 37.0095 64.3281 36.6494L65.549 35.5137C65.909 35.9012 66.2597 36.3071 66.5915 36.7187L65.2923 37.7637Z" fill="#0EF169"/>
</svg>
