<svg width="61" height="60" viewBox="0 0 61 60" fill="none" xmlns="http://www.w3.org/2000/svg">
<path d="M23.9501 36.8107C24.495 38.9026 26.3959 40.4459 28.6581 40.4459H31.3946C34.5847 40.4459 37.1716 37.859 37.1716 34.6689C37.1716 31.4788 34.5847 28.8919 31.3946 28.8919H28.9622C26.1077 28.8919 23.7932 26.5774 23.7932 23.723C23.7932 20.8685 26.1077 18.554 28.9622 18.554H31.0905C33.3369 18.554 35.2281 20.0767 35.7876 22.1467M29.8935 15.5135V18.554M29.8935 43.4865V40.8108M53 29.5C53 41.9264 42.9264 52 30.5 52C18.0736 52 8 41.9264 8 29.5C8 17.0736 18.0736 7 30.5 7C42.9264 7 53 17.0736 53 29.5Z" stroke="#A68EFF" stroke-width="1.5" stroke-miterlimit="10" stroke-linecap="round" stroke-linejoin="round"/>
</svg>
