<svg width="60" height="60" viewBox="0 0 60 60" fill="none" xmlns="http://www.w3.org/2000/svg">
<path d="M37.2037 11.185C37.2037 13.4967 39.0769 15.3721 41.3876 15.3721C43.7036 15.3721 45.5758 13.4967 45.5758 11.185C45.5758 8.87535 43.7036 7 41.3876 7C39.0769 7 37.2037 8.87535 37.2037 11.185ZM40.3432 38.3953C40.3432 37.7852 40.0774 37.24 39.6609 36.858L39.6525 36.835L33.9993 31.8233L38.8865 22.1598L38.8802 22.1399C39.1376 21.6847 39.2967 21.1656 39.2967 20.6047C39.2967 19.3153 38.5181 18.2102 37.4067 17.7267L37.4046 17.7205L34.781 16.2606L26.2362 14.3957L26.2143 14.3988C26.0458 14.3559 25.8731 14.3256 25.692 14.3256C25.2787 14.3256 24.8967 14.4491 24.5723 14.6563L24.5262 14.6636L17.2749 19.8669L17.2791 19.8721C16.6774 20.2394 16.2734 20.8956 16.2734 21.6512C16.2734 22.8076 17.2101 23.7442 18.3665 23.7442C18.8803 23.7442 19.3449 23.5516 19.7091 23.244L19.7133 23.2502L25.9861 18.7398L30.6002 20.2049L25.4367 28.6209L25.4398 28.6324C24.9448 29.321 24.6455 30.1583 24.6455 31.0698C24.6455 32.6856 25.5706 34.0701 26.9102 34.7681L26.9133 34.7807L34.8522 39.6784L33.0668 48.8709H33.0689C33.0365 49.0373 33.0176 49.2079 33.0176 49.3837C33.0176 50.829 34.1887 52 35.6339 52C36.9138 52 37.975 51.0801 38.202 49.8662H38.2041L40.3254 38.6988L40.316 38.6727C40.3275 38.5806 40.3432 38.4906 40.3432 38.3953Z" stroke="#0EF169" stroke-width="1.2" stroke-miterlimit="10"/>
<path d="M24.4377 31.4916L20.7184 37.3489H12.6163C11.171 37.3489 10 38.52 10 39.9652C10 41.4104 11.171 42.5815 12.6163 42.5815H21.4405C22.7978 42.5815 24.0714 41.9232 24.8563 40.816L28.3883 35.8304M37.1434 25.7232L39.4917 30.9014L39.5043 30.9097C39.8392 31.6203 40.5571 32.1164 41.3953 32.1164H48.7209C49.8773 32.1164 50.814 31.1797 50.814 30.0233C50.814 28.8669 49.8773 27.9303 48.7209 27.9303H42.4419L39.3191 20.4907" stroke="#0EF169" stroke-width="1.2" stroke-miterlimit="10"/>
</svg>
