<svg width="61" height="60" viewBox="0 0 61 60" fill="none" xmlns="http://www.w3.org/2000/svg">
<path d="M29.9091 37.6364C28.3901 37.6364 26.9334 37.033 25.8593 35.9589C24.7852 34.8848 24.1818 33.4281 24.1818 31.9091C24.1818 30.3901 24.7852 28.9334 25.8593 27.8593C26.9334 26.7852 28.3901 26.1818 29.9091 26.1818C31.4281 26.1818 32.8848 26.7852 33.9589 27.8593C35.033 28.9334 35.6364 30.3901 35.6364 31.9091C35.6364 33.4281 35.033 34.8848 33.9589 35.9589C32.8848 37.033 31.4281 37.6364 29.9091 37.6364ZM29.9091 37.6364C34.1091 37.6364 37.5455 41.0727 37.5455 45.2727C37.5455 46.1318 37.5455 49.5682 37.5455 49.5682C37.5455 49.5682 35.6364 51 29.9091 51C24.1818 51 22.2727 49.5682 22.2727 49.5682C22.2727 49.5682 22.2727 46.1318 22.2727 45.2727C22.2727 41.0727 25.7091 37.6364 29.9091 37.6364ZM45.1818 31.9091C43.6629 31.9091 42.2061 31.3057 41.132 30.2316C40.058 29.1575 39.4545 27.7008 39.4545 26.1818C39.4545 24.6629 40.058 23.2061 41.132 22.132C42.2061 21.058 43.6629 20.4545 45.1818 20.4545C46.7008 20.4545 48.1575 21.058 49.2316 22.132C50.3057 23.2061 50.9091 24.6629 50.9091 26.1818C50.9091 27.7008 50.3057 29.1575 49.2316 30.2316C48.1575 31.3057 46.7008 31.9091 45.1818 31.9091ZM45.1818 31.9091C49.3818 31.9091 52.8182 35.3455 52.8182 39.5455C52.8182 40.4045 52.8182 43.8409 52.8182 43.8409C52.8182 43.8409 50.9091 45.2727 45.1818 45.2727C39.4545 45.2727 37.5455 43.8409 37.5455 43.8409C37.5455 43.8409 37.5455 40.4045 37.5455 39.5455C37.5455 35.3455 40.9818 31.9091 45.1818 31.9091ZM14.6364 31.9091C13.1174 31.9091 11.6606 31.3057 10.5866 30.2316C9.5125 29.1575 8.90909 27.7008 8.90909 26.1818C8.90909 24.6629 9.5125 23.2061 10.5866 22.132C11.6606 21.058 13.1174 20.4545 14.6364 20.4545C16.1553 20.4545 17.6121 21.058 18.6862 22.132C19.7602 23.2061 20.3636 24.6629 20.3636 26.1818C20.3636 27.7008 19.7602 29.1575 18.6862 30.2316C17.6121 31.3057 16.1553 31.9091 14.6364 31.9091ZM14.6364 31.9091C18.8364 31.9091 22.2727 35.3455 22.2727 39.5455C22.2727 40.4045 22.2727 43.8409 22.2727 43.8409C22.2727 43.8409 20.3636 45.2727 14.6364 45.2727C8.90909 45.2727 7 43.8409 7 43.8409C7 43.8409 7 40.4045 7 39.5455C7 35.3455 10.4364 31.9091 14.6364 31.9091ZM28.9602 25.9909C28.9602 25.9909 28.9602 25.5136 28.9602 25.2273C28.9602 21.5045 26.0011 18.5455 22.2784 18.5455C20.1784 18.5455 18.3648 19.5 17.1239 21.0273M37.3602 18.5455C36.0944 18.5455 34.8805 18.0426 33.9854 17.1476C33.0903 16.2525 32.5875 15.0385 32.5875 13.7727C32.5875 12.5069 33.0903 11.293 33.9854 10.3979C34.8805 9.50284 36.0944 9 37.3602 9C38.626 9 39.84 9.50284 40.735 10.3979C41.6301 11.293 42.1329 12.5069 42.1329 13.7727C42.1329 15.0385 41.6301 16.2525 40.735 17.1476C39.84 18.0426 38.626 18.5455 37.3602 18.5455ZM37.3602 18.5455C33.6375 18.5455 30.6784 21.5045 30.6784 25.2273C30.6784 25.5136 30.6784 25.9909 30.6784 25.9909M37.3602 18.5455C39.4602 18.5455 41.2739 19.5 42.5148 21.0273M22.2727 9C21.0069 9 19.793 9.50284 18.8979 10.3979C18.0028 11.293 17.5 12.5069 17.5 13.7727C17.5 15.0385 18.0028 16.2525 18.8979 17.1476C19.793 18.0426 21.0069 18.5455 22.2727 18.5455C23.5385 18.5455 24.7525 18.0426 25.6476 17.1476C26.5426 16.2525 27.0455 15.0385 27.0455 13.7727C27.0455 12.5069 26.5426 11.293 25.6476 10.3979C24.7525 9.50284 23.5385 9 22.2727 9Z" stroke="#A68EFF" stroke-width="1.5" stroke-miterlimit="10" stroke-linecap="round" stroke-linejoin="round"/>
</svg>
