<svg width="60" height="60" viewBox="0 0 60 60" fill="none" xmlns="http://www.w3.org/2000/svg">
<path d="M7 42.742L17.394 42.1508C24.2438 42.1508 24.9257 39.2369 28.277 36.387C28.277 36.387 31.7821 35.2456 34.2013 33.5351C36.6205 31.8255 37.3015 29.3137 35.9415 27.5182C34.5795 25.7226 31.7802 26.9079 29.2149 28.2775L20.3996 32.3365M22.3738 18.5558C19.7072 16.8758 18.4933 18.8576 16.7283 20.3399C14.9156 21.8613 7 27.4609 7 27.4609M35.3073 37.1606C35.3073 37.1606 35.0647 38.4384 34.953 39.5263C34.8279 40.7402 34.8145 42.3265 36.0179 42.6427C36.9682 42.8919 37.9758 42.679 38.8831 41.7707C39.7178 40.9369 40.2784 39.5177 40.415 37.3239M29.6896 37.3621C29.6896 37.3621 29.5358 39.4212 29.3467 40.4651C29.128 41.6656 29.4241 43.1966 30.6743 43.6474C32.1527 44.1803 33.1393 43.805 34.2032 42.8193C34.3522 42.6818 34.9329 41.9321 34.9329 41.9321" stroke="#0EF169" stroke-width="1.5" stroke-miterlimit="10" stroke-linecap="round"/>
<path d="M23.8592 40.6705C23.7608 41.5969 24.1371 42.4708 24.8906 42.7143C26.6795 43.2921 28.0204 42.4068 28.9669 41.2817" stroke="#0EF169" stroke-width="1.5" stroke-miterlimit="10" stroke-linecap="round"/>
<path d="M27.749 37.0115H49.6373C51.4071 37.0115 52.8435 35.5636 52.8435 33.7786V19.3943C52.8435 17.6102 51.1406 16 49.3699 16C49.3699 16 28.9515 16 25.7539 16C23.6174 16 22.2812 18.1012 22.2812 19.5022V30.9249" stroke="#0EF169" stroke-width="1.5" stroke-miterlimit="10" stroke-linecap="round" stroke-linejoin="round"/>
<path d="M22.2812 19.8203H52.8435V23.6406H22.2812V19.8203Z" fill="#0EF169"/>
</svg>
