<svg width="60" height="61" viewBox="0 0 60 61" fill="none" xmlns="http://www.w3.org/2000/svg">
<path d="M23.6562 36.8178L36.3229 24.1511" stroke="#0EF169" stroke-width="2" stroke-miterlimit="10" stroke-linecap="round"/>
<path d="M30.9062 24.1511L36.3348 29.5797" stroke="#0EF169" stroke-width="2" stroke-miterlimit="10" stroke-linecap="round" stroke-linejoin="round"/>
<path d="M30.4509 22.3416C30.091 22.3416 29.7458 22.4845 29.4912 22.7391C29.2367 22.9936 29.0938 23.3388 29.0938 23.6987C29.0938 24.0586 29.2367 24.4038 29.4912 24.6583C29.7458 24.9129 30.091 25.0558 30.4509 25.0558C30.8108 25.0558 31.156 24.9129 31.4105 24.6583C31.6651 24.4038 31.808 24.0586 31.808 23.6987C31.808 23.3388 31.6651 22.9936 31.4105 22.7391C31.156 22.4845 30.8108 22.3416 30.4509 22.3416ZM36.7842 28.6749C36.4243 28.6749 36.0791 28.8179 35.8246 29.0724C35.5701 29.3269 35.4271 29.6721 35.4271 30.032C35.4271 30.392 35.5701 30.7372 35.8246 30.9917C36.0791 31.2462 36.4243 31.3892 36.7842 31.3892C37.1442 31.3892 37.4894 31.2462 37.7439 30.9917C37.9984 30.7372 38.1414 30.392 38.1414 30.032C38.1414 29.6721 37.9984 29.3269 37.7439 29.0724C37.4894 28.8179 37.1442 28.6749 36.7842 28.6749Z" fill="#0EF169"/>
<path d="M27.2812 27.77L32.7098 33.1986" stroke="#0EF169" stroke-width="2" stroke-miterlimit="10" stroke-linecap="round" stroke-linejoin="round"/>
<path d="M26.8259 25.9605C26.466 25.9605 26.1208 26.1035 25.8662 26.358C25.6117 26.6125 25.4688 26.9577 25.4688 27.3177C25.4688 27.6776 25.6117 28.0228 25.8662 28.2773C26.1208 28.5318 26.466 28.6748 26.8259 28.6748C27.1858 28.6748 27.531 28.5318 27.7855 28.2773C28.0401 28.0228 28.183 27.6776 28.183 27.3177C28.183 26.9577 28.0401 26.6125 27.7855 26.358C27.531 26.1035 27.1858 25.9605 26.8259 25.9605ZM33.1592 32.2938C32.7993 32.2938 32.4541 32.4368 32.1996 32.6913C31.9451 32.9459 31.8021 33.291 31.8021 33.651C31.8021 34.0109 31.9451 34.3561 32.1996 34.6106C32.4541 34.8651 32.7993 35.0081 33.1592 35.0081C33.5192 35.0081 33.8644 34.8651 34.1189 34.6106C34.3734 34.3561 34.5164 34.0109 34.5164 33.651C34.5164 33.291 34.3734 32.9459 34.1189 32.6913C33.8644 32.4368 33.5192 32.2938 33.1592 32.2938Z" fill="#0EF169"/>
<path d="M23.6562 31.3892L29.0848 36.8177" stroke="#0EF169" stroke-width="2" stroke-miterlimit="10" stroke-linecap="round" stroke-linejoin="round"/>
<path d="M23.2009 29.5796C22.841 29.5796 22.4958 29.7226 22.2412 29.9771C21.9867 30.2316 21.8438 30.5768 21.8438 30.9367C21.8438 31.2967 21.9867 31.6419 22.2412 31.8964C22.4958 32.1509 22.841 32.2939 23.2009 32.2939C23.5608 32.2939 23.906 32.1509 24.1605 31.8964C24.4151 31.6419 24.558 31.2967 24.558 30.9367C24.558 30.5768 24.4151 30.2316 24.1605 29.9771C23.906 29.7226 23.5608 29.5796 23.2009 29.5796ZM29.5342 35.9129C29.1743 35.9129 28.8291 36.0559 28.5746 36.3104C28.3201 36.5649 28.1771 36.9101 28.1771 37.2701C28.1771 37.63 28.3201 37.9752 28.5746 38.2297C28.8291 38.4842 29.1743 38.6272 29.5342 38.6272C29.8942 38.6272 30.2394 38.4842 30.4939 38.2297C30.7484 37.9752 30.8914 37.63 30.8914 37.2701C30.8914 36.9101 30.7484 36.5649 30.4939 36.3104C30.2394 36.0559 29.8942 35.9129 29.5342 35.9129Z" fill="#0EF169"/>
<path d="M39.423 11.4844C33.4516 11.4844 25.4761 14.0005 19.502 19.9747C10.2101 29.2684 9.25646 43.3809 13.1795 47.3039C14.5792 48.7063 17.2799 49.4844 20.5958 49.4844C26.5664 49.4844 34.5337 46.9574 40.5087 40.9832C49.8034 31.6895 50.7271 17.5508 46.8321 13.654C45.4397 12.2607 42.7417 11.4844 39.423 11.4844Z" stroke="#0EF169" stroke-width="2" stroke-miterlimit="10" stroke-linecap="round" stroke-linejoin="round"/>
</svg>
