<svg width="1318" height="98" viewBox="0 0 1318 98" fill="none" xmlns="http://www.w3.org/2000/svg">
<path d="M17.4746 77.0361L17.1779 77.1044L17.2322 77.3406H17.4746L17.4746 77.0361ZM0.316843 2.43704L0.316843 2.13255H-0.0656244L0.0201049 2.50529L0.316843 2.43704ZM19.606 2.43704L19.9049 2.37895L19.857 2.13255H19.606L19.606 2.43704ZM24.7214 28.7599L25.0205 28.7029L25.0203 28.7018L24.7214 28.7599ZM25.6805 54.6564L25.3762 54.6461L25.3655 54.9609H25.6805L25.6805 54.6564ZM32.6076 54.6564L32.6076 54.9609H32.8927L32.9114 54.6764L32.6076 54.6564ZM36.8704 29.6124L36.5783 29.5265L36.578 29.5273L36.8704 29.6124ZM44.8632 2.43704L44.8632 2.13255H44.6353L44.571 2.35112L44.8632 2.43704ZM59.4633 2.43704L59.755 2.34985L59.6901 2.13255H59.4633L59.4633 2.43704ZM67.7757 30.2518L68.0675 30.1647L68.0675 30.1647L67.7757 30.2518ZM71.932 54.6564L71.6282 54.6769L71.6474 54.9609H71.932L71.932 54.6564ZM78.859 54.6564L78.859 54.9609H79.1735L79.1634 54.6466L78.859 54.6564ZM79.605 29.3993L79.3061 29.3414L79.306 29.3418L79.605 29.3993ZM84.827 2.43704L84.827 2.13255H84.5758L84.528 2.37914L84.827 2.43704ZM104.116 2.43704L104.413 2.50488L104.498 2.13255H104.116L104.116 2.43704ZM87.0649 77.0361L87.0649 77.3406H87.3077L87.3618 77.104L87.0649 77.0361ZM66.3903 77.0361L66.098 77.1212L66.1618 77.3406H66.3903L66.3903 77.0361ZM58.8238 51.033L59.1162 50.9479L59.1162 50.9478L58.8238 51.033ZM54.561 23.2182L54.8655 23.2228L54.8702 22.9137H54.561L54.561 23.2182ZM49.7654 23.2182L49.7654 22.9137H49.4561L49.4609 23.223L49.7654 23.2182ZM45.2894 51.1396L45.582 51.2239L45.5824 51.2225L45.2894 51.1396ZM37.8295 77.0361L37.8295 77.3406H38.0587L38.1221 77.1204L37.8295 77.0361ZM17.7714 76.9679L0.613582 2.36879L0.0201049 2.50529L17.1779 77.1044L17.7714 76.9679ZM0.316843 2.74152H19.606L19.606 2.13255H0.316843L0.316843 2.74152ZM19.3071 2.49512L24.4225 28.8179L25.0203 28.7018L19.9049 2.37895L19.3071 2.49512ZM24.4223 28.8168C26.1197 37.728 25.5898 48.3464 25.3762 54.6461L25.9848 54.6667C26.1976 48.3911 26.7334 37.6955 25.0205 28.7029L24.4223 28.8168ZM25.6805 54.9609H32.6076L32.6076 54.3519H25.6805L25.6805 54.9609ZM32.9114 54.6764C33.4431 46.5945 34.719 38.0913 37.1627 29.6975L36.578 29.5273C34.1196 37.9716 32.8378 46.5197 32.3038 54.6364L32.9114 54.6764ZM37.1625 29.6983L45.1553 2.52295L44.571 2.35112L36.5783 29.5265L37.1625 29.6983ZM44.8632 2.74152H59.4633L59.4633 2.13255H44.8632L44.8632 2.74152ZM59.1715 2.52422L67.484 30.339L68.0675 30.1647L59.755 2.34985L59.1715 2.52422ZM67.484 30.339C69.9267 38.5169 71.0963 46.8057 71.6282 54.6769L72.2358 54.6359C71.7019 46.7348 70.527 38.3986 68.0675 30.1647L67.484 30.339ZM71.932 54.9609H78.859L78.859 54.3519H71.932L71.932 54.9609ZM79.1634 54.6466C78.9496 48.0203 78.3136 37.727 79.904 29.4568L79.306 29.3418C77.6993 37.6965 78.3422 48.0778 78.5547 54.6662L79.1634 54.6466ZM79.904 29.4572L85.1259 2.49493L84.528 2.37914L79.3061 29.3414L79.904 29.4572ZM84.827 2.74152H104.116L104.116 2.13255H84.827L84.827 2.74152ZM103.819 2.36919L86.7681 76.9683L87.3618 77.104L104.413 2.50488L103.819 2.36919ZM87.0649 76.7316H66.3903L66.3903 77.3406H87.0649L87.0649 76.7316ZM66.6827 76.9511L59.1162 50.9479L58.5315 51.1181L66.098 77.1212L66.6827 76.9511ZM59.1162 50.9478C56.1393 40.7414 54.7595 30.2214 54.8655 23.2228L54.2566 23.2136C54.1495 30.2823 55.5405 40.8632 58.5315 51.1183L59.1162 50.9478ZM54.561 22.9137H49.7654L49.7654 23.5227H54.561L54.561 22.9137ZM49.4609 23.223C49.5669 30.0048 48.1884 39.7785 44.9965 51.0567L45.5824 51.2225C48.7847 39.9078 50.177 30.0726 50.0698 23.2135L49.4609 23.223ZM44.9968 51.0553L37.5369 76.9518L38.1221 77.1204L45.582 51.2239L44.9968 51.0553ZM37.8295 76.7316H17.4746L17.4746 77.3406H37.8295L37.8295 76.7316ZM109.809 77.0361H109.505L109.505 77.3406H109.809L109.809 77.0361ZM109.809 2.43704L109.809 2.13255H109.505L109.505 2.43704H109.809ZM128.459 2.43704H128.764L128.764 2.13255H128.459L128.459 2.43704ZM128.459 30.3584H128.155L128.155 30.6629H128.459L128.459 30.3584ZM154.782 30.3584L154.782 30.6629H155.086L155.086 30.3584H154.782ZM154.782 2.43704L154.782 2.13255H154.477L154.477 2.43704H154.782ZM173.538 2.43704H173.843L173.843 2.13255H173.538L173.538 2.43704ZM173.538 77.0361L173.538 77.3406H173.843L173.843 77.0361H173.538ZM154.782 77.0361H154.477L154.477 77.3406H154.782L154.782 77.0361ZM154.782 47.7293H155.086L155.086 47.4249H154.782L154.782 47.7293ZM128.459 47.7293L128.459 47.4249H128.155L128.155 47.7293H128.459ZM128.459 77.0361L128.459 77.3406H128.764L128.764 77.0361H128.459ZM110.114 77.0361L110.114 2.43704H109.505L109.505 77.0361H110.114ZM109.809 2.74152H128.459L128.459 2.13255H109.809L109.809 2.74152ZM128.155 2.43704L128.155 30.3584H128.764L128.764 2.43704H128.155ZM128.459 30.6629H154.782L154.782 30.0539H128.459L128.459 30.6629ZM155.086 30.3584L155.086 2.43704H154.477L154.477 30.3584H155.086ZM154.782 2.74152H173.538L173.538 2.13255H154.782L154.782 2.74152ZM173.234 2.43704L173.234 77.0361H173.843L173.843 2.43704H173.234ZM173.538 76.7316H154.782L154.782 77.3406H173.538L173.538 76.7316ZM155.086 77.0361L155.086 47.7293H154.477L154.477 77.0361H155.086ZM154.782 47.4249H128.459L128.459 48.0338H154.782L154.782 47.4249ZM128.155 47.7293L128.155 77.0361H128.764L128.764 47.7293H128.155ZM128.459 76.7316H109.809L109.809 77.3406H128.459L128.459 76.7316ZM256.111 77.0361L256.111 77.3406H256.55L256.396 76.9294L256.111 77.0361ZM236.822 77.0361L236.534 77.1357L236.605 77.3406H236.822L236.822 77.0361ZM232.985 65.9528L233.273 65.8532L233.202 65.6484H232.985L232.985 65.9528ZM202.186 65.9528L202.186 65.6484H201.97L201.899 65.8532L202.186 65.9528ZM198.35 77.0361L198.35 77.3406H198.567L198.638 77.1357L198.35 77.0361ZM178.954 77.0361L178.669 76.9294L178.515 77.3406H178.954L178.954 77.0361ZM206.876 2.43704L206.876 2.13255H206.664L206.59 2.3303L206.876 2.43704ZM228.19 2.43704L228.475 2.3303L228.401 2.13255H228.19L228.19 2.43704ZM210.712 41.3351L210.999 41.4357L211 41.4329L210.712 41.3351ZM207.728 49.8607L207.441 49.7602L207.299 50.1652H207.728L207.728 49.8607ZM227.444 49.8607L227.444 50.1652H227.873L227.731 49.7602L227.444 49.8607ZM224.46 41.3351L224.171 41.4329L224.172 41.4357L224.46 41.3351ZM220.836 21.6197L221.14 21.5958L221.118 21.3152H220.836L220.836 21.6197ZM214.335 21.6197L214.335 21.3152H214.054L214.032 21.5958L214.335 21.6197ZM256.111 76.7316H236.822L236.822 77.3406H256.111L256.111 76.7316ZM237.109 76.9365L233.273 65.8532L232.697 66.0524L236.534 77.1357L237.109 76.9365ZM232.985 65.6484H202.186L202.186 66.2573H232.985L232.985 65.6484ZM201.899 65.8532L198.062 76.9365L198.638 77.1357L202.474 66.0524L201.899 65.8532ZM198.35 76.7316H178.954L178.954 77.3406H198.35L198.35 76.7316ZM179.239 77.1429L207.161 2.54377L206.59 2.3303L178.669 76.9294L179.239 77.1429ZM206.876 2.74152H228.19L228.19 2.13255H206.876L206.876 2.74152ZM227.904 2.54377L255.826 77.1429L256.396 76.9294L228.475 2.3303L227.904 2.54377ZM210.425 41.2346L207.441 49.7602L208.016 49.9613L210.999 41.4357L210.425 41.2346ZM207.728 50.1652H227.444L227.444 49.5563H207.728L207.728 50.1652ZM227.731 49.7602L224.747 41.2346L224.172 41.4357L227.156 49.9613L227.731 49.7602ZM224.748 41.2374C222.627 34.9808 221.884 31.0642 221.14 21.5958L220.533 21.6435C221.28 31.1446 222.029 35.1142 224.171 41.4329L224.748 41.2374ZM220.836 21.3152H214.335L214.335 21.9241H220.836L220.836 21.3152ZM214.032 21.5958C213.287 31.0642 212.545 34.9808 210.424 41.2374L211 41.4329C213.142 35.1142 213.892 31.1446 214.639 21.6435L214.032 21.5958ZM248.576 2.43704L248.576 2.13255H248.272L248.272 2.43704H248.576ZM313.584 2.43704H313.888L313.888 2.13255H313.584L313.584 2.43704ZM313.584 18.9554L313.584 19.2599H313.888L313.888 18.9554H313.584ZM290.352 18.9554L290.352 18.6509H290.047L290.047 18.9554H290.352ZM290.352 77.0361L290.352 77.3406H290.656L290.656 77.0361H290.352ZM271.702 77.0361H271.397L271.397 77.3406H271.702L271.702 77.0361ZM271.702 18.9554H272.006L272.006 18.6509H271.702L271.702 18.9554ZM248.576 18.9554H248.272L248.272 19.2599H248.576L248.576 18.9554ZM248.576 2.74152H313.584L313.584 2.13255H248.576L248.576 2.74152ZM313.279 2.43704L313.279 18.9554H313.888L313.888 2.43704H313.279ZM313.584 18.6509H290.352L290.352 19.2599H313.584L313.584 18.6509ZM290.047 18.9554L290.047 77.0361H290.656L290.656 18.9554H290.047ZM290.352 76.7316H271.702L271.702 77.3406H290.352L290.352 76.7316ZM272.006 77.0361L272.006 18.9554H271.397L271.397 77.0361H272.006ZM271.702 18.6509H248.576L248.576 19.2599H271.702L271.702 18.6509ZM248.881 18.9554L248.881 2.43704H248.272L248.272 18.9554H248.881ZM363.751 77.0361L363.751 77.3406H364.055L364.055 77.0361H363.751ZM345.954 77.0361H345.649L345.649 77.3406H345.954L345.954 77.0361ZM345.954 2.43704L345.954 2.13255H345.649L345.649 2.43704H345.954ZM375.58 2.43704L375.876 2.36395L375.819 2.13255H375.58L375.58 2.43704ZM382.827 31.7438L383.123 31.6717L383.123 31.6707L382.827 31.7438ZM385.172 51.6724L384.867 51.6835L384.878 51.9769H385.172L385.172 51.6724ZM390.607 51.6724L390.607 51.9769H390.9L390.911 51.6833L390.607 51.6724ZM392.951 31.7438L392.656 31.6707L392.656 31.6708L392.951 31.7438ZM400.198 2.43704L400.198 2.13255H399.96L399.902 2.36395L400.198 2.43704ZM429.824 2.43704H430.129L430.129 2.13255H429.824L429.824 2.43704ZM429.824 77.0361L429.824 77.3406H430.129L430.129 77.0361H429.824ZM412.027 77.0361H411.723L411.723 77.3406H412.027L412.027 77.0361ZM418.848 21.8328L419.141 21.9134L419.222 21.6213L418.93 21.5396L418.848 21.8328ZM410.855 19.5948L410.937 19.3016L410.642 19.219L410.561 19.5147L410.855 19.5948ZM395.189 77.0361L395.189 77.3406H395.422L395.483 77.1162L395.189 77.0361ZM380.589 77.0361L380.295 77.1162L380.356 77.3406H380.589L380.589 77.0361ZM364.923 19.5948L365.217 19.5147L365.136 19.219L364.841 19.3016L364.923 19.5948ZM356.93 21.8328L356.848 21.5396L356.557 21.6213L356.637 21.9134L356.93 21.8328ZM363.751 76.7316H345.954L345.954 77.3406H363.751L363.751 76.7316ZM346.258 77.0361L346.258 2.43704H345.649L345.649 77.0361H346.258ZM345.954 2.74152H375.58L375.58 2.13255H345.954L345.954 2.74152ZM375.285 2.51013L382.531 31.8169L383.123 31.6707L375.876 2.36395L375.285 2.51013ZM382.531 31.816C384.654 40.5208 384.654 45.8202 384.867 51.6835L385.476 51.6614C385.263 45.802 385.263 40.4444 383.123 31.6717L382.531 31.816ZM385.172 51.9769H390.607L390.607 51.368H385.172L385.172 51.9769ZM390.911 51.6833C391.124 45.7116 391.017 40.8401 393.247 31.8169L392.656 31.6708C390.409 40.7645 390.515 45.6974 390.302 51.6616L390.911 51.6833ZM393.247 31.8169L400.494 2.51013L399.902 2.36395L392.656 31.6707L393.247 31.8169ZM400.198 2.74152H429.824L429.824 2.13255H400.198L400.198 2.74152ZM429.52 2.43704L429.52 77.0361H430.129L430.129 2.43704H429.52ZM429.824 76.7316H412.027L412.027 77.3406H429.824L429.824 76.7316ZM412.332 77.0361L412.332 60.5178H411.723L411.723 77.0361H412.332ZM412.332 60.5178C412.332 49.4754 413.495 42.4729 419.141 21.9134L418.554 21.7522C412.904 42.3288 411.723 49.3935 411.723 60.5178H412.332ZM418.93 21.5396L410.937 19.3016L410.773 19.888L418.766 22.126L418.93 21.5396ZM410.561 19.5147L394.895 76.956L395.483 77.1162L411.149 19.6749L410.561 19.5147ZM395.189 76.7316H380.589L380.589 77.3406H395.189L395.189 76.7316ZM380.883 76.956L365.217 19.5147L364.629 19.6749L380.295 77.1162L380.883 76.956ZM364.841 19.3016L356.848 21.5396L357.013 22.126L365.005 19.888L364.841 19.3016ZM356.637 21.9134C362.283 42.4729 363.446 49.4754 363.446 60.5178H364.055C364.055 49.3935 362.875 42.3288 357.224 21.7522L356.637 21.9134ZM363.446 60.5178L363.446 77.0361H364.055L364.055 60.5178H363.446ZM512.445 77.0361L512.445 77.3406H512.884L512.731 76.9294L512.445 77.0361ZM493.156 77.0361L492.868 77.1357L492.939 77.3406H493.156L493.156 77.0361ZM489.32 65.9528L489.607 65.8532L489.537 65.6484H489.32L489.32 65.9528ZM458.521 65.9528L458.521 65.6484H458.304L458.233 65.8532L458.521 65.9528ZM454.684 77.0361L454.684 77.3406H454.901L454.972 77.1357L454.684 77.0361ZM435.289 77.0361L435.003 76.9294L434.85 77.3406H435.289L435.289 77.0361ZM463.21 2.43704L463.21 2.13255H462.999L462.925 2.3303L463.21 2.43704ZM484.524 2.43704L484.809 2.3303L484.735 2.13255H484.524L484.524 2.43704ZM467.047 41.3351L467.334 41.4357L467.335 41.4329L467.047 41.3351ZM464.063 49.8607L463.775 49.7602L463.633 50.1652H464.063L464.063 49.8607ZM483.778 49.8607L483.778 50.1652H484.207L484.065 49.7602L483.778 49.8607ZM480.794 41.3351L480.506 41.4329L480.507 41.4357L480.794 41.3351ZM477.171 21.6197L477.474 21.5958L477.452 21.3152H477.171L477.171 21.6197ZM470.67 21.6197L470.67 21.3152H470.388L470.366 21.5958L470.67 21.6197ZM512.445 76.7316H493.156L493.156 77.3406H512.445L512.445 76.7316ZM493.444 76.9365L489.607 65.8532L489.032 66.0524L492.868 77.1357L493.444 76.9365ZM489.32 65.6484H458.521L458.521 66.2573H489.32L489.32 65.6484ZM458.233 65.8532L454.397 76.9365L454.972 77.1357L458.809 66.0524L458.233 65.8532ZM454.684 76.7316H435.289L435.289 77.3406H454.684L454.684 76.7316ZM435.574 77.1429L463.495 2.54377L462.925 2.3303L435.003 76.9294L435.574 77.1429ZM463.21 2.74152H484.524L484.524 2.13255H463.21L463.21 2.74152ZM484.239 2.54377L512.16 77.1429L512.731 76.9294L484.809 2.3303L484.239 2.54377ZM466.759 41.2346L463.775 49.7602L464.35 49.9613L467.334 41.4357L466.759 41.2346ZM464.063 50.1652H483.778L483.778 49.5563H464.063L464.063 50.1652ZM484.065 49.7602L481.081 41.2346L480.507 41.4357L483.491 49.9613L484.065 49.7602ZM481.082 41.2374C478.962 34.9808 478.219 31.0642 477.474 21.5958L476.867 21.6435C477.614 31.1446 478.364 35.1142 480.506 41.4329L481.082 41.2374ZM477.171 21.3152H470.67L470.67 21.9241H477.171L477.171 21.3152ZM470.366 21.5958C469.622 31.0642 468.879 34.9808 466.758 41.2374L467.335 41.4329C469.477 35.1142 470.226 31.1446 470.973 21.6435L470.366 21.5958ZM517.935 77.0361H517.631L517.631 77.3406H517.935L517.935 77.0361ZM517.935 2.43704L517.935 2.13255H517.631L517.631 2.43704H517.935ZM536.585 2.43704H536.89L536.89 2.13255H536.585L536.585 2.43704ZM530.298 31.957L530.066 31.7598L529.879 31.9793L530.088 32.1777L530.298 31.957ZM534.56 36.0066L534.351 36.2274L534.583 36.4481L534.792 36.2048L534.56 36.0066ZM563.334 2.43704L563.334 2.13255H563.194L563.103 2.23888L563.334 2.43704ZM585.607 2.43704L585.838 2.63634L586.274 2.13255H585.607L585.607 2.43704ZM558.112 34.1949L557.882 33.9956L557.732 34.169L557.857 34.3612L558.112 34.1949ZM586.034 77.0361L586.034 77.3406H586.596L586.289 76.8699L586.034 77.0361ZM563.761 77.0361L563.503 77.1983L563.592 77.3406H563.761L563.761 77.0361ZM545.111 47.4096L545.369 47.2474L545.279 47.1051H545.111L545.111 47.4096ZM544.898 47.4096L544.898 47.1051H544.749L544.658 47.2224L544.898 47.4096ZM536.585 58.0666L536.345 57.8794L536.281 57.9619L536.281 58.0666H536.585ZM536.585 77.0361L536.585 77.3406H536.89L536.89 77.0361H536.585ZM518.24 77.0361L518.24 2.43704H517.631L517.631 77.0361H518.24ZM517.935 2.74152H536.585L536.585 2.13255H517.935L517.935 2.74152ZM536.281 2.43704L536.281 12.3481H536.89L536.89 2.43704H536.281ZM536.281 12.3481C536.281 17.034 536.067 20.2986 535.188 23.1828C534.312 26.059 532.768 28.5802 530.066 31.7598L530.53 32.1542C533.262 28.9395 534.862 26.3453 535.771 23.3602C536.678 20.3831 536.89 17.0403 536.89 12.3481H536.281ZM530.088 32.1777L534.351 36.2274L534.77 35.7859L530.507 31.7362L530.088 32.1777ZM534.792 36.2048L563.566 2.63519L563.103 2.23888L534.329 35.8085L534.792 36.2048ZM563.334 2.74152H585.607L585.607 2.13255H563.334L563.334 2.74152ZM585.377 2.23774L557.882 33.9956L558.343 34.3942L585.838 2.63634L585.377 2.23774ZM557.857 34.3612L585.779 77.2024L586.289 76.8699L558.367 34.0287L557.857 34.3612ZM586.034 76.7316H563.761L563.761 77.3406H586.034L586.034 76.7316ZM564.018 76.8739L545.369 47.2474L544.853 47.5718L563.503 77.1983L564.018 76.8739ZM545.111 47.1051H544.898L544.898 47.7141H545.111L545.111 47.1051ZM544.658 47.2224L536.345 57.8794L536.825 58.2539L545.138 47.5969L544.658 47.2224ZM536.281 58.0666L536.281 77.0361H536.89L536.89 58.0666H536.281ZM536.585 76.7316H517.935L517.935 77.3406H536.585L536.585 76.7316ZM609.411 46.8768L609.411 46.5723H609.106L609.106 46.8768H609.411ZM609.411 60.5178H609.106L609.106 60.8222H609.411L609.411 60.5178ZM645.432 60.5178H645.736L645.736 60.2133H645.432L645.432 60.5178ZM645.432 77.0361L645.432 77.3406H645.736L645.736 77.0361H645.432ZM590.761 77.0361H590.457L590.457 77.3406H590.761L590.761 77.0361ZM590.761 2.43704L590.761 2.13255H590.457L590.457 2.43704H590.761ZM645.325 2.43704H645.63L645.63 2.13255H645.325L645.325 2.43704ZM645.325 18.9554L645.325 19.2599H645.63L645.63 18.9554H645.325ZM609.411 18.9554L609.411 18.6509H609.106L609.106 18.9554H609.411ZM609.411 31.6373H609.106L609.106 31.9417H609.411L609.411 31.6373ZM642.021 31.6373H642.326L642.326 31.3328H642.021L642.021 31.6373ZM642.021 46.8768L642.021 47.1813H642.326L642.326 46.8768H642.021ZM609.106 46.8768L609.106 60.5178H609.715L609.715 46.8768H609.106ZM609.411 60.8222H645.432L645.432 60.2133H609.411L609.411 60.8222ZM645.127 60.5178L645.127 77.0361H645.736L645.736 60.5178H645.127ZM645.432 76.7316H590.761L590.761 77.3406H645.432L645.432 76.7316ZM591.066 77.0361L591.066 2.43704H590.457L590.457 77.0361H591.066ZM590.761 2.74152H645.325L645.325 2.13255H590.761L590.761 2.74152ZM645.021 2.43704L645.021 18.9554H645.63L645.63 2.43704H645.021ZM645.325 18.6509H609.411L609.411 19.2599H645.325L645.325 18.6509ZM609.106 18.9554L609.106 31.6373H609.715L609.715 18.9554H609.106ZM609.411 31.9417H642.021L642.021 31.3328H609.411L609.411 31.9417ZM641.717 31.6373L641.717 46.8768H642.326L642.326 31.6373H641.717ZM642.021 46.5723H609.411L609.411 47.1813H642.021L642.021 46.5723ZM650.709 54.1236L650.651 53.8245L650.387 53.8752L650.405 54.1431L650.709 54.1236ZM667.333 50.9265L667.637 50.9028L667.611 50.5631L667.276 50.6274L667.333 50.9265ZM679.802 46.9834L679.848 46.6823L679.847 46.6823L679.802 46.9834ZM713.905 22.6854L713.972 22.9822L714.231 22.9231L714.208 22.6587L713.905 22.6854ZM696.64 26.6285L696.341 26.6833L696.398 26.9961L696.708 26.9253L696.64 26.6285ZM691.738 31.6373L691.788 31.3368L691.785 31.3364L691.738 31.6373ZM650.766 54.4226L667.391 51.2255L667.276 50.6274L650.651 53.8245L650.766 54.4226ZM667.03 50.9501C667.356 55.1357 669.182 58.3883 672.12 60.5883C675.051 62.783 679.064 63.9128 683.745 63.9128L683.745 63.3038C679.155 63.3038 675.282 62.1956 672.485 60.1009C669.695 58.0114 667.95 54.9231 667.637 50.9028L667.03 50.9501ZM683.745 63.9128C687.191 63.9128 690.082 63.2139 692.122 61.8358C694.175 60.4483 695.346 58.3831 695.346 55.7221H694.737C694.737 58.1764 693.67 60.0544 691.781 61.3312C689.877 62.6173 687.12 63.3038 683.745 63.3038L683.745 63.9128ZM695.346 55.7221C695.346 54.5138 695.133 53.4404 694.605 52.4859C694.077 51.5308 693.247 50.7188 692.053 50.0117C689.679 48.6065 685.816 47.5882 679.848 46.6823L679.756 47.2844C685.724 48.1902 689.481 49.1967 691.743 50.5357C692.866 51.2007 693.608 51.9407 694.073 52.7806C694.537 53.6211 694.737 54.5858 694.737 55.7221H695.346ZM679.847 46.6823C669.959 45.1937 663.316 42.5953 659.145 38.8441C654.989 35.1064 653.251 30.1896 653.251 23.9642H652.642C652.642 30.3141 654.421 35.4149 658.737 39.2969C663.039 43.1655 669.823 45.789 679.757 47.2844L679.847 46.6823ZM653.251 23.9642C653.251 16.54 656.169 10.7698 661.245 6.84754C666.331 2.91792 673.612 0.82326 682.36 0.82326L682.36 0.214288C673.524 0.214288 666.097 2.32915 660.873 6.36564C655.639 10.4095 652.642 16.362 652.642 23.9642H653.251ZM682.36 0.82326C700.075 0.82326 712.449 9.6135 713.601 22.7121L714.208 22.6587C713.016 9.11469 700.239 0.214288 682.36 0.214288L682.36 0.82326ZM713.837 22.3885L696.572 26.3316L696.708 26.9253L713.972 22.9822L713.837 22.3885ZM696.94 26.5736C696.236 22.7304 694.578 19.8849 692.053 18.0052C689.533 16.129 686.185 15.2407 682.147 15.2407L682.147 15.8497C686.101 15.8497 689.307 16.7198 691.689 18.4936C694.067 20.2639 695.659 22.96 696.341 26.6833L696.94 26.5736ZM682.147 15.2407C678.598 15.2407 675.892 15.9116 674.064 17.1444C672.22 18.3875 671.292 20.1881 671.292 22.3657H671.901C671.901 20.387 672.731 18.7773 674.404 17.6493C676.093 16.5109 678.661 15.8497 682.147 15.8497L682.147 15.2407ZM671.292 22.3657C671.292 23.9112 671.673 25.1678 672.497 26.2066C673.315 27.2386 674.548 28.0268 676.2 28.6831C679.489 29.991 684.566 30.8215 691.691 31.9381L691.785 31.3364C684.63 30.2151 679.635 29.3937 676.424 28.1172C674.825 27.4814 673.7 26.7443 672.974 25.8281C672.252 24.9186 671.901 23.8041 671.901 22.3657H671.292ZM691.688 31.9377C699.697 33.2635 705.137 35.8812 708.578 39.6488C712.014 43.4123 713.494 48.3649 713.494 54.4433H714.103C714.103 48.2661 712.598 43.1478 709.027 39.2382C705.461 35.3328 699.871 32.6752 691.788 31.3369L691.688 31.9377ZM713.494 54.4433C713.494 62.2364 710.313 68.3003 704.888 72.4244C699.455 76.5556 691.746 78.7565 682.68 78.7565L682.68 79.3655C691.836 79.3655 699.687 77.1437 705.257 72.9091C710.836 68.6674 714.103 62.4225 714.103 54.4433H713.494ZM682.68 78.7565C672.871 78.7565 665.192 76.2648 659.852 71.9503C654.516 67.6395 651.487 61.4873 651.012 54.104L650.405 54.1431C650.889 61.6796 653.988 67.9961 659.469 72.424C664.945 76.8483 672.772 79.3655 682.68 79.3655L682.68 78.7565ZM748.143 2.43704L748.143 2.13255H747.838L747.838 2.43704H748.143ZM766.793 2.43704H767.097L767.097 2.13255H766.793L766.793 2.43704ZM793.115 2.43704L793.115 2.13255H792.811L792.811 2.43704H793.115ZM811.765 2.43704H812.07L812.07 2.13255H811.765L811.765 2.43704ZM748.447 48.2622L748.447 2.43704H747.838L747.838 48.2622H748.447ZM748.143 2.74152H766.793L766.793 2.13255H748.143L748.143 2.74152ZM766.488 2.43704L766.488 46.8768H767.097L767.097 2.43704H766.488ZM766.488 46.8768C766.488 52.2402 767.613 56.2156 769.892 58.8519C772.18 61.4972 775.581 62.7405 780.007 62.7405L780.007 62.1315C775.695 62.1315 772.489 60.9238 770.353 58.4536C768.21 55.9746 767.097 52.1704 767.097 46.8768H766.488ZM780.007 62.7405C784.435 62.7405 787.811 61.4693 790.07 58.81C792.322 56.1606 793.42 52.1862 793.42 46.8768H792.811C792.811 52.1178 791.724 55.923 789.606 58.4157C787.497 60.8983 784.318 62.1315 780.007 62.1315L780.007 62.7405ZM793.42 46.8768L793.42 2.43704H792.811L792.811 46.8768H793.42ZM793.115 2.74152H811.765L811.765 2.13255H793.115L793.115 2.74152ZM811.461 2.43704L811.461 48.2622H812.07L812.07 2.43704H811.461ZM811.461 48.2622C811.461 58.0592 808.549 65.6714 803.188 70.8356C797.825 76.0014 789.97 78.7565 780.007 78.7565L780.007 79.3655C790.079 79.3655 798.103 76.5789 803.611 71.2742C809.119 65.9679 812.07 58.1807 812.07 48.2622H811.461ZM780.007 78.7565C770.044 78.7565 762.162 76.0014 756.772 70.8351C751.385 65.6706 748.447 58.0584 748.447 48.2622H747.838C747.838 58.1814 750.816 65.9687 756.351 71.2747C761.885 76.5789 769.935 79.3655 780.007 79.3655L780.007 78.7565ZM819.751 54.1236L819.694 53.8245L819.43 53.8752L819.447 54.1431L819.751 54.1236ZM836.376 50.9265L836.68 50.9028L836.653 50.5631L836.319 50.6274L836.376 50.9265ZM848.845 46.9834L848.891 46.6823L848.89 46.6823L848.845 46.9834ZM882.947 22.6854L883.015 22.9822L883.274 22.9231L883.251 22.6587L882.947 22.6854ZM865.683 26.6285L865.383 26.6833L865.441 26.9961L865.751 26.9253L865.683 26.6285ZM860.781 31.6373L860.83 31.3368L860.828 31.3364L860.781 31.6373ZM819.809 54.4226L836.434 51.2255L836.319 50.6274L819.694 53.8245L819.809 54.4226ZM836.073 50.9501C836.399 55.1357 838.225 58.3883 841.162 60.5883C844.093 62.783 848.106 63.9128 852.788 63.9128L852.788 63.3038C848.198 63.3038 844.325 62.1956 841.528 60.1009C838.737 58.0114 836.993 54.9231 836.68 50.9028L836.073 50.9501ZM852.788 63.9128C856.233 63.9128 859.125 63.2139 861.164 61.8358C863.218 60.4483 864.389 58.3831 864.389 55.7221H863.78C863.78 58.1764 862.713 60.0544 860.823 61.3312C858.92 62.6173 856.163 63.3038 852.788 63.3038L852.788 63.9128ZM864.389 55.7221C864.389 54.5138 864.176 53.4404 863.648 52.4859C863.12 51.5308 862.29 50.7188 861.096 50.0117C858.722 48.6065 854.859 47.5882 848.891 46.6823L848.799 47.2844C854.767 48.1902 858.523 49.1967 860.785 50.5357C861.909 51.2007 862.651 51.9407 863.115 52.7806C863.58 53.6211 863.78 54.5858 863.78 55.7221H864.389ZM848.89 46.6823C839.002 45.1937 832.358 42.5953 828.187 38.8441C824.031 35.1064 822.294 30.1896 822.294 23.9642H821.685C821.685 30.3141 823.464 35.4149 827.78 39.2969C832.082 43.1655 838.866 45.789 848.8 47.2844L848.89 46.6823ZM822.294 23.9642C822.294 16.54 825.211 10.7698 830.288 6.84754C835.374 2.91792 842.655 0.82326 851.403 0.82326L851.403 0.214288C842.566 0.214288 835.14 2.32915 829.916 6.36564C824.682 10.4095 821.685 16.362 821.685 23.9642H822.294ZM851.403 0.82326C869.118 0.82326 881.491 9.6135 882.644 22.7121L883.251 22.6587C882.059 9.11469 869.282 0.214288 851.403 0.214288L851.403 0.82326ZM882.88 22.3885L865.615 26.3316L865.751 26.9253L883.015 22.9822L882.88 22.3885ZM865.982 26.5736C865.279 22.7304 863.62 19.8849 861.096 18.0052C858.576 16.129 855.228 15.2407 851.189 15.2407L851.189 15.8497C855.144 15.8497 858.35 16.7198 860.732 18.4936C863.11 20.2639 864.702 22.96 865.383 26.6833L865.982 26.5736ZM851.189 15.2407C847.641 15.2407 844.935 15.9116 843.106 17.1444C841.263 18.3875 840.334 20.1881 840.334 22.3657H840.943C840.943 20.387 841.774 18.7773 843.447 17.6493C845.135 16.5109 847.704 15.8497 851.189 15.8497L851.189 15.2407ZM840.334 22.3657C840.334 23.9112 840.716 25.1678 841.539 26.2066C842.358 27.2386 843.591 28.0268 845.242 28.6831C848.532 29.991 853.609 30.8215 860.734 31.9381L860.828 31.3364C853.672 30.2151 848.678 29.3937 845.467 28.1172C843.868 27.4814 842.743 26.7443 842.017 25.8281C841.295 24.9186 840.943 23.8041 840.943 22.3657H840.334ZM860.731 31.9377C868.739 33.2635 874.18 35.8812 877.62 39.6488C881.057 43.4123 882.536 48.3649 882.536 54.4433H883.145C883.145 48.2661 881.64 43.1478 878.07 39.2382C874.504 35.3328 868.914 32.6752 860.83 31.3369L860.731 31.9377ZM882.536 54.4433C882.536 62.2364 879.355 68.3003 873.931 72.4244C868.497 76.5556 860.789 78.7565 851.722 78.7565L851.722 79.3655C860.879 79.3655 868.73 77.1437 874.3 72.9091C879.879 68.6674 883.145 62.4225 883.145 54.4433H882.536ZM851.722 78.7565C841.914 78.7565 834.235 76.2648 828.894 71.9503C823.559 67.6395 820.53 61.4873 820.055 54.104L819.447 54.1431C819.932 61.6796 823.031 67.9961 828.512 72.424C833.988 76.8483 841.815 79.3655 851.722 79.3655L851.722 78.7565ZM917.185 2.43704L917.185 2.13255H916.881L916.881 2.43704H917.185ZM935.835 2.43704H936.14L936.14 2.13255H935.835L935.835 2.43704ZM962.158 2.43704L962.158 2.13255H961.854L961.854 2.43704H962.158ZM980.808 2.43704H981.112L981.112 2.13255H980.808L980.808 2.43704ZM917.49 48.2622L917.49 2.43704H916.881L916.881 48.2622H917.49ZM917.185 2.74152H935.835L935.835 2.13255H917.185L917.185 2.74152ZM935.531 2.43704L935.531 46.8768H936.14L936.14 2.43704H935.531ZM935.531 46.8768C935.531 52.2402 936.656 56.2156 938.935 58.8519C941.222 61.4972 944.624 62.7405 949.05 62.7405L949.05 62.1315C944.737 62.1315 941.532 60.9238 939.396 58.4536C937.253 55.9746 936.14 52.1704 936.14 46.8768H935.531ZM949.05 62.7405C953.478 62.7405 956.853 61.4693 959.113 58.81C961.364 56.1606 962.463 52.1862 962.463 46.8768H961.854C961.854 52.1178 960.767 55.923 958.649 58.4157C956.539 60.8983 953.36 62.1315 949.05 62.1315L949.05 62.7405ZM962.463 46.8768L962.463 2.43704H961.854L961.854 46.8768H962.463ZM962.158 2.74152H980.808L980.808 2.13255H962.158L962.158 2.74152ZM980.503 2.43704L980.503 48.2622H981.112L981.112 2.43704H980.503ZM980.503 48.2622C980.503 58.0592 977.592 65.6714 972.231 70.8356C966.868 76.0014 959.013 78.7565 949.05 78.7565L949.05 79.3655C959.122 79.3655 967.146 76.5789 972.653 71.2742C978.162 65.9679 981.112 58.1807 981.112 48.2622H980.503ZM949.05 78.7565C939.087 78.7565 931.205 76.0014 925.815 70.8351C920.427 65.6706 917.49 58.0584 917.49 48.2622H916.881C916.881 58.1814 919.858 65.9687 925.394 71.2747C930.927 76.5789 938.978 79.3655 949.05 79.3655L949.05 78.7565ZM992.098 77.0361H991.793L991.793 77.3406H992.098L992.098 77.0361ZM992.098 2.43704L992.098 2.13255H991.793L991.793 2.43704H992.098ZM1012.56 2.43704L1012.82 2.27512L1012.73 2.13255H1012.56L1012.56 2.43704ZM1041.33 48.2622L1041.08 48.4241L1041.16 48.5667H1041.33L1041.33 48.2622ZM1041.55 48.2622L1041.55 48.5667H1041.85L1041.85 48.2622H1041.55ZM1041.55 2.43704L1041.55 2.13255H1041.24L1041.24 2.43704H1041.55ZM1060.2 2.43704H1060.5L1060.5 2.13255H1060.2L1060.2 2.43704ZM1060.2 77.0361L1060.2 77.3406H1060.5L1060.5 77.0361H1060.2ZM1039.73 77.0361L1039.48 77.2005L1039.57 77.3406H1039.73L1039.73 77.0361ZM1010.96 32.1701L1011.22 32.0057L1011.13 31.8656H1010.96L1010.96 32.1701ZM1010.75 32.1701L1010.75 31.8656H1010.44L1010.44 32.1701H1010.75ZM1010.75 77.0361L1010.75 77.3406H1011.05L1011.05 77.0361H1010.75ZM992.402 77.0361L992.402 2.43704H991.793L991.793 77.0361H992.402ZM992.098 2.74152H1012.56L1012.56 2.13255H992.098L992.098 2.74152ZM1012.3 2.59895L1041.08 48.4241L1041.59 48.1003L1012.82 2.27512L1012.3 2.59895ZM1041.33 48.5667H1041.55L1041.55 47.9577H1041.33L1041.33 48.5667ZM1041.85 48.2622L1041.85 2.43704H1041.24L1041.24 48.2622H1041.85ZM1041.55 2.74152H1060.2L1060.2 2.13255H1041.55L1041.55 2.74152ZM1059.89 2.43704L1059.89 77.0361H1060.5L1060.5 2.43704H1059.89ZM1060.2 76.7316H1039.73L1039.73 77.3406H1060.2L1060.2 76.7316ZM1039.99 76.8718L1011.22 32.0057L1010.7 32.3345L1039.48 77.2005L1039.99 76.8718ZM1010.96 31.8656H1010.75L1010.75 32.4746H1010.96L1010.96 31.8656ZM1010.44 32.1701L1010.44 77.0361H1011.05L1011.05 32.1701H1010.44ZM1010.75 76.7316H992.098L992.098 77.3406H1010.75L1010.75 76.7316ZM1072.86 77.0361H1072.56L1072.56 77.3406H1072.86L1072.86 77.0361ZM1072.86 2.43704L1072.86 2.13255H1072.56L1072.56 2.43704H1072.86ZM1091.51 2.43704H1091.81L1091.81 2.13255H1091.51L1091.51 2.43704ZM1091.51 77.0361L1091.51 77.3406H1091.81L1091.81 77.0361H1091.51ZM1073.16 77.0361L1073.16 2.43704H1072.56L1072.56 77.0361H1073.16ZM1072.86 2.74152H1091.51L1091.51 2.13255H1072.86L1072.86 2.74152ZM1091.21 2.43704L1091.21 77.0361H1091.81L1091.81 2.43704H1091.21ZM1091.51 76.7316H1072.86L1072.86 77.3406H1091.51L1091.51 76.7316ZM1140.58 0.412205L1140.58 0.716679L1140.58 0.716679L1140.58 0.412205ZM1152.94 71.7076L1152.9 71.4054L1152.64 71.4379L1152.64 71.7076H1152.94ZM1152.94 77.4624H1152.64L1152.64 77.7669H1152.94L1152.94 77.4624ZM1181.71 84.2829L1181.92 84.505L1182.18 84.2659L1181.91 84.0462L1181.71 84.2829ZM1167.97 97.1779L1167.84 97.4566L1168.03 97.5376L1168.17 97.4L1167.97 97.1779ZM1144.52 78.9544L1144.77 78.7763L1144.68 78.6499H1144.52L1144.52 78.9544ZM1101.88 39.9497C1101.88 28.5089 1105.69 18.7574 1112.42 11.8411C1119.15 4.92549 1128.82 0.822606 1140.58 0.716679L1140.58 0.107732C1128.67 0.214949 1118.84 4.37125 1111.99 11.4163C1105.13 18.4607 1101.27 28.3714 1101.27 39.9497H1101.88ZM1140.58 0.716679C1152.13 0.610741 1161.83 4.37066 1168.63 10.9288C1175.44 17.4864 1179.38 26.8624 1179.38 38.0315H1179.99C1179.99 26.7142 1176 17.174 1169.06 10.4902C1162.12 3.80709 1152.26 0.000532318 1140.58 0.107732L1140.58 0.716679ZM1179.38 38.0315C1179.38 57.2891 1167.66 69.6141 1152.9 71.4054L1152.98 72.0099C1168.06 70.1778 1179.99 57.5654 1179.99 38.0315H1179.38ZM1152.64 71.7076L1152.64 77.4624H1153.24L1153.24 71.7076H1152.64ZM1152.94 77.7669C1157.62 77.7669 1162.98 78.0065 1168.07 78.9738C1173.16 79.9417 1177.95 81.6337 1181.52 84.5196L1181.91 84.0462C1178.23 81.0707 1173.32 79.3525 1168.18 78.3755C1163.04 77.3979 1157.64 77.1579 1152.94 77.1579L1152.94 77.7669ZM1181.51 84.0608L1167.76 96.9558L1168.17 97.4L1181.92 84.505L1181.51 84.0608ZM1168.09 96.8992C1157.48 92.2311 1149.42 85.2313 1144.77 78.7763L1144.27 79.1325C1149 85.679 1157.14 92.7465 1167.84 97.4566L1168.09 96.8992ZM1144.52 78.6499C1144.46 78.6499 1144.04 78.6779 1143.57 78.7037C1143.09 78.7303 1142.54 78.7565 1142.18 78.7565L1142.18 79.3655C1142.56 79.3655 1143.13 79.3383 1143.61 79.3117C1143.85 79.2983 1144.07 79.285 1144.23 79.275C1144.32 79.27 1144.39 79.2659 1144.44 79.263C1144.46 79.2616 1144.48 79.2605 1144.5 79.2598C1144.52 79.2589 1144.52 79.2589 1144.52 79.2589L1144.52 78.6499ZM1142.18 78.7565C1130.09 78.7565 1120.02 74.8624 1112.97 68.078C1105.93 61.2947 1101.88 51.5993 1101.88 39.9497H1101.27C1101.27 51.7455 1105.37 61.6058 1112.55 68.5168C1119.73 75.4267 1129.96 79.3655 1142.18 79.3655L1142.18 78.7565ZM1120.13 39.63C1120.13 46.5098 1122.17 52.2882 1125.79 56.3508C1129.41 60.4167 1134.58 62.7405 1140.79 62.7405L1140.79 62.1315C1134.74 62.1315 1129.74 59.8728 1126.25 55.946C1122.75 52.0158 1120.74 46.3912 1120.74 39.63H1120.13ZM1140.79 62.7405C1147 62.7405 1152.07 60.416 1155.58 56.3611C1159.09 52.3107 1161.02 46.5595 1161.02 39.7366H1160.42C1160.42 46.4481 1158.51 52.0466 1155.12 55.9623C1151.73 59.8735 1146.84 62.1315 1140.79 62.1315L1140.79 62.7405ZM1161.02 39.7366C1161.02 33.0752 1159.17 27.3243 1155.68 23.2336C1152.18 19.1372 1147.05 16.7327 1140.58 16.7327L1140.58 17.3416C1146.89 17.3416 1151.84 19.6795 1155.21 23.6291C1158.59 27.5844 1160.42 33.1833 1160.42 39.7366H1161.02ZM1140.58 16.7327C1134.05 16.7327 1128.93 19.1641 1125.44 23.2607C1121.96 27.3513 1120.13 33.0752 1120.13 39.63H1120.74C1120.74 33.1832 1122.54 27.6108 1125.9 23.6553C1129.26 19.7058 1134.21 17.3416 1140.58 17.3416L1140.58 16.7327ZM1188.09 2.43704L1188.09 2.13255H1187.79L1187.79 2.43704H1188.09ZM1206.74 2.43704H1207.04L1207.04 2.13255H1206.74L1206.74 2.43704ZM1233.06 2.43704L1233.06 2.13255H1232.76L1232.76 2.43704H1233.06ZM1251.71 2.43704H1252.02L1252.02 2.13255H1251.71L1251.71 2.43704ZM1188.39 48.2622L1188.39 2.43704H1187.79L1187.79 48.2622H1188.39ZM1188.09 2.74152H1206.74L1206.74 2.13255H1188.09L1188.09 2.74152ZM1206.44 2.43704L1206.44 46.8768H1207.04L1207.04 2.43704H1206.44ZM1206.44 46.8768C1206.44 52.2402 1207.56 56.2156 1209.84 58.8519C1212.13 61.4972 1215.53 62.7405 1219.95 62.7405L1219.95 62.1315C1215.64 62.1315 1212.44 60.9238 1210.3 58.4536C1208.16 55.9746 1207.04 52.1704 1207.04 46.8768H1206.44ZM1219.95 62.7405C1224.38 62.7405 1227.76 61.4693 1230.02 58.81C1232.27 56.1606 1233.37 52.1862 1233.37 46.8768H1232.76C1232.76 52.1178 1231.67 55.923 1229.55 58.4157C1227.44 60.8983 1224.27 62.1315 1219.95 62.1315L1219.95 62.7405ZM1233.37 46.8768L1233.37 2.43704H1232.76L1232.76 46.8768H1233.37ZM1233.06 2.74152H1251.71L1251.71 2.13255H1233.06L1233.06 2.74152ZM1251.41 2.43704L1251.41 48.2622H1252.02L1252.02 2.43704H1251.41ZM1251.41 48.2622C1251.41 58.0592 1248.5 65.6714 1243.14 70.8356C1237.77 76.0014 1229.92 78.7565 1219.95 78.7565L1219.95 79.3655C1230.03 79.3655 1238.05 76.5789 1243.56 71.2742C1249.07 65.9679 1252.02 58.1807 1252.02 48.2622H1251.41ZM1219.95 78.7565C1209.99 78.7565 1202.11 76.0014 1196.72 70.8351C1191.33 65.6706 1188.39 58.0584 1188.39 48.2622H1187.79C1187.79 58.1814 1190.76 65.9687 1196.3 71.2747C1201.83 76.5789 1209.88 79.3655 1219.95 79.3655L1219.95 78.7565ZM1281.65 46.8768L1281.65 46.5723H1281.35L1281.35 46.8768H1281.65ZM1281.65 60.5178H1281.35L1281.35 60.8222H1281.65L1281.65 60.5178ZM1317.67 60.5178H1317.98L1317.98 60.2133H1317.67L1317.67 60.5178ZM1317.67 77.0361L1317.67 77.3406H1317.98L1317.98 77.0361H1317.67ZM1263 77.0361H1262.7L1262.7 77.3406H1263L1263 77.0361ZM1263 2.43704L1263 2.13255H1262.7L1262.7 2.43704H1263ZM1317.57 2.43704H1317.87L1317.87 2.13255H1317.57L1317.57 2.43704ZM1317.57 18.9554L1317.57 19.2599H1317.87L1317.87 18.9554H1317.57ZM1281.65 18.9554L1281.65 18.6509H1281.35L1281.35 18.9554H1281.65ZM1281.65 31.6373H1281.35L1281.35 31.9417H1281.65L1281.65 31.6373ZM1314.26 31.6373H1314.57L1314.57 31.3328H1314.26L1314.26 31.6373ZM1314.26 46.8768L1314.26 47.1813H1314.57L1314.57 46.8768H1314.26ZM1281.35 46.8768L1281.35 60.5178H1281.96L1281.96 46.8768H1281.35ZM1281.65 60.8222H1317.67L1317.67 60.2133H1281.65L1281.65 60.8222ZM1317.37 60.5178L1317.37 77.0361H1317.98L1317.98 60.5178H1317.37ZM1317.67 76.7316H1263L1263 77.3406H1317.67L1317.67 76.7316ZM1263.31 77.0361L1263.31 2.43704H1262.7L1262.7 77.0361H1263.31ZM1263 2.74152H1317.57L1317.57 2.13255H1263L1263 2.74152ZM1317.26 2.43704L1317.26 18.9554H1317.87L1317.87 2.43704H1317.26ZM1317.57 18.6509H1281.65L1281.65 19.2599H1317.57L1317.57 18.6509ZM1281.35 18.9554L1281.35 31.6373H1281.96L1281.96 18.9554H1281.35ZM1281.65 31.9417H1314.26L1314.26 31.3328H1281.65L1281.65 31.9417ZM1313.96 31.6373L1313.96 46.8768H1314.57L1314.57 31.6373H1313.96ZM1314.26 46.5723H1281.65L1281.65 47.1813H1314.26L1314.26 46.5723Z" fill="#A68EFF"/>
</svg>
