<svg width="1287" height="69" viewBox="0 0 1287 69" fill="none" xmlns="http://www.w3.org/2000/svg">
<path d="M0.673691 66.552H0.411008L0.411009 66.8147H0.673692L0.673691 66.552ZM0.673675 2.19467L0.673675 1.93199H0.410992L0.410992 2.19467H0.673675ZM16.763 2.19467H17.0257L17.0257 1.93199H16.763L16.763 2.19467ZM11.3386 27.6618L11.1385 27.4917L10.9775 27.681L11.1577 27.8522L11.3386 27.6618ZM15.0162 31.1555L14.8352 31.3459L15.0357 31.5363L15.2156 31.3264L15.0162 31.1555ZM39.8397 2.19467L39.8397 1.93199H39.7189L39.6403 2.02372L39.8397 2.19467ZM59.055 2.19467L59.2536 2.36661L59.6298 1.93199H59.055L59.055 2.19467ZM35.3347 29.5925L35.1361 29.4206L35.0066 29.5702L35.1146 29.7359L35.3347 29.5925ZM59.4227 66.552L59.4227 66.8147H59.9075L59.6428 66.4086L59.4227 66.552ZM40.2075 66.552L39.9852 66.6919L40.0624 66.8147H40.2075L40.2075 66.552ZM24.1181 40.9929L24.3404 40.853L24.2632 40.7303H24.1181L24.1181 40.9929ZM23.9343 40.9929L23.9343 40.7303H23.806L23.7271 40.8314L23.9343 40.9929ZM16.763 50.1869L16.5559 50.0253L16.5003 50.0965L16.5003 50.1869H16.763ZM16.763 66.552L16.763 66.8147H17.0257L17.0257 66.552H16.763ZM0.936374 66.552L0.936358 2.19467H0.410992L0.411008 66.552H0.936374ZM0.673675 2.45736H16.763L16.763 1.93199H0.673675L0.673675 2.45736ZM16.5003 2.19467L16.5003 10.745H17.0257L17.0257 2.19467H16.5003ZM16.5003 10.745C16.5003 14.7876 16.3156 17.604 15.5579 20.0922C14.8022 22.5736 13.47 24.7486 11.1385 27.4917L11.5388 27.8319C13.8961 25.0586 15.2761 22.8206 16.0604 20.2453C16.8426 17.6769 17.0257 14.793 17.0257 10.745H16.5003ZM11.1577 27.8522L14.8352 31.3459L15.1971 30.965L11.5195 27.4713L11.1577 27.8522ZM15.2156 31.3264L40.0391 2.36563L39.6403 2.02372L14.8167 30.9845L15.2156 31.3264ZM39.8397 2.45736H59.055L59.055 1.93199H39.8397L39.8397 2.45736ZM58.8564 2.02274L35.1361 29.4206L35.5333 29.7644L59.2536 2.36661L58.8564 2.02274ZM35.1146 29.7359L59.2027 66.6954L59.6428 66.4086L35.5548 29.4491L35.1146 29.7359ZM59.4227 66.2893H40.2075L40.2075 66.8147H59.4227L59.4227 66.2893ZM40.4298 66.4121L24.3404 40.853L23.8958 41.1329L39.9852 66.6919L40.4298 66.4121ZM24.1181 40.7303H23.9343L23.9343 41.2556H24.1181L24.1181 40.7303ZM23.7271 40.8314L16.5559 50.0253L16.9701 50.3484L24.1414 41.1545L23.7271 40.8314ZM16.5003 50.1869L16.5003 66.552H17.0257L17.0257 50.1869H16.5003ZM16.763 66.2893H0.673691L0.673692 66.8147H16.763L16.763 66.2893ZM79.5904 40.5333L79.5904 40.2706H79.3277L79.3277 40.5333H79.5904ZM79.5904 52.3015H79.3277L79.3277 52.5641H79.5904L79.5904 52.3015ZM110.666 52.3015H110.928L110.928 52.0388H110.666L110.666 52.3015ZM110.666 66.552L110.666 66.8147H110.929L110.929 66.552H110.666ZM63.5011 66.552H63.2384L63.2384 66.8147H63.5011L63.5011 66.552ZM63.5011 2.19467L63.5011 1.93199H63.2384L63.2384 2.19467H63.5011ZM110.574 2.19467H110.837L110.837 1.93199H110.574L110.574 2.19467ZM110.574 16.4452L110.574 16.7079H110.837L110.837 16.4452H110.574ZM79.5904 16.4452L79.5904 16.1825H79.3277L79.3277 16.4452H79.5904ZM79.5904 27.386H79.3277L79.3277 27.6487H79.5904L79.5904 27.386ZM107.724 27.386H107.986L107.986 27.1233H107.724L107.724 27.386ZM107.724 40.5333L107.724 40.7959H107.986L107.986 40.5333H107.724ZM79.3277 40.5333L79.3277 52.3015H79.8531L79.8531 40.5333H79.3277ZM79.5904 52.5641H110.666L110.666 52.0388H79.5904L79.5904 52.5641ZM110.403 52.3015L110.403 66.552H110.929L110.928 52.3015H110.403ZM110.666 66.2893H63.5011L63.5011 66.8147H110.666L110.666 66.2893ZM63.7638 66.552L63.7638 2.19467H63.2384L63.2384 66.552H63.7638ZM63.5011 2.45736H110.574L110.574 1.93199H63.5011L63.5011 2.45736ZM110.311 2.19467L110.311 16.4452H110.837L110.837 2.19467H110.311ZM110.574 16.1825H79.5904L79.5904 16.7079H110.574L110.574 16.1825ZM79.3277 16.4452L79.3277 27.386H79.8531L79.8531 16.4452H79.3277ZM79.5904 27.6487H107.724L107.724 27.1233H79.5904L79.5904 27.6487ZM107.461 27.386L107.461 40.5333H107.986L107.986 27.386H107.461ZM107.724 40.2706H79.5904L79.5904 40.7959H107.724L107.724 40.2706ZM136.64 42.372H136.903L136.903 42.2986L136.865 42.2358L136.64 42.372ZM112.276 2.19467L112.276 1.93199H111.81L112.052 2.33088L112.276 2.19467ZM130.94 2.19467L131.176 2.08047L131.105 1.93199H130.94L130.94 2.19467ZM134.801 10.1934L135.039 10.0813L135.038 10.0792L134.801 10.1934ZM141.789 30.2361L141.527 30.2557L141.545 30.4988H141.789L141.789 30.2361ZM147.857 30.2361L147.857 30.4988H148.1L148.119 30.2557L147.857 30.2361ZM154.66 10.1014L154.897 10.2149L154.897 10.2145L154.66 10.1014ZM158.43 2.19467L158.43 1.93199H158.264L158.192 2.08163L158.43 2.19467ZM177.093 2.19467L177.318 2.3305L177.559 1.93199H177.093L177.093 2.19467ZM152.821 42.372L152.596 42.2362L152.559 42.2988L152.559 42.372H152.821ZM152.821 66.552L152.821 66.8147H153.084L153.084 66.552H152.821ZM136.64 66.552H136.377L136.377 66.8147H136.64L136.64 66.552ZM136.865 42.2358L112.501 2.05847L112.052 2.33088L136.415 42.5082L136.865 42.2358ZM112.276 2.45736H130.94L130.94 1.93199H112.276L112.276 2.45736ZM130.703 2.30888L134.565 10.3076L135.038 10.0792L131.176 2.08047L130.703 2.30888ZM134.564 10.3054C136.873 15.2014 140.98 22.9616 141.527 30.2557L142.051 30.2164C141.494 22.8003 137.326 14.9309 135.039 10.0813L134.564 10.3054ZM141.789 30.4988H147.857L147.857 29.9734H141.789L141.789 30.4988ZM148.119 30.2557C148.666 22.9591 151.766 16.7533 154.897 10.2149L154.423 9.98798C151.302 16.5049 148.151 22.8029 147.595 30.2164L148.119 30.2557ZM154.897 10.2145L158.667 2.30772L158.192 2.08163L154.423 9.98839L154.897 10.2145ZM158.43 2.45736H177.093L177.093 1.93199H158.43L158.43 2.45736ZM176.868 2.05884L152.596 42.2362L153.046 42.5079L177.318 2.3305L176.868 2.05884ZM152.559 42.372L152.559 66.552H153.084L153.084 42.372H152.559ZM152.821 66.2893H136.64L136.64 66.8147H152.821L152.821 66.2893ZM136.903 66.552L136.903 42.372H136.377L136.377 66.552H136.903ZM203.769 2.19467L203.769 1.93199H203.506L203.506 2.19467H203.769ZM219.858 46.4174L219.858 46.1547H219.596L219.596 46.4174H219.858ZM219.858 66.552L219.858 66.8147H220.121L220.121 66.552H219.858ZM203.769 66.552H203.506L203.506 66.8147H203.769L203.769 66.552ZM219.858 32.4426H219.596L219.596 32.7053H219.858L219.858 32.4426ZM219.858 16.1694L219.858 15.9067H219.596L219.596 16.1694H219.858ZM203.769 2.45736H235.396L235.396 1.93199H203.769L203.769 2.45736ZM235.396 2.45736C241.775 2.45736 247.245 4.50704 251.119 8.25604C254.991 12.0037 257.291 17.4713 257.291 24.352H257.816C257.816 17.3498 255.473 11.7388 251.484 7.87853C247.497 4.01957 241.888 1.93199 235.396 1.93199L235.396 2.45736ZM257.291 24.352C257.291 31.2789 254.991 36.7229 251.12 40.4356C247.247 44.15 241.777 46.1547 235.396 46.1547L235.396 46.68C241.887 46.68 247.496 44.6394 251.483 40.8148C255.473 36.9885 257.816 31.3998 257.816 24.352H257.291ZM235.396 46.1547H219.858L219.858 46.68H235.396L235.396 46.1547ZM219.596 46.4174L219.596 66.552H220.121L220.121 46.4174H219.596ZM219.858 66.2893H203.769L203.769 66.8147H219.858L219.858 66.2893ZM204.032 66.552L204.032 2.19467H203.506L203.506 66.552H204.032ZM219.858 32.7053H233.925L233.925 32.1799H219.858L219.858 32.7053ZM233.925 32.7053C236.01 32.7053 237.943 31.9699 239.354 30.5229C240.766 29.0752 241.635 26.9366 241.635 24.1681H241.11C241.11 26.824 240.278 28.8227 238.978 30.1561C237.677 31.4903 235.885 32.1799 233.925 32.1799L233.925 32.7053ZM241.635 24.1681C241.635 21.3223 240.912 19.2464 239.584 17.8824C238.255 16.5174 236.361 15.9067 234.109 15.9067L234.109 16.4321C236.27 16.4321 238.008 17.0166 239.207 18.2489C240.408 19.4822 241.11 21.4057 241.11 24.1681H241.635ZM234.109 15.9067H219.858L219.858 16.4321H234.109L234.109 15.9067ZM219.596 16.1694L219.596 32.4426H220.121L220.121 16.1694H219.596ZM312.714 53.6805L312.957 53.5805L312.957 53.58L312.714 53.6805ZM315.288 59.9324L315.045 60.0324L315.048 60.0391L315.288 59.9324ZM318.966 65.1729H319.229L319.229 65.0215L319.098 64.9456L318.966 65.1729ZM318.966 66.552L318.966 66.8147H319.229L319.229 66.552H318.966ZM300.946 66.552L300.776 66.7525L300.85 66.8147H300.946L300.946 66.552ZM299.015 63.4261L299.269 63.357L299.265 63.3423L299.259 63.3281L299.015 63.4261ZM295.062 53.5886L294.817 53.685L294.818 53.6865L295.062 53.5886ZM280.352 45.2221L280.352 44.9595H280.089L280.089 45.2221H280.352ZM280.352 66.552L280.352 66.8147H280.614L280.614 66.552H280.352ZM264.262 66.552H264L264 66.8147H264.262L264.262 66.552ZM264.262 2.19467L264.262 1.93199H263.999L263.999 2.19467H264.262ZM298.28 38.0509L298.262 37.7888L298.017 37.8049L298.017 38.0509H298.28ZM298.28 42.6479H298.017L298.017 42.8804L298.248 42.9086L298.28 42.6479ZM280.352 31.2474H280.089L280.089 31.5101H280.352L280.352 31.2474ZM280.352 16.1694L280.352 15.9067H280.089L280.089 16.1694H280.352ZM312.471 53.7806L315.045 60.0324L315.531 59.8324L312.957 53.5805L312.471 53.7806ZM315.048 60.0391C316.145 62.5055 317.001 64.3391 318.834 65.4002L319.098 64.9456C317.437 63.9841 316.639 62.324 315.528 59.8257L315.048 60.0391ZM318.703 65.1729L318.703 66.552H319.229L319.229 65.1729H318.703ZM318.966 66.2893H300.946L300.946 66.8147H318.966L318.966 66.2893ZM301.116 66.3515C299.974 65.3859 299.536 64.3373 299.269 63.357L298.762 63.4952C299.046 64.5375 299.527 65.6954 300.776 66.7525L301.116 66.3515ZM299.259 63.3281L295.306 53.4906L294.818 53.6865L298.771 63.524L299.259 63.3281ZM295.306 53.4922C294.021 50.2324 292.944 48.0825 291.431 46.7597C289.9 45.422 287.961 44.9595 285.04 44.9595L285.04 45.4848C287.912 45.4848 289.696 45.9417 291.085 47.1553C292.49 48.3838 293.529 50.4171 294.817 53.685L295.306 53.4922ZM285.04 44.9595H280.352L280.352 45.4848H285.04L285.04 44.9595ZM280.089 45.2221L280.089 66.552H280.614L280.614 45.2221H280.089ZM280.352 66.2893H264.262L264.262 66.8147H280.352L280.352 66.2893ZM264.525 66.552L264.525 2.19467H263.999L264 66.552H264.525ZM264.262 2.45736H298.372L298.372 1.93199H264.262L264.262 2.45736ZM298.372 2.45736C304.532 2.45736 309.335 4.12257 312.595 7.08934C315.852 10.0533 317.6 14.3445 317.6 19.6631H318.125C318.125 14.2248 316.334 9.78181 312.948 6.70078C309.566 3.62255 304.623 1.93199 298.372 1.93199L298.372 2.45736ZM317.6 19.6631C317.6 25.5858 315.871 29.8966 312.618 32.8338C309.359 35.7779 304.53 37.377 298.262 37.7888L298.297 38.313C304.625 37.8973 309.588 36.2786 312.971 33.2237C316.361 30.1619 318.125 25.6925 318.125 19.6631H317.6ZM298.017 38.0509L298.017 42.6479H298.542L298.542 38.0509H298.017ZM298.248 42.9086C302.022 43.3689 304.626 43.8478 306.762 45.3124C308.893 46.7739 310.592 49.244 312.471 53.781L312.957 53.58C311.066 49.0151 309.318 46.4285 307.059 44.8791C304.804 43.3327 302.076 42.8462 298.311 42.3871L298.248 42.9086ZM280.352 31.5101H294.51L294.51 30.9847H280.352L280.352 31.5101ZM294.51 31.5101C296.772 31.5101 298.661 30.802 299.985 29.4425C301.308 28.0835 302.036 26.1038 302.036 23.6165H301.511C301.511 26.0019 300.814 27.8376 299.608 29.076C298.404 30.3137 296.661 30.9847 294.51 30.9847L294.51 31.5101ZM302.036 23.6165C302.036 21.0936 301.405 19.1545 300.122 17.8472C298.838 16.539 296.944 15.9067 294.51 15.9067L294.51 16.4321C296.858 16.4321 298.595 17.041 299.747 18.2152C300.9 19.3902 301.511 21.1746 301.511 23.6165H302.036ZM294.51 15.9067H280.352L280.352 16.4321H294.51L294.51 15.9067ZM280.089 16.1694L280.089 31.2474H280.614L280.614 16.1694H280.089ZM321.732 34.3733C321.732 14.9345 335.958 0.710516 355.211 0.710516L355.211 0.18515C335.666 0.18515 321.206 14.6462 321.206 34.3733H321.732ZM355.211 0.710516C374.371 0.710516 388.598 14.934 388.598 34.3733H389.123C389.123 14.6467 374.664 0.18515 355.211 0.18515L355.211 0.710516ZM388.598 34.3733C388.598 53.8127 374.371 68.0362 355.211 68.0362L355.211 68.5615C374.664 68.5615 389.123 54.1 389.123 34.3733H388.598ZM355.211 68.0362C335.958 68.0362 321.732 53.8122 321.732 34.3733H321.206C321.206 54.1005 335.666 68.5615 355.211 68.5615L355.211 68.0362ZM337.48 34.3733C337.48 40.264 339.266 45.2258 342.385 48.7184C345.506 52.2135 349.946 54.219 355.211 54.219L355.211 53.6937C350.087 53.6937 345.792 51.7458 342.777 48.3685C339.758 44.9887 338.005 40.1589 338.005 34.3733H337.48ZM355.211 54.219C360.845 54.219 365.265 52.074 368.272 48.5058C371.274 44.943 372.85 39.9826 372.85 34.3733H372.325C372.325 39.8887 370.775 44.7198 367.87 48.1673C364.969 51.6095 360.701 53.6937 355.211 53.6937L355.211 54.219ZM372.85 34.3733C372.85 28.6256 371.227 23.6644 368.201 20.1357C365.171 16.6024 360.752 14.5276 355.211 14.5276L355.211 15.053C360.61 15.053 364.879 17.0696 367.802 20.4777C370.729 23.8904 372.325 28.7206 372.325 34.3733H372.85ZM355.211 14.5276C349.673 14.5276 345.23 16.5312 342.176 20.0305C339.125 23.5256 337.48 28.488 337.48 34.3733H338.005C338.005 28.5824 339.623 23.7533 342.572 20.376C345.516 17.0028 349.808 15.053 355.211 15.053L355.211 14.5276ZM396.381 2.19467L396.381 1.93199H396.119L396.119 2.19467H396.381ZM396.381 66.552H396.119L396.119 66.8147H396.381L396.381 66.552ZM412.471 52.3015H412.208L412.208 52.5641H412.471L412.471 52.3015ZM412.471 16.4452L412.471 16.1825H412.208L412.208 16.4452H412.471ZM396.381 2.45736H423.963L423.963 1.93199H396.381L396.381 2.45736ZM423.963 2.45736C432.685 2.45736 439.966 5.30975 445.068 10.7071C450.171 16.1058 453.121 24.0798 453.121 34.3733H453.646C453.646 23.9806 450.666 15.8652 445.449 10.3462C440.231 4.82579 432.802 1.93199 423.963 1.93199L423.963 2.45736ZM453.121 34.3733C453.121 44.8088 450.307 52.7811 445.24 58.143C440.175 63.5031 432.827 66.2893 423.687 66.2893L423.687 66.8147C432.935 66.8147 440.435 63.9927 445.622 58.5039C450.806 53.017 453.646 44.8999 453.646 34.3733H453.121ZM423.687 66.2893H396.381L396.381 66.8147H423.687L423.687 66.2893ZM396.644 66.552L396.644 2.19467H396.119L396.119 66.552H396.644ZM412.471 52.5641H422.584L422.584 52.0388H412.471L412.471 52.5641ZM422.584 52.5641C426.849 52.5641 430.61 51.5908 433.3 48.7945C435.988 46.0012 437.557 41.439 437.557 34.3733H437.032C437.032 41.3743 435.475 45.7762 432.922 48.4303C430.371 51.0814 426.778 52.0388 422.584 52.0388L422.584 52.5641ZM437.557 34.3733C437.557 28.2299 436.288 23.6759 433.761 20.6553C431.226 17.6254 427.464 16.1825 422.584 16.1825L422.584 16.7079C427.358 16.7079 430.951 18.1151 433.358 20.9924C435.773 23.8788 437.032 28.2889 437.032 34.3733H437.557ZM422.584 16.1825H412.471L412.471 16.7079H422.584L422.584 16.1825ZM412.208 16.4452L412.208 52.3015H412.733L412.733 16.4452H412.208ZM460.821 2.19467L460.821 1.93199H460.558L460.558 2.19467H460.821ZM476.91 2.19467H477.173L477.173 1.93199H476.91L476.91 2.19467ZM499.619 2.19467L499.619 1.93199H499.356L499.356 2.19467H499.619ZM515.708 2.19467H515.971L515.971 1.93199H515.708L515.708 2.19467ZM461.083 41.7285L461.083 2.19467H460.558L460.558 41.7285H461.083ZM460.821 2.45736H476.91L476.91 1.93199H460.821L460.821 2.45736ZM476.647 2.19467L476.647 40.5333H477.173L477.173 2.19467H476.647ZM476.647 40.5333C476.647 45.1603 477.618 48.59 479.584 50.8643C481.557 53.1464 484.492 54.219 488.31 54.219L488.31 53.6937C484.59 53.6937 481.824 52.6517 479.982 50.5207C478.133 48.382 477.173 45.1001 477.173 40.5333H476.647ZM488.31 54.219C492.131 54.219 495.042 53.1224 496.992 50.8281C498.934 48.5425 499.882 45.1137 499.882 40.5333H499.356C499.356 45.0548 498.419 48.3375 496.592 50.4879C494.772 52.6298 492.029 53.6937 488.31 53.6937L488.31 54.219ZM499.882 40.5333L499.882 2.19467H499.356L499.356 40.5333H499.882ZM499.619 2.45736H515.708L515.708 1.93199H499.619L499.619 2.45736ZM515.446 2.19467L515.446 41.7285H515.971L515.971 2.19467H515.446ZM515.446 41.7285C515.446 50.1804 512.934 56.7475 508.309 61.2027C503.682 65.6593 496.906 68.0362 488.31 68.0362L488.31 68.5615C497 68.5615 503.922 66.1575 508.673 61.5811C513.426 57.0033 515.971 50.2852 515.971 41.7285H515.446ZM488.31 68.0362C479.715 68.0362 472.915 65.6593 468.266 61.2023C463.617 56.7468 461.083 50.1798 461.083 41.7285H460.558C460.558 50.2859 463.126 57.004 467.902 61.5816C472.676 66.1576 479.621 68.5615 488.31 68.5615L488.31 68.0362ZM557.075 0.447833L557.073 0.710507L557.073 0.710511L557.075 0.447833ZM586.955 22.789L587.025 23.0423L587.263 22.9769L587.212 22.7348L586.955 22.789ZM571.877 26.9263L571.624 26.9949L571.693 27.2494L571.947 27.1796L571.877 26.9263ZM572.245 40.5333L572.308 40.2782L572.047 40.2137L571.989 40.4766L572.245 40.5333ZM587.507 44.3028L587.766 44.3488L587.809 44.1067L587.57 44.0477L587.507 44.3028ZM557.075 68.2988L557.074 68.0362L557.073 68.0362L557.075 68.2988ZM523.412 34.3733C523.412 16.2963 535.999 0.528053 557.073 0.710506L557.077 0.18516C535.675 -0.000138676 522.887 16.0425 522.887 34.3733H523.412ZM557.073 0.710511C572.049 0.801824 583.878 9.46861 586.698 22.8432L587.212 22.7348C584.333 9.07935 572.257 0.277718 557.077 0.185155L557.073 0.710511ZM586.886 22.5357L571.808 26.673L571.947 27.1796L587.025 23.0423L586.886 22.5357ZM572.131 26.8577C571.062 22.9083 569.175 19.822 566.572 17.7233C563.968 15.6235 560.666 14.5276 556.799 14.5276L556.799 15.053C560.563 15.053 563.744 16.1177 566.242 18.1322C568.742 20.1478 570.578 23.1295 571.624 26.9949L572.131 26.8577ZM556.799 14.5276C551.579 14.5276 547.163 16.5337 544.053 20.0286C540.946 23.5211 539.16 28.4827 539.16 34.3733H539.685C539.685 28.5877 541.439 23.7578 544.446 20.3778C547.451 17.0003 551.722 15.053 556.799 15.053L556.799 14.5276ZM539.16 34.3733C539.16 40.264 540.946 45.2255 544.053 48.718C547.163 52.213 551.579 54.219 556.799 54.219L556.799 53.6937C551.722 53.6937 547.451 51.7463 544.446 48.3688C541.439 44.9889 539.685 40.159 539.685 34.3733H539.16ZM556.799 54.219C560.807 54.219 564.249 53.0296 566.934 50.7193C569.618 48.4104 571.527 44.9994 572.501 40.59L571.989 40.4766C571.033 44.8013 569.171 48.1019 566.592 50.321C564.014 52.5386 560.698 53.6937 556.799 53.6937L556.799 54.219ZM572.182 40.7883L587.444 44.5578L587.57 44.0477L572.308 40.2782L572.182 40.7883ZM587.248 44.2567C584.608 59.0992 572.505 67.9449 557.074 68.0362L557.077 68.5615C572.721 68.469 585.074 59.4785 587.766 44.3488L587.248 44.2567ZM557.073 68.0362C535.999 68.2186 523.412 52.4504 523.412 34.3733H522.887C522.887 52.7041 535.675 68.7468 557.077 68.5615L557.073 68.0362ZM589.339 2.19467L589.339 1.93199H589.077L589.077 2.19467H589.339ZM645.422 2.19467H645.685L645.685 1.93199H645.422L645.422 2.19467ZM645.422 16.4452L645.422 16.7079H645.685L645.685 16.4452H645.422ZM625.379 16.4452L625.379 16.1825H625.117L625.117 16.4452H625.379ZM625.379 66.552L625.379 66.8147H625.642L625.642 66.552H625.379ZM609.29 66.552H609.027L609.027 66.8147H609.29L609.29 66.552ZM609.29 16.4452H609.553L609.553 16.1825H609.29L609.29 16.4452ZM589.339 16.4452H589.077L589.077 16.7079H589.339L589.339 16.4452ZM589.339 2.45736H645.422L645.422 1.93199H589.339L589.339 2.45736ZM645.159 2.19467L645.159 16.4452H645.685L645.685 2.19467H645.159ZM645.422 16.1825H625.379L625.379 16.7079H645.422L645.422 16.1825ZM625.117 16.4452L625.117 66.552H625.642L625.642 16.4452H625.117ZM625.379 66.2893H609.29L609.29 66.8147H625.379L625.379 66.2893ZM609.553 66.552L609.553 16.4452H609.027L609.027 66.552H609.553ZM609.29 16.1825H589.339L589.339 16.7079H609.29L609.29 16.1825ZM589.602 16.4452L589.602 2.19467H589.077L589.077 16.4452H589.602ZM704.975 0.447833L704.973 0.710507L704.973 0.710511L704.975 0.447833ZM734.855 22.789L734.924 23.0423L735.163 22.9769L735.112 22.7348L734.855 22.789ZM719.777 26.9263L719.523 26.9949L719.592 27.2494L719.846 27.1796L719.777 26.9263ZM720.145 40.5333L720.208 40.2782L719.946 40.2137L719.888 40.4766L720.145 40.5333ZM735.407 44.3028L735.665 44.3488L735.708 44.1067L735.47 44.0477L735.407 44.3028ZM704.975 68.2988L704.973 68.0362L704.973 68.0362L704.975 68.2988ZM671.312 34.3733C671.312 16.2963 683.899 0.528053 704.973 0.710506L704.977 0.18516C683.575 -0.000138676 670.787 16.0425 670.787 34.3733H671.312ZM704.973 0.710511C719.949 0.801824 731.777 9.46861 734.598 22.8432L735.112 22.7348C732.232 9.07935 720.157 0.277718 704.976 0.185155L704.973 0.710511ZM734.785 22.5357L719.707 26.673L719.846 27.1796L734.924 23.0423L734.785 22.5357ZM720.031 26.8577C718.962 22.9083 717.074 19.822 714.471 17.7233C711.867 15.6235 708.566 14.5276 704.699 14.5276L704.699 15.053C708.463 15.053 711.643 16.1177 714.142 18.1322C716.641 20.1478 718.477 23.1295 719.523 26.9949L720.031 26.8577ZM704.699 14.5276C699.479 14.5276 695.062 16.5337 691.953 20.0286C688.846 23.5211 687.06 28.4827 687.06 34.3733H687.585C687.585 28.5877 689.339 23.7578 692.346 20.3778C695.35 17.0003 699.622 15.053 704.699 15.053L704.699 14.5276ZM687.06 34.3733C687.06 40.264 688.846 45.2255 691.953 48.718C695.062 52.213 699.479 54.219 704.699 54.219L704.699 53.6937C699.622 53.6937 695.35 51.7463 692.346 48.3688C689.339 44.9889 687.585 40.159 687.585 34.3733H687.06ZM704.699 54.219C708.707 54.219 712.149 53.0296 714.834 50.7193C717.518 48.4104 719.426 44.9994 720.401 40.59L719.888 40.4766C718.932 44.8013 717.071 48.1019 714.492 50.321C711.914 52.5386 708.598 53.6937 704.699 53.6937L704.699 54.219ZM720.082 40.7883L735.344 44.5578L735.47 44.0477L720.208 40.2782L720.082 40.7883ZM735.148 44.2567C732.507 59.0992 720.404 67.9449 704.973 68.0362L704.976 68.5615C720.621 68.469 732.973 59.4785 735.665 44.3488L735.148 44.2567ZM704.973 68.0362C683.899 68.2186 671.312 52.4504 671.312 34.3733H670.787C670.787 52.7041 683.575 68.7468 704.977 68.5615L704.973 68.0362ZM802.078 66.552L802.078 66.8147H802.456L802.324 66.4599L802.078 66.552ZM785.437 66.552L785.188 66.6379L785.25 66.8147H785.437L785.437 66.552ZM782.127 56.9903L782.375 56.9044L782.314 56.7277H782.127L782.127 56.9903ZM755.556 56.9903L755.556 56.7277H755.369L755.308 56.9044L755.556 56.9903ZM752.247 66.552L752.247 66.8147H752.434L752.495 66.6379L752.247 66.552ZM735.514 66.552L735.268 66.4599L735.135 66.8147H735.514L735.514 66.552ZM759.602 2.19467L759.602 1.93199H759.42L759.356 2.10259L759.602 2.19467ZM777.989 2.19467L778.236 2.10259L778.172 1.93199H777.989L777.989 2.19467ZM762.911 35.7524L763.159 35.8392L763.16 35.8368L762.911 35.7524ZM760.337 43.1075L760.089 43.0208L759.967 43.3702H760.337L760.337 43.1075ZM777.346 43.1075L777.346 43.3702H777.716L777.594 43.0208L777.346 43.1075ZM774.772 35.7524L774.523 35.8368L774.524 35.8392L774.772 35.7524ZM771.646 18.7437L771.908 18.7231L771.889 18.481H771.646L771.646 18.7437ZM766.037 18.7437L766.037 18.481H765.795L765.776 18.7231L766.037 18.7437ZM802.078 66.2893H785.437L785.437 66.8147H802.078L802.078 66.2893ZM785.685 66.4661L782.375 56.9044L781.879 57.0763L785.188 66.6379L785.685 66.4661ZM782.127 56.7277H755.556L755.556 57.253H782.127L782.127 56.7277ZM755.308 56.9044L751.998 66.4661L752.495 66.6379L755.805 57.0763L755.308 56.9044ZM752.247 66.2893H735.514L735.514 66.8147H752.247L752.247 66.2893ZM735.76 66.6441L759.848 2.28675L759.356 2.10259L735.268 66.4599L735.76 66.6441ZM759.602 2.45736H777.989L777.989 1.93199H759.602L759.602 2.45736ZM777.743 2.28675L801.832 66.6441L802.324 66.4599L778.236 2.10259L777.743 2.28675ZM762.664 35.6656L760.089 43.0208L760.585 43.1943L763.159 35.8392L762.664 35.6656ZM760.337 43.3702H777.346L777.346 42.8449H760.337L760.337 43.3702ZM777.594 43.0208L775.02 35.6656L774.524 35.8392L777.098 43.1943L777.594 43.0208ZM775.02 35.6681C773.191 30.2705 772.55 26.8916 771.908 18.7231L771.384 18.7643C772.029 26.961 772.675 30.3856 774.523 35.8368L775.02 35.6681ZM771.646 18.481H766.037L766.037 19.0064H771.646L771.646 18.481ZM765.776 18.7231C765.133 26.8916 764.492 30.2705 762.663 35.6681L763.16 35.8368C765.008 30.3856 765.655 26.961 766.299 18.7643L765.776 18.7231ZM806.814 2.19467L806.814 1.93199H806.551L806.551 2.19467H806.814ZM822.903 46.4174L822.903 46.1547H822.64L822.64 46.4174H822.903ZM822.903 66.552L822.903 66.8147H823.166L823.166 66.552H822.903ZM806.814 66.552H806.551L806.551 66.8147H806.814L806.814 66.552ZM822.903 32.4426H822.64L822.64 32.7053H822.903L822.903 32.4426ZM822.903 16.1694L822.903 15.9067H822.64L822.64 16.1694H822.903ZM806.814 2.45736H838.441L838.441 1.93199H806.814L806.814 2.45736ZM838.441 2.45736C844.82 2.45736 850.29 4.50704 854.164 8.25604C858.036 12.0037 860.335 17.4713 860.335 24.352H860.861C860.861 17.3498 858.518 11.7388 854.529 7.87853C850.542 4.01957 844.933 1.93199 838.441 1.93199L838.441 2.45736ZM860.335 24.352C860.335 31.2789 858.036 36.7229 854.164 40.4356C850.292 44.15 844.822 46.1547 838.441 46.1547L838.441 46.68C844.931 46.68 850.54 44.6394 854.528 40.8148C858.518 36.9885 860.861 31.3998 860.861 24.352H860.335ZM838.441 46.1547H822.903L822.903 46.68H838.441L838.441 46.1547ZM822.64 46.4174L822.64 66.552H823.166L823.166 46.4174H822.64ZM822.903 66.2893H806.814L806.814 66.8147H822.903L822.903 66.2893ZM807.077 66.552L807.076 2.19467H806.551L806.551 66.552H807.077ZM822.903 32.7053H836.97L836.97 32.1799H822.903L822.903 32.7053ZM836.97 32.7053C839.055 32.7053 840.987 31.9699 842.398 30.5229C843.81 29.0752 844.68 26.9366 844.68 24.1681H844.154C844.154 26.824 843.323 28.8227 842.022 30.1561C840.721 31.4903 838.93 32.1799 836.97 32.1799L836.97 32.7053ZM844.68 24.1681C844.68 21.3223 843.956 19.2464 842.628 17.8824C841.3 16.5174 839.406 15.9067 837.154 15.9067L837.154 16.4321C839.315 16.4321 841.052 17.0166 842.252 18.2489C843.453 19.4822 844.154 21.4057 844.154 24.1681H844.68ZM837.154 15.9067H822.903L822.903 16.4321H837.154L837.154 15.9067ZM822.64 16.1694L822.64 32.4426H823.166L823.166 16.1694H822.64ZM921.986 66.552L921.986 66.8147H922.365L922.232 66.4599L921.986 66.552ZM905.345 66.552L905.097 66.6379L905.158 66.8147H905.345L905.345 66.552ZM902.035 56.9903L902.284 56.9044L902.222 56.7277H902.035L902.035 56.9903ZM875.465 56.9903L875.465 56.7277H875.278L875.217 56.9044L875.465 56.9903ZM872.155 66.552L872.155 66.8147H872.342L872.403 66.6379L872.155 66.552ZM855.422 66.552L855.176 66.4599L855.043 66.8147H855.422L855.422 66.552ZM879.51 2.19467L879.51 1.93199H879.328L879.264 2.10259L879.51 2.19467ZM897.898 2.19467L898.144 2.10259L898.08 1.93199H897.898L897.898 2.19467ZM882.82 35.7524L883.068 35.8392L883.069 35.8368L882.82 35.7524ZM880.246 43.1075L879.998 43.0208L879.876 43.3702H880.246L880.246 43.1075ZM897.254 43.1075L897.254 43.3702H897.625L897.502 43.0208L897.254 43.1075ZM894.68 35.7524L894.431 35.8368L894.432 35.8392L894.68 35.7524ZM891.554 18.7437L891.816 18.7231L891.797 18.481H891.554L891.554 18.7437ZM885.946 18.7437L885.946 18.481H885.703L885.684 18.7231L885.946 18.7437ZM921.986 66.2893H905.345L905.345 66.8147H921.986L921.986 66.2893ZM905.593 66.4661L902.284 56.9044L901.787 57.0763L905.097 66.6379L905.593 66.4661ZM902.035 56.7277H875.465L875.465 57.253H902.035L902.035 56.7277ZM875.217 56.9044L871.907 66.4661L872.403 66.6379L875.713 57.0763L875.217 56.9044ZM872.155 66.2893H855.422L855.422 66.8147H872.155L872.155 66.2893ZM855.668 66.6441L879.756 2.28675L879.264 2.10259L855.176 66.4599L855.668 66.6441ZM879.51 2.45736H897.898L897.898 1.93199H879.51L879.51 2.45736ZM897.652 2.28675L921.74 66.6441L922.232 66.4599L898.144 2.10259L897.652 2.28675ZM882.572 35.6656L879.998 43.0208L880.494 43.1943L883.068 35.8392L882.572 35.6656ZM880.246 43.3702H897.254L897.254 42.8449H880.246L880.246 43.3702ZM897.502 43.0208L894.928 35.6656L894.432 35.8392L897.007 43.1943L897.502 43.0208ZM894.929 35.6681C893.099 30.2705 892.459 26.8916 891.816 18.7231L891.292 18.7643C891.937 26.961 892.584 30.3856 894.431 35.8368L894.929 35.6681ZM891.554 18.481H885.946L885.946 19.0064H891.554L891.554 18.481ZM885.684 18.7231C885.042 26.8916 884.401 30.2705 882.571 35.6681L883.069 35.8368C884.917 30.3856 885.563 26.961 886.208 18.7643L885.684 18.7231ZM966.44 30.6958L966.404 30.4356L966.177 30.4672L966.177 30.6958H966.44ZM966.44 34.5572H966.177L966.177 34.7985L966.418 34.819L966.44 34.5572ZM926.722 66.552H926.46L926.46 66.8147H926.722L926.722 66.552ZM926.722 2.19467L926.722 1.93199H926.46L926.46 2.19467H926.722ZM942.536 15.9855L942.536 15.7228H942.273L942.273 15.9855H942.536ZM942.536 27.1102H942.273L942.273 27.3728H942.536L942.536 27.1102ZM942.536 52.7611H942.273L942.273 53.0238H942.536L942.536 52.7611ZM942.536 39.6139L942.536 39.3512H942.273L942.273 39.6139H942.536ZM966.177 30.6958L966.177 34.5572H966.703L966.703 30.6958H966.177ZM966.418 34.819C970.688 35.1824 974.092 36.7238 976.43 39.241C978.767 41.7577 980.06 45.2751 980.06 49.6352H980.586C980.586 45.1692 979.259 41.5153 976.815 38.8835C974.371 36.252 970.835 34.6676 966.462 34.2955L966.418 34.819ZM980.06 49.6352C980.06 54.9782 977.869 59.1279 974.03 61.9503C970.182 64.7797 964.658 66.2893 957.982 66.2893L957.982 66.8147C964.728 66.8147 970.375 65.2903 974.342 62.3735C978.318 59.4497 980.586 55.1411 980.586 49.6352H980.06ZM957.982 66.2893H926.722L926.722 66.8147H957.982L957.982 66.2893ZM926.985 66.552L926.985 2.19467H926.46L926.46 66.552H926.985ZM926.722 2.45736H960.556L960.556 1.93199H926.722L926.722 2.45736ZM960.556 2.45736C966.212 2.45736 970.581 3.93975 973.531 6.49599C976.477 9.04856 978.037 12.6958 978.037 17.0888H978.563C978.563 12.5637 976.951 8.76389 973.875 6.09892C970.804 3.43761 966.3 1.93199 960.556 1.93199L960.556 2.45736ZM978.037 17.0888C978.038 20.7662 977.062 23.8268 975.135 26.1014C973.208 28.3749 970.308 29.8909 966.404 30.4356L966.476 30.9559C970.479 30.3974 973.509 28.8334 975.536 26.441C977.562 24.0497 978.563 20.8585 978.563 17.0888H978.037ZM955.591 15.7228H942.536L942.536 16.2482H955.591L955.591 15.7228ZM942.273 15.9855L942.273 27.1102H942.799L942.799 15.9855H942.273ZM942.536 27.3728H955.683L955.683 26.8475H942.536L942.536 27.3728ZM955.683 27.3728C958.187 27.3728 959.923 26.9112 961.03 25.9148C962.145 24.9116 962.565 23.4189 962.565 21.5019H962.04C962.04 23.3543 961.633 24.6658 960.679 25.5243C959.718 26.3897 958.144 26.8475 955.683 26.8475L955.683 27.3728ZM962.565 21.5019C962.565 19.7174 962.143 18.2508 961.019 17.2384C959.903 16.2323 958.146 15.7228 955.591 15.7228L955.591 16.2482C958.093 16.2482 959.692 16.7501 960.667 17.6287C961.636 18.5011 962.04 19.7927 962.04 21.5019H962.565ZM942.536 53.0238H957.154L957.154 52.4985H942.536L942.536 53.0238ZM957.154 53.0238C959.938 53.0238 961.838 52.4688 963.037 51.3063C964.239 50.1412 964.68 48.4214 964.68 46.2335H964.155C964.155 48.3667 963.722 49.9107 962.672 50.9291C961.618 51.9502 959.887 52.4985 957.154 52.4985L957.154 53.0238ZM964.68 46.2335C964.68 43.992 964.167 42.2513 962.92 41.0775C961.676 39.9074 959.757 39.3512 957.062 39.3512L957.062 39.8765C959.7 39.8765 961.458 40.4236 962.559 41.4601C963.657 42.4928 964.155 44.0619 964.155 46.2335H964.68ZM957.062 39.3512H942.536L942.536 39.8765H957.062L957.062 39.3512ZM942.273 39.6139L942.273 52.7611H942.799L942.799 39.6139H942.273ZM989.035 66.552H988.772L988.772 66.8147H989.035L989.035 66.552ZM989.035 2.19467L989.035 1.93199H988.772L988.772 2.19467H989.035ZM1005.12 2.19467H1005.39L1005.39 1.93199H1005.12L1005.12 2.19467ZM1005.12 66.552L1005.12 66.8147H1005.39L1005.39 66.552H1005.12ZM989.297 66.552L989.297 2.19467H988.772L988.772 66.552H989.297ZM989.035 2.45736H1005.12L1005.12 1.93199H989.035L989.035 2.45736ZM1004.86 2.19467L1004.86 66.552H1005.39L1005.39 2.19467H1004.86ZM1005.12 66.2893H989.035L989.035 66.8147H1005.12L1005.12 66.2893ZM1016.1 66.552H1015.84L1015.84 66.8147H1016.1L1016.1 66.552ZM1016.1 2.19467L1016.1 1.93199H1015.84L1015.84 2.19467H1016.1ZM1032.19 2.19467H1032.46L1032.46 1.93199H1032.19L1032.19 2.19467ZM1032.19 52.2095H1031.93L1031.93 52.4722H1032.19L1032.19 52.2095ZM1061.25 52.2095H1061.51L1061.51 51.9468H1061.25L1061.25 52.2095ZM1061.25 66.552L1061.25 66.8147H1061.51L1061.51 66.552H1061.25ZM1016.37 66.552L1016.37 2.19467H1015.84L1015.84 66.552H1016.37ZM1016.1 2.45736H1032.19L1032.19 1.93199H1016.1L1016.1 2.45736ZM1031.93 2.19467L1031.93 52.2095H1032.46L1032.46 2.19467H1031.93ZM1032.19 52.4722H1061.25L1061.25 51.9468H1032.19L1032.19 52.4722ZM1060.98 52.2095L1060.98 66.552H1061.51L1061.51 52.2095H1060.98ZM1061.25 66.2893H1016.1L1016.1 66.8147H1061.25L1061.25 66.2893ZM1068 66.552H1067.74L1067.74 66.8147H1068L1068 66.552ZM1068 2.19467L1068 1.93199H1067.74L1067.74 2.19467H1068ZM1084.09 2.19467H1084.35L1084.35 1.93199H1084.09L1084.09 2.19467ZM1084.09 66.552L1084.09 66.8147H1084.35L1084.35 66.552H1084.09ZM1068.26 66.552L1068.26 2.19467H1067.74L1067.74 66.552H1068.26ZM1068 2.45736H1084.09L1084.09 1.93199H1068L1068 2.45736ZM1083.83 2.19467L1083.83 66.552H1084.35L1084.35 2.19467H1083.83ZM1084.09 66.2893H1068L1068 66.8147H1084.09L1084.09 66.2893ZM1090.66 2.19467L1090.66 1.93199H1090.4L1090.4 2.19467H1090.66ZM1146.74 2.19467H1147L1147 1.93199H1146.74L1146.74 2.19467ZM1146.74 16.4452L1146.74 16.7079H1147L1147 16.4452H1146.74ZM1126.7 16.4452L1126.7 16.1825H1126.44L1126.44 16.4452H1126.7ZM1126.7 66.552L1126.7 66.8147H1126.96L1126.96 66.552H1126.7ZM1110.61 66.552H1110.35L1110.35 66.8147H1110.61L1110.61 66.552ZM1110.61 16.4452H1110.87L1110.87 16.1825H1110.61L1110.61 16.4452ZM1090.66 16.4452H1090.4L1090.4 16.7079H1090.66L1090.66 16.4452ZM1090.66 2.45736H1146.74L1146.74 1.93199H1090.66L1090.66 2.45736ZM1146.48 2.19467L1146.48 16.4452H1147L1147 2.19467H1146.48ZM1146.74 16.1825H1126.7L1126.7 16.7079H1146.74L1146.74 16.1825ZM1126.44 16.4452L1126.44 66.552H1126.96L1126.96 16.4452H1126.44ZM1126.7 66.2893H1110.61L1110.61 66.8147H1126.7L1126.7 66.2893ZM1110.87 66.552L1110.87 16.4452H1110.35L1110.35 66.552H1110.87ZM1110.61 16.1825H1090.66L1090.66 16.7079H1110.61L1110.61 16.1825ZM1090.92 16.4452L1090.92 2.19467H1090.4L1090.4 16.4452H1090.92ZM1153.16 66.552H1152.9L1152.9 66.8147H1153.16L1153.16 66.552ZM1153.16 2.19467L1153.16 1.93199H1152.9L1152.9 2.19467H1153.16ZM1169.25 2.19467H1169.52L1169.52 1.93199H1169.25L1169.25 2.19467ZM1169.25 66.552L1169.25 66.8147H1169.52L1169.52 66.552H1169.25ZM1153.43 66.552L1153.43 2.19467H1152.9L1152.9 66.552H1153.43ZM1153.16 2.45736H1169.25L1169.25 1.93199H1153.16L1153.16 2.45736ZM1168.99 2.19467L1168.99 66.552H1169.52L1169.52 2.19467H1168.99ZM1169.25 66.2893H1153.16L1153.16 66.8147H1169.25L1169.25 66.2893ZM1196.32 40.5333L1196.32 40.2706H1196.06L1196.06 40.5333H1196.32ZM1196.32 52.3015H1196.06L1196.06 52.5641H1196.32L1196.32 52.3015ZM1227.4 52.3015H1227.66L1227.66 52.0388H1227.4L1227.4 52.3015ZM1227.4 66.552L1227.4 66.8147H1227.66L1227.66 66.552H1227.4ZM1180.23 66.552H1179.97L1179.97 66.8147H1180.23L1180.23 66.552ZM1180.23 2.19467L1180.23 1.93199H1179.97L1179.97 2.19467H1180.23ZM1227.31 2.19467H1227.57L1227.57 1.93199H1227.31L1227.31 2.19467ZM1227.31 16.4452L1227.31 16.7079H1227.57L1227.57 16.4452H1227.31ZM1196.32 16.4452L1196.32 16.1825H1196.06L1196.06 16.4452H1196.32ZM1196.32 27.386H1196.06L1196.06 27.6487H1196.32L1196.32 27.386ZM1224.46 27.386H1224.72L1224.72 27.1233H1224.46L1224.46 27.386ZM1224.46 40.5333L1224.46 40.7959H1224.72L1224.72 40.5333H1224.46ZM1196.06 40.5333L1196.06 52.3015H1196.59L1196.59 40.5333H1196.06ZM1196.32 52.5641H1227.4L1227.4 52.0388H1196.32L1196.32 52.5641ZM1227.14 52.3015L1227.14 66.552H1227.66L1227.66 52.3015H1227.14ZM1227.4 66.2893H1180.23L1180.23 66.8147H1227.4L1227.4 66.2893ZM1180.5 66.552L1180.5 2.19467H1179.97L1179.97 66.552H1180.5ZM1180.23 2.45736H1227.31L1227.31 1.93199H1180.23L1180.23 2.45736ZM1227.04 2.19467L1227.04 16.4452H1227.57L1227.57 2.19467H1227.04ZM1227.31 16.1825H1196.32L1196.32 16.7079H1227.31L1227.31 16.1825ZM1196.06 16.4452L1196.06 27.386H1196.59L1196.59 16.4452H1196.06ZM1196.32 27.6487H1224.46L1224.46 27.1233H1196.32L1196.32 27.6487ZM1224.19 27.386L1224.19 40.5333H1224.72L1224.72 27.386H1224.19ZM1224.46 40.2706H1196.32L1196.32 40.7959H1224.46L1224.46 40.2706ZM1231.95 46.7851L1231.9 46.5272L1231.67 46.5709L1231.69 46.802L1231.95 46.7851ZM1246.29 44.0269L1246.56 44.0065L1246.53 43.7135L1246.24 43.769L1246.29 44.0269ZM1257.05 40.6252L1257.09 40.3655L1257.09 40.3654L1257.05 40.6252ZM1286.47 19.6631L1286.53 19.9192L1286.75 19.8682L1286.73 19.6401L1286.47 19.6631ZM1271.58 23.0648L1271.32 23.1121L1271.37 23.382L1271.63 23.3209L1271.58 23.0648ZM1267.35 27.386L1267.39 27.1268L1267.39 27.1265L1267.35 27.386ZM1232 47.0431L1246.34 44.2849L1246.24 43.769L1231.9 46.5272L1232 47.0431ZM1246.03 44.0473C1246.31 47.6583 1247.89 50.4643 1250.42 52.3623C1252.95 54.2557 1256.41 55.2304 1260.45 55.2304L1260.45 54.705C1256.49 54.705 1253.15 53.749 1250.74 51.9418C1248.33 50.1392 1246.83 47.4749 1246.56 44.0065L1246.03 44.0473ZM1260.45 55.2304C1263.42 55.2304 1265.92 54.6274 1267.68 53.4385C1269.45 52.2415 1270.46 50.4599 1270.46 48.1642H1269.93C1269.93 50.2816 1269.01 51.9017 1267.38 53.0032C1265.74 54.1127 1263.36 54.705 1260.45 54.705L1260.45 55.2304ZM1270.46 48.1642C1270.46 47.1218 1270.28 46.1958 1269.82 45.3723C1269.37 44.5483 1268.65 43.8478 1267.62 43.2378C1265.57 42.0255 1262.24 41.147 1257.09 40.3655L1257.01 40.8849C1262.16 41.6664 1265.4 42.5347 1267.35 43.6899C1268.32 44.2635 1268.96 44.9019 1269.36 45.6265C1269.76 46.3516 1269.93 47.1839 1269.93 48.1642H1270.46ZM1257.09 40.3654C1248.56 39.0813 1242.83 36.8396 1239.23 33.6034C1235.64 30.3788 1234.14 26.1371 1234.14 20.7664H1233.62C1233.62 26.2445 1235.15 30.645 1238.88 33.994C1242.59 37.3315 1248.44 39.5948 1257.01 40.885L1257.09 40.3654ZM1234.14 20.7664C1234.14 14.3614 1236.66 9.3834 1241.04 5.99966C1245.43 2.60953 1251.71 0.802454 1259.26 0.802454L1259.26 0.277088C1251.63 0.277088 1245.23 2.1016 1240.72 5.58392C1236.2 9.07262 1233.62 14.2079 1233.62 20.7664H1234.14ZM1259.26 0.802454C1274.54 0.802454 1285.21 8.38587 1286.21 19.6861L1286.73 19.6401C1285.7 7.95555 1274.68 0.277088 1259.26 0.277088L1259.26 0.802454ZM1286.41 19.407L1271.52 22.8087L1271.63 23.3209L1286.53 19.9192L1286.41 19.407ZM1271.83 23.0175C1271.23 19.702 1269.8 17.2471 1267.62 15.6254C1265.45 14.0068 1262.56 13.2405 1259.07 13.2405L1259.07 13.7659C1262.48 13.7659 1265.25 14.5165 1267.31 16.0468C1269.36 17.574 1270.73 19.9 1271.32 23.1121L1271.83 23.0175ZM1259.07 13.2405C1256.01 13.2405 1253.68 13.8193 1252.1 14.8828C1250.51 15.9553 1249.71 17.5086 1249.71 19.3873H1250.23C1250.23 17.6803 1250.95 16.2916 1252.39 15.3184C1253.85 14.3363 1256.07 13.7659 1259.07 13.7659L1259.07 13.2405ZM1249.71 19.3873C1249.71 20.7206 1250.04 21.8048 1250.75 22.7009C1251.45 23.5912 1252.52 24.2712 1253.94 24.8374C1256.78 25.9657 1261.16 26.6822 1267.31 27.6455L1267.39 27.1265C1261.21 26.159 1256.91 25.4505 1254.14 24.3492C1252.76 23.8007 1251.79 23.1648 1251.16 22.3744C1250.54 21.5897 1250.23 20.6282 1250.23 19.3873H1249.71ZM1267.3 27.6451C1274.21 28.789 1278.91 31.0473 1281.87 34.2976C1284.84 37.5444 1286.12 41.8171 1286.12 47.0609H1286.64C1286.64 41.7318 1285.34 37.3162 1282.26 33.9434C1279.19 30.5741 1274.36 28.2814 1267.39 27.1268L1267.3 27.6451ZM1286.12 47.0609C1286.12 53.7842 1283.37 59.0155 1278.69 62.5734C1274 66.1374 1267.35 68.0362 1259.53 68.0362L1259.53 68.5615C1267.43 68.5615 1274.21 66.6448 1279.01 62.9916C1283.82 59.3322 1286.64 53.9447 1286.64 47.0609H1286.12ZM1259.53 68.0362C1251.07 68.0362 1244.45 65.8866 1239.84 62.1644C1235.24 58.4455 1232.62 53.1379 1232.21 46.7683L1231.69 46.802C1232.11 53.3038 1234.78 58.7531 1239.51 62.5731C1244.23 66.39 1250.99 68.5615 1259.53 68.5615L1259.53 68.0362Z" fill="#0EF169"/>
</svg>
