<svg width="60" height="60" viewBox="0 0 60 60" fill="none" xmlns="http://www.w3.org/2000/svg">
<path d="M32.1953 44.0208H30.487V45.7291H28.7786V44.0208H27.0703V42.3125H28.7786V40.6041H30.487V42.3125H32.1953V44.0208Z" fill="#0EF169"/>
<path d="M36.4792 23.714C36.4792 23.714 41.406 29.7444 43.1963 31.9216C44.7825 33.8521 47.9216 36.2591 51 35.235C49.6897 32.1634 48.4794 29.8366 47.4544 27.5321C44.1983 23.0434 35.8949 13.0736 35.8949 13.0736M22.8125 40.0405C22.8125 40.0405 17.6875 38.5953 17.6875 34.2612C17.6875 32.1822 17.3988 30.8813 16.3097 29.981C15.9638 29.6948 14.885 29.2883 14.3853 29.6342C14.8132 30.3867 16.0475 33.0808 15.3864 33.4839C14.4758 34.0374 11.312 32.9552 11.5768 27.7918C10.3997 27.9054 10 29.0568 10 31.2366C10 37.7035 23.0175 44.829 23.0175 44.829" stroke="#0EF169" stroke-width="1.5" stroke-miterlimit="10" stroke-linecap="round" stroke-linejoin="round"/>
<path d="M22.8123 23.2577L21.1014 22.1482L21.104 20.1734L19.323 19.9239L19.6553 17.8107L17.5421 17.4785L17.8744 15.3652L15.7603 15.033L16.0926 12.9198L13.9793 12.5875L14.3116 10.4751L12.1984 10.1429C11.5766 9.99937 10.5063 9.2144 10.1134 9C9.85116 10.6682 9.95537 14.7699 11.387 16.7345L22.8123 32.6245" stroke="#0EF169" stroke-width="1.5" stroke-miterlimit="10" stroke-linecap="round" stroke-linejoin="round"/>
<path d="M36.4792 15.8333C36.4792 12.0596 33.4195 9 29.6458 9C25.8721 9 22.8125 12.0596 22.8125 15.8333C22.8125 18.1234 22.8125 40.8766 22.8125 43.1667C22.8125 46.9404 25.8721 50 29.6458 50C33.4195 50 36.4792 46.9404 36.4792 43.1667C36.4792 40.8766 36.4792 18.1234 36.4792 15.8333Z" stroke="#0EF169" stroke-width="1.5" stroke-miterlimit="10" stroke-linecap="round" stroke-linejoin="round"/>
<path d="M29.6458 14.125C29.1928 14.125 28.7582 14.305 28.4379 14.6254C28.1175 14.9457 27.9375 15.3803 27.9375 15.8333C27.9375 16.2864 28.1175 16.7209 28.4379 17.0413C28.7582 17.3617 29.1928 17.5417 29.6458 17.5417C30.0989 17.5417 30.5334 17.3617 30.8538 17.0413C31.1742 16.7209 31.3542 16.2864 31.3542 15.8333C31.3542 15.3803 31.1742 14.9457 30.8538 14.6254C30.5334 14.305 30.0989 14.125 29.6458 14.125Z" fill="#0EF169"/>
</svg>
