<svg width="100" height="100" viewBox="0 0 100 100" fill="none" xmlns="http://www.w3.org/2000/svg">
<circle cx="50" cy="50" r="50" fill="#37358F"/>
<rect x="27.4922" y="39.6812" width="45.2975" height="21.1942" fill="#0EF169"/>
<path fill-rule="evenodd" clip-rule="evenodd" d="M67.3161 44.8427C66.6455 44.1639 66.1778 43.2801 66.0135 42.2918H34.2697C34.1048 43.2799 33.6376 44.1644 32.967 44.8427C32.2963 45.521 31.4232 45.9943 30.4467 46.1612V54.3952C31.423 54.562 32.2963 55.0349 32.967 55.7137C33.6376 56.3925 34.1048 57.2762 34.2697 58.2646H66.0125C66.1774 57.2764 66.6446 56.3925 67.3152 55.7137C67.9859 55.0349 68.859 54.562 69.8355 54.3952V46.1612C68.8592 45.9943 67.9853 45.5215 67.3152 44.8427H67.3161ZM39.6801 51.0697H33.7719C33.3403 51.0697 32.99 50.7152 32.99 50.2783C32.99 49.8414 33.3402 49.4869 33.7719 49.4869H39.6801C40.1118 49.4869 40.462 49.8413 40.462 50.2783C40.462 50.7152 40.1118 51.0697 39.6801 51.0697ZM55.189 55.3865C53.8973 56.6939 52.1132 57.5027 50.1423 57.5027C48.1714 57.5027 46.3872 56.6939 45.0955 55.3865C43.8039 54.079 43.0047 52.2733 43.0047 50.2785C43.0047 48.2836 43.8038 46.4778 45.0955 45.1704C46.3873 43.8631 48.1714 43.0543 50.1423 43.0543C52.1132 43.0543 53.8974 43.863 55.189 45.1704C56.4807 46.4779 57.2798 48.2836 57.2798 50.2785C57.2798 52.2733 56.4808 54.0792 55.189 55.3865ZM66.5127 51.0697H60.6045C60.1728 51.0697 59.8226 50.7152 59.8226 50.2783C59.8226 49.8414 60.1728 49.4869 60.6045 49.4869H66.5127C66.9443 49.4869 67.2946 49.8413 67.2946 50.2783C67.2946 50.7152 66.9443 51.0697 66.5127 51.0697ZM72.6668 37.355H27.6178C26.4903 37.355 25.5703 38.2862 25.5703 39.4273V61.128C25.5703 62.2692 26.4903 63.2004 27.6178 63.2004H72.6663C73.7938 63.2004 74.7138 62.2692 74.7138 61.128V39.4283C74.7138 38.2871 73.7938 37.3559 72.6663 37.3559L72.6668 37.355ZM71.4012 55.1202C71.4012 55.5571 71.051 55.9116 70.6193 55.9116C69.7615 55.9116 68.9848 56.2637 68.4224 56.8323C67.8601 57.4014 67.5127 58.1871 67.5127 59.0558C67.5127 59.4927 67.1625 59.8472 66.7308 59.8472L33.5539 59.8474C33.1222 59.8474 32.772 59.4929 32.772 59.056C32.772 58.1877 32.4241 57.4016 31.8623 56.8325C31.3 56.2634 30.5238 55.9117 29.6655 55.9117C29.2338 55.9117 28.8836 55.5573 28.8836 55.1203V45.4358C28.8836 44.9989 29.2338 44.6444 29.6655 44.6444C30.5233 44.6444 31.3 44.2923 31.8623 43.7237C32.4246 43.1546 32.772 42.3689 32.772 41.5002C32.772 41.0633 33.1222 40.7088 33.5539 40.7088H66.7299C67.1616 40.7088 67.5118 41.0633 67.5118 41.5002C67.5118 42.3684 67.8597 43.1546 68.4215 43.7237C68.9838 44.2928 69.76 44.6444 70.6184 44.6444C71.05 44.6444 71.4003 44.9989 71.4003 45.4358V55.1203L71.4012 55.1202Z" fill="#001035"/>
<path d="M50.143 44.252C46.8219 44.252 44.1172 46.9567 44.1172 50.2778C44.1172 53.5988 46.8219 56.3036 50.143 56.3036C53.4641 56.3036 56.1688 53.5988 56.1688 50.2778C56.1688 46.9567 53.4641 44.252 50.143 44.252ZM50.4854 52.469V53.2907H49.5952V52.5032C49.1843 52.469 48.7735 52.332 48.4996 52.1266L48.3969 52.0582L48.705 51.168L48.9104 51.3049C49.1843 51.4761 49.5609 51.6131 49.9034 51.6131C50.3142 51.6131 50.6224 51.4076 50.6224 51.0653C50.6224 50.8598 50.5196 50.6202 49.8691 50.3463C49.1844 50.0724 48.4996 49.6958 48.4996 48.8398C48.4996 48.1551 48.9447 47.6415 49.6637 47.436V46.6486H50.5539V47.4018C50.8963 47.4361 51.1702 47.5388 51.4441 47.6757L51.581 47.7784L51.2386 48.6686L51.0332 48.5659C50.8963 48.4974 50.6224 48.3262 50.1773 48.3262C49.7321 48.3262 49.561 48.5659 49.561 48.7713C49.561 49.011 49.6637 49.1479 50.3827 49.4561C50.999 49.6958 51.6837 50.1066 51.6837 51.031C51.6837 51.7158 51.2043 52.2978 50.4854 52.469Z" fill="#001035"/>
<path fill-rule="evenodd" clip-rule="evenodd" d="M28.9183 26.0076V30.9545H38.2809V32.5055C38.2809 32.7359 38.4087 32.9332 38.6179 33.0245C38.8272 33.1158 39.0565 33.0754 39.2225 32.9172L43.0113 29.3035C43.2433 29.0818 43.362 28.8037 43.362 28.481C43.362 28.1583 43.2433 27.8801 43.0113 27.6584L39.2225 24.0448C39.0565 23.8866 38.8272 23.8456 38.6179 23.9374C38.4087 24.0287 38.2809 24.2261 38.2809 24.4564V26.0074L28.9183 26.0076ZM71.3602 69.602V74.5489H61.9976V76.0999C61.9976 76.3303 61.8698 76.5276 61.6606 76.6189C61.4513 76.7102 61.2219 76.6698 61.056 76.5116L57.2672 72.8979C57.0352 72.6762 56.9165 72.3981 56.9165 72.0754C56.9165 71.7527 57.0352 71.4745 57.2672 71.2528L61.056 67.6392C61.2219 67.481 61.4513 67.44 61.6606 67.5318C61.8698 67.6231 61.9976 67.8205 61.9976 68.0508V69.6018L71.3602 69.602ZM76.9449 70.1672V73.9839C76.9449 74.2951 76.6939 74.5491 76.3865 74.5491H74.2524V69.6022H76.3865C76.6939 69.6022 76.9449 69.856 76.9449 70.1672ZM23.3359 26.573V30.3898C23.3359 30.7009 23.5869 30.9549 23.8943 30.9549H26.0284V26.0081H23.8943C23.5869 26.0081 23.3359 26.2619 23.3359 26.573Z" fill="#0EF169"/>
</svg>
