<svg width="100" height="100" viewBox="0 0 100 100" fill="none" xmlns="http://www.w3.org/2000/svg">
<path fill-rule="evenodd" clip-rule="evenodd" d="M70.1497 81.0199H51.1391V70.349H21V55.8077L50.6507 19H70.1497V53.945H79.4358V70.349H70.1497V81.0199ZM51.847 21.5H67.6497V56.445H76.9358V67.849H67.6497V78.5199H53.6391V67.849H23.5V56.6894L51.847 21.5ZM54.6166 32.6596L35.8 57.0152L38.3252 59.7033C40.6874 57.5854 45.3305 56.445 49.7291 56.445H53.6391V49.6841C53.6391 44.1162 54.7651 40.6126 57.346 37.6384C57.7102 37.2187 58.1034 36.8096 58.5265 36.4066L54.6166 32.6596ZM54.8947 36.3888L39.8766 55.8278C40.7508 55.4404 41.673 55.1237 42.6026 54.8689C44.8432 54.2547 47.3275 53.945 49.7291 53.945H51.1391V49.6841C51.1391 46.3264 51.5246 43.4985 52.459 41.0068C53.0906 39.3226 53.9493 37.8546 55.0269 36.5155L54.8947 36.3888Z" fill="#F84722"/>
</svg>
