<svg width="100" height="100" viewBox="0 0 100 100" fill="none" xmlns="http://www.w3.org/2000/svg">
<path fill-rule="evenodd" clip-rule="evenodd" d="M66.0212 81.0199H46.9291V54.8159C46.9291 48.9432 47.9548 43.9045 51.214 39.4447C46.07 43.5895 40.5449 45.3565 35.6978 45.7412L33 45.9553V29.2385L35.089 28.8903C42.5252 27.6509 49.3183 23.9584 52.2225 20.017L52.9718 19H66.0212V81.0199ZM54.8981 38.9306C50.7319 43.3148 49.4291 48.3373 49.4291 54.8159V78.5199H63.5212V21.5H54.2351C50.8139 26.143 43.3199 30.053 35.5 31.3563V43.249C36.3129 43.1845 37.1483 43.0771 38 42.9205C42.5251 42.089 47.5112 39.8722 52.0358 35.3477L55.294 38.5245C55.2941 38.5245 55.294 38.5245 55.294 38.5245C55.1593 38.6592 55.0273 38.7947 54.8981 38.9306Z" fill="#F84722"/>
</svg>
