<svg width="100" height="100" viewBox="0 0 100 100" fill="none" xmlns="http://www.w3.org/2000/svg">
<path fill-rule="evenodd" clip-rule="evenodd" d="M26.71 37.7464C27.606 26.098 37.8696 19.5 50.5769 19.5C64.9948 19.5 72.4073 26.0166 72.4073 34.8139C72.4073 41.3305 68.0087 45.3219 61.4921 46.6252V50.6166C68.9047 51.0238 73.8736 55.8298 73.8736 62.6722C73.8736 72.9358 64.9948 79.6152 49.9252 79.6152C34.3669 79.6152 26.5471 72.6099 25.651 60.7172L37.9511 57.6219C38.0718 58.5045 38.2403 59.3204 38.4536 60.0733C40.11 65.921 44.4685 67.9669 50.1696 67.9669C56.4418 67.9669 59.863 65.4417 59.863 60.5543C59.863 55.504 55.7087 53.7934 50.3325 53.7934H43.816V43.8556H49.4365C56.2789 43.8556 58.3967 41.0046 58.3967 37.4205C58.3967 33.1848 55.4643 30.8225 50.2511 30.8225C44.4139 30.8225 41.0072 33.7273 39.7277 38.2221C39.5074 38.9961 39.3501 39.8172 39.2544 40.6788L26.71 37.7464ZM64.3726 48.4635C67.4444 49.0757 70.1355 50.4273 72.2049 52.4384C74.8859 55.0438 76.3736 58.6154 76.3736 62.6722C76.3736 68.6189 73.7583 73.6054 69.0107 77.0218C64.3474 80.3775 57.7896 82.1152 49.9252 82.1152C41.8046 82.1152 35.3269 80.29 30.7196 76.5714C26.0594 72.8101 23.6461 67.3822 23.1581 60.905L23 58.8064L40.0493 54.5159L40.428 57.2829C40.8927 60.6789 42.0983 62.5908 43.5625 63.7101C45.0809 64.8708 47.2513 65.4669 50.1696 65.4669C53.0302 65.4669 54.8283 64.8815 55.8585 64.1008C56.772 63.4086 57.363 62.3531 57.363 60.5543C57.363 58.8559 56.7398 57.9887 55.7979 57.4056C54.666 56.705 52.8332 56.2934 50.3325 56.2934H41.316V43.7281L24.0529 39.6926L24.2174 37.5546C24.724 30.9676 27.9119 25.7505 32.7429 22.2338C37.5245 18.7532 43.8145 17 50.5769 17C58.1265 17 64.1713 18.702 68.3943 21.8546C72.6901 25.0615 74.9073 29.6367 74.9073 34.8139C74.9073 38.6813 73.5822 41.9444 71.1887 44.4143C69.3666 46.2946 67.0169 47.6235 64.3726 48.4635ZM41.6945 41.3556H49.4365C52.5729 41.3556 54.1292 40.6926 54.8765 40.0662C55.5377 39.512 55.8967 38.7058 55.8967 37.4205C55.8967 35.9271 55.4103 35.0459 54.7067 34.4769C53.9225 33.8426 52.524 33.3225 50.2511 33.3225C47.3328 33.3225 45.4128 34.1607 44.1579 35.3593C42.8795 36.5802 42.0189 38.4361 41.7391 40.9549L41.6945 41.3556Z" fill="#F84722"/>
</svg>
