<svg width="100" height="100" viewBox="0 0 100 100" fill="none" xmlns="http://www.w3.org/2000/svg">
<path fill-rule="evenodd" clip-rule="evenodd" d="M75.0457 81.4861H25V67.0203L49.3509 49.8214C49.3516 49.8209 49.3523 49.8204 49.353 49.8199C52.3696 47.6813 53.8667 45.9125 54.6358 44.4908C55.3809 43.1135 55.5464 41.8746 55.5464 40.5384C55.5464 38.2922 54.9004 36.8504 54.0718 35.985C53.2516 35.1283 51.9959 34.5669 50.2265 34.5669C47.9814 34.5669 46.4201 35.245 45.393 36.3696C44.3373 37.5256 43.5219 39.5081 43.5219 42.7378V45.4952L25.2444 43.7011V41.4344C25.2444 34.585 27.423 28.6407 31.8673 24.4198C36.2981 20.2117 42.6815 18 50.5523 18C57.4318 18 63.4171 20.0413 67.7178 23.8524C72.0463 27.6883 74.4755 33.1522 74.4755 39.5609C74.4755 44.2202 73.6291 48.2599 71.0401 52.1962C68.5141 56.0365 64.4577 59.5781 58.46 63.5501C56.2476 65.0479 52.3553 67.4083 48.3435 69.509L48.3447 69.5114C53.3996 67.4602 60.4549 64.9192 69.206 64.9192H75.0457V81.4861ZM47.1311 72.7139C47.2742 72.6549 47.419 72.595 47.5657 72.5344C52.6779 70.4214 59.9412 67.4192 69.206 67.4192H72.5457V78.9861H27.5V68.3152L50.7967 51.8609C57.2318 47.2993 58.0464 43.7152 58.0464 40.5384C58.0464 35.0808 54.8695 32.0669 50.2265 32.0669C45.367 32.0669 41.9494 34.7001 41.1841 40.2417C41.077 41.0166 41.0219 41.8484 41.0219 42.7378L27.7444 41.4344C27.7444 28.8086 35.7272 20.5 50.5523 20.5C63.3411 20.5 71.9755 28.0755 71.9755 39.5609C71.9755 48.1954 68.8801 53.653 57.0689 61.4729C54.5438 63.1834 49.6568 66.1156 45.0139 68.3964C45.0137 68.3965 45.0142 68.3962 45.0139 68.3964L47.1311 72.7139Z" fill="#FA4919"/>
</svg>
