<svg width="235" height="360" viewBox="0 0 235 360" fill="none" xmlns="http://www.w3.org/2000/svg">
<path d="M0.498932 360V321.182L120.593 196.756C133.417 183.239 143.988 171.397 152.306 161.23C160.739 150.948 167.036 141.186 171.195 131.943C175.354 122.701 177.434 112.881 177.434 102.483C177.434 90.6989 174.661 80.5322 169.115 71.983C163.57 63.3182 156.003 56.6752 146.414 52.054C136.825 47.3172 126.023 44.9489 114.007 44.9489C101.299 44.9489 90.2082 47.5483 80.7347 52.7472C71.2612 57.946 63.9828 65.2822 58.8995 74.7557C53.8162 84.2292 51.2745 95.3201 51.2745 108.028H0.152344C0.152344 86.4243 5.12014 67.5351 15.0557 51.3608C24.9914 35.1866 38.6239 22.6515 55.9535 13.7557C73.283 4.74433 92.9809 0.238647 115.047 0.238647C137.345 0.238647 156.985 4.68657 173.968 13.5824C191.066 22.3627 204.41 34.3778 213.999 49.6278C223.588 64.7623 228.382 81.8608 228.382 100.923C228.382 114.094 225.899 126.975 220.931 139.568C216.078 152.161 207.587 166.198 195.456 181.679C183.326 197.045 166.458 215.703 144.854 237.653L74.3228 311.477V314.077H234.101V360H0.498932Z" fill="white" fill-opacity="0.7"/>
</svg>
