<svg width="251" height="365" viewBox="0 0 251 365" fill="none" xmlns="http://www.w3.org/2000/svg">
<path d="M125.433 364.852C101.634 364.852 80.3764 360.751 61.6605 352.548C43.0601 344.346 28.33 332.966 17.4702 318.409C6.72585 303.737 0.949338 286.754 0.140625 267.46H54.5554C55.2486 277.974 58.7723 287.1 65.1264 294.841C71.5961 302.466 80.0298 308.358 90.4276 312.517C100.825 316.676 112.378 318.756 125.087 318.756C139.066 318.756 151.428 316.33 162.172 311.477C173.032 306.625 181.523 299.866 187.646 291.202C193.769 282.421 196.831 272.313 196.831 260.875C196.831 248.975 193.769 238.52 187.646 229.509C181.639 220.382 172.801 213.219 161.132 208.02C149.579 202.821 135.6 200.222 119.195 200.222H89.2145V156.551H119.195C132.365 156.551 143.918 154.183 153.854 149.446C163.905 144.709 171.761 138.124 177.422 129.69C183.083 121.141 185.913 111.148 185.913 99.7103C185.913 88.7349 183.429 79.2036 178.462 71.1165C173.609 62.9138 166.678 56.5019 157.666 51.8807C148.77 47.2595 138.257 44.9489 126.126 44.9489C114.573 44.9489 103.771 47.0862 93.7202 51.3608C83.7846 55.5199 75.6974 61.5275 69.4588 69.3835C63.2202 77.1241 59.8698 86.4242 59.4077 97.2841H7.59233C8.16998 78.1061 13.831 61.2387 24.5753 46.6818C35.4351 32.125 49.7609 20.7453 67.5526 12.5426C85.3442 4.33997 105.1 0.238647 126.82 0.238647C149.579 0.238647 169.219 4.68657 185.74 13.5824C202.376 22.3627 215.2 34.089 224.212 48.7614C233.339 63.4337 237.844 79.4924 237.729 96.9375C237.844 116.809 232.299 133.676 221.092 147.54C210.001 161.403 195.214 170.704 176.729 175.44V178.213C200.297 181.795 218.551 191.152 231.49 206.287C244.545 221.421 251.015 240.195 250.899 262.608C251.015 282.133 245.585 299.635 234.609 315.117C223.75 330.598 208.904 342.786 190.072 351.682C171.241 360.462 149.695 364.852 125.433 364.852Z" fill="white" fill-opacity="0.7"/>
</svg>
