<svg width="201" height="67" viewBox="0 0 201 67" fill="none" xmlns="http://www.w3.org/2000/svg">
<rect x="1" y="1" width="199" height="65" rx="9" stroke="white" stroke-width="2"/>
<path d="M70.8556 45.4587H62.9272L61.0232 51.0807H57.665L65.1747 30.2806H68.6637L76.1734 51.0807H72.758L70.8556 45.4587ZM63.7483 42.8644H70.0329L66.9348 33.7402H66.8481L63.7483 42.8644Z" fill="white"/>
<path d="M92.3924 43.4991C92.3924 48.2117 89.8701 51.2394 86.0637 51.2394C85.0995 51.2899 84.1406 51.0677 83.2967 50.5985C82.4529 50.1293 81.7582 49.4319 81.2923 48.5862H81.2202V56.0975H78.1074V35.9158H81.1205V38.4381H81.1778C81.6651 37.5965 82.3715 36.9027 83.2218 36.4306C84.0721 35.9585 85.0344 35.7258 86.0065 35.7571C89.8553 35.7571 92.3924 38.7996 92.3924 43.4991ZM89.1929 43.4991C89.1929 40.4288 87.6062 38.4103 85.1853 38.4103C82.8069 38.4103 81.2072 40.4713 81.2072 43.4991C81.2072 46.5547 82.8069 48.601 85.1853 48.601C87.6062 48.601 89.1929 46.5972 89.1929 43.4991Z" fill="white"/>
<path d="M109.083 43.4992C109.083 48.2118 106.561 51.2395 102.754 51.2395C101.79 51.29 100.831 51.0678 99.9871 50.5986C99.1433 50.1294 98.4486 49.432 97.9827 48.5863H97.9107V56.0977H94.7979V35.9159H97.8109V38.4382H97.8681C98.3555 37.5966 99.0619 36.9028 99.9122 36.4307C100.762 35.9587 101.725 35.7259 102.697 35.7573C106.546 35.7573 109.083 38.7997 109.083 43.4992ZM105.883 43.4992C105.883 40.4289 104.297 38.4104 101.876 38.4104C99.4974 38.4104 97.8976 40.4714 97.8976 43.4992C97.8976 46.5548 99.4974 48.6011 101.876 48.6011C104.297 48.6011 105.883 46.5973 105.883 43.4992H105.883Z" fill="white"/>
<path d="M120.114 45.2853C120.345 47.348 122.349 48.7023 125.087 48.7023C127.711 48.7023 129.598 47.348 129.598 45.4881C129.598 43.8736 128.46 42.9069 125.764 42.2444L123.068 41.595C119.249 40.6725 117.476 38.8862 117.476 35.9877C117.476 32.3989 120.603 29.9338 125.044 29.9338C129.44 29.9338 132.453 32.3989 132.554 35.9877H129.412C129.224 33.912 127.508 32.659 125 32.659C122.493 32.659 120.777 33.9267 120.777 35.7718C120.777 37.2423 121.873 38.1076 124.554 38.7701L126.845 39.3328C131.113 40.342 132.886 42.0563 132.886 45.0987C132.886 48.9902 129.786 51.4274 124.856 51.4274C120.243 51.4274 117.129 49.0474 116.928 45.2852L120.114 45.2853Z" fill="white"/>
<path d="M139.605 32.327V35.9158H142.489V38.3809H139.605V46.7412C139.605 48.0399 140.182 48.6452 141.45 48.6452C141.792 48.6392 142.134 48.6152 142.474 48.5731V51.0235C141.904 51.13 141.325 51.1782 140.745 51.1674C137.675 51.1674 136.477 50.0142 136.477 47.0732V38.3809H134.272V35.9158H136.477V32.327H139.605Z" fill="white"/>
<path d="M144.157 43.4991C144.157 38.7277 146.967 35.7294 151.35 35.7294C155.746 35.7294 158.544 38.7276 158.544 43.4991C158.544 48.2837 155.761 51.2689 151.35 51.2689C146.94 51.2689 144.157 48.2837 144.157 43.4991ZM155.372 43.4991C155.372 40.226 153.872 38.2942 151.35 38.2942C148.827 38.2942 147.329 40.2407 147.329 43.4991C147.329 46.7853 148.827 48.7024 151.35 48.7024C153.872 48.7024 155.372 46.7853 155.372 43.4991H155.372Z" fill="white"/>
<path d="M161.11 35.9158H164.079V38.497H164.151C164.352 37.6909 164.824 36.9784 165.489 36.4795C166.153 35.9805 166.969 35.7255 167.799 35.7572C168.158 35.7559 168.515 35.7949 168.865 35.8733V38.7849C168.413 38.6465 167.94 38.583 167.467 38.5968C167.015 38.5785 166.564 38.6582 166.145 38.8305C165.727 39.0029 165.351 39.2637 165.042 39.5952C164.734 39.9267 164.501 40.3209 164.36 40.7508C164.219 41.1807 164.172 41.6362 164.223 42.0858V51.0808H161.11L161.11 35.9158Z" fill="white"/>
<path d="M183.219 46.6267C182.8 49.3796 180.119 51.2689 176.689 51.2689C172.277 51.2689 169.539 48.3131 169.539 43.5711C169.539 38.8144 172.292 35.7294 176.558 35.7294C180.754 35.7294 183.392 38.6115 183.392 43.2096V44.2761H172.681V44.4642C172.632 45.0223 172.702 45.5846 172.886 46.1136C173.071 46.6426 173.366 47.1263 173.752 47.5326C174.138 47.9389 174.605 48.2584 175.124 48.47C175.643 48.6815 176.201 48.7803 176.761 48.7597C177.496 48.8286 178.235 48.6582 178.866 48.2739C179.497 47.8896 179.987 47.3119 180.263 46.6267L183.219 46.6267ZM172.696 42.1006H180.278C180.306 41.5988 180.23 41.0966 180.054 40.6255C179.879 40.1545 179.608 39.7248 179.259 39.3634C178.91 39.002 178.489 38.7167 178.025 38.5254C177.56 38.3341 177.061 38.2409 176.558 38.2517C176.051 38.2487 175.549 38.346 175.08 38.5382C174.61 38.7304 174.184 39.0136 173.825 39.3715C173.466 39.7293 173.181 40.1547 172.988 40.6231C172.794 41.0915 172.695 41.5937 172.696 42.1006V42.1006Z" fill="white"/>
<path d="M63.3591 14.6244C64.0117 14.5776 64.6666 14.6762 65.2764 14.9131C65.8863 15.15 66.436 15.5193 66.8859 15.9944C67.3358 16.4694 67.6746 17.0384 67.878 17.6603C68.0813 18.2822 68.1441 18.9415 68.0618 19.5905C68.0618 22.7835 66.3362 24.6189 63.3591 24.6189H59.749V14.6244H63.3591ZM61.3013 23.2055H63.1857C63.652 23.2333 64.1187 23.1569 64.5518 22.9816C64.9848 22.8064 65.3733 22.5368 65.6891 22.1925C66.0048 21.8482 66.2398 21.4378 66.3769 20.9912C66.514 20.5446 66.5498 20.0731 66.4817 19.6109C66.5449 19.1506 66.5054 18.6819 66.3662 18.2386C66.227 17.7953 65.9914 17.3883 65.6764 17.0467C65.3614 16.7051 64.9748 16.4374 64.5441 16.2629C64.1135 16.0883 63.6496 16.0111 63.1857 16.0368H61.3013V23.2055Z" fill="white"/>
<path d="M69.8166 20.8443C69.7692 20.3486 69.8259 19.8485 69.9831 19.376C70.1403 18.9036 70.3945 18.4692 70.7294 18.1007C71.0643 17.7322 71.4725 17.4378 71.9278 17.2364C72.3832 17.0349 72.8756 16.9308 73.3735 16.9308C73.8715 16.9308 74.3639 17.0349 74.8193 17.2364C75.2746 17.4378 75.6828 17.7322 76.0177 18.1007C76.3526 18.4692 76.6068 18.9036 76.764 19.376C76.9212 19.8485 76.9779 20.3486 76.9305 20.8443C76.9788 21.3404 76.9228 21.8412 76.766 22.3145C76.6092 22.7877 76.3552 23.2229 76.0202 23.5921C75.6852 23.9613 75.2767 24.2563 74.8209 24.4582C74.3651 24.6601 73.8721 24.7644 73.3735 24.7644C72.875 24.7644 72.382 24.6601 71.9262 24.4582C71.4704 24.2563 71.0619 23.9613 70.7269 23.5921C70.3919 23.2229 70.1379 22.7877 69.9811 22.3145C69.8243 21.8412 69.7683 21.3404 69.8166 20.8443ZM75.3994 20.8443C75.3994 19.2094 74.6649 18.2533 73.376 18.2533C72.0821 18.2533 71.3543 19.2094 71.3543 20.8443C71.3543 22.4923 72.0822 23.441 73.376 23.441C74.665 23.441 75.3994 22.4857 75.3994 20.8443H75.3994Z" fill="white"/>
<path d="M86.3854 24.6188H84.8413L83.2824 19.0638H83.1647L81.6124 24.6188H80.0829L78.0039 17.0764H79.5137L80.8648 22.8316H80.9761L82.5267 17.0764H83.9547L85.5054 22.8316H85.6232L86.9678 17.0764H88.4563L86.3854 24.6188Z" fill="white"/>
<path d="M90.2051 17.0763H91.638V18.2745H91.7492C91.9379 17.8441 92.2562 17.4834 92.6596 17.2425C93.0631 17.0016 93.5317 16.8926 94 16.9307C94.367 16.9031 94.7355 16.9584 95.0782 17.0926C95.4209 17.2268 95.729 17.4363 95.9797 17.7057C96.2305 17.9751 96.4173 18.2975 96.5266 18.649C96.6358 19.0004 96.6645 19.3719 96.6106 19.736V24.6186H95.1221V20.1098C95.1221 18.8977 94.5954 18.2949 93.4946 18.2949C93.2454 18.2833 92.9967 18.3257 92.7654 18.4192C92.5342 18.5128 92.3259 18.6552 92.1548 18.8367C91.9838 19.0183 91.854 19.2346 91.7744 19.471C91.6948 19.7074 91.6672 19.9582 91.6936 20.2063V24.6187H90.2051L90.2051 17.0763Z" fill="white"/>
<path d="M98.9824 14.132H100.471V24.6187H98.9824V14.132Z" fill="white"/>
<path d="M102.54 20.8443C102.493 20.3486 102.55 19.8485 102.707 19.376C102.864 18.9035 103.118 18.4691 103.453 18.1006C103.788 17.7321 104.196 17.4377 104.652 17.2363C105.107 17.0348 105.6 16.9307 106.098 16.9307C106.596 16.9307 107.088 17.0348 107.543 17.2363C107.999 17.4377 108.407 17.7321 108.742 18.1006C109.077 18.4691 109.331 18.9035 109.488 19.376C109.646 19.8485 109.702 20.3486 109.655 20.8443C109.703 21.3405 109.647 21.8413 109.49 22.3145C109.333 22.7877 109.079 23.2229 108.744 23.5921C108.409 23.9613 108.001 24.2563 107.545 24.4582C107.089 24.6601 106.596 24.7644 106.098 24.7644C105.599 24.7644 105.106 24.6601 104.65 24.4582C104.194 24.2563 103.786 23.9613 103.451 23.5921C103.116 23.2229 102.862 22.7877 102.705 22.3145C102.548 21.8413 102.492 21.3405 102.54 20.8443ZM108.123 20.8443C108.123 19.2094 107.389 18.2533 106.1 18.2533C104.806 18.2533 104.078 19.2094 104.078 20.8443C104.078 22.4923 104.806 23.441 106.1 23.441C107.389 23.441 108.123 22.4858 108.123 20.8443H108.123Z" fill="white"/>
<path d="M111.221 22.4857C111.221 21.128 112.232 20.3453 114.026 20.2341L116.069 20.1163V19.4653C116.069 18.6687 115.542 18.2189 114.525 18.2189C113.694 18.2189 113.118 18.5239 112.953 19.0572H111.512C111.664 17.7617 112.883 16.9307 114.594 16.9307C116.485 16.9307 117.551 17.8721 117.551 19.4653V24.6187H116.118V23.5587H116C115.761 23.939 115.426 24.2489 115.028 24.457C114.63 24.665 114.183 24.7637 113.735 24.743C113.418 24.7759 113.098 24.7421 112.795 24.6438C112.493 24.5455 112.214 24.3848 111.977 24.1721C111.74 23.9595 111.55 23.6995 111.42 23.409C111.29 23.1186 111.222 22.804 111.221 22.4857ZM116.069 21.8412V21.2106L114.227 21.3284C113.188 21.3979 112.717 21.7512 112.717 22.4162C112.717 23.095 113.306 23.49 114.116 23.49C114.353 23.514 114.593 23.4901 114.821 23.4196C115.049 23.3491 115.26 23.2335 115.442 23.0796C115.624 22.9258 115.774 22.7369 115.881 22.5241C115.989 22.3114 116.053 22.0791 116.069 21.8412Z" fill="white"/>
<path d="M119.508 20.8443C119.508 18.461 120.733 16.9512 122.639 16.9512C123.11 16.9295 123.578 17.0424 123.987 17.2767C124.397 17.5111 124.731 17.8571 124.952 18.2745H125.063V14.132H126.551V24.6187H125.125V23.4271H125.007C124.77 23.8416 124.424 24.1834 124.006 24.4154C123.589 24.6473 123.116 24.7606 122.639 24.743C120.72 24.7431 119.508 23.2333 119.508 20.8443ZM121.045 20.8443C121.045 22.4441 121.8 23.4067 123.061 23.4067C124.315 23.4067 125.091 22.4302 125.091 20.8509C125.091 19.2789 124.307 18.2885 123.061 18.2885C121.808 18.2885 121.045 19.2576 121.045 20.8443H121.045Z" fill="white"/>
<path d="M132.71 20.8443C132.663 20.3486 132.719 19.8485 132.877 19.376C133.034 18.9036 133.288 18.4692 133.623 18.1007C133.958 17.7322 134.366 17.4378 134.821 17.2364C135.277 17.0349 135.769 16.9308 136.267 16.9308C136.765 16.9308 137.257 17.0349 137.713 17.2364C138.168 17.4378 138.576 17.7322 138.911 18.1007C139.246 18.4692 139.5 18.9036 139.658 19.376C139.815 19.8485 139.871 20.3486 139.824 20.8443C139.872 21.3404 139.816 21.8412 139.66 22.3145C139.503 22.7877 139.249 23.2229 138.914 23.5921C138.579 23.9613 138.17 24.2563 137.714 24.4582C137.259 24.6601 136.766 24.7644 136.267 24.7644C135.769 24.7644 135.276 24.6601 134.82 24.4582C134.364 24.2563 133.955 23.9613 133.62 23.5921C133.285 23.2229 133.031 22.7877 132.875 22.3145C132.718 21.8412 132.662 21.3404 132.71 20.8443ZM138.293 20.8443C138.293 19.2094 137.558 18.2533 136.27 18.2533C134.976 18.2533 134.248 19.2094 134.248 20.8443C134.248 22.4923 134.976 23.441 136.27 23.441C137.559 23.441 138.293 22.4857 138.293 20.8443Z" fill="white"/>
<path d="M141.821 17.0763H143.254V18.2745H143.365C143.554 17.8441 143.872 17.4834 144.276 17.2425C144.679 17.0016 145.148 16.8926 145.616 16.9307C145.983 16.9031 146.352 16.9584 146.694 17.0926C147.037 17.2268 147.345 17.4363 147.596 17.7057C147.847 17.9751 148.034 18.2975 148.143 18.649C148.252 19.0004 148.281 19.3719 148.227 19.736V24.6186H146.738V20.1098C146.738 18.8977 146.212 18.2949 145.111 18.2949C144.862 18.2833 144.613 18.3257 144.382 18.4192C144.15 18.5128 143.942 18.6552 143.771 18.8367C143.6 19.0183 143.47 19.2346 143.391 19.471C143.311 19.7074 143.283 19.9582 143.31 20.2063V24.6187H141.821V17.0763Z" fill="white"/>
<path d="M156.637 15.1984V17.1106H158.271V18.3644H156.637V22.2427C156.637 23.0328 156.962 23.3788 157.703 23.3788C157.893 23.3782 158.082 23.3667 158.271 23.3444V24.5843C158.004 24.6321 157.733 24.6576 157.461 24.6604C155.806 24.6604 155.147 24.078 155.147 22.6239V18.3643H153.949V17.1105H155.147V15.1984H156.637Z" fill="white"/>
<path d="M160.306 14.132H161.781V18.2884H161.899C162.097 17.8541 162.424 17.4913 162.835 17.2495C163.247 17.0077 163.723 16.8987 164.199 16.9373C164.564 16.9175 164.929 16.9784 165.268 17.1158C165.606 17.2532 165.911 17.4637 166.159 17.7323C166.407 18.0009 166.593 18.3209 166.703 18.6695C166.813 19.0181 166.845 19.3868 166.796 19.7492V24.6188H165.306V20.1164C165.306 18.9116 164.745 18.3015 163.693 18.3015C163.438 18.2805 163.18 18.3157 162.939 18.4046C162.699 18.4934 162.48 18.6338 162.299 18.816C162.118 18.9981 161.979 19.2176 161.892 19.459C161.805 19.7004 161.772 19.958 161.794 20.2137V24.6187H160.306L160.306 14.132Z" fill="white"/>
<path d="M175.475 22.5823C175.273 23.2716 174.835 23.8679 174.237 24.2668C173.64 24.6657 172.921 24.8418 172.207 24.7643C171.71 24.7775 171.216 24.6823 170.76 24.4854C170.303 24.2886 169.895 23.9947 169.563 23.6243C169.232 23.2539 168.985 22.8158 168.84 22.3404C168.695 21.865 168.655 21.3637 168.723 20.8713C168.656 20.3774 168.697 19.875 168.842 19.3981C168.987 18.9213 169.233 18.4812 169.562 18.1075C169.892 17.7339 170.298 17.4355 170.753 17.2324C171.208 17.0294 171.702 16.9265 172.2 16.9308C174.299 16.9308 175.565 18.3646 175.565 20.733V21.2524H170.239V21.3358C170.216 21.6126 170.25 21.8912 170.341 22.1538C170.432 22.4163 170.576 22.6571 170.765 22.8605C170.954 23.0639 171.184 23.2256 171.439 23.3352C171.695 23.4447 171.97 23.4997 172.248 23.4966C172.604 23.5393 172.964 23.4752 173.284 23.3124C173.603 23.1496 173.867 22.8954 174.042 22.5822L175.475 22.5823ZM170.239 20.1516H174.049C174.067 19.8984 174.033 19.6442 173.948 19.4051C173.862 19.1661 173.728 18.9475 173.553 18.7635C173.378 18.5795 173.167 18.4341 172.932 18.3366C172.698 18.2392 172.446 18.1919 172.192 18.1977C171.935 18.1944 171.679 18.2428 171.441 18.3398C171.202 18.4369 170.985 18.5807 170.803 18.7628C170.621 18.9449 170.478 19.1616 170.381 19.4001C170.284 19.6386 170.236 19.8941 170.239 20.1516H170.239Z" fill="white"/>
<path d="M41.4886 34.0034C41.5066 32.6054 41.878 31.2346 42.5681 30.0186C43.2582 28.8027 44.2447 27.781 45.4358 27.0488C44.6792 25.9681 43.681 25.0788 42.5205 24.4514C41.36 23.824 40.0692 23.4759 38.7506 23.4346C35.9379 23.1394 33.2111 25.1177 31.7778 25.1177C30.3167 25.1177 28.1099 23.464 25.7336 23.5128C24.1965 23.5625 22.6984 24.0095 21.3854 24.8102C20.0724 25.611 18.9893 26.7382 18.2414 28.082C15.002 33.6906 17.4183 41.9334 20.5214 46.4669C22.074 48.6869 23.8885 51.1666 26.2627 51.0787C28.586 50.9823 29.4537 49.5972 32.2582 49.5972C35.0366 49.5972 35.8507 51.0787 38.2731 51.0228C40.7661 50.9823 42.3369 48.793 43.835 46.552C44.9505 44.9702 45.8089 43.222 46.3783 41.372C44.9299 40.7594 43.6939 39.734 42.8244 38.4237C41.9549 37.1134 41.4903 35.576 41.4886 34.0034Z" fill="white"/>
<path d="M36.9126 20.453C38.2719 18.8212 38.9416 16.7238 38.7794 14.6063C36.7027 14.8244 34.7844 15.8169 33.4067 17.3861C32.7331 18.1527 32.2172 19.0445 31.8885 20.0106C31.5598 20.9767 31.4247 21.9981 31.491 23.0164C32.5297 23.0271 33.5574 22.802 34.4965 22.358C35.4356 21.9139 36.2617 21.2626 36.9126 20.453Z" fill="white"/>
</svg>
