<svg width="18" height="10" viewBox="0 0 18 10" fill="none" xmlns="http://www.w3.org/2000/svg">
<path fill-rule="evenodd" clip-rule="evenodd" d="M13.0246 0.170659L17.1773 4.32335C17.4048 4.56512 17.4048 4.93488 17.1773 5.16243L13.0246 9.32934C12.7828 9.55689 12.4131 9.55689 12.1855 9.32934C11.958 9.1018 11.958 8.71781 12.1855 8.49027L15.9258 4.75L12.1855 1.00973C11.958 0.767964 11.958 0.398204 12.1855 0.170659C12.4131 -0.0568862 12.7828 -0.0568862 13.0246 0.170659ZM6.25198 4.13043H10.6453C11.002 4.13043 11.2648 4.41205 11.2648 4.75C11.2648 5.08794 11.002 5.36956 10.6453 5.36956H6.25198H0.619565C0.281621 5.36956 0 5.08794 0 4.75C0 4.41205 0.281621 4.13043 0.619565 4.13043H6.25198Z" fill="white"/>
</svg>
