<svg width="16" height="30" viewBox="0 0 16 30" fill="none" xmlns="http://www.w3.org/2000/svg">
<path d="M0.666686 14.8854C0.693265 14.5137 0.843632 14.1617 1.09377 13.8855L13.0934 0.552572C13.4915 0.109647 14.0958 -0.0871911 14.6784 0.0362149C15.2611 0.159621 15.7336 0.58452 15.918 1.15083C16.1025 1.71715 15.9707 2.33883 15.5724 2.78166L4.57282 15L15.5724 27.2183C15.9707 27.6612 16.1025 28.2829 15.918 28.8492C15.7336 29.4155 15.2611 29.8404 14.6784 29.9638C14.0958 30.0872 13.4915 29.8904 13.0934 29.4474L1.09377 16.1145C0.79076 15.7796 0.636639 15.3361 0.666686 14.8854Z" fill="#001B60"/>
</svg>
