<svg width="172" height="33" viewBox="0 0 172 33" fill="none" xmlns="http://www.w3.org/2000/svg">
<path d="M0.595703 0.945312H13.1618C15.5554 0.945312 17.3505 1.5437 18.6803 2.54101C20.143 3.73778 20.9408 5.46645 20.9408 7.59405C20.9408 10.0541 19.9435 11.5833 17.9489 12.5141V12.6471C20.6084 13.5114 22.1376 15.905 22.1376 18.7639C22.1376 21.4899 21.0738 23.6175 19.3451 24.9473C17.8824 26.0111 16.0208 26.4765 13.4943 26.4765H0.595703V0.945312ZM11.8986 10.9184C13.2283 10.9184 14.2256 10.1871 14.2256 8.65785C14.2256 7.19513 13.2283 6.46377 11.8321 6.46377H7.51039V10.8519H11.8986V10.9184ZM12.4969 20.825C14.0261 20.825 15.1564 19.8942 15.1564 18.232C15.1564 16.4369 13.9597 15.639 12.4969 15.639H7.57688V20.8915H12.4969V20.825Z" fill="white"/>
<path d="M23.2676 0.945312H29.8498V26.543H23.2676V0.945312Z" fill="white"/>
<path d="M31.1797 17.4356C31.1797 11.6512 34.903 7.79492 40.6874 7.79492C46.4718 7.79492 50.1286 11.7177 50.1286 17.4356C50.1286 23.22 46.4718 27.0763 40.6874 27.0763C34.903 27.0763 31.1797 23.22 31.1797 17.4356ZM43.5463 17.4356C43.5463 14.2442 42.549 12.2496 40.5544 12.2496C38.5598 12.2496 37.629 14.2442 37.629 17.4356C37.629 20.627 38.5598 22.6881 40.5544 22.6881C42.549 22.6216 43.5463 20.627 43.5463 17.4356Z" fill="white"/>
<path d="M50.8604 17.4356C50.8604 11.6512 54.5836 7.79492 60.368 7.79492C66.1524 7.79492 69.7428 11.6512 69.7428 17.4356C69.7428 23.22 66.086 27.0763 60.3016 27.0763C54.5836 27.0763 50.8604 23.22 50.8604 17.4356ZM63.227 17.4356C63.227 14.2442 62.2297 12.2496 60.2351 12.2496C58.2404 12.2496 57.3096 14.2442 57.3096 17.4356C57.3096 20.627 58.2404 22.6881 60.2351 22.6881C62.2297 22.6216 63.227 20.627 63.227 17.4356Z" fill="white"/>
<path d="M71.0723 8.25846H77.1891V10.9844H77.3221C78.5188 8.85685 80.181 7.72656 82.8405 7.72656C85.1676 7.72656 86.8963 8.85685 87.7606 10.8515H87.8936C89.3563 8.45792 91.2844 7.72656 93.545 7.72656C97.8002 7.72656 99.5953 10.8515 99.5953 15.0402V26.476H93.2126V16.1705C93.2126 14.3088 92.6142 13.112 91.0185 13.112C89.4228 13.112 88.6249 14.5748 88.6249 16.5694V26.476H82.2421V16.1705C82.2421 14.3088 81.6438 13.112 80.0481 13.112C78.4524 13.112 77.6545 14.5748 77.6545 16.5694V26.476H71.0723V8.25846Z" fill="white"/>
<path d="M107.64 24.0829H107.574V26.4765H101.457V0.945312H107.84V10.1206H107.973C109.17 8.52487 110.832 7.66054 113.159 7.66054C117.746 7.66054 120.406 11.7828 120.406 17.3012C120.406 23.4845 117.547 27.0749 112.76 27.0749C110.765 27.0749 108.704 26.144 107.64 24.0829ZM113.824 17.2347C113.824 14.3093 112.76 12.3811 110.832 12.3811C108.837 12.3811 107.64 14.3093 107.64 17.2347C107.64 20.1602 108.904 22.0883 110.832 22.0883C112.76 22.0883 113.824 20.2267 113.824 17.2347Z" fill="white"/>
<path d="M121.137 17.3672C121.137 11.6493 124.927 7.72656 130.379 7.72656C133.105 7.72656 135.166 8.5909 136.762 10.1201C138.889 12.1812 139.82 15.3726 139.754 19.0959H127.52C127.786 21.3565 128.85 22.5532 130.778 22.5532C131.908 22.5532 132.905 22.0213 133.304 20.8246H139.488C138.424 25.0133 135.166 27.0744 130.578 27.0744C124.927 27.0079 121.137 23.1516 121.137 17.3672ZM127.52 15.4391H133.371C133.238 13.245 132.041 12.1147 130.512 12.1147C128.717 12.0482 127.719 13.3115 127.52 15.4391Z" fill="white"/>
<path d="M147.001 11.3852H147.134C148.464 8.85864 150.193 7.86133 152.387 7.86133C152.918 7.86133 153.251 7.92782 153.45 8.06079V13.6457H153.317C149.528 12.9809 147.334 14.776 147.334 18.8982V26.5443H140.884V8.26025H147.001V11.3852Z" fill="white"/>
<path d="M154.115 26.5426H160.298C160.564 27.3404 161.362 28.0718 162.891 28.0718C164.952 28.0718 165.683 26.8085 165.683 24.8804V23.5506H165.551C164.553 24.7474 163.157 25.6117 161.162 25.6117C157.24 25.6117 153.782 22.6863 153.782 16.9684C153.782 11.7159 156.575 7.66016 160.83 7.66016C163.29 7.66016 164.753 8.65747 165.75 10.1867H165.883V8.19206H172V24.0161C172 26.9415 171.002 29.2021 169.473 30.5318C167.878 31.9281 165.617 32.5264 163.024 32.5264C158.104 32.5929 154.713 30.5983 154.115 26.5426ZM165.949 16.7024C165.949 14.4419 164.886 12.5802 163.024 12.5802C161.229 12.5802 160.099 14.1759 160.099 16.7024C160.099 19.1625 161.229 20.8911 163.024 20.8911C164.819 20.8911 165.949 19.096 165.949 16.7024Z" fill="white"/>
</svg>
