<?xml version="1.0" encoding="utf-8"?>
<!-- Generator: Adobe Illustrator 26.0.1, SVG Export Plug-In . SVG Version: 6.00 Build 0)  -->
<svg version="1.1" id="Capa_1" xmlns="http://www.w3.org/2000/svg" xmlns:xlink="http://www.w3.org/1999/xlink" x="0px" y="0px"
	 viewBox="0 0 600 112.7" style="enable-background:new 0 0 600 112.7;" xml:space="preserve">
<style type="text/css">
	.st0{fill:#FFFFFF;}
</style>
<path class="st0" d="M77.3,83.3c-5.2,0-10.1-2.5-13.4-7c-3.3,4.4-8.2,7-13.4,7c-9.5,0-17.3-8.5-17.3-18.9l0-2.4c0-2.2,1.8-4,4-4
	c2.2,0,4,1.8,4,4l0,2.2c0,6.2,4.2,11.1,9.4,11.1c5.2,0,9.4-5,9.4-11.1c0,0,0-17,0-17c0-2.2,1.8-4,4-4c2.2,0,4,1.8,4,4v17
	c0,6.2,4.2,11.1,9.4,11.1c5.2,0,9.4-5,9.4-11.1v-17c0-2.2,1.8-4,4-4c2.2,0,4,1.8,4,4v17C94.7,74.8,86.9,83.3,77.3,83.3z M30,81.6
	c-0.4,0-0.9-0.1-1.4-0.3c-6.8-3.1-11.2-9.9-11.3-17.2c0,0,0-32,0-32c0-2.2,1.8-4,4-4c2.2,0,4,1.8,4,4c0,0,0,31.7,0,31.8
	c0,4,2.2,7.7,5.7,9.7c0.1,0.1,0.3,0.2,0.5,0.3c1.8,1,2.5,2,2.5,3.6C34,79.8,32.2,81.6,30,81.6z M30.1,45.2c2.3-0.9,4.2-1.1,6.4-1.1
	c10.5,0,19.1,8.6,19.1,19.1c0,2.3-0.4,4.5-1.3,6.7c-0.7,1.4-2.1,2.2-3.6,2.2c-1.1,0-2.1-0.4-2.9-1.2c-0.7-0.8-1.2-1.8-1.1-2.8
	c0-0.6,0.1-1,0.3-1.6c0,0,0.2-0.7,0.2-0.8c0.2-0.8,0.3-1.6,0.3-2.5c0-6.1-5-11.1-11.1-11.1c-0.8,0-1.6,0.1-2.4,0.3
	c-0.2,0-0.5,0.1-0.8,0.2c-2.8,0.7-4.3-0.6-5-2.2C27.6,48.7,27.9,46.4,30.1,45.2z M54.8,1.7C24.5,1.7,0,26.2,0,56.5
	c0,30.2,24.5,54.8,54.8,54.8c30.2,0,54.8-24.5,54.8-54.8C109.5,26.2,85,1.7,54.8,1.7z"/>
<path class="st0" d="M179.8,51.9c0-10.3-7.8-17.8-18.5-17.8c-10.6,0-18.6,7.6-18.6,17.8c0,10.1,8,17.8,18.6,17.8
	C172,69.6,179.8,62.1,179.8,51.9z M161.6,30.5c13,0,22.3,9.2,22.3,21.4c0,12.2-9.2,21.4-22.3,21.4c-8.1,0-14.9-3.7-18.8-9.5
	l-0.6,8.7H139V16.7h4v22.9C146.9,34,153.6,30.5,161.6,30.5L161.6,30.5L161.6,30.5z"/>
<path class="st0" d="M207.6,73.2c-11.4,0-18.7-7.1-18.7-18.1V31.3h4v23.3c0,9.3,5.6,15,14.7,15c9.1,0,14.7-5.8,14.7-15V31.3h4v23.8
	C226.2,66.1,219,73.2,207.6,73.2z"/>
<path class="st0" d="M247.9,73.2c-10,0-16.3-4.8-16.9-12.5h3.9c0.6,5.7,5.6,9,13.1,9c7.6,0,12.7-3.3,12.7-8.4
	c0-6.4-6.6-7.5-13.3-8.6c-7.5-1.2-15.5-2.5-15.5-11c0-6.7,6.4-11.3,15.8-11.3c9.5,0,15.5,4.6,15.9,11.9h-3.8
	c-0.4-5.4-4.8-8.5-12.2-8.5c-7.2,0-11.8,3.1-11.8,7.8c0,5.6,5.9,6.5,12.6,7.6c7.6,1.2,16.3,2.6,16.3,12
	C264.6,68.5,257.9,73.2,247.9,73.2z"/>
<path class="st0" d="M272,31.3h4v41.1h-4V31.3z"/>
<path class="st0" d="M305.7,30.5c10.5,0,17,7.1,17,17.5v24.4h-4V48.8c0-9.3-5.2-14.8-13.9-14.8c-8.4,0-15.4,6.8-15.4,15v23.5h-4
	V31.3h2.9l0.8,8.3C292.3,34.1,298.5,30.5,305.7,30.5L305.7,30.5z"/>
<path class="st0" d="M331.8,49.7h35.7c-1-9.4-8.3-15.7-17.7-15.7C340.1,34,332.8,40.5,331.8,49.7z M371.4,53.2h-39.6
	c0.6,9.6,8.1,16.4,18,16.4c7.2,0,12.9-3.4,16.1-9.2h4.2c-4,8.2-11.2,12.8-20.3,12.8c-12.5,0-22-9.2-22-21.4c0-12.1,9.5-21.4,22-21.4
	c12.8,0,21.6,9.3,21.6,21.2C371.4,52.2,371.4,52.7,371.4,53.2z"/>
<path class="st0" d="M391.6,73.2c-10,0-16.3-4.8-16.9-12.5h3.9c0.6,5.7,5.6,9,13.1,9c7.6,0,12.7-3.3,12.7-8.4
	c0-6.4-6.6-7.5-13.3-8.6c-7.5-1.2-15.5-2.5-15.5-11c0-6.7,6.4-11.3,15.8-11.3c9.4,0,15.5,4.6,15.9,11.9h-3.8
	c-0.4-5.4-4.8-8.5-12.2-8.5c-7.2,0-11.8,3.1-11.8,7.8c0,5.6,5.9,6.5,12.6,7.6c7.6,1.2,16.3,2.6,16.3,12
	C408.3,68.5,401.6,73.2,391.6,73.2z"/>
<path class="st0" d="M428.6,73.2c-10,0-16.3-4.8-16.9-12.5h3.9c0.6,5.7,5.5,9,13.1,9c7.6,0,12.7-3.3,12.7-8.4
	c0-6.4-6.6-7.5-13.3-8.6c-7.5-1.2-15.5-2.5-15.5-11c0-6.7,6.4-11.3,15.8-11.3c9.5,0,15.5,4.6,15.9,11.9h-3.8
	c-0.4-5.4-4.8-8.5-12.2-8.5c-7.2,0-11.9,3.1-11.9,7.8c0,5.6,5.9,6.5,12.6,7.6c7.6,1.2,16.3,2.6,16.3,12
	C445.3,68.5,438.6,73.2,428.6,73.2z"/>
<path class="st0" d="M512.4,31.3l-14.6,41.1h-7.3l-11.2-25l-11.2,25h-7.3l-14.6-41.1h9.2l9.8,27.7l12.5-27.3h2.9l12.7,27.5l10-27.9
	H512.4z"/>
<path class="st0" d="M516,31.3h9v41.1h-9V31.3z"/>
<path class="st0" d="M556.8,31.1v8h-4.7c-7.4,0-11.1,4-11.1,11.4v21.9h-9V31.3h6.1l1.5,5.6c3.1-3.9,7.4-5.8,13.3-5.8L556.8,31.1
	L556.8,31.1L556.8,31.1z"/>
<path class="st0" d="M577.8,37.9c-6.7,0-11.6,3.8-13.1,9.9H591C589.4,41.6,584.4,37.9,577.8,37.9z M600,51.9c0,0.9-0.1,1.8-0.2,2.8
	h-35.4c1.1,6.7,6.2,10.8,13.3,10.8c5.2,0,9.4-2.3,11.7-6h9.4c-3.5,8.7-11.4,14-21.2,14c-12.7,0-22.4-9.3-22.4-21.6
	c0-12.3,9.6-21.6,22.4-21.6C591.1,30.3,600,40,600,51.9L600,51.9L600,51.9z"/>
<path class="st0" d="M133.4,98.4h7.9l-4-9L133.4,98.4z M142,100h-9.3l-2,4.5h-2l7.6-17.4h1.7l7.9,17.4h-2L142,100z"/>
<path class="st0" d="M167.2,99.5c0-1.8-1.5-3.2-3.5-3.2h-5.5v6.5h5.5C165.6,102.7,167.2,101.3,167.2,99.5z M158.1,88.7v5.8h5.5
	c1.8,0,3.1-1.3,3.1-2.9c0-1.6-1.4-2.9-3.2-2.9L158.1,88.7L158.1,88.7z M169.1,99.7c0,2.7-2.3,4.8-5.5,4.8h-7.3V87h7.2
	c3,0,5.1,1.9,5.1,4.4c0,1.6-1,3.2-2.5,4C167.9,96,169.1,97.7,169.1,99.7z"/>
<path class="st0" d="M184.3,102.8v1.7h-10.6V87h10.3v1.7h-8.4v6h7.8v1.6h-7.8v6.5H184.3z"/>
<path class="st0" d="M190.5,95.7h5c2.4,0,4.1-1.5,4.1-3.5c0-2-1.7-3.5-4.1-3.5h-5V95.7z M195.2,97.4h-4.7v7.1h-1.9V87h6.9
	c3.4,0,5.9,2.2,5.9,5.2c0,2.5-1.8,4.4-4.3,5l4.5,7.2h-2.1L195.2,97.4z"/>
<path class="st0" d="M210.6,96.3h-2.7v8.2h-1.9V87h1.9v7.6h2.7l6.3-7.6h2.4l-7,8.4l7.7,9.1h-2.4L210.6,96.3z"/>
<path class="st0" d="M221.2,99.2h1.9c0,2.4,2,3.8,4.8,3.8c2.6,0,4.5-1.3,4.5-3.4c0-2.3-2.3-2.8-4.8-3.3c-2.9-0.6-6-1.3-6-4.7
	c0-2.9,2.4-4.8,6.2-4.8c3.7,0,6,2,6,5.1H232c0-2.1-1.8-3.4-4.2-3.4c-2.5,0-4.3,1.2-4.3,3c0,2.1,2.3,2.6,4.8,3.2
	c2.9,0.6,6.1,1.4,6.1,4.9c0,3.2-2.7,5.1-6.4,5.1C223.9,104.7,221.2,102.5,221.2,99.2z"/>
<path class="st0" d="M252.6,87v17.4h-1.9v-8.2h-10.3v8.2h-1.8V87h1.8v7.6h10.3V87H252.6z"/>
<path class="st0" d="M258.3,87h1.8v17.4h-1.8V87z"/>
<path class="st0" d="M267.7,95.7h5c2.4,0,4.1-1.5,4.1-3.5c0-2-1.7-3.5-4.1-3.5h-5V95.7z M272.4,97.4h-4.7v7.1h-1.8V87h6.9
	c3.4,0,5.9,2.2,5.9,5.2c0,2.5-1.7,4.4-4.3,5l4.5,7.2h-2.1L272.4,97.4z"/>
<path class="st0" d="M293.9,102.8v1.7h-10.6V87h10.3v1.7h-8.4v6h7.8v1.6h-7.8v6.5H293.9z"/>
<path class="st0" d="M319.7,87v17.4h-1.8v-8.2h-10.3v8.2h-1.9V87h1.9v7.6h10.3V87H319.7z"/>
<path class="st0" d="M328,98.4h7.9l-4-9L328,98.4z M336.6,100h-9.3l-2,4.5h-2L331,87h1.7l7.9,17.4h-2L336.6,100z"/>
<path class="st0" d="M353.7,88.7H348v15.8h-1.8V88.7h-5.8V87h13.4V88.7z"/>
<path class="st0" d="M371.4,87v17.4h-1.9v-8.2h-10.3v8.2h-1.9V87h1.9v7.6h10.3V87H371.4z"/>
<path class="st0" d="M379.6,98.4h7.9l-4-9L379.6,98.4z M388.2,100h-9.3l-2,4.5h-2l7.6-17.4h1.7l7.9,17.4h-2L388.2,100z"/>
<path class="st0" d="M418.5,87l-5.9,17.4H411l-5.4-13.2l-5.2,13.2h-1.6l-6-17.4h2l4.9,14.5l5.6-14.1h0.8l5.7,14.1l4.8-14.5H418.5z"
	/>
<path class="st0" d="M423.9,98.4h7.9l-4-9L423.9,98.4z M432.5,100h-9.3l-2,4.5h-2l7.7-17.4h1.7l7.9,17.4h-2L432.5,100z"/>
<path class="st0" d="M445,97.5v6.9h-1.9v-6.9L436.2,87h2l5.8,8.9l5.8-8.9h2L445,97.5z"/>
<path class="st0" d="M461.2,95.8c0-5.2,4-9,9.5-9c4.2,0,7.6,2.3,8.7,6h-1.9c-1.1-2.6-3.6-4.2-6.8-4.2c-4.4,0-7.6,3-7.6,7.3
	c0,4.3,3.2,7.3,7.6,7.3c3.3,0,5.9-1.7,6.9-4.5h1.9c-1.1,3.8-4.5,6.2-8.8,6.2C465.2,104.7,461.2,101,461.2,95.8z"/>
<path class="st0" d="M499.6,95.8c0-4.2-3.3-7.3-7.7-7.3c-4.5,0-7.7,3.2-7.7,7.3c0,4.1,3.3,7.3,7.7,7.3
	C496.3,103,499.6,99.9,499.6,95.8z M482.2,95.8c0-5.1,4-9,9.6-9c5.6,0,9.6,3.9,9.6,9c0,5.1-4,9-9.6,9
	C486.3,104.7,482.2,100.9,482.2,95.8z"/>
<path class="st0" d="M525.1,104.5l-2.6-14.3l-6.6,13.8h-0.5l-6.6-13.8l-2.6,14.3h-1.9l3.2-17.4h1.8l6.4,13.5l6.5-13.5h1.8l3.1,17.4
	H525.1z"/>
<path class="st0" d="M542,92.5c0-2.2-1.8-3.8-4.2-3.8h-4.6v7.6h4.6C540.2,96.3,542,94.7,542,92.5z M543.9,92.5c0,3.1-2.6,5.5-6,5.5
	h-4.6v6.5h-1.8V87h6.5C541.3,87,543.9,89.4,543.9,92.5z"/>
<path class="st0" d="M549.1,98.4h7.9l-4-9L549.1,98.4z M557.7,100h-9.3l-2,4.5h-2l7.6-17.4h1.7l7.9,17.4h-2L557.7,100z"/>
<path class="st0" d="M579.7,87v17.4h-1.6l-11.1-14.4v14.4h-1.8V87h1.7l11,14.2V87H579.7z"/>
<path class="st0" d="M592.4,97.5v6.9h-1.9v-6.9L583.6,87h2l5.8,8.9l5.8-8.9h2L592.4,97.5z"/>
</svg>
