<svg width="161" height="60" viewBox="0 0 161 60" fill="none" xmlns="http://www.w3.org/2000/svg">
<g clip-path="url(#clip0_637:5867)">
<path d="M0.297852 7.99832C0.511226 7.96631 0.491222 7.78094 0.523228 7.64092C1.41673 3.60148 3.86387 1.12234 7.93932 0.323516C11.6587 -0.405957 14.9953 0.323517 17.7092 3.10538C19.5135 4.96041 20.4937 7.20484 20.5764 9.80267C20.6204 11.1789 20.5764 12.5565 20.5937 13.9368C20.5937 14.3235 20.4951 14.4822 20.0896 14.5276C18.324 14.7285 16.5614 14.9508 14.802 15.1944C14.3245 15.2597 14.1952 15.125 14.1979 14.6489C14.2112 12.9153 14.2845 11.1816 13.9805 9.46394C13.6111 7.38354 12.3255 6.346 10.2224 6.37668C8.17803 6.40468 7.04048 7.42755 6.70975 9.55996C6.64196 9.99856 6.60807 10.4417 6.6084 10.8855C6.60128 18.4603 6.60128 26.0351 6.6084 33.6099C6.60543 34.2096 6.6703 34.8078 6.80177 35.3929C7.27386 37.46 8.57677 38.5402 11.2306 38.0601C13.1537 37.716 13.7804 36.5771 14.0312 34.7474C14.2525 33.1125 14.2139 31.4722 14.2099 29.8305C14.2099 29.4238 14.3099 29.2851 14.7433 29.3384C16.5276 29.5598 18.316 29.7665 20.1056 29.9439C20.5177 29.9852 20.6124 30.1439 20.6071 30.524C20.5871 31.9229 20.6244 33.3245 20.5924 34.7221C20.4591 40.3872 15.2154 45.5482 8.46875 44.3413C5.12678 43.7425 2.61563 42.1329 1.17536 38.9989C0.897002 38.3693 0.690331 37.7104 0.559238 37.0346C0.512562 36.8132 0.581907 36.5318 0.311188 36.3918L0.297852 7.99832Z" fill="white"/>
<path d="M107.764 0C107.998 0.205373 108.269 0.0760131 108.522 0.0693452C113.151 -0.0453435 117.403 2.4418 118.924 7.06135C119.048 7.36965 119.12 7.69639 119.136 8.0282C119.044 8.08053 118.945 8.12086 118.842 8.14823C116.863 8.3776 114.884 8.60298 112.904 8.82436C112.848 8.75628 112.799 8.68305 112.756 8.60565C111.69 6.18385 108.113 5.7451 106.167 7.28406C105.322 7.95086 105.03 8.88437 104.714 9.82455C102.621 9.93257 100.55 10.2553 98.4711 10.4913C98.4007 8.32085 99.0381 6.18634 100.287 4.40982C101.536 2.6333 103.329 1.31113 105.395 0.642789C105.967 0.453419 106.618 0.45742 107.091 0.00133286L107.764 0Z" fill="white"/>
<path d="M160.297 3.3336C159.986 3.25225 159.998 3.55364 159.922 3.691C159.423 4.60585 158.536 5.03526 157.547 4.80722C157.056 4.70187 156.616 4.43363 156.298 4.04619C155.979 3.65874 155.801 3.17491 155.793 2.67347C155.784 1.70662 156.46 0.781111 157.36 0.518394C157.841 0.378396 158.356 0.401043 158.823 0.582827C159.29 0.76461 159.684 1.09539 159.945 1.52392C160.065 1.72663 160.051 2.00801 160.297 2.13604V3.3336ZM157.096 1.33322C156.973 1.22786 156.892 1.33322 156.82 1.40123C156.566 1.65321 156.396 1.9763 156.33 2.32763C156.265 2.67896 156.308 3.0419 156.453 3.36828C156.776 4.06574 157.52 4.49516 158.232 4.3898C158.592 4.33392 158.925 4.1689 159.188 3.91711C159.45 3.66532 159.629 3.33893 159.699 2.98217C159.77 2.62541 159.73 2.25553 159.583 1.92264C159.436 1.58976 159.191 1.30996 158.88 1.12118C158.24 0.750439 157.436 0.854459 157.084 1.34655L157.096 1.33322Z" fill="white"/>
<path opacity="0.7" d="M130.875 37.7239C130.864 37.2584 130.844 36.7903 130.844 36.3263C130.85 26.4861 130.856 16.6456 130.864 6.8046L138.787 5.87109C139.825 8.72764 140.869 11.5828 141.9 14.4421C143.337 18.4277 144.771 22.4147 146.202 26.403C146.223 26.463 146.267 26.5124 146.426 26.5711V25.6295C146.426 18.9243 146.426 12.2194 146.426 5.51502C146.426 5.33765 146.446 5.16162 146.455 4.98158C147.247 4.89223 148.038 4.79755 148.832 4.71487C150.107 4.58329 151.382 4.45437 152.659 4.32812C152.672 4.92557 152.695 5.52835 152.695 6.1218C152.695 17.2599 152.695 28.3981 152.695 39.5362C152.695 39.7576 152.674 39.9776 152.662 40.203C152.375 40.2272 152.086 40.2187 151.802 40.1777C149.572 39.9563 147.359 39.5815 145.12 39.4522C144.144 36.8077 143.163 34.1658 142.194 31.5187C140.627 27.2227 139.062 22.9259 137.499 18.6282C137.484 18.5625 137.449 18.503 137.399 18.4577C137.349 18.4124 137.287 18.3835 137.22 18.3748C137.061 18.6322 137.121 18.9376 137.121 19.2216C137.121 25.3562 137.121 31.4862 137.121 37.6118C137.121 37.8786 137.087 38.1453 137.069 38.404C134.989 38.3026 132.934 37.9879 130.875 37.7239Z" fill="white"/>
<path d="M48.7141 16.2027C48.3941 15.8653 48.4474 15.4159 48.3927 15.0145C47.8913 11.3431 48.1127 7.76512 50.1531 4.5405C51.72 2.06269 54.0071 0.627753 56.9544 0.239679C57.6969 0.12817 58.4466 0.0715608 59.1975 0.0703125C64.3758 0.155662 68.5939 3.87904 69.3061 8.63862C69.5074 9.98154 69.3541 11.3445 69.3888 12.6981C69.3981 13.0875 69.122 13.0421 68.8847 13.0421C67.1083 13.0421 65.3306 13.0328 63.5503 13.0488C63.1502 13.0488 63.0715 12.8768 63.0809 12.526C63.1142 11.3471 63.0809 10.1709 62.6448 9.04936C61.8446 6.9983 60.4817 6.20082 58.1106 6.40486C56.3609 6.55155 55.0807 7.76645 54.7126 9.71483C54.3499 11.6173 54.3954 13.575 54.846 15.4586C54.5166 15.5026 54.1885 15.5519 53.8591 15.592C52.1486 15.7964 50.4336 16 48.7141 16.2027Z" fill="white"/>
<path d="M69.3445 30.3954C69.4646 32.7119 69.3525 35.011 68.7324 37.2581C67.4668 41.843 64.2596 44.2608 59.1666 44.5021C53.7469 44.7582 49.1713 41.3895 48.0978 36.3606C47.7964 34.955 47.8938 33.5334 47.8711 32.1144C47.8711 31.8211 47.9924 31.7304 48.2712 31.7317C50.1142 31.7317 51.9568 31.7286 53.7989 31.7224C54.1283 31.7224 54.2163 31.8651 54.211 32.1664C54.2003 32.8532 54.1576 33.5467 54.2243 34.2282C54.3657 35.6685 54.8738 36.9807 56.2327 37.6582C57.8237 38.4517 59.5227 38.4156 61.1203 37.6582C62.4432 37.03 62.8113 35.7511 62.9686 34.3962C63.142 32.9146 63.0447 31.4276 63.1127 29.9434C65.0197 30.2741 66.9534 30.3981 68.8711 30.6368C69.0658 30.6622 69.2725 30.6488 69.3445 30.3954Z" fill="white"/>
<path opacity="0.7" d="M112.912 8.82545C114.89 8.60141 116.868 8.37603 118.847 8.14932C118.95 8.12195 119.049 8.08162 119.142 8.0293C119.45 9.02015 119.456 10.0417 119.457 11.0605C119.463 18.6407 119.463 26.2217 119.457 33.8036C119.47 34.733 119.374 35.6607 119.173 36.5681C119.097 36.3294 118.89 36.4121 118.727 36.392L112.922 35.6826C113.088 34.9692 113.167 34.2385 113.158 33.5062C113.152 26.0941 113.152 18.6811 113.158 11.2672C113.179 10.4462 113.096 9.62586 112.912 8.82545Z" fill="white"/>
<path opacity="0.7" d="M98.4768 10.4891C100.556 10.2543 102.627 9.93162 104.719 9.82227C104.731 9.88747 104.738 9.95342 104.741 10.0196C104.701 18.2626 104.677 26.5068 104.755 34.7511L98.4741 34.0923C98.4608 33.2734 98.4341 32.4533 98.4341 31.6331C98.4341 24.8505 98.4341 18.067 98.4341 11.2825C98.4341 11.0198 98.4621 10.7544 98.4768 10.4891Z" fill="white"/>
<path opacity="0.7" d="M69.3444 30.3939C69.2723 30.6473 69.0656 30.6606 68.8656 30.6353C66.9479 30.3966 65.0142 30.2726 63.1072 29.9418C63.0298 29.3951 62.9578 28.8456 62.8711 28.3002C62.6964 27.192 62.0856 26.3892 61.0988 25.8797C59.0691 24.8315 56.9086 24.0834 54.8136 23.1859C53.7033 22.7363 52.6579 22.1407 51.705 21.4149C50.8861 20.7869 50.1999 20.0026 49.6862 19.1076C49.1725 18.2125 48.8415 17.2244 48.7124 16.2006C50.4301 15.9978 52.1468 15.7938 53.8627 15.5884C54.1921 15.5498 54.5202 15.5004 54.8496 15.4551C55.5884 16.7313 56.8366 17.3101 58.1235 17.8289C59.8572 18.525 61.5909 19.2065 63.3179 19.8919C66.7732 21.2575 68.7482 23.7593 69.147 27.4734C69.251 28.4442 69.375 29.4151 69.3444 30.3939Z" fill="white"/>
<path d="M98.4741 34.0938L104.755 34.7539C105.163 36.7169 106.356 37.9011 108.347 38.1225C110.391 38.3492 111.998 37.6224 112.92 35.6807L118.725 36.3902C118.887 36.4102 119.094 36.3275 119.17 36.5662C118.211 40.567 115.668 43.1008 111.745 44.1063C107.442 45.2145 103.686 44.077 100.739 40.7283C99.1009 38.868 98.4034 36.5876 98.4741 34.0938Z" fill="white"/>
<path opacity="0.7" d="M80.389 32.0118C80.3783 30.8569 80.3597 29.702 80.3597 28.5444C80.3597 23.4768 80.3677 18.4091 80.3477 13.3415C80.3477 12.6747 80.5357 12.4227 81.2372 12.3573C82.6174 12.224 84.007 12.1399 85.3713 11.8759C85.6673 11.8185 85.9887 11.8892 86.2981 11.8919C86.4968 11.8919 86.5728 12.0092 86.5888 12.1813C86.6008 12.3146 86.5995 12.448 86.5995 12.5814C86.5995 19.0021 86.5995 25.4229 86.5995 31.8437C86.5995 32.2211 86.7542 32.8012 85.9887 32.5865L80.389 32.0118Z" fill="white"/>
<path d="M30.6784 18.3101C30.6624 17.89 30.6304 17.4699 30.6304 17.0498C30.6304 11.7235 30.641 6.39846 30.6304 1.07344C30.6304 0.550675 30.7637 0.397312 31.2972 0.406647C32.9828 0.442654 34.6712 0.438653 36.3568 0.406647C36.8329 0.398645 36.9543 0.550676 36.9529 1.01076C36.9387 6.31311 36.9343 11.6164 36.9396 16.9205C36.9396 17.1405 36.9623 17.3659 36.8529 17.5726C36.2381 17.6259 35.618 17.65 35.0086 17.738C33.5563 17.9513 32.1 17.9833 30.6784 18.3101Z" fill="white"/>
<path d="M36.8473 26.9451C36.9633 27.1518 36.9313 27.3758 36.9313 27.5972C36.9313 32.8822 36.922 38.1685 36.9433 43.4536C36.9433 44.019 36.7779 44.155 36.2365 44.1444C34.5495 44.1123 32.8612 44.123 31.1689 44.1444C30.7808 44.1444 30.6261 44.0657 30.6274 43.6349C30.6399 37.9503 30.6399 32.2652 30.6274 26.5796C30.6361 26.4922 30.654 26.4059 30.6808 26.3223C31.3956 26.4076 32.1077 26.4996 32.8145 26.629C33.688 26.789 34.5882 26.7984 35.4817 26.869C35.9431 26.901 36.3885 27.0264 36.8473 26.9451Z" fill="white"/>
<path d="M80.389 32.0117L85.9901 32.5945C86.5048 32.4905 86.6369 32.7279 86.6342 33.2119C86.6182 36.6259 86.6142 40.0413 86.6342 43.4552C86.6342 44.0234 86.4608 44.154 85.9194 44.142C84.2351 44.1074 82.5494 44.122 80.8638 44.1354C80.4984 44.1354 80.297 44.094 80.2983 43.6446C80.3184 39.8759 80.3144 36.1058 80.321 32.3358C80.3339 32.2259 80.3566 32.1175 80.389 32.0117Z" fill="white"/>
<path d="M80.3307 6.47564C80.3307 4.6993 80.3481 2.92429 80.3187 1.14928C80.3107 0.615848 80.4334 0.409142 81.0135 0.422478C82.6778 0.461152 84.3475 0.450484 86.0078 0.422478C86.4479 0.422478 86.6399 0.506495 86.6372 0.995922C86.6199 4.46325 86.6252 7.91991 86.6372 11.3819C86.6372 11.7473 86.5572 11.9153 86.1291 11.9527C84.4542 12.1114 82.7832 12.3088 81.1162 12.5315C80.4948 12.6141 80.3161 12.4141 80.3227 11.7967C80.3534 10.027 80.3307 8.25065 80.3307 6.47564Z" fill="white"/>
<path opacity="0.7" d="M36.8472 26.9451C36.3885 27.0264 35.943 26.9011 35.491 26.8664C34.6015 26.7957 33.7013 26.7864 32.8238 26.6263C32.113 26.493 31.4008 26.405 30.69 26.3196C30.5967 23.6524 30.6167 20.9853 30.678 18.3181C32.0996 17.99 33.5612 17.958 34.9989 17.7513C35.6083 17.6633 36.2284 17.6393 36.8432 17.5859C36.8539 17.6055 36.8611 17.6267 36.8646 17.6486C36.9406 20.7439 36.9699 23.8445 36.8472 26.9451Z" fill="white"/>
<path d="M27.0216 53.766C27.0216 55.5823 27.0043 57.1773 27.0323 58.7723C27.0416 59.2417 26.8989 59.3697 26.4375 59.3684C24.8505 59.3684 24.8518 59.3817 24.8518 57.7681C24.8518 55.3676 24.8625 52.9672 24.8398 50.5667C24.8398 50.1066 24.9652 49.996 25.428 49.9493C26.3388 49.8573 26.9376 50.1693 27.4897 50.9081C28.6446 52.4538 29.8995 53.9247 31.2451 55.5904C31.2451 55.1796 31.2451 54.9356 31.2451 54.6915C31.2451 53.2912 31.2584 51.891 31.2357 50.4934C31.2291 50.0826 31.3598 49.9679 31.7692 49.9599C33.4228 49.9413 33.4228 49.9279 33.4228 51.5589C33.4228 53.9354 33.4081 56.3132 33.4321 58.6896C33.4321 59.1897 33.3268 59.3444 32.7867 59.3831C31.9199 59.4431 31.3651 59.147 30.8397 58.4576C29.6514 56.9079 28.3792 55.4277 27.0216 53.766Z" fill="white"/>
<path d="M19.4201 59.3612C18.6293 59.3612 17.9879 59.3492 17.3477 59.3612C17.081 59.3692 16.9477 59.2412 16.8143 59.0438C16.4142 58.4557 15.9528 57.9049 15.6141 57.2848C15.3113 56.7247 14.8606 56.77 14.3725 56.774C13.3336 56.782 13.3336 56.774 13.3363 57.7755C13.343 59.5239 13.2723 59.5759 11.4853 59.3678C11.1932 59.3332 11.1159 59.2345 11.1172 58.9571C11.1243 56.0934 11.1265 53.2307 11.1239 50.3688C11.1239 50.1474 11.1452 49.9687 11.4333 49.9767C13.1163 50.0407 14.8166 49.7767 16.4809 50.1101C19.1081 50.6435 20.1589 53.6214 18.4493 55.5778C18.3477 55.6947 18.2366 55.8031 18.1172 55.9019C17.4091 56.4766 17.4104 56.474 17.9225 57.2048C18.3933 57.8796 18.856 58.553 19.4201 59.3612ZM13.3443 53.2547V54.6749C13.3443 54.8643 13.363 55.0404 13.6177 55.0337C14.3698 55.0137 15.1286 55.1324 15.8675 54.9177C16.1949 54.8394 16.4855 54.651 16.6904 54.3838C16.8954 54.1167 17.0022 53.7873 16.993 53.4507C17.0143 52.5359 16.5929 51.9838 15.6861 51.8077C14.9459 51.6664 14.1191 51.5544 13.4697 51.8424C13.0883 52.0118 13.419 52.8266 13.3403 53.2547H13.3443Z" fill="white"/>
<path d="M66.1319 56.9027C66.636 55.5237 67.1361 54.3168 67.5108 53.0713C67.7269 52.3525 68.0563 52.1191 68.8071 52.1377C69.4739 52.1551 69.7753 52.3244 69.9686 52.9819C70.3434 54.2568 70.8328 55.4984 71.3316 56.9147C71.6476 56.0452 71.917 55.3143 72.1837 54.5702C72.4038 53.9661 72.6531 53.37 72.8278 52.7512C72.9612 52.2764 73.2093 52.1457 73.688 52.1577C74.9549 52.1911 74.9523 52.1671 74.5228 53.3513C73.856 55.1877 73.1893 57.0213 72.5398 58.8644C72.4064 59.2338 72.2464 59.3725 71.833 59.3738C70.2927 59.3818 70.2994 59.3991 69.7739 57.9348C69.5299 57.2534 69.2645 56.5786 68.9871 55.9105C68.9258 55.7624 68.9484 55.497 68.683 55.5104C68.4177 55.5237 68.3923 55.7678 68.3296 55.9371C67.9829 56.8706 67.6308 57.8042 67.3348 58.759C67.1814 59.2551 66.9174 59.3871 66.4186 59.3751C65.0343 59.3418 65.037 59.3645 64.5663 58.0415C63.9261 56.2439 63.294 54.4409 62.6272 52.6552C62.4738 52.2431 62.5659 52.1684 62.9659 52.1551C64.4502 52.1071 64.4516 52.0964 64.9423 53.4887C65.3211 54.5769 65.6958 55.6571 66.1319 56.9027Z" fill="white"/>
<path d="M46.6626 56.8268C47.164 55.4439 47.6641 54.1423 48.1015 52.8261C48.2669 52.3246 48.4923 52.1353 49.0351 52.1499C50.1566 52.182 50.1553 52.1499 50.5367 53.2342C50.9461 54.405 51.3595 55.5733 51.8329 56.9202C52.3477 55.4853 52.7998 54.2077 53.2679 52.9354C53.3639 52.6687 53.3492 52.258 53.6533 52.214C54.1791 52.1359 54.7139 52.1386 55.2389 52.222C55.5443 52.2726 55.2869 52.562 55.2389 52.7114C54.5815 54.5784 53.9053 56.4281 53.2385 58.2831C52.8465 59.3647 52.8385 59.318 51.6902 59.386C50.9901 59.4273 50.6767 59.198 50.478 58.5272C50.1367 57.3949 49.6902 56.297 49.1444 55.2479C48.735 56.3361 48.2829 57.4109 47.9295 58.5178C47.7215 59.17 47.4081 59.418 46.7093 59.3807C45.5211 59.318 45.5331 59.3567 45.137 58.2271C44.4826 56.3663 43.8158 54.51 43.1366 52.658C42.9926 52.2686 43.0632 52.1726 43.4767 52.1606C44.9783 52.1139 44.9729 52.1019 45.4544 53.4942C45.7998 54.5011 46.1598 55.5026 46.5212 56.5054C46.5346 56.5921 46.5813 56.6655 46.6626 56.8268Z" fill="white"/>
<path d="M1.3658 54.6833C1.3658 53.3071 1.37914 51.9321 1.3578 50.5572C1.35113 50.1478 1.42848 49.9624 1.89124 49.9731C3.19949 50.0011 4.5104 49.9544 5.81866 49.9878C8.65253 50.0598 10.3048 52.5216 9.12596 54.922C8.4725 56.2556 7.25893 56.6744 5.888 56.7757C5.35575 56.826 4.81995 56.826 4.2877 56.7757C3.65958 56.7024 3.52755 56.9798 3.57022 57.5252C3.60356 57.9666 3.55689 58.4134 3.57956 58.8588C3.5969 59.2149 3.50621 59.3629 3.10614 59.3762C1.3578 59.4336 1.35914 59.4482 1.35914 57.6866L1.3658 54.6833ZM3.58223 53.2577C3.58223 53.7778 3.58223 54.1912 3.58223 54.6193C3.58223 54.8234 3.57023 55.0421 3.87162 55.0341C4.62243 55.0141 5.38124 55.1354 6.12005 54.9194C6.81485 54.7167 7.19492 54.2259 7.22959 53.5151C7.27493 52.5616 6.86819 51.9921 5.92401 51.8068C5.1852 51.6627 4.35437 51.5401 3.71158 51.8495C3.33018 52.0335 3.64891 52.8363 3.58223 53.2577Z" fill="white"/>
<path d="M138.787 5.87093L130.864 6.80445C130.852 4.80406 130.843 2.80368 130.824 0.809963C130.824 0.520574 130.935 0.420555 131.224 0.421888C133.002 0.42989 134.78 0.421888 136.559 0.421888C136.784 0.421888 136.935 0.4899 137.011 0.720611C137.576 2.44761 138.307 4.1146 138.787 5.87093Z" fill="white"/>
<path d="M130.875 37.7246C132.934 37.9913 134.989 38.3034 137.067 38.4047C137.19 40.1984 137.091 41.9948 137.124 43.7884C137.124 44.0431 137.015 44.1338 136.763 44.1325C134.896 44.1272 133.033 44.1272 131.174 44.1325C130.916 44.1325 130.823 44.0245 130.826 43.7738C130.846 41.7583 130.863 39.7419 130.875 37.7246Z" fill="white"/>
<path d="M90.2124 56.3872C89.5003 56.3872 88.7895 56.3806 88.0787 56.3872C87.9187 56.3872 87.6853 56.2872 87.616 56.5126C87.5626 56.6873 87.704 56.8447 87.8173 56.9847C88.4654 57.7848 89.8657 57.9542 90.8739 57.3701C91.0446 57.2714 91.2006 56.954 91.4327 57.1767C91.775 57.5206 92.0931 57.8878 92.3848 58.2756C92.4062 58.3023 92.2595 58.485 92.1675 58.5717C90.9179 59.7505 88.2627 59.7892 86.7571 58.6557C85.3782 57.6181 84.9608 55.6684 85.7676 54.0295C86.5091 52.5212 88.4441 51.709 90.2164 52.1624C91.0343 52.3592 91.757 52.8371 92.2584 53.5125C92.7598 54.1879 93.008 55.018 92.9596 55.8578C92.9436 56.2579 92.8262 56.4059 92.4115 56.3912C91.6794 56.3686 90.9446 56.3886 90.2124 56.3872ZM89.2323 55.159C89.6737 55.159 90.1164 55.143 90.5578 55.159C90.9579 55.1777 90.9246 54.9923 90.8125 54.7216C90.5605 54.1148 89.9631 53.7281 89.2336 53.7161C88.5041 53.7041 87.8853 54.0815 87.6253 54.6709C87.4919 54.9776 87.4706 55.175 87.9053 55.1563C88.3401 55.1377 88.7895 55.1577 89.2323 55.159Z" fill="white"/>
<path d="M37.198 56.3905C37.7234 57.6961 39.2197 58.1042 40.4933 57.3947C40.6773 57.292 40.8533 56.9546 41.1121 57.2213C41.4335 57.5521 41.8162 57.8348 42.0216 58.2629C42.0456 58.3135 41.9336 58.4469 41.8629 58.5296C40.5973 59.9085 37.398 59.7658 35.9684 58.2629C34.5828 56.8146 34.7295 54.2928 36.2765 52.9592C37.9808 51.4922 40.9254 51.8843 42.0536 53.7593C42.4038 54.3686 42.5929 55.0571 42.603 55.7597C42.6217 56.2411 42.491 56.4185 41.9749 56.4078C40.4026 56.3692 38.829 56.3905 37.198 56.3905ZM38.8143 55.1649C39.2344 55.1649 39.6571 55.1436 40.0759 55.1649C40.5239 55.1929 40.6306 55.0529 40.4346 54.6408C40.2812 54.3449 40.0458 54.0995 39.7566 53.9339C39.4673 53.7684 39.1364 53.6897 38.8036 53.7073C38.4696 53.7066 38.1429 53.8053 37.865 53.9908C37.5872 54.1762 37.3708 54.4401 37.2433 54.7489C37.11 55.0849 37.2166 55.1783 37.554 55.1623C37.9728 55.1476 38.3942 55.1636 38.8143 55.1649Z" fill="white"/>
<path d="M59.2942 52.0842C60.1001 52.058 60.9025 52.2015 61.6493 52.5057C61.9613 52.627 62.0787 52.795 61.884 53.1031C61.8419 53.1813 61.8054 53.2625 61.7746 53.3458C61.3879 54.2153 61.3906 54.2046 60.469 53.8966C59.836 53.6723 59.1499 53.6444 58.5007 53.8166C58.234 53.8886 57.9992 54.0406 58.0059 54.366C58.0126 54.6914 58.2593 54.7754 58.498 54.8288C59.1648 54.9768 59.8489 55.0862 60.5197 55.2382C61.6519 55.4942 62.2014 56.0623 62.2894 57.0292C62.3681 57.9094 61.8346 58.7535 60.8491 59.1269C59.2488 59.731 57.6685 59.551 56.1202 58.8949C55.8535 58.7829 55.7201 58.6388 55.8962 58.3361C56.0922 57.9894 56.1629 57.5066 56.4496 57.2972C56.7363 57.0879 57.1071 57.4986 57.4578 57.588C58.1086 57.7547 58.7594 57.9027 59.4302 57.7947C59.7716 57.7413 60.197 57.704 60.2023 57.2252C60.2077 56.7465 59.7849 56.7651 59.4755 56.6918C58.8087 56.5424 58.1193 56.4531 57.4538 56.2824C56.6136 56.0677 56.0375 55.5676 55.9335 54.6461C55.8348 53.7792 56.2376 53.0044 57.0551 52.547C57.7413 52.1804 58.5188 52.0197 59.2942 52.0842Z" fill="white"/>
<path d="M145.123 39.4512C147.362 39.5845 149.575 39.9553 151.804 40.1766C152.089 40.2177 152.378 40.2262 152.664 40.202C152.798 41.3942 152.69 42.5918 152.723 43.7853C152.731 44.0441 152.607 44.1307 152.36 44.1294C150.609 44.1294 148.858 44.1294 147.106 44.1294C147.009 44.1413 146.91 44.1168 146.829 44.0608C146.749 44.0047 146.692 43.9209 146.669 43.8253C146.161 42.3677 145.639 40.9101 145.123 39.4512Z" fill="white"/>
<path d="M152.663 4.33124C151.386 4.45927 150.111 4.58818 148.836 4.71798C148.042 4.80067 147.251 4.89535 146.459 4.9847C146.326 3.58977 146.439 2.19217 146.401 0.797233C146.393 0.494509 146.541 0.423828 146.809 0.423828C148.65 0.429162 150.492 0.429162 152.335 0.423828C152.619 0.423828 152.735 0.529181 152.724 0.813236C152.69 1.98413 152.794 3.15902 152.663 4.33124Z" fill="white"/>
<path d="M82.1472 52.9473C82.798 52.4299 83.3661 52.1645 84.0236 52.0938C84.4236 52.0498 84.6797 52.1111 84.6103 52.5939C84.5957 52.7032 84.6103 52.8153 84.6103 52.9273C84.5997 53.258 84.6877 53.6434 84.5463 53.9048C84.405 54.1662 83.9742 53.9808 83.6768 54.0382C82.8113 54.2235 82.3206 54.769 82.2872 55.7345C82.2512 56.7534 82.2539 57.7762 82.2752 58.8017C82.2845 59.2245 82.1765 59.3752 81.7218 59.3765C80.1215 59.3765 80.1215 59.4019 80.1281 57.7989C80.1281 56.1119 80.1401 54.4236 80.1201 52.7313C80.1201 52.3112 80.2135 52.1058 80.6709 52.1551C80.9587 52.1845 81.2486 52.1845 81.5364 52.1551C82.0098 52.1085 82.2659 52.2632 82.1472 52.9473Z" fill="white"/>
<path d="M76.0446 55.7219C76.0446 54.7017 76.0606 53.6801 76.0366 52.6546C76.0272 52.2692 76.1699 52.1692 76.5313 52.1545C78.1756 52.0918 78.1743 52.0812 78.1743 53.6895C78.1743 55.3978 78.1543 57.1075 78.1836 58.8158C78.1917 59.2665 78.0503 59.3626 77.6289 59.3706C76.0406 59.3999 76.0419 59.4146 76.0459 57.8476C76.0477 57.1399 76.0472 56.4313 76.0446 55.7219Z" fill="white"/>
<path d="M77.1429 48.9024C77.927 48.9024 78.4231 49.3425 78.4218 50.0253C78.4218 50.7414 77.907 51.2042 77.1149 51.2028C76.3227 51.2015 75.7813 50.7227 75.7906 50.0373C75.8 49.3518 76.3374 48.8971 77.1429 48.9024Z" fill="white"/>
<path d="M157.085 1.34927C157.549 1.35728 158.018 1.31593 158.475 1.38661C159.039 1.47463 159.312 2.21211 158.875 2.5415C158.417 2.8869 158.608 3.09361 158.809 3.415C158.893 3.54836 159.189 3.71373 158.936 3.89243C158.705 4.05512 158.547 3.83508 158.403 3.65238C158.201 3.39767 158.1 2.88557 157.8 2.92958C157.441 2.98292 157.708 3.45234 157.632 3.72973C157.589 3.88576 157.508 3.95777 157.354 3.94043C157.201 3.9231 157.142 3.80708 157.141 3.65638C157.141 3.2363 157.141 2.81489 157.133 2.39347C157.133 2.04141 157.109 1.688 157.097 1.33594L157.085 1.34927ZM158.121 2.39614C158.236 2.3788 158.547 2.44682 158.556 2.10142C158.565 1.75602 158.272 1.78136 158.034 1.75869C157.797 1.73602 157.634 1.80003 157.634 2.10675C157.634 2.41348 157.79 2.41614 158.121 2.38947V2.39614Z" fill="white"/>
</g>
<defs>
<clipPath id="clip0_637:5867">
<rect width="160" height="59.4941" fill="white" transform="translate(0.297852)"/>
</clipPath>
</defs>
</svg>
