<svg width="20" height="21" viewBox="0 0 20 21" fill="none" xmlns="http://www.w3.org/2000/svg">
<path d="M19.2281 10.5L19.8501 8.57997C20.3151 7.14295 19.6681 5.57993 18.3231 4.89292L16.5261 3.97491L15.6081 2.17788C14.9211 0.832864 13.358 0.184855 11.921 0.650861L10 1.27187L8.07997 0.649861C6.64295 0.184855 5.07993 0.831864 4.39292 2.17688L3.47391 3.97391L1.67688 4.89292C0.331864 5.57993 -0.315145 7.14295 0.149861 8.57997L0.77187 10.5L0.149861 12.42C-0.315145 13.857 0.331864 15.4201 1.67688 16.1071L3.47391 17.0251L4.39192 18.8221C5.07893 20.1671 6.64195 20.8151 8.07897 20.3491L10 19.7281L11.92 20.3501C13.357 20.8151 14.9201 20.1681 15.6071 18.8231L16.5251 17.0261L18.3221 16.1081C19.6671 15.4211 20.3151 13.858 19.8491 12.421L19.2281 10.5ZM8.99999 14.9141L5.29293 11.207L6.70695 9.79299L8.99999 12.086L14.2931 6.79295L15.7071 8.20697L8.99999 14.9141Z" fill="#0EF169"/>
</svg>
