<svg width="36" height="36" viewBox="0 0 36 36" fill="none" xmlns="http://www.w3.org/2000/svg">
<path fill-rule="evenodd" clip-rule="evenodd" d="M0 8C0 3.58172 3.58172 0 8 0H28C32.4183 0 36 3.58172 36 8V28C36 32.4183 32.4183 36 28 36H8C3.58172 36 0 32.4183 0 28V8ZM23 21V17.88H18.3613C17.9814 18.0925 17.5969 18.356 17.2077 18.6705C16.8186 18.9849 16.5145 19.2571 16.2956 19.4872L15.6802 18.8324C16.0517 18.4614 16.3535 18.1221 16.5859 17.8146C16.8183 17.5071 17.0255 17.1556 17.2077 16.7601V7H14V21H23ZM9.8 23.1C9.8 23.58 9.46 23.92 8.94 23.92C8.43 23.92 8.09 23.59 8.09 23.1C8.09 22.6 8.43 22.27 8.94 22.27C9.46 22.27 9.8 22.6 9.8 23.1ZM8.27 24.7H9.62V30.31C9.62 31.7 8.96 32.43 7.66 32.43C7.49 32.43 7.28 32.41 7.18 32.37L7 31.25C7.11 31.28 7.23 31.29 7.36 31.29C8.1 31.29 8.27 30.88 8.27 30.2V24.7ZM13.4455 30.17C11.7755 30.17 10.6355 29.04 10.6355 27.34C10.6355 25.65 11.7755 24.52 13.4455 24.52C15.1055 24.52 16.2555 25.65 16.2555 27.34C16.2555 29.04 15.1055 30.17 13.4455 30.17ZM13.4455 29.04C14.3555 29.04 14.9055 28.39 14.9055 27.34C14.9055 26.3 14.3555 25.65 13.4455 25.65C12.5355 25.65 11.9755 26.3 11.9755 27.34C11.9755 28.39 12.5355 29.04 13.4455 29.04ZM20.2046 30.17C21.6746 30.17 22.6946 29.09 22.6946 27.36C22.6946 25.63 21.6946 24.53 20.3246 24.53C19.4846 24.53 18.8246 24.93 18.5046 25.6L18.0946 25.34C18.4046 24.82 18.4946 24.38 18.4946 23.74V22.7H17.1546V30H18.2846V29.95C18.2346 29.75 18.1446 29.52 18.0346 29.24L18.4446 29.03C18.7646 29.78 19.3946 30.17 20.2046 30.17ZM19.8846 29.05C19.2346 29.05 18.6746 28.71 18.4946 28.12V26.58C18.6746 26.03 19.1746 25.65 19.8746 25.65C20.7146 25.65 21.3346 26.22 21.3346 27.35C21.3346 28.43 20.7646 29.05 19.8846 29.05ZM25.7999 30.18C24.2799 30.18 23.4599 29.54 23.3099 28.46L24.4299 28.08C24.5599 28.79 25.0599 29.16 25.8899 29.16C26.5199 29.16 26.8799 28.93 26.8799 28.52C26.8799 28.0356 26.3648 27.9455 25.7101 27.831L25.7099 27.831C25.6349 27.8179 25.5581 27.8044 25.4799 27.79C24.5499 27.62 23.5099 27.3 23.5099 26.18C23.5099 25.13 24.4399 24.52 25.7899 24.52C27.1399 24.52 28.0599 25.14 28.2299 26.09L27.1599 26.42C26.9799 25.81 26.4399 25.53 25.7299 25.53C25.1299 25.53 24.8299 25.75 24.8299 26.09C24.8299 26.5461 25.3818 26.6423 26.0851 26.7649C26.1681 26.7793 26.2533 26.7942 26.3399 26.81C27.3499 27 28.2299 27.28 28.2299 28.4C28.2299 29.54 27.3399 30.18 25.7999 30.18Z" fill="white"/>
</svg>
