<svg width="200" height="40" viewBox="0 0 200 40" fill="none" xmlns="http://www.w3.org/2000/svg">
<path d="M26.3049 38.1992V29.9114H12.7471C11.6368 30.476 10.5129 31.1759 9.37549 32.0111C8.23808 32.8463 7.34945 33.5695 6.70959 34.1807L4.91097 32.4412C5.99651 31.4558 6.87886 30.5546 7.55801 29.7377C8.23716 28.9208 8.84298 27.987 9.37549 26.9364V1.01025H0V38.1992H26.3049Z" fill="#001B60"/>
<path d="M50.5382 39.2086C60.6102 39.2086 66.5033 33.6834 66.5033 23.8549V1.01025H57.1278V23.1642C57.1278 28.4238 54.9313 30.9208 50.5382 30.9208C46.1451 30.9208 43.895 28.4769 43.895 23.1642V1.01025H34.5195V23.8549C34.5195 33.6834 40.4663 39.2086 50.5382 39.2086Z" fill="#001B60"/>
<path d="M94.3353 39.2087C103.389 39.1555 110.515 34.0022 112.068 25.3425L103.175 23.1643C102.05 28.2114 98.7819 30.9209 94.1746 30.9209C88.1743 30.9209 84.049 26.3519 84.049 19.6048C84.049 12.8577 88.1743 8.28873 94.1746 8.28873C98.6212 8.28873 101.729 10.7857 102.961 15.3015L111.747 12.9108C110.086 5.10111 103.121 0.0540393 94.3353 0.000912242C81.9596 -0.105342 74.5664 9.08564 74.5664 19.6048C74.5664 30.1239 81.9596 39.3149 94.3353 39.2087Z" fill="#001B60"/>
<path d="M141.333 1.01025C148.566 1.01025 152.691 4.88853 152.691 11.1044C152.691 18.0109 148.619 21.2517 141.279 21.7298V24.3862C145.673 24.9174 147.494 25.5018 149.691 30.7614L151.191 34.374C151.834 35.8085 152.316 36.8179 153.334 37.4023V38.1992H142.833C142.137 37.6148 141.869 36.9773 141.708 36.3929L139.404 30.7083C137.904 26.9363 136.94 25.8737 133.565 25.8737H130.833V38.1992H121.457V1.01025H141.333ZM139.083 9.08556H130.833V17.7984H139.083C141.655 17.7984 143.315 16.2046 143.315 13.3889C143.315 10.52 141.869 9.08556 139.083 9.08556Z" fill="#001B60"/>
<path d="M185.802 1.01029L199.999 38.1992H189.873L183.926 20.4017C182.801 16.9484 182.105 13.6014 181.837 10.5732H178.623C178.408 13.0701 177.926 16.2578 176.533 20.4017L170.533 38.1992H160.461L174.712 1.01029H185.802Z" fill="#001B60"/>
</svg>
