<svg width="36" height="36" viewBox="0 0 36 36" fill="none" xmlns="http://www.w3.org/2000/svg">
<path fill-rule="evenodd" clip-rule="evenodd" d="M8 0C3.58172 0 0 3.58172 0 8V28C0 32.4183 3.58172 36 8 36H28C32.4183 36 36 32.4183 36 28V8C36 3.58172 32.4183 0 28 0H8ZM25 23.32V28H11V7H15.9898V21.6401C15.7064 22.2333 15.384 22.7606 15.0225 23.2219C14.6611 23.6832 14.1915 24.1921 13.6137 24.7486L14.571 25.7308C14.9115 25.3857 15.3845 24.9773 15.9898 24.5057C16.5952 24.034 17.1933 23.6388 17.7843 23.32H25Z" fill="white"/>
</svg>
