<svg width="146" height="30" viewBox="0 0 146 30" fill="none" xmlns="http://www.w3.org/2000/svg">
<path d="M19.5713 28.5589V22.5157H9.74173C8.93674 22.9273 8.12192 23.4377 7.29729 24.0467C6.47267 24.6557 5.8284 25.1831 5.3645 25.6287L4.06049 24.3604C4.84751 23.6418 5.48722 22.9847 5.97961 22.389C6.472 21.7933 6.91122 21.1125 7.29729 20.3464V1.44189H0.5V28.5589H19.5713Z" fill="white"/>
<path d="M37.1266 29.2951C44.4288 29.2951 48.7014 25.2663 48.7014 18.0997V1.44214H41.9041V17.5961C41.9041 21.4312 40.3116 23.2519 37.1266 23.2519C33.9416 23.2519 32.3102 21.47 32.3102 17.5961V1.44214H25.5129V18.0997C25.5129 25.2663 29.8244 29.2951 37.1266 29.2951Z" fill="white"/>
<path d="M68.8914 29.2945C75.4557 29.2558 80.6216 25.4982 81.7481 19.1838L75.3003 17.5955C74.4846 21.2757 72.1153 23.2513 68.7749 23.2513C64.4246 23.2513 61.4338 19.9198 61.4338 15C61.4338 10.0802 64.4246 6.74871 68.7749 6.74871C71.9988 6.74871 74.2516 8.56942 75.145 11.8622L81.515 10.119C80.3109 4.4244 75.2615 0.744238 68.8914 0.705499C59.919 0.628022 54.5588 7.32979 54.5588 15C54.5588 22.6703 59.919 29.372 68.8914 29.2945Z" fill="white"/>
<path d="M102.956 1.44214C108.2 1.44214 111.191 4.27005 111.191 8.80246C111.191 13.8385 108.239 16.2015 102.918 16.5502V18.4871C106.103 18.8745 107.423 19.3006 109.016 23.1357L110.103 25.7699C110.569 26.8159 110.919 27.5519 111.657 27.978V28.5591H104.044C103.539 28.133 103.345 27.6681 103.228 27.242L101.558 23.097C100.471 20.3465 99.7714 19.5718 97.3244 19.5718H95.3434V28.5591H88.5461V1.44214H102.956ZM101.325 7.3304H95.3434V13.6835H101.325C103.189 13.6835 104.394 12.5214 104.394 10.4682C104.394 8.37634 103.345 7.3304 101.325 7.3304Z" fill="white"/>
<path d="M135.207 1.44113L145.5 28.5581H138.159L133.847 15.5807C133.032 13.0627 132.527 10.6222 132.333 8.41406H130.002C129.847 10.2348 129.497 12.5591 128.487 15.5807L124.137 28.5581H116.835L127.167 1.44113H135.207Z" fill="white"/>
</svg>
