<svg width="85" height="85" viewBox="0 0 85 85" fill="none" xmlns="http://www.w3.org/2000/svg">
<g style="mix-blend-mode:soft-light">
<path d="M42.5 0C43.5288 0 44.5491 0.0365428 45.5596 0.108401L36.9966 44.4816C36.2692 45.9194 35.4416 47.1974 34.5139 48.3155C33.5862 49.4336 32.381 50.667 30.8981 52.0158L33.355 54.3966C34.229 53.5601 35.4429 52.5702 36.9966 51.4271C38.5503 50.2839 40.0855 49.326 41.6022 48.5532H64.6492L62.2506 59.8965H22.7171L31.8557 12.2195C31.2706 12.4251 30.6933 12.6472 30.1243 12.8852C18.5898 17.7428 10.42 29.2037 10.4147 42.5C10.42 55.7963 18.5185 67.2011 30.053 72.0587L30.1243 72.1148C33.9326 73.7078 38.1135 74.5877 42.5 74.5877C47.538 74.5877 52.3047 73.427 56.5473 71.3584L56.5427 71.3345C67.2215 66.13 74.5802 55.1743 74.5853 42.5C74.5802 29.8257 67.2215 18.8701 56.5427 13.6655L56.5473 13.6416C55.8684 13.3106 55.1762 13.0029 54.4716 12.7194L56.4634 2.34629C73.0764 8.12094 85 23.9114 85 42.4859V42.5141C85 65.9784 65.9721 85 42.5 85C19.0279 85 0 65.9784 0 42.5141V42.4859C0 19.0216 19.0279 0 42.5 0Z" fill="white"/>
</g>
</svg>
