<svg width="36" height="36" viewBox="0 0 36 36" fill="none" xmlns="http://www.w3.org/2000/svg">
<path fill-rule="evenodd" clip-rule="evenodd" d="M0 8C0 3.58172 3.58172 0 8 0H28C32.4183 0 36 3.58172 36 8V28C36 32.4183 32.4183 36 28 36H8C3.58172 36 0 32.4183 0 28V8ZM23 21V17.88H18.3613C17.9814 18.0925 17.5969 18.356 17.2077 18.6705C16.8186 18.9849 16.5145 19.2571 16.2956 19.4872L15.6802 18.8324C16.0517 18.4614 16.3535 18.1221 16.5859 17.8146C16.8183 17.5071 17.0255 17.1556 17.2077 16.7601V7H14V21H23ZM6.96029 29.597C5.1532 29.597 4.17833 28.9642 4 27.8962L5.33154 27.5204C5.48609 28.2225 6.08052 28.5884 7.06729 28.5884C7.81628 28.5884 8.24427 28.3609 8.24427 27.9555C8.24427 27.4764 7.63188 27.3874 6.85348 27.2741C6.76423 27.2612 6.67279 27.2479 6.57985 27.2336C5.4742 27.0655 4.23777 26.7491 4.23777 25.6415C4.23777 24.6032 5.34342 24 6.9484 24C8.55338 24 9.64714 24.6131 9.84925 25.5525L8.57715 25.8789C8.36316 25.2756 7.72117 24.9988 6.87707 24.9988C6.16375 24.9988 5.80708 25.2163 5.80708 25.5525C5.80708 26.0036 6.46325 26.0987 7.2993 26.2199L7.29985 26.2199C7.39842 26.2342 7.49949 26.2489 7.60228 26.2645C8.80304 26.4524 9.84925 26.7293 9.84925 27.8368C9.84925 28.9642 8.79115 29.597 6.96029 29.597ZM13.6864 29.419H11.8793L10.2862 24.178H11.8912L12.3311 25.7998C12.4857 26.3931 12.5808 27.1842 12.5927 28.0643H13.1158C13.2109 27.3523 13.4011 26.7886 13.8291 25.6811L14.4473 24.178H15.8739L16.4803 25.6811C16.9201 26.7886 17.1104 27.3523 17.1936 28.0643H17.7167C17.7286 27.1644 17.8118 26.4821 17.9782 25.7998L18.4181 24.178H20.0231L18.4419 29.419H16.6348L16.0523 27.9753C15.6124 26.8183 15.4816 26.1854 15.4341 25.3152H14.8753C14.8277 26.1755 14.6851 26.8776 14.269 27.9753L13.6864 29.419ZM26.4111 28.5587C26.0901 28.5587 26.0901 28.2917 26.0901 27.9555V26.0173C26.0901 24.6922 25.0557 24 23.3557 24C21.715 24 20.538 24.6724 20.3954 25.8096L21.8577 26.0371C21.8933 25.3745 22.4164 25.0087 23.2487 25.0087C24.0809 25.0087 24.497 25.335 24.497 26.0173V26.0964L22.5234 26.4425C21.073 26.6996 20.3954 27.2633 20.3954 28.1533C20.3954 29.0235 21.1681 29.597 22.2857 29.597C23.2368 29.597 24.0452 29.1718 24.2235 28.5192H24.6634C24.6634 29.2311 25.1627 29.5575 25.8761 29.5575C26.1852 29.5575 26.5181 29.4981 26.7558 29.3795V28.4697C26.6726 28.5192 26.5299 28.5587 26.4111 28.5587ZM22.8801 28.5884C22.3213 28.5884 21.9528 28.3609 21.9528 27.9159C21.9528 27.5599 22.2143 27.2633 23.0703 27.1248L24.497 26.8875V27.6984C24.2949 28.2027 23.5815 28.5884 22.8801 28.5884ZM32.893 30.2892C32.893 31.4462 31.6804 32 29.683 32C27.7333 32 26.9605 31.5056 26.9605 30.7738C26.9605 30.2497 27.4242 29.9036 28.1256 29.8443V29.5871C27.7571 29.4388 27.5787 29.1619 27.5787 28.8752C27.5787 28.4104 27.9473 28.0742 28.5417 27.9753V27.7182C27.6263 27.4808 27.1032 26.8677 27.1032 26.1063C27.1032 24.9098 28.1613 24.178 29.7544 24.178H32.786L33 25.1372H32.6909C32.4293 25.1372 32.0251 25.068 31.6566 24.89L31.4069 25.246C32.0846 25.4932 32.3818 25.9283 32.3818 26.4821C32.3818 27.4808 31.4069 28.1137 29.897 28.1137H29.4928C29.0648 28.1137 28.9103 28.2423 28.9103 28.4499C28.9103 28.707 29.1956 28.7664 29.5879 28.796L31.0146 28.8554C32.3699 28.9246 32.893 29.4784 32.893 30.2892ZM28.5417 26.136C28.5417 26.7985 29.0173 27.1743 29.7425 27.1743C30.5271 27.1743 30.9551 26.759 30.9551 26.136C30.9551 25.4833 30.4677 25.1174 29.7425 25.1174C28.9578 25.1174 28.5417 25.5229 28.5417 26.136ZM28.2564 30.4969C28.2564 30.9913 28.839 31.1397 29.7068 31.1397C30.8957 31.1397 31.2999 30.8925 31.2999 30.5068C31.2999 30.131 30.9551 30.042 30.5747 30.0222L28.7557 29.9333C28.4347 29.9827 28.2564 30.2299 28.2564 30.4969Z" fill="white"/>
</svg>
