<?xml version="1.0" encoding="UTF-8"?>
<svg width="475px" height="94px" viewBox="0 0 475 94" version="1.1" xmlns="http://www.w3.org/2000/svg" xmlns:xlink="http://www.w3.org/1999/xlink">
    <title>Group</title>
    <g id="Page-1" stroke="none" stroke-width="1" fill="none" fill-rule="evenodd">
        <g id="Lucra_Logo_Wordmark" transform="translate(-31.000000, -177.000000)" fill="#FFFFFF" fill-rule="nonzero">
            <g id="Group" transform="translate(31.000000, 177.000000)">
                <path d="M62,91 L62,71.1657332 L30.0446202,71.1657332 C27.4274749,72.5169607 24.7785288,74.1920379 22.0977592,76.1907379 C19.4169219,78.1896649 17.3224389,79.9203435 15.81431,81.3832276 L11.5750264,77.2201581 C14.1335994,74.861751 16.2132646,72.7050976 17.8140219,70.7499709 C19.4147567,68.7950712 20.8426616,66.5603489 22.0977592,64.0462579 L22.0977592,2 L0,2 L0,91 L62,91 Z" id="Path"></path>
                <path d="M120.063552,94 C143.996464,94 158,80.6925812 158,57.020838 L158,2 L135.721946,2 L135.721946,55.3574392 C135.721946,68.024896 130.502482,74.038986 120.063552,74.038986 C109.624623,74.038986 104.278054,68.1530255 104.278054,55.3574392 L104.278054,2 L82,2 L82,57.020838 C82,80.6925812 96.1306407,94 120.063552,94 Z" id="Path"></path>
                <path d="M223.915695,93.997811 C245.402722,93.8704997 262.31202,81.5160729 266,60.7554618 L244.894035,55.5334243 C242.223428,67.6332284 234.468224,74.1288337 223.534407,74.1288337 C209.294353,74.1288337 199.504173,63.1755135 199.504173,46.9999285 C199.504173,30.8245709 209.294353,19.8711825 223.534407,19.8711825 C234.086708,19.8711825 241.462669,25.8573834 244.385348,36.6833923 L265.23697,30.9518822 C261.296917,12.2292752 244.766863,0.129552467 223.915695,0.00218700037 C194.545611,-0.252544719 177,21.7816707 177,46.9999285 C177,72.2184819 194.545611,94.252661 223.915695,93.997811 Z" id="Path"></path>
                <path d="M335.386786,2 C352.631825,2 362.466905,11.2814392 362.466905,26.157196 C362.466905,42.6857895 352.759583,50.4413902 335.259028,51.5856443 L335.259028,57.9428131 C345.732897,59.214383 350.076667,60.6128149 355.312461,73.2000635 L358.889683,81.8457405 C360.422778,85.2787296 361.572599,87.6943267 364,89.0929855 L364,91 L338.964008,91 C337.303155,89.6015681 336.664365,88.0758204 336.281091,86.6771615 L330.789782,73.0729746 C327.21256,64.045804 324.912917,61.5028911 316.866449,61.5028911 L310.353075,61.5028911 L310.353075,91 L288,91 L288,2 L335.386786,2 Z M330.023234,21.3257296 L310.353075,21.3257296 L310.353075,42.1772069 L330.023234,42.1772069 C336.153334,42.1772069 340.113829,38.362951 340.113829,31.6242886 C340.113829,24.7585372 336.664365,21.3257296 330.023234,21.3257296 Z" id="Shape"></path>
                <path d="M441.247543,2 L475,91 L450.927828,91 L436.78847,48.4070599 C434.113026,40.1428766 432.456798,32.1328711 431.819788,24.8856261 L424.177937,24.8856261 C423.668329,30.8615282 422.52171,38.4900399 419.21153,48.4070599 L404.94477,91 L381,91 L414.879859,2 L441.247543,2 Z" id="Path"></path>
            </g>
        </g>
    </g>
</svg>