<svg width="87" height="36" viewBox="0 0 87 36" fill="none" xmlns="http://www.w3.org/2000/svg">
<path fill-rule="evenodd" clip-rule="evenodd" d="M0 8C0 3.58172 3.58172 0 8 0H79C83.4183 0 87 3.58172 87 8V28C87 32.4183 83.4183 36 79 36H8C3.58172 36 0 32.4183 0 28V8ZM36.777 22.3955C34.4714 22.3955 33.2275 21.4462 33 19.8443L34.6989 19.2806C34.8961 20.3337 35.6545 20.8826 36.9136 20.8826C37.8692 20.8826 38.4153 20.5414 38.4153 19.9333C38.4153 19.2147 37.6339 19.081 36.6408 18.9112C36.5269 18.8917 36.4102 18.8718 36.2916 18.8504C34.8809 18.5983 33.3034 18.1236 33.3034 16.4623C33.3034 14.9048 34.7141 14 36.7619 14C38.8097 14 40.2052 14.9197 40.4631 16.3288L38.84 16.8183C38.567 15.9135 37.7478 15.4981 36.6709 15.4981C35.7607 15.4981 35.3057 15.8245 35.3057 16.3288C35.3057 17.0054 36.1429 17.148 37.2096 17.3298C37.3356 17.3513 37.4648 17.3733 37.5962 17.3968C39.1282 17.6786 40.4631 18.0939 40.4631 19.7553C40.4631 21.4462 39.113 22.3955 36.777 22.3955ZM45.3589 22.1286H43.0533L41.0206 14.267H43.0684L43.6297 16.6996C43.8269 17.5896 43.9482 18.7763 43.9634 20.0964H44.6308C44.7522 19.0284 44.9949 18.1829 45.541 16.5216L46.3297 14.267H48.15L48.9236 16.5216C49.4848 18.1829 49.7275 19.0284 49.8337 20.0964H50.5012C50.5163 18.7466 50.6225 17.7231 50.8349 16.6996L51.3961 14.267H53.4439L51.4265 22.1286H49.1208L48.3775 19.9629C47.8163 18.2274 47.6494 17.2781 47.5887 15.9728H46.8758C46.8151 17.2633 46.6331 18.3164 46.1022 19.9629L45.3589 22.1286ZM61.5943 20.8381C61.1848 20.8381 61.1848 20.4376 61.1848 19.9333V17.026C61.1848 15.0383 59.8651 14 57.6959 14C55.6026 14 54.1009 15.0087 53.9189 16.7145L55.7847 17.0556C55.8302 16.0618 56.4976 15.513 57.5594 15.513C58.6212 15.513 59.1521 16.0025 59.1521 17.026V17.1446L56.6341 17.6638C54.7835 18.0494 53.9189 18.8949 53.9189 20.2299C53.9189 21.5352 54.9049 22.3955 56.3307 22.3955C57.5442 22.3955 58.5757 21.7577 58.8032 20.7787H59.3645C59.3645 21.8467 60.0016 22.3362 60.9117 22.3362C61.3061 22.3362 61.7308 22.2472 62.0342 22.0692V20.7046C61.928 20.7787 61.746 20.8381 61.5943 20.8381ZM57.0892 20.8826C56.3762 20.8826 55.906 20.5414 55.906 19.8739C55.906 19.3399 56.2397 18.8949 57.3319 18.6873L59.1521 18.3313V19.5476C58.8943 20.3041 57.9841 20.8826 57.0892 20.8826ZM69.8646 23.4339C69.8646 25.1693 68.3174 26 65.7691 26C63.2814 26 62.2954 25.2583 62.2954 24.1607C62.2954 23.3745 62.887 22.8554 63.7819 22.7664V22.3807C63.3117 22.1582 63.0842 21.7429 63.0842 21.3127C63.0842 20.6156 63.5544 20.1112 64.3129 19.9629V19.5773C63.1449 19.2213 62.4774 18.3016 62.4774 17.1595C62.4774 15.3646 63.8274 14.267 65.8601 14.267H69.7281L70.0012 15.7058H69.6068C69.2731 15.7058 68.7573 15.602 68.2871 15.335L67.9685 15.869C68.8332 16.2398 69.2124 16.8925 69.2124 17.7231C69.2124 19.2213 67.9685 20.1706 66.0421 20.1706H65.5264C64.9803 20.1706 64.7831 20.3634 64.7831 20.6749C64.7831 21.0606 65.1471 21.1496 65.6477 21.1941L67.468 21.2831C69.1972 21.3869 69.8646 22.2176 69.8646 23.4339ZM64.3129 17.204C64.3129 18.1978 64.9196 18.7614 65.8449 18.7614C66.846 18.7614 67.3921 18.1384 67.3921 17.204C67.3921 16.225 66.7702 15.6761 65.8449 15.6761C64.8438 15.6761 64.3129 16.2843 64.3129 17.204ZM63.9488 23.7454C63.9488 24.487 64.6921 24.7095 65.7994 24.7095C67.3163 24.7095 67.832 24.3387 67.832 23.7602C67.832 23.1965 67.3921 23.063 66.9067 23.0334L64.5859 22.8999C64.1763 22.974 63.9488 23.3449 63.9488 23.7454ZM70.5369 19.8443C70.7645 21.4462 72.0083 22.3955 74.314 22.3955C76.65 22.3955 78 21.4462 78 19.7553C78 18.0939 76.6651 17.6786 75.1331 17.3968C75.0017 17.3733 74.8725 17.3513 74.7465 17.3298C73.6798 17.148 72.8426 17.0054 72.8426 16.3288C72.8426 15.8245 73.2977 15.4981 74.2078 15.4981C75.2848 15.4981 76.1039 15.9135 76.3769 16.8183L78 16.3288C77.7421 14.9197 76.3466 14 74.2988 14C72.251 14 70.8403 14.9048 70.8403 16.4623C70.8403 18.1236 72.4179 18.5983 73.8286 18.8504C73.9472 18.8718 74.0638 18.8917 74.1777 18.9112C75.1709 19.081 75.9522 19.2147 75.9522 19.9333C75.9522 20.5414 75.4061 20.8826 74.4505 20.8826C73.1915 20.8826 72.433 20.3337 72.2358 19.2806L70.5369 19.8443ZM25 23.32V28H11V7H15.9898V21.6401C15.7064 22.2333 15.384 22.7606 15.0225 23.2219C14.6611 23.6832 14.1915 24.1921 13.6137 24.7486L14.571 25.7308C14.9115 25.3857 15.3845 24.9773 15.9898 24.5057C16.5952 24.034 17.1933 23.6388 17.7843 23.32H25Z" fill="white"/>
</svg>
