<svg width="160" height="32" viewBox="0 0 160 32" fill="none" xmlns="http://www.w3.org/2000/svg">
<path d="M21.0442 30.9517V24.2877H10.1978C9.3095 24.7417 8.41039 25.3045 7.50046 25.976C6.59053 26.6476 5.87962 27.2291 5.36772 27.7206L3.92881 26.3219C4.79726 25.5295 5.50314 24.8049 6.04646 24.148C6.58979 23.4912 7.07445 22.7404 7.50046 21.8957V1.04932H0V30.9517H21.0442Z" fill="#EE644E"/>
<path d="M40.4155 31.7635C48.4731 31.7635 53.1877 27.3209 53.1877 19.4181V1.04956H45.6872V18.8628C45.6872 23.0919 43.93 25.0996 40.4155 25.0996C36.901 25.0996 35.1009 23.1346 35.1009 18.8628V1.04956H27.6004V19.4181C27.6004 27.3209 32.3578 31.7635 40.4155 31.7635Z" fill="#EE644E"/>
<path d="M75.4664 31.7629C82.7097 31.7202 88.4101 27.5766 89.653 20.6136L82.5383 18.8622C81.6382 22.9204 79.0238 25.099 75.3378 25.099C70.5375 25.099 67.2373 21.4253 67.2373 16.0001C67.2373 10.575 70.5375 6.90126 75.3378 6.90126C78.8952 6.90126 81.3811 8.90899 82.3668 12.54L89.3959 10.6177C88.0672 4.3382 82.4954 0.280023 75.4664 0.237306C65.5658 0.15187 59.6511 7.54202 59.6511 16.0001C59.6511 24.4582 65.5658 31.8484 75.4664 31.7629Z" fill="#EE644E"/>
<path d="M113.055 1.04956C118.841 1.04956 122.142 4.16795 122.142 9.16591C122.142 14.7192 118.884 17.325 113.013 17.7094V19.8453C116.527 20.2725 117.984 20.7424 119.742 24.9714L120.942 27.8762C121.456 29.0296 121.842 29.8413 122.656 30.3111V30.9519H114.255C113.698 30.482 113.484 29.9694 113.355 29.4995L111.512 24.9287C110.312 21.8958 109.541 21.0414 106.841 21.0414H104.655V30.9519H97.1544V1.04956H113.055ZM111.255 7.54264H104.655V14.5483H111.255C113.313 14.5483 114.641 13.2668 114.641 11.0028C114.641 8.69602 113.484 7.54264 111.255 7.54264Z" fill="#EE644E"/>
<path d="M148.642 1.04858L160 30.9509H151.9L147.142 16.6405C146.242 13.8639 145.685 11.1727 145.471 8.73775H142.899C142.728 10.7455 142.342 13.3085 141.227 16.6405L136.427 30.9509H128.37L139.77 1.04858H148.642Z" fill="#EE644E"/>
</svg>
