<svg width="45" height="39" viewBox="0 0 45 39" fill="none" xmlns="http://www.w3.org/2000/svg">
<path d="M25.7502 0L10.7879 9.83183H4.82816C2.17519 9.83183 0 12.0097 0 14.6659V24.3341C0 26.9903 2.17519 29.1682 4.82816 29.1682H10.7879L25.7502 39V0ZM22.5314 5.96707V33.0329L12.8751 26.6882V12.3118L22.5314 5.96707ZM31.3202 11.5187L29.0319 13.7847L34.7402 19.5L29.0319 25.2153L31.3202 27.4939L37.0159 21.7786L42.7117 27.4939L45 25.2153L39.2917 19.5L45 13.7847L42.7117 11.5187L37.0159 17.2214L31.3202 11.5187ZM4.82816 13.0546H9.65633V25.9454H4.82816C3.92288 25.9454 3.21878 25.2405 3.21878 24.3341V14.6659C3.21878 13.7595 3.92288 13.0546 4.82816 13.0546Z" fill="white"/>
</svg>
