<?xml version="1.0" encoding="utf-8"?>
<!-- Generator: Adobe Illustrator 22.0.1, SVG Export Plug-In . SVG Version: 6.00 Build 0)  -->
<svg version="1.1" id="Layer_1" xmlns="http://www.w3.org/2000/svg" xmlns:xlink="http://www.w3.org/1999/xlink" x="0px" y="0px"
	 viewBox="-25 75 840 145" xml:space="preserve">
<style type="text/css">
	.st0{fill:#FFFFFF;} 
</style>
<path class="st0" d="M56.7,94.8H4.4v116.9h15.8v-49.4h36.5c11.7,0,20.4-3.4,26-10.2c5.7-6.7,8.5-14.7,8.5-23.8
	c0-10.6-3.2-18.8-9.5-24.7C75.4,97.7,67,94.8,56.7,94.8 M68.7,144.3c-4.4,3-10.1,4.5-17.2,4.5H20.2v-40.5h31.3
	c6.1,0,10.8,0.8,14.3,2.5c6.3,3.1,9.5,8.9,9.5,17.5C75.3,136,73.1,141.3,68.7,144.3"/>
<polygon class="st0" points="171.9,94.7 138.3,150.9 104.7,94.7 86.2,94.7 130.4,164.5 130.4,211.6 146.2,211.6 146.2,164.5 
	190.5,94.7 "/>
<path class="st0" d="M372,189.2l-58.3-94.4h-3.5h-15.2h-7.4l-33.4,98.8l-33.6-98.8h-22.7v116.9h15.1v-69c0-2.7-0.1-7-0.3-12.9
	c-0.2-5.9-0.2-10.2-0.2-13.1V113l33.7,98.6h15.7l33-97.5v97.5h0.1h15.1h0.1v-94.2l59.1,94.2h17.8V94.8H372V189.2z"/>
<polygon class="st0" points="395.4,94.8 395.4,108.7 434.7,108.7 434.7,211.6 450.7,211.6 450.7,108.7 490.1,108.7 490.1,94.8 "/>
<path class="st0" d="M569.3,155.1c-4.2-3.1-10.1-5.6-17.7-7.4l-15.9-3.7c-10.7-2.5-17.5-4.7-20.6-6.4c-4.6-2.6-6.9-6.8-6.9-12.6
	c0-5.2,1.9-9.8,5.9-13.7c3.9-3.9,10.3-5.9,19.3-5.9c11.1,0,18.9,3,23.6,9.2c2.5,3.3,4.1,8.1,4.9,14.4h14.9c0-13-4.2-22.4-12.5-28.4
	c-8.3-5.9-18.5-8.9-30.4-8.9c-12.9,0-22.9,3.4-30,10.1c-7,6.7-10.6,15.3-10.6,25.8c0,9.7,3.6,17,10.8,21.9
	c4.2,2.8,11.2,5.4,21.3,7.7l15.3,3.6c8.3,2,14.4,4.3,18.3,6.9c3.8,2.7,5.8,7.2,5.8,13.6c0,8.5-4.6,14.4-13.7,17.7
	c-4.7,1.7-9.9,2.5-15.6,2.5c-12.8,0-21.7-3.9-26.7-11.6c-2.6-4.1-4.2-9.5-4.5-16.2h-14.9c-0.2,12.6,3.8,22.6,11.8,30
	c8,7.4,19.1,11.1,33.3,11.1c12.2,0,22.8-2.8,32-8.4c9.2-5.6,13.8-14.8,13.8-27.7C580.1,168.5,576.5,160.6,569.3,155.1"/>
<path class="st0" d="M650.7,157.8c4,3.1,6.4,8.5,7.2,16.1h-9.3c-0.6-3.5-1.9-6.4-3.9-8.7c-2-2.3-5.3-3.5-9.7-3.5
	c-6.1,0-10.4,3-13.1,8.9c-1.7,3.8-2.5,8.6-2.5,14.2c0,5.7,1.2,10.5,3.6,14.4c2.4,3.9,6.2,5.8,11.3,5.8c3.9,0,7.1-1.2,9.4-3.6
	c2.3-2.4,3.9-5.7,4.8-9.9h9.3c-1.1,7.5-3.7,13-8,16.5c-4.2,3.5-9.7,5.2-16.3,5.2c-7.4,0-13.3-2.7-17.8-8.2
	c-4.4-5.4-6.6-12.2-6.6-20.3c0-10,2.4-17.7,7.3-23.3c4.8-5.6,11-8.3,18.5-8.3C641.4,153.2,646.6,154.7,650.7,157.8"/>
<path class="st0" d="M706.4,160.5c5,4.9,7.5,12.1,7.5,21.5c0,9.1-2.2,16.7-6.6,22.7c-4.4,6-11.3,9-20.6,9c-7.8,0-13.9-2.6-18.5-7.9
	s-6.8-12.4-6.8-21.3c0-9.5,2.4-17.1,7.2-22.8c4.8-5.7,11.3-8.5,19.4-8.5C695.3,153.2,701.4,155.6,706.4,160.5 M700.5,198.2
	c2.3-4.8,3.5-10.1,3.5-16c0-5.3-0.9-9.6-2.5-12.9c-2.6-5.2-7.2-7.8-13.7-7.8c-5.8,0-10,2.2-12.6,6.7c-2.6,4.5-3.9,9.8-3.9,16.1
	c0,6,1.3,11.1,3.9,15.1c2.6,4,6.8,6,12.5,6C693.9,205.4,698.2,203,700.5,198.2"/>
<path class="st0" d="M719.2,154.8h9.4v8.1c2.3-2.8,4.3-4.8,6.2-6.1c3.1-2.2,6.7-3.2,10.7-3.2c4.5,0,8.2,1.1,10.9,3.3
	c1.6,1.3,3,3.1,4.3,5.6c2.1-3,4.6-5.3,7.5-6.8c2.9-1.5,6.1-2.2,9.6-2.2c7.6,0,12.9,2.8,15.6,8.3c1.5,3,2.2,7,2.2,12v37.8h-9.9v-39.5
	c0-3.8-1-6.4-2.8-7.8c-1.9-1.4-4.2-2.1-6.9-2.1c-3.7,0-7,1.3-9.7,3.8c-2.7,2.5-4.1,6.7-4.1,12.6v33.1h-9.7v-37.1
	c0-3.8-0.5-6.7-1.4-8.4c-1.5-2.6-4.2-4-8.1-4c-3.6,0-6.9,1.4-9.9,4.2c-2.9,2.8-4.4,7.8-4.4,15.2v30.1h-9.5V154.8z"/>
<path class="st0" d="M586.1,203.8c0-4.3,3.5-7.8,7.8-7.8c4.3,0,7.8,3.5,7.8,7.8c0,4.3-3.5,7.8-7.8,7.8
	C589.6,211.6,586.1,208.1,586.1,203.8"/>
</svg>
