<svg width="88" height="87" viewBox="0 0 88 87" fill="none" xmlns="http://www.w3.org/2000/svg">
<path d="M86.4008 43.2C86.4008 66.6169 67.4176 85.6 44.0008 85.6C20.5839 85.6 1.60078 66.6169 1.60078 43.2C1.60078 19.7831 20.5839 0.8 44.0008 0.8C67.4176 0.8 86.4008 19.7831 86.4008 43.2Z" fill="#001035" stroke="url(#paint0_linear_7039_253)" stroke-width="1.6"/>
<path fill-rule="evenodd" clip-rule="evenodd" d="M36.1294 75.8558C36.055 75.5783 36.0484 75.2797 36.1219 74.9845L42.0383 51.2294L26.0972 51.2294C25.5202 51.2294 24.9803 50.9456 24.6541 50.4708C24.3278 49.996 24.2574 49.3914 24.4655 48.8546L36.04 10.4004C21.3222 14.0077 10.4023 27.2872 10.4023 43.1172C10.4023 58.9792 21.3664 72.2804 36.1294 75.8558ZM39.2199 76.4521C40.8088 76.682 42.4336 76.801 44.0862 76.801C62.6893 76.801 77.77 61.7202 77.7701 43.1172C77.7701 28.5075 68.4689 16.0702 55.4651 11.4038L48.5598 35.7093L62.2554 35.7093C62.8953 35.7093 63.4841 36.0578 63.7908 36.6178C64.0976 37.1779 64.0733 37.8604 63.7275 38.3975L39.292 76.3484C39.2691 76.3841 39.245 76.4186 39.2199 76.4521Z" fill="url(#paint1_linear_7039_253)"/>
<defs>
<linearGradient id="paint0_linear_7039_253" x1="44.0008" y1="0" x2="44.0008" y2="86.4" gradientUnits="userSpaceOnUse">
<stop stop-color="#A2FFC7"/>
<stop offset="1" stop-color="#0EF169"/>
</linearGradient>
<linearGradient id="paint1_linear_7039_253" x1="36.1072" y1="10.4226" x2="71.6324" y2="86.112" gradientUnits="userSpaceOnUse">
<stop offset="0.148924" stop-color="#3CED74"/>
<stop offset="1" stop-color="#00A033"/>
</linearGradient>
</defs>
</svg>
