<svg width="26" height="35" viewBox="0 0 26 35" fill="none" xmlns="http://www.w3.org/2000/svg">
<path d="M12.7857 2.64473C10.6682 2.64473 8.87755 1.51015 8.28198 1.0293C8.14763 1.5408 8.07141 2.08215 8.07141 2.64473C8.07141 5.6823 10.1818 8.14473 12.7857 8.14473C15.3896 8.14473 17.5 5.6823 17.5 2.64473C17.5 2.08215 17.4238 1.5408 17.2894 1.0293C16.6938 1.51015 14.9032 2.64473 12.7857 2.64473Z" stroke="#50A0FF" stroke-width="1.5" stroke-miterlimit="10" stroke-linecap="round" stroke-linejoin="round"/>
<path d="M21.4286 6.18021C21.4286 4.70229 21.4286 3.0625 21.4286 1.78571L17.5 1.07307C17.5 1.07307 17.4269 1.04164 17.3201 1C16.7622 1.49579 14.9456 2.6445 12.7857 2.6445C10.6258 2.6445 8.80921 1.49579 8.25136 1C8.1445 1.04164 8.07143 1.07307 8.07143 1.07307L4.14286 1.78571C4.14286 3.0625 4.14286 4.70229 4.14286 6.18021C4.14286 9.64679 2.90536 12.7158 1 14.6518V34H24.5604V14.6408C22.6614 12.704 21.4286 9.6405 21.4286 6.18021Z" stroke="#50A0FF" stroke-width="1.5" stroke-miterlimit="10" stroke-linecap="round" stroke-linejoin="round"/>
<path d="M10.3087 24.1777V17.1777H9.27871C8.84871 17.7377 7.95871 18.2077 7.03871 18.3677V19.6777C7.67871 19.6177 8.39871 19.3577 9.04871 18.6977L9.40871 19.0477C8.92871 19.5577 8.76871 20.1277 8.76871 20.9177V24.1777H10.3087ZM15.645 24.2977C17.465 24.2977 18.675 22.9877 18.675 20.6577C18.675 18.4577 17.595 16.9977 15.645 16.9977C13.855 16.9977 12.645 18.3177 12.645 20.6577C12.645 22.8377 13.725 24.2977 15.645 24.2977ZM15.645 22.9277C14.735 22.9277 14.185 22.2377 14.185 20.6577C14.185 19.2577 14.595 18.3777 15.645 18.3777C16.575 18.3777 17.135 19.0777 17.135 20.6577C17.135 22.0577 16.725 22.9277 15.645 22.9277Z" fill="#50A0FF"/>
</svg>
