<?xml version="1.0" encoding="utf-8"?>
<!-- Generator: Adobe Illustrator 26.0.1, SVG Export Plug-In . SVG Version: 6.00 Build 0)  -->
<svg version="1.1" id="Capa_1" xmlns="http://www.w3.org/2000/svg" xmlns:xlink="http://www.w3.org/1999/xlink" x="0px" y="0px"
	 viewBox="0 0 26 35" style="enable-background:new 0 0 26 35;" xml:space="preserve">
<style type="text/css">
	.st0{fill:none;stroke:#50A0FF;stroke-width:1.5;stroke-linecap:round;stroke-linejoin:round;stroke-miterlimit:10;}
	.st1{fill:#50A0FF;}
</style>
<path class="st0" d="M13.3,2.6c-2.1,0-3.9-1.1-4.5-1.6C8.6,1.5,8.6,2.1,8.6,2.6c0,3,2.1,5.5,4.7,5.5S18,5.7,18,2.6
	c0-0.6-0.1-1.1-0.2-1.6C17.2,1.5,15.4,2.6,13.3,2.6z"/>
<path class="st0" d="M21.9,6.2c0-1.5,0-3.1,0-4.4L18,1.1c0,0-0.1,0-0.2-0.1c-0.6,0.5-2.4,1.6-4.5,1.6S9.3,1.5,8.8,1
	C8.6,1,8.6,1.1,8.6,1.1L4.6,1.8c0,1.3,0,2.9,0,4.4c0,3.5-1.2,6.5-3.1,8.5V34h23.6V14.6C23.2,12.7,21.9,9.6,21.9,6.2z"/>
<path class="st1" d="M13.4,24.4c1.9,0,3-1,3-2.5c0-1.4-0.9-2.3-2.3-2.3c-0.9,0-1.6,0.4-1.9,1.1l-0.4-0.1c0-1.6,0.7-2.3,1.7-2.3
	c0.6,0,1.1,0.3,1.3,0.9l1.5-0.3C16,17.7,15,17,13.5,17c-2,0-3.3,1.3-3.3,3.7C10.2,22.9,11.3,24.4,13.4,24.4z M13.4,23.1
	c-0.9,0-1.5-0.6-1.6-1.6c0.3-0.5,0.9-0.8,1.6-0.8c0.9,0,1.4,0.4,1.4,1.2C14.8,22.6,14.2,23.1,13.4,23.1z"/>
</svg>
