<?xml version="1.0" encoding="utf-8"?>
<!-- Generator: Adobe Illustrator 26.0.1, SVG Export Plug-In . SVG Version: 6.00 Build 0)  -->
<svg version="1.1" id="Capa_1" xmlns="http://www.w3.org/2000/svg" xmlns:xlink="http://www.w3.org/1999/xlink" x="0px" y="0px"
	 viewBox="0 0 26 35" style="enable-background:new 0 0 26 35;" xml:space="preserve">
<style type="text/css">
	.st0{fill:none;stroke:#50A0FF;stroke-width:1.5;stroke-linecap:round;stroke-linejoin:round;stroke-miterlimit:10;}
	.st1{fill:#50A0FF;}
</style>
<path class="st0" d="M13.3,2.6c-2.1,0-3.9-1.1-4.5-1.6C8.6,1.5,8.6,2.1,8.6,2.6c0,3,2.1,5.5,4.7,5.5S18,5.7,18,2.6
	C18,2,17.9,1.5,17.8,1C17.2,1.5,15.4,2.6,13.3,2.6z"/>
<path class="st0" d="M21.9,6.2c0-1.5,0-3.1,0-4.4L18,1.1c0,0-0.1,0-0.2-0.1c-0.6,0.5-2.4,1.6-4.5,1.6S9.3,1.5,8.8,1
	C8.6,1,8.6,1.1,8.6,1.1l-4,0.7c0,1.3,0,2.9,0,4.4c0,3.5-1.2,6.5-3.1,8.5V34h23.6V14.6C23.2,12.7,21.9,9.6,21.9,6.2z"/>
<g>
	<path class="st1" d="M8.4,18.5c1.3,0,2-0.3,2.5-0.8l0.4,0.5c-0.6,0.5-0.9,1-1.3,1.7l-2.1,4.2v0.1h1.7l2.8-5.8v-1.2H7v1.3H8.4z"/>
	<path class="st1" d="M16.6,24.5c1.9,0,3-1,3-2.5c0-1.4-0.9-2.3-2.3-2.3c-0.9,0-1.6,0.4-1.9,1.1L15,20.7c0-1.6,0.7-2.3,1.7-2.3
		c0.6,0,1.1,0.3,1.3,0.9l1.5-0.3c-0.3-1.2-1.3-1.9-2.8-1.9c-2,0-3.3,1.3-3.3,3.7C13.4,23,14.5,24.5,16.6,24.5z M16.6,23.2
		c-0.9,0-1.5-0.6-1.6-1.6c0.3-0.5,0.9-0.8,1.6-0.8c0.9,0,1.4,0.4,1.4,1.2C18,22.7,17.4,23.2,16.6,23.2z"/>
</g>
</svg>
