<?xml version="1.0" encoding="utf-8"?>
<!-- Generator: Adobe Illustrator 24.2.3, SVG Export Plug-In . SVG Version: 6.00 Build 0)  -->
<svg version="1.1" id="Capa_1" xmlns="http://www.w3.org/2000/svg" xmlns:xlink="http://www.w3.org/1999/xlink" x="0px" y="0px"
	 viewBox="0 0 26 35" style="enable-background:new 0 0 26 35;" xml:space="preserve">
<style type="text/css">
	.st0{fill:none;stroke:#50A0FF;stroke-width:1.5;stroke-linecap:round;stroke-linejoin:round;stroke-miterlimit:10;}
	.st1{fill:#50A0FF;}
</style>
<path class="st0" d="M13,2.6c-2.1,0-3.9-1.1-4.5-1.6C8.3,1.5,8.3,2.1,8.3,2.6c0,3,2.1,5.5,4.7,5.5s4.7-2.4,4.7-5.5
	c0-0.6-0.1-1.1-0.2-1.6C16.9,1.5,15.1,2.6,13,2.6z"/>
<path class="st0" d="M21.6,6.2c0-1.5,0-3.1,0-4.4l-3.9-0.7c0,0-0.1,0-0.2-0.1c-0.6,0.5-2.4,1.6-4.5,1.6S9,1.5,8.5,1
	C8.3,1,8.3,1.1,8.3,1.1l-4,0.7c0,1.3,0,2.9,0,4.4c0,3.5-1.2,6.5-3.1,8.5V34h23.6V14.6C22.9,12.7,21.6,9.6,21.6,6.2z"/>
<g>
	<path class="st1" d="M10.6,17c-1.9,0-3,1-3,2.5c0,1.4,0.9,2.3,2.3,2.3c0.9,0,1.6-0.4,1.9-1.1l0.4,0.1c0,1.6-0.7,2.3-1.7,2.3
		c-0.6,0-1.1-0.3-1.3-0.9l-1.5,0.3c0.2,1.1,1.3,1.8,2.7,1.8c2,0,3.3-1.3,3.3-3.7C13.7,18.4,12.7,17,10.6,17z M10.5,18.3
		c0.9,0,1.5,0.6,1.6,1.6c-0.3,0.5-0.9,0.8-1.6,0.8c-0.9,0-1.4-0.4-1.4-1.2C9.1,18.8,9.7,18.3,10.5,18.3z"/>
	<path class="st1" d="M18.4,24.1v-7h-1c-0.4,0.6-1.3,1-2.2,1.2v1.3c0.6-0.1,1.4-0.3,2-1l0.4,0.4c-0.5,0.5-0.6,1.1-0.6,1.9v3.3H18.4z
		"/>
</g>
</svg>
