<svg width="26" height="35" viewBox="0 0 26 35" fill="none" xmlns="http://www.w3.org/2000/svg">
<path d="M13.2857 2.64473C11.1682 2.64473 9.37758 1.51015 8.78201 1.0293C8.64766 1.5408 8.57144 2.08215 8.57144 2.64473C8.57144 5.6823 10.6819 8.14473 13.2857 8.14473C15.8896 8.14473 18 5.6823 18 2.64473C18 2.08215 17.9238 1.5408 17.7894 1.0293C17.1939 1.51015 15.4032 2.64473 13.2857 2.64473Z" stroke="#50A0FF" stroke-width="1.5" stroke-miterlimit="10" stroke-linecap="round" stroke-linejoin="round"/>
<path d="M21.9286 6.18021C21.9286 4.70229 21.9286 3.0625 21.9286 1.78571L18 1.07307C18 1.07307 17.9269 1.04164 17.8201 1C17.2622 1.49579 15.4456 2.6445 13.2857 2.6445C11.1258 2.6445 9.30921 1.49579 8.75136 1C8.6445 1.04164 8.57143 1.07307 8.57143 1.07307L4.64286 1.78571C4.64286 3.0625 4.64286 4.70229 4.64286 6.18021C4.64286 9.64679 3.40536 12.7158 1.5 14.6518V34H25.0604V14.6408C23.1614 12.704 21.9286 9.6405 21.9286 6.18021Z" stroke="#50A0FF" stroke-width="1.5" stroke-miterlimit="10" stroke-linecap="round" stroke-linejoin="round"/>
<path d="M9.62447 24.3677C11.4545 24.3677 12.5245 23.5477 12.5245 22.2877C12.5245 21.4577 11.9345 20.8577 11.0445 20.7977V20.3477C11.8245 20.1777 12.3545 19.6777 12.3545 18.8877C12.3545 17.7977 11.4445 16.9977 9.70447 16.9977C8.16447 16.9977 6.93447 17.8077 6.83447 19.2077L8.21447 19.5277C8.29447 18.7677 8.77447 18.2577 9.67447 18.2577C10.3945 18.2577 10.8145 18.5777 10.8145 19.1677C10.8145 19.6577 10.5145 20.0477 9.63447 20.0477H8.89447V21.1477H9.75447C10.4745 21.1477 10.9845 21.4077 10.9845 22.0677C10.9845 22.7377 10.5045 23.0777 9.65447 23.0777C8.79447 23.0777 8.17447 22.7277 8.05447 21.7177L6.68447 22.0577C6.79447 23.5077 7.74447 24.3677 9.62447 24.3677ZM13.8472 22.1477C13.9672 23.4677 15.1672 24.3577 16.8972 24.3577C18.6472 24.3577 19.8472 23.4577 19.8472 21.8177C19.8472 20.3977 18.9272 19.4377 17.4372 19.4377C16.6872 19.4377 16.0372 19.7577 15.6872 20.2877L15.2472 19.9577C15.5672 19.6277 15.8072 19.1677 15.8672 18.7577L15.9072 18.4477H19.2072V17.1777H14.6172L14.1372 20.8677L15.3672 21.2277C15.7172 20.8177 16.2772 20.5677 16.9272 20.5677C17.7972 20.5677 18.3072 21.0077 18.3072 21.8177C18.3072 22.5777 17.8372 23.0777 16.8672 23.0777C15.9772 23.0777 15.3472 22.6677 15.2272 21.8177L13.8472 22.1477Z" fill="#50A0FF"/>
</svg>
