<svg width="26" height="35" viewBox="0 0 26 35" fill="none" xmlns="http://www.w3.org/2000/svg">
<path d="M13.2857 2.64473C11.1682 2.64473 9.37758 1.51015 8.78201 1.0293C8.64766 1.5408 8.57144 2.08215 8.57144 2.64473C8.57144 5.6823 10.6819 8.14473 13.2857 8.14473C15.8896 8.14473 18 5.6823 18 2.64473C18 2.08215 17.9238 1.5408 17.7894 1.0293C17.1939 1.51015 15.4032 2.64473 13.2857 2.64473Z" stroke="#50A0FF" stroke-width="1.5" stroke-miterlimit="10" stroke-linecap="round" stroke-linejoin="round"/>
<path d="M21.9286 6.18021C21.9286 4.70229 21.9286 3.0625 21.9286 1.78571L18 1.07307C18 1.07307 17.9269 1.04164 17.8201 1C17.2622 1.49579 15.4456 2.6445 13.2857 2.6445C11.1258 2.6445 9.30921 1.49579 8.75136 1C8.6445 1.04164 8.57143 1.07307 8.57143 1.07307L4.64286 1.78571C4.64286 3.0625 4.64286 4.70229 4.64286 6.18021C4.64286 9.64679 3.40536 12.7158 1.5 14.6518V34H25.0604V14.6408C23.1614 12.704 21.9286 9.6405 21.9286 6.18021Z" stroke="#50A0FF" stroke-width="1.5" stroke-miterlimit="10" stroke-linecap="round" stroke-linejoin="round"/>
<path d="M12.4179 24.1777V22.8977H11.6379C10.5679 22.8977 9.72791 23.2377 9.13791 23.4877L8.90791 22.9977C9.47791 22.7077 10.1479 22.2777 10.5279 21.9977C11.9479 21.0377 12.3379 20.3577 12.3379 19.3177C12.3379 17.9177 11.2979 16.9977 9.74791 16.9977C7.98791 16.9977 6.99791 17.9977 6.99791 19.5477L8.45791 19.6877C8.45791 18.7577 8.94791 18.2777 9.71791 18.2777C10.3679 18.2777 10.8079 18.6877 10.8079 19.4177C10.8079 19.8677 10.6779 20.3277 9.81791 20.9477L6.98791 22.9877V24.1777H12.4179ZM16.6698 24.3677C18.4998 24.3677 19.5698 23.5477 19.5698 22.2877C19.5698 21.4577 18.9798 20.8577 18.0898 20.7977V20.3477C18.8698 20.1777 19.3998 19.6777 19.3998 18.8877C19.3998 17.7977 18.4898 16.9977 16.7498 16.9977C15.2098 16.9977 13.9798 17.8077 13.8798 19.2077L15.2598 19.5277C15.3398 18.7677 15.8198 18.2577 16.7198 18.2577C17.4398 18.2577 17.8598 18.5777 17.8598 19.1677C17.8598 19.6577 17.5598 20.0477 16.6798 20.0477H15.9398V21.1477H16.7998C17.5198 21.1477 18.0298 21.4077 18.0298 22.0677C18.0298 22.7377 17.5498 23.0777 16.6998 23.0777C15.8398 23.0777 15.2198 22.7277 15.0998 21.7177L13.7298 22.0577C13.8398 23.5077 14.7898 24.3677 16.6698 24.3677Z" fill="#50A0FF"/>
</svg>
