<svg width="26" height="35" viewBox="0 0 26 35" fill="none" xmlns="http://www.w3.org/2000/svg">
<path d="M13.2857 2.64473C11.1682 2.64473 9.37755 1.51015 8.78198 1.0293C8.64763 1.5408 8.57141 2.08215 8.57141 2.64473C8.57141 5.6823 10.6818 8.14473 13.2857 8.14473C15.8896 8.14473 18 5.6823 18 2.64473C18 2.08215 17.9238 1.5408 17.7894 1.0293C17.1938 1.51015 15.4032 2.64473 13.2857 2.64473Z" stroke="#50A0FF" stroke-width="1.5" stroke-miterlimit="10" stroke-linecap="round" stroke-linejoin="round"/>
<path d="M21.9286 6.18021C21.9286 4.70229 21.9286 3.0625 21.9286 1.78571L18 1.07307C18 1.07307 17.9269 1.04164 17.8201 1C17.2622 1.49579 15.4456 2.6445 13.2857 2.6445C11.1258 2.6445 9.30921 1.49579 8.75136 1C8.6445 1.04164 8.57143 1.07307 8.57143 1.07307L4.64286 1.78571C4.64286 3.0625 4.64286 4.70229 4.64286 6.18021C4.64286 9.64679 3.40536 12.7158 1.5 14.6518V34H25.0604V14.6408C23.1614 12.704 21.9286 9.6405 21.9286 6.18021Z" stroke="#50A0FF" stroke-width="1.5" stroke-miterlimit="10" stroke-linecap="round" stroke-linejoin="round"/>
<path d="M13.1685 16.9977C11.3185 16.9977 10.1985 17.9977 10.1985 19.4877C10.1985 20.9277 11.1285 21.7477 12.5085 21.7477C13.4285 21.7477 14.1585 21.3277 14.4385 20.6677L14.8185 20.7377C14.7985 22.3577 14.0985 23.0777 13.0885 23.0777C12.4985 23.0777 12.0085 22.7577 11.8285 22.2077L10.2885 22.5477C10.5085 23.6177 11.5885 24.3577 13.0285 24.3577C15.0185 24.3577 16.3485 23.0177 16.3485 20.6677C16.3485 18.4277 15.2785 16.9977 13.1685 16.9977ZM13.1385 18.2777C14.0685 18.2777 14.6585 18.8377 14.7185 19.8577C14.3885 20.3677 13.7885 20.6877 13.0885 20.6877C12.2285 20.6877 11.7385 20.2577 11.7385 19.5277C11.7385 18.7677 12.2985 18.2777 13.1385 18.2777Z" fill="#50A0FF"/>
</svg>
