<svg width="26" height="35" viewBox="0 0 26 35" fill="none" xmlns="http://www.w3.org/2000/svg">
<path d="M13.2857 2.64473C11.1682 2.64473 9.37755 1.51015 8.78198 1.0293C8.64763 1.5408 8.57141 2.08215 8.57141 2.64473C8.57141 5.6823 10.6818 8.14473 13.2857 8.14473C15.8896 8.14473 18 5.6823 18 2.64473C18 2.08215 17.9238 1.5408 17.7894 1.0293C17.1938 1.51015 15.4032 2.64473 13.2857 2.64473Z" stroke="#50A0FF" stroke-width="1.5" stroke-miterlimit="10" stroke-linecap="round" stroke-linejoin="round"/>
<path d="M21.9286 6.18021C21.9286 4.70229 21.9286 3.0625 21.9286 1.78571L18 1.07307C18 1.07307 17.9269 1.04164 17.8201 1C17.2622 1.49579 15.4456 2.6445 13.2857 2.6445C11.1258 2.6445 9.30921 1.49579 8.75136 1C8.6445 1.04164 8.57143 1.07307 8.57143 1.07307L4.64286 1.78571C4.64286 3.0625 4.64286 4.70229 4.64286 6.18021C4.64286 9.64679 3.40536 12.7158 1.5 14.6518V34H25.0604V14.6408C23.1614 12.704 21.9286 9.6405 21.9286 6.18021Z" stroke="#50A0FF" stroke-width="1.5" stroke-miterlimit="10" stroke-linecap="round" stroke-linejoin="round"/>
<path d="M11.3263 24.1777V17.1777H10.2963C9.86635 17.7377 8.97635 18.2077 8.05635 18.3677V19.6777C8.69635 19.6177 9.41635 19.3577 10.0663 18.6977L10.4263 19.0477C9.94635 19.5577 9.78635 20.1277 9.78635 20.9177V24.1777H11.3263ZM14.8526 18.4577C16.1426 18.4577 16.8126 18.1677 17.3226 17.7077L17.6826 18.1877C17.1226 18.6977 16.7726 19.1577 16.4026 19.8877L14.2726 24.1077V24.1777H16.0426L18.8726 18.3477V17.1777H13.5026V18.4577H14.8526Z" fill="#50A0FF"/>
</svg>
