<svg width="45" height="39" viewBox="0 0 45 39" fill="none" xmlns="http://www.w3.org/2000/svg">
<path d="M25.7143 0L10.7729 9.83183H4.82143C2.17215 9.83183 0 12.0097 0 14.6659V24.3341C0 26.9903 2.17215 29.1682 4.82143 29.1682H10.7729L25.7143 39V0ZM28.9286 3.38638V6.6091C35.1562 6.6091 40.3292 11.0152 41.5346 16.8941C41.6978 17.7376 41.7857 18.6062 41.7857 19.5C41.7857 26.6378 36.0477 32.3909 28.9286 32.3909V35.6136C37.7804 35.6136 45 28.3751 45 19.5C45 10.6249 37.7804 3.38638 28.9286 3.38638ZM22.5 5.96707V33.0329L12.8571 26.6882V12.3118L22.5 5.96707ZM28.9286 9.83183V13.0546C32.4944 13.0546 35.3571 15.9248 35.3571 19.5C35.3571 23.0752 32.4944 25.9454 28.9286 25.9454V29.1682C34.2397 29.1682 38.5714 24.8251 38.5714 19.5C38.5714 14.175 34.2397 9.83183 28.9286 9.83183ZM4.82143 13.0546H9.64286V25.9454H4.82143C3.91741 25.9454 3.21429 25.2405 3.21429 24.3341V14.6659C3.21429 13.7595 3.91741 13.0546 4.82143 13.0546ZM28.9286 16.2773V22.7227C30.6989 22.7227 32.1429 21.275 32.1429 19.5C32.1429 17.725 30.6989 16.2773 28.9286 16.2773Z" fill="white"/>
</svg>
