<svg width="150" height="39" viewBox="0 0 150 39" fill="none" xmlns="http://www.w3.org/2000/svg">
<path d="M79.139 1.54883V37.2626H70.2891V1.54883H79.139Z" fill="white"/>
<path d="M101.172 0.408203C111.772 0.408203 120.309 8.63827 120.309 19.3361C120.309 30.0715 111.709 38.4644 101.084 38.4644C90.4594 38.4644 81.8594 30.1843 81.8594 19.4739C81.8469 8.77606 90.5719 0.408203 101.172 0.408203ZM101.097 29.7458C106.722 29.7458 110.847 24.8729 110.847 19.3987C110.847 13.9246 106.697 9.10176 101.097 9.10176C95.4718 9.10176 91.3218 13.9246 91.3218 19.3987C91.3218 24.8729 95.4843 29.7458 101.097 29.7458Z" fill="white"/>
<path d="M121.32 26.4648L129.433 24.5357C130.02 28.8324 133.133 30.3732 136.408 30.3732C139.658 30.3732 140.845 28.4441 140.845 26.9409C140.845 25.7258 140.145 24.5357 137.77 24.0597L132.82 23.0951C126.895 21.9552 122.708 18.2222 122.708 12.485C122.708 5.65792 128.92 0.847656 135.933 0.847656C144.97 0.847656 148.695 6.50974 149.345 11.2448L141.383 13.4871C140.958 10.5684 139.158 8.45139 135.895 8.45139C133.07 8.45139 131.72 10.3429 131.72 11.771C131.72 12.961 132.283 14.3264 134.383 14.7398L139.545 15.7294C146.295 17.0322 149.995 21.166 149.995 26.54C149.995 32.3775 144.97 38.002 136.358 38.002C127.345 38.0145 122.508 33.2794 121.32 26.4648Z" fill="white"/>
<path d="M9.52496 37.2626H0L15.7249 1.54883H25.2749L9.52496 37.2626Z" fill="white"/>
<path d="M56.2889 19.01L68.1139 1.53516H57.3014L50.9139 12.1077L44.6889 1.53516H33.7265L45.7014 19.01L37.964 30.3717L25.2765 1.54768H15.7266L31.514 37.2614H43.464L50.9139 25.9498L58.2889 37.2614H68.0639L56.2889 19.01Z" fill="white"/>
</svg>
