<svg width="205" height="42" viewBox="0 0 205 42" fill="none" xmlns="http://www.w3.org/2000/svg">
<g clip-path="url(#clip0_7676_4854)">
<path d="M5.37888 5.86581H9.85411C13.9421 5.86581 15.7063 7.14573 15.7063 9.74823C15.7063 12.0094 13.899 13.5453 10.3275 13.5453H5.42192V5.86581H5.37888ZM0 31.3361H10.9299C16.653 31.3361 22.4192 29.2883 22.4192 22.7607C22.4192 18.8783 19.6652 15.9345 15.8785 15.5079V15.4225C19.0197 14.4839 21.1283 12.2227 21.1283 8.85228C21.1283 3.3913 16.4379 1.30078 11.8335 1.30078H0V31.3361ZM5.37888 18.1103H10.5426C14.9318 18.1103 16.9542 19.2196 16.9542 22.3767C16.9542 26.3445 13.0814 26.8138 10.3275 26.8138H5.37888V18.1103Z" fill="white"/>
<path d="M25.9062 0.576172H31.027V31.3368H25.9062V0.576172Z" fill="white"/>
<path d="M39.6285 21.1403C39.6285 17.9405 41.9092 15.0393 45.6529 15.0393C49.4396 15.0393 51.6772 17.9832 51.6772 21.1403C51.6772 24.3401 49.3966 27.2412 45.6529 27.2412C41.9092 27.2839 39.6285 24.3401 39.6285 21.1403ZM34.5078 21.1403C34.5078 27.5399 39.4564 31.8489 45.6959 31.8489C51.8924 31.8489 56.884 27.5399 56.884 21.1403C56.884 14.7407 51.9354 10.4316 45.6959 10.4316C39.4564 10.4743 34.5078 14.7407 34.5078 21.1403Z" fill="white"/>
<path d="M64.3278 21.1403C64.3278 17.9405 66.6084 15.0393 70.3521 15.0393C74.1389 15.0393 76.3765 17.9832 76.3765 21.1403C76.3765 24.3401 74.0958 27.2412 70.3521 27.2412C66.5654 27.2839 64.3278 24.3401 64.3278 21.1403ZM59.1641 21.1403C59.1641 27.5399 64.1126 31.8489 70.3521 31.8489C76.5486 31.8489 81.5402 27.5399 81.5402 21.1403C81.5402 14.7407 76.5916 10.4316 70.3521 10.4316C64.1557 10.4743 59.1641 14.7407 59.1641 21.1403Z" fill="white"/>
<path d="M84.6837 10.9866H89.5462V14.1864H89.6322C90.5359 12.2665 92.5153 10.4746 95.9148 10.4746C99.0991 10.4746 101.251 11.7119 102.326 14.2717C103.832 11.6692 106.027 10.4746 109.082 10.4746C114.547 10.4746 116.484 14.357 116.484 19.2207V31.3799H111.363V19.818C111.363 17.2582 110.588 15.0823 107.533 15.0823C104.306 15.0823 103.101 17.7275 103.101 20.33V31.3799H97.9803V19.2207C97.9803 16.7035 96.9475 15.0397 94.4517 15.0397C91.0522 15.0397 89.7613 17.5141 89.7613 20.202V31.3372H84.6406V10.9866H84.6837Z" fill="white"/>
<path d="M137.743 21.1402C137.743 24.34 135.463 27.2411 131.719 27.2411C127.932 27.2411 125.695 24.2973 125.695 21.1402C125.695 17.9404 127.975 15.0392 131.719 15.0392C135.463 15.0392 137.743 17.983 137.743 21.1402ZM120.703 31.3368H125.566V28.265H125.652C127.158 30.7396 129.869 31.8488 132.709 31.8488C139.034 31.8488 142.864 27.1984 142.864 21.1402C142.864 15.1246 138.776 10.4315 132.924 10.4315C129.051 10.4315 127.029 12.2234 125.953 13.546H125.824V0.576172H120.703V31.3368Z" fill="white"/>
<path d="M150.351 19.1351C150.739 16.1913 152.632 14.3141 155.644 14.3141C158.871 14.3141 160.808 16.1913 160.851 19.1351H150.351ZM166.015 22.9322V21.5242C166.015 14.442 162.099 10.4316 156.376 10.4316C150.179 10.4316 145.188 14.7407 145.188 21.1403C145.188 27.5399 150.136 31.8489 156.376 31.8489C159.646 31.8489 162.658 30.697 165.068 27.7532L161.367 24.98C160.076 26.5586 158.398 27.7532 155.859 27.7532C152.976 27.7532 150.695 25.9186 150.351 22.9322H166.015Z" fill="white"/>
<path d="M169.367 10.9866H174.488V14.229H174.574C175.693 11.8825 177.973 10.4746 180.641 10.4746C181.287 10.4746 181.889 10.6026 182.492 10.7732V15.6796C181.631 15.4663 180.813 15.2956 179.996 15.2956C175.176 15.2956 174.488 19.3487 174.488 20.4153V31.3372H169.367V10.9866Z" fill="white"/>
<path d="M194.028 15.0397C197.772 15.0397 200.095 17.5142 200.095 21.0126C200.095 24.4257 197.772 26.9855 193.985 26.9855C190.499 26.9855 187.961 24.2977 187.961 21.0979C187.961 17.5141 190.413 15.0397 194.028 15.0397ZM200.095 10.9866V14.0584H200.009C198.503 11.5839 195.792 10.4746 192.952 10.4746C186.627 10.4746 182.797 15.1676 182.797 21.1832C182.797 26.9429 186.885 31.6359 193.038 31.6359C195.62 31.6359 198.245 30.6546 199.751 28.6494H199.837V30.1427C199.837 34.1957 198.288 36.9689 193.339 36.9689C190.456 36.9689 188.348 35.9023 186.282 34.0251L183.184 38.2061C186.11 40.766 189.553 41.5766 193.383 41.5766C201.386 41.5766 205.001 36.9262 205.001 29.5454V10.9866H200.095Z" fill="white"/>
</g>
<defs>
<clipPath id="clip0_7676_4854">
<rect width="205" height="41" fill="white" transform="translate(0 0.576172)"/>
</clipPath>
</defs>
</svg>
