<svg width="176" height="31" viewBox="0 0 176 31" fill="none" xmlns="http://www.w3.org/2000/svg">
<g clip-path="url(#clip0_7435_1199)">
<path d="M36.023 7.67638L28.723 24.3514L26.6397 9.85972C26.373 7.89305 29.723 6.67638 29.723 6.67638C29.4147 5.99305 28.3564 6.00972 28.3564 6.00972H26.0897C25.7314 2.44305 28.9647 -0.148615 32.4564 0.643052C35.8897 1.40972 37.1397 5.14305 36.023 7.67638Z" fill="white"/>
<path d="M22.4666 29.7524L8.23332 20.269C4.60832 17.8524 1.02498 20.319 0.26665 22.8607C-0.850017 26.619 1.65832 29.7524 5.59165 29.7524H22.4666Z" fill="white"/>
<path d="M24.3294 6.24281C24.8544 2.55948 21.5544 -0.165523 17.9878 0.642811C14.5544 1.40948 13.3044 5.14281 14.4211 7.67615L21.7211 24.3511L24.3294 6.23448V6.24281Z" fill="white"/>
<path d="M21.1371 27.0936L14.1288 11.1186C12.4871 7.41864 8.14543 6.96031 5.74543 9.12697C4.05377 10.6603 2.74543 14.8269 6.52043 17.3519L21.1371 27.0936Z" fill="white"/>
<path d="M44.8594 29.7515C48.8011 29.7515 51.3011 26.6182 50.1844 22.8599C49.4261 20.3099 45.8427 17.8432 42.2177 20.2682L27.9844 29.7515H44.8594Z" fill="white"/>
<path d="M43.9213 17.3519C47.6963 14.8269 46.388 10.6603 44.6963 9.12697C42.2963 6.96031 37.9547 7.41864 36.313 11.1186L29.3047 27.0936L43.9213 17.3519Z" fill="white"/>
<path d="M85.5078 1.25H92.1911L105.949 19.6834V1.25H112.216V29.75H105.532L91.7744 11.275V29.75H85.5078V1.25Z" fill="white"/>
<path d="M144.112 20.775C144.112 28.525 137.903 29.75 134.02 29.75H117.453V1.25H134.003C139.078 1.25 143.137 4.13333 143.137 9.53333C143.137 12.2084 141.253 13.6834 139.82 14.4084C142.17 15.5917 144.112 17.3334 144.112 20.775ZM123.503 6.59167V11.9834H133.27C134.878 11.9834 136.653 11.3084 136.653 9.30833C136.653 7.30833 135.27 6.59167 133.045 6.59167H123.503ZM137.67 20.775C137.67 18.0417 135.395 17.3334 133.17 17.3334H123.503V24.1417H133.403C135.212 24.1417 137.67 23.5167 137.67 20.7834V20.775Z" fill="white"/>
<path d="M175.695 25.1C172.57 27.7833 169.203 30.5 162.545 30.5C153.695 30.4583 146.836 23.6 146.836 15.4417C146.878 7.04167 154.02 0.5 162.628 0.5C170.095 0.5 174.12 5.29167 174.645 5.81667L169.936 10.525C168.911 9.48333 166.695 7.11667 162.586 7.11667C157.578 7.11667 153.503 10.8667 153.503 15.475C153.503 19.4917 156.961 23.8333 162.553 23.8333C167.011 23.8333 168.653 22.375 171.395 20.075L175.703 25.1H175.695Z" fill="white"/>
<path d="M82.6396 25.1C79.5146 27.7833 76.148 30.5 69.4896 30.5C60.6396 30.4583 53.7812 23.6 53.7812 15.4417C53.823 7.04167 60.9645 0.5 69.5729 0.5C77.0395 0.5 81.0646 5.29167 81.5896 5.81667L76.8813 10.525C75.8563 9.48333 73.6396 7.11667 69.5313 7.11667C64.523 7.11667 60.448 10.8667 60.448 15.475C60.448 19.4917 63.9063 23.8333 69.498 23.8333C73.9563 23.8333 75.5979 22.375 78.3396 20.075L82.648 25.1H82.6396Z" fill="white"/>
</g>
<defs>
<clipPath id="clip0_7435_1199">
<rect width="176" height="30" fill="white" transform="translate(0 0.5)"/>
</clipPath>
</defs>
</svg>
