<svg width="250" height="43" viewBox="0 0 250 43" fill="none" xmlns="http://www.w3.org/2000/svg">
<g clip-path="url(#clip0_8091_9369)">
<path d="M2.49227 3.10938H0V38.4967H5.78249V24.0209H22.4912V19.0883H5.78249V8.20282H24.7175V3.10938H5.78249H2.49227Z" fill="white"/>
<path d="M35.7012 0.77693C35.0646 0.258271 34.1284 0 32.8906 0C31.6529 0 30.7167 0.260388 30.08 0.77693C29.4433 1.29559 29.125 2.05558 29.125 3.0548C29.125 4.05401 29.4433 4.86904 30.08 5.3877C30.7167 5.90636 31.6529 6.16463 32.8906 6.16463C34.1284 6.16463 35.0646 5.89578 35.7012 5.36018C36.3379 4.82459 36.6563 4.05612 36.6563 3.0548C36.6563 2.05347 36.3379 1.29559 35.7012 0.77693Z" fill="white"/>
<path d="M35.7512 10.6172H29.9688V38.4978H35.7512V10.6172Z" fill="white"/>
<path d="M53.7335 33.672C52.5314 33.672 51.612 33.3692 50.9753 32.7617C50.3386 32.1541 50.0203 31.1528 50.0203 29.7598V15.4977H57.5515V10.6181H50.0203V4.39844H46.573L46.0431 8.2598C45.9363 9.15316 45.6452 9.77979 45.1677 10.1376C44.6902 10.4953 43.955 10.6922 42.9665 10.7282H40.4742L40.4219 15.394H44.4535V29.9778C44.4535 33.0517 45.1069 35.3401 46.4159 36.8411C47.7228 38.342 49.7396 39.0935 52.4623 39.0935C53.1702 39.0935 53.9639 39.0216 54.8498 38.8797C55.7336 38.7358 56.6887 38.486 57.7149 38.1282V32.4992C57.0782 32.9649 56.4227 33.2761 55.7525 33.437C55.0802 33.5979 54.4079 33.6783 53.7377 33.6783L53.7335 33.672Z" fill="white"/>
<path d="M74.421 33.672C73.2189 33.672 72.2995 33.3692 71.6628 32.7617C71.0261 32.1541 70.7078 31.1528 70.7078 29.7598V15.4977H78.239V10.6181H70.7078V4.39844H67.2605L66.7306 8.2598C66.6238 9.15316 66.3327 9.77979 65.8552 10.1376C65.3777 10.4953 64.6425 10.6922 63.654 10.7282H61.1617L61.1094 15.394H65.141V29.9778C65.141 33.0517 65.7944 35.3401 67.1034 36.8411C68.4103 38.342 70.4271 39.0935 73.1498 39.0935C73.8577 39.0935 74.6514 39.0216 75.5373 38.8797C76.4211 38.7358 77.3762 38.486 78.4024 38.1282V32.4992C77.7657 32.9649 77.1102 33.2761 76.44 33.437C75.7677 33.5979 75.0954 33.6783 74.4252 33.6783L74.421 33.672Z" fill="white"/>
<path d="M96.5924 0.855469L83.1719 42.9981H88.636L102.057 0.855469H96.5924Z" fill="white"/>
<path d="M115.118 2.98438H111.047V38.721H115.118V2.98438Z" fill="white"/>
<path d="M134.083 10.1836C132.404 10.1836 130.923 10.5265 129.637 11.2124C128.351 11.8983 127.289 12.9547 126.449 14.3794C125.61 15.8063 124.923 17.6205 124.386 19.8222H123.582L124.225 10.8335H120.422V38.7183H124.386V26.1032C124.493 23.9736 124.904 21.9794 125.618 20.1207C126.332 18.262 127.342 16.7547 128.644 15.5988C129.947 14.4429 131.474 13.8671 133.225 13.8671C135.225 13.8671 136.733 14.6441 137.751 16.1958C138.768 17.7475 139.277 20.1313 139.277 23.3427V38.7204H143.242V23.0717C143.242 18.8484 142.465 15.6454 140.911 13.4607C139.357 11.2781 137.08 10.1857 134.081 10.1857L134.083 10.1836Z" fill="white"/>
<path d="M165.603 25.4004C164.585 24.8225 163.433 24.3546 162.147 23.9926C160.861 23.6327 159.504 23.3067 158.076 23.0188C156.648 22.7309 155.345 22.4155 154.166 22.0704C152.987 21.7275 152.05 21.2406 151.353 20.6076C150.656 19.9767 150.308 19.1363 150.308 18.0905C150.308 16.7187 150.905 15.6369 152.103 14.8409C153.299 14.0471 154.915 13.6491 156.951 13.6491C158.451 13.6491 159.753 13.865 160.861 14.299C161.967 14.733 162.826 15.3914 163.433 16.2762C164.041 17.1611 164.344 18.2704 164.344 19.6063L167.934 18.8484C167.863 17.1146 167.398 15.5988 166.541 14.299C165.685 12.9992 164.478 11.9894 162.926 11.2675C161.372 10.5456 159.471 10.1836 157.221 10.1836C154.972 10.1836 153.098 10.5181 151.489 11.1849C149.883 11.8539 148.649 12.7811 147.793 13.973C146.936 15.1648 146.507 16.6086 146.507 18.3043C146.507 19.7121 146.81 20.8764 147.418 21.7973C148.025 22.7182 148.838 23.4676 149.856 24.0434C150.873 24.6214 152.006 25.0998 153.257 25.4787C154.507 25.8577 155.774 26.1922 157.06 26.4801C158.631 26.7701 160.015 27.094 161.211 27.4539C162.407 27.8159 163.354 28.3028 164.051 28.9167C164.748 29.5306 165.096 30.3795 165.096 31.4613C165.096 32.8691 164.47 33.9699 163.222 34.7638C161.971 35.5577 160.204 35.9557 157.919 35.9557C156.097 35.9557 154.545 35.7122 153.259 35.2253C151.973 34.7384 150.999 34.025 150.339 33.0871C149.678 32.1493 149.42 31.0125 149.562 29.6767L146.027 30.3266C145.991 31.6624 146.216 32.8903 146.697 34.008C147.179 35.1279 147.91 36.0848 148.894 36.8787C149.877 37.6725 151.108 38.2864 152.591 38.7204C154.071 39.1544 155.778 39.3703 157.707 39.3703C159.921 39.3703 161.867 39.0803 163.546 38.5045C165.224 37.9266 166.537 37.0332 167.484 35.8244C168.43 34.6156 168.904 33.0893 168.904 31.2496C168.904 29.8058 168.608 28.6161 168.02 27.6762C167.431 26.7383 166.627 25.9805 165.609 25.4025L165.603 25.4004Z" fill="white"/>
<path d="M175.918 10.8359H171.953V38.7207H175.918V10.8359Z" fill="white"/>
<path d="M176.161 1.38411C175.643 0.969182 174.883 0.761719 173.884 0.761719C172.885 0.761719 172.188 0.97765 171.687 1.41163C171.187 1.84561 170.938 2.45953 170.938 3.2534C170.938 4.04726 171.187 4.70776 171.687 5.12057C172.188 5.5355 172.938 5.74296 173.937 5.74296C174.936 5.74296 175.641 5.5355 176.159 5.12057C176.676 4.70564 176.936 4.08325 176.936 3.2534C176.936 2.42354 176.676 1.80115 176.159 1.38623L176.161 1.38411Z" fill="white"/>
<path d="M199.915 9.2617C199.915 10.1635 199.959 11.1839 200.049 12.3207C200.137 13.4575 200.254 14.6049 200.397 15.7587C200.539 16.9146 200.681 17.9963 200.826 19.0083H199.969C199.611 17.5645 199.067 16.1757 198.336 14.8399C197.603 13.5041 196.604 12.3948 195.337 11.5099C194.07 10.625 192.434 10.1826 190.436 10.1826C188.08 10.1826 186.078 10.8156 184.436 12.0773C182.792 13.3411 181.552 15.0834 180.712 17.302C179.872 19.5227 179.453 22.0228 179.453 24.8003C179.453 27.5778 179.872 30.116 180.712 32.2986C181.55 34.4833 182.792 36.2066 184.436 37.4704C186.078 38.7342 188.096 39.3651 190.488 39.3651C192.273 39.3651 193.774 39.0031 194.987 38.2812C196.2 37.5593 197.192 36.594 197.961 35.3852C198.729 34.1764 199.326 32.849 199.756 31.4053H200.56L200.185 38.7152H203.882V1.08594H199.917V9.2617H199.915ZM199.915 25.2343C199.915 26.3901 199.718 27.582 199.326 28.8077C198.933 30.0356 198.344 31.1724 197.559 32.2182C196.773 33.2661 195.835 34.1235 194.746 34.7903C193.657 35.4593 192.434 35.7916 191.077 35.7916C189.504 35.7916 188.149 35.3407 187.005 34.4389C185.862 33.5371 184.997 32.2817 184.408 30.6749C183.82 29.0702 183.525 27.1819 183.525 25.0162C183.525 22.8506 183.809 20.9813 184.381 19.3046C184.953 17.6259 185.818 16.2985 186.978 15.3247C188.138 14.3509 189.577 13.8619 191.29 13.8619C192.503 13.8619 193.575 14.1053 194.505 14.5922C195.433 15.0791 196.246 15.7396 196.943 16.5695C197.638 17.3993 198.21 18.2927 198.656 19.2496C199.102 20.2065 199.423 21.1633 199.62 22.1202C199.816 23.0771 199.915 23.9345 199.915 24.6923V25.2343Z" fill="white"/>
<path d="M227.394 32.5452C226.965 33.2311 226.439 33.826 225.815 34.3319C225.189 34.8379 224.43 35.2253 223.538 35.4963C222.646 35.7672 221.609 35.9027 220.432 35.9027C217.326 35.9027 215.012 34.9734 213.496 33.1147C212.009 31.2941 211.253 28.7177 211.221 25.3877L231.413 25.2353C231.484 22.6356 231.252 20.3895 230.716 18.4948C230.179 16.6001 229.394 15.0378 228.359 13.8121C227.323 12.5864 226.091 11.6739 224.663 11.077C223.235 10.4821 221.664 10.1836 219.948 10.1836C217.913 10.1836 216.118 10.5541 214.564 11.2929C213.01 12.0338 211.699 13.0881 210.627 14.4599C209.554 15.8317 208.742 17.43 208.189 19.2527C207.634 21.0754 207.359 23.0696 207.359 25.2353C207.359 27.401 207.627 29.2427 208.164 30.9744C208.7 32.7061 209.521 34.2049 210.629 35.4687C211.734 36.7326 213.094 37.6979 214.7 38.3648C216.306 39.0316 218.183 39.3661 220.325 39.3661C221.896 39.3661 223.308 39.184 224.558 38.8241C225.808 38.4643 226.914 37.9308 227.88 37.228C228.845 36.5251 229.656 35.6572 230.318 34.6283C230.977 33.5995 231.486 32.4351 231.844 31.1353L228.361 30.2695C228.148 31.0993 227.825 31.8572 227.398 32.5431L227.394 32.5452ZM212.289 19.0347C213.004 17.3199 214.011 16.0116 215.316 15.1098C216.618 14.208 218.145 13.757 219.896 13.757C221.538 13.757 222.958 14.155 224.154 14.9489C225.35 15.7428 226.261 16.9346 226.885 18.5224C227.293 19.5639 227.536 20.7791 227.616 22.1614L211.418 22.299C211.594 21.1051 211.881 20.0148 212.287 19.0368L212.289 19.0347Z" fill="white"/>
<path d="M248.339 10.264C247.839 10.2111 247.393 10.1836 247.001 10.1836C245.428 10.1836 244.09 10.6345 242.984 11.5363C241.876 12.4382 240.993 13.6745 240.333 15.2453C239.671 16.8161 239.162 18.6113 238.806 20.633H237.949L238.538 10.8335H234.789V38.7183H238.754V25.1273C239.254 23.1416 239.851 21.3295 240.549 19.6846C241.246 18.0418 242.092 16.725 243.093 15.7322C244.092 14.7393 245.307 14.244 246.735 14.244C247.198 14.244 247.69 14.299 248.208 14.407C248.725 14.5149 249.234 14.6589 249.734 14.8409L250.002 10.6726C249.395 10.4567 248.842 10.3212 248.342 10.2662L248.339 10.264Z" fill="white"/>
</g>
<defs>
<clipPath id="clip0_8091_9369">
<rect width="250" height="43" fill="white"/>
</clipPath>
</defs>
</svg>
