<svg width="106" height="29" viewBox="0 0 106 29" fill="none" xmlns="http://www.w3.org/2000/svg">
<path d="M60.0483 9.77422C60.0483 6.6594 60.1013 3.7594 60.2603 1.07422L52.1513 2.63163V3.38348L52.9463 3.49089C53.5293 3.54459 53.9003 3.7594 54.1123 4.08163C54.3243 4.45755 54.4833 4.99459 54.5893 5.80014C54.6953 7.35755 54.8013 10.902 54.7483 16.4872C54.7483 22.0187 54.6953 25.5094 54.5893 26.852C57.5043 27.4964 59.7833 27.765 61.4793 27.765C64.6593 27.765 67.1503 26.852 68.9523 24.9724C70.7543 23.1464 71.7083 20.5687 71.7083 17.4001C71.7083 14.8761 71.0193 12.7816 69.6413 11.1168C68.2633 9.452 66.5143 8.64644 64.4473 8.64644C63.0693 8.64644 61.6383 9.02237 60.0483 9.77422ZM60.2073 26.315C60.1013 24.5964 59.9953 19.4409 59.9953 11.0094C60.4723 10.8483 61.1083 10.7409 61.9033 10.7409C63.1753 10.7409 64.1823 11.3853 64.9243 12.7279C65.6663 14.0705 66.0373 15.6816 66.0373 17.7224C66.0373 20.2464 65.6133 22.2872 64.7653 24.0057C63.9173 25.6705 62.8573 26.5298 61.5323 26.5298C61.1083 26.4224 60.6843 26.3687 60.2073 26.315ZM21.7293 1.61126H0.529297V2.68533L1.6423 2.79274C2.4903 2.95385 3.0733 3.27607 3.4443 3.7594C3.8153 4.29644 4.0273 5.1557 4.0803 6.33718C4.5043 12.1372 4.5043 17.5613 4.0803 22.5557C3.9743 23.7372 3.7623 24.5964 3.4443 25.1335C3.0733 25.6705 2.4903 25.9927 1.6423 26.1001L0.529297 26.2613V27.3353H14.2033V26.2613L12.7723 26.1538C11.9243 26.0464 11.3413 25.6705 10.9703 25.1872C10.5993 24.6501 10.3873 23.7909 10.3343 22.6094C10.1753 20.4613 10.0693 17.9909 10.0693 15.252L12.9313 15.3057C14.4683 15.3594 15.5283 16.5409 16.0583 18.9038H17.1183V10.1501H16.0583C15.5283 12.4594 14.5213 13.6409 12.9313 13.6946L10.0693 13.7483C10.0693 8.91496 10.1753 5.47792 10.3343 3.38348H14.5213C17.4893 3.38348 19.5033 5.31681 20.6693 9.18348L21.9413 8.80755L21.7293 1.61126ZM19.2383 18.152C19.2383 20.9446 20.0333 23.2538 21.5703 25.0798C23.1073 26.9057 25.3863 27.765 28.2483 27.765C31.1103 27.765 33.4423 26.852 35.1383 24.9724C36.8343 23.1464 37.6293 20.8372 37.6293 18.0446C37.6293 15.252 36.8343 12.9427 35.2973 11.1168C33.7603 9.29089 31.4813 8.43163 28.6193 8.43163C25.7573 8.43163 23.4253 9.34459 21.7293 11.2242C20.0333 13.0501 19.2383 15.3594 19.2383 18.152ZM31.0573 12.0298C31.6933 13.5872 31.9583 15.6279 31.9583 18.0983C31.9583 23.7909 30.7923 26.5835 28.5133 26.5835C27.3473 26.5835 26.4463 25.7779 25.8103 24.1668C25.1743 22.5557 24.9093 20.515 24.9093 18.0983C24.9093 12.4594 26.0753 9.66681 28.3543 9.66681C29.5203 9.61311 30.4213 10.4187 31.0573 12.0298ZM75.8423 25.0798C77.5913 26.852 79.8173 27.765 82.4673 27.765C84.1103 27.765 85.5413 27.4427 86.8133 26.7446C88.0853 26.1001 89.0923 25.2946 89.7813 24.3279L89.2513 23.6835C88.0853 24.5964 86.7603 25.0261 85.2233 25.0261C83.1033 25.0261 81.4603 24.3279 80.3473 22.8779C79.1813 21.4279 78.6513 19.602 78.7573 17.239H90.0993C90.0993 14.6613 89.4633 12.5668 88.1383 10.902C86.8133 9.29088 84.9583 8.48533 82.5733 8.48533C79.6053 8.48533 77.3263 9.452 75.6833 11.3316C74.0403 13.2113 73.2453 15.5205 73.2453 18.2594C73.2453 21.052 74.0933 23.3076 75.8423 25.0798ZM79.7643 11.6001C80.3473 10.3113 81.0893 9.66681 82.0963 9.66681C83.6863 9.66681 84.4813 11.7076 84.4813 15.8427L78.8633 15.9501C78.9163 14.339 79.1813 12.889 79.7643 11.6001ZM104.356 9.452C102.925 8.80755 101.123 8.43163 98.9503 8.43163C96.7243 8.43163 94.9753 9.02237 93.6503 10.1501C92.3253 11.2779 91.6363 12.6742 91.6363 14.339C91.6363 15.789 92.0603 16.9168 92.8553 17.7224C93.6503 18.5279 94.9223 19.2261 96.5653 19.8168C98.0493 20.3538 99.1093 20.8909 99.6393 21.3742C100.169 21.9113 100.487 22.502 100.487 23.3076C100.487 24.0594 100.222 24.7576 99.6393 25.2946C99.1093 25.8853 98.3673 26.1538 97.4133 26.1538C95.0813 26.1538 93.3323 24.4353 92.1133 20.9983L91.2123 21.2668L91.4243 26.6372C93.3323 27.389 95.4523 27.765 97.7843 27.765C100.222 27.765 102.077 27.2279 103.455 26.1001C104.833 25.0261 105.522 23.4687 105.522 21.5353C105.522 20.2464 105.204 19.1724 104.515 18.3668C103.826 17.5613 102.713 16.8631 101.123 16.2187C99.3743 15.5742 98.1553 14.9835 97.5193 14.4464C96.8833 13.9094 96.5653 13.265 96.5653 12.4594C96.5653 11.6538 96.7773 11.0094 97.2543 10.4724C97.7313 9.93533 98.3143 9.72051 99.0563 9.72051C101.176 9.72051 102.713 11.2779 103.667 14.339L104.568 14.0705L104.356 9.452ZM53.3703 8.96866C52.6283 8.59274 51.8333 8.43163 50.9323 8.43163C50.0313 8.43163 49.1303 8.80755 48.1233 9.5594C47.1163 10.3113 46.3743 11.3316 45.7913 12.7279L45.8443 8.43163L37.7883 10.0427V10.7946L38.5833 10.8483C39.5903 10.9557 40.1733 11.7613 40.2793 13.2113C40.5973 16.5409 40.5973 20.0853 40.2793 23.8446C40.1733 25.2946 39.5903 26.0464 38.5833 26.2076L37.7883 26.315V27.3353H49.0243V26.315L47.5933 26.2076C46.5863 26.1001 46.0033 25.2946 45.8973 23.8446C45.5793 20.7298 45.5263 17.4001 45.7913 13.9631C46.1093 13.4261 46.7983 13.1038 47.8583 12.9964C48.9183 12.889 50.1373 13.2113 51.4093 13.9631L53.3703 8.96866Z" fill="white"/>
</svg>
