<svg width="74" height="32" viewBox="0 0 74 32" fill="none" xmlns="http://www.w3.org/2000/svg">
<g clip-path="url(#clip0_8091_9349)">
<path fill-rule="evenodd" clip-rule="evenodd" d="M69.3942 26.1281V24.5135H68.9996C68.9996 26.4385 68.8663 27.9469 68.6004 29.0393C68.3336 30.1326 67.8512 30.6784 67.1521 30.6784C66.5201 30.6784 66.1209 30.4668 65.9545 30.0431C65.7878 29.6195 65.7046 28.9361 65.7046 27.991C65.7046 24.7666 65.4218 22.3551 64.8563 20.7588C63.7309 17.5663 62.0147 15.6283 58.509 14.9437C61.5299 14.5889 63.2582 13.8531 64.8438 12.3829C66.1648 11.1751 66.892 9.2919 66.8223 7.49683C66.7523 5.70152 66.3412 4.03818 64.9554 2.70748C63.2655 1.0843 60.4994 -0.000123557 57.0201 1.05591e-08H37.2449V0.440394C40.4673 0.440394 42.5552 0.620803 43.5092 0.980013C43.8707 1.11161 44.0842 1.24235 44.1505 1.37296C44.2813 1.60242 44.3478 2.17503 44.3478 3.09079V28.3214C44.3478 29.2701 44.2813 29.8672 44.1505 30.1126C44.0187 30.3585 43.7882 30.5468 43.4598 30.6768C42.9055 30.8873 41.4602 31.0126 39.1264 31.054C39.3691 30.9211 39.6048 30.7742 39.8333 30.6133C40.0154 30.4849 40.1933 30.3477 40.3664 30.2015C42.0497 28.7947 42.892 26.8014 42.892 24.2214C42.892 21.4866 42.0781 19.5324 40.4514 18.3594C39.4536 17.656 37.3413 16.9129 34.1136 16.1312C31.6199 15.5582 29.8091 14.8941 28.6807 14.1381C27.3421 13.2525 26.6731 12.1063 26.6731 10.699C26.6731 9.24025 27.291 8.13321 28.5278 7.37747C28.7096 7.26366 28.8977 7.16024 29.0918 7.06719C29.7279 8.73189 30.0461 10.4536 30.0461 12.2322H30.6874V6.55834C31.1279 6.47901 31.592 6.43922 32.0796 6.43922C34.0526 6.43922 35.8148 7.21226 37.3672 8.75722C38.9194 10.3022 39.8791 12.2176 40.2481 14.5026L40.5638 14.62V6.08681L40.2488 6.08767C40.1898 6.90198 39.9942 7.77177 39.5492 7.9313C38.9583 8.14346 37.7967 7.75052 37.3518 7.56405C36.562 7.23339 35.8878 6.93497 35.6593 6.83031C34.578 6.33493 33.2249 6.08656 31.5056 6.08656C31.3518 6.08656 31.1996 6.09076 31.0491 6.09929C30.9275 6.10608 30.807 6.11572 30.6874 6.12808V1.05591e-08H0.203125V0.440518C1.51787 0.440518 2.72648 0.506132 3.8287 0.636866C4.92993 0.768342 5.66989 0.899076 6.04834 1.02981C6.42605 1.16054 6.64804 1.29128 6.71431 1.42201C6.84536 1.65135 6.91163 2.24077 6.91163 3.18878V28.3214C6.91163 29.2373 6.85383 29.8022 6.73897 30.0148C6.62312 30.2274 6.37672 30.408 5.99901 30.5545C5.62056 30.7022 4.91373 30.8254 3.87803 30.9231C2.84208 31.0207 1.61653 31.0698 0.203125 31.0698V31.5591H20.7726V31.0698C18.8317 31.0698 17.295 31.0207 16.1604 30.9231C15.026 30.8254 14.2614 30.7022 13.8668 30.5545C13.4721 30.408 13.2417 30.2686 13.1761 30.1371C13.0443 29.8755 12.9788 29.2709 12.9788 28.3213V15.1679C16.642 15.1679 18.9483 15.5272 19.8971 16.2444C21.4014 17.3537 22.1536 20.1096 22.1536 24.5134H22.7456V5.23543H22.1536C21.7605 9.73686 20.8772 12.5426 19.5039 13.6511C18.6531 14.3362 16.4778 14.6787 12.9788 14.6787V3.19953C12.9788 2.11535 13.0937 1.45871 13.3234 1.22851L13.7656 1.03129C14.6506 0.769083 15.5278 0.604739 16.3971 0.538877C16.9009 0.500819 17.6172 0.473757 18.546 0.457817C19.2184 0.446325 20.0022 0.440518 20.8974 0.440518C24.0127 0.440518 26.423 1.9641 28.1276 5.00979C28.4117 5.51901 28.6641 6.0338 28.885 6.55426C27.9754 6.90284 27.1413 7.44629 26.3824 8.18436C24.9453 9.58315 24.2268 11.289 24.2268 13.3012C24.2268 15.5495 25.0143 17.2614 26.5889 18.4375C27.6642 19.2191 29.5739 19.9811 32.3165 20.7236C35.0591 21.4661 36.9808 22.176 38.0835 22.8533C39.6843 23.8434 40.485 25.1982 40.485 26.918C40.485 28.3254 39.8931 29.4979 38.7094 30.4354C37.6834 31.2434 36.5518 31.647 35.3155 31.647C32.6581 31.647 30.6326 30.9033 29.2383 29.4158C28.528 28.6592 27.9096 27.707 27.3837 26.5585C26.7524 25.2021 26.1863 23.4012 25.6868 21.1566L25.3711 21.196V31.9995L25.6803 32L25.6878 31.9354C25.7528 31.3603 25.8592 30.418 26.3766 30.1676C27.1109 29.8122 28.6837 30.4697 29.9065 30.9809C30.055 31.043 30.1983 31.1029 30.3341 31.1585C30.4494 31.2057 30.5596 31.2498 30.663 31.2897C31.7507 31.7087 33.1928 32 35.1972 31.9995C36.1997 31.9993 37.128 31.8525 37.9824 31.5589H57.3206V31.1186C56.5704 31.1186 55.8397 31.113 55.1286 31.1018C54.6243 31.0939 54.13 31.0831 53.6457 31.0695C52.4782 31.0374 51.7048 30.9472 51.3274 30.7997C50.9489 30.6527 50.7023 30.4479 50.5874 30.1865C50.4718 29.9251 50.4145 29.3028 50.4145 28.3211V15.168H55.8088C57.3472 15.168 58.5247 15.4699 59.3434 16.0733C60.1619 16.6769 60.5712 17.8429 60.5712 19.5713C60.549 19.8111 60.5346 20.043 60.5273 20.2675C60.5236 20.3798 60.5219 20.4903 60.5219 20.5989V21.6264C60.5219 25.4756 60.8196 28.085 61.4143 29.455C62.1411 31.1515 63.0467 31.9991 65.3281 31.9991C67.0794 31.9991 68.2531 31.3798 68.8481 30.1401C69.2123 29.3903 69.3942 28.0531 69.3942 26.1281ZM54.5847 14.6298H50.4148V3.10092C50.4148 2.14834 50.4556 1.51617 50.5373 1.20416C50.6193 0.89228 50.8241 0.687405 51.1515 0.588799C51.4784 0.490192 51.9864 0.440518 52.6743 0.440518H54.633C57.2528 0.440518 59.1279 1.00769 60.2578 2.14081C61.3877 3.27367 61.9527 5.22023 61.9527 7.9785C61.9527 10.4754 61.2643 12.2491 59.8895 13.2996C58.7427 14.1864 56.9748 14.6298 54.5847 14.6298Z" fill="white"/>
<path fill-rule="evenodd" clip-rule="evenodd" d="M72.4666 28.758C72.3492 28.7096 72.1646 28.6855 71.9127 28.6855H71.2031V30.6974H71.5607V29.906H71.8427C72.032 29.906 72.1646 29.9277 72.2401 29.971C72.3676 30.0456 72.4314 30.1991 72.4314 30.4313V30.5905L72.4389 30.6554L72.4441 30.6779L72.4491 30.6978H72.7837L72.771 30.6728C72.7663 30.6637 72.7625 30.6489 72.7596 30.6285C72.7571 30.612 72.7551 30.5919 72.7536 30.5682C72.7518 30.5417 72.7506 30.516 72.7498 30.4912C72.7488 30.4661 72.7483 30.4419 72.7483 30.4185V30.2714C72.7483 30.1698 72.7117 30.0661 72.6382 29.9596C72.5647 29.8531 72.4486 29.7875 72.2899 29.7625C72.3524 29.7524 72.4078 29.7393 72.4563 29.7232C72.5057 29.7069 72.5478 29.6875 72.5832 29.665C72.715 29.5801 72.7812 29.4475 72.7812 29.2675C72.7812 29.0143 72.6763 28.8447 72.4666 28.758ZM71.8656 28.9277C72.0642 28.9277 72.2087 28.9525 72.2986 29.0026C72.3891 29.0524 72.4337 29.1507 72.4334 29.2974C72.4334 29.3414 72.4277 29.3813 72.4165 29.4172C72.3881 29.5075 72.324 29.5725 72.2241 29.6119C72.1481 29.6417 72.0345 29.6566 71.8831 29.6566H71.5602V28.9277H71.8656Z" fill="white"/>
<path fill-rule="evenodd" clip-rule="evenodd" d="M71.9516 31.5365C72.4633 31.5365 72.8993 31.3566 73.2601 30.997C73.6209 30.6375 73.801 30.2041 73.801 29.6967C73.801 29.1908 73.6209 28.7597 73.2601 28.4034C72.8993 28.0473 72.4633 27.8691 71.9513 27.8691C71.4431 27.8691 71.0093 28.0476 70.6505 28.4034C70.2898 28.7612 70.1094 29.1924 70.1094 29.6967C70.1094 30.2057 70.288 30.6394 70.6453 30.997C71.0043 31.3566 71.4396 31.5365 71.9516 31.5365ZM70.3663 29.6987C70.3663 29.2627 70.5205 28.891 70.8292 28.583C71.1394 28.2736 71.5138 28.1189 71.9513 28.1186C72.3908 28.1186 72.7658 28.2736 73.0762 28.583C73.3849 28.8908 73.5394 29.2627 73.5394 29.6987C73.5394 30.1382 73.3849 30.5126 73.0762 30.822C72.7675 31.1315 72.3926 31.2864 71.9513 31.2864C71.5101 31.2864 71.1354 31.1315 70.8267 30.822C70.5197 30.5126 70.3663 30.1382 70.3663 29.6987Z" fill="white"/>
</g>
<defs>
<clipPath id="clip0_8091_9349">
<rect width="74" height="32" fill="white"/>
</clipPath>
</defs>
</svg>
