<svg width="77" height="27" viewBox="0 0 77 27" fill="none" xmlns="http://www.w3.org/2000/svg">
<path fill-rule="evenodd" clip-rule="evenodd" d="M0 -3.8324e-07V6.22044H3.41898V20.7244H0V26.5072H18.1729V20.7244H14.754V6.22044H18.1729V-3.8324e-07H0ZM19.1278 9.11185V12.0033H21.6843V20.7244H19.1278V26.5072H33.3273V20.7244H30.6137L30.626 17.933C30.6353 15.4636 30.6445 15.1197 30.6876 14.9322C31.0542 13.413 32.0367 12.4315 33.5183 12.1095C33.8941 12.0251 34.7442 12.0314 35.1446 12.1189C36.1919 12.3471 36.8664 12.9535 37.1252 13.8944L37.1929 14.1445L37.2114 20.7244H34.5594V26.5072H48.4509V20.8338L48.6696 21.2558C49.6799 23.2219 51.451 24.7911 53.7796 25.7789C55.8648 26.6666 58.4399 27.0949 61.0179 26.9823C62.2315 26.9292 63.0478 26.8354 63.9595 26.6448C66.7286 26.0633 68.7615 24.7349 69.9812 22.7124C70.6065 21.6684 71.1455 20.0211 71.1517 19.1208V19.0364H63.5129V19.2177C63.5129 19.4834 63.4266 19.9554 63.325 20.2368C62.9923 21.1683 62.287 21.7809 61.2366 22.0591C60.8763 22.156 60.06 22.1935 59.6257 22.1342C59.059 22.0591 58.5138 21.8497 58.1503 21.5746C57.9532 21.4277 57.6483 21.1089 57.5158 20.9119C57.1739 20.3993 56.9337 19.6616 56.8166 18.7551C56.6534 17.5173 56.6903 15.2073 56.8905 14.1132C56.9768 13.6412 57.1493 13.1192 57.3341 12.766C57.7499 11.972 58.3598 11.5094 59.2715 11.2906C59.5795 11.2187 59.6781 11.2093 60.2171 11.2093C60.7469 11.2062 60.8485 11.2156 61.095 11.2781C62.5057 11.6469 63.1802 12.7972 63.365 15.1447C63.3835 15.4011 63.402 15.6168 63.4082 15.623C63.4112 15.6324 64.2614 15.5386 69.1896 14.9885L71.0346 14.7853C71.0901 14.7853 70.9422 13.8444 70.7821 13.1911C69.9689 9.89644 67.5725 7.64896 63.9133 6.75496C62.5272 6.41424 61.1781 6.29859 59.5241 6.37361C58.0702 6.43925 57.0384 6.58617 55.8279 6.89875C52.2549 7.81463 49.646 9.83393 48.4355 12.6128C47.7117 14.2789 47.4652 16.3013 47.7425 18.2706C47.8503 19.0083 48.0782 19.871 48.3523 20.5587L48.4201 20.7244H46.1408V16.6983C46.1408 12.691 46.1315 12.2815 46.0299 11.6594C45.6326 9.21501 44.1264 7.58019 41.5975 6.84874C40.7628 6.60805 39.9497 6.48614 38.8962 6.44238C36.4845 6.34548 34.5563 6.7831 32.97 7.78962C32.2924 8.22099 31.8026 8.63673 31.1712 9.31191L30.549 9.98397L30.3396 10.2059V6.22044H19.1278V9.11185ZM73.1538 20.0867C72.5008 20.2305 72.0018 20.4962 71.5305 20.9526C70.8467 21.6184 70.4956 22.5155 70.5449 23.472C70.625 25.0006 71.6815 26.2228 73.2 26.5416C73.4371 26.5916 74.1025 26.5916 74.3396 26.5416C75.3838 26.3228 76.2031 25.6976 76.659 24.7724C77.2904 23.4876 77.0286 21.9435 76.0091 20.9526C75.5317 20.49 75.0358 20.2274 74.3704 20.0836C74.0994 20.0242 73.4248 20.0273 73.1538 20.0867Z" fill="white"/>
</svg>
