<svg width="414" height="49" viewBox="0 0 414 49" fill="none" xmlns="http://www.w3.org/2000/svg">
<g clip-path="url(#clip0_413_18987)">
<path d="M73.1522 2.50451C77.9785 2.05934 83.9299 3.41148 87.6912 6.59338C92.3815 10.5293 94.2449 16.3348 94.7752 22.2701C95.9103 34.9649 91.9414 47.9233 77.1902 49.0797C64.5994 50.8322 56.2703 41.408 55.5193 29.4371C54.7245 16.762 58.1284 3.69267 73.1522 2.50451ZM74.7293 10.7408C65.1391 12.112 64.3777 22.2696 65.4383 30.1393C66.2991 36.5188 69.3537 40.6484 76.0565 40.7486C83.028 39.1085 84.4424 34.0748 85.077 27.5631C85.7586 20.5621 83.5571 10.5428 74.7293 10.7408Z" fill="#EEEEEE"/>
<path d="M248.482 3.24902C255.164 3.27988 261.509 2.94508 266.888 7.63477C272.928 12.8756 274.61 20.8576 273.933 28.5508C273.437 34.1884 271.822 38.3403 268.15 42.6289C268.066 42.7237 267.979 42.8169 267.89 42.9072C260.916 50.024 247.722 48.4437 237.948 48.458C237.53 34.6553 237.787 17.0805 237.947 3.22266L248.482 3.24902ZM258.49 13.7295C254.894 11.3025 251.453 11.415 247.357 11.4756C247.355 20.8574 247.24 30.5163 247.386 39.8838C251.898 40.0006 256.223 40.48 259.794 37.0977C260.008 36.8939 260.214 36.6831 260.413 36.4639C263.401 32.1554 264.896 27.3892 263.919 22.0898C263.319 18.6775 261.359 15.6572 258.49 13.7295Z" fill="#EEEEEE"/>
<path d="M299.06 3.24902C305.742 3.27988 312.087 2.94508 317.466 7.63477C323.506 12.8756 325.188 20.8576 324.511 28.5508C324.015 34.1884 322.401 38.3403 318.728 42.6289C318.644 42.7237 318.557 42.8169 318.468 42.9072C311.495 50.024 298.3 48.4437 288.526 48.458C288.108 34.6553 288.365 17.0805 288.525 3.22266L299.06 3.24902ZM309.068 13.7295C305.472 11.3025 302.031 11.415 297.935 11.4756C297.933 20.8574 297.819 30.5163 297.965 39.8838C302.476 40.0006 306.801 40.48 310.372 37.0977C310.586 36.8939 310.792 36.6831 310.991 36.4639C313.979 32.1554 315.474 27.3892 314.497 22.0898C313.897 18.6775 311.937 15.6572 309.068 13.7295Z" fill="#EEEEEE"/>
<path d="M31.4796 3.25411L40.6731 3.27285L40.7143 36.0432C40.7156 37.9423 40.9643 47.3076 40.295 48.4109C37.2906 48.4374 34.2859 48.4197 31.2819 48.3569C29.8761 45.5849 27.2124 41.4594 25.5225 38.662C21.4179 31.9331 17.3595 25.1756 13.3474 18.3894C13.6618 28.0049 13.4444 38.683 13.448 48.3767L4.05288 48.3955C3.60109 34.1816 4.00226 17.6002 4.08647 3.22656C7.12177 3.35442 10.9702 3.25853 14.0663 3.26514C15.2118 5.6073 17.0432 8.26136 18.3634 10.5793C22.3439 17.5672 27.7254 25.1502 31.4117 32.1767C31.2323 29.1071 31.3622 24.6388 31.3669 21.4557C31.347 15.3881 31.3846 9.32057 31.4796 3.25411Z" fill="#EEEEEE"/>
<path d="M158.932 3.23749L168.335 3.23858C168.328 7.96147 168.53 47.4541 168.132 48.2785L167.219 48.391L158.925 48.3954C158.878 41.9762 158.879 35.557 158.926 29.1379C153.754 29.3043 148.26 29.096 142.966 29.2338C142.862 35.5074 142.953 42.0952 142.956 48.391C139.886 48.4461 136.703 48.3932 133.625 48.3843C133.411 42.7632 133.567 36.3561 133.564 30.6424C133.527 21.5019 133.55 12.3603 133.635 3.21875L142.887 3.26283C143.036 8.9799 142.952 15.0882 142.96 20.8428L158.892 20.8262L158.932 3.23749Z" fill="#EEEEEE"/>
<path d="M185.81 3.22988L195.085 3.22877C195.198 12.8895 194.745 23.1718 195.441 32.8138C196.002 37.4827 199.017 40.4288 203.674 40.3638C213.845 40.2216 212.215 28.1581 212.2 21.0788C212.165 15.128 212.172 9.17729 212.22 3.22656H221.506C221.547 6.32593 221.567 9.4264 221.568 12.5258L221.597 24.9452C221.607 31.4206 222.277 39.7841 217.325 44.6128C209.454 52.2906 188.712 50.8126 186.46 38.144C185.548 33.0199 185.747 27.6379 185.758 22.4774L185.81 3.22988Z" fill="#EEEEEE"/>
<path d="M379.567 3.22266L409.82 3.30972L409.818 11.715C402.858 11.6842 395.898 11.7007 388.937 11.7657C388.898 14.7681 388.927 17.8344 388.926 20.8423L401.611 20.8632C401.685 23.4049 401.626 26.0512 401.605 28.6017L388.952 28.6513L388.908 35.1135L388.94 40.0876C395.623 39.9223 403.056 40.0921 409.797 40.1009C409.87 42.8222 409.817 45.667 409.806 48.3982L379.478 48.4048C379.429 33.3444 379.458 18.283 379.567 3.22266Z" fill="#EEEEEE"/>
<path d="M338.949 3.23828L348.23 3.27244L348.281 40.0416C354.244 40.1595 360.453 40.1022 366.436 40.1231C366.479 42.8532 366.451 45.6429 366.454 48.3785C357.445 48.5395 348.011 48.3951 338.969 48.394C338.768 42.9557 338.905 36.8187 338.903 31.3265L338.949 3.23828Z" fill="#EEEEEE"/>
</g>
<defs>
<clipPath id="clip0_413_18987">
<rect width="414" height="49" fill="white"/>
</clipPath>
</defs>
</svg>
