<svg width="193" height="24" viewBox="0 0 193 24" fill="none" xmlns="http://www.w3.org/2000/svg">
<path d="M14.8623 6.52564C14.8649 6.974 14.8264 7.42165 14.7473 7.86283L14.2573 10.5953C13.4799 14.8727 12.3412 16.7054 7.75895 16.7054H6.11657L5.07913 22.4639H0.855469L4.53715 2.10156H9.97343C13.0201 2.10156 14.8623 3.73221 14.8623 6.52564ZM6.83648 12.7188H8.18871C8.90862 12.7188 9.74076 12.2537 9.88584 11.4397L10.6058 7.36727C10.7481 6.49519 10.2034 6.08822 9.59842 6.08822H8.04637L6.83648 12.7188Z" fill="white"/>
<path d="M26.9119 6.49519C26.9036 6.95437 26.856 7.41196 26.7696 7.86283L26.6546 8.56049C26.0497 11.8827 25.2148 13.7376 22.743 14.3744L24.9575 22.4612H20.6435L18.4783 14.6678L17.1096 22.4639H12.8477L16.5868 2.10156H21.9957C25.0725 2.10156 26.9119 3.70176 26.9119 6.49519ZM19.2037 10.6839H20.5559C21.2758 10.6839 22.1107 10.2188 22.253 9.40489L22.6281 7.36727C22.7704 6.55332 22.2832 6.08822 21.6207 6.08822H20.0687L19.2037 10.6839Z" fill="white"/>
<path d="M30.6817 22.7871C27.5748 22.7871 25.5054 20.2262 26.0803 17.1144L28.0347 6.05973C28.4371 3.70373 30.7091 1.78516 33.0412 1.78516H34.3907C37.4702 1.78516 39.5396 4.34326 38.9921 7.45783L37.0377 18.5097C36.6052 20.8657 34.3634 22.7871 32.0339 22.7871H30.6817ZM34.8232 7.16714C34.9382 6.41134 34.4783 5.78288 33.7009 5.78288C33.3157 5.80203 32.9471 5.94744 32.6508 6.19717C32.3545 6.4469 32.1466 6.78736 32.0585 7.16714L30.2465 17.4106C30.2067 17.5792 30.2059 17.7548 30.2444 17.9238C30.2828 18.0927 30.3594 18.2503 30.4681 18.3844C30.5767 18.5184 30.7146 18.6252 30.8708 18.6964C31.0271 18.7676 31.1975 18.8013 31.3687 18.7949C31.7503 18.7747 32.1148 18.6283 32.4061 18.3782C32.6974 18.1281 32.8994 17.7881 32.981 17.4106L34.8232 7.16714Z" fill="white"/>
<path d="M37.2402 22.4639L40.9794 2.10156H50.6722L49.9796 5.88334H44.4831L43.6756 10.2465H47.9623L47.2779 14.0643H42.9639L41.4393 22.4695L37.2402 22.4639Z" fill="white"/>
<path d="M48.0234 22.4639L51.7626 2.10156H55.9917L52.9807 18.6822H57.2372L56.5255 22.4639H48.0234Z" fill="white"/>
<path d="M62.2323 17.4917C62.1925 17.6603 62.1918 17.8359 62.2303 18.0048C62.2687 18.1738 62.3453 18.3314 62.4539 18.4654C62.5626 18.5995 62.7005 18.7063 62.8567 18.7775C63.013 18.8487 63.1834 18.8824 63.3546 18.876C63.7359 18.8556 64.0999 18.7091 64.3908 18.459C64.6816 18.2089 64.8831 17.869 64.9642 17.4917L67.7261 2.10156H71.9525L69.0482 18.3915C68.5884 20.8056 66.2863 22.7851 63.8994 22.7851H62.6347C59.558 22.7851 57.4859 20.2547 58.0607 17.1124L60.735 2.10156H64.9642L62.2323 17.4917Z" fill="white"/>
<path d="M74.2569 18.6822H80.0052L79.3154 22.4639H69.3105L73.0771 2.10156H83.0573L82.3374 5.88334H76.6164L75.7815 10.3932H80.2379L79.5481 14.175H75.0917L74.2569 18.6822Z" fill="white"/>
<path d="M80.2969 22.4639L84.0059 2.10156H88.4048L89.6147 14.2027L89.7871 11.0632L91.2543 2.10156H95.4232L91.7415 22.4639H87.2551L86.089 10.3628L85.8892 13.1839L84.537 22.4639H80.2969Z" fill="white"/>
<path d="M101.894 9.60555L102.384 6.98931C102.419 6.83851 102.42 6.68134 102.385 6.53023C102.351 6.37913 102.282 6.23825 102.184 6.11872C102.086 5.9992 101.963 5.90432 101.822 5.84159C101.682 5.77887 101.529 5.75002 101.376 5.75732C101.035 5.76632 100.707 5.89231 100.446 6.11465C100.185 6.33699 100.006 6.64248 99.9391 6.981L97.9545 17.5401C97.9156 17.6918 97.9122 17.8505 97.9448 18.0037C97.9773 18.1569 98.0448 18.3003 98.1419 18.4224C98.2389 18.5446 98.3629 18.642 98.5038 18.7071C98.6448 18.7721 98.7988 18.8029 98.9537 18.797C99.304 18.7846 99.6405 18.6554 99.9108 18.4296C100.181 18.2038 100.37 17.894 100.448 17.5484L100.908 14.9571H104.935L104.272 18.6226C103.842 20.9204 101.655 22.7753 99.3834 22.7753H97.9737C95.0995 22.7753 93.1725 20.3889 93.7172 17.482L95.8167 5.96219C96.2492 3.66433 98.4637 1.77344 100.763 1.77344H102.03C104.935 1.77344 106.862 4.15712 106.344 7.09728L105.912 9.58894L101.894 9.60555Z" fill="white"/>
<path d="M109.519 18.6822H115.267L114.577 22.4639H104.572L108.339 2.10156H118.319L117.599 5.88334H111.875L111.054 10.3932H115.511L114.821 14.175H110.353L109.519 18.6822Z" fill="white"/>
<path d="M122.302 12.2861C121.352 10.9185 120.75 9.63942 120.75 8.09736C120.747 7.73506 120.785 7.37359 120.865 7.02041C121.727 2.57141 124.317 1.78516 127.049 1.78516H127.191C130.183 1.78516 131.65 3.09466 131.65 5.66107C131.642 6.15892 131.594 6.65526 131.505 7.14499L131.275 8.33822H127.221L127.478 7.05917C127.624 6.3615 127.421 5.69152 126.704 5.69152C125.987 5.69152 125.494 6.30059 125.335 6.94289C125.302 7.09589 125.283 7.25154 125.278 7.408C125.278 8.48218 126.17 9.50099 126.832 10.4534L128.155 12.2861C129.104 13.6233 129.679 14.9024 129.679 16.4389C129.681 16.8112 129.643 17.1826 129.564 17.5463C128.672 22.0839 126.025 22.7815 123.236 22.7815C120.244 22.7815 118.779 21.472 118.779 18.9056C118.787 18.4079 118.835 17.9117 118.922 17.4217L119.124 16.2312H123.178L122.978 17.4826C122.863 18.2079 123.006 18.8475 123.753 18.8475C124.446 18.8198 124.933 18.2661 125.105 17.5989C125.139 17.4554 125.158 17.3089 125.163 17.1615C125.163 16.115 124.27 15.0657 123.611 14.1161L122.302 12.2861Z" fill="white"/>
<path d="M143.815 6.52564C143.819 6.97406 143.781 7.42183 143.7 7.86283L143.21 10.5953C142.436 14.8727 141.294 16.7054 136.712 16.7054H135.07L134.035 22.4639H129.809L133.49 2.10156H138.918C141.976 2.10156 143.815 3.73221 143.815 6.52564ZM135.792 12.7188H137.145C137.862 12.7188 138.697 12.2537 138.842 11.4397L139.559 7.36727C139.704 6.49519 139.156 6.08822 138.552 6.08822H137.002L135.792 12.7188Z" fill="white"/>
<path d="M147.383 22.7871C144.276 22.7871 142.207 20.2262 142.781 17.1144L144.739 6.05973C145.141 3.70373 147.413 1.78516 149.742 1.78516H151.095C154.171 1.78516 156.241 4.34326 155.696 7.45783L153.739 18.5097C153.309 20.8657 151.065 22.7871 148.735 22.7871H147.383ZM151.524 7.16714C151.639 6.41134 151.18 5.78288 150.405 5.78288C150.019 5.80158 149.651 5.94684 149.354 6.19663C149.058 6.44643 148.85 6.78715 148.762 7.16714L146.95 17.4106C146.911 17.579 146.91 17.7544 146.948 17.9231C146.986 18.0918 147.063 18.2492 147.171 18.3832C147.279 18.5172 147.417 18.624 147.573 18.6955C147.729 18.7669 147.899 18.8009 148.07 18.7949C148.452 18.7751 148.816 18.6289 149.108 18.3787C149.399 18.1286 149.601 17.7884 149.682 17.4106L151.524 7.16714Z" fill="white"/>
<path d="M168.006 6.49405C167.998 6.95339 167.949 7.4111 167.861 7.86169L167.746 8.55936C167.143 11.8816 166.309 13.7365 163.834 14.3732L166.051 22.46H161.735L159.578 14.6639L158.209 22.46H153.941L157.681 2.09766H163.087C166.166 2.10042 168.006 3.70062 168.006 6.49405ZM160.297 10.6828H161.639C162.359 10.6828 163.191 10.2177 163.336 9.40375L163.708 7.36613C163.853 6.55219 163.363 6.08708 162.704 6.08708H161.149L160.297 10.6828Z" fill="white"/>
<path d="M169.043 22.4639L172.054 5.88334H168.633L169.323 2.10156H180.365L179.705 5.88334H176.289L173.278 22.4639H169.043Z" fill="white"/>
<path d="M181.842 12.2861C180.892 10.9185 180.287 9.63942 180.287 8.09736C180.285 7.73513 180.324 7.37382 180.402 7.02041C181.264 2.57141 183.854 1.78516 186.586 1.78516H186.731C189.723 1.78516 191.187 3.09466 191.187 5.66107C191.179 6.15877 191.132 6.65501 191.045 7.14499L190.815 8.33822H186.758L187.032 7.05917C187.174 6.3615 186.975 5.69152 186.255 5.69152C185.535 5.69152 185.047 6.30059 184.886 6.94289C184.852 7.09566 184.833 7.25144 184.828 7.408C184.828 8.48218 185.721 9.50099 186.381 10.4534L187.703 12.2861C188.652 13.6233 189.227 14.9024 189.227 16.4389C189.231 16.8112 189.192 17.1828 189.112 17.5463C188.19 22.0949 185.551 22.7871 182.762 22.7871C179.77 22.7871 178.303 21.4776 178.303 18.9112C178.311 18.4133 178.359 17.917 178.448 17.4272L178.648 16.2368H182.715L182.513 17.4881C182.398 18.2135 182.543 18.853 183.29 18.853C183.98 18.8253 184.47 18.2716 184.642 17.6044C184.675 17.4607 184.694 17.3143 184.7 17.167C184.7 16.1205 183.807 15.0712 183.145 14.1216L181.842 12.2861Z" fill="white"/>
</svg>
