<svg width="149" height="16" viewBox="0 0 149 16" fill="none" xmlns="http://www.w3.org/2000/svg">
<g clip-path="url(#clip0_1207_15277)">
<path d="M35.8438 3.82256V0.222656H48.0227V3.82256H35.8438ZM40.0978 15.7779V0.222656H43.7687V15.7779H40.0978Z" fill="black"/>
<path d="M48.7012 15.2446C47.8446 14.7409 47.1643 14.0487 46.6601 13.1665C46.156 12.2851 45.9043 11.3187 45.9043 10.2667C45.9043 9.21478 46.1525 8.23692 46.6497 7.37778C47.1461 6.51864 47.8187 5.84082 48.6683 5.34434C49.5179 4.84785 50.4534 4.59961 51.4757 4.59961C52.4259 4.59961 53.3034 4.83706 54.1103 5.31052C54.9165 5.7847 55.5605 6.42942 56.043 7.24394C56.5254 8.05919 56.7667 8.97014 56.7667 9.97751C56.7667 10.3034 56.745 10.733 56.7016 11.2662H47.6754V8.97733H53.1391C53.1104 8.68088 53.0056 8.42544 52.8259 8.21102C52.6455 7.99659 52.4266 7.82606 52.1672 7.70014C51.9078 7.57422 51.6197 7.5109 51.3037 7.5109C50.8429 7.5109 50.4471 7.61451 50.1157 7.82174C49.7843 8.02969 49.522 8.35924 49.3277 8.8104C49.1333 9.26227 49.0361 9.83647 49.0361 10.5322C49.0361 11.0359 49.1403 11.477 49.3493 11.8548C49.5577 12.2325 49.8458 12.5254 50.2129 12.7326C50.58 12.9406 50.9939 13.0435 51.4547 13.0435C51.9441 13.0435 52.3364 12.9514 52.6315 12.7657C52.9265 12.5808 53.1174 12.3325 53.2034 12.021H56.6156C56.4429 13.2356 55.8919 14.2026 54.9641 14.9208C54.0355 15.6396 52.8944 15.9986 51.5414 15.9986C50.5052 15.9986 49.5584 15.7468 48.7019 15.2431L48.7012 15.2446Z" fill="black"/>
<path d="M60.1497 15.2554C59.3078 14.7589 58.645 14.0775 58.1632 13.2112C57.6807 12.3448 57.4395 11.3857 57.4395 10.3337C57.4395 9.2817 57.68 8.27434 58.1632 7.40009C58.6457 6.52584 59.3078 5.84083 60.1497 5.34434C60.9922 4.84785 61.9313 4.59961 62.9675 4.59961C63.8744 4.59961 64.717 4.79964 65.4938 5.19971C66.2706 5.59978 66.9048 6.14807 67.3943 6.84388C67.8837 7.5404 68.1718 8.31823 68.2578 9.17737H64.7379C64.6519 8.83702 64.4429 8.56288 64.1115 8.35493C63.78 8.1477 63.3989 8.04408 62.9668 8.04408C62.5781 8.04408 62.218 8.1405 61.8872 8.33262C61.5558 8.52546 61.3006 8.79601 61.1209 9.14355C60.9405 9.49181 60.851 9.88828 60.851 10.3323C60.851 10.7475 60.9405 11.1288 61.1209 11.4764C61.3006 11.8246 61.5558 12.0952 61.8872 12.2873C62.218 12.4801 62.5781 12.5758 62.9668 12.5758C63.4129 12.5758 63.8017 12.4614 64.1331 12.2312C64.4639 12.0016 64.6729 11.7088 64.7596 11.3533H68.2795C68.2075 12.242 67.9306 13.0385 67.4481 13.7422C66.9657 14.4459 66.3287 14.9978 65.5372 15.3979C64.7449 15.798 63.8884 15.998 62.9675 15.998C61.9313 15.998 60.9915 15.7497 60.1497 15.2533V15.2554Z" fill="black"/>
<path d="M72.4919 0.222656V15.7779H69.0371V0.222656H72.4919ZM75.7853 9.11123C75.6482 8.80039 75.4468 8.56654 75.1804 8.41111C74.914 8.25569 74.6008 8.17798 74.2414 8.17798C73.882 8.17798 73.561 8.2744 73.2373 8.46652C72.9136 8.65936 72.6577 8.9184 72.471 9.24435V6.04452C72.7444 5.59984 73.1219 5.24798 73.6044 4.98894C74.0869 4.72991 74.6008 4.60039 75.1483 4.60039C76.0405 4.60039 76.811 4.80042 77.4592 5.20049C78.1074 5.60056 78.6038 6.17836 78.9492 6.93388C79.2946 7.68941 79.4674 8.58596 79.4674 9.62283V15.7786H75.9908V10.223C75.9908 9.79337 75.9223 9.4228 75.786 9.11195L75.7853 9.11123Z" fill="black"/>
<path d="M83.98 14.9666C82.8067 14.278 81.8816 13.3224 81.2048 12.0999C80.5279 10.8774 80.1895 9.51098 80.1895 7.99993C80.1895 6.48888 80.5279 5.14405 81.2048 3.92225C81.8809 2.69974 82.806 1.74131 83.98 1.04478C85.1533 0.348261 86.4664 0 87.9208 0C89.1297 0 90.2674 0.251842 91.333 0.755525C92.3979 1.25921 93.2796 1.95933 93.9781 2.85517C94.676 3.75172 95.0829 4.74038 95.1983 5.82186H91.1386C91.0232 5.4074 90.8107 5.03324 90.5016 4.69937C90.1919 4.36622 89.8108 4.11078 89.357 3.93305C88.9032 3.75532 88.4249 3.6661 87.9208 3.6661C87.1719 3.6661 86.4958 3.85534 85.891 4.2331C85.2861 4.61086 84.8114 5.12966 84.4659 5.78876C84.1205 6.44787 83.9478 7.1854 83.9478 7.99993C83.9478 8.81446 84.1205 9.55559 84.4659 10.2219C84.8114 10.8882 85.2868 11.407 85.891 11.7776C86.4958 12.1481 87.1719 12.333 87.9208 12.333C88.4389 12.333 88.9214 12.233 89.3675 12.033C89.8136 11.833 90.1954 11.5552 90.5121 11.1998C90.8289 10.8443 91.0442 10.437 91.1603 9.97725H95.2416C95.0689 11.148 94.6403 12.1884 93.9565 13.0994C93.2726 14.0103 92.4049 14.7219 91.3547 15.2328C90.3037 15.7437 89.1591 15.9991 87.9215 15.9991C86.4671 15.9991 85.1533 15.6552 83.98 14.9666Z" fill="black"/>
<path d="M102.907 8.24444H99.5819V15.7781H96.127V4.82227H102.907V8.24444Z" fill="black"/>
<path d="M113.386 13.4331C112.947 14.2404 112.342 14.87 111.573 15.3219C110.802 15.7738 109.928 15.9997 108.949 15.9997C107.97 15.9997 107.07 15.7738 106.293 15.3219C105.515 14.87 104.907 14.2404 104.468 13.4331C104.029 12.6258 103.809 11.7112 103.809 10.6887V4.82227H107.264V10.6887C107.264 11.2665 107.415 11.7256 107.718 12.0667C108.02 12.4077 108.43 12.5776 108.948 12.5776C109.466 12.5776 109.855 12.4077 110.157 12.0667C110.459 11.7263 110.611 11.2665 110.611 10.6887V4.82227H114.045V10.6887C114.045 11.7112 113.825 12.6258 113.386 13.4331Z" fill="black"/>
<path d="M118.552 15.7771H115.098V4.82195H118.552V15.7771ZM121.867 9.11045C121.73 8.79961 121.529 8.56575 121.263 8.41033C120.996 8.25491 120.683 8.1772 120.324 8.1772C119.964 8.1772 119.625 8.27362 119.309 8.46574C118.992 8.65858 118.733 8.91761 118.531 9.24357V6.04374C118.819 5.59906 119.204 5.2472 119.687 4.98816C120.169 4.72913 120.683 4.59961 121.23 4.59961C122.123 4.59961 122.893 4.79964 123.541 5.19971C124.189 5.59978 124.686 6.17757 125.031 6.9331C125.377 7.68863 125.549 8.58518 125.549 9.62205V15.7778H122.073V10.2222C122.073 9.79258 122.004 9.42202 121.868 9.11117L121.867 9.11045Z" fill="black"/>
<path d="M129.036 15.2554C128.195 14.7589 127.532 14.0775 127.05 13.2112C126.568 12.3448 126.326 11.3857 126.326 10.3337C126.326 9.2817 126.567 8.27434 127.05 7.40009C127.532 6.52584 128.195 5.84083 129.036 5.34434C129.879 4.84785 130.818 4.59961 131.854 4.59961C132.761 4.59961 133.604 4.79964 134.381 5.19971C135.157 5.59978 135.792 6.14807 136.281 6.84388C136.771 7.5404 137.059 8.31823 137.145 9.17737H133.625C133.539 8.83702 133.33 8.56288 132.998 8.35493C132.667 8.1477 132.286 8.04408 131.854 8.04408C131.465 8.04408 131.105 8.1405 130.774 8.33262C130.443 8.52546 130.187 8.79601 130.008 9.14355C129.827 9.49181 129.738 9.88828 129.738 10.3323C129.738 10.7475 129.827 11.1288 130.008 11.4764C130.187 11.8246 130.443 12.0952 130.774 12.2873C131.105 12.4801 131.465 12.5758 131.854 12.5758C132.3 12.5758 132.688 12.4614 133.02 12.2312C133.351 12.0016 133.56 11.7088 133.646 11.3533H137.166C137.094 12.242 136.817 13.0385 136.335 13.7422C135.852 14.4459 135.215 14.9978 134.424 15.3979C133.632 15.798 132.775 15.998 131.854 15.998C130.818 15.998 129.878 15.7497 129.036 15.2533V15.2554Z" fill="black"/>
<path d="M141.389 0.222656V15.7779H137.934V0.222656H141.389ZM144.682 9.11123C144.545 8.80039 144.344 8.56654 144.077 8.41111C143.811 8.25569 143.498 8.17798 143.138 8.17798C142.779 8.17798 142.458 8.2744 142.134 8.46652C141.81 8.65936 141.555 8.9184 141.368 9.24435V6.04452C141.641 5.59984 142.019 5.24798 142.501 4.98894C142.984 4.72991 143.498 4.60039 144.045 4.60039C144.937 4.60039 145.708 4.80042 146.356 5.20049C147.004 5.60056 147.501 6.17836 147.846 6.93388C148.192 7.68941 148.364 8.58596 148.364 9.62283V15.7786H144.888V10.223C144.888 9.79337 144.819 9.4228 144.683 9.11195L144.682 9.11123Z" fill="black"/>
<path d="M15.6989 0.222656V5.4034H10.6645V15.7785H5.63009V5.4034H0.595703V0.222656H15.6989Z" fill="black"/>
<path d="M30.8024 10.5977V15.7785H15.6992V5.40625H20.7336V10.5977H30.8024Z" fill="black"/>
<path d="M30.8011 0.222656H20.7324V5.4034H30.8011V0.222656Z" fill="black"/>
</g>
<defs>
<clipPath id="clip0_1207_15277">
<rect width="149" height="16" fill="white"/>
</clipPath>
</defs>
</svg>
