<svg width="98" height="27" viewBox="0 0 98 27" fill="none" xmlns="http://www.w3.org/2000/svg">
<g clip-path="url(#clip0_410_18979)">
<path d="M96.9089 8.43286L96.7717 9.03714L95.5108 9.37143C95.2473 9.47117 95.0199 9.6457 94.8575 9.87286L89.0493 17.105L86.8868 24.1764C86.7692 24.5429 86.9195 24.7614 87.1612 24.8193L88.6769 25.1857L88.4744 25.79H80.9219L81.1244 25.1857L82.5421 24.8514C82.7244 24.8154 82.8911 24.7252 83.0196 24.593C83.1482 24.4608 83.2323 24.2929 83.2608 24.1121L85.4233 16.9507L83.5287 9.95643C83.4437 9.62214 83.3392 9.35214 82.9864 9.24929L82.0979 9.01143L82.2351 8.40714H88.6769L88.5397 9.01143L87.4487 9.31357C87.0567 9.41643 86.9717 9.61571 87.0763 9.95643L88.6247 15.89L93.198 9.88571C93.2752 9.78944 93.3228 9.67345 93.3352 9.55143C93.328 9.48222 93.2968 9.41756 93.2469 9.36837C93.1969 9.31918 93.1311 9.28847 93.0608 9.28143L91.8325 8.97929L92.0024 8.375L96.9089 8.43286Z" fill="white"/>
<path d="M81.888 12.3932H81.0125L80.2612 10.1304C80.2477 10.0467 80.2175 9.96647 80.1724 9.8943C80.1273 9.82213 80.0681 9.75945 79.9983 9.70987C79.9284 9.66028 79.8493 9.62476 79.7655 9.60536C79.6817 9.58596 79.5948 9.58305 79.5098 9.59681H77.6152L73.1856 24.2025C73.068 24.569 73.1856 24.7875 73.5253 24.8454L74.7536 25.1797L74.551 25.784H67.1684L67.3709 25.1797L68.6776 24.8775C69.259 24.7425 69.3766 24.5754 69.5269 24.074L73.9238 9.56467H71.7221C71.5548 9.57667 71.393 9.62861 71.2507 9.71598C71.1084 9.80335 70.9899 9.92352 70.9054 10.0661L69.3766 12.2132H68.5273L69.9058 7.99609H70.4481C70.4936 8.12915 70.582 8.24391 70.7 8.32285C70.818 8.40178 70.959 8.44055 71.1014 8.43324H80.32C80.4958 8.45941 80.6756 8.43145 80.8346 8.3532C80.9937 8.27494 81.1243 8.15021 81.2085 7.99609H81.79L81.888 12.3932ZM68.2072 12.1747H67.3578L66.5412 10.0082C66.4957 9.87518 66.4072 9.76042 66.2893 9.68148C66.1713 9.60255 66.0303 9.56378 65.8878 9.57109H62.3598L60.3672 16.1797H63.6926C64.0324 16.1797 64.2349 16.0125 64.4766 15.6782L65.3978 14.354H66.2472L64.6792 19.619H63.8298L63.8625 17.7547C63.8625 17.4204 63.66 17.3175 63.3202 17.3175H60.0536L57.8061 24.6204H62.6473C62.8824 24.6559 63.123 24.6245 63.3406 24.53C63.5582 24.4355 63.7438 24.2817 63.8756 24.0868L65.8029 21.7211H66.7241L64.7641 26.2854H64.15C63.9801 25.9511 63.7384 25.8161 63.1242 25.8161H52.0176L52.2201 25.2118L53.5268 24.8775C53.6966 24.8296 53.8487 24.7342 53.9646 24.603C54.0806 24.4718 54.1554 24.3104 54.1801 24.1382L58.4398 9.99538C58.4895 9.89299 58.496 9.77547 58.4581 9.66835C58.4202 9.56122 58.3408 9.47315 58.2373 9.42324L57.0417 9.05681L57.2116 8.45252H66.7894C66.9442 8.45863 67.0974 8.42063 67.2307 8.34307C67.364 8.26552 67.4717 8.15173 67.5408 8.01538H68.083L68.2072 12.1747Z" fill="white"/>
<path d="M96.7326 3.85714C88.0928 5.67131 79.2832 6.58706 70.449 6.58929C49.5423 6.58929 34.8423 3.78643 28.6356 2.32714L2.48268 26.73L0.352817 27L8.04255 3.97286C5.71958 4.89002 3.28314 5.49963 0.797084 5.78571C0.202551 5.85 0.182951 5.51571 0.457351 5.36786C1.2687 4.97428 1.99256 4.42613 2.58696 3.75519C3.18136 3.08424 3.63447 2.30386 3.92002 1.45929C7.68975 2.36571 10.5318 1.65857 13.9748 0.417857L7.03642 19.7871L25.565 0C36.7546 2.28571 48.1493 3.45946 59.5775 3.50357C68.5935 3.50357 76.4988 2.10857 80.5756 0.469286C86.3054 3.825 92.8452 3.53571 96.5954 3.30429C97.1376 3.27214 97.2095 3.77357 96.7326 3.87643" fill="white"/>
<path d="M56.429 8.43312L56.2592 9.03741L54.8088 9.44241C54.6776 9.48077 54.5602 9.55485 54.47 9.65609C54.3798 9.75733 54.3206 9.8816 54.2992 10.0146L50.0394 24.0481C49.9218 24.466 49.8173 24.736 50.3465 24.8838L51.3722 25.186L51.1697 25.7903H44.3424L44.5449 25.186L45.5314 24.8838C46.0933 24.7167 46.2632 24.5174 46.3808 24.0803L50.6078 9.97598C50.6928 9.67384 50.6078 9.47455 50.3661 9.40384L49.2424 9.03741L49.4122 8.43312H56.429ZM46.2566 12.7274C46.2566 15.3631 44.1268 17.6581 40.6641 17.5231C39.9901 17.5002 39.3212 17.3988 38.6714 17.221C38.6714 20.4353 39.6776 23.7267 41.618 23.7267C42.8136 23.7267 43.1664 22.7367 43.3362 21.901C43.3689 21.766 43.4734 21.6631 43.6433 21.8367C43.9191 22.0998 44.1368 22.4159 44.2829 22.7654C44.429 23.1149 44.5004 23.4903 44.4926 23.8681C44.4926 25.8481 43.186 26.7353 41.3044 26.7353C36.4501 26.7353 36.228 19.8567 37.012 15.6331C37.0642 15.3953 37.1492 15.3631 37.319 15.466C38.0245 15.8731 38.8343 16.0717 39.6514 16.0381C41.2194 16.0381 42.7025 14.8167 42.7025 12.5988C42.7025 10.381 40.834 8.99884 38.0704 8.99884L33.497 24.106C33.4552 24.2238 33.4331 24.3476 33.4317 24.4724C33.4272 24.5163 33.4316 24.5607 33.4446 24.603C33.4576 24.6452 33.479 24.6845 33.5076 24.7186C33.5361 24.7527 33.5713 24.7808 33.6109 24.8015C33.6506 24.8221 33.6941 24.8348 33.7388 24.8388L35.0454 25.1731L34.8429 25.7774H28.0352L28.2377 25.1731L29.2634 24.871C29.5901 24.7681 29.7208 24.5881 29.8776 24.0996L34.4052 8.99884C32.4452 9.40384 31.4913 10.1238 31.4913 11.2296C31.4609 11.6588 31.5808 12.0853 31.831 12.4381C31.8986 12.537 31.935 12.6533 31.9356 12.7724C31.9356 13.0231 31.7134 13.2417 31.0862 13.2417C30.8184 13.2599 30.5497 13.2203 30.2991 13.1257C30.0484 13.0311 29.8218 12.8837 29.6351 12.6939C29.4484 12.504 29.3061 12.2763 29.2182 12.0267C29.1303 11.7771 29.0989 11.5116 29.1262 11.2488C29.1262 10.4131 29.6554 7.57812 37.1557 7.57812C43.5126 7.57812 46.2566 9.60955 46.2566 12.721" fill="white"/>
<path d="M24.2323 11.509L17.1959 20.0397H23.4353L24.2323 11.509ZM27.8649 25.2082L27.6623 25.8125H21.2139L21.4165 25.2082L22.5402 24.9061C22.6876 24.8734 22.8189 24.7915 22.9118 24.6743C23.0047 24.5571 23.0535 24.4118 23.0498 24.2632L23.3242 21.3254H16.0853L13.7202 24.1347C13.5943 24.2513 13.5096 24.4044 13.4785 24.5718C13.4785 24.7197 13.5634 24.8225 13.7529 24.8739L14.8439 25.2082L14.6414 25.8125H9.21875L9.46048 25.2082L10.5842 24.9382C11.0159 24.8067 11.3965 24.5488 11.6753 24.1989L26.3099 7.26609L27.8257 6.99609L26.4145 24.2697C26.3818 24.6361 26.4145 24.8739 26.8587 24.9768L27.8649 25.2082Z" fill="white"/>
</g>
<defs>
<clipPath id="clip0_410_18979">
<rect width="98" height="27" fill="white"/>
</clipPath>
</defs>
</svg>
