<svg width="30" height="29" viewBox="0 0 30 29" fill="none" xmlns="http://www.w3.org/2000/svg">
<g clip-path="url(#clip0_7876_7501)">
<path d="M29.6437 13.8153L18.2146 1.00481C17.6172 0.398933 16.7496 0.404085 16.1943 0.90475C15.639 1.40542 15.5913 2.36444 16.0938 2.91734L25.402 13.348H1.42845C0.639443 13.348 -3.4361e-08 13.9852 0 14.7713C3.4364e-08 15.5574 0.639471 16.1945 1.42845 16.1945H25.402L16.0938 26.6252C15.5913 27.1785 15.6556 28.1195 16.1943 28.6378C16.7551 29.1775 17.7117 29.091 18.2146 28.5377L29.6437 15.7273C30.1484 15.0243 30.0882 14.4289 29.6437 13.8153Z" fill="black"/>
</g>
<defs>
<clipPath id="clip0_7876_7501">
<rect width="30" height="29" fill="white"/>
</clipPath>
</defs>
</svg>
