<svg width="251" height="251" viewBox="0 0 251 251" fill="none" xmlns="http://www.w3.org/2000/svg">
<g clip-path="url(#clip0_7965_9348)">
<path d="M250.972 125.961C250.972 159.113 237.803 190.907 214.361 214.349C190.918 237.791 159.124 250.961 125.972 250.961C92.8201 250.961 61.0259 237.791 37.5838 214.349C14.1418 190.907 0.972168 159.113 0.972168 125.961C0.972168 92.8089 14.1418 61.0146 37.5838 37.5726C61.0259 14.1305 92.8201 0.960938 125.972 0.960938C159.124 0.960938 190.918 14.1305 214.361 37.5726C237.803 61.0146 250.972 92.8089 250.972 125.961Z" fill="#FF6F00"/>
<path d="M12.8802 108.888C11.3098 108.888 9.89432 110.161 9.89432 110.161C8.48927 111.219 5.35128 115.999 3.96606 118.202C3.53802 118.901 3.18652 119.404 3.18652 120.787C3.18652 125.337 4.19473 134.688 5.86908 142.722C9.11384 156.99 14.3731 172.228 23.5471 186.993L25.3027 189.95C26.4196 191.833 27.1764 191.086 27.9323 190.748L33.4638 188.051C37.3322 186.102 39.2465 182.316 39.2465 177.088C39.2465 171.692 37.4531 166.578 34.454 159.759C28.0854 146.637 23.6095 134.057 20.1729 119.607C19.4141 116.491 18.2755 113.5 16.7089 111.28C15.7394 110.022 14.7492 108.89 12.8802 108.89V108.888ZM10.9554 123.053C11.2918 123.046 11.564 123.266 11.8682 123.591C13.3271 125.479 14.3552 133.036 15.8037 137.887C17.9174 145.507 21.0129 154.021 23.5613 159.808C25.7496 164.432 27.2653 167.965 27.8312 169.765C27.8312 169.765 28.3103 171.146 28.3103 172.196C28.3103 173.322 27.921 174.613 26.6662 175.399L25.2744 176.259C24.9928 176.429 24.7906 176.483 24.6611 176.178C16.9858 161.9 10.8657 144.694 8.18407 127.097C8.09997 126.386 7.99131 125.699 8.4373 125.264L9.6496 123.87C10.2165 123.291 10.6181 123.059 10.9554 123.053ZM37.4994 83.8388C37.1725 83.8501 36.7973 84.0467 36.4033 84.4152L30.6451 89.2228C29.6813 90.0515 29.2391 90.3472 29.2391 92.597C29.2391 120.117 35.6578 151.416 46.5553 177.715C47.3849 179.849 48.0624 180.412 49.6687 179.712L57.3734 175.583C58.3088 175.098 58.5847 174.695 58.5847 174.07C58.5847 173.642 58.4401 173.21 58.2861 172.828C58.2861 172.828 55.4788 166.239 51.978 156.058C51.8108 155.586 51.8089 155.519 52.1273 155.334L62.9463 148.682C63.158 148.559 63.3224 148.525 63.4604 148.676L75.9925 163.546C76.8627 164.468 77.8615 164.336 79.0766 163.675L89.8182 157.715C90.9719 157.032 91.2601 156.525 91.2601 155.795C91.2601 154.904 90.4352 154.145 90.4352 154.145C83.717 146.801 53.247 114.688 38.3016 84.3774C38.1032 84.0032 37.8263 83.8294 37.4994 83.8388ZM40.0534 111.981C40.1385 111.981 40.1971 112.14 40.2311 112.204C42.6434 117.089 48.2079 127.383 53.1723 134.824C53.349 135.143 53.4464 135.278 53.0996 135.495L47.4803 139.21C46.9701 139.574 46.8123 139.639 46.5978 138.857C43.8623 129.869 41.9744 122.263 39.9835 112.737C39.9835 112.737 39.9297 112.498 39.9297 112.352C39.9297 112.19 39.9212 111.982 40.0534 111.982V111.981ZM46.8642 77.1962C46.8642 76.3656 47.3461 75.8951 47.9641 75.4491L57.8845 68.4144C58.6159 67.8597 59.6005 67.3797 60.2231 68.3255C69.2374 82.4139 79.5613 97.2128 89.2834 109.292C84.1242 93.0298 79.19 77.1792 75.1099 60.2713C74.6517 58.3853 74.2822 57.4498 76.4734 56.2781L87.2962 49.8595C87.7366 49.5949 88.2109 49.2831 88.7486 49.2831C89.5801 49.2831 89.924 49.696 90.1621 50.6532C97.28 76.8182 106.416 108.43 116.58 139.643C116.58 139.643 116.888 140.503 116.888 141.107C116.888 141.538 116.776 142.483 115.552 143.171L105.187 149.044C104.527 149.439 104.031 149.781 103.2 149.781C101.863 149.781 101.421 149.074 100.561 148.119C78.8281 123.587 63.3867 105.29 47.571 79.0283C47.571 79.0283 46.8642 77.8907 46.8642 77.1962ZM95.9609 47.3659C95.6151 46.8179 95.4384 46.5627 95.4384 46.1413C95.4384 45.4629 95.7634 45.0897 96.749 44.5747C111.397 36.8549 117.168 34.0108 129.242 28.7383C130.88 28.0211 131.543 28.0901 132.393 28.8611L138.964 35.6813C139.274 35.9969 139.374 36.2823 139.374 36.5903C139.374 37.179 139.227 37.2215 137.595 38.0247C130.385 41.2231 123.958 44.4745 117.402 47.7174C117.059 47.8875 117.002 47.9895 117.333 48.4705L129.001 65.0222C129.285 65.4946 129.48 65.4455 129.874 65.2282L148.54 55.6715C149.809 55.0186 151.035 55.1934 151.881 56.3311L158.828 65.9728C159.456 66.8628 159.369 67.8446 158.168 68.4814L138.758 78.8091C138.272 79.0406 138.237 79.1361 138.565 79.6841L151.263 100.391C151.551 100.882 151.71 100.819 152.179 100.546L174.592 87.7337C175.754 87.0562 176.8 87.401 177.486 88.5803L184.258 100.362C184.878 101.499 184.956 102.627 183.472 103.505L145.979 125.618C144.727 126.265 143.39 126.143 142.544 124.557C127.841 98.2938 106.043 62.7856 95.9609 47.3659ZM168.632 16.3545C165.744 16.3545 157.244 17.2994 157.244 23.324C157.244 30.1121 167.58 38.9006 181.461 45.787C181.762 45.9353 181.93 46.1064 181.908 46.3558C181.816 47.8847 181.631 49.5628 181.631 50.9433C181.631 60.653 184.726 67.3844 189.991 74.5713C190.704 75.4859 194.207 79.9043 197.979 82.463C201.327 84.5361 205.136 86.6442 209.56 86.6442C217.034 86.6442 221.863 80.098 222.394 73.7492C222.401 73.6292 222.471 73.085 222.521 72.8213C222.57 72.5823 222.714 72.6985 222.786 72.7741C223.916 73.8363 225.067 74.8759 226.238 75.8922C226.956 76.4894 227.474 76.6463 228.326 76.0595L233.142 72.9423C234.332 72.1628 233.569 70.7634 232.672 69.8941C229.463 66.6106 226.152 63.5859 222.259 60.3884C221.775 59.9783 221.53 59.8007 221.453 59.1298L220.756 54.2013C220.245 50.897 219.246 47.2922 216.948 46.4654L213.676 45.0868C212.349 44.4963 210.695 43.8273 210.021 43.8273C209.329 43.8273 209.269 44.2194 209.461 45.0093L210.976 51.3099C211.052 51.616 210.911 51.7861 210.619 51.5792C205.94 48.3221 200.731 44.9139 195.524 41.8345C196.02 24.5184 178.597 16.3554 168.631 16.3554L168.632 16.3545ZM174.131 24.2444C177.939 24.2444 183.095 28.589 183.26 34.5739C183.267 34.9519 183.264 35.1654 182.897 34.9736C179.353 33.1008 171.927 29.0425 171.927 25.8431C171.927 24.8085 172.605 24.2453 174.132 24.2453L174.131 24.2444ZM195.869 53.7458C195.914 53.7487 195.964 53.7666 196.018 53.7987C201.64 57.1758 207.63 61.15 212.495 64.7075C212.67 64.8247 212.687 64.9362 212.682 65.2981C212.682 69.2827 210.917 71.5098 208.348 71.5098C202.993 71.5098 195.648 63.0247 195.648 54.0765C195.648 53.8545 195.735 53.7364 195.868 53.7458H195.869ZM38.003 193.787C37.077 193.798 36.0499 193.882 35.3195 194.211L30.8124 196.142C30.2351 196.403 29.7947 196.607 30.4741 197.546C37.4701 207.21 49.1405 220.773 65.936 231.827C67.565 232.894 68.5373 233.621 69.9026 233.621C70.7134 233.621 74.1121 233.376 74.1121 233.376C77.6073 233.129 78.4284 231.996 78.4284 230.968C78.4275 229.814 77.4561 228.146 76.1163 226.73C73.2391 223.82 71.1527 222.058 67.307 218.884C63.7155 215.903 61.4468 214.984 58.8616 213.961C58.923 212.005 58.3485 210.149 56.2839 207.592C53.0306 203.535 49.8832 199.646 45.2957 196.494C42.6217 194.654 40.2934 193.787 38.003 193.787ZM42.0028 202.196C42.8834 202.196 43.8803 202.551 44.9291 203.413C47.6315 205.613 49.8539 208.569 50.5777 209.85C50.5777 209.85 51.0804 210.721 51.0804 211.191C51.0804 211.715 50.8243 212.018 50.0381 212.253L48.7843 212.656C48.497 212.753 48.4554 212.663 48.2958 212.518C45.36 209.512 42.5111 206.187 40.0563 203.149C39.8579 202.893 39.8418 202.708 40.0969 202.624C40.7867 202.383 41.3064 202.196 42.0028 202.196ZM57.1995 218.606C58.306 218.606 59.2556 218.978 60.1041 219.496C62.6591 221.121 65.3728 223.537 67.8305 225.768C68.2273 226.14 68.8321 226.9 68.8321 227.357C68.8321 227.939 67.6538 228.286 66.3744 228.286C66.0768 228.286 65.7385 227.997 65.4579 227.802C62.8074 225.872 57.4896 221.422 55.1651 219.235C55.0045 219.105 54.9828 218.98 55.1991 218.927C55.1991 218.927 56.3651 218.606 57.1995 218.606ZM46.817 190.536C46.5269 190.131 46.3672 189.903 46.3672 189.504C46.3672 189.124 46.6771 188.848 47.142 188.627C48.8873 187.819 50.2432 187.136 51.7597 186.4C51.7597 186.4 52.2416 186.131 52.6073 186.131C53.2064 186.131 53.6013 186.638 54.1154 187.415C63.6304 200.996 72.5597 211.12 83.9258 221.302C85.2118 222.36 86.7539 223.323 88.6711 223.323C90.4683 223.323 91.5058 222.499 91.5058 221.654C91.5058 220.622 89.6415 218.95 88.4226 217.826C77.219 207.129 68.4645 196.461 60.2213 184.558C59.9028 184.077 59.5183 183.547 59.5183 183.08C59.5183 182.489 60.0285 182.207 60.6512 181.899L65.8698 179.23C66.3801 178.945 66.793 178.684 67.3439 178.684C68.0828 178.684 68.5278 179.275 69.1609 180.283C78.6684 194.104 87.1526 204.733 98.5017 215.915C100.703 218.067 102.621 220.411 102.621 223.278C102.621 227.857 97.6438 229.574 93.0138 229.574C86.2862 229.574 79.5869 226.357 75.4359 222.484C63.1618 211.659 54.979 202.006 46.817 190.537V190.536ZM77.9314 180.19C77.9314 171.05 86.9825 165.58 94.9461 165.58C102.321 165.58 108.357 169.353 110.977 173.315L113.478 176.953C113.894 177.559 114.104 177.909 114.104 178.315C114.104 178.769 113.934 179.12 112.863 179.644L105.178 183.564C104.783 183.746 104.404 184.02 103.804 184.02C103.022 184.02 102.508 183.291 102.009 182.554L100.949 181.032C99.6621 179.275 97.5965 177.75 95.4611 177.75C93.1933 177.75 90.1574 179.416 90.1574 181.752C90.1574 183.475 91.1552 185.013 92.4062 186.886C94.4519 189.6 95.5036 191.056 98.5225 191.056C101.854 191.056 108.958 189.862 113.265 189.862C119.979 189.862 123.571 192.702 126.779 196.017L129.289 198.959C131.579 201.724 133.985 205.708 133.985 209.32C133.985 216.591 123.638 220.63 116.845 220.63C110.389 220.63 105.738 218.717 101.664 214.61L100.143 213.068C99.9087 212.797 99.7594 212.631 99.7594 212.324C99.7594 212.023 99.7972 211.828 100.596 211.501L107.128 208.761C107.128 208.761 108.03 208.362 108.526 208.362C109.36 208.362 109.857 209.006 110.526 209.76C112.15 211.655 113.575 212.774 115.985 212.774C118.439 212.774 121.889 210.884 121.889 209.506C121.889 208.388 120.491 206.405 119.205 204.838C116.656 201.818 114.967 200.201 112.571 200.201C110.818 200.201 103.34 201.075 100.048 201.075C93.1839 201.075 88.363 199.321 82.4716 191.884C79.8977 188.475 77.9314 184.815 77.9314 180.19ZM104.163 160.895C103.903 160.463 103.687 160.103 103.687 159.628C103.687 159.036 103.997 158.697 104.612 158.322L135.81 140.687C135.81 140.687 136.503 140.268 137.005 140.268C137.68 140.268 138.06 140.728 138.551 141.594L142.885 149.061C143.061 149.365 143.227 149.713 143.227 150.039C143.227 150.717 142.894 150.981 141.943 151.505L132.99 156.621C132.677 156.806 132.633 156.949 132.918 157.402C141.872 172.216 150.286 185.878 159.854 200.244C160.125 200.622 160.194 200.88 160.194 201.146C160.194 201.581 159.825 201.957 159.145 202.309L151.61 206.293C151.216 206.496 150.962 206.61 150.462 206.61C149.881 206.61 149.569 206.241 149.289 205.865C139.116 192.336 129.49 177.864 120.802 164.165C120.485 163.645 120.345 163.697 119.872 163.955L111.174 168.661C110.777 168.892 110.614 169.003 110.078 169.02C109.42 169.02 109.067 168.67 108.536 167.812L104.163 160.895ZM141.223 139.663C141.021 139.28 140.879 138.996 140.879 138.623C140.879 138.009 141.229 137.562 142.285 136.928C151.469 131.61 160.615 126.227 169.722 120.778C170.18 120.486 170.398 120.415 170.715 120.415C171.297 120.415 171.777 120.78 172.193 121.638L176.157 129.206C176.9 130.456 176.246 131.137 175.598 131.556L159.062 141.528C158.76 141.696 158.695 141.844 158.923 142.237L166.77 156.751C166.927 157.032 167.133 157.003 167.463 156.798L181.032 148.399C181.443 148.152 182.402 147.851 182.903 148.799L186.385 156.217C186.803 157.143 186.499 157.861 185.883 158.214L172.306 166.752C172.093 166.876 172.112 167.033 172.238 167.31L178.53 179.73C178.725 180.096 178.787 180.118 179.182 179.883C184.136 176.814 189.006 173.697 193.733 170.499C194.385 170.102 195.018 170.248 195.271 170.882L197.7 177.346C197.904 177.942 198.152 178.662 196.743 179.581C188.741 185.015 181.533 189.486 173.839 193.998C172.847 194.559 172.368 194.471 171.75 193.36L141.223 139.663ZM199.119 105.382C195.902 105.382 193.239 106.629 190.426 108.18L176.911 116.432C175.43 117.279 175.613 118.09 176.123 119.074C185.698 137.197 194.046 155.134 201.008 175.054C201.363 176.148 202.166 175.918 202.891 175.369L209.166 170.828C210.125 170.125 210.256 169.469 209.996 168.509C207.371 159.272 204.716 152.321 203.196 148.204C203.034 147.784 202.941 147.543 203.247 147.344L205.393 145.875C205.62 145.701 205.744 145.679 205.976 145.927C213.206 154.946 214.297 156.772 218.454 162.674C218.791 163.096 219.142 163.159 219.749 162.679L225.641 157.841C226.145 157.422 226.659 156.594 226.078 155.668C222.045 149.189 219.061 144.634 213.485 137.582C213.33 137.435 213.32 137.308 213.43 137.103C214.749 134.378 215.428 131.387 215.417 128.359C215.417 124.381 214.194 120.333 212.776 117.057C210.04 110.909 205.488 105.382 199.119 105.382ZM198.712 118.019C200.525 118.019 201.627 119.535 202.975 121.82C204.538 124.473 205.883 128.532 205.883 130.891C205.883 132.802 204.551 134.375 202.361 135.827L199.594 137.668C199.308 137.899 199.167 137.926 199.041 137.658L191.885 121.869C191.707 121.488 191.795 121.385 192.074 121.219L195.347 119.149C196.077 118.699 197.606 118.019 198.712 118.019ZM209.642 98.5413C208.966 97.2138 209.078 96.4692 210.053 95.8446C211.894 94.6975 213.549 93.6336 215.484 92.3419C216.035 92.0017 216.869 91.4556 217.625 93.0959L220.91 100.404C221.45 101.538 221.392 101.979 220.864 103.447L217.968 111.984C217.676 112.712 217.42 113.52 216.865 113.52C216.326 113.52 215.865 112.505 215.424 111.34C213.702 107.339 211.729 102.789 209.642 98.5413ZM224.99 93.3444C224.99 85.5604 228.999 81.3707 232.551 81.3707C236.247 81.3707 239.985 85.2514 242 90.7346L243.193 94.175C243.471 94.9413 243.464 95.5092 242.962 95.9391L240.169 98.4478C239.963 98.6302 239.793 98.821 239.461 98.821C239.071 98.821 238.888 98.342 238.721 97.8667C237.71 94.6786 236.396 92.1671 234.892 92.1671C233.993 92.1671 232.584 93.0903 232.584 95.4648C232.584 97.2988 233.215 99.3133 234.186 101.669C235.442 104.935 235.861 105.411 237.548 105.411C238.767 105.411 240.746 105.265 241.86 105.265C244.946 105.265 246.616 107.298 247.964 112.361C248.932 116.21 249.567 120.304 249.567 124.281C249.567 136.631 244.01 141.783 241.188 141.783C238.123 141.783 236.351 137.889 235.629 134.137L235.063 131.543C234.898 130.697 234.988 129.937 235.517 129.445L239.467 125.771C240.133 125.091 240.566 125.198 240.752 126.336C241.455 130.176 241.826 131.084 242.761 131.084C243.537 131.084 245.525 129.463 245.525 126.317C245.525 124.94 245.108 121.627 244.651 119.615C244.182 117.907 243.881 116.055 242.369 116.055C241.583 116.055 238.301 116.382 237.36 116.382C233.563 116.382 231.649 113.91 230.061 111.198C227.366 106.005 224.99 99.1451 224.99 93.3454V93.3444Z" fill="#15189A"/>
</g>
<defs>
<clipPath id="clip0_7965_9348">
<rect width="250" height="250" fill="white" transform="translate(0.961426 0.960938)"/>
</clipPath>
</defs>
</svg>
