<svg width="700" height="84" viewBox="0 0 700 84" fill="none" xmlns="http://www.w3.org/2000/svg">
<path fill-rule="evenodd" clip-rule="evenodd" d="M90.5478 66.5226H22.7623C20.864 66.5226 19.2558 65.8638 17.9375 64.5452C16.6192 63.1745 15.9601 61.5661 15.9601 59.7204V21.2798C15.9601 19.4343 16.6192 17.8523 17.9375 16.5341C19.2558 15.1631 20.864 14.4776 22.7623 14.4776H112.457C112.668 14.4776 112.826 14.4248 112.932 14.3194C113.09 14.1612 113.169 14.003 113.169 13.8448V1.66401C113.169 1.45309 113.09 1.2949 112.932 1.18944C112.826 1.03124 112.668 0.952148 112.457 0.952148H22.7623C16.4874 0.952148 11.1352 3.16684 6.70584 7.5962C2.32919 11.9729 0.140869 17.2987 0.140869 23.5736V57.4266C0.140869 63.7017 2.32919 69.0537 6.70584 73.4831C11.1352 77.8599 16.4874 80.048 22.7623 80.048H92.7625C98.4044 80.048 103.203 78.0706 107.158 74.1158C111.165 70.1084 113.169 65.3101 113.169 59.7204V41.2119C113.169 41.0011 113.09 40.8429 112.932 40.7373C112.826 40.5791 112.668 40.5 112.457 40.5H97.9829C97.8247 40.5 97.6665 40.5791 97.5083 40.7373C97.4027 40.8429 97.3501 41.0011 97.3501 41.2119V59.7204C97.3501 61.5661 96.6643 63.1745 95.2936 64.5452C93.9751 65.8638 92.3931 66.5226 90.5478 66.5226ZM152.793 21.2798V33.6979H237.979C238.19 33.6979 238.348 33.777 238.454 33.9352C238.612 34.0407 238.691 34.1988 238.691 34.4098V46.5904C238.691 46.8016 238.612 46.9859 238.454 47.1441C238.348 47.2497 238.19 47.3023 237.979 47.3023H152.793V59.7204C152.793 61.5661 153.452 63.1745 154.77 64.5452C156.088 65.8638 157.697 66.5226 159.595 66.5226H249.29C249.501 66.5226 249.659 66.6017 249.765 66.7599C249.923 66.8655 250.002 66.9972 250.002 67.1554V79.3362C250.002 79.5474 249.923 79.7317 249.765 79.8899C249.659 79.9954 249.501 80.048 249.29 80.048H159.595C153.32 80.048 147.968 77.8599 143.539 73.4831C139.162 69.0537 136.973 63.7017 136.973 57.4266V23.5736C136.973 17.2987 139.162 11.9729 143.539 7.5962C147.968 3.16684 153.32 0.952148 159.595 0.952148H249.29C249.501 0.952148 249.659 1.03124 249.765 1.18944C249.923 1.2949 250.002 1.45309 250.002 1.66401V13.8448C250.002 14.003 249.923 14.1612 249.765 14.3194C249.659 14.4248 249.501 14.4776 249.29 14.4776H159.595C157.697 14.4776 156.088 15.1631 154.77 16.5341C153.452 17.8523 152.793 19.4343 152.793 21.2798ZM371.105 1.18944C370.999 1.2949 370.947 1.45309 370.947 1.66401V66.5226H360.822C358.502 66.5226 356.604 65.4944 355.127 63.4379L318.348 8.70354C314.867 3.74688 310.096 1.16307 304.031 0.952148H303.873H274.449C274.291 0.952148 274.133 1.03124 273.975 1.18944C273.87 1.2949 273.817 1.45309 273.817 1.66401V79.4153C273.817 79.5735 273.87 79.7317 273.975 79.8899C274.133 79.9954 274.291 80.048 274.449 80.048H288.924C289.135 80.048 289.293 79.9954 289.398 79.8899C289.557 79.7317 289.636 79.5735 289.636 79.4153V14.5567H299.76C302.028 14.5567 303.926 15.5586 305.455 17.5623L342.235 72.3757C345.715 77.3327 350.487 79.8899 356.551 80.048H356.709H386.133C386.292 80.048 386.423 79.9954 386.528 79.8899C386.687 79.7317 386.766 79.5735 386.766 79.4153V1.66401C386.766 1.45309 386.687 1.2949 386.528 1.18944C386.423 1.03124 386.292 0.952148 386.133 0.952148H371.658C371.448 0.952148 371.263 1.03124 371.105 1.18944ZM426.308 1.66401V79.4153C426.308 79.5735 426.229 79.7317 426.071 79.8899C425.968 79.9954 425.81 80.048 425.596 80.048H411.122C410.964 80.048 410.805 79.9954 410.647 79.8899C410.544 79.7317 410.489 79.5735 410.489 79.4153V1.66401C410.489 1.45309 410.544 1.2949 410.647 1.18944C410.805 1.03124 410.964 0.952148 411.122 0.952148H425.596C425.81 0.952148 425.968 1.03124 426.071 1.18944C426.229 1.2949 426.308 1.45309 426.308 1.66401ZM563.065 57.5057V1.66401C563.065 1.45309 562.986 1.2949 562.828 1.18944C562.721 1.03124 562.563 0.952148 562.353 0.952148H547.958C547.744 0.952148 547.562 1.03124 547.404 1.18944C547.297 1.2949 547.246 1.45309 547.246 1.66401V59.7204C547.246 61.6187 546.586 63.2271 545.269 64.5452C543.948 65.8638 542.342 66.5226 540.444 66.5226H472.658C470.812 66.5226 469.202 65.8638 467.834 64.5452C466.513 63.2271 465.856 61.6187 465.856 59.7204V1.66401C465.856 1.45309 465.777 1.2949 465.619 1.18944C465.512 1.03124 465.382 0.952148 465.223 0.952148H450.749C450.535 0.952148 450.353 1.03124 450.195 1.18944C450.088 1.2949 450.037 1.45309 450.037 1.66401V57.5057C450.037 63.7282 452.252 69.0537 456.681 73.4831C461.11 77.8599 466.434 80.048 472.658 80.048H540.444C546.716 80.048 552.043 77.8599 556.421 73.4831C560.851 69.0537 563.065 63.7282 563.065 57.5057ZM602.696 26.8956V21.2798C602.696 19.3815 603.357 17.7733 604.674 16.455C605.995 15.1367 607.577 14.4776 609.419 14.4776H694.685C694.843 14.4776 694.978 14.4248 695.08 14.3194C695.239 14.1612 695.318 14.003 695.318 13.8448V1.58492C695.318 1.42672 695.239 1.2949 695.08 1.18944C694.978 1.03124 694.843 0.952148 694.685 0.952148H609.419C603.199 0.952148 597.871 3.16684 593.442 7.5962C589.068 11.9729 586.877 17.2723 586.877 23.4945V24.6809C586.877 30.9032 589.068 36.229 593.442 40.6582C597.871 45.035 603.199 47.2232 609.419 47.2232H677.284C679.131 47.2232 680.713 47.909 682.03 49.2797C683.351 50.5982 684.007 52.1801 684.007 54.0255V59.7204C684.007 61.5661 683.351 63.148 682.03 64.4661C680.713 65.7847 679.131 66.4435 677.284 66.4435H592.018C591.86 66.4435 591.702 66.5226 591.544 66.6808C591.441 66.7864 591.386 66.9446 591.386 67.1554V79.3362C591.386 79.5474 591.441 79.7317 591.544 79.8899C591.702 79.9954 591.86 80.048 592.018 80.048H677.284C683.509 80.048 688.808 77.8334 693.182 73.404C697.612 68.9746 699.826 63.6491 699.826 57.4266V56.3192C699.826 50.0445 697.612 44.7186 693.182 40.3418C688.808 35.9126 683.509 33.6979 677.284 33.6979H609.419C607.577 33.6979 605.995 33.0388 604.674 31.7205C603.357 30.4022 602.696 28.7939 602.696 26.8956Z" fill="white"/>
</svg>
