<svg width="37" height="37" viewBox="0 0 37 37" fill="none" xmlns="http://www.w3.org/2000/svg">
<path d="M18.5 1C8.85065 1 1 8.85065 1 18.5C1 28.1493 8.85065 36 18.5 36C28.1493 36 36 28.1493 36 18.5C36 15.0023 34.9649 11.7431 33.1898 9.00548L32.5107 9.68461L32.0768 10.1185C33.5894 12.5587 34.4783 15.4238 34.4783 18.5C34.4783 27.3109 27.3109 34.4783 18.5 34.4783C9.68913 34.4783 2.52174 27.3109 2.52174 18.5C2.52174 9.68913 9.68913 2.52174 18.5 2.52174C22.2384 2.52174 25.6677 3.82849 28.3913 5.98875V7.53278L26.5382 9.38591C24.3923 7.48823 21.583 6.32609 18.5 6.32609C11.7876 6.32609 6.32609 11.7876 6.32609 18.5C6.32609 25.2124 11.7876 30.6739 18.5 30.6739C25.2124 30.6739 30.6739 25.2124 30.6739 18.5C30.6739 15.9671 29.8944 13.6127 28.5652 11.6626L27.4625 12.7652C28.5262 14.4232 29.1522 16.3878 29.1522 18.5C29.1522 24.3739 24.3739 29.1522 18.5 29.1522C12.6261 29.1522 7.84783 24.3739 7.84783 18.5C7.84783 12.6261 12.6261 7.84783 18.5 7.84783C21.164 7.84783 23.5941 8.83828 25.4623 10.4618L22.7635 13.1605C21.5928 12.2215 20.1142 11.6522 18.5 11.6522C14.7246 11.6522 11.6522 14.7246 11.6522 18.5C11.6522 22.2754 14.7246 25.3478 18.5 25.3478C22.2754 25.3478 25.3478 22.2754 25.3478 18.5C25.3478 17.4447 25.1008 16.4493 24.6731 15.5561L23.5125 16.7152C23.7119 17.2737 23.8261 17.8738 23.8261 18.5C23.8261 21.437 21.437 23.8261 18.5 23.8261C15.563 23.8261 13.1739 21.437 13.1739 18.5C13.1739 15.563 15.563 13.1739 18.5 13.1739C19.6945 13.1739 20.7941 13.5742 21.6832 14.2409L18.8923 17.0318C18.7644 16.9969 18.6325 16.9789 18.5 16.9783C18.0964 16.9783 17.7093 17.1386 17.424 17.424C17.1386 17.7093 16.9783 18.0964 16.9783 18.5C16.9783 18.9036 17.1386 19.2906 17.424 19.576C17.7093 19.8614 18.0964 20.0217 18.5 20.0217C18.9036 20.0217 19.2906 19.8614 19.576 19.576C19.8614 19.2906 20.0217 18.9036 20.0217 18.5C20.0217 18.367 20.0042 18.2346 19.9697 18.1062L29.4672 8.6087H31.4348L35.2391 4.80435H32.1957V1.76087L29.2488 4.70775C26.2798 2.38809 22.5511 1 18.5 1Z" fill="#F16648" stroke="#F16648" stroke-width="0.3"/>
</svg>
