<svg width="42" height="43" viewBox="0 0 42 43" fill="none" xmlns="http://www.w3.org/2000/svg">
<path d="M20.9862 0.000116371C20.7335 0.00406645 20.4927 0.108113 20.3166 0.289421C20.1406 0.470728 20.0436 0.714484 20.0471 0.96719V6.69137C20.0453 6.81779 20.0687 6.94331 20.1158 7.06062C20.1629 7.17794 20.2329 7.28471 20.3217 7.37474C20.4105 7.46477 20.5162 7.53627 20.6329 7.58506C20.7495 7.63386 20.8747 7.65899 21.0011 7.65899C21.1276 7.65899 21.2527 7.63386 21.3694 7.58506C21.486 7.53627 21.5918 7.46477 21.6805 7.37474C21.7693 7.28471 21.8393 7.17794 21.8864 7.06062C21.9336 6.94331 21.9569 6.81779 21.9551 6.69137V0.96719C21.9569 0.839551 21.933 0.712858 21.8849 0.594616C21.8368 0.476373 21.7655 0.368984 21.6751 0.278808C21.5848 0.188632 21.4773 0.117502 21.3589 0.0696318C21.2406 0.0217612 21.1138 -0.00187718 20.9862 0.000116371ZM0.945991 4.77399C0.747666 4.77568 0.554796 4.83914 0.394206 4.95553C0.233615 5.07192 0.113286 5.23546 0.0499535 5.42341C-0.0133794 5.61136 -0.0165682 5.81437 0.0408308 6.00421C0.0982298 6.19406 0.213363 6.3613 0.370219 6.48268L5.14037 10.2988C5.23824 10.3771 5.35059 10.4354 5.471 10.4704C5.59141 10.5053 5.71751 10.5161 5.84212 10.5023C5.96672 10.4885 6.08738 10.4502 6.1972 10.3898C6.30703 10.3293 6.40386 10.2478 6.48218 10.1499C6.5605 10.052 6.61876 9.93963 6.65364 9.81921C6.68853 9.6988 6.69935 9.57269 6.68549 9.44809C6.67162 9.32349 6.63335 9.20284 6.57286 9.09303C6.51236 8.98323 6.43082 8.88641 6.33291 8.80812L1.56276 4.992C1.38928 4.84892 1.17085 4.77171 0.945991 4.77399ZM41.0283 4.77586C40.8133 4.77949 40.6058 4.85566 40.4395 4.992L35.6693 8.80812C35.5714 8.88641 35.4899 8.98323 35.4294 9.09303C35.3689 9.20284 35.3306 9.32349 35.3167 9.44809C35.3029 9.57269 35.3137 9.6988 35.3486 9.81921C35.3835 9.93963 35.4417 10.052 35.5201 10.1499C35.5984 10.2478 35.6952 10.3293 35.805 10.3898C35.9149 10.4502 36.0355 10.4885 36.1601 10.5023C36.2847 10.5161 36.4108 10.5053 36.5312 10.4704C36.6516 10.4354 36.764 10.3771 36.8619 10.2988L41.632 6.48268C41.7901 6.35963 41.9054 6.18998 41.9616 5.99775C42.0178 5.80553 42.0122 5.60047 41.9454 5.41165C41.8786 5.22283 41.7541 5.05981 41.5895 4.9457C41.4249 4.83159 41.2285 4.77217 41.0283 4.77586ZM9.52481 12.4044C9.35703 12.4082 9.19324 12.4562 9.04994 12.5436C8.90665 12.6309 8.78893 12.7545 8.70866 12.9019L2.25033 21.2776C2.24846 21.2788 2.2466 21.2801 2.24474 21.2813C2.15032 21.376 2.07686 21.4895 2.02913 21.6144C1.9814 21.7393 1.96045 21.8729 1.96765 22.0064C1.97486 22.1399 2.01005 22.2704 2.07094 22.3895C2.13184 22.5086 2.21708 22.6135 2.32114 22.6975L20.1552 41.5321C20.2419 41.6885 20.3709 41.8174 20.5274 41.9041C20.6839 41.9907 20.8616 42.0317 21.0402 42.0222C21.0415 42.0222 21.0427 42.0222 21.044 42.0222C21.0465 42.0222 21.0489 42.0222 21.0514 42.0222C21.2138 42.0155 21.3717 41.9675 21.5103 41.8827C21.6489 41.798 21.7635 41.6792 21.8433 41.5377L39.7351 22.703C39.8421 22.618 39.9296 22.5109 39.9916 22.3891C40.0537 22.2672 40.0888 22.1335 40.0946 21.9969C40.1004 21.8603 40.0768 21.7241 40.0254 21.5974C39.974 21.4707 39.896 21.3566 39.7966 21.2627C39.796 21.2621 39.7954 21.2614 39.7948 21.2608L33.2936 12.9C33.2106 12.7486 33.0881 12.6225 32.9391 12.5352C32.7901 12.4479 32.6203 12.4027 32.4476 12.4044C32.4039 12.4051 32.3604 12.4088 32.3172 12.4155H21.139C21.1297 12.4142 21.1204 12.4129 21.1111 12.4118C21.0795 12.4078 21.0478 12.4053 21.016 12.4044C20.9618 12.4035 20.9075 12.4072 20.8539 12.4155H9.68692C9.6333 12.4072 9.57906 12.4035 9.52481 12.4044ZM11.1757 14.3236H19.0502L14.4571 20.2304L11.1757 14.3236ZM22.9502 14.3236H30.8265L27.5452 20.2304L22.9502 14.3236ZM21.0011 14.9217L25.7303 21.0018H16.272L21.0011 14.9217ZM32.5836 15.095L37.1768 21.0018H29.3023L32.5836 15.095ZM9.42232 15.1025L12.6999 21.0018H4.87391L9.42232 15.1025ZM5.14969 22.9099H13.6465L18.6272 37.1402L5.14969 22.9099ZM15.6664 22.9099H26.3359L21.0011 38.152L15.6664 22.9099ZM28.3557 22.9099H36.9047L23.3676 37.1607L28.3557 22.9099Z" fill="#F16648"/>
</svg>
