<svg width="42" height="42" viewBox="0 0 42 42" fill="none" xmlns="http://www.w3.org/2000/svg">
<path d="M20.9862 0.000116371C20.7335 0.00406645 20.4927 0.108113 20.3166 0.289421C20.1406 0.470728 20.0436 0.714484 20.0471 0.96719V6.69137C20.0453 6.81779 20.0687 6.94331 20.1158 7.06062C20.1629 7.17794 20.2329 7.28471 20.3217 7.37474C20.4105 7.46477 20.5162 7.53627 20.6329 7.58506C20.7495 7.63386 20.8747 7.65899 21.0011 7.65899C21.1276 7.65899 21.2527 7.63386 21.3694 7.58506C21.486 7.53627 21.5918 7.46477 21.6805 7.37474C21.7693 7.28471 21.8393 7.17794 21.8864 7.06062C21.9336 6.94331 21.9569 6.81779 21.9551 6.69137V0.96719C21.9569 0.839551 21.933 0.712858 21.8849 0.594616C21.8368 0.476373 21.7655 0.368984 21.6751 0.278808C21.5848 0.188632 21.4773 0.117502 21.3589 0.0696318C21.2406 0.0217612 21.1138 -0.00187718 20.9862 0.000116371ZM0.945991 4.77399C0.747666 4.77568 0.554796 4.83914 0.394206 4.95553C0.233615 5.07192 0.113286 5.23546 0.0499535 5.42341C-0.0133794 5.61136 -0.0165682 5.81437 0.0408308 6.00421C0.0982298 6.19406 0.213363 6.3613 0.370219 6.48268L5.14037 10.2988C5.23824 10.3771 5.35059 10.4354 5.471 10.4704C5.59141 10.5053 5.71751 10.5161 5.84212 10.5023C5.96672 10.4885 6.08738 10.4502 6.1972 10.3898C6.30703 10.3293 6.40386 10.2478 6.48218 10.1499C6.5605 10.052 6.61876 9.93963 6.65364 9.81921C6.68853 9.6988 6.69935 9.57269 6.68549 9.44809C6.67162 9.32349 6.63335 9.20284 6.57286 9.09303C6.51236 8.98323 6.43082 8.88641 6.33291 8.80812L1.56276 4.992C1.38928 4.84893 1.17085 4.77171 0.945991 4.77399ZM41.0283 4.77586C40.8133 4.77949 40.6058 4.85566 40.4395 4.992L35.6693 8.80812C35.5714 8.88641 35.4899 8.98323 35.4294 9.09303C35.3689 9.20284 35.3306 9.32349 35.3167 9.44809C35.3029 9.57269 35.3137 9.6988 35.3486 9.81921C35.3835 9.93963 35.4417 10.052 35.5201 10.1499C35.5984 10.2478 35.6952 10.3293 35.805 10.3898C35.9149 10.4502 36.0355 10.4885 36.1601 10.5023C36.2847 10.5161 36.4108 10.5053 36.5312 10.4704C36.6516 10.4354 36.764 10.3771 36.8619 10.2988L41.632 6.48268C41.7901 6.35963 41.9054 6.18998 41.9616 5.99775C42.0178 5.80553 42.0122 5.60047 41.9454 5.41165C41.8786 5.22283 41.7541 5.05981 41.5895 4.9457C41.4249 4.83159 41.2285 4.77217 41.0283 4.77586Z" fill="#F16648"/>
<path d="M21.0138 41.599C21.2665 41.5951 21.5073 41.491 21.6834 41.3097C21.8594 41.1284 21.9564 40.8846 21.9529 40.6319L21.9529 34.9078C21.9547 34.7813 21.9313 34.6558 21.8842 34.5385C21.8371 34.4212 21.7671 34.3144 21.6783 34.2244C21.5895 34.1343 21.4838 34.0629 21.3671 34.0141C21.2505 33.9653 21.1253 33.9401 20.9989 33.9401C20.8724 33.9401 20.7473 33.9653 20.6306 34.0141C20.514 34.0629 20.4082 34.1343 20.3195 34.2244C20.2307 34.3144 20.1607 34.4212 20.1136 34.5385C20.0664 34.6558 20.0431 34.7813 20.0449 34.9078L20.0449 40.6319C20.0431 40.7596 20.067 40.8863 20.1151 41.0045C20.1632 41.1228 20.2345 41.2301 20.3249 41.3203C20.4152 41.4105 20.5227 41.4816 20.6411 41.5295C20.7594 41.5774 20.8862 41.601 21.0138 41.599ZM41.054 36.8251C41.2523 36.8234 41.4452 36.76 41.6058 36.6436C41.7664 36.5272 41.8867 36.3637 41.95 36.1757C42.0134 35.9878 42.0166 35.7848 41.9592 35.5949C41.9018 35.4051 41.7866 35.2378 41.6298 35.1164L36.8596 31.3003C36.7618 31.222 36.6494 31.1637 36.529 31.1288C36.4086 31.0939 36.2825 31.083 36.1579 31.0968C36.0333 31.1107 35.9126 31.1489 35.8028 31.2094C35.693 31.2698 35.5961 31.3513 35.5178 31.4492C35.4395 31.5471 35.3812 31.6595 35.3464 31.7799C35.3115 31.9003 35.3007 32.0264 35.3145 32.151C35.3284 32.2756 35.3666 32.3963 35.4271 32.5061C35.4876 32.6159 35.5692 32.7127 35.6671 32.791L40.4372 36.6071C40.6107 36.7502 40.8292 36.8274 41.054 36.8251ZM0.971706 36.8233C1.18673 36.8196 1.39422 36.7435 1.56052 36.6071L6.33067 32.791C6.42859 32.7127 6.51012 32.6159 6.57062 32.5061C6.63112 32.3963 6.66939 32.2756 6.68325 32.151C6.69711 32.0264 6.68629 31.9003 6.65141 31.7799C6.61652 31.6595 6.55826 31.5471 6.47994 31.4492C6.40163 31.3513 6.30479 31.2698 6.19497 31.2094C6.08515 31.1489 5.96449 31.1107 5.83988 31.0968C5.71528 31.083 5.58918 31.0939 5.46877 31.1288C5.34836 31.1637 5.23601 31.222 5.13813 31.3003L0.367984 35.1164C0.209949 35.2395 0.0946383 35.4091 0.0383944 35.6014C-0.0178495 35.7936 -0.012177 35.9986 0.0546107 36.1875C0.121398 36.3763 0.245918 36.5393 0.410518 36.6534C0.575119 36.7675 0.771453 36.827 0.971706 36.8233Z" fill="#F16648"/>
<path d="M20.9961 10.5083C10.442 10.5083 2.19482 20.28 2.19482 20.28C1.93506 20.5769 1.93506 21.0222 2.19482 21.319C2.19482 21.319 10.442 31.0908 20.9961 31.0908C31.5502 31.0908 39.7974 21.319 39.7974 21.319C40.0571 21.0222 40.0571 20.5769 39.7974 20.28C39.7974 20.28 31.5502 10.5083 20.9961 10.5083ZM20.9961 12.0916C23.0772 12.0916 25.0656 12.5214 26.9086 13.1801C28.1455 14.5778 28.9124 16.4053 28.9124 18.4246C28.9124 22.8064 25.3779 26.341 20.9961 26.341C16.6143 26.341 13.0798 22.8064 13.0798 18.4246C13.0798 16.4053 13.8219 14.5778 15.0588 13.1801C16.9081 12.5183 18.9088 12.0916 20.9961 12.0916ZM12.4366 14.3428C11.8428 15.5797 11.4965 16.9651 11.4965 18.4246C11.4965 23.663 15.7577 27.9242 20.9961 27.9242C26.2345 27.9242 30.4957 23.663 30.4957 18.4246C30.4957 16.9712 30.1648 15.5797 29.5804 14.3428C34.0518 16.6156 37.2679 19.912 38.0904 20.7995C36.804 22.1911 29.6824 29.5075 20.9961 29.5075C12.3098 29.5075 5.18818 22.1911 3.90177 20.7995C4.72433 19.9089 7.9558 16.6156 12.4366 14.3428ZM20.9961 14.4665C18.8098 14.4665 17.0379 16.2384 17.0379 18.4246C17.0379 20.6109 18.8098 22.3828 20.9961 22.3828C23.1824 22.3828 24.9543 20.6109 24.9543 18.4246C24.9543 16.2384 23.1824 14.4665 20.9961 14.4665Z" fill="#F16648"/>
</svg>
