<?xml version="1.0" standalone="no"?>
<!DOCTYPE svg PUBLIC "-//W3C//DTD SVG 1.1//EN" "http://www.w3.org/Graphics/SVG/1.1/DTD/svg11.dtd" >
<svg xmlns="http://www.w3.org/2000/svg" xmlns:xlink="http://www.w3.org/1999/xlink" version="1.1">
<metadata>
Created by FontForge 20170731 at Fri Aug 20 20:41:39 2021
 By Aleksey,,,
Copyright (c) 2020 by Neutype. All rights reserved.
</metadata>
<defs>
<font id="Arbeit-Light" horiz-adv-x="1099" >
  <font-face 
    font-family="Arbeit Light"
    font-weight="200"
    font-stretch="normal"
    units-per-em="2048"
    panose-1="0 0 3 0 0 0 0 0 0 0"
    ascent="1638"
    descent="-410"
    x-height="1004"
    cap-height="1423"
    bbox="-723 -496 2296 1917"
    underline-thickness="102"
    underline-position="-307"
    unicode-range="U+0020-2265"
  />
<missing-glyph horiz-adv-x="1509" 
 />
    <glyph glyph-name="f_f" unicode="ff" horiz-adv-x="1116" 
d="M938 1315q-127 0 -127 -154v-157h270v-103h-270v-901h-121v901h-393v-901h-121v901h-141v103h141v161q0 123 64 190.5t176 67.5h159v-108h-151q-127 0 -127 -154v-157h393v161q0 123 64 190.5t176 67.5h160v-108h-152z" />
    <glyph glyph-name="f_f_i" unicode="ffi" horiz-adv-x="1542" 
d="M1395 1004v-1004h-123v901h-455v-901h-121v901h-399v-901h-121v901h-141v103h141v161q0 123 64 190.5t176 67.5h159v-108h-151q-127 0 -127 -154v-157h399v161q0 123 64 190.5t176 67.5h160v-108h-152q-127 0 -127 -154v-157h578zM1249 1384h164v-153h-164v153z" />
    <glyph glyph-name="f_i" unicode="fi" horiz-adv-x="1021" 
d="M874 1004v-1004h-122v901h-455v-901h-121v901h-141v103h141v161q0 123 64 190.5t176 67.5h159v-108h-151q-127 0 -127 -154v-157h577zM729 1384h164v-153h-164v153z" />
    <glyph glyph-name=".notdef" horiz-adv-x="1509" 
 />
    <glyph glyph-name=".null" horiz-adv-x="0" 
 />
    <glyph glyph-name="nonmarkingreturn" horiz-adv-x="682" 
 />
    <glyph glyph-name="space" unicode=" " horiz-adv-x="446" 
 />
    <glyph glyph-name="exclam" unicode="!" horiz-adv-x="458" 
d="M174 424l-14 758v354h131v-354l-15 -758h-102zM147 0v160h164v-160h-164z" />
    <glyph glyph-name="quotedbl" unicode="&#x22;" horiz-adv-x="659" 
d="M98 1272v151h154v-151l-35 -318h-84zM410 1272v151h153v-151l-35 -318h-84z" />
    <glyph glyph-name="numbersign" unicode="#" horiz-adv-x="1452" 
d="M367 362h-281v111h295l74 494h-287v108h299l51 348h113l-49 -348h391l49 348h113l-50 -348h271v-108h-285l-70 -494h277v-111h-293l-55 -362h-111l51 362h-393l-49 -362h-115zM887 473l71 494h-393l-71 -494h393z" />
    <glyph glyph-name="dollar" unicode="$" horiz-adv-x="1384" 
d="M1206 428q0 -112 -41.5 -198t-114 -138t-161.5 -79t-193 -31v-158h-131v164q-215 23 -354 141.5t-156 314.5h140q15 -135 115 -227t255 -115l2 623q-54 11 -97 22t-92 28t-86 35.5t-72.5 46t-58 59t-36.5 74t-14 91.5q0 154 124.5 255t331.5 116v150h131v-150
q212 -14 332 -121t137 -301h-125q-20 142 -110.5 218t-233.5 89v-514q141 -28 230.5 -57.5t155.5 -74.5t94 -108.5t28 -154.5zM244 1081q0 -43 19 -78.5t48.5 -58.5t74.5 -42.5t86 -30t95 -21.5v485q-154 -14 -238.5 -86.5t-84.5 -167.5zM696 98q104 5 187 41.5t134.5 108.5
t51.5 170q0 41 -10.5 75.5t-27 59.5t-45 46t-56.5 34.5t-70 26.5t-77.5 20.5t-86.5 17.5v-600z" />
    <glyph glyph-name="percent" unicode="%" horiz-adv-x="1570" 
d="M377 752q-146 0 -234 96.5t-88 247.5q0 149 88 244.5t234 95.5q144 0 231.5 -95.5t87.5 -244.5q0 -151 -87.5 -247.5t-231.5 -96.5zM1241 1423h137l-1050 -1423h-135zM377 850q94 0 149.5 69t55.5 177q0 105 -55.5 172t-149.5 67q-96 0 -152.5 -67t-56.5 -172
q0 -108 56.5 -177t152.5 -69zM1196 -16q-146 0 -234 96.5t-88 247.5q0 150 88 246t234 96q144 0 232 -96t88 -246q0 -151 -87.5 -247.5t-232.5 -96.5zM1196 82q94 0 149.5 69t55.5 177q0 105 -55.5 172t-149.5 67q-96 0 -153.5 -67t-57.5 -172q0 -108 57.5 -177t153.5 -69z
" />
    <glyph glyph-name="ampersand" unicode="&#x26;" horiz-adv-x="1392" 
d="M553 -33q-127 0 -236 46t-177 133.5t-68 197.5q0 285 372 430q-5 5 -37 34.5t-53.5 54.5t-49.5 64t-43.5 87.5t-16.5 101.5q-4 106 48 185t133.5 117t178.5 38q159 0 268 -95.5t109 -232.5q0 -128 -83 -225t-261 -170l397 -385q87 123 111 406h121q-23 -314 -146 -490
l266 -264h-163l-174 170q-197 -203 -496 -203zM559 817q156 58 226.5 136t70.5 177q0 94 -71.5 155t-178.5 61q-100 0 -166.5 -62.5t-66.5 -171.5q0 -30 5.5 -58t20 -54.5t24.5 -44.5t34.5 -43t33 -34t37 -33.5t31.5 -27.5zM557 84q121 0 225.5 44.5t180.5 129.5l-435 426
q-162 -55 -246.5 -140t-84.5 -186q0 -123 104 -198.5t256 -75.5z" />
    <glyph glyph-name="quotesingle" unicode="'" horiz-adv-x="350" 
d="M98 1272v151h154v-151l-35 -318h-84z" />
    <glyph glyph-name="parenleft" unicode="(" horiz-adv-x="536" 
d="M389 -213q-131 154 -215 381.5t-84 488.5q0 249 83 485.5t210 385.5h131q-141 -173 -220 -406t-79 -465q0 -246 80 -469t225 -401h-131z" />
    <glyph glyph-name="parenright" unicode=")" horiz-adv-x="505" 
d="M182 -227h-131q145 178 225 401t80 469q0 231 -79 464t-220 406h131q127 -149 210 -385t83 -485q0 -261 -84 -488.5t-215 -381.5z" />
    <glyph glyph-name="asterisk" unicode="*" horiz-adv-x="608" 
d="M147 1108l107 152l-186 -13v88l186 -14l-107 152l76 45l80 -168l80 168l78 -45l-109 -152l189 14v-88l-189 13l109 -152l-78 -45l-80 168l-80 -168z" />
    <glyph glyph-name="plus" unicode="+" horiz-adv-x="1302" 
d="M596 180v461h-432v111h432v444h106v-444h437v-111h-437v-461h-106z" />
    <glyph glyph-name="comma" unicode="," horiz-adv-x="399" 
d="M86 -190v81q43 2 66.5 31t19.5 78h-80v160h164v-160q1 -88 -47 -139t-123 -51z" />
    <glyph glyph-name="hyphen" unicode="-" horiz-adv-x="907" 
d="M92 770h723v-113h-723v113z" />
    <glyph glyph-name="period" unicode="." horiz-adv-x="438" 
d="M137 160h164v-160h-164v160z" />
    <glyph glyph-name="slash" unicode="/" horiz-adv-x="829" 
d="M680 1466h121l-649 -1673h-123z" />
    <glyph glyph-name="zero" unicode="0" horiz-adv-x="1222" 
d="M608 -23q-248 0 -377 192t-129 536q0 345 130 537t380 192t378 -191t128 -538q0 -345 -129 -536.5t-381 -191.5zM608 94q195 0 291 160t96 451q0 292 -96.5 452t-292.5 160q-190 0 -285.5 -160.5t-95.5 -449.5q0 -292 95.5 -452.5t287.5 -160.5z" />
    <glyph glyph-name="one" unicode="1" horiz-adv-x="747" 
d="M389 1151h-336v80q98 0 162.5 11.5t102.5 38.5t56.5 58.5t33.5 83.5h98v-1423h-117v1151z" />
    <glyph glyph-name="two" unicode="2" horiz-adv-x="1140" 
d="M111 0v111l284 233q214 180 259 221q179 164 235 294q33 77 33 157q0 138 -86 227.5t-254 89.5q-303 0 -349 -332h-135q15 205 146.5 325t337.5 120q223 0 342.5 -121t119.5 -311q0 -98 -38 -188.5t-131.5 -191.5t-157 -158.5t-206.5 -176.5q-37 -31 -56 -47l-172 -141
h772v-111h-944z" />
    <glyph glyph-name="three" unicode="3" horiz-adv-x="1144" 
d="M741 758q151 -34 230.5 -127t79.5 -234q0 -197 -130 -305t-346 -108q-233 0 -366 125.5t-141 330.5h133q5 -155 102.5 -251.5t267.5 -96.5q162 0 258.5 79.5t96.5 229.5q0 145 -109.5 221t-318.5 76h-37v105h31q187 0 284.5 71.5t97.5 206.5q0 127 -84.5 190.5
t-230.5 63.5q-312 0 -338 -319h-133q12 203 134 316.5t349 113.5q196 0 313.5 -92t116.5 -267q-2 -121 -67 -205.5t-193 -123.5z" />
    <glyph glyph-name="four" unicode="4" horiz-adv-x="1218" 
d="M784 0v350h-706v109l663 964h158v-964h231v-111h-231v-348h-115zM213 459h571v839z" />
    <glyph glyph-name="five" unicode="5" horiz-adv-x="1103" 
d="M547 -10q-188 0 -320 110.5t-145 292.5h129q12 -134 108.5 -212.5t225.5 -78.5q164 0 263 105t99 272q0 157 -89.5 261t-242.5 104q-120 0 -205 -64.5t-120 -161.5h-127l96 805h729v-108h-626l-70 -527q49 70 138.5 115t189.5 45q203 0 326.5 -134t123.5 -335
q0 -215 -133 -352t-350 -137z" />
    <glyph glyph-name="six" unicode="6" horiz-adv-x="1173" 
d="M602 -8q-80 0 -148 18.5t-136 69.5t-115 132.5t-75 216.5t-26 312q2 182 39.5 319t105.5 221.5t159 126.5t204 42q185 0 297 -103.5t133 -277.5h-125q-15 127 -95.5 200.5t-213.5 73.5q-400 4 -385 -655q45 122 145.5 191t241.5 69q202 0 331.5 -130t129.5 -347
t-131.5 -348t-335.5 -131zM602 100q150 0 247 102t97 269q0 161 -96.5 265t-249.5 104q-60 0 -119.5 -21.5t-111.5 -63t-84.5 -113.5t-32.5 -163q0 -175 102 -277t248 -102z" />
    <glyph glyph-name="seven" unicode="7" horiz-adv-x="1056" 
d="M68 1423h966v-116q-574 -472 -602 -1307h-137q50 858 586 1307l-813 -2v118z" />
    <glyph glyph-name="eight" unicode="8" horiz-adv-x="1120" 
d="M559 -23q-111 0 -204 34t-154.5 91t-95 131t-33.5 156q0 140 67.5 234t188.5 135q-101 44 -154 123.5t-53 185.5q0 175 121 276t317 101q193 0 314.5 -101t121.5 -276q0 -105 -52.5 -185t-151.5 -124q119 -41 187.5 -135.5t68.5 -233.5q0 -82 -33.5 -156t-94.5 -131
t-154.5 -91t-205.5 -34zM559 803q138 0 228 72.5t90 193.5q0 125 -89.5 196.5t-228.5 71.5t-228 -71t-89 -197q0 -121 89 -193.5t228 -72.5zM559 84q166 0 264.5 89t98.5 220q0 147 -101 229.5t-262 82.5q-164 0 -265 -82.5t-101 -229.5q0 -131 99.5 -220t266.5 -89z" />
    <glyph glyph-name="nine" unicode="9" horiz-adv-x="1144" 
d="M539 1450q56 0 106 -9t102 -32.5t94.5 -60.5t80.5 -96t63.5 -135.5t40 -182.5t12.5 -234q-2 -182 -39.5 -318.5t-105.5 -221t-159 -126.5t-204 -42q-185 0 -297 103.5t-133 277.5h125q15 -127 96 -201t214 -74q67 -1 122.5 16.5t107 63.5t86 118.5t53.5 189t16 268.5
q-45 -122 -146 -191t-242 -69q-202 0 -331 129.5t-129 347.5q0 217 131.5 348t335.5 131zM539 1341q-150 0 -247 -102t-97 -268q0 -161 96.5 -265t249.5 -104q60 0 119.5 21.5t111.5 63t84.5 113.5t32.5 163q0 88 -28.5 160.5t-77 119.5t-111.5 72.5t-133 25.5z" />
    <glyph glyph-name="colon" unicode=":" horiz-adv-x="458" 
d="M147 844v160h164v-160h-164zM147 0v160h164v-160h-164z" />
    <glyph glyph-name="semicolon" unicode=";" horiz-adv-x="419" 
d="M109 844v160h163v-160h-163zM102 -190v81q43 2 66.5 31t19.5 78h-79v160h163v-160q1 -88 -47 -139t-123 -51z" />
    <glyph glyph-name="less" unicode="&#x3c;" horiz-adv-x="1353" 
d="M158 602v133l950 430v-121l-825 -376l825 -375v-119z" />
    <glyph glyph-name="equal" unicode="=" horiz-adv-x="1359" 
d="M156 827v115h1048v-115h-1048zM156 365v112h1048v-112h-1048z" />
    <glyph glyph-name="greater" unicode="&#x3e;" horiz-adv-x="1323" 
d="M1231 602l-950 -428v119l825 375l-825 376v121l950 -430v-133z" />
    <glyph glyph-name="question" unicode="?" horiz-adv-x="997" 
d="M395 379q0 67 24 122.5t63 94.5t85.5 74.5t93.5 70.5t86 73t63 91t24 117q0 130 -89.5 220.5t-242.5 90.5q-299 0 -334 -303h-135q10 194 142 305t327 111q211 0 337 -120t126 -300q0 -76 -25 -138.5t-64.5 -105t-87.5 -79t-96.5 -69.5t-88 -68t-64.5 -82.5t-25 -104.5
h-119zM377 0v160h162v-160h-162z" />
    <glyph glyph-name="at" unicode="@" horiz-adv-x="1601" 
d="M803 -186q-317 0 -515.5 195t-197.5 509q0 161 54 297.5t150.5 233t233 150.5t297.5 54q301 0 490.5 -176.5t189.5 -458.5q0 -192 -87.5 -316t-225.5 -124q-82 0 -134 39t-67 113q-40 -71 -109 -114.5t-145 -43.5q-130 0 -206 83t-76 222q0 165 100 284.5t240 119.5
q62 0 119.5 -33t91.5 -88l16 106h115q-56 -424 -56 -465q0 -63 30 -95t81 -32q96 0 152.5 92t56.5 250q0 240 -159.5 390.5t-416.5 150.5q-277 0 -449.5 -176t-172.5 -461q-1 -271 165.5 -438.5t434.5 -167.5h571v-100h-571zM756 266q96 0 164.5 87.5t68.5 211.5
q0 101 -49.5 159t-134.5 58q-97 0 -163.5 -87t-66.5 -218q0 -99 49 -155t132 -56z" />
    <glyph glyph-name="A" unicode="A" horiz-adv-x="1339" 
d="M16 0l584 1423h139l584 -1423h-139l-174 451h-680l-174 -451h-140zM375 561h590l-295 733z" />
    <glyph glyph-name="B" unicode="B" horiz-adv-x="1335" 
d="M170 1423l559 -2q214 -2 332.5 -96t118.5 -266q0 -222 -207 -301q266 -67 266 -357q0 -190 -129 -295.5t-367 -105.5h-573v1423zM729 797q165 -1 246.5 69.5t81.5 190.5t-90 186t-250 66h-422v-510zM733 115q184 0 280.5 75.5t96.5 210.5q0 67 -19.5 118t-63.5 90
t-121 59.5t-187 21.5l-424 2v-577h438z" />
    <glyph glyph-name="C" unicode="C" horiz-adv-x="1411" 
d="M92 717q0 218 77 384t224.5 259.5t347.5 93.5q139 0 252.5 -42.5t188.5 -115.5t120 -165t58 -197h-131q-11 80 -47.5 151.5t-95.5 128.5t-148 90t-197 33q-159 0 -278.5 -80.5t-181.5 -220.5t-62 -319t61.5 -319t181 -221t279.5 -81q106 0 195 32.5t148 88.5t96 126
t49 149h131q-15 -105 -60 -195.5t-119.5 -162t-187.5 -113t-252 -41.5q-200 0 -347.5 93.5t-224.5 259.5t-77 384z" />
    <glyph glyph-name="D" unicode="D" horiz-adv-x="1427" 
d="M170 1423h498q330 0 502.5 -178t172.5 -524q0 -336 -170 -528.5t-485 -192.5h-518v1423zM653 115q280 0 420.5 155t140.5 443q0 299 -135.5 447.5t-414.5 148.5h-369v-1194h358z" />
    <glyph glyph-name="E" unicode="E" horiz-adv-x="1251" 
d="M170 1423h989v-112h-862v-527h786v-114h-786v-555h862v-115h-989v1423z" />
    <glyph glyph-name="F" unicode="F" horiz-adv-x="1159" 
d="M170 1423h950v-112h-823v-527h721v-114h-721v-670h-127v1423z" />
    <glyph glyph-name="G" unicode="G" horiz-adv-x="1501" 
d="M1354 737v-737h-115l-6 274q-18 -49 -57.5 -98.5t-99.5 -94.5t-148 -73t-187 -28q-204 0 -353 92.5t-225.5 257.5t-76.5 383t77 383t224.5 257.5t347.5 92.5q132 0 239 -38t179.5 -106t118 -155t65.5 -193h-131q-36 168 -155 271.5t-316 103.5q-239 0 -380.5 -171.5
t-141.5 -444.5q0 -135 35 -248t101 -195.5t166.5 -129t225.5 -46.5q74 0 142 18.5t129.5 58t108 97.5t76 142.5t34.5 187.5v27h-473v112h596z" />
    <glyph glyph-name="H" unicode="H" horiz-adv-x="1449" 
d="M162 1423h125v-639h876v639h125v-1423h-125v670h-876v-670h-125v1423z" />
    <glyph glyph-name="I" unicode="I" horiz-adv-x="464" 
d="M170 1423h123v-1423h-123v1423z" />
    <glyph glyph-name="J" unicode="J" horiz-adv-x="1038" 
d="M492 -16q-203 0 -316 113t-113 319v59h125v-59q3 -158 81.5 -239t222.5 -81q143 0 216.5 78.5t73.5 247.5v1001h125v-1001q0 -218 -108.5 -328t-306.5 -110z" />
    <glyph glyph-name="K" unicode="K" horiz-adv-x="1259" 
d="M170 1423h123v-792l790 792l162 2l-635 -641l623 -784h-152l-557 700l-231 -225v-475h-123v1423z" />
    <glyph glyph-name="L" unicode="L" horiz-adv-x="1103" 
d="M170 1423h127v-1308h760v-115h-887v1423z" />
    <glyph glyph-name="M" unicode="M" horiz-adv-x="1771" 
d="M211 0v1423h182l498 -1294l487 1294h181v-1423h-123v1233l-469 -1233h-158l-475 1247v-1247h-123z" />
    <glyph glyph-name="N" unicode="N" horiz-adv-x="1486" 
d="M293 1243v-1243h-123v1423h143l879 -1245v1243h123v-1421h-144z" />
    <glyph glyph-name="O" unicode="O" horiz-adv-x="1515" 
d="M758 -20q-201 0 -355 93.5t-237.5 261t-83.5 382.5q0 214 83.5 381.5t238 261.5t354.5 94q202 0 356 -94t237 -261t83 -382q0 -214 -83.5 -381.5t-238 -261.5t-354.5 -94zM758 94q164 0 289 80.5t191.5 222t66.5 320.5q0 278 -149.5 450t-397.5 172q-245 0 -396 -172.5
t-151 -449.5q0 -180 68 -321.5t193 -221.5t286 -80z" />
    <glyph glyph-name="P" unicode="P" horiz-adv-x="1257" 
d="M170 1423l569 2q223 1 344 -109t121 -310q0 -203 -125.5 -324t-351.5 -121h-432v-561h-125v1423zM737 674q164 0 253 88t89 244q0 153 -87.5 231t-254.5 78h-442v-641h442z" />
    <glyph glyph-name="Q" unicode="Q" horiz-adv-x="1546" 
d="M1448 717q0 -293 -156 -488l172 -157l-73 -80l-172 158q-186 -170 -453 -170q-198 0 -354 94t-243 263.5t-87 383.5q0 213 87 380.5t243 260t354 92.5t353.5 -93t242 -261.5t86.5 -382.5zM762 94q221 0 366 139l-182 164l72 80l184 -164q123 170 123 396
q0 279 -154 453.5t-405 174.5q-250 0 -404.5 -173.5t-154.5 -450.5q0 -180 69 -320.5t195.5 -219.5t290.5 -79z" />
    <glyph glyph-name="R" unicode="R" horiz-adv-x="1298" 
d="M154 0v1423l598 2q225 0 345 -103t120 -304q0 -321 -322 -387l340 -631h-148l-321 608h-487v-608h-125zM279 721h471q342 0 342 297t-342 297h-471v-594z" />
    <glyph glyph-name="S" unicode="S" horiz-adv-x="1263" 
d="M666 -18q-165 0 -297.5 52t-217 157.5t-96.5 252.5h140q19 -157 146.5 -252.5t317.5 -95.5q83 0 156 20.5t130 59.5t90.5 101.5t33.5 140.5q0 61 -23.5 106.5t-54 72.5t-94 50t-107.5 33t-131 27q-70 13 -111 21.5t-106.5 26t-105.5 35t-87.5 46.5t-74 62t-45 80
t-18.5 103q0 168 146.5 271t385.5 102q237 -2 371 -110t153 -314h-125q-21 156 -127 231.5t-272 77.5q-187 1 -293 -75.5t-106 -182.5q0 -42 15 -75.5t50.5 -58.5t65 -41.5t86.5 -31.5t85.5 -21t91.5 -18q3 -1 5 -1t5 -1t6 -1.5t5 -0.5q122 -23 205.5 -45.5t152.5 -54.5
t108 -73.5t60 -97.5t21 -132q0 -94 -29.5 -170t-79.5 -126.5t-119.5 -85t-147 -49.5t-164.5 -15z" />
    <glyph glyph-name="T" unicode="T" horiz-adv-x="1243" 
d="M559 1311h-524v112h1173v-112h-522v-1311h-127v1311z" />
    <glyph glyph-name="U" unicode="U" horiz-adv-x="1392" 
d="M696 -16q-272 0 -418.5 146t-146.5 431v862h127v-862q0 -228 118.5 -345.5t319.5 -117.5t319 117.5t118 345.5v862h127v-862q0 -285 -146 -431t-418 -146z" />
    <glyph glyph-name="V" unicode="V" horiz-adv-x="1261" 
d="M37 1423h137l457 -1310l459 1310h135l-504 -1423h-184z" />
    <glyph glyph-name="W" unicode="W" horiz-adv-x="1914" 
d="M440 0l-405 1423h127l368 -1294l363 1294h129l367 -1290l368 1290h129l-416 -1423h-176l-336 1229l-342 -1229h-176z" />
    <glyph glyph-name="X" unicode="X" horiz-adv-x="1288" 
d="M25 0l546 723l-526 700h152l450 -598l449 598h151l-526 -700l547 -723h-152l-469 621l-471 -621h-151z" />
    <glyph glyph-name="Y" unicode="Y" horiz-adv-x="1185" 
d="M530 555l-544 868h141l467 -753l467 753h141l-545 -868v-555h-127v555z" />
    <glyph glyph-name="Z" unicode="Z" horiz-adv-x="1206" 
d="M27 115l974 1194h-950v114h1108v-114l-981 -1194h973v-115h-1124v115z" />
    <glyph glyph-name="bracketleft" unicode="[" horiz-adv-x="616" 
d="M594 1513h-330v-1626h330v-104h-438v1833h438v-103z" />
    <glyph glyph-name="backslash" unicode="\" horiz-adv-x="829" 
d="M184 1466l652 -1673h-123l-650 1673h121z" />
    <glyph glyph-name="bracketright" unicode="]" horiz-adv-x="587" 
d="M57 1513v103h439v-1833h-439v104h330v1626h-330z" />
    <glyph glyph-name="underscore" unicode="_" horiz-adv-x="1134" 
d="M51 0h1032v-102h-1032v102z" />
    <glyph glyph-name="grave" unicode="`" horiz-adv-x="509" 
d="M293 1206l-221 283h159l175 -283h-113z" />
    <glyph glyph-name="a" unicode="a" horiz-adv-x="1005" 
d="M426 -20q-165 0 -265 86t-100 227q0 57 17 103t44 77.5t69.5 56t83.5 39t96 25t97 14.5t97 8l221 15v61q0 105 -68.5 168.5t-205.5 63.5q-131 0 -199.5 -56.5t-81.5 -150.5h-127q18 142 120.5 224.5t287.5 82.5q188 0 290.5 -89.5t102.5 -262.5v-459q0 -93 13 -213h-125
q-7 89 -7 172q-42 -85 -136 -138.5t-224 -53.5zM432 84q46 0 91.5 10.5t92 36.5t82 64t59.5 98.5t27 134.5l4 98l-188 -10q-63 -3 -114 -9.5t-109.5 -22t-98 -38.5t-66 -62.5t-26.5 -90.5q0 -90 67 -149.5t179 -59.5z" />
    <glyph glyph-name="b" unicode="b" horiz-adv-x="1142" 
d="M621 -23q-117 0 -207 51t-142 142v-170h-122v1423h122v-589q52 91 142 141.5t207 50.5q196 0 320 -139.5t124 -384.5t-124 -385t-320 -140zM600 96q152 0 243 111.5t91 294.5q0 185 -91 297t-243 112q-153 0 -244.5 -115.5t-91.5 -293.5t91.5 -292t244.5 -114z" />
    <glyph glyph-name="c" unicode="c" horiz-adv-x="1048" 
d="M973 338q-27 -152 -142 -249t-288 -97q-144 0 -251 67t-161.5 183t-54.5 264q0 228 125 371t342 143q173 0 287 -97.5t143 -250.5h-131q-25 106 -102 173.5t-197 67.5q-163 0 -252.5 -111t-89.5 -296q0 -183 90.5 -296.5t251.5 -113.5q122 0 199 68t100 174h131z" />
    <glyph glyph-name="d" unicode="d" horiz-adv-x="1142" 
d="M522 -23q-196 0 -320 140t-124 385t124 384.5t320 139.5q117 0 206.5 -50.5t141.5 -141.5v589h123v-1423h-123v170q-52 -91 -142 -142t-206 -51zM543 96q153 0 244.5 114t91.5 292t-91.5 293.5t-244.5 115.5q-152 0 -243 -112t-91 -297q0 -183 91 -294.5t243 -111.5z" />
    <glyph glyph-name="e" unicode="e" horiz-adv-x="1071" 
d="M987 461h-782q8 -166 93.5 -266.5t236.5 -100.5q118 0 199.5 54.5t105.5 158.5h127q-34 -158 -146.5 -237.5t-283.5 -79.5q-217 0 -339 144t-122 372q0 229 121.5 371.5t337.5 142.5q212 0 332 -143t120 -373v-43zM535 913q-151 0 -235.5 -94.5t-96.5 -255.5h657
q-12 161 -96.5 255.5t-228.5 94.5z" />
    <glyph glyph-name="f" unicode="f" horiz-adv-x="602" 
d="M416 1423h159v-108h-151q-127 0 -127 -154v-157h270v-103h-270v-901h-121v901h-141v103h141v161q0 123 64 190.5t176 67.5z" />
    <glyph glyph-name="g" unicode="g" horiz-adv-x="1130" 
d="M543 -387q-179 0 -294.5 74t-133.5 231h127q31 -203 307 -203q150 1 229.5 85t79.5 229v176q-50 -89 -136 -140t-194 -51q-198 0 -324 141t-126 367q0 223 128.5 363.5t328.5 140.5q103 0 190 -51.5t133 -138.5v168h123v-975q0 -191 -114.5 -303.5t-323.5 -112.5z
M541 127q153 0 239 111t86 292q0 172 -85.5 276.5t-239.5 104.5t-246 -107t-92 -284t92.5 -285t245.5 -108z" />
    <glyph glyph-name="h" unicode="h" 
d="M150 1423h122v-589q106 192 336 192q55 0 105 -13t96.5 -44t80.5 -78t54.5 -120.5t20.5 -166.5v-604h-123v602q0 75 -15 132.5t-38.5 91.5t-58.5 55.5t-70.5 29t-77.5 7.5q-126 0 -218 -98.5t-92 -254.5v-565h-122v1423z" />
    <glyph glyph-name="i" unicode="i" horiz-adv-x="419" 
d="M127 1384h164v-153h-164v153zM150 1004h122v-1004h-122v1004z" />
    <glyph glyph-name="j" unicode="j" horiz-adv-x="399" 
d="M109 1231v153h163v-153h-163zM-88 -360v114h88q60 0 94.5 39.5t34.5 108.5v1102h123v-1106q0 -123 -66 -190.5t-178 -67.5h-96z" />
    <glyph glyph-name="k" unicode="k" horiz-adv-x="1024" 
d="M150 1423h122v-870l533 451h170l-451 -392l490 -612h-160l-428 535l-154 -127v-408h-122v1423z" />
    <glyph glyph-name="l" unicode="l" horiz-adv-x="423" 
d="M150 1423h122v-1423h-122v1423z" />
    <glyph glyph-name="m" unicode="m" horiz-adv-x="1685" 
d="M1210 1026q71 0 130.5 -22t109.5 -69t78 -131.5t28 -199.5v-604h-122v602q0 75 -15 132.5t-39 91.5t-56.5 55.5t-63 29t-64.5 7.5q-122 0 -203.5 -96t-81.5 -257v-565h-123v602q0 92 -22 158t-58 98.5t-72.5 46t-76.5 13.5q-123 0 -205 -97t-82 -256v-565h-122v1004h122
v-170q92 192 301 192q62 0 118 -18t109.5 -66t82.5 -121q103 205 327 205z" />
    <glyph glyph-name="n" unicode="n" 
d="M150 1004h122v-170q106 192 336 192q55 0 105 -13t96.5 -44t80.5 -78t54.5 -120.5t20.5 -166.5v-604h-123v602q0 75 -15 132.5t-38.5 91.5t-58.5 55.5t-70.5 29t-77.5 7.5q-126 0 -218 -98.5t-92 -254.5v-565h-122v1004z" />
    <glyph glyph-name="o" unicode="o" horiz-adv-x="1091" 
d="M547 -8q-213 0 -342 142t-129 372t129 372t342 142t341 -142t128 -372t-128 -372t-341 -142zM547 96q160 0 252 110t92 296q0 189 -93 300t-251 111q-159 0 -252.5 -110.5t-93.5 -296.5t94.5 -298t251.5 -112z" />
    <glyph glyph-name="p" unicode="p" horiz-adv-x="1142" 
d="M621 1026q196 0 320 -139.5t124 -384.5t-124 -385t-320 -140q-117 0 -207 51t-142 142v-590h-122v1424h122v-170q52 91 142 141.5t207 50.5zM600 907q-153 0 -244.5 -113.5t-91.5 -291.5t92 -294t244 -116t243 112.5t91 297.5q0 183 -91 294t-243 111z" />
    <glyph glyph-name="q" unicode="q" horiz-adv-x="1142" 
d="M522 1026q117 0 206.5 -50.5t141.5 -141.5v170h123v-1424h-123v590q-52 -91 -142 -142t-206 -51q-196 0 -320 140t-124 385t124 384.5t320 139.5zM543 907q-152 0 -243 -111t-91 -294q0 -185 91 -297.5t243 -112.5t244 116t92 294t-91.5 291.5t-244.5 113.5z" />
    <glyph glyph-name="r" unicode="r" horiz-adv-x="669" 
d="M150 1004h122v-195q45 102 126.5 150.5t183.5 48.5h63v-119h-61q-56 0 -106.5 -16t-99 -54t-77.5 -113t-29 -180v-526h-122v1004z" />
    <glyph glyph-name="s" unicode="s" horiz-adv-x="993" 
d="M514 -23q-64 0 -123.5 11.5t-114.5 37t-96.5 63t-68 93.5t-29.5 125h127q7 -112 94.5 -168.5t212.5 -56.5t202 55.5t77 149.5q0 32 -9 57.5t-31 44.5t-41 31t-58.5 24t-62.5 17.5t-73 15.5q-166 34 -202 45q-145 44 -185 132q-18 40 -18 91q0 129 103.5 204t275.5 75
q81 0 149.5 -18t124.5 -55t88 -102t31 -151h-119q-8 224 -270 224q-120 0 -191 -45.5t-71 -122.5q0 -23 7.5 -42t18.5 -32.5t33.5 -26t40.5 -20.5t53.5 -17t58.5 -14t68 -14q62 -13 101 -22t86.5 -23t75.5 -28t58 -35t45.5 -46t25.5 -58.5t10 -74.5q0 -152 -113 -238
t-291 -86z" />
    <glyph glyph-name="t" unicode="t" horiz-adv-x="657" 
d="M442 0q-111 0 -175 67.5t-64 190.5v643h-174v103h174v270h121v-270h276v-103h-276v-639q0 -151 127 -151h153v-111h-162z" />
    <glyph glyph-name="u" unicode="u" 
d="M950 0h-123v170q-106 -193 -335 -193q-55 0 -105 13t-96.5 44t-80.5 78t-54.5 120.5t-20.5 166.5v605h123v-603q0 -75 15 -132t38.5 -91.5t58.5 -55.5t70.5 -28.5t77.5 -7.5q126 0 217.5 98t91.5 254v566h123v-1004z" />
    <glyph glyph-name="v" unicode="v" horiz-adv-x="954" 
d="M25 1004h127l323 -891l324 891h129l-369 -1004h-168z" />
    <glyph glyph-name="w" unicode="w" horiz-adv-x="1429" 
d="M315 0l-278 1004h127l229 -885l246 885h152l247 -885l228 885h125l-277 -1004h-156l-241 891l-246 -891h-156z" />
    <glyph glyph-name="x" unicode="x" horiz-adv-x="964" 
d="M31 0l381 508l-371 496h143l299 -396l297 396h142l-369 -496l379 -508h-139l-310 410l-311 -410h-141z" />
    <glyph glyph-name="y" unicode="y" horiz-adv-x="974" 
d="M823 1004h133l-485 -1166q-24 -56 -39.5 -87.5t-41.5 -67t-55.5 -53t-75 -29t-105.5 -11.5h-72v115h70q60 0 94.5 13t57 42t48.5 90l78 187l-420 967h131l351 -826z" />
    <glyph glyph-name="z" unicode="z" horiz-adv-x="942" 
d="M63 111l666 782h-657v113l805 -2v-111l-660 -782h655v-111h-809v111z" />
    <glyph glyph-name="braceleft" unicode="{" horiz-adv-x="653" 
d="M481 1432q-50 0 -76 -5t-41.5 -24.5t-19.5 -46.5t-4 -80v-410q0 -105 -46 -154.5t-116 -54.5q70 -5 116 -54t46 -154v-404q0 -101 24 -130.5t117 -29.5h150v-96h-172q-117 0 -171.5 56.5t-54.5 179.5v395q0 42 -6 73.5t-19.5 50.5t-27.5 30.5t-38.5 16.5t-42.5 6t-50 1
v119q32 0 50 1t42.5 6t38.5 16.5t27.5 30.5t19.5 50.5t6 73.5v395q0 120 53.5 178t172.5 58h172v-94h-150z" />
    <glyph glyph-name="bar" unicode="|" horiz-adv-x="520" 
d="M205 1536h110v-1843h-110v1843z" />
    <glyph glyph-name="braceright" unicode="}" horiz-adv-x="624" 
d="M207 1432h-150v94h172q119 0 172.5 -58t53.5 -178v-395q0 -42 6 -73.5t19.5 -50.5t27.5 -30.5t38.5 -16.5t42.5 -6t50 -1v-119q-32 0 -50 -1t-42.5 -6t-38.5 -16.5t-27.5 -30.5t-19.5 -50.5t-6 -73.5v-395q0 -123 -54.5 -179.5t-171.5 -56.5h-172v96h150q93 0 117 29.5
t24 130.5v404q0 105 46 154t116 54q-70 5 -116 54.5t-46 154.5v410q0 53 -4 80t-19.5 46.5t-41.5 24.5t-76 5z" />
    <glyph glyph-name="exclamdown" unicode="&#xa1;" horiz-adv-x="430" 
d="M346 1124v-159h-164v159h164zM319 700l15 -757v-355h-131v355l14 757h102z" />
    <glyph glyph-name="cent" unicode="&#xa2;" 
d="M629 246q96 12 157.5 69.5t79.5 145.5h133q-30 -137 -127 -224t-243 -100v-137h-119v139q-188 23 -296 163t-108 347q0 209 108 349t296 163v131h119v-129q146 -13 242.5 -99.5t127.5 -225.5h-133q-19 89 -81 146t-156 69v-807zM231 649q0 -162 73.5 -270t205.5 -131v803
q-133 -23 -206 -130.5t-73 -271.5z" />
    <glyph glyph-name="sterling" unicode="&#xa3;" horiz-adv-x="1204" 
d="M139 0v119q108 67 158.5 140t50.5 173q0 51 -35 150h-172v108h121q-29 63 -45.5 104t-31.5 106t-15 126q0 180 127 300t338 120q195 0 326 -111t141 -305h-133q-38 303 -334 303q-156 0 -247 -89t-89 -218q0 -24 3 -48.5t6.5 -43.5t11.5 -44.5t13 -40t16.5 -42t16.5 -38
t19 -40.5t18 -39h553v-108h-510q24 -74 27 -158q3 -102 -47.5 -180.5t-124.5 -124.5h817v-119h-979z" />
    <glyph glyph-name="yen" unicode="&#xa5;" horiz-adv-x="1259" 
d="M1188 1423l-520 -833h372v-105h-395v-102h395v-104h-395v-279h-129v279h-334v104h334v102h-334v105h312l-521 833h142l467 -757l465 757h141z" />
    <glyph glyph-name="brokenbar" unicode="&#xa6;" horiz-adv-x="520" 
d="M205 1536h110v-737h-110v737zM205 430h110v-737h-110v737z" />
    <glyph glyph-name="dieresis" unicode="&#xa8;" horiz-adv-x="724" 
d="M49 1415h164v-160h-164v160zM414 1415h164v-160h-164v160z" />
    <glyph glyph-name="copyright" unicode="&#xa9;" horiz-adv-x="1734" 
d="M868 -80q-214 0 -396 106t-288 288.5t-106 396.5q0 160 62.5 306t168.5 251.5t252 168t307 62.5q128 0 248.5 -40t217.5 -113t170 -170t113 -217t40 -248q0 -161 -62.5 -307.5t-168.5 -252t-252 -168.5t-306 -63zM868 25q188 0 345.5 91t249 249t91.5 346
q0 187 -91.5 345t-249.5 249.5t-345 91.5q-188 0 -346.5 -91.5t-250 -249t-91.5 -345.5t91.5 -346t249.5 -249t347 -91zM870 240q-190 0 -312 135t-122 344q0 207 122 340t312 133q153 0 263.5 -94.5t130.5 -243.5h-125q-19 103 -92 164t-177 61q-141 0 -227 -100t-86 -266
q0 -161 86.5 -261t224.5 -100q108 0 182 60.5t89 162.5h125q-19 -152 -126.5 -243.5t-267.5 -91.5z" />
    <glyph glyph-name="guillemotleft" unicode="&#xab;" horiz-adv-x="1116" 
d="M473 195l-309 376l309 377h125l-311 -377l311 -376h-125zM827 195l-311 376l311 377h127l-311 -377l311 -376h-127z" />
    <glyph glyph-name="registered" unicode="&#xae;" horiz-adv-x="1734" 
d="M868 -80q-223 0 -404 102.5t-283.5 284t-102.5 404.5q0 222 102.5 402.5t283.5 283t404 102.5q222 0 403 -102.5t283.5 -283t102.5 -402.5q0 -167 -60.5 -314t-164.5 -251.5t-250.5 -165t-313.5 -60.5zM868 25q193 0 350 89.5t246.5 246.5t89.5 350t-89.5 350
t-246.5 246.5t-350 89.5q-194 0 -351.5 -89.5t-247 -246.5t-89.5 -350t89.5 -350t247 -246.5t351.5 -89.5zM555 291v852l369 2q136 0 210 -66t74 -188q0 -91 -44.5 -152t-127.5 -86l217 -362h-133l-202 346h-252v-346h-111zM666 741h258q176 0 176 150q0 151 -176 151h-258
v-301z" />
    <glyph glyph-name="macron" unicode="&#xaf;" horiz-adv-x="802" 
d="M80 1243v105h643v-105h-643z" />
    <glyph glyph-name="degree" unicode="&#xb0;" horiz-adv-x="577" 
d="M291 1079q-85 0 -145 60t-60 145t60 144t145 59t144 -59t59 -144t-60 -145t-143 -60zM291 1161q50 0 85.5 36t35.5 87q0 52 -35 87.5t-86 35.5q-52 0 -86.5 -35t-34.5 -88q0 -52 34.5 -87.5t86.5 -35.5z" />
    <glyph glyph-name="acute" unicode="&#xb4;" horiz-adv-x="538" 
d="M281 1206h-113l174 283h160z" />
    <glyph glyph-name="cedilla" unicode="&#xb8;" horiz-adv-x="651" 
d="M360 -467q-77 0 -140.5 34t-98.5 95l78 37q53 -82 161 -82q51 0 82 24.5t31 63.5q0 44 -30 68t-83 24q-51 0 -106 -30l-68 53l90 184h86l-67 -147q38 16 86 16q82 0 131 -45t49 -123q0 -76 -56 -124t-145 -48z" />
    <glyph glyph-name="guillemotright" unicode="&#xbb;" horiz-adv-x="1116" 
d="M162 195l311 376l-311 377h125l311 -377l-311 -376h-125zM516 195l311 376l-311 377h127l309 -377l-309 -376h-127z" />
    <glyph glyph-name="questiondown" unicode="&#xbf;" horiz-adv-x="968" 
d="M655 1006v-160h-161v160h161zM637 627q0 -67 -24 -122.5t-63 -94.5t-85.5 -74.5t-93 -70.5t-85.5 -73t-63 -91t-24 -117q0 -130 89 -221t242 -91q299 0 334 303h135q-10 -194 -142 -304.5t-327 -110.5q-211 0 -336.5 120t-125.5 300q0 76 25 138.5t64.5 105t87.5 79
t96 69.5t87.5 68t64.5 82.5t25 104.5h119z" />
    <glyph glyph-name="Agrave" unicode="&#xc0;" horiz-adv-x="1339" 
d="M623 1546l-222 283h160l174 -283h-112zM16 0l584 1423h139l584 -1423h-139l-174 451h-680l-174 -451h-140zM375 561h590l-295 733z" />
    <glyph glyph-name="Aacute" unicode="&#xc1;" horiz-adv-x="1339" 
d="M707 1524h-113l174 282h160zM16 0l584 1423h139l584 -1423h-139l-174 451h-680l-174 -451h-140zM375 561h590l-295 733z" />
    <glyph glyph-name="Acircumflex" unicode="&#xc2;" horiz-adv-x="1339" 
d="M594 1788h151l203 -266h-145l-133 192l-138 -192h-145zM16 0l584 1423h139l584 -1423h-139l-174 451h-680l-174 -451h-140zM375 561h590l-295 733z" />
    <glyph glyph-name="Atilde" unicode="&#xc3;" horiz-adv-x="1339" 
d="M367 1565q0 81 45 129.5t118 48.5q42 0 83.5 -21.5t68.5 -47.5t59.5 -47.5t59.5 -22.5q29 -1 46 21t17 61v43h103v-46q0 -79 -44.5 -128.5t-113.5 -49.5q-35 0 -67.5 14t-57.5 34.5t-48.5 41.5t-48 36t-46.5 16q-32 1 -52 -22t-20 -60v-43h-102v43zM16 0l584 1423h139
l584 -1423h-139l-174 451h-680l-174 -451h-140zM375 561h590l-295 733z" />
    <glyph glyph-name="Adieresis" unicode="&#xc4;" horiz-adv-x="1339" 
d="M403 1714h164v-160h-164v160zM768 1714h164v-160h-164v160zM16 0l584 1423h139l584 -1423h-139l-174 451h-680l-174 -451h-140zM375 561h590l-295 733z" />
    <glyph glyph-name="Aring" unicode="&#xc5;" horiz-adv-x="1339" 
d="M672 1503q-86 0 -147.5 61t-61.5 146t61.5 146t147.5 61q85 0 143.5 -60.5t58.5 -146.5q0 -85 -59 -146t-143 -61zM672 1597q46 0 78 33t32 80t-32 81t-78 34q-47 0 -80 -34t-33 -81t33 -80t80 -33zM16 0l584 1423h139l584 -1423h-139l-174 451h-680l-174 -451h-140z
M375 561h590l-295 733z" />
    <glyph glyph-name="AE" unicode="&#xc6;" horiz-adv-x="1961" 
d="M1870 1311h-862v-527h786v-114h-786v-555h862v-115h-989v451h-551l-174 -451h-140l584 1423h1270v-112zM375 561h506v750h-205z" />
    <glyph glyph-name="Ccedilla" unicode="&#xc7;" horiz-adv-x="1411" 
d="M741 96q106 0 195 32.5t148 88.5t96 126t49 149h131q-15 -103 -59 -192.5t-117 -161t-183 -114t-245 -44.5l-66 -144q40 17 86 17q82 0 131 -45t49 -123q0 -77 -55.5 -124.5t-144.5 -47.5q-77 0 -141 34t-99 95l78 36q52 -81 162 -81q50 0 81 24.5t31 63.5q0 44 -29.5 68
t-82.5 24q-50 0 -107 -31l-67 53l90 185q-180 16 -311.5 112.5t-200 256t-68.5 364.5q0 218 77 384t224.5 259.5t347.5 93.5q139 0 252.5 -42.5t188.5 -115.5t120 -165t58 -197h-131q-11 80 -47.5 151.5t-95.5 128.5t-148 90t-197 33q-159 0 -278.5 -80.5t-181.5 -220.5
t-62 -319t61.5 -319t181 -221t279.5 -81z" />
    <glyph glyph-name="Egrave" unicode="&#xc8;" horiz-adv-x="1251" 
d="M621 1546l-222 283h160l174 -283h-112zM170 1423h989v-112h-862v-527h786v-114h-786v-555h862v-115h-989v1423z" />
    <glyph glyph-name="Eacute" unicode="&#xc9;" horiz-adv-x="1251" 
d="M705 1524h-113l174 282h160zM170 1423h989v-112h-862v-527h786v-114h-786v-555h862v-115h-989v1423z" />
    <glyph glyph-name="Ecircumflex" unicode="&#xca;" horiz-adv-x="1251" 
d="M592 1788h151l203 -266h-145l-133 192l-138 -192h-145zM170 1423h989v-112h-862v-527h786v-114h-786v-555h862v-115h-989v1423z" />
    <glyph glyph-name="Edieresis" unicode="&#xcb;" horiz-adv-x="1251" 
d="M401 1714h164v-160h-164v160zM766 1714h164v-160h-164v160zM170 1423h989v-112h-862v-527h786v-114h-786v-555h862v-115h-989v1423z" />
    <glyph glyph-name="Igrave" unicode="&#xcc;" horiz-adv-x="464" 
d="M186 1546l-221 283h160l174 -283h-113zM170 1423h123v-1423h-123v1423z" />
    <glyph glyph-name="Iacute" unicode="&#xcd;" horiz-adv-x="464" 
d="M270 1524h-112l174 282h160zM170 1423h123v-1423h-123v1423z" />
    <glyph glyph-name="Icircumflex" unicode="&#xce;" horiz-adv-x="464" 
d="M158 1788h151l203 -266h-145l-134 192l-137 -192h-145zM170 1423h123v-1423h-123v1423z" />
    <glyph glyph-name="Idieresis" unicode="&#xcf;" horiz-adv-x="464" 
d="M-33 1714h164v-160h-164v160zM332 1714h164v-160h-164v160zM170 1423h123v-1423h-123v1423z" />
    <glyph glyph-name="Eth" unicode="&#xd0;" horiz-adv-x="1447" 
d="M688 1423q330 0 503 -178t173 -524q0 -336 -170 -528.5t-485 -192.5h-519v666h-182v110h182v647h498zM674 115q280 0 420.5 155t140.5 443q0 299 -136 447.5t-415 148.5h-369v-533h287v-110h-287v-551h359z" />
    <glyph glyph-name="Ntilde" unicode="&#xd1;" horiz-adv-x="1486" 
d="M426 1565q0 81 45.5 129.5t118.5 48.5q35 0 68 -14t58 -34.5t48.5 -40.5t48.5 -34.5t47 -15.5q29 -1 46.5 21.5t17.5 60.5v43h102v-46q0 -79 -44.5 -128.5t-113.5 -49.5q-35 0 -67.5 14t-57.5 34.5t-48.5 41.5t-48 36t-46.5 16q-32 1 -52 -22t-20 -60v-43h-102v43z
M293 1243v-1243h-123v1423h143l879 -1245v1243h123v-1421h-144z" />
    <glyph glyph-name="Ograve" unicode="&#xd2;" horiz-adv-x="1515" 
d="M711 1567l-222 282h160l174 -282h-112zM758 -20q-201 0 -355 93.5t-237.5 261t-83.5 382.5q0 214 83.5 381.5t238 261.5t354.5 94q202 0 356 -94t237 -261t83 -382q0 -214 -83.5 -381.5t-238 -261.5t-354.5 -94zM758 94q164 0 289 80.5t191.5 222t66.5 320.5
q0 278 -149.5 450t-397.5 172q-245 0 -396 -172.5t-151 -449.5q0 -180 68 -321.5t193 -221.5t286 -80z" />
    <glyph glyph-name="Oacute" unicode="&#xd3;" horiz-adv-x="1515" 
d="M795 1544h-113l174 283h160zM758 -20q-201 0 -355 93.5t-237.5 261t-83.5 382.5q0 214 83.5 381.5t238 261.5t354.5 94q202 0 356 -94t237 -261t83 -382q0 -214 -83.5 -381.5t-238 -261.5t-354.5 -94zM758 94q164 0 289 80.5t191.5 222t66.5 320.5q0 278 -149.5 450
t-397.5 172q-245 0 -396 -172.5t-151 -449.5q0 -180 68 -321.5t193 -221.5t286 -80z" />
    <glyph glyph-name="Ocircumflex" unicode="&#xd4;" horiz-adv-x="1515" 
d="M682 1808h152l202 -266h-145l-133 193l-137 -193h-146zM758 -20q-201 0 -355 93.5t-237.5 261t-83.5 382.5q0 214 83.5 381.5t238 261.5t354.5 94q202 0 356 -94t237 -261t83 -382q0 -214 -83.5 -381.5t-238 -261.5t-354.5 -94zM758 94q164 0 289 80.5t191.5 222
t66.5 320.5q0 278 -149.5 450t-397.5 172q-245 0 -396 -172.5t-151 -449.5q0 -180 68 -321.5t193 -221.5t286 -80z" />
    <glyph glyph-name="Otilde" unicode="&#xd5;" horiz-adv-x="1515" 
d="M455 1585q0 81 45 129.5t118 48.5q42 0 83.5 -21.5t68.5 -47.5t59.5 -47.5t59.5 -22.5q29 -1 46 21t17 61v43h103v-45q0 -79 -44.5 -128.5t-113.5 -49.5q-42 0 -83 21.5t-67.5 47.5t-58.5 48.5t-59 23.5q-32 1 -52 -22t-20 -60v-43h-102v43zM758 -20q-201 0 -355 93.5
t-237.5 261t-83.5 382.5q0 214 83.5 381.5t238 261.5t354.5 94q202 0 356 -94t237 -261t83 -382q0 -214 -83.5 -381.5t-238 -261.5t-354.5 -94zM758 94q164 0 289 80.5t191.5 222t66.5 320.5q0 278 -149.5 450t-397.5 172q-245 0 -396 -172.5t-151 -449.5q0 -180 68 -321.5
t193 -221.5t286 -80z" />
    <glyph glyph-name="Odieresis" unicode="&#xd6;" horiz-adv-x="1515" 
d="M492 1735h163v-160h-163v160zM856 1735h164v-160h-164v160zM758 -20q-201 0 -355 93.5t-237.5 261t-83.5 382.5q0 214 83.5 381.5t238 261.5t354.5 94q202 0 356 -94t237 -261t83 -382q0 -214 -83.5 -381.5t-238 -261.5t-354.5 -94zM758 94q164 0 289 80.5t191.5 222
t66.5 320.5q0 278 -149.5 450t-397.5 172q-245 0 -396 -172.5t-151 -449.5q0 -180 68 -321.5t193 -221.5t286 -80z" />
    <glyph glyph-name="multiply" unicode="&#xd7;" horiz-adv-x="1382" 
d="M283 147l-80 82l405 406l-405 409l80 82l407 -409l408 409l80 -82l-408 -409l408 -406l-80 -82l-408 408z" />
    <glyph glyph-name="Oslash" unicode="&#xd8;" horiz-adv-x="1515" 
d="M1229 1270q99 -99 152 -241.5t53 -311.5q0 -214 -83.5 -381.5t-238 -261.5t-354.5 -94q-239 0 -406 126l-80 -106h-147l141 186q-184 206 -184 531q0 214 83.5 381.5t238 261.5t354.5 94q221 0 381 -111l61 80h146zM211 717q0 -253 133 -426l723 956q-134 92 -309 92
q-245 0 -396 -172.5t-151 -449.5zM758 94q164 0 289 80.5t191.5 222t66.5 320.5q0 276 -152 452l-725 -962q138 -113 330 -113z" />
    <glyph glyph-name="Ugrave" unicode="&#xd9;" horiz-adv-x="1392" 
d="M649 1546l-221 283h160l174 -283h-113zM696 -16q-272 0 -418.5 146t-146.5 431v862h127v-862q0 -228 118.5 -345.5t319.5 -117.5t319 117.5t118 345.5v862h127v-862q0 -285 -146 -431t-418 -146z" />
    <glyph glyph-name="Uacute" unicode="&#xda;" horiz-adv-x="1392" 
d="M733 1524h-112l174 282h159zM696 -16q-272 0 -418.5 146t-146.5 431v862h127v-862q0 -228 118.5 -345.5t319.5 -117.5t319 117.5t118 345.5v862h127v-862q0 -285 -146 -431t-418 -146z" />
    <glyph glyph-name="Ucircumflex" unicode="&#xdb;" horiz-adv-x="1392" 
d="M621 1788h151l203 -266h-146l-133 192l-137 -192h-145zM696 -16q-272 0 -418.5 146t-146.5 431v862h127v-862q0 -228 118.5 -345.5t319.5 -117.5t319 117.5t118 345.5v862h127v-862q0 -285 -146 -431t-418 -146z" />
    <glyph glyph-name="Udieresis" unicode="&#xdc;" horiz-adv-x="1392" 
d="M430 1714h164v-160h-164v160zM795 1714h163v-160h-163v160zM696 -16q-272 0 -418.5 146t-146.5 431v862h127v-862q0 -228 118.5 -345.5t319.5 -117.5t319 117.5t118 345.5v862h127v-862q0 -285 -146 -431t-418 -146z" />
    <glyph glyph-name="Yacute" unicode="&#xdd;" horiz-adv-x="1185" 
d="M631 1524h-113l174 282h160zM530 555l-544 868h141l467 -753l467 753h141l-545 -868v-555h-127v555z" />
    <glyph glyph-name="Thorn" unicode="&#xde;" horiz-adv-x="1257" 
d="M170 1423h125v-233l444 2q223 1 344 -109t121 -311q0 -203 -125.5 -323.5t-351.5 -120.5h-432v-328h-125v1423zM737 440q164 0 253 88t89 244q0 153 -87.5 231t-254.5 78h-442v-641h442z" />
    <glyph glyph-name="germandbls" unicode="&#xdf;" horiz-adv-x="1155" 
d="M780 766q145 -35 221 -125.5t76 -230.5q0 -185 -127 -297.5t-329 -112.5h-177v111h172q151 0 245.5 83t94.5 220q0 144 -104.5 218.5t-306.5 74.5h-35v102h29q181 0 274.5 70.5t93.5 205.5q0 114 -85 182t-220 68q-160 0 -244 -85t-84 -234v-1016h-124v1016
q0 200 121.5 315t342.5 115q184 0 300 -96t116 -258q0 -120 -63.5 -203t-186.5 -123z" />
    <glyph glyph-name="agrave" unicode="&#xe0;" horiz-adv-x="1005" 
d="M465 1147l-221 283h159l175 -283h-113zM426 -20q-165 0 -265 86t-100 227q0 57 17 103t44 77.5t69.5 56t83.5 39t96 25t97 14.5t97 8l221 15v61q0 105 -68.5 168.5t-205.5 63.5q-131 0 -199.5 -56.5t-81.5 -150.5h-127q18 142 120.5 224.5t287.5 82.5q188 0 290.5 -89.5
t102.5 -262.5v-459q0 -93 13 -213h-125q-7 89 -7 172q-42 -85 -136 -138.5t-224 -53.5zM432 84q46 0 91.5 10.5t92 36.5t82 64t59.5 98.5t27 134.5l4 98l-188 -10q-63 -3 -114 -9.5t-109.5 -22t-98 -38.5t-66 -62.5t-26.5 -90.5q0 -90 67 -149.5t179 -59.5z" />
    <glyph glyph-name="aacute" unicode="&#xe1;" horiz-adv-x="1005" 
d="M549 1124h-113l174 283h160zM426 -20q-165 0 -265 86t-100 227q0 57 17 103t44 77.5t69.5 56t83.5 39t96 25t97 14.5t97 8l221 15v61q0 105 -68.5 168.5t-205.5 63.5q-131 0 -199.5 -56.5t-81.5 -150.5h-127q18 142 120.5 224.5t287.5 82.5q188 0 290.5 -89.5
t102.5 -262.5v-459q0 -93 13 -213h-125q-7 89 -7 172q-42 -85 -136 -138.5t-224 -53.5zM432 84q46 0 91.5 10.5t92 36.5t82 64t59.5 98.5t27 134.5l4 98l-188 -10q-63 -3 -114 -9.5t-109.5 -22t-98 -38.5t-66 -62.5t-26.5 -90.5q0 -90 67 -149.5t179 -59.5z" />
    <glyph glyph-name="acircumflex" unicode="&#xe2;" horiz-adv-x="1005" 
d="M436 1389h152l203 -267h-146l-133 193l-137 -193h-146zM426 -20q-165 0 -265 86t-100 227q0 57 17 103t44 77.5t69.5 56t83.5 39t96 25t97 14.5t97 8l221 15v61q0 105 -68.5 168.5t-205.5 63.5q-131 0 -199.5 -56.5t-81.5 -150.5h-127q18 142 120.5 224.5t287.5 82.5
q188 0 290.5 -89.5t102.5 -262.5v-459q0 -93 13 -213h-125q-7 89 -7 172q-42 -85 -136 -138.5t-224 -53.5zM432 84q46 0 91.5 10.5t92 36.5t82 64t59.5 98.5t27 134.5l4 98l-188 -10q-63 -3 -114 -9.5t-109.5 -22t-98 -38.5t-66 -62.5t-26.5 -90.5q0 -90 67 -149.5
t179 -59.5z" />
    <glyph glyph-name="atilde" unicode="&#xe3;" horiz-adv-x="1005" 
d="M209 1165q0 81 45.5 129.5t118.5 48.5q35 0 68 -14t58 -34.5t48.5 -40.5t48.5 -34.5t47 -15.5q29 -1 46.5 21.5t17.5 60.5v43h102v-45q0 -79 -44.5 -128.5t-113.5 -49.5q-42 0 -83 21.5t-67.5 47.5t-58.5 48.5t-59 23.5q-32 1 -52 -22t-20 -60v-43h-102v43zM426 -20
q-165 0 -265 86t-100 227q0 57 17 103t44 77.5t69.5 56t83.5 39t96 25t97 14.5t97 8l221 15v61q0 105 -68.5 168.5t-205.5 63.5q-131 0 -199.5 -56.5t-81.5 -150.5h-127q18 142 120.5 224.5t287.5 82.5q188 0 290.5 -89.5t102.5 -262.5v-459q0 -93 13 -213h-125
q-7 89 -7 172q-42 -85 -136 -138.5t-224 -53.5zM432 84q46 0 91.5 10.5t92 36.5t82 64t59.5 98.5t27 134.5l4 98l-188 -10q-63 -3 -114 -9.5t-109.5 -22t-98 -38.5t-66 -62.5t-26.5 -90.5q0 -90 67 -149.5t179 -59.5z" />
    <glyph glyph-name="adieresis" unicode="&#xe4;" horiz-adv-x="1005" 
d="M246 1315h164v-160h-164v160zM610 1315h164v-160h-164v160zM426 -20q-165 0 -265 86t-100 227q0 57 17 103t44 77.5t69.5 56t83.5 39t96 25t97 14.5t97 8l221 15v61q0 105 -68.5 168.5t-205.5 63.5q-131 0 -199.5 -56.5t-81.5 -150.5h-127q18 142 120.5 224.5t287.5 82.5
q188 0 290.5 -89.5t102.5 -262.5v-459q0 -93 13 -213h-125q-7 89 -7 172q-42 -85 -136 -138.5t-224 -53.5zM432 84q46 0 91.5 10.5t92 36.5t82 64t59.5 98.5t27 134.5l4 98l-188 -10q-63 -3 -114 -9.5t-109.5 -22t-98 -38.5t-66 -62.5t-26.5 -90.5q0 -90 67 -149.5
t179 -59.5z" />
    <glyph glyph-name="aring" unicode="&#xe5;" horiz-adv-x="1005" 
d="M514 1104q-86 0 -147.5 61t-61.5 146t61.5 146t147.5 61q85 0 144 -60.5t59 -146.5q0 -85 -59.5 -146t-143.5 -61zM514 1198q46 0 78.5 33t32.5 80t-32.5 80.5t-78.5 33.5q-47 0 -80 -33.5t-33 -80.5t33 -80t80 -33zM426 -20q-165 0 -265 86t-100 227q0 57 17 103
t44 77.5t69.5 56t83.5 39t96 25t97 14.5t97 8l221 15v61q0 105 -68.5 168.5t-205.5 63.5q-131 0 -199.5 -56.5t-81.5 -150.5h-127q18 142 120.5 224.5t287.5 82.5q188 0 290.5 -89.5t102.5 -262.5v-459q0 -93 13 -213h-125q-7 89 -7 172q-42 -85 -136 -138.5t-224 -53.5z
M432 84q46 0 91.5 10.5t92 36.5t82 64t59.5 98.5t27 134.5l4 98l-188 -10q-63 -3 -114 -9.5t-109.5 -22t-98 -38.5t-66 -62.5t-26.5 -90.5q0 -90 67 -149.5t179 -59.5z" />
    <glyph glyph-name="ae" unicode="&#xe6;" horiz-adv-x="1783" 
d="M1700 504v-43h-782q8 -167 93 -267t236 -100q118 0 199.5 54.5t105.5 158.5h127q-34 -158 -146.5 -237.5t-283.5 -79.5q-141 0 -242.5 62.5t-158.5 174.5q-52 -114 -157 -180.5t-255 -66.5q-169 0 -272 86t-103 227q0 57 17.5 103t44 77t69.5 55.5t82.5 38.5t96.5 24
t97 14.5t97 8.5l221 17v61q0 103 -71.5 167.5t-202.5 64.5q-125 0 -196.5 -57t-84.5 -150h-127q18 141 123 224t285 83q133 0 228 -48t137 -142q124 186 370 186q212 0 332.5 -143t120.5 -373zM915 563h658q-12 161 -97 255.5t-229 94.5q-151 0 -235.5 -94.5t-96.5 -255.5z
M436 84q46 0 91 10.5t91 36.5t81 64t58.5 98.5t26.5 134.5l4 98l-188 -10q-63 -3 -114 -9.5t-109.5 -22t-98 -38.5t-66 -62.5t-26.5 -90.5q0 -90 69 -149.5t181 -59.5z" />
    <glyph glyph-name="ccedilla" unicode="&#xe7;" horiz-adv-x="1048" 
d="M543 96q122 0 199 68t100 174h131q-27 -148 -138 -245t-278 -101l-65 -144q40 17 86 17q82 0 131 -45t49 -123q0 -76 -56 -124t-145 -48q-77 0 -141 34t-99 95l78 37q53 -82 162 -82q51 0 82 24.5t31 63.5q0 44 -30 68t-83 24q-49 0 -106 -31l-68 54l90 184h2
q-187 23 -293 162.5t-106 347.5q0 228 125 371t342 143q173 0 287 -97.5t143 -250.5h-131q-25 106 -102 173.5t-197 67.5q-163 0 -252.5 -111t-89.5 -296q0 -183 90.5 -296.5t251.5 -113.5z" />
    <glyph glyph-name="egrave" unicode="&#xe8;" horiz-adv-x="1071" 
d="M487 1143l-221 282h160l174 -282h-113zM987 461h-782q8 -166 93.5 -266.5t236.5 -100.5q118 0 199.5 54.5t105.5 158.5h127q-34 -158 -146.5 -237.5t-283.5 -79.5q-217 0 -339 144t-122 372q0 229 121.5 371.5t337.5 142.5q212 0 332 -143t120 -373v-43zM535 913
q-151 0 -235.5 -94.5t-96.5 -255.5h657q-12 161 -96.5 255.5t-228.5 94.5z" />
    <glyph glyph-name="eacute" unicode="&#xe9;" horiz-adv-x="1071" 
d="M571 1120h-112l174 283h160zM987 461h-782q8 -166 93.5 -266.5t236.5 -100.5q118 0 199.5 54.5t105.5 158.5h127q-34 -158 -146.5 -237.5t-283.5 -79.5q-217 0 -339 144t-122 372q0 229 121.5 371.5t337.5 142.5q212 0 332 -143t120 -373v-43zM535 913
q-151 0 -235.5 -94.5t-96.5 -255.5h657q-12 161 -96.5 255.5t-228.5 94.5z" />
    <glyph glyph-name="ecircumflex" unicode="&#xea;" horiz-adv-x="1071" 
d="M459 1384h151l203 -266h-145l-133 193l-138 -193h-145zM987 461h-782q8 -166 93.5 -266.5t236.5 -100.5q118 0 199.5 54.5t105.5 158.5h127q-34 -158 -146.5 -237.5t-283.5 -79.5q-217 0 -339 144t-122 372q0 229 121.5 371.5t337.5 142.5q212 0 332 -143t120 -373v-43z
M535 913q-151 0 -235.5 -94.5t-96.5 -255.5h657q-12 161 -96.5 255.5t-228.5 94.5z" />
    <glyph glyph-name="edieresis" unicode="&#xeb;" horiz-adv-x="1071" 
d="M268 1311h164v-160h-164v160zM633 1311h164v-160h-164v160zM987 461h-782q8 -166 93.5 -266.5t236.5 -100.5q118 0 199.5 54.5t105.5 158.5h127q-34 -158 -146.5 -237.5t-283.5 -79.5q-217 0 -339 144t-122 372q0 229 121.5 371.5t337.5 142.5q212 0 332 -143t120 -373
v-43zM535 913q-151 0 -235.5 -94.5t-96.5 -255.5h657q-12 161 -96.5 255.5t-228.5 94.5z" />
    <glyph glyph-name="igrave" unicode="&#xec;" horiz-adv-x="378" 
d="M164 1126l-221 283h159l174 -283h-112zM150 1004h122v-1004h-122v1004z" />
    <glyph glyph-name="iacute" unicode="&#xed;" horiz-adv-x="358" 
d="M186 1104h-112l174 282h160zM88 1004h123v-1004h-123v1004z" />
    <glyph glyph-name="icircumflex" unicode="&#xee;" horiz-adv-x="419" 
d="M135 1368h152l202 -266h-145l-133 192l-137 -192h-146zM150 1004h122v-1004h-122v1004z" />
    <glyph glyph-name="idieresis" unicode="&#xef;" horiz-adv-x="419" 
d="M-55 1294h164v-159h-164v159zM309 1294h164v-159h-164v159zM150 1004h122v-1004h-122v1004z" />
    <glyph glyph-name="eth" unicode="&#xf0;" horiz-adv-x="1101" 
d="M1122 1243v-96h-170v-1147h-123v170q-52 -91 -142 -142t-206 -51q-196 0 -320 140t-124 385t124 384.5t320 139.5q117 0 206.5 -50.5t141.5 -141.5v313h-186v96h186v180h123v-180h170zM502 96q153 0 244.5 114t91.5 292t-91.5 293.5t-244.5 115.5q-152 0 -243 -112
t-91 -297q0 -183 91 -294.5t243 -111.5z" />
    <glyph glyph-name="ntilde" unicode="&#xf1;" 
d="M276 1163q0 81 45.5 129.5t118.5 48.5q42 0 83.5 -21.5t68.5 -47.5t59.5 -47.5t59.5 -22.5q29 -1 46 21t17 61v43h103v-45q0 -79 -44.5 -128.5t-113.5 -49.5q-42 0 -83 21.5t-67.5 47.5t-58.5 48.5t-59 23.5q-32 1 -52 -22t-20 -60v-43h-103v43zM150 1004h122v-170
q106 192 336 192q55 0 105 -13t96.5 -44t80.5 -78t54.5 -120.5t20.5 -166.5v-604h-123v602q0 75 -15 132.5t-38.5 91.5t-58.5 55.5t-70.5 29t-77.5 7.5q-126 0 -218 -98.5t-92 -254.5v-565h-122v1004z" />
    <glyph glyph-name="ograve" unicode="&#xf2;" horiz-adv-x="1091" 
d="M500 1143l-221 282h159l174 -282h-112zM547 -8q-213 0 -342 142t-129 372t129 372t342 142t341 -142t128 -372t-128 -372t-341 -142zM547 96q160 0 252 110t92 296q0 189 -93 300t-251 111q-159 0 -252.5 -110.5t-93.5 -296.5t94.5 -298t251.5 -112z" />
    <glyph glyph-name="oacute" unicode="&#xf3;" horiz-adv-x="1091" 
d="M584 1120h-113l174 283h160zM547 -8q-213 0 -342 142t-129 372t129 372t342 142t341 -142t128 -372t-128 -372t-341 -142zM547 96q160 0 252 110t92 296q0 189 -93 300t-251 111q-159 0 -252.5 -110.5t-93.5 -296.5t94.5 -298t251.5 -112z" />
    <glyph glyph-name="ocircumflex" unicode="&#xf4;" horiz-adv-x="1091" 
d="M471 1384h152l202 -266h-145l-133 193l-137 -193h-146zM547 -8q-213 0 -342 142t-129 372t129 372t342 142t341 -142t128 -372t-128 -372t-341 -142zM547 96q160 0 252 110t92 296q0 189 -93 300t-251 111q-159 0 -252.5 -110.5t-93.5 -296.5t94.5 -298t251.5 -112z" />
    <glyph glyph-name="otilde" unicode="&#xf5;" horiz-adv-x="1091" 
d="M244 1161q0 81 45.5 129.5t118.5 48.5q35 0 68 -14t58 -34.5t48.5 -40.5t48.5 -34.5t47 -15.5q29 -1 46 21t17 61v43h103v-45q0 -79 -44.5 -128.5t-113.5 -49.5q-42 0 -83 21.5t-67.5 47.5t-58.5 48.5t-59 23.5q-32 1 -52 -22t-20 -60v-43h-102v43zM547 -8
q-213 0 -342 142t-129 372t129 372t342 142t341 -142t128 -372t-128 -372t-341 -142zM547 96q160 0 252 110t92 296q0 189 -93 300t-251 111q-159 0 -252.5 -110.5t-93.5 -296.5t94.5 -298t251.5 -112z" />
    <glyph glyph-name="odieresis" unicode="&#xf6;" horiz-adv-x="1091" 
d="M281 1311h163v-160h-163v160zM645 1311h164v-160h-164v160zM547 -8q-213 0 -342 142t-129 372t129 372t342 142t341 -142t128 -372t-128 -372t-341 -142zM547 96q160 0 252 110t92 296q0 189 -93 300t-251 111q-159 0 -252.5 -110.5t-93.5 -296.5t94.5 -298t251.5 -112z
" />
    <glyph glyph-name="divide" unicode="&#xf7;" horiz-adv-x="1382" 
d="M623 1165h161v-159h-161v159zM164 678v113h1055v-113h-1055zM623 422h161v-160h-161v160z" />
    <glyph glyph-name="oslash" unicode="&#xf8;" horiz-adv-x="1091" 
d="M889 874q127 -139 127 -368q0 -230 -128 -372t-341 -142q-146 0 -260 71l-47 -63h-134l99 133q-129 142 -129 373q0 230 129 372t342 142q149 0 262 -74l43 58h133zM201 506q0 -164 78 -275l462 623q-80 59 -194 59q-159 0 -252.5 -110.5t-93.5 -296.5zM547 96
q160 0 252 110t92 296q0 164 -74 274l-463 -622q83 -58 193 -58z" />
    <glyph glyph-name="ugrave" unicode="&#xf9;" 
d="M504 1126l-221 283h159l174 -283h-112zM950 0h-123v170q-106 -193 -335 -193q-55 0 -105 13t-96.5 44t-80.5 78t-54.5 120.5t-20.5 166.5v605h123v-603q0 -75 15 -132t38.5 -91.5t58.5 -55.5t70.5 -28.5t77.5 -7.5q126 0 217.5 98t91.5 254v566h123v-1004z" />
    <glyph glyph-name="uacute" unicode="&#xfa;" 
d="M588 1104h-113l174 282h160zM950 0h-123v170q-106 -193 -335 -193q-55 0 -105 13t-96.5 44t-80.5 78t-54.5 120.5t-20.5 166.5v605h123v-603q0 -75 15 -132t38.5 -91.5t58.5 -55.5t70.5 -28.5t77.5 -7.5q126 0 217.5 98t91.5 254v566h123v-1004z" />
    <glyph glyph-name="ucircumflex" unicode="&#xfb;" 
d="M475 1368h152l202 -266h-145l-133 192l-137 -192h-146zM950 0h-123v170q-106 -193 -335 -193q-55 0 -105 13t-96.5 44t-80.5 78t-54.5 120.5t-20.5 166.5v605h123v-603q0 -75 15 -132t38.5 -91.5t58.5 -55.5t70.5 -28.5t77.5 -7.5q126 0 217.5 98t91.5 254v566h123v-1004
z" />
    <glyph glyph-name="udieresis" unicode="&#xfc;" 
d="M285 1294h164v-159h-164v159zM649 1294h164v-159h-164v159zM950 0h-123v170q-106 -193 -335 -193q-55 0 -105 13t-96.5 44t-80.5 78t-54.5 120.5t-20.5 166.5v605h123v-603q0 -75 15 -132t38.5 -91.5t58.5 -55.5t70.5 -28.5t77.5 -7.5q126 0 217.5 98t91.5 254v566h123
v-1004z" />
    <glyph glyph-name="yacute" unicode="&#xfd;" horiz-adv-x="974" 
d="M524 1104h-112l174 282h159zM823 1004h133l-485 -1166q-24 -56 -39.5 -87.5t-41.5 -67t-55.5 -53t-75 -29t-105.5 -11.5h-72v115h70q60 0 94.5 13t57 42t48.5 90l78 187l-420 967h131l351 -826z" />
    <glyph glyph-name="thorn" unicode="&#xfe;" horiz-adv-x="1142" 
d="M621 1026q196 0 320 -139.5t124 -384.5t-124 -385t-320 -140q-117 0 -207 51t-142 142v-590h-122v1778h122v-524q52 91 142 141.5t207 50.5zM600 92q152 0 243 112.5t91 297.5q0 183 -91 294t-243 111q-153 0 -244.5 -113.5t-91.5 -291.5t92 -294t244 -116z" />
    <glyph glyph-name="ydieresis" unicode="&#xff;" horiz-adv-x="974" 
d="M221 1294h164v-159h-164v159zM586 1294h164v-159h-164v159zM823 1004h133l-485 -1166q-24 -56 -39.5 -87.5t-41.5 -67t-55.5 -53t-75 -29t-105.5 -11.5h-72v115h70q60 0 94.5 13t57 42t48.5 90l78 187l-420 967h131l351 -826z" />
    <glyph glyph-name="Amacron" unicode="&#x100;" horiz-adv-x="1339" 
d="M348 1524v104h643v-104h-643zM16 0l584 1423h139l584 -1423h-139l-174 451h-680l-174 -451h-140zM375 561h590l-295 733z" />
    <glyph glyph-name="amacron" unicode="&#x101;" horiz-adv-x="1005" 
d="M190 1124v105h644v-105h-644zM426 -20q-165 0 -265 86t-100 227q0 57 17 103t44 77.5t69.5 56t83.5 39t96 25t97 14.5t97 8l221 15v61q0 105 -68.5 168.5t-205.5 63.5q-131 0 -199.5 -56.5t-81.5 -150.5h-127q18 142 120.5 224.5t287.5 82.5q188 0 290.5 -89.5
t102.5 -262.5v-459q0 -93 13 -213h-125q-7 89 -7 172q-42 -85 -136 -138.5t-224 -53.5zM432 84q46 0 91.5 10.5t92 36.5t82 64t59.5 98.5t27 134.5l4 98l-188 -10q-63 -3 -114 -9.5t-109.5 -22t-98 -38.5t-66 -62.5t-26.5 -90.5q0 -90 67 -149.5t179 -59.5z" />
    <glyph glyph-name="Abreve" unicode="&#x102;" horiz-adv-x="1339" 
d="M385 1782v16h107v-16q0 -90 41.5 -134t134.5 -44t134.5 44.5t41.5 133.5v16h104v-16q0 -132 -71 -201.5t-209 -69.5q-139 0 -211 70t-72 201zM16 0l584 1423h139l584 -1423h-139l-174 451h-680l-174 -451h-140zM375 561h590l-295 733z" />
    <glyph glyph-name="abreve" unicode="&#x103;" horiz-adv-x="1005" 
d="M227 1382v17h107v-17q0 -90 41.5 -134t134.5 -44t134.5 44.5t41.5 133.5v17h105v-17q0 -131 -71 -200.5t-210 -69.5t-211 69.5t-72 200.5zM426 -20q-165 0 -265 86t-100 227q0 57 17 103t44 77.5t69.5 56t83.5 39t96 25t97 14.5t97 8l221 15v61q0 105 -68.5 168.5
t-205.5 63.5q-131 0 -199.5 -56.5t-81.5 -150.5h-127q18 142 120.5 224.5t287.5 82.5q188 0 290.5 -89.5t102.5 -262.5v-459q0 -93 13 -213h-125q-7 89 -7 172q-42 -85 -136 -138.5t-224 -53.5zM432 84q46 0 91.5 10.5t92 36.5t82 64t59.5 98.5t27 134.5l4 98l-188 -10
q-63 -3 -114 -9.5t-109.5 -22t-98 -38.5t-66 -62.5t-26.5 -90.5q0 -90 67 -149.5t179 -59.5z" />
    <glyph glyph-name="Aogonek" unicode="&#x104;" horiz-adv-x="1339" 
d="M1102 -250q0 -31 24 -49t68 -18q51 0 127 26v-94q-86 -27 -154 -27q-81 2 -128.5 41.5t-47.5 108.5q0 61 52 129.5t141 132.5l-174 451h-680l-174 -451h-140l584 1423h139l584 -1423q-105 -66 -163 -132.5t-58 -117.5zM375 561h590l-295 733z" />
    <glyph glyph-name="aogonek" unicode="&#x105;" horiz-adv-x="1044" 
d="M805 -311q51 0 127 26v-94q-86 -27 -154 -27q-81 2 -128.5 41.5t-47.5 108.5q0 59 52 127.5t139 132.5q-7 86 -7 168q-42 -85 -136 -138.5t-224 -53.5q-165 0 -265 86t-100 227q0 57 17 103t44 77.5t69.5 56t83.5 39t96 25t97 14.5t97 8l221 15v61q0 105 -68.5 168.5
t-205.5 63.5q-131 0 -199.5 -56.5t-81.5 -150.5h-127q18 142 120.5 224.5t287.5 82.5q188 0 290.5 -89.5t102.5 -262.5v-459q0 -93 13 -213h-3q-202 -148 -202 -244q0 -31 24 -49t68 -18zM784 428l4 98l-188 -10q-63 -3 -114 -9.5t-109.5 -22t-98 -38.5t-66 -62.5
t-26.5 -90.5q0 -90 67 -149.5t179 -59.5q46 0 91.5 10.5t92 36.5t82 64t59.5 98.5t27 134.5z" />
    <glyph glyph-name="Cacute" unicode="&#x106;" horiz-adv-x="1411" 
d="M778 1554h-112l174 283h159zM92 717q0 218 77 384t224.5 259.5t347.5 93.5q139 0 252.5 -42.5t188.5 -115.5t120 -165t58 -197h-131q-11 80 -47.5 151.5t-95.5 128.5t-148 90t-197 33q-159 0 -278.5 -80.5t-181.5 -220.5t-62 -319t61.5 -319t181 -221t279.5 -81
q106 0 195 32.5t148 88.5t96 126t49 149h131q-15 -105 -60 -195.5t-119.5 -162t-187.5 -113t-252 -41.5q-200 0 -347.5 93.5t-224.5 259.5t-77 384z" />
    <glyph glyph-name="cacute" unicode="&#x107;" horiz-adv-x="1048" 
d="M561 1104h-112l174 282h159zM973 338q-27 -152 -142 -249t-288 -97q-144 0 -251 67t-161.5 183t-54.5 264q0 228 125 371t342 143q173 0 287 -97.5t143 -250.5h-131q-25 106 -102 173.5t-197 67.5q-163 0 -252.5 -111t-89.5 -296q0 -183 90.5 -296.5t251.5 -113.5
q122 0 199 68t100 174h131z" />
    <glyph glyph-name="Ccaron" unicode="&#x10c;" horiz-adv-x="1411" 
d="M666 1561l-203 266h145l133 -193l138 193h145l-207 -266h-151zM92 717q0 218 77 384t224.5 259.5t347.5 93.5q139 0 252.5 -42.5t188.5 -115.5t120 -165t58 -197h-131q-11 80 -47.5 151.5t-95.5 128.5t-148 90t-197 33q-159 0 -278.5 -80.5t-181.5 -220.5t-62 -319
t61.5 -319t181 -221t279.5 -81q106 0 195 32.5t148 88.5t96 126t49 149h131q-15 -105 -60 -195.5t-119.5 -162t-187.5 -113t-252 -41.5q-200 0 -347.5 93.5t-224.5 259.5t-77 384z" />
    <glyph glyph-name="ccaron" unicode="&#x10d;" horiz-adv-x="1048" 
d="M449 1110l-203 266h145l133 -192l138 192h145l-207 -266h-151zM973 338q-27 -152 -142 -249t-288 -97q-144 0 -251 67t-161.5 183t-54.5 264q0 228 125 371t342 143q173 0 287 -97.5t143 -250.5h-131q-25 106 -102 173.5t-197 67.5q-163 0 -252.5 -111t-89.5 -296
q0 -183 90.5 -296.5t251.5 -113.5q122 0 199 68t100 174h131z" />
    <glyph glyph-name="Dcaron" unicode="&#x10e;" horiz-adv-x="1427" 
d="M571 1530l-202 266h145l133 -192l137 192h146l-207 -266h-152zM170 1423h498q330 0 502.5 -178t172.5 -524q0 -336 -170 -528.5t-485 -192.5h-518v1423zM653 115q280 0 420.5 155t140.5 443q0 299 -135.5 447.5t-414.5 148.5h-369v-1194h358z" />
    <glyph glyph-name="dcaron" unicode="&#x10f;" horiz-adv-x="1142" 
d="M414 1159l-203 266h145l133 -192l138 192h145l-207 -266h-151zM522 -23q-196 0 -320 140t-124 385t124 384.5t320 139.5q117 0 206.5 -50.5t141.5 -141.5v589h123v-1423h-123v170q-52 -91 -142 -142t-206 -51zM543 96q153 0 244.5 114t91.5 292t-91.5 293.5t-244.5 115.5
q-152 0 -243 -112t-91 -297q0 -183 91 -294.5t243 -111.5z" />
    <glyph glyph-name="Dcroat" unicode="&#x110;" horiz-adv-x="1447" 
d="M688 1423q330 0 503 -178t173 -524q0 -336 -170 -528.5t-485 -192.5h-519v666h-182v110h182v647h498zM674 115q280 0 420.5 155t140.5 443q0 299 -136 447.5t-415 148.5h-369v-533h287v-110h-287v-551h359z" />
    <glyph glyph-name="dcroat" unicode="&#x111;" horiz-adv-x="1101" 
d="M1122 1243v-96h-170v-1147h-123v170q-52 -91 -142 -142t-206 -51q-196 0 -320 140t-124 385t124 384.5t320 139.5q117 0 206.5 -50.5t141.5 -141.5v313h-186v96h186v180h123v-180h170zM502 96q153 0 244.5 114t91.5 292t-91.5 293.5t-244.5 115.5q-152 0 -243 -112
t-91 -297q0 -183 91 -294.5t243 -111.5z" />
    <glyph glyph-name="Emacron" unicode="&#x112;" horiz-adv-x="1251" 
d="M346 1524v104h643v-104h-643zM170 1423h989v-112h-862v-527h786v-114h-786v-555h862v-115h-989v1423z" />
    <glyph glyph-name="emacron" unicode="&#x113;" horiz-adv-x="1071" 
d="M213 1120v105h643v-105h-643zM987 461h-782q8 -166 93.5 -266.5t236.5 -100.5q118 0 199.5 54.5t105.5 158.5h127q-34 -158 -146.5 -237.5t-283.5 -79.5q-217 0 -339 144t-122 372q0 229 121.5 371.5t337.5 142.5q212 0 332 -143t120 -373v-43zM535 913
q-151 0 -235.5 -94.5t-96.5 -255.5h657q-12 161 -96.5 255.5t-228.5 94.5z" />
    <glyph glyph-name="Edotaccent" unicode="&#x116;" horiz-adv-x="1251" 
d="M588 1688h164v-160h-164v160zM170 1423h989v-112h-862v-527h786v-114h-786v-555h862v-115h-989v1423z" />
    <glyph glyph-name="edotaccent" unicode="&#x117;" horiz-adv-x="1071" 
d="M455 1284h163v-160h-163v160zM987 461h-782q8 -166 93.5 -266.5t236.5 -100.5q118 0 199.5 54.5t105.5 158.5h127q-34 -158 -146.5 -237.5t-283.5 -79.5q-217 0 -339 144t-122 372q0 229 121.5 371.5t337.5 142.5q212 0 332 -143t120 -373v-43zM535 913
q-151 0 -235.5 -94.5t-96.5 -255.5h657q-12 161 -96.5 255.5t-228.5 94.5z" />
    <glyph glyph-name="Eogonek" unicode="&#x118;" horiz-adv-x="1251" 
d="M1073 -317q51 0 127 26v-94q-86 -27 -153 -27q-81 2 -129 41.5t-48 108.5q0 60 53.5 128.5t143.5 133.5h-897v1423h989v-112h-862v-527h786v-114h-786v-555h862v-115q-178 -157 -178 -250q0 -31 24 -49t68 -18z" />
    <glyph glyph-name="eogonek" unicode="&#x119;" horiz-adv-x="1071" 
d="M987 504v-43h-782q8 -166 93.5 -266.5t236.5 -100.5q118 0 199.5 54.5t105.5 158.5h127q-30 -140 -122.5 -219t-232.5 -94q-147 -140 -147 -221q0 -31 24 -49.5t68 -18.5q48 0 127 27v-94q-86 -27 -154 -27q-81 2 -128.5 41t-47.5 108q0 103 154 230q-204 10 -318 153
t-114 363q0 229 121.5 371.5t337.5 142.5q212 0 332 -143t120 -373zM203 563h657q-12 161 -96.5 255.5t-228.5 94.5q-151 0 -235.5 -94.5t-96.5 -255.5z" />
    <glyph glyph-name="Ecaron" unicode="&#x11a;" horiz-adv-x="1251" 
d="M592 1530l-203 266h146l133 -192l137 192h145l-207 -266h-151zM170 1423h989v-112h-862v-527h786v-114h-786v-555h862v-115h-989v1423z" />
    <glyph glyph-name="ecaron" unicode="&#x11b;" horiz-adv-x="1071" 
d="M459 1126l-203 267h145l134 -193l137 193h145l-207 -267h-151zM987 461h-782q8 -166 93.5 -266.5t236.5 -100.5q118 0 199.5 54.5t105.5 158.5h127q-34 -158 -146.5 -237.5t-283.5 -79.5q-217 0 -339 144t-122 372q0 229 121.5 371.5t337.5 142.5q212 0 332 -143
t120 -373v-43zM535 913q-151 0 -235.5 -94.5t-96.5 -255.5h657q-12 161 -96.5 255.5t-228.5 94.5z" />
    <glyph glyph-name="uni0122" unicode="&#x122;" horiz-adv-x="1501" 
d="M1354 737v-737h-115l-6 274q-18 -49 -57.5 -98.5t-99.5 -94.5t-148 -73t-187 -28q-204 0 -353 92.5t-225.5 257.5t-76.5 383t77 383t224.5 257.5t347.5 92.5q132 0 239 -38t179.5 -106t118 -155t65.5 -193h-131q-36 168 -155 271.5t-316 103.5q-239 0 -380.5 -171.5
t-141.5 -444.5q0 -135 35 -248t101 -195.5t166.5 -129t225.5 -46.5q74 0 142 18.5t129.5 58t108 97.5t76 142.5t34.5 187.5v27h-473v112h596zM649 -438v82q43 2 66.5 30.5t19.5 77.5h-80v160h164v-160q1 -88 -47 -139t-123 -51z" />
    <glyph glyph-name="uni0123" unicode="&#x123;" horiz-adv-x="1130" 
d="M621 1520v-82q-43 -2 -66.5 -31t-19.5 -78h79v-160h-163v160q-1 88 47 139.5t123 51.5zM543 -387q-179 0 -294.5 74t-133.5 231h127q31 -203 307 -203q150 1 229.5 85t79.5 229v176q-50 -89 -136 -140t-194 -51q-198 0 -324 141t-126 367q0 223 128.5 363.5t328.5 140.5
q103 0 190 -51.5t133 -138.5v168h123v-975q0 -191 -114.5 -303.5t-323.5 -112.5zM541 127q153 0 239 111t86 292q0 172 -85.5 276.5t-239.5 104.5t-246 -107t-92 -284t92.5 -285t245.5 -108z" />
    <glyph glyph-name="Imacron" unicode="&#x12a;" horiz-adv-x="464" 
d="M-88 1524v104h643v-104h-643zM170 1423h123v-1423h-123v1423z" />
    <glyph glyph-name="imacron" unicode="&#x12b;" horiz-adv-x="561" 
d="M-41 1104v104h643v-104h-643zM219 1004h123v-1004h-123v1004z" />
    <glyph glyph-name="Iogonek" unicode="&#x12e;" horiz-adv-x="464" 
d="M186 -307q51 0 127 26v-94q-83 -26 -153 -26q-81 2 -128.5 41t-47.5 108q0 112 186 256v1419h123v-1423q-199 -141 -199 -240q0 -31 24 -49t68 -18z" />
    <glyph glyph-name="iogonek" unicode="&#x12f;" horiz-adv-x="419" 
d="M295 1268v-160h-164v160h164zM174 -303q48 0 127 27v-95q-83 -26 -154 -26q-81 2 -128.5 41t-47.5 108q0 56 49 121t130 129v1002h122v-1004q-190 -146 -190 -236q0 -31 24 -49t68 -18z" />
    <glyph glyph-name="dotlessi" unicode="&#x131;" horiz-adv-x="419" 
d="M150 1004h122v-1004h-122v1004z" />
    <glyph glyph-name="uni0136" unicode="&#x136;" horiz-adv-x="1259" 
d="M170 1423h123v-792l790 792l162 2l-635 -641l623 -784h-152l-557 700l-231 -225v-475h-123v1423zM584 -418v82q43 2 66.5 31t19.5 78h-80v159h164v-159q1 -88 -47 -139.5t-123 -51.5z" />
    <glyph glyph-name="uni0137" unicode="&#x137;" horiz-adv-x="1024" 
d="M150 1423h122v-870l533 451h170l-451 -392l490 -612h-160l-428 535l-154 -127v-408h-122v1423zM449 -418v82q43 2 66.5 31t19.5 78h-80v159h163v-159q1 -88 -47 -139.5t-122 -51.5z" />
    <glyph glyph-name="Lacute" unicode="&#x139;" horiz-adv-x="1103" 
d="M276 1524h-112l174 282h160zM170 1423h127v-1308h760v-115h-887v1423z" />
    <glyph glyph-name="lacute" unicode="&#x13a;" horiz-adv-x="423" 
d="M250 1524h-113l174 282h160zM150 1423h122v-1423h-122v1423z" />
    <glyph glyph-name="uni013B" unicode="&#x13b;" horiz-adv-x="1103" 
d="M170 1423h127v-1308h760v-115h-887v1423zM539 -418v82q43 2 66.5 31t19.5 78h-80v159h164v-159q1 -88 -47 -139.5t-123 -51.5z" />
    <glyph glyph-name="uni013C" unicode="&#x13c;" horiz-adv-x="423" 
d="M150 1423h122v-1423h-122v1423zM121 -418v82q43 2 66.5 31t19.5 78h-80v159h164v-159q1 -88 -47 -139.5t-123 -51.5z" />
    <glyph glyph-name="Lcaron" unicode="&#x13d;" horiz-adv-x="1103" 
d="M164 1530l-203 266h145l134 -192l137 192h145l-207 -266h-151zM170 1423h127v-1308h760v-115h-887v1423z" />
    <glyph glyph-name="lcaron" unicode="&#x13e;" horiz-adv-x="423" 
d="M137 1530l-203 266h146l133 -192l137 192h146l-207 -266h-152zM150 1423h122v-1423h-122v1423z" />
    <glyph glyph-name="Lslash" unicode="&#x141;" horiz-adv-x="1124" 
d="M317 115h760v-115h-887v543l-186 -125v133l186 125v747h127v-663l355 235v-133l-355 -235v-512z" />
    <glyph glyph-name="lslash" unicode="&#x142;" horiz-adv-x="632" 
d="M547 924v-113l-160 -76v-735h-123v676l-162 -76v111l162 77v635h123v-575z" />
    <glyph glyph-name="Nacute" unicode="&#x143;" horiz-adv-x="1486" 
d="M766 1524h-113l174 282h160zM293 1243v-1243h-123v1423h143l879 -1245v1243h123v-1421h-144z" />
    <glyph glyph-name="nacute" unicode="&#x144;" 
d="M616 1122h-112l174 283h160zM150 1004h122v-170q106 192 336 192q55 0 105 -13t96.5 -44t80.5 -78t54.5 -120.5t20.5 -166.5v-604h-123v602q0 75 -15 132.5t-38.5 91.5t-58.5 55.5t-70.5 29t-77.5 7.5q-126 0 -218 -98.5t-92 -254.5v-565h-122v1004z" />
    <glyph glyph-name="uni0145" unicode="&#x145;" horiz-adv-x="1486" 
d="M293 1243v-1243h-123v1423h143l879 -1245v1243h123v-1421h-144zM651 -418v82q43 2 66.5 31t19.5 78h-80v159h164v-159q1 -88 -47 -139.5t-123 -51.5z" />
    <glyph glyph-name="uni0146" unicode="&#x146;" 
d="M150 1004h122v-170q106 192 336 192q55 0 105 -13t96.5 -44t80.5 -78t54.5 -120.5t20.5 -166.5v-604h-123v602q0 75 -15 132.5t-38.5 91.5t-58.5 55.5t-70.5 29t-77.5 7.5q-126 0 -218 -98.5t-92 -254.5v-565h-122v1004zM459 -418v82q43 2 66.5 31t19.5 78h-80v159h164
v-159q1 -88 -47 -139.5t-123 -51.5z" />
    <glyph glyph-name="Ncaron" unicode="&#x147;" horiz-adv-x="1486" 
d="M653 1530l-202 266h145l133 -192l137 192h146l-207 -266h-152zM293 1243v-1243h-123v1423h143l879 -1245v1243h123v-1421h-144z" />
    <glyph glyph-name="ncaron" unicode="&#x148;" 
d="M504 1128l-203 267h145l134 -193l137 193h145l-207 -267h-151zM150 1004h122v-170q106 192 336 192q55 0 105 -13t96.5 -44t80.5 -78t54.5 -120.5t20.5 -166.5v-604h-123v602q0 75 -15 132.5t-38.5 91.5t-58.5 55.5t-70.5 29t-77.5 7.5q-126 0 -218 -98.5t-92 -254.5
v-565h-122v1004z" />
    <glyph glyph-name="Eng" unicode="&#x14a;" horiz-adv-x="1486" 
d="M1315 0q1 -140 -73 -225.5t-195 -85.5h-82v125h79q66 3 100.5 55.5t26.5 130.5l-878 1243v-1243h-123v1423h143l879 -1245v1243h123v-1421z" />
    <glyph glyph-name="eng" unicode="&#x14b;" 
d="M608 1026q55 0 105 -13t96.5 -44t80.5 -78t54.5 -120.5t20.5 -166.5v-604q-2 -157 -80 -252.5t-213 -95.5h-80v119h78q84 0 129.5 57t42.5 172v602q0 75 -15 132.5t-38.5 91.5t-58.5 55.5t-70.5 29t-77.5 7.5q-126 0 -218 -98.5t-92 -254.5v-565h-122v1004h122v-170
q106 192 336 192z" />
    <glyph glyph-name="Omacron" unicode="&#x14c;" horiz-adv-x="1515" 
d="M436 1544v105h643v-105h-643zM758 -20q-201 0 -355 93.5t-237.5 261t-83.5 382.5q0 214 83.5 381.5t238 261.5t354.5 94q202 0 356 -94t237 -261t83 -382q0 -214 -83.5 -381.5t-238 -261.5t-354.5 -94zM758 94q164 0 289 80.5t191.5 222t66.5 320.5q0 278 -149.5 450
t-397.5 172q-245 0 -396 -172.5t-151 -449.5q0 -180 68 -321.5t193 -221.5t286 -80z" />
    <glyph glyph-name="omacron" unicode="&#x14d;" horiz-adv-x="1091" 
d="M225 1120v105h643v-105h-643zM547 -8q-213 0 -342 142t-129 372t129 372t342 142t341 -142t128 -372t-128 -372t-341 -142zM547 96q160 0 252 110t92 296q0 189 -93 300t-251 111q-159 0 -252.5 -110.5t-93.5 -296.5t94.5 -298t251.5 -112z" />
    <glyph glyph-name="Ohungarumlaut" unicode="&#x150;" horiz-adv-x="1515" 
d="M492 1735h163v-160h-163v160zM856 1735h164v-160h-164v160zM758 -20q-201 0 -355 93.5t-237.5 261t-83.5 382.5q0 214 83.5 381.5t238 261.5t354.5 94q202 0 356 -94t237 -261t83 -382q0 -214 -83.5 -381.5t-238 -261.5t-354.5 -94zM758 94q164 0 289 80.5t191.5 222
t66.5 320.5q0 278 -149.5 450t-397.5 172q-245 0 -396 -172.5t-151 -449.5q0 -180 68 -321.5t193 -221.5t286 -80z" />
    <glyph glyph-name="ohungarumlaut" unicode="&#x151;" horiz-adv-x="1091" 
d="M281 1311h163v-160h-163v160zM645 1311h164v-160h-164v160zM547 -8q-213 0 -342 142t-129 372t129 372t342 142t341 -142t128 -372t-128 -372t-341 -142zM547 96q160 0 252 110t92 296q0 189 -93 300t-251 111q-159 0 -252.5 -110.5t-93.5 -296.5t94.5 -298t251.5 -112z
" />
    <glyph glyph-name="OE" unicode="&#x152;" horiz-adv-x="2387" 
d="M2296 1311h-862v-527h786v-114h-786v-555h862v-115h-989v262q-89 -134 -230.5 -208t-318.5 -74q-201 0 -355 93.5t-237.5 261t-83.5 382.5q0 214 83.5 381.5t238 261.5t354.5 94q178 0 318.5 -73.5t230.5 -206.5v249h989v-112zM758 94q164 0 289 80.5t191.5 222
t66.5 320.5q0 278 -149.5 450t-397.5 172q-245 0 -396 -172.5t-151 -449.5q0 -180 68 -321.5t193 -221.5t286 -80z" />
    <glyph glyph-name="oe" unicode="&#x153;" horiz-adv-x="1884" 
d="M1800 504v-43h-782q8 -166 93.5 -266.5t236.5 -100.5q118 0 199.5 54.5t105.5 158.5h127q-34 -158 -146.5 -237.5t-283.5 -79.5q-139 0 -241 61.5t-159 171.5q-60 -109 -163.5 -170t-239.5 -61q-213 0 -342 142t-129 372t129 372t342 142q136 0 239.5 -61.5t163.5 -170.5
q57 109 159 170.5t239 61.5q212 0 332 -143t120 -373zM547 96q152 0 243.5 99.5t100.5 269.5q-2 14 -2 41v37q-9 170 -101 270t-241 100q-159 0 -252.5 -110.5t-93.5 -296.5t94.5 -298t251.5 -112zM1016 563h657q-12 161 -96.5 255.5t-228.5 94.5q-151 0 -235.5 -94.5
t-96.5 -255.5z" />
    <glyph glyph-name="Racute" unicode="&#x154;" horiz-adv-x="1298" 
d="M686 1524h-113l175 282h159zM154 0v1423l598 2q225 0 345 -103t120 -304q0 -321 -322 -387l340 -631h-148l-321 608h-487v-608h-125zM279 721h471q342 0 342 297t-342 297h-471v-594z" />
    <glyph glyph-name="racute" unicode="&#x155;" horiz-adv-x="669" 
d="M414 1098h-113l174 282h160zM150 1004h122v-195q45 102 126.5 150.5t183.5 48.5h63v-119h-61q-56 0 -106.5 -16t-99 -54t-77.5 -113t-29 -180v-526h-122v1004z" />
    <glyph glyph-name="uni0156" unicode="&#x156;" horiz-adv-x="1298" 
d="M154 0v1423l598 2q225 0 345 -103t120 -304q0 -321 -322 -387l340 -631h-148l-321 608h-487v-608h-125zM279 721h471q342 0 342 297t-342 297h-471v-594zM557 -418v82q43 2 66.5 31t19.5 78h-80v159h164v-159q1 -88 -47 -139.5t-123 -51.5z" />
    <glyph glyph-name="uni0157" unicode="&#x157;" horiz-adv-x="669" 
d="M150 1004h122v-195q45 102 126.5 150.5t183.5 48.5h63v-119h-61q-56 0 -106.5 -16t-99 -54t-77.5 -113t-29 -180v-526h-122v1004zM123 -418v82q43 2 66.5 31t19.5 78h-80v159h164v-159q1 -88 -47 -139.5t-123 -51.5z" />
    <glyph glyph-name="Rcaron" unicode="&#x158;" horiz-adv-x="1298" 
d="M573 1530l-202 266h145l133 -192l137 192h146l-207 -266h-152zM154 0v1423l598 2q225 0 345 -103t120 -304q0 -321 -322 -387l340 -631h-148l-321 608h-487v-608h-125zM279 721h471q342 0 342 297t-342 297h-471v-594z" />
    <glyph glyph-name="rcaron" unicode="&#x159;" horiz-adv-x="669" 
d="M301 1104l-203 266h146l133 -192l137 192h145l-206 -266h-152zM150 1004h122v-195q45 102 126.5 150.5t183.5 48.5h63v-119h-61q-56 0 -106.5 -16t-99 -54t-77.5 -113t-29 -180v-526h-122v1004z" />
    <glyph glyph-name="Sacute" unicode="&#x15a;" horiz-adv-x="1263" 
d="M670 1524h-113l174 282h160zM666 -18q-165 0 -297.5 52t-217 157.5t-96.5 252.5h140q19 -157 146.5 -252.5t317.5 -95.5q83 0 156 20.5t130 59.5t90.5 101.5t33.5 140.5q0 61 -23.5 106.5t-54 72.5t-94 50t-107.5 33t-131 27q-70 13 -111 21.5t-106.5 26t-105.5 35
t-87.5 46.5t-74 62t-45 80t-18.5 103q0 168 146.5 271t385.5 102q237 -2 371 -110t153 -314h-125q-21 156 -127 231.5t-272 77.5q-187 1 -293 -75.5t-106 -182.5q0 -42 15 -75.5t50.5 -58.5t65 -41.5t86.5 -31.5t85.5 -21t91.5 -18q3 -1 5 -1t5 -1t6 -1.5t5 -0.5
q122 -23 205.5 -45.5t152.5 -54.5t108 -73.5t60 -97.5t21 -132q0 -94 -29.5 -170t-79.5 -126.5t-119.5 -85t-147 -49.5t-164.5 -15z" />
    <glyph glyph-name="sacute" unicode="&#x15b;" horiz-adv-x="993" 
d="M530 1124h-112l174 283h160zM514 -23q-64 0 -123.5 11.5t-114.5 37t-96.5 63t-68 93.5t-29.5 125h127q7 -112 94.5 -168.5t212.5 -56.5t202 55.5t77 149.5q0 32 -9 57.5t-31 44.5t-41 31t-58.5 24t-62.5 17.5t-73 15.5q-166 34 -202 45q-145 44 -185 132q-18 40 -18 91
q0 129 103.5 204t275.5 75q81 0 149.5 -18t124.5 -55t88 -102t31 -151h-119q-8 224 -270 224q-120 0 -191 -45.5t-71 -122.5q0 -23 7.5 -42t18.5 -32.5t33.5 -26t40.5 -20.5t53.5 -17t58.5 -14t68 -14q62 -13 101 -22t86.5 -23t75.5 -28t58 -35t45.5 -46t25.5 -58.5
t10 -74.5q0 -152 -113 -238t-291 -86z" />
    <glyph glyph-name="Scedilla" unicode="&#x15e;" horiz-adv-x="1263" 
d="M666 -18h-27l-57 -125q38 16 86 16q82 0 131 -45t49 -123q0 -76 -56 -124t-145 -48q-77 0 -140.5 34t-98.5 95l77 37q53 -82 162 -82q51 0 82 24.5t31 63.5q0 44 -30 68t-83 24q-51 0 -106 -30l-68 53l82 168q-211 26 -347 144t-153 312h140q19 -157 146.5 -252.5
t317.5 -95.5q83 0 156 20.5t130 59.5t90.5 101.5t33.5 140.5q0 61 -23.5 106.5t-54 72.5t-94 50t-107.5 33t-131 27q-70 13 -111 21.5t-106.5 26t-105.5 35t-87.5 46.5t-74 62t-45 80t-18.5 103q0 168 146.5 271t385.5 102q237 -2 371 -110t153 -314h-125
q-21 156 -127 231.5t-272 77.5q-187 1 -293 -75.5t-106 -182.5q0 -42 15 -75.5t50.5 -58.5t65 -41.5t86.5 -31.5t85.5 -21t91.5 -18q3 -1 5 -1t5 -1t6 -1.5t5 -0.5q122 -23 205.5 -45.5t152.5 -54.5t108 -73.5t60 -97.5t21 -132q0 -94 -29.5 -170t-79.5 -126.5t-119.5 -85
t-147 -49.5t-164.5 -15z" />
    <glyph glyph-name="scedilla" unicode="&#x15f;" horiz-adv-x="993" 
d="M918 301q0 -150 -108.5 -235.5t-281.5 -88.5l-65 -143q38 16 86 16q82 0 131 -45t49 -122q0 -76 -56 -124t-145 -48q-77 0 -140.5 34t-98.5 95l78 36q53 -82 161 -82q50 0 81.5 25t31.5 64q0 44 -30 68t-83 24q-49 0 -106 -31l-68 53l90 185q-71 7 -132.5 29.5t-112.5 61
t-82 98.5t-35 136h127q7 -112 94.5 -168.5t212.5 -56.5t202 55.5t77 149.5q0 32 -9 57.5t-31 44.5t-41 31t-58.5 24t-62.5 17.5t-73 15.5q-166 34 -202 45q-145 44 -185 132q-18 40 -18 91q0 129 103.5 204t275.5 75q81 0 149.5 -18t124.5 -55t88 -102t31 -151h-119
q-8 224 -270 224q-120 0 -191 -45.5t-71 -122.5q0 -23 7.5 -42t18.5 -32.5t33.5 -26t40.5 -20.5t53.5 -17t58.5 -14t68 -14q62 -13 101 -22t86.5 -23t75.5 -28t58 -35t45.5 -46t25.5 -58.5t10 -74.5z" />
    <glyph glyph-name="Scaron" unicode="&#x160;" horiz-adv-x="1263" 
d="M557 1530l-203 266h146l133 -192l137 192h145l-206 -266h-152zM666 -18q-165 0 -297.5 52t-217 157.5t-96.5 252.5h140q19 -157 146.5 -252.5t317.5 -95.5q83 0 156 20.5t130 59.5t90.5 101.5t33.5 140.5q0 61 -23.5 106.5t-54 72.5t-94 50t-107.5 33t-131 27
q-70 13 -111 21.5t-106.5 26t-105.5 35t-87.5 46.5t-74 62t-45 80t-18.5 103q0 168 146.5 271t385.5 102q237 -2 371 -110t153 -314h-125q-21 156 -127 231.5t-272 77.5q-187 1 -293 -75.5t-106 -182.5q0 -42 15 -75.5t50.5 -58.5t65 -41.5t86.5 -31.5t85.5 -21t91.5 -18
q3 -1 5 -1t5 -1t6 -1.5t5 -0.5q122 -23 205.5 -45.5t152.5 -54.5t108 -73.5t60 -97.5t21 -132q0 -94 -29.5 -170t-79.5 -126.5t-119.5 -85t-147 -49.5t-164.5 -15z" />
    <glyph glyph-name="scaron" unicode="&#x161;" horiz-adv-x="993" 
d="M418 1130l-203 267h145l134 -193l137 193h145l-207 -267h-151zM514 -23q-64 0 -123.5 11.5t-114.5 37t-96.5 63t-68 93.5t-29.5 125h127q7 -112 94.5 -168.5t212.5 -56.5t202 55.5t77 149.5q0 32 -9 57.5t-31 44.5t-41 31t-58.5 24t-62.5 17.5t-73 15.5q-166 34 -202 45
q-145 44 -185 132q-18 40 -18 91q0 129 103.5 204t275.5 75q81 0 149.5 -18t124.5 -55t88 -102t31 -151h-119q-8 224 -270 224q-120 0 -191 -45.5t-71 -122.5q0 -23 7.5 -42t18.5 -32.5t33.5 -26t40.5 -20.5t53.5 -17t58.5 -14t68 -14q62 -13 101 -22t86.5 -23t75.5 -28
t58 -35t45.5 -46t25.5 -58.5t10 -74.5q0 -152 -113 -238t-291 -86z" />
    <glyph glyph-name="uni0162" unicode="&#x162;" horiz-adv-x="1243" 
d="M686 1311v-1311l-129 -147q38 16 86 16q82 0 131 -45t49 -123q0 -77 -55.5 -124.5t-144.5 -47.5q-77 0 -141 34t-99 95l78 37q53 -82 162 -82q50 0 81 24.5t31 63.5q0 44 -29.5 68t-82.5 24q-50 0 -107 -31l-67 54l110 184v1311h-524v112h1173v-112h-522z" />
    <glyph glyph-name="uni0163" unicode="&#x163;" horiz-adv-x="657" 
d="M444 -94q82 0 131.5 -45.5t49.5 -122.5q0 -76 -56 -124t-145 -48q-77 0 -141 34t-99 95l78 37q53 -82 162 -82q51 0 82 24.5t31 63.5q0 44 -30 68t-83 24q-50 0 -107 -31l-67 54l82 167q-129 58 -129 238v643h-174v103h174v270h121v-270h276v-103h-276v-639
q0 -151 127 -151h153v-111h-162q-22 0 -32 2l-52 -113q40 17 86 17z" />
    <glyph glyph-name="Tcaron" unicode="&#x164;" horiz-adv-x="1243" 
d="M547 1530l-203 266h145l134 -192l137 192h145l-207 -266h-151zM559 1311h-524v112h1173v-112h-522v-1311h-127v1311z" />
    <glyph glyph-name="tcaron" unicode="&#x165;" horiz-adv-x="657" 
d="M188 1380l-202 267h145l133 -193l137 193h146l-207 -267h-152zM442 0q-111 0 -175 67.5t-64 190.5v643h-174v103h174v270h121v-270h276v-103h-276v-639q0 -151 127 -151h153v-111h-162z" />
    <glyph glyph-name="Tbar" unicode="&#x166;" horiz-adv-x="1243" 
d="M1208 1311h-522v-426h258v-105h-258v-780h-127v780h-258v105h258v426h-524v112h1173v-112z" />
    <glyph glyph-name="tbar" unicode="&#x167;" horiz-adv-x="657" 
d="M451 111h153v-111h-162q-111 0 -175 67.5t-64 190.5v414h-174v102h174v127h-174v103h174v270h121v-270h276v-103h-276v-127h276v-102h-276v-410q0 -151 127 -151z" />
    <glyph glyph-name="Umacron" unicode="&#x16a;" horiz-adv-x="1392" 
d="M375 1524v104h643v-104h-643zM696 -16q-272 0 -418.5 146t-146.5 431v862h127v-862q0 -228 118.5 -345.5t319.5 -117.5t319 117.5t118 345.5v862h127v-862q0 -285 -146 -431t-418 -146z" />
    <glyph glyph-name="umacron" unicode="&#x16b;" 
d="M229 1104v104h643v-104h-643zM950 0h-123v170q-106 -193 -335 -193q-55 0 -105 13t-96.5 44t-80.5 78t-54.5 120.5t-20.5 166.5v605h123v-603q0 -75 15 -132t38.5 -91.5t58.5 -55.5t70.5 -28.5t77.5 -7.5q126 0 217.5 98t91.5 254v566h123v-1004z" />
    <glyph glyph-name="Uring" unicode="&#x16e;" horiz-adv-x="1392" 
d="M698 1503q-86 0 -147.5 61t-61.5 146t61.5 146t147.5 61q85 0 144 -60.5t59 -146.5q0 -85 -59.5 -146t-143.5 -61zM698 1597q46 0 78.5 33t32.5 80t-32.5 81t-78.5 34q-47 0 -79.5 -33.5t-32.5 -81.5q0 -47 32.5 -80t79.5 -33zM696 -16q-272 0 -418.5 146t-146.5 431v862
h127v-862q0 -228 118.5 -345.5t319.5 -117.5t319 117.5t118 345.5v862h127v-862q0 -285 -146 -431t-418 -146z" />
    <glyph glyph-name="uring" unicode="&#x16f;" 
d="M553 1083q-86 0 -147.5 61t-61.5 146t61.5 146t147.5 61q85 0 144 -60.5t59 -146.5q0 -85 -59.5 -146t-143.5 -61zM553 1178q46 0 78.5 32.5t32.5 79.5t-32.5 81t-78.5 34q-47 0 -80 -34t-33 -81t33 -79.5t80 -32.5zM950 0h-123v170q-106 -193 -335 -193q-55 0 -105 13
t-96.5 44t-80.5 78t-54.5 120.5t-20.5 166.5v605h123v-603q0 -75 15 -132t38.5 -91.5t58.5 -55.5t70.5 -28.5t77.5 -7.5q126 0 217.5 98t91.5 254v566h123v-1004z" />
    <glyph glyph-name="Uhungarumlaut" unicode="&#x170;" horiz-adv-x="1392" 
d="M430 1714h164v-160h-164v160zM795 1714h163v-160h-163v160zM696 -16q-272 0 -418.5 146t-146.5 431v862h127v-862q0 -228 118.5 -345.5t319.5 -117.5t319 117.5t118 345.5v862h127v-862q0 -285 -146 -431t-418 -146z" />
    <glyph glyph-name="uhungarumlaut" unicode="&#x171;" 
d="M285 1294h164v-159h-164v159zM649 1294h164v-159h-164v159zM950 0h-123v170q-106 -193 -335 -193q-55 0 -105 13t-96.5 44t-80.5 78t-54.5 120.5t-20.5 166.5v605h123v-603q0 -75 15 -132t38.5 -91.5t58.5 -55.5t70.5 -28.5t77.5 -7.5q126 0 217.5 98t91.5 254v566h123
v-1004z" />
    <glyph glyph-name="Uogonek" unicode="&#x172;" horiz-adv-x="1392" 
d="M1133 1423h127v-862q0 -267 -127.5 -411.5t-366.5 -163.5q-166 -149 -166 -238q0 -31 24 -49t68 -18q51 0 127 26v-94q-86 -27 -153 -27q-81 2 -129 41.5t-48 108.5q0 56 49 121t130 127q-260 8 -398.5 153.5t-138.5 423.5v862h127v-862q0 -228 118.5 -345.5
t319.5 -117.5t319 117.5t118 345.5v862z" />
    <glyph glyph-name="uogonek" unicode="&#x173;" 
d="M831 -319q51 0 127 26v-94q-86 -27 -153 -27q-81 2 -128.5 41.5t-47.5 108.5q0 60 54 129.5t144 134.5v170q-106 -193 -335 -193q-55 0 -105 13t-96.5 44t-80.5 78t-54.5 120.5t-20.5 166.5v605h123v-603q0 -75 15 -132t38.5 -91.5t58.5 -55.5t70.5 -28.5t77.5 -7.5
q126 0 217.5 98t91.5 254v566h123v-1004q-99 -66 -155 -134t-56 -118q0 -31 24 -49t68 -18z" />
    <glyph glyph-name="Wcircumflex" unicode="&#x174;" horiz-adv-x="1914" 
d="M883 1788h151l203 -266h-145l-134 192l-137 -192h-145zM440 0l-405 1423h127l368 -1294l363 1294h129l367 -1290l368 1290h129l-416 -1423h-176l-336 1229l-342 -1229h-176z" />
    <glyph glyph-name="wcircumflex" unicode="&#x175;" horiz-adv-x="1429" 
d="M639 1368h152l202 -266h-145l-133 192l-137 -192h-146zM315 0l-278 1004h127l229 -885l246 885h152l247 -885l228 885h125l-277 -1004h-156l-241 891l-246 -891h-156z" />
    <glyph glyph-name="Ycircumflex" unicode="&#x176;" horiz-adv-x="1185" 
d="M518 1788h152l202 -266h-145l-133 192l-137 -192h-146zM530 555l-544 868h141l467 -753l467 753h141l-545 -868v-555h-127v555z" />
    <glyph glyph-name="ycircumflex" unicode="&#x177;" horiz-adv-x="974" 
d="M412 1368h151l203 -266h-145l-134 192l-137 -192h-145zM823 1004h133l-485 -1166q-24 -56 -39.5 -87.5t-41.5 -67t-55.5 -53t-75 -29t-105.5 -11.5h-72v115h70q60 0 94.5 13t57 42t48.5 90l78 187l-420 967h131l351 -826z" />
    <glyph glyph-name="Ydieresis" unicode="&#x178;" horiz-adv-x="1185" 
d="M328 1714h164v-160h-164v160zM692 1714h164v-160h-164v160zM530 555l-544 868h141l467 -753l467 753h141l-545 -868v-555h-127v555z" />
    <glyph glyph-name="Zacute" unicode="&#x179;" horiz-adv-x="1206" 
d="M641 1524h-113l174 282h160zM27 115l974 1194h-950v114h1108v-114l-981 -1194h973v-115h-1124v115z" />
    <glyph glyph-name="zacute" unicode="&#x17a;" horiz-adv-x="942" 
d="M508 1104h-113l174 282h160zM63 111l666 782h-657v113l805 -2v-111l-660 -782h655v-111h-809v111z" />
    <glyph glyph-name="Zdotaccent" unicode="&#x17b;" horiz-adv-x="1206" 
d="M524 1688h164v-160h-164v160zM27 115l974 1194h-950v114h1108v-114l-981 -1194h973v-115h-1124v115z" />
    <glyph glyph-name="zdotaccent" unicode="&#x17c;" horiz-adv-x="942" 
d="M391 1268h164v-160h-164v160zM63 111l666 782h-657v113l805 -2v-111l-660 -782h655v-111h-809v111z" />
    <glyph glyph-name="Zcaron" unicode="&#x17d;" horiz-adv-x="1206" 
d="M528 1530l-202 266h145l133 -192l137 192h146l-207 -266h-152zM27 115l974 1194h-950v114h1108v-114l-981 -1194h973v-115h-1124v115z" />
    <glyph glyph-name="zcaron" unicode="&#x17e;" horiz-adv-x="942" 
d="M395 1110l-202 266h145l133 -192l137 192h146l-207 -266h-152zM63 111l666 782h-657v113l805 -2v-111l-660 -782h655v-111h-809v111z" />
    <glyph glyph-name="circumflex" unicode="&#x2c6;" horiz-adv-x="757" 
d="M305 1477h152l202 -267h-145l-133 193l-137 -193h-146z" />
    <glyph glyph-name="caron" unicode="&#x2c7;" horiz-adv-x="729" 
d="M336 1208l-203 267h146l133 -193l137 193h145l-207 -267h-151z" />
    <glyph glyph-name="breve" unicode="&#x2d8;" horiz-adv-x="751" 
d="M88 1438v16h107v-16q0 -90 41.5 -134t134.5 -44t134.5 44.5t41.5 133.5v16h104v-16q0 -132 -71 -201.5t-209 -69.5q-139 0 -211 70t-72 201z" />
    <glyph glyph-name="dotaccent" unicode="&#x2d9;" horiz-adv-x="356" 
d="M47 1434h164v-160h-164v160z" />
    <glyph glyph-name="ring" unicode="&#x2da;" horiz-adv-x="589" 
d="M297 1141q-86 0 -147.5 61t-61.5 146t61.5 145.5t147.5 60.5q85 0 144 -60t59 -146q0 -85 -59.5 -146t-143.5 -61zM297 1235q46 0 78.5 33t32.5 80t-32.5 80.5t-78.5 33.5q-47 0 -80 -33.5t-33 -80.5t33 -80t80 -33z" />
    <glyph glyph-name="ogonek" unicode="&#x2db;" horiz-adv-x="471" 
d="M96 -236q0 60 54.5 130t144.5 135l90 -2q-178 -157 -178 -250q0 -31 24 -49.5t68 -18.5q48 0 127 27v-94q-86 -27 -154 -27q-81 2 -128.5 41t-47.5 108z" />
    <glyph glyph-name="tilde" unicode="&#x2dc;" horiz-adv-x="747" 
d="M74 1350q0 81 45.5 129.5t118.5 48.5q35 0 68 -14t58 -34.5t48.5 -40.5t48.5 -34.5t47 -15.5q29 -1 46 21t17 60v43h103v-45q0 -79 -44.5 -128.5t-113.5 -49.5q-35 0 -67.5 14t-57.5 34.5t-48.5 41.5t-48 36t-46.5 16q-32 1 -52 -22t-20 -60v-43h-102v43z" />
    <glyph glyph-name="hungarumlaut" unicode="&#x2dd;" horiz-adv-x="724" 
d="M49 1415h164v-160h-164v160zM414 1415h164v-160h-164v160z" />
    <glyph glyph-name="gravecomb" unicode="&#x300;" horiz-adv-x="0" 
d="M-217 1206l-221 283h159l175 -283h-113z" />
    <glyph glyph-name="acutecomb" unicode="&#x301;" horiz-adv-x="0" 
d="M-258 1206h-113l174 283h160z" />
    <glyph glyph-name="uni0302" unicode="&#x302;" horiz-adv-x="0" 
d="M-453 1477h152l203 -267h-146l-133 193l-137 -193h-145z" />
    <glyph glyph-name="tildecomb" unicode="&#x303;" horiz-adv-x="0" 
d="M-674 1350q0 81 45.5 129.5t118.5 48.5q35 0 68 -14t58 -34.5t48.5 -40.5t48.5 -34.5t47 -15.5q29 -1 46.5 21t17.5 60v43h102v-45q0 -79 -44 -128.5t-113 -49.5q-35 0 -67.5 14t-58 34.5t-49 41.5t-48 36t-46.5 16q-32 1 -51.5 -22t-19.5 -60v-43h-103v43z" />
    <glyph glyph-name="uni0304" unicode="&#x304;" horiz-adv-x="0" 
d="M-723 1243v105h643v-105h-643z" />
    <glyph glyph-name="uni0306" unicode="&#x306;" horiz-adv-x="0" 
d="M-664 1438v16h107v-16q0 -90 41.5 -134t134.5 -44t134.5 44.5t41.5 133.5v16h105v-16q0 -132 -71.5 -201.5t-209.5 -69.5q-139 0 -211 70t-72 201z" />
    <glyph glyph-name="uni0307" unicode="&#x307;" horiz-adv-x="0" 
d="M-309 1434h164v-160h-164v160z" />
    <glyph glyph-name="uni0308" unicode="&#x308;" horiz-adv-x="0" 
d="M-676 1415h164v-160h-164v160zM-311 1415h164v-160h-164v160z" />
    <glyph glyph-name="uni030A" unicode="&#x30a;" horiz-adv-x="0" 
d="M-293 1141q-86 0 -147.5 61t-61.5 146t61.5 145.5t147.5 60.5q85 0 144 -60t59 -146q0 -85 -59.5 -146t-143.5 -61zM-293 1235q46 0 78.5 33t32.5 80t-32.5 80.5t-78.5 33.5q-47 0 -80 -33.5t-33 -80.5t33 -80t80 -33z" />
    <glyph glyph-name="uni030B" unicode="&#x30b;" horiz-adv-x="0" 
d="M-676 1415h164v-160h-164v160zM-311 1415h164v-160h-164v160z" />
    <glyph glyph-name="uni030C" unicode="&#x30c;" horiz-adv-x="0" 
d="M-393 1208l-203 267h145l134 -193l137 193h145l-207 -267h-151z" />
    <glyph glyph-name="uni0312" unicode="&#x312;" horiz-adv-x="0" 
d="M-82 1614v-82q-43 -2 -66.5 -31t-19.5 -78h80v-159h-164v159q-1 88 47 139.5t123 51.5z" />
    <glyph glyph-name="dotbelowcomb" unicode="&#x323;" horiz-adv-x="0" 
d="M-500 -287h164v-159h-164v159z" />
    <glyph glyph-name="uni0326" unicode="&#x326;" horiz-adv-x="0" 
d="M-293 -496v82q43 2 66.5 31t19.5 78h-80v160h164v-160q1 -88 -47 -139.5t-123 -51.5z" />
    <glyph glyph-name="uni0327" unicode="&#x327;" horiz-adv-x="0" 
d="M-291 -467q-77 0 -140.5 34t-98.5 95l77 37q53 -82 162 -82q51 0 82 24.5t31 63.5q0 44 -30 68t-83 24q-51 0 -106 -30l-68 53l90 184h86l-67 -147q38 16 86 16q82 0 131 -45t49 -123q0 -76 -56 -124t-145 -48z" />
    <glyph glyph-name="uni0328" unicode="&#x328;" horiz-adv-x="0" 
d="M-375 -236q0 60 54.5 130t144.5 135l90 -2q-178 -157 -178 -250q0 -31 24 -49.5t68 -18.5q48 0 127 27v-94q-86 -27 -154 -27q-81 2 -128.5 41t-47.5 108z" />
    <glyph glyph-name="Wgrave" unicode="&#x1e80;" horiz-adv-x="1914" 
d="M911 1546l-221 283h160l174 -283h-113zM440 0l-405 1423h127l368 -1294l363 1294h129l367 -1290l368 1290h129l-416 -1423h-176l-336 1229l-342 -1229h-176z" />
    <glyph glyph-name="wgrave" unicode="&#x1e81;" horiz-adv-x="1429" 
d="M668 1126l-222 283h160l174 -283h-112zM315 0l-278 1004h127l229 -885l246 885h152l247 -885l228 885h125l-277 -1004h-156l-241 891l-246 -891h-156z" />
    <glyph glyph-name="Wacute" unicode="&#x1e82;" horiz-adv-x="1914" 
d="M995 1524h-112l174 282h160zM440 0l-405 1423h127l368 -1294l363 1294h129l367 -1290l368 1290h129l-416 -1423h-176l-336 1229l-342 -1229h-176z" />
    <glyph glyph-name="wacute" unicode="&#x1e83;" horiz-adv-x="1429" 
d="M752 1104h-113l174 282h160zM315 0l-278 1004h127l229 -885l246 885h152l247 -885l228 885h125l-277 -1004h-156l-241 891l-246 -891h-156z" />
    <glyph glyph-name="Wdieresis" unicode="&#x1e84;" horiz-adv-x="1914" 
d="M692 1714h164v-160h-164v160zM1057 1714h164v-160h-164v160zM440 0l-405 1423h127l368 -1294l363 1294h129l367 -1290l368 1290h129l-416 -1423h-176l-336 1229l-342 -1229h-176z" />
    <glyph glyph-name="wdieresis" unicode="&#x1e85;" horiz-adv-x="1429" 
d="M449 1294h163v-159h-163v159zM813 1294h164v-159h-164v159zM315 0l-278 1004h127l229 -885l246 885h152l247 -885l228 885h125l-277 -1004h-156l-241 891l-246 -891h-156z" />
    <glyph glyph-name="uni1E9E" unicode="&#x1e9e;" horiz-adv-x="1337" 
d="M944 766q145 -35 221 -125t76 -229q0 -188 -128 -300t-329 -112h-319v111h315q151 0 245.5 83t94.5 220q0 144 -104.5 218.5t-306.5 74.5h-138v102h131q179 0 274 72t95 196q0 52 -17.5 94t-48 69.5t-67 47t-80 29t-81 14t-75.5 4.5q-63 0 -118.5 -11.5t-109.5 -42
t-92.5 -78.5t-62.5 -125.5t-24 -178.5v-899h-125v899q0 147 41 255t115 170.5t167.5 92t208.5 29.5q67 0 132.5 -10.5t131.5 -36.5t115.5 -66t81 -104t31.5 -144q0 -115 -64 -197.5t-186 -121.5z" />
    <glyph glyph-name="Ygrave" unicode="&#x1ef2;" horiz-adv-x="1185" 
d="M547 1546l-221 283h159l174 -283h-112zM530 555l-544 868h141l467 -753l467 753h141l-545 -868v-555h-127v555z" />
    <glyph glyph-name="ygrave" unicode="&#x1ef3;" horiz-adv-x="974" 
d="M440 1126l-221 283h160l174 -283h-113zM823 1004h133l-485 -1166q-24 -56 -39.5 -87.5t-41.5 -67t-55.5 -53t-75 -29t-105.5 -11.5h-72v115h70q60 0 94.5 13t57 42t48.5 90l78 187l-420 967h131l351 -826z" />
    <glyph glyph-name="endash" unicode="&#x2013;" horiz-adv-x="1132" 
d="M51 475v100h1028v-100h-1028z" />
    <glyph glyph-name="emdash" unicode="&#x2014;" horiz-adv-x="2146" 
d="M51 479v103h2042v-103h-2042z" />
    <glyph glyph-name="quoteleft" unicode="&#x2018;" horiz-adv-x="319" 
d="M301 1423v-82q-43 -2 -66.5 -30.5t-19.5 -77.5h80v-160h-164v160q-1 88 47 139t123 51z" />
    <glyph glyph-name="quoteright" unicode="&#x2019;" horiz-adv-x="376" 
d="M47 1073v82q43 2 66.5 31t19.5 78h-80v159h164v-159q1 -88 -47 -139.5t-123 -51.5z" />
    <glyph glyph-name="quotesinglbase" unicode="&#x201a;" horiz-adv-x="370" 
d="M43 -190v81q43 2 66.5 31t19.5 78h-80v160h164v-160q1 -88 -47 -139t-123 -51z" />
    <glyph glyph-name="quotedblleft" unicode="&#x201c;" horiz-adv-x="546" 
d="M205 1423v-82q-43 -2 -66.5 -30.5t-19.5 -77.5h80v-160h-164v160q-1 88 47 139t123 51zM438 1423v-82q-43 -2 -66.5 -30.5t-19.5 -77.5h80v-160h-164v160q-1 88 47 139t123 51z" />
    <glyph glyph-name="quotedblright" unicode="&#x201d;" horiz-adv-x="602" 
d="M135 1073v82q43 2 66.5 31t19.5 78h-80v159h164v-159q1 -88 -47 -139.5t-123 -51.5zM367 1073v82q43 2 66.5 31t19.5 78h-80v159h164v-159q1 -88 -47 -139.5t-123 -51.5z" />
    <glyph glyph-name="quotedblbase" unicode="&#x201e;" horiz-adv-x="671" 
d="M113 -350v82q43 2 66.5 30.5t19.5 77.5h-80v160h164v-160q1 -88 -47 -139t-123 -51zM344 -350v82q43 2 66.5 30.5t19.5 77.5h-80v160h164v-160q1 -88 -47 -139t-123 -51z" />
    <glyph glyph-name="bullet" unicode="&#x2022;" horiz-adv-x="530" 
d="M143 588v262h244v-262h-244z" />
    <glyph glyph-name="ellipsis" unicode="&#x2026;" horiz-adv-x="1175" 
d="M102 160h164v-160h-164v160zM473 160h164v-160h-164v160zM840 160h164v-160h-164v160z" />
    <glyph glyph-name="perthousand" unicode="&#x2030;" horiz-adv-x="2285" 
d="M377 752q-146 0 -234 96.5t-88 247.5q0 149 88 244.5t234 95.5q144 0 231.5 -95.5t87.5 -244.5q0 -151 -87.5 -247.5t-231.5 -96.5zM1241 1423h137l-1050 -1423h-135zM377 850q94 0 149.5 69t55.5 177q0 105 -55.5 172t-149.5 67q-96 0 -152.5 -67t-56.5 -172
q0 -108 56.5 -177t152.5 -69zM1886 -2q-146 0 -233.5 96.5t-87.5 247.5q0 150 87.5 246t233.5 96q144 0 232 -96t88 -246q0 -151 -87.5 -247.5t-232.5 -96.5zM1196 -16q-146 0 -234 96.5t-88 247.5q0 150 88 246t234 96q144 0 232 -96t88 -246q0 -151 -87.5 -247.5
t-232.5 -96.5zM1886 96q95 0 150 69t55 177q0 105 -55 172.5t-150 67.5q-96 0 -152.5 -67.5t-56.5 -172.5q0 -108 56.5 -177t152.5 -69zM1196 82q94 0 149.5 69t55.5 177q0 105 -55.5 172t-149.5 67q-96 0 -153.5 -67t-57.5 -172q0 -108 57.5 -177t153.5 -69z" />
    <glyph glyph-name="guilsinglleft" unicode="&#x2039;" horiz-adv-x="614" 
d="M389 195l-311 376l311 377h125l-311 -377l311 -376h-125z" />
    <glyph glyph-name="guilsinglright" unicode="&#x203a;" horiz-adv-x="614" 
d="M100 195l312 376l-312 377h125l312 -377l-312 -376h-125z" />
    <glyph glyph-name="Euro" unicode="&#x20ac;" horiz-adv-x="1193" 
d="M680 -16q-249 0 -386.5 143.5t-156.5 423.5h-139v102h135v156h-135v102h139q20 280 157.5 424t383.5 144q215 0 339 -109t152 -323h-120q-23 158 -117 239.5t-254 81.5q-190 0 -295.5 -116t-120.5 -341h465v-102h-469v-156h469v-102h-465q13 -224 119.5 -338.5
t298.5 -114.5q167 0 265.5 88t121.5 258h119q-28 -227 -157 -343.5t-349 -116.5z" />
    <glyph glyph-name="trademark" unicode="&#x2122;" horiz-adv-x="1261" 
d="M68 1339v84h471v-84h-189v-452h-88v452h-194zM1057 1423h94v-536h-84v360l-137 -358h-96l-140 366v-368h-82v536h93l180 -448z" />
    <glyph glyph-name="estimated" unicode="&#x212e;" horiz-adv-x="1748" 
d="M872 -18q-177 0 -338.5 62t-278.5 167.5t-186 250.5t-69 304q0 215 117 397t317.5 287.5t437.5 105.5q178 0 339.5 -62.5t278.5 -168t186 -252t69 -307.5v-21h-1411q-12 0 -12 -8v-430q0 -24 18 -49q104 -109 242.5 -171t291.5 -62q166 0 312.5 69.5t251.5 192.5h125
q-119 -141 -301.5 -223t-389.5 -82zM334 788h1083q8 0 8 15v430q0 34 -20 51q-106 105 -243 165t-288 60t-288.5 -61.5t-243.5 -169.5q-20 -23 -20 -53v-422q0 -15 12 -15z" />
    <glyph glyph-name="minus" unicode="&#x2212;" horiz-adv-x="1392" 
d="M172 635v113h1049v-113h-1049z" />
    <glyph glyph-name="notequal" unicode="&#x2260;" horiz-adv-x="1359" 
d="M1169 827h-305l-237 -350h542v-112h-618l-141 -209h-123l141 209h-307v112h383l237 350h-620v115h698l123 182h123l-123 -182h227v-115z" />
    <glyph glyph-name="lessequal" unicode="&#x2264;" horiz-adv-x="1794" 
d="M1110 322l-950 327v131l950 330v-121l-825 -274l825 -275v-118zM160 0v104h952v-104h-952z" />
    <glyph glyph-name="greaterequal" unicode="&#x2265;" horiz-adv-x="1763" 
d="M719 322v118l825 275l-825 274v121l950 -330v-131zM1669 0h-952v104h952v-104z" />
    </font>
</defs>
</svg>
