<svg width="600" height="102" viewBox="0 0 600 102" fill="none" xmlns="http://www.w3.org/2000/svg">
<g clip-path="url(#clip0_7969_9717)">
<path fill-rule="evenodd" clip-rule="evenodd" d="M341.985 0C342.249 0.828 342.741 1.656 342.744 2.484C342.792 16.425 342.78 30.363 342.78 44.304V45.939L343.05 46.005C343.362 45.354 343.686 44.709 343.992 44.055C348.483 34.5 357.057 30.459 366.972 31.35C377.256 32.274 382.794 39.342 384.915 49.137C386.565 56.766 385.875 64.497 385.89 72.195C385.905 78.411 385.641 84.624 385.659 90.837C385.665 91.905 386.259 93.153 386.958 93.993C388.314 95.616 389.973 96.978 391.434 98.517C391.815 98.922 392.208 99.687 392.067 100.101C391.938 100.485 391.092 100.827 390.561 100.827C379.74 100.869 368.919 100.869 358.101 100.827C357.57 100.824 356.739 100.467 356.595 100.068C356.448 99.672 356.874 98.916 357.249 98.502C358.719 96.891 360.351 95.424 361.749 93.759C362.364 93.03 362.88 91.959 362.898 91.029C363.09 80.727 363.288 70.422 363.222 60.12C363.201 56.943 362.664 53.691 361.848 50.61C359.766 42.78 351.354 41.577 346.614 46.929C344.226 49.623 342.804 52.659 342.792 56.265C342.759 67.785 342.744 79.305 342.837 90.825C342.849 91.887 343.476 93.123 344.184 93.969C345.54 95.595 347.184 96.969 348.645 98.511C349.029 98.919 349.17 99.555 349.425 100.083C348.837 100.344 348.255 100.818 347.667 100.827C342.117 100.884 336.561 100.86 331.008 100.86C325.914 100.86 320.817 100.89 315.723 100.827C315.084 100.818 314.451 100.344 313.815 100.086C314.097 99.504 314.265 98.814 314.685 98.364C315.891 97.059 317.145 95.784 318.492 94.626C319.932 93.387 320.37 91.872 320.358 90.036C320.316 82.779 320.34 75.522 320.34 68.265C320.34 50.466 320.319 32.667 320.367 14.871C320.373 12.651 319.842 10.869 318.057 9.426C316.638 8.277 315.381 6.912 314.127 5.571C313.788 5.205 313.53 4.545 313.605 4.08C313.656 3.78 314.358 3.435 314.805 3.378C319.281 2.802 323.766 2.298 328.245 1.743C332.715 1.185 337.179 0.582 341.643 0L341.985 0ZM236.265 37.311V39.444C236.265 53.04 236.244 66.633 236.292 80.229C236.295 81.996 236.46 83.808 236.883 85.518C238.134 90.531 242.751 92.361 247.149 89.682C247.977 89.178 248.715 88.521 249.54 88.008C249.936 87.765 250.44 87.693 250.893 87.543C250.953 88.059 251.19 88.635 251.043 89.082C249.273 94.47 245.853 98.364 240.525 100.38C235.455 102.3 230.25 102.48 225.033 101.064C218.523 99.294 215.271 94.635 214.212 88.209C213.947 86.4467 213.824 84.666 213.843 82.884C213.813 68.424 213.828 53.964 213.828 39.504V37.41H190.644C190.614 38.07 190.569 38.634 190.569 39.195C190.566 53.079 190.527 66.96 190.611 80.844C190.623 82.818 190.923 84.903 191.613 86.733C193.11 90.693 197.043 92.019 200.76 90.039C201.813 89.481 202.737 88.677 203.76 88.059C204.201 87.795 204.756 87.726 205.26 87.567C205.278 88.095 205.449 88.677 205.293 89.145C203.424 94.797 199.743 98.712 194.097 100.638C189.36 102.271 184.24 102.433 179.409 101.103C172.998 99.387 169.659 94.842 168.531 88.482C168.259 86.8373 168.129 85.1721 168.144 83.505C168.117 68.874 168.129 54.243 168.129 39.612V37.311C165.369 37.311 162.705 37.317 160.041 37.311C158.031 37.305 157.911 37.164 157.899 34.953C157.893 32.487 157.953 32.403 159.975 32.391C162.207 32.379 164.442 32.364 166.674 32.394C168.669 32.424 170.217 31.764 171.606 30.183C177.012 24.009 182.541 17.937 188.058 11.862C188.508 11.367 189.24 11.13 189.84 10.773C190.08 11.472 190.53 12.171 190.533 12.873C190.593 18.69 190.566 24.507 190.566 30.327V32.052C190.884 32.226 190.98 32.322 191.079 32.322C198.519 32.331 205.959 32.322 213.399 32.331C215.031 32.334 216.138 31.473 217.179 30.309C222.6 24.225 228.063 18.174 233.511 12.111C233.742 11.856 233.925 11.511 234.21 11.361C234.672 11.112 235.236 10.8 235.683 10.89C235.95 10.941 236.226 11.709 236.238 12.159C236.292 14.463 236.265 16.767 236.265 19.074C236.265 22.932 236.316 26.793 236.235 30.651C236.208 31.983 236.559 32.448 237.954 32.421C242.364 32.331 246.771 32.382 251.178 32.391C253.197 32.397 253.269 32.502 253.257 34.962C253.245 37.14 253.098 37.308 251.085 37.308C246.225 37.314 241.365 37.311 236.265 37.311ZM552.609 0C552.831 0.789 553.242 1.581 553.245 2.37C553.281 22.017 553.275 41.661 553.275 61.305V63.546C554.814 62.421 556.134 61.47 557.439 60.498C563.001 56.349 568.566 52.203 574.119 48.042C576.129 46.533 576.159 46.266 574.659 44.166C572.388 40.989 570.09 37.83 567.855 34.626C567.537 34.17 567.231 33.366 567.426 32.988C567.612 32.616 568.449 32.415 569.004 32.412C578.109 32.382 587.211 32.376 596.316 32.418C596.91 32.418 597.507 32.829 598.101 33.051C597.747 33.639 597.522 34.392 597.021 34.785C589.932 40.335 582.801 45.837 575.688 51.354C573.627 52.95 573.606 53.004 574.746 55.266C580.659 67.002 586.449 78.807 592.593 90.426C594.105 93.288 596.793 95.514 598.881 98.079C599.376 98.688 599.634 99.492 600 100.206C599.28 100.425 598.56 100.827 597.84 100.833C589.995 100.878 582.15 100.824 574.308 100.893C572.808 100.905 572.082 100.362 571.464 99.021C566.829 88.971 562.119 78.951 557.412 68.934C557.1 68.274 556.737 67.485 556.167 67.146C555.558 66.777 554.64 66.705 553.926 66.846C553.62 66.906 553.305 67.842 553.302 68.379C553.26 75.927 553.224 83.475 553.332 91.02C553.347 92.034 553.968 93.21 554.652 94.005C556.038 95.607 557.697 96.966 559.161 98.505C559.542 98.898 559.911 99.678 559.764 100.095C559.632 100.482 558.792 100.827 558.264 100.827C547.5 100.869 536.733 100.869 525.969 100.833C525.42 100.83 524.874 100.419 524.325 100.197C524.562 99.609 524.655 98.889 525.06 98.457C526.506 96.897 528.135 95.514 529.521 93.909C530.13 93.195 530.649 92.112 530.652 91.197C530.712 65.274 530.715 39.348 530.643 13.425C530.64 12.36 530.001 11.121 529.293 10.275C527.94 8.646 526.293 7.269 524.835 5.727C524.451 5.319 524.013 4.575 524.145 4.167C524.277 3.759 525.075 3.396 525.615 3.327C530.943 2.646 536.283 2.055 541.614 1.395C545.055 0.966 548.484 0.465 551.922 0L552.609 0ZM158.328 89.802C159.363 95.328 153.522 101.034 145.932 101.832C137.916 102.681 129.306 98.505 129.027 87.051C128.781 87.549 128.532 88.05 128.289 88.551C125.169 94.965 120.522 99.621 113.421 101.289C101.406 104.109 91.773 98.175 88.851 85.953C87.9892 82.2608 87.5196 78.4878 87.45 74.697C87.267 66.405 87.426 58.107 87.468 49.812C87.498 44.688 87.621 39.561 87.588 34.437C87.576 32.847 88.086 32.34 89.661 32.358C95.847 32.433 102.03 32.421 108.216 32.364C109.716 32.352 110.142 32.829 110.133 34.371C110.055 47.736 109.941 61.104 110.148 74.466C110.202 77.901 111.123 81.39 112.08 84.726C112.89 87.555 115.05 89.256 118.092 89.694C120.246 90.003 122.094 89.4 123.597 87.93C127.017 84.576 129.3 80.748 129.237 75.654C129.099 64.938 129.171 54.222 129.219 43.506C129.228 41.706 128.694 40.296 127.419 39.045C125.915 37.5457 124.464 35.9937 123.069 34.392C122.775 34.056 122.499 33.411 122.628 33.069C122.754 32.736 123.417 32.421 123.843 32.418C132.717 32.382 141.594 32.4 150.471 32.388C151.791 32.382 151.902 33.21 151.902 34.224C151.887 37.794 151.896 41.37 151.896 44.94V73.113C151.896 77.943 151.875 82.779 151.911 87.609C151.923 89.037 151.854 90.639 153.399 91.395C154.992 92.175 156.231 91.158 157.434 90.246C157.65 90.084 157.92 90 158.328 89.802ZM460.716 90.261C460.38 91.548 460.206 92.907 459.684 94.11C457.323 99.552 451.644 102.417 444.384 101.952C438.276 101.559 432.999 97.692 431.616 92.154C431.025 89.802 431.076 87.264 431.046 84.804C430.971 79.11 431.022 73.416 431.022 67.584C426.63 65.34 418.83 66.717 415.86 73.083C413.652 77.817 413.79 82.707 415.524 87.504C417.096 91.86 421.383 93.168 425.316 90.744C425.787 90.453 426.246 90.15 427.032 89.652C427.032 90.54 427.14 91.137 427.014 91.68C425.895 96.435 423.078 99.765 418.356 101.013C410.724 103.032 403.812 101.679 398.304 95.631C391.434 88.095 390.795 70.29 406.026 63.732C414.273 60.183 422.595 60.432 430.677 64.602C430.824 64.677 430.989 64.716 431.397 64.857C431.499 60.753 431.718 56.763 431.652 52.776C431.592 49.284 431.553 45.726 430.881 42.327C429.783 36.801 425.877 34.218 420.312 34.917C419.577 35.007 418.701 35.757 418.293 36.447C414.921 42.12 411.66 47.862 408.321 53.556C407.976 54.138 407.343 54.546 406.842 55.035C406.353 54.477 405.687 53.994 405.396 53.343C403.164 48.312 401.04 43.227 398.787 38.205C398.133 36.738 398.577 36.108 399.942 35.67C408.87 32.811 417.972 30.978 427.383 31.221C432.771 31.359 438.102 32.004 442.977 34.62C449.214 37.968 452.094 43.557 453.282 50.268C454.632 57.894 453.645 65.529 453.369 73.164C453.201 77.705 453.064 82.2471 452.958 86.79C452.963 87.536 453.08 88.2771 453.303 88.989C454.089 91.749 456.177 92.523 458.574 90.975C459.084 90.645 459.588 90.291 460.092 89.946L460.716 90.261ZM282.42 101.994C273.9 101.763 266.13 100.629 258.537 98.289C257.085 97.839 256.581 97.287 257.169 95.706C259.197 90.216 261.075 84.675 263.067 79.173C263.295 78.543 263.88 78.039 264.297 77.478C264.804 77.943 265.467 78.321 265.794 78.894C268.782 84.195 271.839 89.466 274.605 94.884C275.916 97.446 277.566 98.628 280.416 98.22C282.78 97.881 285.231 97.956 287.535 97.395C290.961 96.564 293.568 94.536 294.183 90.78C294.807 86.961 293.322 83.895 290.073 81.99C286.383 79.83 282.504 77.982 278.685 76.044C275.424 74.388 272.025 72.984 268.875 71.133C256.617 63.927 256.287 49.494 262.071 41.397C265.851 36.105 271.296 33.501 277.443 32.163C284.892 30.54 292.347 31.143 299.766 32.355C302.913 32.871 306 33.741 309.12 34.419C310.521 34.725 310.848 35.442 310.32 36.783C308.262 42.012 306.27 47.271 304.212 52.5C304.002 53.025 303.414 53.844 303.129 53.793C302.574 53.703 301.947 53.181 301.629 52.668C298.419 47.4974 295.257 42.2972 292.143 37.068C291.279 35.613 290.166 34.89 288.513 35.028C286.47 35.196 284.376 35.172 282.393 35.628C276.558 36.981 274.008 43.398 277.542 48.312C278.991 50.322 281.157 52.062 283.362 53.22C288.207 55.77 293.358 57.729 298.245 60.21C301.383 61.8 304.53 63.579 307.215 65.826C312.009 69.843 313.215 75.396 312.594 81.444C311.493 92.214 303.66 98.166 293.88 100.563C292.11 100.998 290.301 101.343 288.492 101.553C286.281 101.811 284.046 101.883 282.42 101.994ZM462.234 67.584C462.144 59.415 463.683 52.134 468.006 45.654C473.046 38.109 480.375 34.023 489.021 32.214C499.785 29.964 510.27 31.644 520.605 34.878C521.808 35.256 521.946 35.952 521.505 36.981C519.129 42.579 516.765 48.183 514.353 53.766C514.155 54.225 513.558 54.897 513.252 54.846C512.754 54.759 512.19 54.246 511.92 53.76C508.793 48.1423 505.72 42.4941 502.704 36.816C501.924 35.334 500.961 34.764 499.314 34.866C494.916 35.145 491.778 37.275 489.735 41.136C487.845 44.703 487.11 48.606 486.711 52.551C486.021 59.394 486.009 66.237 487.671 72.963C489.093 78.702 491.55 83.838 497.007 86.799C501.876 89.439 506.907 89.661 511.689 86.7C514.245 85.119 516.438 82.953 518.844 81.111C519.363 80.712 520.08 80.571 520.704 80.316C520.8 80.991 521.124 81.729 520.959 82.338C518.391 91.872 512.16 97.869 502.89 100.662C489.252 104.772 474.21 99.114 467.142 87.276C463.446 81.093 462.069 74.286 462.234 67.584ZM82.275 33.192C81.747 24.987 78.885 17.856 72.57 12.456C69.6229 9.94373 66.2606 7.96413 62.634 6.606C62.601 6.588 62.244 6.456 62.244 6.456L61.803 6.294L61.413 6.153L61.227 6.087C57.0088 4.54878 52.5559 3.75301 48.066 3.735L44.676 3.717H44.745H44.436L44.442 3.72H44.352C36.732 3.672 29.112 3.666 21.492 3.678L1.686 3.72C1.128 3.72 0.576 4.08 0.021 4.269C0.267 4.854 0.372 5.577 0.786 5.997C2.874 8.127 5.01 10.215 7.2 12.24C8.328 13.284 8.94 14.454 8.94 16.002C8.931 40.14 8.955 64.278 8.871 88.416C8.868 89.586 8.196 90.987 7.392 91.878C5.322 94.179 2.982 96.228 0.81 98.439C0.39 98.862 0.261 99.57 0 100.149C0.594 100.386 1.188 100.827 1.782 100.83C16.041 100.866 30.297 100.869 44.556 100.83C45.144 100.827 45.729 100.35 46.314 100.098C46.002 99.549 45.81 98.841 45.354 98.478C42.291 96.063 39.228 93.642 36.045 91.389C34.395 90.219 33.855 88.806 33.864 86.859C33.873 84.369 33.87 81.879 33.873 79.389H33.879C33.924 58.665 33.909 37.941 33.909 17.217C33.909 14.478 33.912 14.478 36.582 14.487C38.907 14.493 38.982 14.574 38.988 17.016C38.988 17.586 39.048 18.159 38.976 18.72C38.841 19.791 39.336 20.313 40.248 20.79C45.963 23.757 51.657 26.76 57.357 29.76C60.417 31.368 63.486 32.958 66.537 34.575C67.167 34.905 67.632 35.559 68.172 36.063C67.632 36.573 67.17 37.227 66.543 37.563C63.129 39.393 56.253 43.173 56.238 43.239C51.048 46.005 45.861 48.768 40.683 51.549C40.131 51.849 39.387 52.506 39.378 53.007C39.309 56.604 39.309 60.207 39.315 63.891L39.243 63.978L39.315 64.017L39.318 68.544C45.741 68.748 51.897 68.61 57.972 67.155C64.458 65.601 70.353 62.913 74.922 57.843C81.222 50.847 82.86 42.333 82.275 33.192Z" fill="white"/>
</g>
<defs>
<clipPath id="clip0_7969_9717">
<rect width="600" height="102" fill="white"/>
</clipPath>
</defs>
</svg>
