<svg width="22" height="22" viewBox="0 0 22 22" fill="none" xmlns="http://www.w3.org/2000/svg">
<path fill-rule="evenodd" clip-rule="evenodd" d="M11.8285 0C13.6952 0.139707 15.4299 0.741224 16.924 1.69201C16.7144 1.9365 16.5126 2.18098 16.3108 2.42159C15.0651 3.92344 13.8737 5.35544 11.8285 5.7668V0ZM18.2434 2.6816C18.0145 2.94549 17.7933 3.20938 17.5759 3.47716C16.0586 5.30111 14.6149 7.03969 11.8285 7.44717V10.1753H22C21.7788 7.18716 20.3701 4.53272 18.2434 2.6816ZM10.1715 10.1753H0C0.221203 7.19104 1.62992 4.5366 3.75657 2.6816C3.98554 2.94549 4.20674 3.20938 4.42406 3.47716C5.94144 5.30111 7.38508 7.03969 10.1715 7.44717V10.1753ZM5.07991 1.69201C5.28947 1.9365 5.49127 2.18098 5.69307 2.42159C6.93879 3.92344 8.13018 5.35544 10.1753 5.7668V0C8.3087 0.139707 6.57012 0.741224 5.07991 1.69201ZM22 11.8285C21.7788 14.8128 20.3701 17.4673 18.2434 19.3184C18.0145 19.0545 17.7933 18.7906 17.5759 18.5267C16.0586 16.7028 14.6149 14.9642 11.8285 14.5567V11.8285H22ZM16.9201 20.308C16.7105 20.0635 16.5087 19.8229 16.3069 19.5784C15.0612 18.0766 13.8698 16.6446 11.8247 16.2332V22C13.6952 21.8642 15.4299 21.2627 16.9201 20.308ZM10.1715 22C8.30481 21.8603 6.57012 21.2588 5.07603 20.308C5.28559 20.0635 5.48739 19.8229 5.68919 19.5784C6.93491 18.0766 8.1263 16.6446 10.1715 16.2332V22ZM3.75657 19.3184C3.98554 19.0545 4.20674 18.7906 4.42406 18.5267C5.94144 16.7028 7.38508 14.9642 10.1715 14.5567V11.8285H0C0.221203 14.8128 1.62992 17.4673 3.75657 19.3184Z" fill="white"/>
</svg>
