<svg width="23" height="22" viewBox="0 0 23 22" fill="none" xmlns="http://www.w3.org/2000/svg">
<path fill-rule="evenodd" clip-rule="evenodd" d="M13.0678 13.1485C12.2264 14.587 11.1612 14.9738 10.1976 15.3063C8.21973 16.0119 3.94838 16.7753 1.89583 16.7515C0.976424 16.7346 0.582876 17.0772 0.348784 17.7727C0.111298 18.5598 -0.0210153 20.2527 0.00273327 20.7006C0.0332671 21.2027 0.358962 22.0067 1.47514 22C2.33009 21.9117 9.99409 20.497 12.7048 19.0246C13.0678 18.838 13.4987 18.5903 13.8176 17.9457L22.038 1.77637C22.3671 1.21319 22.1771 0.490553 21.6139 0.161466C21.0507 -0.167621 20.3281 0.0223672 19.999 0.585547L13.0678 13.1485ZM8.16545 9.14604C8.54542 10.2317 7.95171 11.6023 6.69304 12.3826C5.43776 13.1629 3.94499 13.0849 3.14093 12.2605C3.34449 12.3283 3.55823 12.3758 3.77875 12.3996C4.59638 12.498 5.5124 12.3012 6.33342 11.7923V11.7889C7.15444 11.28 7.73797 10.5472 8.01278 9.77368C8.08402 9.56672 8.13491 9.35638 8.16545 9.14604ZM3.49716 7.2224C4.90511 6.3471 6.61501 6.55066 7.3105 7.67702C8.00599 8.79999 7.42924 10.4217 6.02129 11.2936C4.61334 12.1655 2.90345 11.9653 2.20796 10.839C1.50907 9.716 2.08582 8.09771 3.49716 7.2224Z" fill="white"/>
</svg>
