<svg width="20" height="24" viewBox="0 0 20 24" fill="none" xmlns="http://www.w3.org/2000/svg">
<path fill-rule="evenodd" clip-rule="evenodd" d="M19.3838 18.1359C19.0585 17.3713 18.4431 16.7658 17.6718 16.4514C16.9004 16.137 16.0356 16.1392 15.2658 16.4575L10.4153 18.4464L1.64044 0.572103C1.60387 0.463529 1.54537 0.363564 1.46857 0.278365C1.39176 0.193166 1.29827 0.124536 1.19384 0.0767005C1.08941 0.0288651 0.976265 0.00283725 0.861363 0.000219281C0.746462 -0.00239868 0.632239 0.0184489 0.525727 0.0614781C0.419216 0.104507 0.322671 0.168807 0.242036 0.250419C0.161402 0.332031 0.0983857 0.429227 0.0568673 0.536022C0.0153489 0.642817 -0.0037927 0.756951 0.000621321 0.871396C0.00503534 0.985841 0.032911 1.09817 0.0825328 1.20148L8.91009 19.3092L9.88474 21.5513L10.4153 22.4492C10.9592 23.1185 11.7559 23.6623 12.5933 23.8755C13.4307 24.0886 14.3148 24.0269 15.1143 23.6996L18.1627 22.4492C18.8482 22.1685 19.3937 21.6281 19.6795 20.9468C19.9653 20.2654 19.968 19.4989 19.6869 18.8156L19.3838 18.1359ZM15.5 9C15.9945 9 16.4778 8.85338 16.8889 8.57867C17.3 8.30397 17.6205 7.91352 17.8097 7.45671C17.9989 6.99989 18.0484 6.49723 17.952 6.01227C17.8555 5.52732 17.6174 5.08187 17.2678 4.73223C16.9181 4.3826 16.4727 4.1445 15.9877 4.04804C15.5028 3.95157 15.0001 4.00108 14.5433 4.1903C14.0865 4.37952 13.696 4.69995 13.4213 5.11108C13.1466 5.5222 13 6.00555 13 6.5C13 7.16304 13.2634 7.79893 13.7322 8.26777C14.2011 8.73661 14.837 9 15.5 9ZM17.9549 9.6963C17.7315 10.0328 17.4424 10.3206 17.1048 10.5425C16.7673 10.7644 16.3883 10.9157 15.9907 10.9873V12.5091C15.9907 12.6393 15.939 12.7642 15.8469 12.8562C15.7548 12.9483 15.6299 13 15.4997 13C15.3694 13 15.2445 12.9483 15.1524 12.8562C15.0603 12.7642 15.0086 12.6393 15.0086 12.5091V10.9775C14.2292 10.8403 13.5346 10.4033 13.0738 9.76011C13.0075 9.65324 12.9847 9.525 13.0102 9.40182C13.0357 9.27866 13.1075 9.16996 13.2108 9.09817C13.3141 9.02638 13.441 8.99697 13.5654 9.01601C13.6898 9.03505 13.8021 9.10109 13.8792 9.20049C14.0702 9.45285 14.3143 9.66016 14.5944 9.80775C14.8744 9.95535 15.1834 10.0396 15.4997 10.0546C15.8273 10.052 16.1493 9.96864 16.4371 9.81195C16.7249 9.65526 16.9696 9.43007 17.1496 9.15631C17.2292 9.07091 17.3366 9.01664 17.4526 9.00325C17.5686 8.98985 17.6855 9.0182 17.7825 9.08321C17.8794 9.14823 17.9501 9.24565 17.9817 9.358C18.0133 9.47036 18.0038 9.59029 17.9549 9.6963Z" fill="white"/>
</svg>
