<svg width="25" height="21" viewBox="0 0 25 21" fill="none" xmlns="http://www.w3.org/2000/svg">
<path fill-rule="evenodd" clip-rule="evenodd" d="M21.8805 0.802986C21.3873 0.600327 20.1064 0.248543 18.363 0.0611798C19.2615 1.20448 20.1294 2.35925 20.959 3.52549L23.3181 1.87364C22.886 1.39184 22.3852 1.00947 21.8805 0.802986ZM14.2987 0C15.7133 1.70539 17.0783 3.47961 18.3935 5.32265L16.0383 6.97068L15.7477 6.55772C15.6254 6.38183 15.3807 6.33594 15.201 6.46213C15.0251 6.58449 14.9792 6.82921 15.1054 7.00892L15.396 7.42189L14.9831 7.70867L14.6313 7.20393C14.509 7.02804 14.2643 6.98216 14.0846 7.10834C13.9087 7.2307 13.8628 7.47542 13.989 7.65514L14.3407 8.15987L13.8819 8.48106L13.5302 7.97633C13.4078 7.80044 13.1631 7.75455 12.9834 7.88074C12.8075 8.00692 12.7617 8.24782 12.8878 8.42753L13.2396 8.93227L12.7808 9.25346L12.429 8.74873C12.3067 8.57283 12.062 8.52695 11.8823 8.65313C11.7064 8.77932 11.6605 9.02021 11.7867 9.19993L12.1384 9.70466L11.6873 10.0182L11.3355 9.51347C11.2132 9.33758 10.9685 9.2917 10.7888 9.41788C10.6129 9.54406 10.567 9.78496 10.6932 9.96468L11.0449 10.4694L10.5861 10.7906L10.2344 10.2859C10.112 10.11 9.86733 10.0641 9.68763 10.1903C9.51175 10.3165 9.46587 10.5574 9.59204 10.7371L9.94379 11.2418L9.48499 11.563L9.13323 11.0583C9.01088 10.8824 8.76618 10.8365 8.58648 10.9627C8.41061 11.085 8.36473 11.3298 8.4909 11.5095L8.84265 12.0142L8.38384 12.3354L8.03209 11.8307C7.90974 11.6548 7.66504 11.6089 7.48534 11.7351C7.30946 11.8613 7.26358 12.1021 7.38975 12.2819L7.74151 12.7866L5.43217 14.404C4.1475 12.5381 2.94695 10.6491 1.83051 8.73343C1.99492 8.374 2.1708 8.01074 2.36579 7.64749C4.53367 3.55226 8.49854 0.77622 13.0905 0.137655C13.5034 0.0726514 13.9049 0.0305899 14.2987 0ZM0.507611 12.5648C0.0870356 14.2664 -0.0200198 15.5894 0.00292067 16.1247C0.0258611 16.6677 0.213208 17.268 0.515258 17.8454L2.8743 16.1936C2.06374 15.012 1.27229 13.8037 0.507611 12.5648ZM1.40994 19.1264L3.76898 17.4745C4.59866 18.6407 5.46658 19.7955 6.36508 20.9388C4.6216 20.7515 3.34458 20.3997 2.84754 20.197C2.34667 19.9905 1.84963 19.6043 1.40994 19.1264ZM10.4332 21C10.827 20.9694 11.2285 20.9274 11.6376 20.87C16.2295 20.2314 20.1905 17.4592 22.3622 13.3602C22.5534 12.9969 22.7331 12.6336 22.8975 12.2742C21.7811 10.3623 20.5805 8.46959 19.2959 6.60361L16.9406 8.25164L17.3574 8.84432C17.4797 9.02021 17.4377 9.26493 17.2618 9.39112C17.0859 9.51348 16.8412 9.47141 16.7151 9.29552L16.2983 8.70284L15.8854 8.98962L16.2371 9.49436C16.3595 9.67025 16.3174 9.91497 16.1415 10.0412C15.9657 10.1635 15.721 10.1215 15.5948 9.94556L15.243 9.44082L14.7842 9.76202L15.136 10.2668C15.2583 10.4426 15.2163 10.6874 15.0404 10.8135C14.8645 10.9359 14.6198 10.8938 14.4937 10.718L14.1419 10.2132L13.6831 10.5344L14.0348 11.0391C14.1572 11.215 14.1151 11.4598 13.9393 11.5859C13.7634 11.7083 13.5187 11.6662 13.3925 11.4903L13.0408 10.9856L12.582 11.3068L12.9337 11.8115C13.0561 11.9874 13.014 12.2322 12.8381 12.3583C12.6622 12.4807 12.4175 12.4386 12.2914 12.2627L11.9396 11.758L11.4808 12.0792L11.8326 12.5839C11.9549 12.7598 11.9129 13.0046 11.737 13.1307C11.5611 13.2531 11.3164 13.211 11.1902 13.0351L10.8385 12.5304L10.3797 12.8516L10.7314 13.3563C10.8538 13.5322 10.8117 13.7769 10.6358 13.9031C10.46 14.0255 10.2153 13.9834 10.0891 13.8075L9.73733 13.3028L9.27852 13.624L9.63027 14.1287C9.75262 14.3046 9.71057 14.5493 9.53469 14.6755C9.35881 14.7979 9.11411 14.7558 8.98794 14.5799L8.63619 14.0752L6.32685 15.6926C7.65357 17.5204 9.01853 19.2946 10.4332 21ZM24.2281 8.43135C23.4596 7.19246 22.6719 5.98416 21.8614 4.80645L24.2204 3.15459C24.5186 3.72815 24.7098 4.32848 24.7328 4.87527C24.7519 5.40677 24.6448 6.72979 24.2281 8.43135Z" fill="white"/>
</svg>
