<svg width="13" height="16" viewBox="0 0 13 16" fill="none" xmlns="http://www.w3.org/2000/svg">
<path d="M1.15286 16H0.533333C0.238802 16 0 15.7615 0 15.4667V0.533333C0 0.238542 0.238802 0 0.533333 0H1.15286C1.4474 0 1.6862 0.238542 1.6862 0.533333V15.4667C1.6862 15.7615 1.4474 16 1.15286 16ZM1.06667 14.9333H1.15286V1.06667H1.06667V14.9333Z" fill="white"/>
<path d="M1.06667 14.9333H1.15286V1.06667H1.06667V14.9333Z" fill="white"/>
<path d="M12.2641 11.5557H1.15287C0.858339 11.5557 0.619537 11.3172 0.619537 11.0224V2.13331C0.619537 1.83852 0.858339 1.59998 1.15287 1.59998H12.2641C12.5586 1.59998 12.7974 1.83852 12.7974 2.13331V11.0224C12.7974 11.3172 12.5586 11.5557 12.2641 11.5557ZM1.6862 10.489H11.7307V2.66664H1.6862V10.489Z" fill="white"/>
<path d="M3.37513 2.1333H1.15291V4.35552H3.37513V2.1333Z" fill="white"/>
<path d="M7.81957 2.1333H5.59735V4.35552H7.81957V2.1333Z" fill="white"/>
<path d="M12.264 2.1333H10.0418V4.35552H12.264V2.1333Z" fill="white"/>
<path d="M3.37513 6.57776H1.15291V8.79998H3.37513V6.57776Z" fill="white"/>
<path d="M7.81957 6.57776H5.59735V8.79998H7.81957V6.57776Z" fill="white"/>
<path d="M12.264 6.57776H10.0418V8.79998H12.264V6.57776Z" fill="white"/>
<path d="M5.59736 4.35559H3.37514V6.57781H5.59736V4.35559Z" fill="white"/>
<path d="M10.0418 4.35559H7.81958V6.57781H10.0418V4.35559Z" fill="white"/>
<path d="M5.59736 8.80005H3.37514V11.0223H5.59736V8.80005Z" fill="white"/>
<path d="M10.0418 8.80005H7.81958V11.0223H10.0418V8.80005Z" fill="white"/>
</svg>
