<svg width="31" height="31" viewBox="0 0 31 31" fill="none" xmlns="http://www.w3.org/2000/svg">
<path d="M11.7064 19.1639L5.90532 24.0054C5.88195 24.0249 5.86273 24.049 5.84882 24.0761C5.83491 24.1033 5.8266 24.133 5.82438 24.1634C5.82216 24.1938 5.82609 24.2244 5.83593 24.2532C5.84576 24.282 5.8613 24.3085 5.88161 24.3311L7.46095 26.087C7.48126 26.1096 7.5059 26.1278 7.53341 26.1405C7.56092 26.1532 7.59072 26.1602 7.62102 26.161C7.65131 26.1617 7.68147 26.1564 7.70968 26.1451C7.73789 26.1339 7.76356 26.117 7.78515 26.0955L13.1442 20.7625C13.1817 20.7247 13.2045 20.6747 13.2087 20.6216C13.2128 20.5685 13.198 20.5157 13.1668 20.4727C15.6216 19.2729 18.6617 18.9251 21.0336 18.6562L21.231 18.6339C22.98 18.3713 24.6119 17.5857 25.9149 16.3793C29.0917 13.483 29.7443 8.97874 27.3697 6.33864C24.9945 3.69798 20.4784 3.90674 17.3019 6.803C15.979 7.98727 15.0425 9.54607 14.6159 11.2738C14.6102 11.2726 14.5685 11.4691 14.5685 11.4691C14.0681 13.8186 13.4235 16.8295 11.995 19.1699C11.9556 19.1344 11.9049 19.1144 11.852 19.1133C11.7991 19.1122 11.7475 19.1301 11.7064 19.1639ZM15.8471 16.8435C16.3304 17.3788 16.9153 17.8114 17.5675 18.1159C15.9927 18.362 14.4549 18.8094 12.9914 19.4471C13.7662 18.0442 14.3604 16.5481 14.7595 14.9951C14.9962 15.6783 15.3659 16.3066 15.8471 16.8435ZM8.37892 13.6664C7.84162 13.989 7.22336 14.1479 6.59924 14.1238C6.65272 13.79 6.77844 13.4718 6.96748 13.1918C7.15653 12.9118 7.40428 12.6769 7.69319 12.5037C7.9821 12.3304 8.30511 12.2231 8.63933 12.1893C8.97355 12.1555 9.31081 12.196 9.62723 12.308C9.35021 12.8725 8.91654 13.3444 8.37892 13.6664ZM3.52215 10.3716C3.97212 10.5268 4.45063 10.5813 4.92439 10.5315C5.39816 10.4816 5.8558 10.3285 6.2655 10.0828C6.6752 9.83717 7.02713 9.50481 7.2968 9.10888C7.56647 8.71295 7.74741 8.26295 7.82705 7.79018C8.53536 8.04497 9.13264 8.54022 9.51641 9.19095C9.90019 9.84168 10.0465 10.6073 9.93033 11.3566C9.48035 11.2014 9.00185 11.1468 8.5281 11.1967C8.05434 11.2466 7.59671 11.3997 7.18702 11.6454C6.77733 11.8911 6.42541 12.2234 6.15574 12.6193C5.88607 13.0153 5.70512 13.4652 5.62547 13.938C4.91713 13.6832 4.31983 13.188 3.93605 12.5372C3.55227 11.8865 3.40593 11.1208 3.52215 10.3716ZM5.75929 9.22458C5.47038 9.39781 5.14737 9.50512 4.81315 9.53892C4.47893 9.57271 4.14167 9.53216 3.82526 9.42013C4.10253 8.85584 4.53614 8.38399 5.07356 8.06173C5.61099 7.73946 6.22918 7.58061 6.85328 7.6044C6.79978 7.93823 6.67405 8.2564 6.48501 8.53639C6.29596 8.81637 6.04821 9.05131 5.75929 9.22458Z" fill="white"/>
</svg>
