<svg width="22" height="22" viewBox="0 0 22 22" fill="none" xmlns="http://www.w3.org/2000/svg">
<path fill-rule="evenodd" clip-rule="evenodd" d="M11 0C14.0371 0 16.7861 1.23053 18.7797 3.22033C20.7695 5.21013 22 7.9592 22 11C22 14.0408 20.7695 16.7861 18.7797 18.7797C16.7899 20.7695 14.0408 22 11 22C7.96294 22 5.21387 20.7695 3.22033 18.7797C1.23053 16.7899 0 14.0408 0 11C0 7.9592 1.23053 5.21387 3.22033 3.22033C5.21013 1.23053 7.96294 0 11 0ZM19.4417 5.26624H18.3907C17.6352 5.26624 17.2312 5.6253 16.9844 6.28732C16.8722 6.62768 16.7637 6.96804 16.6515 7.3084L16.3186 8.32948C16.1091 8.98776 16.2475 9.55253 16.8572 9.98266L17.7249 10.6148L18.5927 11.2469C19.0938 11.6134 19.6998 11.7032 20.3281 11.2469L21.1921 10.6185C21.1248 8.63992 20.4852 6.80347 19.4417 5.26624ZM19.019 17.3098L18.9854 17.2088L18.66 16.184C18.4019 15.4471 17.9194 15.1329 17.2611 15.1516C16.9021 15.1479 16.5468 15.1479 16.1877 15.1442L15.1142 15.1367C14.3587 15.1292 13.951 15.4883 13.7042 16.1503C13.592 16.4907 13.4798 16.831 13.3638 17.1676L13.0235 18.1887C12.8065 18.847 12.9449 19.408 13.5508 19.8456L14.4148 20.4815L14.5382 20.5712C15.9334 20.0551 17.1826 19.2435 18.2149 18.2112C18.4991 17.9306 18.7684 17.6277 19.019 17.3098ZM7.43183 20.5638L7.54029 20.4852L8.40428 19.8494C9.0102 19.4155 9.14485 18.8507 8.93165 18.1925L8.5913 17.1751C8.47909 16.8347 8.36688 16.4944 8.25467 16.1578C8.00408 15.4957 7.5964 15.1404 6.84087 15.1479L5.76743 15.1554C5.40836 15.1591 5.05304 15.1591 4.69398 15.1629C4.0357 15.1442 3.55321 15.4546 3.29514 16.1952L2.96974 17.22L2.95104 17.2836C3.20911 17.6127 3.48589 17.9306 3.78511 18.2261C4.80619 19.2397 6.04794 20.0476 7.43183 20.5638ZM0.804148 10.5848L0.84155 10.611C1.12955 10.8205 1.42128 11.0299 1.70928 11.2431C2.33764 11.6994 2.9473 11.6097 3.44475 11.2431L4.31248 10.611L5.18021 9.97892C5.78987 9.54879 5.92826 8.98402 5.7188 8.32574L5.38592 7.30466C5.27372 6.9643 5.16525 6.62394 5.05304 6.28358C4.80619 5.62156 4.40224 5.2625 3.64672 5.2625H2.57327H2.55457C1.51479 6.79225 0.882693 8.61748 0.804148 10.5848ZM8.17987 1.18939L7.85447 2.19551C7.6151 2.93608 7.88813 3.48589 8.39306 3.84869L9.2608 4.48079L10.1285 5.11289C10.727 5.55797 11.3067 5.51683 11.864 5.11289L12.7317 4.48079C13.0197 4.27134 13.3115 4.06188 13.5995 3.84869C14.153 3.41108 14.3699 2.91364 14.138 2.19551L13.8126 1.18939C12.9187 0.935056 11.9762 0.796668 11 0.796668C10.0201 0.792927 9.07378 0.931315 8.17987 1.18939ZM11.864 7.99286C11.303 7.58892 10.7232 7.54777 10.1285 7.99286L9.2608 8.62496L8.39306 9.25706C7.89187 9.61986 7.61884 10.1697 7.85447 10.9102C7.96668 11.2506 8.07514 11.591 8.18735 11.9313L8.52023 12.9524C8.77083 13.678 9.23835 13.966 9.92655 13.9735C10.2856 13.9735 10.6409 13.9735 11 13.9735H12.0734C12.8552 13.951 13.3002 13.5845 13.4798 12.9524C13.592 12.612 13.7004 12.2717 13.8126 11.9313L14.1455 10.9102C14.3812 10.1921 14.1642 9.69466 13.6069 9.25706C13.3189 9.0476 13.0272 8.83815 12.7392 8.62496L11.864 7.99286Z" fill="white"/>
</svg>
