<svg width="29" height="28" viewBox="0 0 29 28" fill="none" xmlns="http://www.w3.org/2000/svg">
<path d="M2.71088 23.9182C2.46698 24.0854 1.89871 23.6811 1.44262 23.016C0.986526 22.3508 0.814191 21.675 1.05809 21.5077C1.1832 21.422 1.3923 21.4858 1.62811 21.6582C5.62016 19.7755 14.6235 12.2552 14.6235 12.2552C19.1498 8.57423 24.4625 4.56475 24.9455 4.23354C25.8166 3.63628 27.08 3.96441 27.7661 4.96667C28.4534 5.96919 28.3044 7.26464 27.4334 7.8619C26.9503 8.19311 21.2956 11.7037 16.2307 14.5991C16.2307 14.5991 5.97092 20.287 2.77594 23.3323C2.85046 23.6141 2.83441 23.8335 2.71088 23.9182Z" fill="white"/>
<path d="M8.73045 4.79757L8.73165 4.58833C8.73177 4.53307 8.77661 4.48761 8.83327 4.488C8.88853 4.48812 8.93399 4.53296 8.9336 4.58962L8.93238 4.77559C9.09505 4.75355 9.25929 4.72308 9.42255 4.68225L9.38624 4.4791C9.376 4.42482 9.41346 4.37217 9.46773 4.36192C9.52201 4.35168 9.57467 4.38914 9.58491 4.44341L9.61874 4.62864C9.78972 4.57761 9.95858 4.51455 10.1248 4.44226L10.0337 4.25217C10.0095 4.20256 10.0311 4.14114 10.0819 4.1186C10.1315 4.09439 10.1929 4.11603 10.2154 4.16678L10.3063 4.35828C10.4743 4.27615 10.6389 4.18173 10.7996 4.07642L10.683 3.9063C10.6509 3.85959 10.6639 3.798 10.7092 3.76572C10.7545 3.73343 10.8175 3.74664 10.8497 3.79193L10.9664 3.96206C11.1226 3.85008 11.2699 3.73064 11.4071 3.60348L11.2612 3.44972C11.2223 3.409 11.224 3.34531 11.2644 3.30776C11.3049 3.27021 11.3686 3.2719 11.4064 3.31096L11.5509 3.46445C11.6799 3.33432 11.7981 3.19927 11.9085 3.05984L11.7479 2.96152C11.701 2.93241 11.6848 2.8712 11.7141 2.82285C11.7435 2.77451 11.8045 2.75969 11.8528 2.78907L12.0306 2.89641C12.1276 2.75884 12.2149 2.61803 12.2943 2.47283L12.119 2.40668C12.0674 2.38688 12.0406 2.32805 12.0604 2.27647C12.0802 2.22488 12.139 2.19803 12.1906 2.21783L12.3876 2.29239C12.4138 2.23764 12.4401 2.18289 12.4635 2.12761C11.6122 1.88741 10.6664 2.01362 9.87941 2.55201C9.09383 3.09066 8.63498 3.9288 8.55223 4.80943C8.61082 4.80727 8.67134 4.80255 8.73045 4.79757Z" fill="white"/>
<path d="M10.5669 7.79191L10.3972 7.72681C10.3456 7.70701 10.3187 7.64818 10.3385 7.5966C10.3583 7.54502 10.4172 7.51816 10.4687 7.53797L10.659 7.60981C10.7458 7.44853 10.8424 7.28908 10.9496 7.13595L10.7915 7.03957C10.7446 7.01045 10.7284 6.94924 10.7577 6.9009C10.7868 6.85396 10.8481 6.83773 10.8964 6.86711L11.0689 6.972C11.1938 6.8091 11.3306 6.65278 11.4792 6.50303L11.3552 6.37227C11.3177 6.33181 11.3194 6.26812 11.3584 6.23031C11.3989 6.19276 11.4626 6.19445 11.5004 6.23351L11.6233 6.3626C11.7726 6.22463 11.9322 6.09437 12.1017 5.97324L11.9976 5.82146C11.9653 5.77617 11.9771 5.71291 12.0238 5.68088C12.0691 5.6486 12.1324 5.6604 12.1644 5.7071L12.2685 5.85888C12.4426 5.74442 12.6218 5.64111 12.8044 5.5515L12.7282 5.39038C12.704 5.34078 12.7257 5.27935 12.7764 5.25681C12.826 5.23261 12.8875 5.25424 12.91 5.30499L12.9873 5.46778C13.1805 5.38308 13.3757 5.31182 13.5726 5.254L13.5367 5.05674C13.5264 5.00246 13.5639 4.9498 13.6182 4.93956C13.6725 4.92932 13.7251 4.96677 13.7354 5.02105L13.7686 5.2018C13.9514 5.15735 14.1336 5.1244 14.3153 5.10155L14.3166 4.8996C14.3167 4.84434 14.3616 4.79888 14.4182 4.79927C14.4735 4.79939 14.5189 4.84423 14.5185 4.90089L14.5181 5.08264C14.5831 5.07731 14.6464 5.07311 14.7107 5.072C14.7065 4.47773 14.5302 3.87899 14.1702 3.35219C13.8088 2.82514 13.3136 2.44623 12.7608 2.22823C12.7352 2.28746 12.7084 2.34502 12.6814 2.40399L12.8511 2.46909C12.9027 2.48889 12.9296 2.54772 12.9098 2.59931C12.89 2.65089 12.8311 2.67774 12.7795 2.65794L12.5907 2.58636C12.5036 2.74905 12.4072 2.90709 12.3001 3.06022L12.4568 3.15634C12.5037 3.18546 12.5199 3.24667 12.4906 3.29501C12.4614 3.34195 12.4002 3.35817 12.3519 3.32879L12.1808 3.22416C12.0559 3.38706 11.9191 3.54339 11.7705 3.69313L11.8944 3.8239C11.932 3.86436 11.9303 3.92805 11.8912 3.96586C11.8508 4.00341 11.7871 4.00171 11.7493 3.96266L11.6264 3.83356C11.4771 3.97154 11.3175 4.1018 11.1466 4.22267L11.2507 4.37444C11.2827 4.42115 11.2697 4.48274 11.2244 4.51502C11.1777 4.54704 11.1162 4.5341 11.0839 4.48881L10.9798 4.33703C10.8057 4.45149 10.6264 4.55479 10.4442 4.643L10.5203 4.80411C10.5445 4.85372 10.5229 4.91515 10.4721 4.93769C10.4225 4.96189 10.3611 4.94026 10.3386 4.8895L10.2613 4.72672C10.068 4.81142 9.87289 4.88268 9.67591 4.9405L9.7116 5.13917C9.72184 5.19344 9.68438 5.2461 9.63011 5.25634C9.57583 5.26659 9.52317 5.22913 9.51293 5.17485L9.47998 4.9927C9.29854 5.03742 9.11498 5.0701 8.93325 5.09295L8.9317 5.29631C8.93158 5.35156 8.88533 5.39676 8.83007 5.39664C8.77482 5.39652 8.72962 5.35027 8.72974 5.29501L8.73018 5.11326C8.66658 5.11886 8.60211 5.12139 8.53904 5.12417C8.53823 5.01929 8.54331 4.91404 8.55234 4.81099C8.48706 5.50432 8.65407 6.22351 9.0795 6.84397C9.44089 7.37103 9.93609 7.74994 10.4889 7.96794C10.5131 7.90845 10.5401 7.84948 10.5669 7.79191Z" fill="white"/>
<path d="M14.7103 5.07192C14.7111 5.17681 14.706 5.28205 14.697 5.3851C14.637 5.38701 14.5765 5.39172 14.5159 5.39644L14.5145 5.60709C14.5144 5.66234 14.4695 5.7078 14.4129 5.70742C14.3576 5.7073 14.3121 5.66246 14.3125 5.6058L14.314 5.41842C14.1513 5.44046 13.9871 5.47093 13.8238 5.51176L13.8599 5.71632C13.8701 5.77059 13.8327 5.82325 13.7784 5.83349C13.7241 5.84374 13.6715 5.80628 13.6612 5.752L13.6274 5.56677C13.4564 5.61781 13.2875 5.68087 13.1211 5.75456L13.2122 5.94465C13.2364 5.99426 13.2147 6.05569 13.164 6.07822C13.1144 6.10243 13.053 6.08079 13.0304 6.03004L12.9398 5.83714C12.7718 5.91927 12.6073 6.01369 12.4465 6.119L12.5632 6.28912C12.5952 6.33582 12.5837 6.39768 12.537 6.4297C12.4903 6.46172 12.4284 6.45019 12.3964 6.40349L12.2797 6.23336C12.1236 6.34534 11.9762 6.46478 11.839 6.59194L11.9849 6.7457C12.0225 6.78616 12.0208 6.84984 11.9817 6.88766C11.9413 6.92521 11.8773 6.92492 11.8398 6.88446L11.6953 6.73096C11.5663 6.8611 11.448 6.99615 11.3376 7.13558L11.4982 7.23389C11.5452 7.26301 11.5614 7.32422 11.532 7.37256C11.5029 7.4195 11.4417 7.43573 11.3933 7.40635L11.2169 7.29926C11.12 7.43684 11.0326 7.57765 10.9532 7.72285L11.1271 7.78873C11.1787 7.80854 11.2055 7.86736 11.1857 7.91895C11.1659 7.97053 11.1071 7.99738 11.0555 7.97758L10.8599 7.90329C10.834 7.95663 10.8077 8.01139 10.7843 8.06666C10.6836 8.03769 10.585 8.00476 10.4874 7.9662C11.4087 8.33001 12.4894 8.24496 13.3684 7.64226C14.2474 7.03957 14.7176 6.06245 14.7103 5.07192Z" fill="white"/>
</svg>
