<svg width="176" height="59" viewBox="0 0 176 59" fill="none" xmlns="http://www.w3.org/2000/svg">
<g clip-path="url(#clip0_769_12259)">
<path d="M166.793 0.870605H9.20643C4.87882 0.870605 1.37061 4.37882 1.37061 8.70643V49.6268C1.37061 53.9544 4.87882 57.4626 9.20643 57.4626H166.793C171.121 57.4626 174.629 53.9544 174.629 49.6268V8.70643C174.629 4.37882 171.121 0.870605 166.793 0.870605Z" stroke="#F16648" stroke-width="2"/>
<path d="M62.1902 39.5784H55.2873L53.6296 44.4732H50.7058L57.2441 26.3636H60.2818L66.8201 44.4732H63.8465L62.1902 39.5784ZM56.0022 37.3197H61.4739L58.7765 29.3757H58.701L56.0022 37.3197Z" fill="#F16648"/>
<path d="M80.9411 37.8724C80.9411 41.9754 78.7451 44.6114 75.431 44.6114C74.5916 44.6554 73.7567 44.4619 73.022 44.0534C72.2873 43.6449 71.6825 43.0377 71.2768 42.3014H71.2141V48.8411H68.5039V31.27H71.1273V33.466H71.1771C71.6014 32.7333 72.2164 32.1292 72.9567 31.7182C73.6971 31.3072 74.5349 31.1046 75.3812 31.1318C78.7322 31.1318 80.9411 33.7808 80.9411 37.8724ZM78.1555 37.8724C78.1555 35.1992 76.774 33.4418 74.6663 33.4418C72.5955 33.4418 71.2027 35.2362 71.2027 37.8724C71.2027 40.5327 72.5955 42.3143 74.6663 42.3143C76.774 42.3143 78.1555 40.5697 78.1555 37.8724Z" fill="#F16648"/>
<path d="M95.4727 37.8724C95.4727 41.9754 93.2769 44.6115 89.9624 44.6115C89.1231 44.6555 88.2881 44.462 87.5534 44.0535C86.8187 43.645 86.2139 43.0378 85.8082 42.3015H85.7456V48.8413H83.0354V31.27H85.6587V33.4661H85.7085C86.1328 32.7333 86.7478 32.1293 87.4882 31.7182C88.228 31.3073 89.0665 31.1046 89.9127 31.132C93.2638 31.132 95.4727 33.7808 95.4727 37.8724ZM92.6866 37.8724C92.6866 35.1993 91.3058 33.4419 89.1979 33.4419C87.127 33.4419 85.7341 35.2363 85.7341 37.8724C85.7341 40.5328 87.127 42.3144 89.1979 42.3144C91.3058 42.3144 92.6866 40.5698 92.6866 37.8724Z" fill="#F16648"/>
<path d="M105.077 39.4275C105.278 41.2234 107.023 42.4025 109.407 42.4025C111.691 42.4025 113.334 41.2234 113.334 39.6041C113.334 38.1984 112.343 37.3568 109.996 36.78L107.649 36.2146C104.324 35.4114 102.78 33.8561 102.78 31.3326C102.78 28.208 105.503 26.0618 109.369 26.0618C113.197 26.0618 115.82 28.208 115.908 31.3326H113.172C113.008 29.5254 111.514 28.4345 109.331 28.4345C107.148 28.4345 105.654 29.5382 105.654 31.1446C105.654 32.4249 106.608 33.1783 108.943 33.7551L110.937 34.245C114.653 35.1236 116.197 36.6162 116.197 39.265C116.197 42.6532 113.498 44.7751 109.205 44.7751C105.189 44.7751 102.478 42.703 102.303 39.4274L105.077 39.4275Z" fill="#F16648"/>
<path d="M122.047 28.1454V31.27H124.558V33.4162H122.047V40.6951C122.047 41.8258 122.549 42.3528 123.653 42.3528C123.951 42.3475 124.249 42.3267 124.545 42.29V44.4234C124.048 44.5162 123.544 44.5581 123.039 44.5487C120.366 44.5487 119.323 43.5447 119.323 40.9841V33.4162H117.404V31.27H119.323V28.1454H122.047Z" fill="#F16648"/>
<path d="M126.01 37.8723C126.01 33.7181 128.456 31.1077 132.272 31.1077C136.1 31.1077 138.536 33.718 138.536 37.8723C138.536 42.038 136.113 44.6371 132.272 44.6371C128.433 44.6371 126.01 42.038 126.01 37.8723ZM135.774 37.8723C135.774 35.0226 134.468 33.3407 132.272 33.3407C130.076 33.3407 128.771 35.0354 128.771 37.8723C128.771 40.7334 130.076 42.4026 132.272 42.4026C134.468 42.4026 135.774 40.7334 135.774 37.8723Z" fill="#F16648"/>
<path d="M140.77 31.27H143.355V33.5173H143.417C143.592 32.8155 144.003 32.1952 144.582 31.7608C145.16 31.3264 145.871 31.1043 146.594 31.1319C146.906 31.1308 147.217 31.1648 147.522 31.233V33.768C147.128 33.6475 146.716 33.5922 146.304 33.6042C145.911 33.5883 145.518 33.6577 145.153 33.8077C144.79 33.9578 144.462 34.1849 144.193 34.4735C143.925 34.7621 143.722 35.1053 143.599 35.4796C143.477 35.8539 143.436 36.2505 143.48 36.6419V44.4734H140.77V31.27Z" fill="#F16648"/>
<path d="M160.019 40.5954C159.654 42.9922 157.32 44.6371 154.334 44.6371C150.492 44.6371 148.109 42.0636 148.109 37.935C148.109 33.7936 150.506 31.1077 154.22 31.1077C157.873 31.1077 160.17 33.617 160.17 37.6203V38.5488H150.844V38.7126C150.802 39.1985 150.862 39.6881 151.023 40.1486C151.184 40.6092 151.441 41.0303 151.777 41.3841C152.113 41.7378 152.519 42.016 152.971 42.2002C153.423 42.3844 153.909 42.4704 154.396 42.4525C155.036 42.5124 155.68 42.3641 156.229 42.0295C156.779 41.6949 157.205 41.1919 157.445 40.5954H160.019ZM150.857 36.6547H157.459C157.483 36.2178 157.417 35.7806 157.263 35.3704C157.111 34.9604 156.875 34.5862 156.571 34.2716C156.267 33.9569 155.901 33.7085 155.497 33.542C155.092 33.3754 154.658 33.2943 154.22 33.3037C153.778 33.3011 153.341 33.3858 152.933 33.5531C152.524 33.7205 152.153 33.967 151.84 34.2786C151.528 34.5902 151.28 34.9605 151.112 35.3684C150.943 35.7762 150.856 36.2134 150.857 36.6547Z" fill="#F16648"/>
<path d="M55.6634 12.7326C56.2316 12.6919 56.8018 12.7777 57.3327 12.984C57.8637 13.1903 58.3423 13.5118 58.734 13.9254C59.1257 14.339 59.4207 14.8344 59.5977 15.3758C59.7747 15.9173 59.8294 16.4913 59.7578 17.0564C59.7578 19.8363 58.2554 21.4343 55.6634 21.4343H52.5203V12.7326H55.6634ZM53.8718 20.2037H55.5124C55.9184 20.228 56.3247 20.1614 56.7018 20.0088C57.0788 19.8563 57.417 19.6215 57.692 19.3218C57.9669 19.022 58.1715 18.6647 58.2908 18.2759C58.4102 17.887 58.4414 17.4765 58.3821 17.0741C58.4371 16.6734 58.4027 16.2653 58.2815 15.8793C58.1603 15.4934 57.9552 15.139 57.6809 14.8416C57.4067 14.5442 57.0701 14.3111 56.6951 14.1592C56.3202 14.0072 55.9163 13.94 55.5124 13.9623H53.8718V20.2037Z" fill="#F16648"/>
<path d="M61.2856 18.148C61.2444 17.7164 61.2937 17.281 61.4306 16.8696C61.5675 16.4583 61.7888 16.0801 62.0804 15.7593C62.3719 15.4385 62.7273 15.1821 63.1238 15.0068C63.5202 14.8314 63.9489 14.7407 64.3824 14.7407C64.816 14.7407 65.2447 14.8314 65.6412 15.0068C66.0376 15.1821 66.393 15.4385 66.6846 15.7593C66.9762 16.0801 67.1975 16.4583 67.3344 16.8696C67.4712 17.281 67.5206 17.7164 67.4793 18.148C67.5214 18.5799 67.4726 19.0159 67.3361 19.428C67.1996 19.84 66.9785 20.2189 66.6868 20.5404C66.3951 20.8618 66.0395 21.1186 65.6426 21.2944C65.2458 21.4702 64.8165 21.561 64.3824 21.561C63.9484 21.561 63.5192 21.4702 63.1224 21.2944C62.7255 21.1186 62.3699 20.8618 62.0782 20.5404C61.7865 20.2189 61.5654 19.84 61.4289 19.428C61.2923 19.0159 61.2436 18.5799 61.2856 18.148ZM66.1463 18.148C66.1463 16.7246 65.5068 15.8922 64.3846 15.8922C63.2581 15.8922 62.6244 16.7246 62.6244 18.148C62.6244 19.5828 63.2582 20.4088 64.3846 20.4088C65.5069 20.4088 66.1463 19.5771 66.1463 18.148Z" fill="#F16648"/>
<path d="M75.7111 21.4343H74.3668L73.0095 16.5979H72.9071L71.5555 21.4343H70.2239L68.4138 14.8676H69.7283L70.9047 19.8783H71.0016L72.3516 14.8676H73.5949L74.945 19.8783H75.0475L76.2182 14.8676H77.5142L75.7111 21.4343Z" fill="#F16648"/>
<path d="M79.0369 14.8675H80.2844V15.9107H80.3812C80.5455 15.536 80.8226 15.2219 81.1739 15.0122C81.5252 14.8025 81.9332 14.7076 82.3409 14.7407C82.6604 14.7167 82.9812 14.7648 83.2796 14.8817C83.578 14.9985 83.8462 15.1809 84.0645 15.4155C84.2829 15.65 84.4455 15.9307 84.5407 16.2368C84.6357 16.5427 84.6607 16.8661 84.6138 17.1832V21.4342H83.3178V17.5086C83.3178 16.4533 82.8593 15.9285 81.9009 15.9285C81.6839 15.9184 81.4674 15.9553 81.266 16.0367C81.0647 16.1182 80.8833 16.2422 80.7344 16.4002C80.5855 16.5583 80.4725 16.7466 80.4032 16.9524C80.3339 17.1583 80.3098 17.3766 80.3328 17.5926V21.4343H79.0369V14.8675Z" fill="#F16648"/>
<path d="M86.6787 12.304H87.9748V21.4342H86.6787V12.304Z" fill="#F16648"/>
<path d="M89.7762 18.1481C89.7353 17.7165 89.7849 17.2811 89.9216 16.8697C90.0583 16.4583 90.2795 16.0801 90.5711 15.7593C90.8628 15.4385 91.218 15.1821 91.615 15.0068C92.0112 14.8314 92.4404 14.7407 92.874 14.7407C93.3076 14.7407 93.7359 14.8314 94.1321 15.0068C94.5291 15.1821 94.8843 15.4385 95.176 15.7593C95.4676 16.0801 95.6888 16.4583 95.8255 16.8697C95.963 17.2811 96.0118 17.7165 95.9709 18.1481C96.0127 18.5801 95.9639 19.0161 95.8272 19.4281C95.6905 19.8401 95.4694 20.219 95.1777 20.5404C94.886 20.8619 94.5308 21.1187 94.1338 21.2945C93.7368 21.4703 93.3076 21.5611 92.874 21.5611C92.4395 21.5611 92.0103 21.4703 91.6133 21.2945C91.2163 21.1187 90.861 20.8619 90.5694 20.5404C90.2777 20.219 90.0566 19.8401 89.9199 19.4281C89.7832 19.0161 89.7344 18.5801 89.7762 18.1481ZM94.637 18.1481C94.637 16.7247 93.998 15.8922 92.8757 15.8922C91.7491 15.8922 91.1153 16.7247 91.1153 18.1481C91.1153 19.5829 91.7491 20.4089 92.8757 20.4089C93.998 20.4089 94.637 19.5773 94.637 18.1481Z" fill="#F16648"/>
<path d="M97.3342 19.5772C97.3342 18.3951 98.2145 17.7136 99.7764 17.6168L101.555 17.5143V16.9475C101.555 16.2539 101.096 15.8623 100.211 15.8623C99.4873 15.8623 98.9858 16.1278 98.8422 16.5922H97.5876C97.7199 15.4642 98.7812 14.7407 100.271 14.7407C101.917 14.7407 102.845 15.5603 102.845 16.9475V21.4343H101.598V20.5114H101.495C101.287 20.8425 100.995 21.1123 100.649 21.2935C100.302 21.4746 99.9131 21.5605 99.523 21.5425C99.247 21.5711 98.9684 21.5417 98.7046 21.4561C98.4417 21.3705 98.1988 21.2306 97.9924 21.0454C97.7861 20.8603 97.6207 20.634 97.5075 20.381C97.3943 20.1282 97.3351 19.8543 97.3342 19.5772ZM101.555 19.016V18.467L99.9514 18.5696C99.0468 18.6301 98.6367 18.9377 98.6367 19.5167C98.6367 20.1077 99.1495 20.4516 99.8547 20.4516C100.061 20.4725 100.27 20.4516 100.469 20.3903C100.667 20.3289 100.851 20.2282 101.009 20.0942C101.168 19.9603 101.298 19.7959 101.391 19.6106C101.485 19.4254 101.541 19.2232 101.555 19.016Z" fill="#F16648"/>
<path d="M104.549 18.148C104.549 16.073 105.616 14.7585 107.275 14.7585C107.685 14.7396 108.093 14.8379 108.449 15.0419C108.806 15.246 109.097 15.5472 109.289 15.9106H109.386V12.304H110.681V21.4342H109.44V20.3967H109.337C109.131 20.7576 108.829 21.0552 108.465 21.2572C108.102 21.4591 107.691 21.5577 107.275 21.5424C105.605 21.5425 104.549 20.228 104.549 18.148ZM105.887 18.148C105.887 19.5409 106.545 20.3789 107.643 20.3789C108.735 20.3789 109.41 19.5288 109.41 18.1537C109.41 16.7851 108.728 15.9228 107.643 15.9228C106.552 15.9228 105.887 16.7665 105.887 18.148Z" fill="#F16648"/>
<path d="M116.044 18.148C116.003 17.7164 116.051 17.281 116.189 16.8696C116.326 16.4583 116.547 16.0801 116.838 15.7593C117.13 15.4385 117.485 15.1821 117.881 15.0068C118.278 14.8314 118.707 14.7407 119.14 14.7407C119.574 14.7407 120.002 14.8314 120.399 15.0068C120.796 15.1821 121.151 15.4385 121.442 15.7593C121.734 16.0801 121.955 16.4583 122.093 16.8696C122.229 17.281 122.278 17.7164 122.237 18.148C122.279 18.5799 122.23 19.0159 122.095 19.428C121.958 19.84 121.737 20.2189 121.445 20.5404C121.153 20.8618 120.797 21.1186 120.4 21.2944C120.004 21.4702 119.575 21.561 119.14 21.561C118.707 21.561 118.278 21.4702 117.881 21.2944C117.484 21.1186 117.127 20.8618 116.836 20.5404C116.544 20.2189 116.323 19.84 116.187 19.428C116.051 19.0159 116.002 18.5799 116.044 18.148ZM120.904 18.148C120.904 16.7246 120.264 15.8922 119.143 15.8922C118.016 15.8922 117.383 16.7246 117.383 18.148C117.383 19.5828 118.016 20.4088 119.143 20.4088C120.265 20.4088 120.904 19.5771 120.904 18.148Z" fill="#F16648"/>
<path d="M123.976 14.8675H125.224V15.9107H125.32C125.485 15.536 125.762 15.2219 126.114 15.0122C126.464 14.8025 126.873 14.7076 127.28 14.7407C127.6 14.7167 127.921 14.7648 128.219 14.8817C128.517 14.9985 128.786 15.1809 129.004 15.4155C129.223 15.65 129.385 15.9307 129.48 16.2368C129.575 16.5427 129.6 16.8661 129.553 17.1832V21.4342H128.257V17.5086C128.257 16.4533 127.799 15.9285 126.84 15.9285C126.624 15.9184 126.407 15.9553 126.206 16.0367C126.004 16.1182 125.823 16.2422 125.674 16.4002C125.525 16.5583 125.412 16.7466 125.343 16.9524C125.273 17.1583 125.249 17.3766 125.272 17.5926V21.4343H123.976V14.8675Z" fill="#F16648"/>
<path d="M136.875 13.2324V14.8973H138.298V15.9889H136.875V19.3655C136.875 20.0534 137.158 20.3547 137.804 20.3547C137.969 20.3541 138.134 20.3441 138.298 20.3247V21.4042C138.066 21.4458 137.83 21.468 137.593 21.4705C136.152 21.4705 135.578 20.9634 135.578 19.6974V15.9888H134.535V14.8972H135.578V13.2324H136.875Z" fill="#F16648"/>
<path d="M140.07 12.304H141.354V15.9227H141.457C141.629 15.5446 141.914 15.2287 142.272 15.0182C142.63 14.8077 143.045 14.7128 143.459 14.7464C143.777 14.7291 144.095 14.7822 144.39 14.9018C144.684 15.0214 144.95 15.2047 145.166 15.4385C145.382 15.6724 145.544 15.951 145.639 16.2545C145.735 16.558 145.763 16.879 145.72 17.1946V21.4343H144.423V17.5143C144.423 16.4653 143.935 15.9341 143.019 15.9341C142.797 15.9158 142.572 15.9465 142.362 16.0239C142.153 16.1012 141.963 16.2234 141.805 16.3821C141.647 16.5406 141.526 16.7317 141.451 16.9419C141.375 17.1521 141.346 17.3763 141.365 17.599V21.4342H140.07V12.304Z" fill="#F16648"/>
<path d="M153.277 19.6612C153.101 20.2613 152.72 20.7805 152.199 21.1278C151.679 21.4751 151.053 21.6284 150.431 21.5609C149.999 21.5724 149.569 21.4895 149.172 21.3181C148.774 21.1468 148.419 20.8909 148.129 20.5684C147.841 20.2459 147.626 19.8645 147.5 19.4506C147.374 19.0367 147.339 18.6002 147.398 18.1715C147.34 17.7415 147.376 17.3041 147.502 16.8889C147.628 16.4737 147.842 16.0906 148.129 15.7652C148.416 15.4399 148.769 15.1801 149.166 15.0033C149.562 14.8266 149.992 14.737 150.425 14.7407C152.253 14.7407 153.355 15.989 153.355 18.0511V18.5033H148.718V18.5759C148.698 18.8169 148.728 19.0595 148.807 19.2881C148.886 19.5166 149.011 19.7263 149.176 19.9034C149.341 20.0805 149.541 20.2213 149.763 20.3167C149.986 20.412 150.225 20.4599 150.467 20.4572C150.777 20.4944 151.091 20.4386 151.369 20.2968C151.647 20.1551 151.877 19.9338 152.029 19.6611L153.277 19.6612ZM148.718 17.5449H152.035C152.051 17.3244 152.021 17.1031 151.947 16.895C151.872 16.6869 151.756 16.4965 151.603 16.3363C151.451 16.1761 151.267 16.0496 151.063 15.9647C150.859 15.8799 150.64 15.8387 150.418 15.8437C150.195 15.8409 149.972 15.883 149.765 15.9675C149.556 16.052 149.368 16.1772 149.209 16.3357C149.051 16.4943 148.926 16.683 148.842 16.8906C148.757 17.0983 148.715 17.3207 148.718 17.5449Z" fill="#F16648"/>
<path d="M36.6219 29.6049C36.6376 28.3877 36.9609 27.1943 37.5617 26.1356C38.1626 25.0769 39.0215 24.1874 40.0585 23.5499C39.3998 22.609 38.5307 21.8347 37.5203 21.2885C36.5099 20.7423 35.3861 20.4392 34.238 20.4032C31.7892 20.1462 29.4151 21.8686 28.1672 21.8686C26.8951 21.8686 24.9738 20.4288 22.9048 20.4713C21.5666 20.5146 20.2623 20.9038 19.1191 21.6009C17.9759 22.2981 17.0329 23.2795 16.3818 24.4495C13.5614 29.3326 15.6652 36.5091 18.3669 40.4562C19.7186 42.3891 21.2984 44.548 23.3655 44.4715C25.3883 44.3875 26.1437 43.1816 28.5855 43.1816C31.0045 43.1816 31.7133 44.4715 33.8223 44.4228C35.9928 44.3875 37.3605 42.4814 38.6648 40.5303C39.636 39.1531 40.3833 37.6311 40.8791 36.0204C39.618 35.487 38.5419 34.5942 37.7849 33.4534C37.0279 32.3126 36.6234 30.9741 36.6219 29.6049Z" fill="#F16648"/>
<path d="M32.6379 17.8073C33.8214 16.3866 34.4044 14.5605 34.2632 12.7169C32.4552 12.9068 30.785 13.7709 29.5855 15.1371C28.999 15.8046 28.5499 16.581 28.2637 17.4222C27.9775 18.2633 27.8599 19.1526 27.9176 20.0391C28.8219 20.0485 29.7167 19.8525 30.5343 19.4659C31.352 19.0793 32.0712 18.5122 32.6379 17.8073Z" fill="#F16648"/>
</g>
<defs>
<clipPath id="clip0_769_12259">
<rect width="175" height="58.3333" fill="white" transform="translate(0.5)"/>
</clipPath>
</defs>
</svg>
