<svg width="16" height="30" viewBox="0 0 16 30" fill="none" xmlns="http://www.w3.org/2000/svg">
<path d="M0.00262356 14.8854C0.0292025 14.5137 0.179569 14.1617 0.429709 13.8855L12.4293 0.552572C12.8275 0.109647 13.4317 -0.0871911 14.0144 0.0362149C14.597 0.159621 15.0696 0.58452 15.254 1.15083C15.4384 1.71715 15.3067 2.33883 14.9084 2.78166L3.90876 15L14.9084 27.2183C15.3067 27.6612 15.4384 28.2829 15.254 28.8492C15.0696 29.4155 14.597 29.8404 14.0144 29.9638C13.4317 30.0872 12.8275 29.8904 12.4293 29.4474L0.429709 16.1145C0.126698 15.7796 -0.0274239 15.3361 0.00262356 14.8854Z" fill="white"/>
</svg>
