<svg width="31" height="30" viewBox="0 0 31 30" fill="none" xmlns="http://www.w3.org/2000/svg">
<path d="M0.977051 4.73684H5.71389V0H0.977051V4.73684ZM2.556 1.57895H4.13495V3.15789H2.556V1.57895ZM0.977051 22.8947H5.71389V18.1579H0.977051V22.8947ZM2.556 19.7368H4.13495V21.3158H2.556V19.7368ZM19.1349 22.8947H23.8718V18.1579H19.1349V22.8947ZM20.7139 19.7368H22.2928V21.3158H20.7139V19.7368ZM19.1349 4.73684H23.8718V0H19.1349V4.73684ZM20.7139 1.57895H22.2928V3.15789H20.7139V1.57895ZM2.556 4.73684H4.13495V18.1579H2.556V4.73684ZM22.2928 4.73684H20.7139V18.1579H22.2928V10.2632H26.2402V8.68421H22.2928V4.73684ZM5.71389 1.57895H19.1349V3.15789H5.71389V1.57895ZM27.8192 11.8421H29.3981V25.2632H27.8192V11.8421ZM12.8192 26.8421H26.2402V28.4211H12.8192V26.8421ZM9.66126 25.2632H11.2402V21.3158H19.1349V19.7368H5.71389V21.3158H9.66126V25.2632ZM26.2402 7.10526V11.8421H30.9771V7.10526H26.2402ZM29.3981 10.2632H27.8192V8.68421H29.3981V10.2632ZM26.2402 25.2632V30H30.9771V25.2632H26.2402ZM29.3981 28.4211H27.8192V26.8421H29.3981V28.4211ZM8.08231 25.2632V30H12.8192V25.2632H8.08231ZM11.2402 28.4211H9.66126V26.8421H11.2402V28.4211Z" fill="#F16648"/>
</svg>
