<svg width="38" height="32" viewBox="0 0 38 32" fill="none" xmlns="http://www.w3.org/2000/svg">
<path d="M2.42857 15.2857C2.04969 15.2857 1.68633 15.4363 1.41842 15.7042C1.15051 15.9721 1 16.3354 1 16.7143C1 17.0932 1.15051 17.4566 1.41842 17.7245C1.68633 17.9924 2.04969 18.1429 2.42857 18.1429C2.80745 18.1429 3.17081 17.9924 3.43872 17.7245C3.70663 17.4566 3.85714 17.0932 3.85714 16.7143C3.85714 16.3354 3.70663 15.9721 3.43872 15.7042C3.17081 15.4363 2.80745 15.2857 2.42857 15.2857ZM11.7143 11C11.3354 11 10.972 11.1505 10.7041 11.4185C10.4362 11.6864 10.2857 12.0497 10.2857 12.4286C10.2857 12.8075 10.4362 13.1708 10.7041 13.4388C10.972 13.7067 11.3354 13.8572 11.7143 13.8572C12.0932 13.8572 12.4565 13.7067 12.7244 13.4388C12.9923 13.1708 13.1429 12.8075 13.1429 12.4286C13.1429 12.0497 12.9923 11.6864 12.7244 11.4185C12.4565 11.1505 12.0932 11 11.7143 11ZM18.8571 5.28574C18.4783 5.28574 18.1149 5.43625 17.847 5.70416C17.5791 5.97207 17.4286 6.33544 17.4286 6.71432C17.4286 7.0932 17.5791 7.45656 17.847 7.72447C18.1149 7.99238 18.4783 8.14289 18.8571 8.14289C19.236 8.14289 19.5994 7.99238 19.8673 7.72447C20.1352 7.45656 20.2857 7.0932 20.2857 6.71432C20.2857 6.33544 20.1352 5.97207 19.8673 5.70416C19.5994 5.43625 19.236 5.28574 18.8571 5.28574ZM26 9.57146C25.6211 9.57146 25.2578 9.72197 24.9898 9.98988C24.7219 10.2578 24.5714 10.6212 24.5714 11C24.5714 11.3789 24.7219 11.7423 24.9898 12.0102C25.2578 12.2781 25.6211 12.4286 26 12.4286C26.3789 12.4286 26.7422 12.2781 27.0102 12.0102C27.2781 11.7423 27.4286 11.3789 27.4286 11C27.4286 10.6212 27.2781 10.2578 27.0102 9.98988C26.7422 9.72197 26.3789 9.57146 26 9.57146ZM35.2857 1.00003C34.9068 1.00003 34.5435 1.15054 34.2756 1.41845C34.0077 1.68636 33.8571 2.04972 33.8571 2.4286C33.8571 2.80748 34.0077 3.17085 34.2756 3.43875C34.5435 3.70666 34.9068 3.85717 35.2857 3.85717C35.6646 3.85717 36.028 3.70666 36.2959 3.43875C36.5638 3.17085 36.7143 2.80748 36.7143 2.4286C36.7143 2.04972 36.5638 1.68636 36.2959 1.41845C36.028 1.15054 35.6646 1.00003 35.2857 1.00003ZM2.42857 25.2857C2.04969 25.2857 1.68633 25.4363 1.41842 25.7042C1.15051 25.9721 1 26.3354 1 26.7143C1 27.0932 1.15051 27.4566 1.41842 27.7245C1.68633 27.9924 2.04969 28.1429 2.42857 28.1429C2.80745 28.1429 3.17081 27.9924 3.43872 27.7245C3.70663 27.4566 3.85714 27.0932 3.85714 26.7143C3.85714 26.3354 3.70663 25.9721 3.43872 25.7042C3.17081 25.4363 2.80745 25.2857 2.42857 25.2857ZM11.7143 26.7143C11.3354 26.7143 10.972 26.8648 10.7041 27.1327C10.4362 27.4006 10.2857 27.764 10.2857 28.1429C10.2857 28.5218 10.4362 28.8851 10.7041 29.153C10.972 29.421 11.3354 29.5715 11.7143 29.5715C12.0932 29.5715 12.4565 29.421 12.7244 29.153C12.9923 28.8851 13.1429 28.5218 13.1429 28.1429C13.1429 27.764 12.9923 27.4006 12.7244 27.1327C12.4565 26.8648 12.0932 26.7143 11.7143 26.7143ZM18.8571 21C18.4783 21 18.1149 21.1505 17.847 21.4184C17.5791 21.6864 17.4286 22.0497 17.4286 22.4286C17.4286 22.8075 17.5791 23.1708 17.847 23.4388C18.1149 23.7067 18.4783 23.8572 18.8571 23.8572C19.236 23.8572 19.5994 23.7067 19.8673 23.4388C20.1352 23.1708 20.2857 22.8075 20.2857 22.4286C20.2857 22.0497 20.1352 21.6864 19.8673 21.4184C19.5994 21.1505 19.236 21 18.8571 21ZM26 28.1429C25.6211 28.1429 25.2578 28.2934 24.9898 28.5613C24.7219 28.8292 24.5714 29.1926 24.5714 29.5715C24.5714 29.9503 24.7219 30.3137 24.9898 30.5816C25.2578 30.8495 25.6211 31 26 31C26.3789 31 26.7422 30.8495 27.0102 30.5816C27.2781 30.3137 27.4286 29.9503 27.4286 29.5715C27.4286 29.1926 27.2781 28.8292 27.0102 28.5613C26.7422 28.2934 26.3789 28.1429 26 28.1429ZM35.2857 19.5715C34.9068 19.5715 34.5435 19.722 34.2756 19.9899C34.0077 20.2578 33.8571 20.6212 33.8571 21C33.8571 21.3789 34.0077 21.7423 34.2756 22.0102C34.5435 22.2781 34.9068 22.4286 35.2857 22.4286C35.6646 22.4286 36.028 22.2781 36.2959 22.0102C36.5638 21.7423 36.7143 21.3789 36.7143 21C36.7143 20.6212 36.5638 20.2578 36.2959 19.9899C36.028 19.722 35.6646 19.5715 35.2857 19.5715Z" fill="#F16648" stroke="#EE644E"/>
<path d="M2.42847 16.7143L11.7142 12.4286L18.857 6.71432L25.9999 11L35.2856 2.4286M2.42847 26.7143L11.7142 28.1429L18.857 22.4286L25.9999 29.5715L35.2856 21" stroke="#F16648" stroke-width="2" stroke-miterlimit="10" stroke-linecap="round"/>
</svg>
