<svg width="20" height="20" viewBox="0 0 20 20" fill="none" xmlns="http://www.w3.org/2000/svg">
<path fill-rule="evenodd" clip-rule="evenodd" d="M3.05556 1.66667C2.28857 1.66667 1.66667 2.28857 1.66667 3.05556V16.9444C1.66667 17.7114 2.28857 18.3333 3.05556 18.3333H16.9444C17.7114 18.3333 18.3333 17.7114 18.3333 16.9444V3.05556C18.3333 2.28857 17.7114 1.66667 16.9444 1.66667H3.05556ZM0 3.05556C0 1.3681 1.3681 0 3.05556 0H16.9444C18.6319 0 20 1.3681 20 3.05556V16.9444C20 18.6319 18.6319 20 16.9444 20H3.05556C1.3681 20 0 18.6319 0 16.9444V3.05556Z" fill="#001035"/>
<path d="M5.27778 6.66667C6.04484 6.66667 6.66667 6.04484 6.66667 5.27778C6.66667 4.51072 6.04484 3.88889 5.27778 3.88889C4.51072 3.88889 3.88889 4.51072 3.88889 5.27778C3.88889 6.04484 4.51072 6.66667 5.27778 6.66667Z" fill="#001035"/>
<path d="M6.11111 16.1111H4.44444C4.13722 16.1111 3.88889 15.8628 3.88889 15.5556V8.33333C3.88889 8.02611 4.13722 7.77778 4.44444 7.77778H6.11111C6.41833 7.77778 6.66667 8.02611 6.66667 8.33333V15.5556C6.66667 15.8628 6.41833 16.1111 6.11111 16.1111Z" fill="#001035"/>
<path d="M12.7778 7.77778C11.9233 7.77778 11.1461 8.10333 10.5556 8.63389V8.33333C10.5556 8.02611 10.3072 7.77778 10 7.77778H8.33333C8.02611 7.77778 7.77778 8.02611 7.77778 8.33333V15.5556C7.77778 15.8628 8.02611 16.1111 8.33333 16.1111H10C10.3072 16.1111 10.5556 15.8628 10.5556 15.5556V11.3889C10.5556 10.6228 11.1783 10 11.9444 10C12.7106 10 13.3333 10.6228 13.3333 11.3889V15.5556C13.3333 15.8628 13.5817 16.1111 13.8889 16.1111H15.5556C15.8628 16.1111 16.1111 15.8628 16.1111 15.5556V11.1111C16.1111 9.27278 14.6161 7.77778 12.7778 7.77778Z" fill="#001035"/>
</svg>
