<svg width="45" height="45" viewBox="0 0 45 45" fill="none" xmlns="http://www.w3.org/2000/svg">
<path d="M22.5 0C23.0447 0 23.5848 0.0193462 24.1198 0.0573887L19.5864 23.5491C19.2013 24.3103 18.7632 24.9869 18.2721 25.5788C17.7809 26.1707 17.1429 26.8237 16.3578 27.5378L17.6585 28.7982C18.1213 28.3553 18.7639 27.8313 19.5864 27.2261C20.409 26.6209 21.2217 26.1138 22.0247 25.7047H34.2261L32.9562 31.7099H12.0267L16.8648 6.46916C16.555 6.57801 16.2494 6.69558 15.9482 6.82158C9.84168 9.39325 5.51648 15.4608 5.51367 22.5C5.51648 29.5392 9.80393 35.5771 15.9104 38.1487L15.9482 38.1784C17.9643 39.0218 20.1777 39.4876 22.5 39.4876C25.1672 39.4876 27.6907 38.8731 29.9368 37.778L29.9344 37.7653C35.5878 35.01 39.4837 29.2099 39.4863 22.5C39.4837 15.7901 35.5878 9.99004 29.9344 7.23469L29.9368 7.22202C29.5774 7.0468 29.2109 6.88388 28.8379 6.73381L29.8924 1.24215C38.6875 4.29932 45 12.659 45 22.4925V22.5075C45 34.9298 34.9264 45 22.5 45C10.0736 45 0 34.9298 0 22.5075V22.4925C0 10.0702 10.0736 0 22.5 0Z" fill="#FFFFFF"/>
</svg>
