<svg width="600" height="118" viewBox="0 0 600 118" fill="none" xmlns="http://www.w3.org/2000/svg">
<path fill-rule="evenodd" clip-rule="evenodd" d="M15.6689 96.1956C18.5004 93.5795 20.8354 91.1688 22.6741 88.9635C24.7115 86.5196 26.529 83.7262 28.1265 80.5833V3.0224H0V114.277H78.915V89.4831H38.2414C34.9104 91.1722 31.5387 93.266 28.1265 95.7647C24.7143 98.2634 22.0484 100.427 20.1288 102.255L14.7329 97.0515C15.0507 96.7638 15.3627 96.4785 15.6689 96.1956ZM38.5456 90.7489C35.37 92.3793 32.1461 94.3902 28.8744 96.786C25.4835 99.269 22.8659 101.396 21.0019 103.172L20.1234 104.009L12.8791 97.0222L13.8834 96.113C17.1114 93.1908 19.7134 90.5379 21.7018 88.1529C23.6147 85.8584 25.3354 83.2355 26.8607 80.2781V4.28823H1.26582V113.011H77.6491V90.7489H38.5456ZM282.998 116.031L283.002 116.031C309.247 115.877 329.78 101.262 334.739 76.759L310.465 70.8302C308.653 77.9878 305.354 83.6236 300.765 87.5269C295.905 91.6617 289.695 93.7688 282.527 93.7688C273.188 93.7688 265.244 90.214 259.647 83.9923C254.059 77.7812 250.884 68.999 250.884 58.6498C250.884 48.3006 254.059 39.5183 259.647 33.3073C265.244 27.0856 273.188 23.5308 282.527 23.5308C289.442 23.5308 295.397 25.4712 300.111 29.2305C304.544 32.7648 307.799 37.8415 309.755 44.2285L333.742 37.72C328.467 15.7018 308.43 1.42185 283.001 1.26853L282.998 1.26851C246.65 0.957304 224.968 27.8059 224.968 58.6498C224.968 89.4937 246.65 116.342 282.998 116.031ZM335.244 38.624L308.886 45.7759L308.885 45.776C305.189 32.2666 295.867 24.7966 282.527 24.7966C264.526 24.7966 252.15 38.465 252.15 58.6498C252.15 78.8345 264.526 92.503 282.527 92.503C295.968 92.503 305.61 84.8375 309.235 70.5298C309.337 70.1247 309.435 69.7142 309.528 69.2984L336.208 75.8148C331.547 101.721 310.171 117.138 283.009 117.297C245.882 117.615 223.702 90.1189 223.702 58.6498C223.702 27.1806 245.882 -0.315141 283.009 0.00272907C309.368 0.161664 330.261 15.2605 335.244 38.624ZM422.577 63.8209L423.76 63.7439C434.627 63.038 442.863 60.3022 448.373 55.3811C453.845 50.4949 456.81 43.2893 456.81 33.2201C456.81 24.2155 453.824 17.0331 448.33 12.0889C442.819 7.12966 434.636 4.28823 424.003 4.28823H365.641V113.011H391.236V76.1382H400.698C405.875 76.1382 409.502 76.9458 412.395 79.4463C415.208 81.8774 417.149 85.7728 419.391 91.3948C419.392 91.396 419.392 91.3971 419.393 91.3983L426.329 108.465L426.348 108.537C426.761 110.031 427.4 111.567 428.978 113.011H458.739V112.597C455.704 110.567 454.197 107.302 452.422 103.353L452.414 103.337L452.408 103.32L447.908 92.5151C444.642 84.7165 441.747 80.6258 438.22 78.2331C434.669 75.8249 430.305 75.0082 423.691 74.2106L422.577 74.0762V63.8209ZM460.005 111.893V114.277H428.503C426.414 112.529 425.61 110.621 425.128 108.873L418.217 91.8671C413.717 80.5827 410.824 77.4041 400.698 77.4041H392.501V114.277H364.375V3.0224H424.003C445.701 3.0224 458.076 14.6247 458.076 33.2201C458.076 53.8816 445.861 63.5767 423.842 65.0071V72.9539C437.022 74.5432 442.486 76.2915 449.076 92.0261L453.576 102.834C455.505 107.125 456.951 110.145 460.005 111.893ZM391.236 25.9147H417.253C421.635 25.9147 425.186 27.0416 427.634 29.5073C430.079 31.9713 431.216 35.5643 431.216 40.0543C431.216 44.5157 429.892 48.1622 427.396 50.6969C424.9 53.233 421.373 54.5117 417.253 54.5117H391.236V25.9147ZM545.515 31.6308C546.319 40.6901 548.408 50.7031 551.783 61.0338L569.623 114.277H600L557.408 3.02253H524.139L481.387 114.277H511.602L529.603 61.0338C533.782 48.6369 535.229 39.1008 535.872 31.6308H545.515ZM528.404 60.6284C532.545 48.3431 533.975 38.9088 534.61 31.5223L534.71 30.365H546.673L546.776 31.519C547.57 40.4715 549.637 50.3899 552.986 60.6407L570.534 113.011H598.16L556.538 4.28835H525.008L483.229 113.011H510.694L528.404 60.6295L528.404 60.6284ZM186.022 104.44C193.91 96.927 198.246 85.8094 198.246 71.3645V4.28823H172.651V69.2984C172.651 77.3104 170.978 83.4656 167.403 87.6261C163.795 91.825 158.446 93.7687 151.616 93.7687C144.795 93.7687 139.407 91.8697 135.756 87.6939C132.135 83.5523 130.421 77.3931 130.421 69.2984V4.28823H104.826V71.3645C104.826 85.8061 109.201 96.9237 117.128 104.438C125.066 111.962 136.731 116.031 151.616 116.031C166.501 116.031 178.125 111.962 186.022 104.44ZM103.56 71.3645C103.56 100.768 121.401 117.297 151.616 117.297C181.832 117.297 199.512 100.768 199.512 71.3645V3.0224H171.385V69.2984C171.385 85.033 164.796 92.5029 151.616 92.5029C138.437 92.5029 131.687 85.1919 131.687 69.2984V3.0224H103.56V71.3645ZM392.501 27.1805H417.253C425.61 27.1805 429.95 31.4718 429.95 40.0543C429.95 48.4779 424.967 53.2459 417.253 53.2459H392.501V27.1805Z" fill="#F84722"/>
</svg>
