<svg width="20" height="20" viewBox="0 0 20 20" fill="none" xmlns="http://www.w3.org/2000/svg">
<path fill-rule="evenodd" clip-rule="evenodd" d="M13.8393 12.986C13.6814 12.8281 13.6635 12.5641 13.7943 12.3915C13.7943 12.3915 13.8446 12.3336 13.9753 12.1386C14.7887 10.9251 15.2632 9.46535 15.2632 7.89476C15.2632 3.67996 11.8464 0.263184 7.63158 0.263184C3.41677 0.263184 0 3.67996 0 7.89476C0 12.1096 3.41677 15.5263 7.63158 15.5263C9.196 15.5263 10.6505 15.0556 11.8611 14.2481C12.0612 14.1146 12.1265 14.0586 12.1265 14.0586C12.3004 13.9281 12.5671 13.9468 12.7228 14.1025L18.126 19.5056C18.4343 19.8139 18.9341 19.8139 19.2425 19.5056C19.5508 19.1973 19.5508 18.6975 19.2425 18.3892L13.8393 12.986ZM13.6842 7.89476C13.6842 11.2375 10.9744 13.9474 7.63158 13.9474C4.2888 13.9474 1.57895 11.2375 1.57895 7.89476C1.57895 4.55199 4.2888 1.84213 7.63158 1.84213C10.9744 1.84213 13.6842 4.55199 13.6842 7.89476Z" fill="black"/>
</svg>
