<svg width="29" height="29" viewBox="0 0 29 29" fill="none" xmlns="http://www.w3.org/2000/svg">
<path d="M24.3182 1C23.3417 1 22.4052 1.3879 21.7147 2.07838C21.0243 2.76885 20.6364 3.70534 20.6364 4.68182C20.6364 5.6583 21.0243 6.59478 21.7147 7.28526C22.4052 7.97573 23.3417 8.36364 24.3182 8.36364C25.2947 8.36364 26.2311 7.97573 26.9216 7.28526C27.6121 6.59478 28 5.6583 28 4.68182C28 3.70534 27.6121 2.76885 26.9216 2.07838C26.2311 1.3879 25.2947 1 24.3182 1V1ZM24.3182 20.6364C23.3417 20.6364 22.4052 21.0243 21.7147 21.7147C21.0243 22.4052 20.6364 23.3417 20.6364 24.3182C20.6364 25.2947 21.0243 26.2311 21.7147 26.9216C22.4052 27.6121 23.3417 28 24.3182 28C25.2947 28 26.2311 27.6121 26.9216 26.9216C27.6121 26.2311 28 25.2947 28 24.3182C28 23.3417 27.6121 22.4052 26.9216 21.7147C26.2311 21.0243 25.2947 20.6364 24.3182 20.6364ZM4.68182 10.8182C4.19831 10.8182 3.71955 10.9134 3.27285 11.0984C2.82615 11.2835 2.42027 11.5547 2.07838 11.8966C1.73649 12.2384 1.46529 12.6443 1.28026 13.091C1.09523 13.5377 1 14.0165 1 14.5C1 14.9835 1.09523 15.4623 1.28026 15.909C1.46529 16.3557 1.73649 16.7616 2.07838 17.1034C2.42027 17.4453 2.82615 17.7165 3.27285 17.9016C3.71955 18.0866 4.19831 18.1818 4.68182 18.1818C5.16532 18.1818 5.64409 18.0866 6.09079 17.9016C6.53749 17.7165 6.94337 17.4453 7.28526 17.1034C7.62715 16.7616 7.89835 16.3557 8.08338 15.909C8.2684 15.4623 8.36364 14.9835 8.36364 14.5C8.36364 14.0165 8.2684 13.5377 8.08338 13.091C7.89835 12.6443 7.62715 12.2384 7.28526 11.8966C6.94337 11.5547 6.53749 11.2835 6.09079 11.0984C5.64409 10.9134 5.16532 10.8182 4.68182 10.8182Z" stroke="#F16648" stroke-width="2" stroke-miterlimit="10"/>
<path d="M7.75 14.5H16.3409M16.3409 14.5L21.8636 7.75M16.3409 14.5L21.5016 21.3359" stroke="#F16648" stroke-width="2" stroke-miterlimit="10"/>
</svg>
