<svg width="20" height="17" viewBox="0 0 20 17" fill="none" xmlns="http://www.w3.org/2000/svg">
<g id="Twitter-black">
<path id="Twitter" d="M20 1.95588C19.2651 2.28763 18.4739 2.51197 17.644 2.61221C18.4915 2.09669 19.1419 1.27926 19.4483 0.305494C18.6547 0.782829 17.7778 1.13009 16.841 1.31625C16.0944 0.505974 15.0273 0 13.8463 0C11.5819 0 9.74467 1.86757 9.74467 4.17071C9.74467 4.49768 9.77989 4.81511 9.85033 5.12061C6.4401 4.94638 3.41727 3.28764 1.39226 0.761349C1.03892 1.3795 0.837002 2.09669 0.837002 2.86043C0.837002 4.30675 1.56131 5.58362 2.66244 6.33184C1.99096 6.31155 1.35705 6.12181 0.802958 5.81155V5.86286C0.802958 7.88437 2.21753 9.57056 4.09579 9.95242C3.75183 10.0503 3.38909 10.0992 3.01462 10.0992C2.75048 10.0992 2.49222 10.0741 2.24218 10.0252C2.76457 11.6816 4.27892 12.888 6.07501 12.9203C4.67101 14.0396 2.90075 14.7067 0.979045 14.7067C0.648001 14.7067 0.320479 14.6876 0 14.6494C1.81605 15.8308 3.9737 16.5217 6.28984 16.5217C13.8381 16.5217 17.9644 10.1672 17.9644 4.6552C17.9644 4.47382 17.9609 4.29243 17.9539 4.11462C18.7556 3.52631 19.4518 2.79241 20 1.95588Z" fill="#FFFFFF"/>
</g>
</svg>
