<svg width="20" height="20" viewBox="0 0 20 20" fill="none" xmlns="http://www.w3.org/2000/svg">
<path fill-rule="evenodd" clip-rule="evenodd" d="M13.9191 4.20706C13.9191 1.9123 12.0234 0 9.74861 0C7.4738 0 5.57812 1.9123 5.57812 4.20706C5.57812 6.50183 7.4738 8.41413 9.74861 8.41413C12.0234 8.41413 13.9191 6.50183 13.9191 4.20706ZM7.34742 4.07958C7.34742 2.80471 8.35845 1.65733 9.74861 1.65733C11.0124 1.65733 12.1498 2.67722 12.1498 4.07958C12.1498 5.35444 11.1388 6.50183 9.74861 6.50183C8.48482 6.50183 7.34742 5.48193 7.34742 4.07958Z" fill="black"/>
<path d="M19.0075 18.7104C19.0075 20.2445 17.1806 20.384 17.1806 18.9893C17.0401 15.0841 13.8078 12.1552 9.8729 12.1552C5.93798 12.1552 2.70574 15.0841 2.5652 18.9893C2.5652 20.384 0.738281 20.2445 0.738281 18.7104C1.01935 13.9684 5.09479 10.2027 9.8729 10.3421C14.651 10.3421 18.7264 13.9684 19.0075 18.7104Z" fill="black"/>
</svg>
